<svg id="flag-icons-nog" class="fi fi-nog" viewBox="0 0 640 480" xmlns="http://www.w3.org/2000/svg" width="640" height="480">
  <metadata id="flag-icons">
    <name>Nogais</name>
    <code>nog</code>
    <iso>false</iso>
    <type>People</type>
  </metadata>
  <path d="M0 0h640v480H0Z" style="fill:#32ccfe;fill-opacity:1;stroke:none;stroke-width:.999999;stroke-linecap:round;stroke-linejoin:round;stroke-miterlimit:4;stroke-dasharray:none;stroke-opacity:1;paint-order:normal;stop-color:#000"/>
  <g style="stroke-width:.271198">
    <g style="opacity:1;stroke-width:.271198">
      <path d="M1061.222-363.603c-5.402 2.75-9.989 9.693-7.18 15.793.802 2.858 3.4 4.8 4.546 7.35-3.486 1.897-7.812 2.038-11.37 4.016-6.948 2.487-12.87 9.667-11.244 17.344 1.472 7.447 7.79 14.287 15.461 15.303 6.807.214 11.4-6.612 12.615-12.618.543-4.39-2.801-9.705-7.444-9.88-3.183.603-3.52 4.462-3.634 6.98-2.174.698-1.235-2.39-1.082-3.533.46-2.944 2.982-5.778 6.204-4.89 6.918 1.654 9.382 11.024 5.71 16.617-2.23 4.456-6.29 9.367-11.866 8.481-8.014.046-14.257-6.683-16.811-13.79-1.204-5.004-1.052-10.666 2.402-14.759 3.647-4.88 9.718-6.89 15.038-9.246.805-1.724-2.286-1.578-3.318-1.89-19.46-2.486-39.145-.6-58.538 1.2-19.89-.026-39.704-2.393-59.482-4.359-6.467-.543-12.98-1.774-19.428-1.928-1.517 1.616.655 4.037 1.307 5.648 5.769 8.907 17.096 11.403 26.917 12.803 17.404 2.467 34.902-.532 52.335-.233 4.82.35 11.21.026 14.118 4.735.92 2.706-3.027 3.194-4.823 3.603-15.092 1.935-30.554.713-45.78.368-10.438-.294-20.913-1.124-31.279-1.623-1.939.928.786 2.833 1.452 3.753 7.132 7.54 17.535 10.83 27.424 12.912 19.21 3.71 38.86 1.35 58.218 1.788 1.618-.075 4.852.541 3.162 2.901-3.135 4.207-9.197 3.878-13.912 4.352-21.126.784-42.13-3.868-63.282-3.176-1.663-.294-2.382 1.588-1.039 2.547 6.739 6.83 15.64 11.416 24.845 13.815 20.358.512 40.839-.073 61.108 1.572 1.875.527 5.62.133 5.979 2.69-1.338 3.128-5.73 2.705-8.418 3.18-20.782 1.06-41.625-1.484-62.423-.615-1.437.498-4.366-.33-4.792 1.556 2.22 5.227 7.774 8.063 12.397 10.874 3.922 2.35 8.46 3.43 13.009 2.711 18.818-.822 37.876-1.939 56.553.733 1.942.13 5.317 1.608 3.549 3.942-3.212 2.88-8.157 1.993-12.122 2.324-17.59-.214-35.216-2.46-52.81-1.295-2.36.556-2.854 3.965-.63 5.124 8.673 6.991 20.055 9.293 30.966 9.27 12.356.537 24.893-.464 37.13.744 1.368.205 4.268 1.141 3.813 2.916-5.156 3.014-11.473 2.358-17.245 2.473-10.605.093-21.416-3.542-31.952-.886-1.9.637-5.418 1.423-4.33 4.214 1.26 5.452 7.55 7.311 12.2 8.885 13.36 3.018 27.213 1.886 40.802 2.255 4.77.325 9.786-.496 14.379.706 1.411 2.157-2.048 3.554-3.72 3.998-12.434 1.267-25.059 1.193-37.58 1.579-2.419.366-5.454-.61-7.559.833.467 2.66 3.423 4.33 5.21 6.197 6.702 4.917 15.498 5.825 23.576 5.993 9.826-.067 19.835-3.471 29.52-.727 1.788.828 1.493 3.809-.715 3.879-8.834 2.45-18.331 1.433-27.478 1.793-4.25.172-8.61-.175-12.8.443-.379 1.886 2.374 2.914 3.414 4.204 2.438 2.266 5.722 4.1 9.117 2.861 9.58-1.83 19.687-3.714 29.245-.968.785.246 3.73 1.507 1.506 1.936-6.864 1.217-14.525-.531-20.85 2.998-3.216 2.61 0 6.634 1.835 9.01 3.255 4.31 8.704 6.501 14.037 5.702 6.82-.807 11.895-5.989 17.612-9.208 1.312 1.398-1.915 2.688-2.635 3.628-6.846 5.394-16.484 9.775-24.86 5.302-4.088-2.535-8.15-6.523-8.852-11.479-.124-4.019 4.59-5.326 7.235-7.002-1.31-1.35-4.187.11-6.104.054-4.576.964-10.093.847-13.18 4.977-7.448 6.733-17.83 8.695-27.084 11.948-13.853 4.552-28.508 8.08-40.632 16.531-13.816 10.6-19.587 28.541-20.521 45.354-.71 10.12 1.271 20.125 3.58 29.917.417.916-.165 1.773-.94.808-4.978-5.876-8.16-13.24-10.21-20.586-5.1-21.932 3.248-45.184 17.363-62.177 6.773-8.16 15.282-14.889 25.17-18.821a69.7 69.7 0 0 1 15.958-4.786c1.078-4.582-2.353-9.868-7.103-10.96-10.05-2.517-20.281.827-29.837 3.795-5.609 1.566-12.872 1.24-16.1-4.434-2.301-3.979-3.408-9.797-.404-13.663 4.033-4.06 11.55-3.715 15.428.335 1.928 2.81 1.265 7.247-1.176 9.395-1.94-1.423 1.312-3.41 1.037-5.244-.42-5.595-7.644-7.126-11.98-5.113-4.956 2.572-4.109 9.675-1.452 13.675 1.847 2.945 5.171 4.682 8.667 4.112 4.867.269 10.405-.745 13.16-5.234 5.533-7.106 9.177-17.737 3.902-25.978-6.284-10.561-20.086-14.486-31.674-12.266-14.337 2.379-24.962 15.649-26.496 29.743-.587 4.711-.735 9.597-.32 14.263 5.176-1.541 10.259-6.286 16.065-5.09 3.672 1.547 3.049 6.408 2.568 9.606-3.744 16.73-12.88 31.559-21.867 45.919-5.13 8.41-8.425 18.158-7.766 28.107.12 4.991-.79 10.157 1.63 14.772 3.653 11.892 10.386 24.416 22.58 29.206 8.148 3.356 17.162 1.437 25.117-1.476 2.09.622 3.35 3.207 5.127 4.568 5.953 5.97 14.088 8.674 21.715 11.725 1.785.858-1.324 1.188-1.924 1.394-4.253 1.061-9.914 3.905-9.536 9.029 1.119 5.009 6.301 8.397 11.356 7.748 10.8.671 21.388-1.968 31.517-5.46 3.737-2.24 7.502.427 11.349.9 15.316 3.018 30.906 4.741 46.46 5.746 2.224-.55.259-4.539 2.987-4.196 6.786-.389 13.982-.432 19.845-4.402 3.147-1.118-1.052-3.397-2.14-4.806-9.562-7.9-21.43-14.88-34.276-14.005-15.942 1.935-31.94 6.358-48.056 4.05-1.388-.479.943-1.37 1.358-1.599 12.942-4.05 23.603-14.138 29.189-26.383.949-4.675 1.874-9.62 1.11-14.371-3.121-9.036-7.917-18.457-16.437-23.464-7.828-4.547-17.121-.76-24.59 2.657-7.16 3.37-14.61 9.877-13.908 18.542.593 8.58 9.536 16.883 18.305 13.92 4.487-1.724 8.076-6.57 7.824-11.427-.344-3.285-3.923-5.052-6.853-3.815-1.399-.004-3.758 2.465-4.56.584 3.332-3.019 10.43-3.73 12.37 1.363 1.991 4.47-1.385 9.46-4.544 12.488-5.546 5.065-14.405 3.183-19.006-2.263-4.082-3.414-5.223-8.903-4.754-13.935.04-6.308 5.389-11.048 10.112-14.4 7.105-4.256 15.556-7.987 24.124-7.113 10.061 1.458 16.357 10.535 20.385 19.074 1.359 2.533 2.126 5.425 3.508 7.878 21.37-11.467 42.433-23.753 63.886-35.165 4.867-2.767 10.485-3.878 15.702-5.676.5-1.628-2.361-1.759-3.117-2.898-3.087-2.128-6.095-5.547-4.889-9.576 1.236-5.893 7.341-8.6 12.086-11.28 3.939-.896-.513-2.834-2.007-3.893-8.017-5.218-11.491-15.546-9.387-24.718 1.537-8.214 7.999-15.394 6.586-24.174-.68-5.98-6.261-9.642-11.64-11.045-1.458-.29-.772-1.953.57-1.226 6.2 1.244 12.895 6.337 12.427 13.229.07 3.025-.024 6.097-.595 9.017 8.219.392 17.674-1.45 24.892 3.66 5.025 3.99 3.65 11.425 1.657 16.666-1.256 3.392-4.839 7.638-8.87 5.75-2.477-1.254-5.573-3.002-6.447-5.71 1.175-1.58 2.582 1.592 3.646 1.997 1.883 2.219 5.61 4.054 7.907 1.32 2.89-3.801 4.188-8.849 4.152-13.583-.839-5.72-7.192-8.137-12.31-8.316-4.97-.146-10.185-.965-15.034.38-2.922 2.87-3.97 7.238-5.18 11.068-2.398 7.84-.256 16.884 5.935 22.387 9.275 8.474 24.454 9.49 34.968 2.778 6.144-4.222 9.968-11.49 9.783-18.97.836-18.228-2.508-38.081-15.259-51.956-10.677-11.914-28.397-18.243-43.929-13.193-9.408 2.985-15.803 11.877-17.497 21.363-.83 5.635-2.556 11.751.275 17.117 2.057 5.473 5.868 10.186 10.828 13.26.4 2.045-1.857.375-2.69-.087-7.45-4.612-10.027-13.716-12.64-21.556-4.453-14.993-3.23-30.903-2.31-46.284 1.858-16.136 3.825-33.043-.987-48.886-2.104-7.171-7.123-12.958-12.872-17.522-5.926-6.538-6.48-16.062-4.828-24.34.118-.616-.118-1.48-.91-1.383" style="color:#000;font-style:normal;font-variant:normal;font-weight:400;font-stretch:normal;font-size:medium;line-height:normal;font-family:sans-serif;font-variant-ligatures:normal;font-variant-position:normal;font-variant-caps:normal;font-variant-numeric:normal;font-variant-alternates:normal;font-variant-east-asian:normal;font-feature-settings:normal;font-variation-settings:normal;text-indent:0;text-align:start;text-decoration:none;text-decoration-line:none;text-decoration-style:solid;text-decoration-color:#000;letter-spacing:normal;word-spacing:normal;text-transform:none;writing-mode:lr-tb;direction:ltr;text-orientation:mixed;dominant-baseline:auto;baseline-shift:baseline;text-anchor:start;white-space:normal;shape-padding:0;shape-margin:0;inline-size:0;clip-rule:nonzero;display:inline;overflow:visible;visibility:visible;isolation:auto;mix-blend-mode:normal;color-interpolation:sRGB;color-interpolation-filters:linearRGB;solid-color:#000;solid-opacity:1;vector-effect:none;fill:#029901;fill-opacity:1;fill-rule:nonzero;stroke:none;stroke-width:1.025;stroke-linecap:round;stroke-linejoin:round;stroke-miterlimit:4;stroke-dasharray:none;stroke-dashoffset:0;stroke-opacity:1;color-rendering:auto;image-rendering:auto;shape-rendering:auto;text-rendering:auto;stop-color:#000;stop-opacity:1" transform="translate(-739.995 423.195)scale(.97561)"/>
      <path d="M1061.186-365.492a2 2 0 0 0-.194.014 1.9 1.9 0 0 0-.627.19c-3.081 1.57-5.82 4.228-7.49 7.456-1.65 3.187-2.199 7.058-.596 10.67.764 2.567 2.18 4.247 3.336 5.732-.362.124-.725.26-1.11.371-.026-.577-.177-1.147-.515-1.556-.635-.77-1.327-.962-1.896-1.117-1.139-.31-2.36-.42-2.297-.4a2 2 0 0 0-.309-.067c-19.701-2.517-39.49-.614-58.843 1.181-19.72-.03-39.45-2.38-59.229-4.345l-.03-.004c-6.335-.533-12.883-1.775-19.54-1.934a1.9 1.9 0 0 0-1.422.596 3.97 3.97 0 0 0-1.04 2.633c.002.871.248 1.598.522 2.234.548 1.271 1.276 2.349 1.451 2.783a2 2 0 0 0 .164.319c6.295 9.719 18.306 12.23 28.237 13.646h.002c17.77 2.52 35.338-.5 52.515-.213 2.498.18 5.19.2 7.463.69 2.152.463 3.756 1.303 4.875 2.898-.057.05-.08.092-.328.207-.694.324-1.944.557-2.96.785-14.8 1.885-30.132.692-45.395.346h-.012c-10.37-.292-20.83-1.12-31.23-1.621a1.9 1.9 0 0 0-.909.182c-.867.415-1.735 1.462-1.757 2.513-.022 1.052.43 1.689.802 2.194.746 1.01 1.714 1.89 1.692 1.859a2 2 0 0 0 .16.191c7.574 8.006 18.386 11.35 28.406 13.461l.031.008c19.592 3.783 39.358 1.387 58.534 1.82a2 2 0 0 0 .13 0c.333-.015.76.105 1.184.198-1.189 1.354-2.78 2.123-4.846 2.539-2.23.45-4.825.498-7.281.74-20.791.765-41.781-3.878-63.238-3.176l.392.028c-1.558-.276-3.197.613-3.734 1.966-.538 1.354-.01 3.067 1.267 3.979l-.248-.21c7.026 7.121 16.228 11.843 25.713 14.315a2 2 0 0 0 .43.061c20.426.513 40.873-.067 61.004 1.566l-.36-.064c1.371.385 2.705.384 3.635.603.28.066.374.134.532.205-.403.35-.923.617-1.778.801-1.274.274-2.896.304-4.445.555-20.553 1.045-41.38-1.493-62.373-.615a1.9 1.9 0 0 0-.54.101c-.036.013-1.13.049-2.333.162-.602.057-1.288.152-2.022.553s-1.446 1.255-1.662 2.21a1.9 1.9 0 0 0 .104 1.155c2.566 6.046 8.625 8.995 13.156 11.75l.01.006c4.255 2.55 9.247 3.751 14.275 2.957l-.213.022c18.837-.823 37.777-1.92 56.204.715a2 2 0 0 0 .14.015c.569.039 1.718.426 2.13.748.063.05.023.006.05.036-1.149.926-2.61 1.353-4.441 1.507-1.888.16-4.036.041-6.162.202-17.445-.213-35.121-2.474-52.957-1.291a2 2 0 0 0-.307.044c-3.982.937-4.745 6.727-1.072 8.641l-.313-.205c9.137 7.365 20.957 9.706 32.129 9.686 12.47.537 24.927-.441 36.897.732.217.034.558.193.888.295-4.123 1.465-9.063 1.23-14.08 1.328h-.01c-10.16.088-21.165-3.658-32.392-.828a2 2 0 0 0-.14.04c-.838.282-2.327.623-3.698 1.497-.686.437-1.4 1.06-1.813 2.012-.401.925-.371 2.072.006 3.097.82 3.25 3.136 5.465 5.656 6.93 2.569 1.493 5.422 2.368 7.715 3.145a2 2 0 0 0 .19.052c13.734 3.103 27.719 1.937 41.168 2.303l-.078-.004c4.213.287 8.269-.132 11.86.307-.514.248-1.02.518-1.46.642-12.237 1.232-24.75 1.173-37.252 1.559a2 2 0 0 0-.224.02c-.848.128-2.137.011-3.588-.009s-3.19.079-4.756 1.153a1.89 1.89 0 0 0-.793 1.884c.339 1.933 1.52 3.332 2.66 4.43s2.318 1.987 3.047 2.748a2 2 0 0 0 .246.217c7.248 5.317 16.464 6.188 24.654 6.36h.053c10.158-.07 19.84-3.244 28.733-.837.029.041.06.076.047.166-.02.127.21.035-.047.043a2 2 0 0 0-.446.067c-8.367 2.32-17.708 1.36-27.046 1.726-4.096.167-8.52-.197-13 .463a1.89 1.89 0 0 0-1.579 1.498c-.187.938.051 1.907.448 2.59.395.683.892 1.151 1.359 1.547.934.792 1.828 1.422 1.99 1.623a2 2 0 0 0 .186.2c1.343 1.247 2.945 2.417 4.816 3.126.386.146.83.159 1.24.258-.76.573-1.556 1.079-2.177 1.91l.246-.271c-6.936 6.27-16.997 8.247-26.444 11.568-13.743 4.513-28.59 8.053-41.086 16.764l-.07.05c-14.424 11.067-20.297 29.56-21.256 46.721v.006c-.593 8.47.785 16.714 2.506 24.793-2.833-4.59-4.895-9.768-6.355-14.992-4.913-21.192 3.182-43.89 16.982-60.504v-.002c6.602-7.954 14.867-14.475 24.414-18.271l.06-.026a67.8 67.8 0 0 1 15.524-4.654 1.89 1.89 0 0 0 1.516-1.43c1.357-5.766-2.663-11.883-8.514-13.232-7.605-1.897-15.124-.618-22.265 1.316.232-.302.543-.486.752-.822 2.882-3.734 5.276-8.33 6.283-13.211 1.014-4.922.58-10.194-2.346-14.785-6.804-11.407-21.368-15.477-33.621-13.135-15.287 2.552-26.407 16.494-28.033 31.379-.601 4.828-.755 9.835-.326 14.652a1.89 1.89 0 0 0 2.421 1.643c2.934-.874 5.544-2.503 8.053-3.67 2.431-1.13 4.639-1.77 6.877-1.377 1 .488 1.382 1.227 1.565 2.582.19 1.42-.032 3.264-.266 4.83-3.664 16.294-12.635 30.926-21.604 45.256l-.011.02c-5.28 8.657-8.73 18.77-8.04 29.214l-.003-.078c.114 4.73-.934 10.303 1.845 15.604l-.132-.322c3.733 12.152 10.671 25.28 23.675 30.4 8.525 3.508 17.652 1.637 25.592-1.172.425.213.896.526 1.508 1.211.72.807 1.515 1.859 2.654 2.748 5.337 5.289 12.063 7.982 18.547 10.516-1.785.612-3.614 1.403-5.223 2.66-2.21 1.727-3.993 4.388-3.752 7.666a2 2 0 0 0 .04.273c1.35 6.044 7.4 9.985 13.441 9.21l-.357.011c11.183.695 22.015-2.03 32.25-5.559a2 2 0 0 0 .355-.164c1.345-.806 2.546-.746 4.229-.35 1.681.397 3.64 1.224 5.914 1.505 15.379 3.022 31.006 4.75 46.574 5.755a1.9 1.9 0 0 0 .574-.052c1.136-.281 2.02-1.28 2.332-2.092.311-.811.337-1.476.395-1.941.014-.114-.01-.036.012-.118 6.565-.371 13.97-.422 20.31-4.521.536-.194 1.03-.431 1.477-.848.457-.427.828-1.112.883-1.783.109-1.342-.577-2.095-1.104-2.684s-1.103-1.069-1.596-1.494c-.492-.425-.91-.83-.972-.912a2 2 0 0 0-.293-.3c-9.733-8.043-22.004-15.363-35.61-14.436l-.1.01c-14.162 1.719-28.083 5.262-41.83 4.591 11.637-4.907 21.065-14.458 26.268-25.863a2 2 0 0 0 .134-.408c.813-4.006 1.593-8.356 1.307-12.77a1.9 1.9 0 0 0 .822-.222c21.41-11.488 42.47-23.773 63.879-35.162l.047-.026c4.513-2.565 9.999-3.676 15.385-5.533a1.89 1.89 0 0 0 1.191-1.232c.276-.898.012-2.079-.51-2.723s-1.073-.917-1.531-1.148c-.916-.464-1.52-.944-1.309-.625a1.9 1.9 0 0 0-.502-.512c-1.39-.959-2.724-2.205-3.511-3.5s-1.078-2.518-.64-3.979a2 2 0 0 0 .038-.154c.502-2.391 1.96-4.143 4.03-5.734 2.051-1.578 4.654-2.887 7.074-4.25.401-.114.802-.215 1.16-.414.496-.277 1.055-.733 1.316-1.483.044-.125-.05-.213-.03-.34 9.27 3.885 20.461 3.168 28.974-2.267l.053-.035c6.668-4.581 10.789-12.397 10.6-20.538.833-18.494-2.53-38.833-15.753-53.222-11.146-12.426-29.527-19.03-45.892-13.717v.002c-10.202 3.239-16.98 12.737-18.783 22.83l-.01.057c-.296 2.009-.653 4.283-.948 6.533-3.685-14.001-2.715-28.947-1.834-43.67 1.855-16.11 3.89-33.257-1.062-49.566-2.23-7.59-7.451-13.59-13.3-18.278-5.331-5.904-5.935-14.758-4.356-22.672v-.013c.133-.698.115-1.388-.286-2.174-.243-.479-.81-.877-1.447-1.149a1.9 1.9 0 0 0-1.07-.306zm-1.172 5.09c-1.224 8.128-.423 17.206 5.547 23.79a2 2 0 0 0 .226.212c5.559 4.412 10.28 9.918 12.232 16.574l.01.017c4.662 15.349 2.776 31.984.919 48.122l-.01.101c-.92 15.36-2.2 31.502 2.384 46.936l.02.06c2.59 7.777 5.207 17.47 13.437 22.565l.078.046c.205.114 1.032.736 2.092 1.112.53.188 1.43.545 2.5-.242.535-.394.83-1.035.912-1.522s.035-.881-.043-1.277a1.9 1.9 0 0 0-.86-1.244c-4.593-2.847-8.142-7.229-10.054-12.317a2 2 0 0 0-.098-.218c-2.4-4.55-.939-10.118-.082-15.915 1.588-8.872 7.596-17.151 16.205-19.882l.012-.004c14.688-4.776 31.732 1.27 41.937 12.658l.018.017c12.255 13.335 15.584 32.655 14.762 50.59a2 2 0 0 0 0 .135c.169 6.796-3.344 13.486-8.941 17.344-9.746 6.202-24.082 5.229-32.645-2.596l-.019-.018c-5.581-4.96-7.568-13.262-5.387-20.41 1.182-3.739 2.237-7.51 4.408-9.9 4.2-1.009 9.002-.368 13.936-.223 2.29.08 4.902.691 6.883 1.83 1.946 1.12 3.228 2.615 3.582 4.772 0 4.31-1.202 8.879-3.713 12.21-.677.792-1.193.83-2.143.573-.961-.26-2.142-1.082-2.851-1.918a1.9 1.9 0 0 0-.77-.543c.372.141.12.06-.127-.21-.246-.272-.569-.672-.974-1.087s-.864-.924-1.826-1.174-2.325.33-2.907 1.114a1.89 1.89 0 0 0-.28 1.709c1.201 3.722 4.85 5.527 7.392 6.814l.05.026c2.703 1.266 5.545.405 7.462-1.133 1.915-1.537 3.238-3.664 3.98-5.666 1.05-2.762 1.963-6.11 1.924-9.487-.04-3.38-1.15-6.92-4.176-9.322l-.084-.06c-7.394-5.237-16.324-3.956-23.857-4.006.292-2.402.414-4.818.359-7.176v.172c.277-4.085-1.602-7.649-4.291-10.225s-6.191-4.29-9.65-4.984l.529.191c-1.32-.715-3.337-.313-3.969 1.139a2.57 2.57 0 0 0 .195 2.357c.454.702 1.203 1.099 1.934 1.244l-.107-.023c2.455.64 4.955 1.812 6.832 3.414s3.126 3.56 3.406 6.016l.014.086c.622 3.864-.477 7.454-2.066 11.273-1.586 3.81-3.664 7.758-4.506 12.227-2.25 9.895 1.453 20.964 10.19 26.662.556.39.983.662 1.538 1.004-2.192 1.213-4.712 2.5-6.994 4.255-2.45 1.884-4.63 4.404-5.389 7.844-.748 2.554-.147 5.04 1.033 6.983 1.188 1.954 2.9 3.478 4.596 4.648l-.502-.51c.345.52.719.735 1.084.989-4.277 1.292-8.789 2.487-13.027 4.896-20.882 11.11-41.363 23.001-62.07 34.164-.838-1.895-1.548-3.92-2.711-6.098-4.134-8.743-10.765-18.482-21.793-20.08l-.08-.01c-9.233-.941-18.033 3.027-25.287 7.371a2 2 0 0 0-.123.08c-4.844 3.438-10.815 8.531-10.899 15.864-.484 5.409.737 11.523 5.406 15.443 5.285 6.02 15.132 8.054 21.51 2.229l.033-.032c1.711-1.64 3.484-3.786 4.617-6.287 1.126-2.484 1.595-5.458.362-8.277-1.265-3.258-4.396-4.8-7.342-4.898-2.96-.1-5.933.939-8.04 2.847a1.89 1.89 0 0 0-.47 2.143c.39.915 1.466 1.753 2.418 1.842.952.088 1.596-.203 2.14-.444.546-.24 1.005-.495 1.352-.658.348-.162.593-.175.385-.176a1.9 1.9 0 0 0 .74-.15c1.813-.765 3.983.257 4.223 2.228.167 3.837-2.911 8.064-6.572 9.49-3.68 1.228-7.377.138-10.381-2.312-3.014-2.458-5.143-6.275-5.397-9.955v-.021c-.305-3.758 1.123-7.023 3.559-9.88 2.435-2.855 5.883-5.205 9.267-6.798l.002-.002c3.7-1.693 7.763-3.418 11.71-4.168 3.952-.752 7.69-.56 11.126 1.435 7.83 4.606 12.464 13.46 15.522 22.246.65 4.204-.14 8.792-1.055 13.325-5.391 11.702-15.631 21.355-27.945 25.209a2 2 0 0 0-.35.15c.1-.055-.2.091-.488.23-.288.14-.635.311-1.008.563s-.992.425-1.234 1.682c-.122.628.175 1.484.572 1.894s.764.554 1.1.67a2 2 0 0 0 .347.084c16.603 2.378 32.755-2.119 48.485-4.035 12.076-.809 23.528 5.823 32.912 13.576l-.291-.3c.48.622.994 1.03 1.496 1.462.328.283.559.512.814.754-5.236 3.41-11.882 3.563-18.629 3.95l.344.011c-1.104-.138-2.478.354-3.088 1.225-.61.87-.635 1.621-.705 2.18-.047.373-.08.518-.115.706-15.227-1.008-30.463-2.696-45.41-5.64a2 2 0 0 0-.133-.022c-1.571-.193-3.418-.937-5.514-1.431-2.095-.495-4.647-.647-7.039.787l.358-.166c-10.023 3.455-20.367 6.007-30.785 5.36a2 2 0 0 0-.358.01c-4.015.517-8.24-2.248-9.205-6.14-.081-1.77.737-3.073 2.283-4.281 1.588-1.24 3.866-2.164 5.8-2.646a2 2 0 0 0 .157-.047c-.178.061.214-.044.58-.121.367-.078.804-.17 1.274-.33.235-.081.48-.172.78-.356.298-.184.761-.47 1.01-1.244.25-.775-.13-1.723-.491-2.115-.362-.392-.683-.555-1.024-.72a2 2 0 0 0-.117-.05c-7.7-3.08-15.533-5.741-21.08-11.305a2 2 0 0 0-.19-.166c-.6-.46-1.323-1.355-2.185-2.32s-1.918-2.073-3.549-2.559a1.9 1.9 0 0 0-1.19.038c-7.773 2.846-16.288 4.576-23.747 1.503l-.03-.011c-11.371-4.468-17.893-16.379-21.465-28.004a2 2 0 0 0-.132-.322c-2.06-3.929-1.288-8.689-1.414-13.94l-.004-.078c-.625-9.446 2.51-18.821 7.482-26.98l.01-.016.002-.004c8.989-14.362 18.264-29.36 22.098-46.49a2 2 0 0 0 .025-.131c.244-1.62.57-3.776.277-5.955s-1.458-4.61-3.982-5.674a2 2 0 0 0-.352-.11c-3.493-.72-6.669.365-9.447 1.657-1.916.89-3.536 1.644-5.199 2.396-.154-3.687-.063-7.454.396-11.14l.004-.03c1.446-13.287 11.56-25.866 24.926-28.084l.047-.008c10.912-2.09 23.926 1.685 29.693 11.377l.034.051c2.332 3.644 2.711 7.797 1.841 12.016s-3.034 8.432-5.644 11.783a2 2 0 0 0-.12.174c-2.23 3.634-6.918 4.584-11.445 4.334a2 2 0 0 0-.408.021c-2.706.442-5.28-.886-6.761-3.25l-.028-.04c-1.094-1.648-1.874-4.14-1.812-6.274.061-2.118.755-3.711 2.535-4.652 1.638-.745 4.107-.869 5.996-.215 1.904.658 3.104 1.761 3.254 3.765a2 2 0 0 0 .018.139c-.04-.262-.271.47-.9 1.531-.316.53-.707 1.167-.772 2.145s.528 2.181 1.384 2.81a1.89 1.89 0 0 0 2.368-.103c3.282-2.89 4.051-8.142 1.484-11.883a2 2 0 0 0-.191-.238c-4.684-4.894-13.237-5.293-18.135-.362a2 2 0 0 0-.15.174c-1.854 2.385-2.395 5.32-2.18 8.094.215 2.775 1.155 5.452 2.44 7.674 1.908 3.345 5.107 5.164 8.415 5.838 3.313.674 6.788.32 9.828-.53l.053-.015c9.575-2.974 19.442-6.115 28.816-3.768l.036.01c3.282.755 5.763 4.414 5.671 7.62-5.084 1-10.076 2.464-14.834 4.544-10.215 4.07-18.956 10.997-25.892 19.354-14.423 17.363-23.02 41.15-17.75 63.812l.021.08c2.094 7.504 5.352 15.101 10.557 21.262l.002.002c.351.437.79.86 1.525 1.053.738.193 1.758-.115 2.258-.662 1-1.095.786-2.206.348-3.168l.119.35c-2.298-9.748-4.222-19.561-3.535-29.35l.002-.028c.913-16.44 6.576-33.796 19.75-43.927 11.734-8.168 26.166-11.687 40.107-16.268l.037-.012c9.061-3.185 19.764-5.133 27.725-12.33a2 2 0 0 0 .246-.271c1.215-1.626 2.872-2.426 4.992-2.977 1.813-.47 3.94-.717 6.04-1.095-1.31 1.223-2.452 2.799-2.386 4.972a2 2 0 0 0 .018.205c.824 5.819 5.36 10.113 9.727 12.82l.105.061c4.68 2.5 9.757 2.508 14.405 1.203s8.95-3.877 12.515-6.687a2 2 0 0 0 .33-.334c-.107.14.146-.125.502-.381.357-.256.822-.568 1.293-.963s1.005-.847 1.346-1.725.065-2.266-.627-3.003a1.89 1.89 0 0 0-2.306-.354c-6.056 3.41-10.916 8.269-16.907 8.979l-.057.008c-4.646.695-9.42-1.225-12.248-4.971l-.014-.016c-.928-1.202-2.07-2.719-2.545-3.945-.237-.613-.298-1.107-.246-1.443.047-.299.211-.555.578-.887 5.504-2.948 12.737-1.42 20.063-2.719l.027-.004c.4-.077.767-.168 1.197-.418s1.024-.834 1.13-1.637c.108-.802-.236-1.38-.49-1.703a3.2 3.2 0 0 0-.716-.67c-.912-.655-1.791-.97-2.418-1.168l-.045-.013c-10.118-2.907-20.535-.902-30.121.93a2 2 0 0 0-.293.08c-1.231.449-2.373.357-3.602-.108s-2.486-1.345-3.582-2.363l.186.199c-.547-.678-1.031-.954-1.55-1.33 3.06-.158 6.237-.108 9.538-.242 8.956-.352 18.609.717 27.908-1.862l-.443.069c1.95-.062 3.43-1.682 3.664-3.27s-.502-3.419-2.217-4.213a2 2 0 0 0-.28-.103c-10.399-2.947-20.631.584-30.025.654-7.947-.168-16.3-1.116-22.445-5.613-.999-.998-2.09-1.846-2.928-2.652-.313-.303-.32-.541-.543-.82.292-.025.405-.15.758-.145 1.197.016 2.635.204 4.205-.034l-.224.02c12.475-.385 25.144-.306 37.715-1.586a2 2 0 0 0 .293-.055c.998-.265 2.407-.726 3.666-1.672.629-.472 1.27-1.097 1.603-2.064s.143-2.21-.455-3.123a1.9 1.9 0 0 0-1.102-.793c-5.123-1.341-10.262-.46-14.728-.764l-.078-.004c-13.704-.372-27.4.718-40.367-2.197-2.325-.786-4.887-1.617-6.906-2.791-2.054-1.193-3.453-2.588-3.938-4.687a2 2 0 0 0-.08-.262c-.136-.349-.079-.306-.078-.307 0 0 .082-.14.377-.328.572-.365 1.745-.72 2.783-1.066 9.828-2.456 20.426 1.046 31.455.949h.021c5.602-.112 12.32.683 18.16-2.73a1.9 1.9 0 0 0 .877-1.163c.244-.95-.01-2.007-.474-2.7-.468-.695-1.06-1.121-1.64-1.454-1.158-.665-2.342-.963-3.25-1.1l-.095-.011c-12.465-1.231-25.034-.222-37.233-.752l-.086-.002c-10.643.023-21.573-2.24-29.775-8.852a2 2 0 0 0-.312-.205c-.755-.393-.54-1.351.152-1.566 17.262-1.11 34.747 1.09 52.39 1.304a2 2 0 0 0 .18-.008c1.779-.148 4.022-.01 6.346-.207s4.844-.767 6.88-2.593a2 2 0 0 0 .245-.266c.675-.89 1.029-2.057.808-3.11s-.873-1.8-1.533-2.316c-1.313-1.028-2.815-1.444-4.183-1.539-18.89-2.685-38.023-1.558-56.782-.738a2 2 0 0 0-.212.021c-4.07.643-8.154-.315-11.745-2.466-4.212-2.561-8.563-5.074-10.802-8.711.716-.017 1.607.118 2.845-.31l-.539.1c20.592-.86 41.44 1.687 62.44.616a2 2 0 0 0 .232-.028c1.076-.19 2.914-.206 4.785-.609 1.872-.403 4.068-1.408 5.043-3.687a1.9 1.9 0 0 0 .133-1.006 4.2 4.2 0 0 0-1.54-2.662c-.758-.582-1.567-.845-2.317-1.022-1.501-.354-2.977-.423-3.48-.564a2 2 0 0 0-.36-.065c-20.324-1.65-40.754-1.075-60.963-1.574-8.517-2.248-16.683-6.473-22.998-12.564 20.493-.5 41.154 3.936 62.246 3.154l.12-.01c2.233-.225 4.994-.252 7.732-.803 2.737-.551 5.575-1.708 7.505-4.299l.021-.029c.612-.854 1-1.922.75-2.99s-1.035-1.754-1.716-2.13c-1.364-.749-2.713-.82-3.819-.769-19.491-.428-38.976 1.87-57.758-1.754-9.752-2.055-19.739-5.289-26.425-12.357l.16.191c-.23-.316-.35-.394-.57-.629 9.523.502 19.149 1.223 28.812 1.495h.01c15.153.343 30.71 1.587 46.063-.381a2 2 0 0 0 .181-.033c.764-.175 2.332-.382 3.809-1.07.738-.345 1.529-.835 2.086-1.731s.663-2.171.295-3.254a2 2 0 0 0-.18-.383c-1.79-2.898-4.715-4.247-7.553-4.857s-5.73-.602-8.037-.77l-.103-.006c-17.671-.303-35.083 2.665-52.102.252-9.712-1.384-20.353-3.864-25.596-11.959-.458-1-1.032-1.88-1.318-2.543-.012-.027-.005-.027-.016-.053 5.74.29 11.649 1.275 17.682 1.784 19.753 1.963 39.628 4.34 59.666 4.367a2 2 0 0 0 .176-.008c19.103-1.772 38.349-3.56 57.252-1.274-4.34 1.842-8.888 3.912-12.082 8.157-3.954 4.723-4.05 11.035-2.766 16.373a2 2 0 0 0 .06.197c2.735 7.611 9.423 14.956 18.392 15.021 3.351.498 6.344-.764 8.601-2.662 2.236-1.88 3.877-4.356 5.069-6.705 2.178-3.355 2.485-7.608 1.312-11.336-1.174-3.733-3.98-7.072-8.15-8.088-2.221-.602-4.404.119-5.87 1.416-1.47 1.303-2.382 3.105-2.68 5.006l-.01.04c-.038.289-.374 1.472-.347 2.75.014.638.064 1.502.877 2.292s2.11.828 3.002.541a1.89 1.89 0 0 0 1.31-1.715c.056-1.218.19-2.65.553-3.642.325-.887.657-1.267 1.34-1.465 1.53.14 2.944 1.037 3.98 2.496 1.075 1.514 1.62 3.51 1.438 5.133-.553 2.665-1.88 5.576-3.746 7.684-1.857 2.098-4.11 3.377-6.818 3.33-6.677-.929-12.468-7.145-13.778-13.772l-.01-.025c-.692-3.266.201-6.422 2.106-9.143 1.904-2.72 4.836-4.922 7.927-6.03a2 2 0 0 0 .282-.128c3.021-1.68 7.327-1.816 11.355-4.008a1.89 1.89 0 0 0 .82-2.435c-1.436-3.196-3.875-5.034-4.45-7.084a2 2 0 0 0-.104-.28c-1.127-2.447-.799-5.038.472-7.494.876-1.691 2.275-3.113 3.784-4.308zm-13.432 22.18c-.01.003-.018.011-.027.015-.084.045-.17.065-.254.111zm-41.893 14.372c.092.27.051.073.07.041 0-.003-.038.026-.039.026zm32.309 66.047c0-.006.049.062.043.031-.024-.114.088-.223-.121.053zm83.049 37.965.012.086c0-.014-.01-.027-.01-.041v-.045zm-34.184 3.697c.023.063.06.118.084.18.01.013.01.026.014.04zm-124.865 9.43.016.139c-.003-.034-.02-.06-.024-.094-.003-.019.01-.026.008-.045m-16.902 9.846.02.021.007.02zm115.273 7.742c-1.194.059-2.399.247-3.601.424a2 2 0 0 0-.01-.405c1.21-.059 2.41-.047 3.609-.019zm6.266 20.877h.029l-.057.008c.01-.001.017-.007.027-.008zm-63.944 60.521c-.119 0-.153.062-.261.07-.158.054-.324.015-.479.08zm-25.966 51.393c-.029.007-.061.024-.09.031-.03.01-.037.005-.069.016z" style="color:#000;font-style:normal;font-variant:normal;font-weight:400;font-stretch:normal;font-size:medium;line-height:normal;font-family:sans-serif;font-variant-ligatures:normal;font-variant-position:normal;font-variant-caps:normal;font-variant-numeric:normal;font-variant-alternates:normal;font-variant-east-asian:normal;font-feature-settings:normal;font-variation-settings:normal;text-indent:0;text-align:start;text-decoration:none;text-decoration-line:none;text-decoration-style:solid;text-decoration-color:#000;letter-spacing:normal;word-spacing:normal;text-transform:none;writing-mode:lr-tb;direction:ltr;text-orientation:mixed;dominant-baseline:auto;baseline-shift:baseline;text-anchor:start;white-space:normal;shape-padding:0;shape-margin:0;inline-size:0;clip-rule:nonzero;display:inline;overflow:visible;visibility:visible;isolation:auto;mix-blend-mode:normal;color-interpolation:sRGB;color-interpolation-filters:linearRGB;solid-color:#000;solid-opacity:1;vector-effect:none;fill:#f6a436;fill-opacity:1;fill-rule:nonzero;stroke:none;stroke-width:1.025;stroke-linecap:round;stroke-linejoin:round;stroke-miterlimit:4;stroke-dasharray:none;stroke-dashoffset:0;stroke-opacity:1;color-rendering:auto;image-rendering:auto;shape-rendering:auto;text-rendering:auto;stop-color:#000;stop-opacity:1" transform="translate(-739.995 423.195)scale(.97561)"/>
    </g>
    <g style="opacity:1;stroke-width:.271198">
      <path d="M1055.358-108.941c-5.306 2.674-10.71 5.495-15.606 8.827-1.035 3.802-1.345 7.896-1.47 11.771 3.537 3.47 6.84 7.212 10.588 10.45 1.731-.476 1.53-3.32 2.464-4.684 2.348-6.471 4.756-12.954 6.886-19.48-.994-2.109-.479-5.524-2.633-6.883l-.128-.008z" style="color:#000;font-style:normal;font-variant:normal;font-weight:400;font-stretch:normal;font-size:medium;line-height:normal;font-family:sans-serif;font-variant-ligatures:normal;font-variant-position:normal;font-variant-caps:normal;font-variant-numeric:normal;font-variant-alternates:normal;font-variant-east-asian:normal;font-feature-settings:normal;font-variation-settings:normal;text-indent:0;text-align:start;text-decoration:none;text-decoration-line:none;text-decoration-style:solid;text-decoration-color:#000;letter-spacing:normal;word-spacing:normal;text-transform:none;writing-mode:lr-tb;direction:ltr;text-orientation:mixed;dominant-baseline:auto;baseline-shift:baseline;text-anchor:start;white-space:normal;shape-padding:0;shape-margin:0;inline-size:0;clip-rule:nonzero;display:inline;overflow:visible;visibility:visible;isolation:auto;mix-blend-mode:normal;color-interpolation:sRGB;color-interpolation-filters:linearRGB;solid-color:#000;solid-opacity:1;vector-effect:none;fill:#029901;fill-opacity:1;fill-rule:nonzero;stroke:none;stroke-width:1.025;stroke-linecap:round;stroke-linejoin:round;stroke-miterlimit:4;stroke-dasharray:none;stroke-dashoffset:0;stroke-opacity:1;color-rendering:auto;image-rendering:auto;shape-rendering:auto;text-rendering:auto;stop-color:#000;stop-opacity:1" transform="translate(-739.995 423.195)scale(.97561)"/>
      <path d="M1055.46-110.838a2 2 0 0 0-.132.004l-.101.008a1.9 1.9 0 0 0-.72.197c-5.322 2.683-10.797 5.537-15.818 8.954a1.9 1.9 0 0 0-.76 1.064c-1.1 4.041-1.41 8.274-1.536 12.207a1.9 1.9 0 0 0 .566 1.41c3.472 3.406 6.798 7.182 10.676 10.531a1.89 1.89 0 0 0 1.736.393c.906-.249 1.631-.886 2.05-1.508.42-.622.625-1.23.79-1.78.33-1.097.598-2.028.683-2.153a2 2 0 0 0 .215-.42c2.345-6.462 4.762-12.964 6.909-19.54a1.9 1.9 0 0 0-.088-1.392c-.276-.584-.445-1.859-.74-3.297-.296-1.438-.856-3.282-2.594-4.379a1.9 1.9 0 0 0-.891-.287l-.129-.008zm-.528 4.252c.191.323.414.493.556 1.188.18.871.432 2.037.785 3.18-2.08 6.335-4.416 12.657-6.716 18.995l.216-.42c-.759 1.111-.912 2.128-1.107 2.9-2.846-2.63-5.575-5.483-8.443-8.339.132-3.334.453-6.719 1.228-9.857 4.224-2.814 8.84-5.29 13.48-7.647" style="color:#000;font-style:normal;font-variant:normal;font-weight:400;font-stretch:normal;font-size:medium;line-height:normal;font-family:sans-serif;font-variant-ligatures:normal;font-variant-position:normal;font-variant-caps:normal;font-variant-numeric:normal;font-variant-alternates:normal;font-variant-east-asian:normal;font-feature-settings:normal;font-variation-settings:normal;text-indent:0;text-align:start;text-decoration:none;text-decoration-line:none;text-decoration-style:solid;text-decoration-color:#000;letter-spacing:normal;word-spacing:normal;text-transform:none;writing-mode:lr-tb;direction:ltr;text-orientation:mixed;dominant-baseline:auto;baseline-shift:baseline;text-anchor:start;white-space:normal;shape-padding:0;shape-margin:0;inline-size:0;clip-rule:nonzero;display:inline;overflow:visible;visibility:visible;isolation:auto;mix-blend-mode:normal;color-interpolation:sRGB;color-interpolation-filters:linearRGB;solid-color:#000;solid-opacity:1;vector-effect:none;fill:#f6a436;fill-opacity:1;fill-rule:nonzero;stroke:none;stroke-width:1.025;stroke-linecap:round;stroke-linejoin:round;stroke-miterlimit:4;stroke-dasharray:none;stroke-dashoffset:0;stroke-opacity:1;color-rendering:auto;image-rendering:auto;shape-rendering:auto;text-rendering:auto;stop-color:#000;stop-opacity:1" transform="translate(-739.995 423.195)scale(.97561)"/>
    </g>
    <g style="opacity:1;stroke-width:.271198">
      <path d="M1078.61-121.75c-6.938 3.524-13.916 7.165-20.479 11.312.06 4.315 1.408 8.855 4.369 12.137 2.887 3.774 5.406 7.941 8.716 11.34 1.84-.69 1.648-3.718 2.601-5.273 2.577-7.797 5.216-15.609 7.554-23.462-.932-1.65-.647-5.357-2.761-6.055" style="color:#000;font-style:normal;font-variant:normal;font-weight:400;font-stretch:normal;font-size:medium;line-height:normal;font-family:sans-serif;font-variant-ligatures:normal;font-variant-position:normal;font-variant-caps:normal;font-variant-numeric:normal;font-variant-alternates:normal;font-variant-east-asian:normal;font-feature-settings:normal;font-variation-settings:normal;text-indent:0;text-align:start;text-decoration:none;text-decoration-line:none;text-decoration-style:solid;text-decoration-color:#000;letter-spacing:normal;word-spacing:normal;text-transform:none;writing-mode:lr-tb;direction:ltr;text-orientation:mixed;dominant-baseline:auto;baseline-shift:baseline;text-anchor:start;white-space:normal;shape-padding:0;shape-margin:0;inline-size:0;clip-rule:nonzero;display:inline;overflow:visible;visibility:visible;isolation:auto;mix-blend-mode:normal;color-interpolation:sRGB;color-interpolation-filters:linearRGB;solid-color:#000;solid-opacity:1;vector-effect:none;fill:#029901;fill-opacity:1;fill-rule:nonzero;stroke:none;stroke-width:1.025;stroke-linecap:round;stroke-linejoin:round;stroke-miterlimit:4;stroke-dasharray:none;stroke-dashoffset:0;stroke-opacity:1;color-rendering:auto;image-rendering:auto;shape-rendering:auto;text-rendering:auto;stop-color:#000;stop-opacity:1" transform="translate(-739.995 423.195)scale(.97561)"/>
      <path d="M1078.635-123.64a1.9 1.9 0 0 0-.881.204c-6.95 3.531-13.981 7.198-20.633 11.4a1.89 1.89 0 0 0-.879 1.624c.065 4.69 1.505 9.663 4.856 13.377l-.1-.117c2.801 3.662 5.35 7.9 8.863 11.51a1.89 1.89 0 0 0 2.02.45c1.79-.672 2.437-2.364 2.783-3.554.345-1.19.602-2.237.763-2.5a2 2 0 0 0 .184-.395c2.575-7.789 5.22-15.618 7.57-23.515a1.9 1.9 0 0 0-.166-1.469c-.127-.226-.398-1.532-.75-2.92-.176-.694-.399-1.437-.845-2.176-.447-.738-1.206-1.49-2.22-1.824a1.9 1.9 0 0 0-.565-.096zm-.338 4.183c.101.228.207.456.305.842.207.818.381 1.85.783 2.927-2.284 7.626-4.842 15.237-7.362 22.86l.184-.395c-.732 1.195-.863 2.297-1.086 3.164-2.441-2.882-4.646-6.154-7.121-9.39a2 2 0 0 0-.098-.117c-2.35-2.604-3.469-6.27-3.709-9.887 5.808-3.6 11.936-6.859 18.104-10.004" style="color:#000;font-style:normal;font-variant:normal;font-weight:400;font-stretch:normal;font-size:medium;line-height:normal;font-family:sans-serif;font-variant-ligatures:normal;font-variant-position:normal;font-variant-caps:normal;font-variant-numeric:normal;font-variant-alternates:normal;font-variant-east-asian:normal;font-feature-settings:normal;font-variation-settings:normal;text-indent:0;text-align:start;text-decoration:none;text-decoration-line:none;text-decoration-style:solid;text-decoration-color:#000;letter-spacing:normal;word-spacing:normal;text-transform:none;writing-mode:lr-tb;direction:ltr;text-orientation:mixed;dominant-baseline:auto;baseline-shift:baseline;text-anchor:start;white-space:normal;shape-padding:0;shape-margin:0;inline-size:0;clip-rule:nonzero;display:inline;overflow:visible;visibility:visible;isolation:auto;mix-blend-mode:normal;color-interpolation:sRGB;color-interpolation-filters:linearRGB;solid-color:#000;solid-opacity:1;vector-effect:none;fill:#f6a436;fill-opacity:1;fill-rule:nonzero;stroke:none;stroke-width:1.025;stroke-linecap:round;stroke-linejoin:round;stroke-miterlimit:4;stroke-dasharray:none;stroke-dashoffset:0;stroke-opacity:1;color-rendering:auto;image-rendering:auto;shape-rendering:auto;text-rendering:auto;stop-color:#000;stop-opacity:1" transform="translate(-739.995 423.195)scale(.97561)"/>
    </g>
    <g style="opacity:1;stroke-width:.271198">
      <path d="M1104.164-136.266c-7.698 4.449-15.773 8.454-23.234 13.2.175 4.175 3.098 7.814 4.856 11.5 2.42 3.841 4.544 8.05 7.715 11.314 1.78-.447 1.646-3.425 2.627-4.773 3.102-8.866 6.773-17.613 8.837-26.792-.128-1.31.693-4.176-.8-4.449" style="color:#000;font-style:normal;font-variant:normal;font-weight:400;font-stretch:normal;font-size:medium;line-height:normal;font-family:sans-serif;font-variant-ligatures:normal;font-variant-position:normal;font-variant-caps:normal;font-variant-numeric:normal;font-variant-alternates:normal;font-variant-east-asian:normal;font-feature-settings:normal;font-variation-settings:normal;text-indent:0;text-align:start;text-decoration:none;text-decoration-line:none;text-decoration-style:solid;text-decoration-color:#000;letter-spacing:normal;word-spacing:normal;text-transform:none;writing-mode:lr-tb;direction:ltr;text-orientation:mixed;dominant-baseline:auto;baseline-shift:baseline;text-anchor:start;white-space:normal;shape-padding:0;shape-margin:0;inline-size:0;clip-rule:nonzero;display:inline;overflow:visible;visibility:visible;isolation:auto;mix-blend-mode:normal;color-interpolation:sRGB;color-interpolation-filters:linearRGB;solid-color:#000;solid-opacity:1;vector-effect:none;fill:#029901;fill-opacity:1;fill-rule:nonzero;stroke:none;stroke-width:1.025;stroke-linecap:round;stroke-linejoin:round;stroke-miterlimit:4;stroke-dasharray:none;stroke-dashoffset:0;stroke-opacity:1;color-rendering:auto;image-rendering:auto;shape-rendering:auto;text-rendering:auto;stop-color:#000;stop-opacity:1" transform="translate(-739.995 423.195)scale(.97561)"/>
      <path d="M1104.16-138.156a1.9 1.9 0 0 0-.941.254c-7.629 4.408-15.727 8.422-23.303 13.24a1.89 1.89 0 0 0-.875 1.674c.21 5.009 3.423 8.848 5.04 12.236a2 2 0 0 0 .107.193c2.353 3.737 4.514 8.08 7.957 11.623a1.89 1.89 0 0 0 1.816.516c.931-.233 1.677-.87 2.113-1.496.437-.626.658-1.246.838-1.807.36-1.121.667-2.085.744-2.191a1.9 1.9 0 0 0 .256-.486c3.077-8.793 6.784-17.606 8.897-27.002a1.9 1.9 0 0 0 .037-.6c-.013-.133.118-1.275.12-2.424 0-.574-.015-1.2-.318-1.933-.302-.734-1.165-1.587-2.144-1.766a2 2 0 0 0-.344-.031m-1.006 4.611c-.04.414-.055.84-.05 1.371-2.018 8.941-5.64 17.606-8.76 26.526l.255-.489c-.74 1.017-.941 1.952-1.138 2.725-2.16-2.722-4.017-5.883-6.041-9.104-1.698-3.515-3.84-6.61-4.387-9.59 6.441-4.006 13.335-7.602 20.121-11.439" style="color:#000;font-style:normal;font-variant:normal;font-weight:400;font-stretch:normal;font-size:medium;line-height:normal;font-family:sans-serif;font-variant-ligatures:normal;font-variant-position:normal;font-variant-caps:normal;font-variant-numeric:normal;font-variant-alternates:normal;font-variant-east-asian:normal;font-feature-settings:normal;font-variation-settings:normal;text-indent:0;text-align:start;text-decoration:none;text-decoration-line:none;text-decoration-style:solid;text-decoration-color:#000;letter-spacing:normal;word-spacing:normal;text-transform:none;writing-mode:lr-tb;direction:ltr;text-orientation:mixed;dominant-baseline:auto;baseline-shift:baseline;text-anchor:start;white-space:normal;shape-padding:0;shape-margin:0;inline-size:0;clip-rule:nonzero;display:inline;overflow:visible;visibility:visible;isolation:auto;mix-blend-mode:normal;color-interpolation:sRGB;color-interpolation-filters:linearRGB;solid-color:#000;solid-opacity:1;vector-effect:none;fill:#f6a436;fill-opacity:1;fill-rule:nonzero;stroke:none;stroke-width:1.025;stroke-linecap:round;stroke-linejoin:round;stroke-miterlimit:4;stroke-dasharray:none;stroke-dashoffset:0;stroke-opacity:1;color-rendering:auto;image-rendering:auto;shape-rendering:auto;text-rendering:auto;stop-color:#000;stop-opacity:1" transform="translate(-739.995 423.195)scale(.97561)"/>
    </g>
    <g style="opacity:1;stroke-width:.271198">
      <path d="M1121.76-141.376c-5.158.486-10.538 1.779-15.075 3.987-.096 9.177 2.925 18.038 4.516 27.004 2.58 11.209 4.71 22.582 7.662 33.67 1.716 1.258 2.235-2.055 2.676-3.142 5.544-17.576 3.694-36.253 4.657-54.385-.507-2.371 1.853-7.239-2.132-7.025-.76-.14-1.536-.139-2.305-.109" style="color:#000;font-style:normal;font-variant:normal;font-weight:400;font-stretch:normal;font-size:medium;line-height:normal;font-family:sans-serif;font-variant-ligatures:normal;font-variant-position:normal;font-variant-caps:normal;font-variant-numeric:normal;font-variant-alternates:normal;font-variant-east-asian:normal;font-feature-settings:normal;font-variation-settings:normal;text-indent:0;text-align:start;text-decoration:none;text-decoration-line:none;text-decoration-style:solid;text-decoration-color:#000;letter-spacing:normal;word-spacing:normal;text-transform:none;writing-mode:lr-tb;direction:ltr;text-orientation:mixed;dominant-baseline:auto;baseline-shift:baseline;text-anchor:start;white-space:normal;shape-padding:0;shape-margin:0;inline-size:0;clip-rule:nonzero;display:inline;overflow:visible;visibility:visible;isolation:auto;mix-blend-mode:normal;color-interpolation:sRGB;color-interpolation-filters:linearRGB;solid-color:#000;solid-opacity:1;vector-effect:none;fill:#029901;fill-opacity:1;fill-rule:nonzero;stroke:none;stroke-width:1.025;stroke-linecap:round;stroke-linejoin:round;stroke-miterlimit:4;stroke-dasharray:none;stroke-dashoffset:0;stroke-opacity:1;color-rendering:auto;image-rendering:auto;shape-rendering:auto;text-rendering:auto;stop-color:#000;stop-opacity:1" transform="translate(-739.995 423.195)scale(.97561)"/>
      <path d="m1121.686-143.264-.104.006c-5.346.504-10.92 1.832-15.725 4.17a1.89 1.89 0 0 0-1.062 1.68c-.1 9.604 2.988 18.582 4.545 27.353l.02.094c2.568 11.158 4.701 22.552 7.678 33.733a1.9 1.9 0 0 0 .709 1.037c.784.575 2.128.822 3.052.353.925-.469 1.29-1.156 1.574-1.73.57-1.15.852-2.414.918-2.578a2 2 0 0 0 .051-.143c5.696-18.058 3.788-36.918 4.74-54.853a2 2 0 0 0-.038-.495c-.073-.34.245-2.2.28-4.05.019-.925-.037-2.016-.804-3.04-.754-1.006-2.142-1.472-3.49-1.417a13.7 13.7 0 0 0-2.344-.12m.205 3.778c.694-.026 1.315-.017 1.83.078a2 2 0 0 0 .443.027c.623-.033.403.017.33-.08-.072-.097.062.14.051.701-.02 1.124-.63 2.882-.197 4.912l-.04-.494c-.965 18.194.776 36.545-4.472 53.535-2.463-9.842-4.47-19.894-6.773-29.908l-.02-.094c-1.55-8.684-4.203-16.996-4.385-25.295 4.036-1.776 8.69-2.95 13.232-3.382z" style="color:#000;font-style:normal;font-variant:normal;font-weight:400;font-stretch:normal;font-size:medium;line-height:normal;font-family:sans-serif;font-variant-ligatures:normal;font-variant-position:normal;font-variant-caps:normal;font-variant-numeric:normal;font-variant-alternates:normal;font-variant-east-asian:normal;font-feature-settings:normal;font-variation-settings:normal;text-indent:0;text-align:start;text-decoration:none;text-decoration-line:none;text-decoration-style:solid;text-decoration-color:#000;letter-spacing:normal;word-spacing:normal;text-transform:none;writing-mode:lr-tb;direction:ltr;text-orientation:mixed;dominant-baseline:auto;baseline-shift:baseline;text-anchor:start;white-space:normal;shape-padding:0;shape-margin:0;inline-size:0;clip-rule:nonzero;display:inline;overflow:visible;visibility:visible;isolation:auto;mix-blend-mode:normal;color-interpolation:sRGB;color-interpolation-filters:linearRGB;solid-color:#000;solid-opacity:1;vector-effect:none;fill:#f6a436;fill-opacity:1;fill-rule:nonzero;stroke:none;stroke-width:1.025;stroke-linecap:round;stroke-linejoin:round;stroke-miterlimit:4;stroke-dasharray:none;stroke-dashoffset:0;stroke-opacity:1;color-rendering:auto;image-rendering:auto;shape-rendering:auto;text-rendering:auto;stop-color:#000;stop-opacity:1" transform="translate(-739.995 423.195)scale(.97561)"/>
    </g>
    <g style="opacity:1;stroke-width:.271198">
      <path d="M1127.523-166.82c-5.413 1.637-10.704 4.797-14.204 9.335-2.053 2.368-1.69 5.95.742 7.882 3.264 3.172 7.394 6.04 11.914 6.852 2.42-1.126 2.563-4.59 3.077-6.9.703-2.38-.84-4.98-3.436-4.908-2.03-.166-4.425 1.6-6.24.726-.213-1.71 2.72-1.369 3.867-1.814 2.709-.531 6.507-.402 7.23 2.907 1.205 4.462-2.058 8.377-2.762 12.518-.642 17.112.22 34.446-2.388 51.361-1.06 6.675-3.822 13.02-5.496 19.508.297 6.448.302 12.955.775 19.367 2.381 3.552 6.261 6.934 10.867 5.701 3.77-.427 7.346-2.671 10.898-3.041 9.104 5.06 20.215 6.822 30.275 3.84 1.292-.622 4.714-1.396 3.094-3.383-1.834-1.874-3.492-3.868-4.488-6.303-4.297-6.472-12.179-8.363-18.974-10.889-9.195-3.563-12.441-14.096-13.019-23.116-1.246-14.248 4.45-27.758 7.002-41.561 1.242-10.427 1.045-21.107-.692-31.467-.735-2.108-.144-6.268-3.567-5.28-4.887.113-9.728-.26-14.475-1.335" style="color:#000;font-style:normal;font-variant:normal;font-weight:400;font-stretch:normal;font-size:medium;line-height:normal;font-family:sans-serif;font-variant-ligatures:normal;font-variant-position:normal;font-variant-caps:normal;font-variant-numeric:normal;font-variant-alternates:normal;font-variant-east-asian:normal;font-feature-settings:normal;font-variation-settings:normal;text-indent:0;text-align:start;text-decoration:none;text-decoration-line:none;text-decoration-style:solid;text-decoration-color:#000;letter-spacing:normal;word-spacing:normal;text-transform:none;writing-mode:lr-tb;direction:ltr;text-orientation:mixed;dominant-baseline:auto;baseline-shift:baseline;text-anchor:start;white-space:normal;shape-padding:0;shape-margin:0;inline-size:0;clip-rule:nonzero;display:inline;overflow:visible;visibility:visible;isolation:auto;mix-blend-mode:normal;color-interpolation:sRGB;color-interpolation-filters:linearRGB;solid-color:#000;solid-opacity:1;vector-effect:none;fill:#029901;fill-opacity:1;fill-rule:nonzero;stroke:none;stroke-width:1.025;stroke-linecap:round;stroke-linejoin:round;stroke-miterlimit:4;stroke-dasharray:none;stroke-dashoffset:0;stroke-opacity:1;color-rendering:auto;image-rendering:auto;shape-rendering:auto;text-rendering:auto;stop-color:#000;stop-opacity:1" transform="translate(-739.995 423.195)scale(.97561)"/>
      <path d="M1127.48-168.709a2 2 0 0 0-.503.08c-5.708 1.725-11.298 5.036-15.1 9.932-2.708 3.15-2.23 7.947.973 10.533 3.413 3.296 7.752 6.367 12.79 7.273a2 2 0 0 0 .3.03c-.023.113-.073.207-.093.322a2 2 0 0 0-.025.246c-.646 17.223.202 34.484-2.367 51.145-1.01 6.352-3.733 12.64-5.457 19.324a1.9 1.9 0 0 0-.059.558c.294 6.391.298 12.914.777 19.418a1.9 1.9 0 0 0 .317.914c1.3 1.94 3.01 3.866 5.178 5.202 2.144 1.32 4.841 2 7.656 1.277 4.121-.52 7.54-2.47 10.336-2.887 9.373 4.985 20.626 6.737 30.976 3.668a2 2 0 0 0 .282-.11c.334-.16 1.648-.53 2.836-1.288.594-.38 1.301-.92 1.625-1.953.323-1.033-.072-2.241-.721-3.037a2 2 0 0 0-.115-.13c-1.764-1.8-3.236-3.605-4.09-5.695a2 2 0 0 0-.174-.33c-4.787-7.21-13.234-9.142-19.867-11.605-4.082-1.583-6.837-4.674-8.72-8.572-1.885-3.9-2.818-8.572-3.095-12.903v-.045c-1.194-13.647 4.373-26.972 6.977-41.052l.018-.122c1.263-10.6 1.063-21.456-.705-32.002a2 2 0 0 0-.078-.308c-.189-.54-.252-2.144-.758-3.748-.253-.802-.688-1.748-1.666-2.383s-2.27-.683-3.451-.342l.48-.074c-4.762.11-9.446-.255-14.015-1.29a2 2 0 0 0-.46-.046zm.243 3.828c4.726 1.01 9.514 1.395 14.318 1.285a2 2 0 0 0 .48-.072c.53-.153.45-.052.346-.12-.103-.066 0-.027.121.35.238.756.247 2.288.793 3.856l-.08-.31c1.703 10.15 1.899 20.63.686 30.863-2.506 13.502-8.304 27.174-7.014 41.996.302 4.682 1.28 9.777 3.459 14.283 2.182 4.514 5.647 8.47 10.76 10.451l.023.01c6.954 2.585 14.257 4.435 18.058 10.162l-.175-.33c1.037 2.535 2.683 4.54 4.406 6.355-.459.226-1.12.481-1.856.813-9.487 2.794-20.084 1.135-28.763-3.69a1.9 1.9 0 0 0-1.113-.226c-4.205.438-7.75 2.684-10.916 3.043a2 2 0 0 0-.276.053c-1.758.47-3.268.095-4.787-.84-1.398-.862-2.685-2.254-3.729-3.725-.42-6.042-.46-12.23-.736-18.44 1.63-6.215 4.364-12.541 5.461-19.45v-.008c2.638-17.109 1.779-34.453 2.404-51.397.298-1.678 1.195-3.581 1.987-5.74.796-2.171 1.45-4.72.719-7.482-.525-2.293-2.382-3.765-4.196-4.264-1.828-.503-3.68-.35-5.226-.047a2 2 0 0 0-.32.094c.083-.033-1.041.105-2.16.347-.56.122-1.202.278-1.868.825s-1.148 1.69-1.03 2.638a1.89 1.89 0 0 0 1.055 1.467c1.649.795 3.22.351 4.383.016 1.163-.336 2.111-.595 2.524-.56a2 2 0 0 0 .205.005c.658-.018 1.023.23 1.328.69s.436 1.143.244 1.794a2 2 0 0 0-.033.125c-.293 1.315-.456 2.69-.783 3.745-.257.826-.602 1.145-.977 1.45-3.651-.91-7.197-3.3-10.07-6.093a2 2 0 0 0-.14-.123c-1.614-1.282-1.854-3.592-.491-5.164l.068-.084c3.123-4.049 7.938-6.98 12.908-8.55zm-2.159 8.434.205.004c-.052-.004-.088.014-.138.011-.024 0-.042-.016-.066-.015zm48.707 110.767c.04.042.075.092.116.133l-.116-.129z" style="color:#000;font-style:normal;font-variant:normal;font-weight:400;font-stretch:normal;font-size:medium;line-height:normal;font-family:sans-serif;font-variant-ligatures:normal;font-variant-position:normal;font-variant-caps:normal;font-variant-numeric:normal;font-variant-alternates:normal;font-variant-east-asian:normal;font-feature-settings:normal;font-variation-settings:normal;text-indent:0;text-align:start;text-decoration:none;text-decoration-line:none;text-decoration-style:solid;text-decoration-color:#000;letter-spacing:normal;word-spacing:normal;text-transform:none;writing-mode:lr-tb;direction:ltr;text-orientation:mixed;dominant-baseline:auto;baseline-shift:baseline;text-anchor:start;white-space:normal;shape-padding:0;shape-margin:0;inline-size:0;clip-rule:nonzero;display:inline;overflow:visible;visibility:visible;isolation:auto;mix-blend-mode:normal;color-interpolation:sRGB;color-interpolation-filters:linearRGB;solid-color:#000;solid-opacity:1;vector-effect:none;fill:#f6a436;fill-opacity:1;fill-rule:nonzero;stroke:none;stroke-width:1.025;stroke-linecap:round;stroke-linejoin:round;stroke-miterlimit:4;stroke-dasharray:none;stroke-dashoffset:0;stroke-opacity:1;color-rendering:auto;image-rendering:auto;shape-rendering:auto;text-rendering:auto;stop-color:#000;stop-opacity:1" transform="translate(-739.995 423.195)scale(.97561)"/>
    </g>
    <g style="opacity:1;stroke-width:.271198">
      <path d="M1162.493-176.798c-2.982 2.935-5.68 6.331-9.6 8.196-1.916 1.624-5.354 1.281-6.657 3.53 1.128 6.679 2.362 13.398 2.083 20.236.293 9.476-.247 18.901-3.275 27.94-2.87 9.033-4.744 18.43-4.21 27.952-.526 9.384 3.588 20.193 12.855 23.893 6.757 2.43 15.022 4.392 18.785 11.182.364 3.396 3.244 2.93 5.772 2.462 2.45-.577 5.957-.21 7.571-2.443-.032-3.67-3.648-6.155-5.838-8.71-6.314-6.278-13.927-10.997-20.985-16.322-2.242-10.347-2.247-21.126-.925-31.62 1.999-12.122 6.149-23.996 6.01-36.442a548 548 0 0 0-.83-29.288c-.057-.35-.362-.7-.756-.566" style="color:#000;font-style:normal;font-variant:normal;font-weight:400;font-stretch:normal;font-size:medium;line-height:normal;font-family:sans-serif;font-variant-ligatures:normal;font-variant-position:normal;font-variant-caps:normal;font-variant-numeric:normal;font-variant-alternates:normal;font-variant-east-asian:normal;font-feature-settings:normal;font-variation-settings:normal;text-indent:0;text-align:start;text-decoration:none;text-decoration-line:none;text-decoration-style:solid;text-decoration-color:#000;letter-spacing:normal;word-spacing:normal;text-transform:none;writing-mode:lr-tb;direction:ltr;text-orientation:mixed;dominant-baseline:auto;baseline-shift:baseline;text-anchor:start;white-space:normal;shape-padding:0;shape-margin:0;inline-size:0;clip-rule:nonzero;display:inline;overflow:visible;visibility:visible;isolation:auto;mix-blend-mode:normal;color-interpolation:sRGB;color-interpolation-filters:linearRGB;solid-color:#000;solid-opacity:1;vector-effect:none;fill:#029901;fill-opacity:1;fill-rule:nonzero;stroke:none;stroke-width:1.025;stroke-linecap:round;stroke-linejoin:round;stroke-miterlimit:4;stroke-dasharray:none;stroke-dashoffset:0;stroke-opacity:1;color-rendering:auto;image-rendering:auto;shape-rendering:auto;text-rendering:auto;stop-color:#000;stop-opacity:1" transform="translate(-739.995 423.195)scale(.97561)"/>
      <path d="M1163.164-178.633c-.418-.092-.87-.092-1.275.045a1.9 1.9 0 0 0-.721.443c-3.095 3.047-5.669 6.21-9.088 7.836a2 2 0 0 0-.408.266c-.483.41-1.556.744-2.906 1.17s-3.13 1.068-4.164 2.852a1.9 1.9 0 0 0-.229 1.263c1.131 6.698 2.325 13.284 2.057 19.844a2 2 0 0 0 0 .137c.29 9.365-.254 18.552-3.178 27.28l-.01.028c-2.892 9.1-4.807 18.656-4.295 28.418v.012c-.557 10.012 3.78 21.645 14.041 25.742l.061.024c6.915 2.486 14.503 4.421 17.772 10.32l-.225-.715c.12 1.116.479 2.126 1.135 2.902s1.558 1.226 2.392 1.418c1.67.386 3.187.036 4.467-.2l.09-.02c.942-.222 2.433-.286 4.014-.582 1.58-.297 3.437-.91 4.654-2.592a1.9 1.9 0 0 0 .36-1.123c-.022-2.452-1.244-4.422-2.557-5.977s-2.779-2.83-3.737-3.947a2 2 0 0 0-.101-.11c-6.336-6.3-13.772-10.976-20.582-16.06-2.04-9.866-2.059-20.171-.791-30.264 1.964-11.891 6.171-23.869 6.03-36.736a550 550 0 0 0-.833-29.377 2 2 0 0 0-.022-.2 2.54 2.54 0 0 0-.885-1.593c-.266-.23-.648-.412-1.066-.504m-1.713 5.588c.43 8.687.725 17.403.738 26.104v.017c.134 12.013-3.95 23.773-5.984 36.113l-.012.073c-1.342 10.654-1.346 21.644.953 32.256a1.9 1.9 0 0 0 .71 1.109c7.15 5.396 14.68 10.077 20.79 16.154l-.101-.11c1.232 1.438 2.668 2.681 3.718 3.925.799.945 1.236 1.821 1.454 2.719-.421.333-.827.652-1.721.82-1.19.223-2.676.264-4.184.619l.09-.02c-1.248.232-2.436.35-2.93.237-.246-.057-.29-.099-.355-.176s-.201-.283-.264-.865a1.9 1.9 0 0 0-.226-.715c-4.247-7.664-13.155-9.663-19.752-12.03-8.259-3.307-12.144-13.274-11.654-22.023a2 2 0 0 0 0-.213c-.516-9.195 1.292-18.354 4.115-27.244l.01-.027c3.109-9.298 3.65-18.904 3.363-28.438.276-6.75-.868-13.247-1.945-19.586.325-.333.693-.624 1.64-.923 1.174-.37 2.78-.676 4.213-1.891l-.41.266c3.25-1.547 5.569-3.88 7.746-6.15z" style="color:#000;font-style:normal;font-variant:normal;font-weight:400;font-stretch:normal;font-size:medium;line-height:normal;font-family:sans-serif;font-variant-ligatures:normal;font-variant-position:normal;font-variant-caps:normal;font-variant-numeric:normal;font-variant-alternates:normal;font-variant-east-asian:normal;font-feature-settings:normal;font-variation-settings:normal;text-indent:0;text-align:start;text-decoration:none;text-decoration-line:none;text-decoration-style:solid;text-decoration-color:#000;letter-spacing:normal;word-spacing:normal;text-transform:none;writing-mode:lr-tb;direction:ltr;text-orientation:mixed;dominant-baseline:auto;baseline-shift:baseline;text-anchor:start;white-space:normal;shape-padding:0;shape-margin:0;inline-size:0;clip-rule:nonzero;display:inline;overflow:visible;visibility:visible;isolation:auto;mix-blend-mode:normal;color-interpolation:sRGB;color-interpolation-filters:linearRGB;solid-color:#000;solid-opacity:1;vector-effect:none;fill:#f6a436;fill-opacity:1;fill-rule:nonzero;stroke:none;stroke-width:1.025;stroke-linecap:round;stroke-linejoin:round;stroke-miterlimit:4;stroke-dasharray:none;stroke-dashoffset:0;stroke-opacity:1;color-rendering:auto;image-rendering:auto;shape-rendering:auto;text-rendering:auto;stop-color:#000;stop-opacity:1" transform="translate(-739.995 423.195)scale(.97561)"/>
    </g>
    <g style="opacity:1;stroke-width:.271198">
      <path d="M1190.51-367.158c-3.778 3.552-6.526 8.317-9.827 12.377-5.18 6.787-9.926 14.025-15.66 20.321-2.816-.58-5.204-3.41-8.112-3.062-1.587 3.61-1.705 7.737-3.08 11.447-4.381-1.123-8.25-3.848-12.49-5.174-2.125 4.66-2.85 10.05-5.456 14.514-3.75-.288-7.67-1.917-11.387-1.83-1.598 3.542-.867 7.933-2.721 11.302-2.807.086-5.302-2.216-8.128-2.116-1.387 3.723-.75 8.11-1.702 12.023-3.129.041-6.192-.873-9.306-.945-1.047 1.706.407 4.19.297 6.136.695 3.137 1.157 6.236-1.023 8.913-2.86 5.255-5.02 12.505-.532 17.55 6.023 7.098 16.114 6.78 24.478 8.412 18.386 3.974 32.412 20.173 36.717 38.089 3.867 13.168 3.119 26.95 2.993 40.52-.194 1.242.01 4.6 1.778 2.714 6.465-6.832 9.244-16.117 10.45-25.242 2.417-12.587 3.955-25.403 6.063-37.99 3.02-10.687 9.741-19.908 16.545-28.517 10.933-13.359 25.003-24.956 41.905-29.597 6.642-2.107 13.664-2.675 20.554-2.946 1.86-1.456.915-4.546 1.527-6.59-.377-2.273 2.163-6.964-1.422-6.988-7.96-1.037-15.761 1.88-23.543 3.122-6.998 1.246-13.894 3.642-20.902 4.325.068-3.625.047-7.514 1.17-10.982 1.77-1.782 4.05-3.829 6.329-4.5 1.528 1.563 1.447 4.899 3.625 5.6 2.116-1.431 2.154-5.122 4.473-6.092 1.936 1.037 2.56 4.313 4.804 4.517 2.155-2.45 2.653-6.21 4.943-8.448 1.917 1.97 2.15 5.129 4.147 6.996 2.152-.829 2.999-3.79 4.525-5.468.868-.79 2.175-4.209 3.3-2.064 1.932 2.342 2.812 6.559 6.581 6.391 1.528.35 3.533.27 3.638-1.755 1.991-6.466 4.178-12.997 5.09-19.703-1.5-1.172-4.002.258-5.842.144-12.253 1.677-24.436 3.976-36.693 5.506-.639-2.008.43-4.522-.718-6.242h-20.713c-.144-7.46.323-14.98-.393-22.408-1.625-.799-2.826 2.16-4.187 2.866-3.722 3.333-7.017 7.582-11.143 10.238-.82-4.975.835-10.24-.333-15.124a.7.7 0 0 0-.618-.24m20.593 36.782c2.28-.332-.035 1.665-.648 2.245-5.95 5.21-12.203 10.085-18.586 14.768-4.204-3.806-8.31-8.003-11.447-12.693 2.283-1.042 5.796-.795 8.48-1.43 7.399-.995 14.773-2.158 22.2-2.89" style="color:#000;font-style:normal;font-variant:normal;font-weight:400;font-stretch:normal;font-size:medium;line-height:normal;font-family:sans-serif;font-variant-ligatures:normal;font-variant-position:normal;font-variant-caps:normal;font-variant-numeric:normal;font-variant-alternates:normal;font-variant-east-asian:normal;font-feature-settings:normal;font-variation-settings:normal;text-indent:0;text-align:start;text-decoration:none;text-decoration-line:none;text-decoration-style:solid;text-decoration-color:#000;letter-spacing:normal;word-spacing:normal;text-transform:none;writing-mode:lr-tb;direction:ltr;text-orientation:mixed;dominant-baseline:auto;baseline-shift:baseline;text-anchor:start;white-space:normal;shape-padding:0;shape-margin:0;inline-size:0;clip-rule:nonzero;display:inline;overflow:visible;visibility:visible;isolation:auto;mix-blend-mode:normal;color-interpolation:sRGB;color-interpolation-filters:linearRGB;solid-color:#000;solid-opacity:1;vector-effect:none;fill:#029901;fill-opacity:1;fill-rule:nonzero;stroke:none;stroke-width:1.025;stroke-linecap:round;stroke-linejoin:round;stroke-miterlimit:4;stroke-dasharray:none;stroke-dashoffset:0;stroke-opacity:1;color-rendering:auto;image-rendering:auto;shape-rendering:auto;text-rendering:auto;stop-color:#000;stop-opacity:1" transform="translate(-739.995 423.195)scale(.97561)"/>
      <path d="M1190.922-369.037a2.7 2.7 0 0 0-.654.006 1.9 1.9 0 0 0-1.051.496c-4.06 3.817-6.831 8.664-10 12.56l-.037.047c-4.96 6.499-9.502 13.237-14.723 19.16a22 22 0 0 1-2.531-1.218c-1.39-.78-3.124-1.665-5.238-1.412a1.89 1.89 0 0 0-1.506 1.115c-1.48 3.363-1.89 6.692-2.656 9.656-3.334-1.23-6.682-3.194-10.62-4.426a1.89 1.89 0 0 0-2.283 1.02c-2.08 4.56-2.93 9.317-4.824 13.176-3.061-.476-6.534-1.686-10.346-1.598a1.89 1.89 0 0 0-1.678 1.113c-.963 2.137-1.17 4.314-1.416 6.254-.173 1.372-.425 2.55-.773 3.617-.665-.152-1.271-.237-2.14-.6-1.33-.552-2.919-1.266-4.864-1.196a1.89 1.89 0 0 0-1.703 1.228c-1.396 3.747-1.19 7.457-1.603 10.625-2.345-.199-4.753-.71-7.592-.775a1.89 1.89 0 0 0-1.653.9c-.94 1.534-.689 3.142-.445 4.342s.49 2.216.465 2.676a2 2 0 0 0 .043.515c.676 3.053 1.001 5.289-.645 7.31a2 2 0 0 0-.193.29c-1.51 2.773-2.864 6.09-3.24 9.555-.376 3.46.314 7.17 2.945 10.138 6.71 7.883 17.483 7.463 25.512 9.024 17.537 3.796 31.12 19.422 35.267 36.68l.025.09c3.516 11.973 3.115 24.672 2.948 37.449a2.067 2.153 0 0 0-1.815 2.136 2.067 2.153 0 0 0 1.746 2.127c.045.445.124.904.283 1.393.211.645.622 1.64 1.893 1.972.636.166 1.305.027 1.774-.205.468-.231.81-.532 1.132-.877 6.863-7.256 9.713-16.956 10.946-26.287 2.412-12.593 3.95-25.338 6.03-37.785 2.906-10.219 9.416-19.23 16.167-27.773v-.002c10.769-13.158 24.56-24.47 40.943-28.97l.07-.02c6.37-2.021 13.22-2.591 20.057-2.86a1.9 1.9 0 0 0 1.092-.398c1.563-1.224 1.87-3.075 1.953-4.452s.065-2.571.219-3.085a1.9 1.9 0 0 0 .055-.852c-.042-.255.337-2.07.507-3.848.085-.889.14-1.908-.47-2.982-.603-1.061-1.968-1.702-3.264-1.727-8.497-1.047-16.436 1.942-23.902 3.133l-.033.006c-6.437 1.146-12.574 3.02-18.598 3.9.07-2.72.24-5.38.924-7.705 1.222-1.192 2.56-2.217 3.826-2.935.196.437.343.643.59 1.266.488 1.229 1.305 2.957 3.232 3.578a1.89 1.89 0 0 0 1.639-.235c1.678-1.135 2.273-2.81 2.818-3.992.253-.547.41-.581.614-.889.254.326.395.41.718.875.734 1.054 1.883 2.565 3.897 2.748a1.89 1.89 0 0 0 1.59-.632c1.346-1.531 2.056-3.276 2.728-4.784.238-.534.513-.8.75-1.261.113.25.236.36.354.633.552 1.281 1.188 2.82 2.549 4.091a1.89 1.89 0 0 0 1.97.383c1.703-.656 2.672-2.006 3.41-3.164s1.324-2.236 1.832-2.795c.447-.439.659-.818.905-1.191.026-.04.042-.058.068-.098.571.896 1.12 1.944 1.986 3.176 1.049 1.49 2.854 3.01 5.275 3.043.933.2 2.007.319 3.186-.065 1.159-.376 2.31-1.634 2.541-3.115 1.974-6.404 4.185-12.993 5.123-19.898a1.89 1.89 0 0 0-.709-1.745c-1.445-1.13-3.121-.916-4.307-.693-1.185.224-2.2.463-2.582.44a2 2 0 0 0-.373.013c-11.65 1.594-23.165 3.694-34.685 5.207 0-.362-.05-.538-.031-.982.047-1.166.095-2.698-.865-4.137a1.89 1.89 0 0 0-1.573-.84h-18.82c-.048-6.778.27-13.705-.404-20.699a1.89 1.89 0 0 0-1.047-1.516c-.904-.444-2.068-.351-2.809.008-.74.36-1.203.839-1.605 1.274-.805.87-1.553 1.643-1.477 1.603a2 2 0 0 0-.392.27c-2.917 2.612-5.512 5.377-8.18 7.72.127-3.554.786-7.523-.197-11.638a1.9 1.9 0 0 0-.399-.785 2.53 2.53 0 0 0-1.646-.895m-1.295 5.834c.019 3.508-.722 7.503-.029 11.715a1.89 1.89 0 0 0 2.887 1.283c4.462-2.872 7.766-7.148 11.261-10.309.55-.329.956-.702 1.28-1.064.345 6.254.144 12.64.27 19.125a1.89 1.89 0 0 0 1.89 1.853h19.244c.051.32.154.48.13 1.047-.04 1.024-.224 2.366.257 3.877a1.89 1.89 0 0 0 2.033 1.303c12.315-1.537 24.485-3.83 36.654-5.498 1.308.017 2.37-.337 3.203-.494.13-.025.078.009.186-.006-.999 5.869-2.82 11.72-4.637 17.619a2 2 0 0 0-.082.459c0 .04.01.043.01.068-.167.051-.784.07-1.338-.056a2 2 0 0 0-.504-.047c-1.175.052-1.583-.361-2.351-1.453-.72-1.024-1.428-2.572-2.522-3.989-.217-.402-.474-.794-.912-1.127-.461-.35-1.172-.572-1.781-.507-1.218.13-1.72.806-2.125 1.289-.406.483-.706.965-.96 1.351-.256.387-.528.7-.417.6a2 2 0 0 0-.127.125c-1.018 1.12-1.62 2.36-2.225 3.308-.192.303-.326.31-.503.532-.246-.452-.517-.727-.768-1.309-.542-1.257-1.14-2.786-2.424-4.105a1.89 1.89 0 0 0-2.676-.034c-1.474 1.441-2.24 3.183-2.927 4.727-.43.964-.882 1.63-1.32 2.389-.134-.161-.154-.075-.34-.342-.624-.895-1.322-2.287-2.946-3.156a1.89 1.89 0 0 0-1.62-.078c-1.944.812-2.72 2.56-3.302 3.824-.243.527-.414.64-.627 1.021-.048-.11-.064-.05-.117-.183-.398-1.005-.727-2.475-1.972-3.748a1.89 1.89 0 0 0-1.885-.49c-2.951.868-5.305 3.135-7.137 4.98a1.9 1.9 0 0 0-.457.748c-1.254 3.868-1.194 7.936-1.262 11.53a1.89 1.89 0 0 0 2.073 1.917c7.3-.712 14.23-3.13 21.015-4.342l.035-.006c8.03-1.286 15.623-4.063 22.967-3.107a2 2 0 0 0 .232.016c.051 0 .015-.01.05-.01 0 .045.038.143 0 .59-.102 1.058-.644 2.604-.465 4.427-.293 1.32-.273 2.568-.329 3.492-.05.844-.215 1.116-.412 1.375-6.62.289-13.433.867-20.006 2.944-17.41 4.786-31.754 16.662-42.847 30.216l-.022.026c-6.835 8.65-13.738 18.054-16.881 29.174a2 2 0 0 0-.045.203c-2.118 12.644-3.655 25.445-6.055 37.945l-.018.108c-1.067 8.077-3.529 16.019-8.464 22.224.14-13.32.856-27.08-3.057-40.45-4.474-18.554-18.93-35.301-38.145-39.454l-.037-.008c-8.69-1.696-18.066-1.499-23.398-7.781l-.03-.034c-1.844-2.074-2.32-4.502-2.022-7.236.293-2.705 1.43-5.605 2.763-8.07 2.483-3.233 1.964-7.02 1.281-10.145 0-1.32-.347-2.413-.525-3.289-.062-.306.01-.302-.012-.517 2.344.264 4.85.788 7.693.75a1.89 1.89 0 0 0 1.81-1.444c.913-3.75.783-7.265 1.382-10.18.593.162 1.09.2 1.83.508 1.326.552 2.903 1.269 4.84 1.21a1.89 1.89 0 0 0 1.6-.98c1.144-2.08 1.422-4.275 1.673-6.259.188-1.478.491-2.675.83-3.86 2.88.276 6.173 1.341 9.803 1.62a1.89 1.89 0 0 0 1.775-.93c2.511-4.299 3.448-8.923 4.946-12.928 3.329 1.359 6.754 3.402 10.9 4.465a1.89 1.89 0 0 0 2.24-1.174c1.34-3.612 1.698-7.105 2.686-10.066.524.157 1.099.406 1.789.793 1.234.693 2.666 1.69 4.564 2.082a1.89 1.89 0 0 0 1.78-.578c5.87-6.446 10.641-13.733 15.765-20.447l-.037.044c2.664-3.275 4.977-6.65 7.479-9.613zm21.795 30.9a5 5 0 0 0-.578.057c-7.475.74-14.847 1.899-22.194 2.887a2 2 0 0 0-.183.033c-2.216.525-5.778.158-8.83 1.55a1.89 1.89 0 0 0-.785 2.77c3.27 4.89 7.487 9.184 11.75 13.043a1.89 1.89 0 0 0 2.384.123c6.412-4.705 12.71-9.611 18.715-14.869l.055-.049c.23-.217 1.03-.856 1.658-1.756.157-.225.32-.47.45-.88.129-.41.223-1.163-.215-1.86-.439-.697-1.147-.94-1.604-1.012a3.3 3.3 0 0 0-.623-.037m-4.107 4.324c-4.933 4.219-10.049 8.245-15.29 12.124-3-2.787-5.775-5.785-8.205-8.961 1.615-.19 3.465-.364 5.37-.801 6.082-.818 12.1-1.656 18.125-2.362" style="color:#000;font-style:normal;font-variant:normal;font-weight:400;font-stretch:normal;font-size:medium;line-height:normal;font-family:sans-serif;font-variant-ligatures:normal;font-variant-position:normal;font-variant-caps:normal;font-variant-numeric:normal;font-variant-alternates:normal;font-variant-east-asian:normal;font-feature-settings:normal;font-variation-settings:normal;text-indent:0;text-align:start;text-decoration:none;text-decoration-line:none;text-decoration-style:solid;text-decoration-color:#000;letter-spacing:normal;word-spacing:normal;text-transform:none;writing-mode:lr-tb;direction:ltr;text-orientation:mixed;dominant-baseline:auto;baseline-shift:baseline;text-anchor:start;white-space:normal;shape-padding:0;shape-margin:0;inline-size:0;clip-rule:nonzero;display:inline;overflow:visible;visibility:visible;isolation:auto;mix-blend-mode:normal;color-interpolation:sRGB;color-interpolation-filters:linearRGB;solid-color:#000;solid-opacity:1;vector-effect:none;fill:#f6a436;fill-opacity:1;fill-rule:nonzero;stroke:none;stroke-width:1.025;stroke-linecap:round;stroke-linejoin:round;stroke-miterlimit:4;stroke-dasharray:none;stroke-dashoffset:0;stroke-opacity:1;color-rendering:auto;image-rendering:auto;shape-rendering:auto;text-rendering:auto;stop-color:#000;stop-opacity:1" transform="translate(-739.995 423.195)scale(.97561)"/>
    </g>
  </g>
</svg>
