<svg id="flag-icons-pt-20" class="fi fi-pt-20" viewBox="0 0 640 480" xmlns="http://www.w3.org/2000/svg" xmlns:xlink="http://www.w3.org/1999/xlink" width="640" height="480">
  <metadata id="flag-icons">
    <name>Azores</name>
    <code>pt-20</code>
    <iso>true</iso>
    <type>Place</type>
    <capital>Ponta Delgada</capital>
    <continent>Europe</continent>
  </metadata>
  <path fill="#fff" d="M0 480h640V0H0Z" style="stroke-width:2.05094"/>
  <path fill="#1e3061" d="M288 0H0v480h288z" style="font-variation-settings:normal;stroke-width:2.75162;-inkscape-stroke:none;paint-order:fill markers stroke"/>
  <g style="stroke-width:.330729">
    <path fill="#fff" d="M-79.097 85.335v10.143l-.006 1.074c0 .284-.013.607-.046.877-.192 1.608-.93 3.005-2.024 4.093a7.06 7.06 0 0 1-4.989 2.063c-1.937 0-3.658-.818-4.943-2.096a7.05 7.05 0 0 1-2.082-4.97V85.31" style="stroke-width:.41341" transform="translate(345.14 -196.048)scale(3.0291)"/>
    <path fill="#e83028" d="M-97.96 96.52v.012c0 3.223 1.339 6.17 3.48 8.298 2.149 2.135 5.108 3.467 8.344 3.467 3.256 0 6.202-1.319 8.344-3.447a11.68 11.68 0 0 0 3.467-8.311V80.603l-23.621-.006zm18.883-11.151v10.143l-.006 1.074c0 .283-.013.606-.046.877-.198 1.608-.936 3.005-2.024 4.092a7.06 7.06 0 0 1-4.989 2.063c-1.937 0-3.658-.817-4.943-2.096a7.05 7.05 0 0 1-2.082-4.969V85.349" style="stroke-width:.41341" transform="translate(345.14 -196.048)scale(3.0291)"/>
    <g fill="#0c2b5c" style="stroke-width:.41341">
      <path d="M-88.894 94.727v-2.234h-3.111l-.006 2.234c0 .461.178.876.461 1.18s.672.494 1.1.494c.43 0 .818-.191 1.101-.495.284-.296.455-.718.455-1.18zm-2.366-1.694a.31.31 0 1 1 0 .619.31.31 0 0 1 0-.619m.006 2.313a.31.31 0 1 1 0-.619.31.31 0 0 1 0 .62m.817-.864a.31.31 0 1 1 0-.62.31.31 0 0 1 0 .62m.863.863a.304.304 0 0 1-.303-.31c0-.17.132-.31.303-.31a.31.31 0 1 1 0 .62m0-1.694a.31.31 0 0 1-.303-.31c0-.17.139-.309.303-.309a.31.31 0 1 1 0 .62m9.3 1.074v-2.234h-3.11l-.007 2.234c0 .461.178.876.462 1.18.283.303.672.494 1.1.494s.817-.191 1.1-.495c.284-.296.456-.718.456-1.18zm-2.366-1.694a.31.31 0 1 1 0 .619.31.31 0 0 1 0-.619m.006 2.313a.31.31 0 1 1 0-.62c.165 0 .304.146.304.31 0 .172-.139.31-.304.31m.818-.863a.31.31 0 1 1 0-.62.31.31 0 0 1 0 .62m.863.863a.31.31 0 1 1 0-.619.31.31 0 0 1 0 .62m0-1.695a.304.304 0 0 1-.303-.31c0-.17.132-.309.303-.309a.31.31 0 1 1 0 .62" style="stroke-width:.330729" transform="translate(345.14 -196.048)scale(3.0291)"/>
      <path d="M-84.577 94.727v-2.234h-3.111l-.006 2.234c0 .461.177.877.46 1.18s.673.494 1.101.494c.429 0 .818-.191 1.101-.494.284-.297.455-.719.455-1.18m-2.366-1.694a.31.31 0 1 1 0 .62.31.31 0 0 1 0-.62m.006 2.314a.31.31 0 1 1 0-.62c.165 0 .303.145.303.31 0 .171-.139.31-.303.31m.817-.864a.31.31 0 1 1 0-.619.31.31 0 0 1 0 .62m.863.863a.31.31 0 1 1 0-.62.31.31 0 0 1 0 .62m0-1.694a.31.31 0 1 1 0-.62.31.31 0 0 1 0 .62m.68 6.449v-2.235h-3.111l-.006 2.228v.006c0 .455.177.877.46 1.18s.673.494 1.101.494c.429 0 .818-.191 1.101-.494a1.72 1.72 0 0 0 .455-1.18zm-2.366-1.694c.17 0 .31.138.31.303a.31.31 0 1 1-.62 0c0-.165.138-.303.31-.303m.006 2.313a.31.31 0 1 1 0-.62c.165 0 .303.14.303.31 0 .172-.139.31-.303.31m.817-.87a.31.31 0 0 1-.31-.31c0-.164.139-.303.31-.303s.31.139.31.303a.31.31 0 0 1-.31.31m.863.864a.31.31 0 0 1-.31-.304.31.31 0 1 1 .62 0 .31.31 0 0 1-.31.304m0-1.694a.31.31 0 0 1-.31-.31c0-.165.139-.303.31-.303.172 0 .31.138.31.303a.31.31 0 0 1-.31.31m.68-9.669v-2.234h-3.111l-.006 2.234c0 .462.177.877.46 1.18s.673.494 1.101.494c.429 0 .818-.19 1.101-.494.284-.296.455-.718.455-1.18m-2.366-1.693a.31.31 0 1 1 0 .619.31.31 0 0 1 0-.62m.006 2.314a.31.31 0 1 1 0-.62c.165 0 .303.139.303.31s-.139.31-.303.31m.817-.863a.31.31 0 1 1 0-.62.31.31 0 0 1 0 .62m.863.863a.31.31 0 1 1 0-.62.31.31 0 0 1 0 .62m0-1.694a.31.31 0 1 1 0-.619.31.31 0 0 1 0 .62" style="stroke-width:.330729" transform="translate(345.12 -196.048)scale(3.0291)"/>
    </g>
    <path fill="#211e1e" d="M-86.205 108.406c-3.15 0-6.13-1.24-8.39-3.487s-3.5-5.213-3.5-8.35v-.012l.013-15.989h23.752v16.009c0 3.15-1.239 6.122-3.48 8.356a11.83 11.83 0 0 1-8.396 3.474m-11.758-11.85v.012c0 3.098 1.233 6.03 3.46 8.252 2.241 2.22 5.18 3.446 8.298 3.446 3.13 0 6.076-1.219 8.297-3.427 2.208-2.2 3.434-5.114 3.447-8.212V80.706h-23.482zm11.751 7.164c-1.845 0-3.625-.752-4.996-2.116a7.14 7.14 0 0 1-2.095-5.015l-.007-11.277 14.236.027v10.209l-.006 1.074c0 .296-.02.62-.053.89-.184 1.555-.89 2.979-2.043 4.125a7.1 7.1 0 0 1-5.035 2.083m-6.96-18.27V96.59a6.97 6.97 0 0 0 2.063 4.916c1.345 1.345 3.085 2.083 4.897 2.083a6.97 6.97 0 0 0 4.943-2.05c1.127-1.12 1.82-2.517 1.997-4.046a7 7 0 0 0 .053-.87l.006-1.074v-10.07" style="stroke-width:.41341" transform="translate(345.14 -196.048)scale(3.0291)"/>
    <g fill="#f8de35" style="stroke-width:.41341">
      <path d="M-96.5 84.798c.027-1.146.844-1.417.85-1.423 0 0 .877.29.87 1.43" style="stroke-width:.330729" transform="translate(345.14 -196.048)scale(3.0291)"/>
      <path d="m-97.198 83.395-.145 1.318h.863c.006-1.088.824-1.266.837-1.266.02 0 .83.244.85 1.266h.863l-.151-1.325m-3.322 1.332h3.52l.138.164-.138.158h-3.52l-.131-.158z" style="stroke-width:.330729" transform="translate(345.14 -196.048)scale(3.0291)"/>
      <path d="M-96.124 84.713c.006-.686.474-.884.474-.884s.488.205.488.884m-2.162-1.859h3.368l.132.145-.132.145h-3.368l-.132-.145zm.066.29h3.23l.118.145-.118.145h-3.23l-.118-.145zm1.048-2.194h.25v.177h.185v-.184h.264v.184h.184v-.184h.264v.422l-.119.105h-.91l-.118-.112m.119 1.482.896.007-.06-1.338-.777-.006m.922.099h.251v.184h.185v-.184h.257v.184h.178v-.184h.257v.415l-.112.105h-.896l-.12-.105m.159.106-.02.724h.856l-.033-.724m-3.156-.521h.25v.184h.179v-.184h.257v.184h.177v-.184h.257v.415l-.112.105h-.896l-.112-.105m.152.106-.02.724h.856l-.027-.724" style="stroke-width:.330729" transform="translate(345.14 -196.048)scale(3.0291)"/>
    </g>
    <g fill="#211e1e" style="stroke-width:.41341">
      <path d="M-95.729 82.248h.178v-.317h-.178zm1.101.389h.171v-.244h-.171zm-2.208 0h.171v-.244h-.171z" style="stroke-width:.330729" transform="translate(345.14 -196.048)scale(3.0291)"/>
      <path d="m-93.883 84.666-.139-1.18.165-.197-.033-.112.112-.178-.178-.198h-.112l-.02-.626.158-.158v-.468h-.356v.185h-.086v-.185h-.356v.185h-.079v-.185h-.35v.468l.152.152-.02.633h-.126l-.052-1.279h.02l.172-.158v-.468l-.37-.006v.191h-.079v-.184l-.369-.007v.192h-.079v-.185h-.356v.462l.172.164h.006l-.053 1.279h-.132l-.02-.626.158-.158v-.468h-.356v.184h-.079v-.184h-.363v.184h-.079v-.184h-.349v.468l.158.152-.026.632h-.1l-.184.198.112.178-.032.112.164.198-.125 1.18h-.012l-.185.217.185.21h3.52l.184-.21-.185-.218m-.105 0h-.751c-.027-.52-.25-.837-.442-1.008l-.244-.171h1.299zm-1.654-.89-.191.12c-.152.125-.317.362-.336.77h-.258c.033-1.015.785-1.166.785-1.166.006 0 .745.217.797 1.166h-.27c-.02-.659-.494-.89-.527-.89m.428.884h-.85c.02-.528.336-.732.415-.771.086.046.415.243.435.77m.158-2.642v-.363h.152v.178h.283v-.184l.152.006v.177h.283v-.184h.152v.369l-.06.052-.896.007-.066-.06m.89.778h-.752l.02-.62h.706zm-1.925-1.378-.072-.059v-.362h.151v.184h.29v-.184h.158v.184h.29v-.184h.158v.369l-.066.052zm.837 1.378-.784-.006.06-1.233h.672zm-1.997-.778v-.362h.145v.184h.284v-.184h.152v.184h.283v-.184h.152v.362l-.06.06h-.896zm.877.778h-.745l.02-.62h.706zm-1.028.204.079-.099h3.368l.079.1-.08.091h-3.367zm.08.29.073-.092h3.222l.073.092-.073.092h-3.222zm.165.198h1.272l-.178.118c-.204.165-.455.482-.468 1.061l-.751-.006zm3.275 1.502h-3.519l-.08-.105.08-.112h3.52l.085.112z" style="stroke-width:.330729" transform="translate(345.14 -196.048)scale(3.0291)"/>
    </g>
    <g fill="#f8de35" style="stroke-width:.41341">
      <path d="M-87.016 84.798c.026-1.146.844-1.417.85-1.423 0 0 .877.296.87 1.436" style="stroke-width:.330729" transform="translate(345.14 -196.048)scale(3.0291)"/>
      <path d="m-87.715 83.401-.145 1.312.864.006c.006-1.094.824-1.272.843-1.272.013 0 .824.244.85 1.272h.857l-.151-1.331m-3.315 1.332h3.512l.139.164-.139.165h-3.512l-.139-.165z" style="stroke-width:.330729" transform="translate(345.14 -196.048)scale(3.0291)"/>
      <path d="M-86.634 84.713c0-.686.468-.877.468-.877s.488.198.488.877m-2.162-1.859h3.368l.132.145-.132.145h-3.368l-.132-.145zm.073.29h3.222l.12.145-.12.152h-3.222l-.126-.152zm1.041-2.194h.25v.184h.185v-.185h.264v.185h.184v-.185h.264v.416l-.119.105h-.91l-.118-.105m.119 1.475.896.007-.06-1.338h-.777m.929.093h.25v.184h.179v-.184h.257v.184h.184v-.184h.25v.415l-.111.105h-.897l-.112-.105m.132.83h.857l-.027-.724h-.804m-2.359-.515h.25v.178h.178v-.184h.257v.184h.178v-.184h.258v.422l-.112.105h-.897l-.112-.112" style="stroke-width:.330729" transform="translate(345.14 -196.048)scale(3.0291)"/>
      <path d="m-87.662 82.13-.026.717h.856l-.026-.718" style="stroke-width:.330729" transform="translate(345.14 -196.048)scale(3.0291)"/>
    </g>
    <g fill="#211e1e" style="stroke-width:.41341">
      <path d="M-86.245 82.248h.178v-.317h-.178zm1.101.389h.171v-.244h-.171zm-2.208.006h.171v-.25h-.171z" style="stroke-width:.330729" transform="translate(345.14 -196.048)scale(3.0291)"/>
      <path d="m-84.4 84.673-.138-1.186.165-.191-.033-.112.119-.185-.185-.198h-.112l-.02-.626.158-.158v-.468h-.356v.185h-.08v-.185h-.362v.185h-.08v-.185h-.348v.468l.157.152-.026.633h-.125l-.053-1.279h.027l.165-.158v-.468h-.37v.184h-.078v-.184h-.37v.184h-.079v-.184h-.356v.468l.172.158h.006l-.053 1.278h-.132l-.02-.626.158-.158v-.468h-.356v.185h-.079v-.185h-.363v.185h-.079v-.178h-.349v.461l.158.158-.026.626h-.1l-.184.198.112.184-.032.113.164.19-.125 1.187h-.006l-.191.211.191.217h3.513l.185-.217zm-.105-.007h-.752c-.026-.52-.25-.83-.441-1.008l-.244-.165h1.298zm-1.655-.883-.19.112c-.146.125-.317.362-.337.778h-.257c.033-1.015.784-1.173.784-1.173.006.006.745.217.798 1.173h-.264c-.026-.666-.494-.89-.534-.89m.429.883h-.85c.02-.534.336-.731.415-.778.085.046.415.244.435.778m.165-2.65v-.362h.145v.185h.283v-.185h.152v.185h.283v-.185h.151v.363l-.059.06h-.896zm.884.778h-.752l.02-.62h.706zm-1.925-1.378-.072-.052v-.363h.151v.178h.29v-.184h.158v.184h.29v-.184h.158v.369l-.06.052zm.844 1.378-.785-.007.053-1.232h.679zm-2.004-.778v-.356h.145v.178h.284v-.185h.151v.185h.284v-.185h.151v.363l-.06.06h-.896zm.877.778h-.744l.02-.62h.705zm-1.03.206.08-.092h3.367l.08.092-.08.092h-3.368zm.08.296.072-.099h3.223l.072.1-.072.092h-3.223zm.165.198h1.272l-.178.119c-.204.165-.454.474-.468 1.054h-.751Zm3.276 1.503h-3.513l-.086-.112.086-.112h3.513l.086.112z" style="stroke-width:.330729" transform="translate(345.14 -196.048)scale(3.0291)"/>
    </g>
    <g fill="#f8de35" style="stroke-width:.41341">
      <path d="M-77.638 84.805c.027-1.147.844-1.417.85-1.424 0 0 .877.297.87 1.437" style="stroke-width:.330729" transform="translate(345.14 -196.048)scale(3.0291)"/>
      <path d="m-78.336 83.408-.145 1.311.863.006c.006-1.094.824-1.272.844-1.272.012 0 .824.244.85 1.272h.863l-.158-1.33m-3.315 1.331h3.513l.138.165-.138.158h-3.513l-.138-.158z" style="stroke-width:.330729" transform="translate(345.14 -196.048)scale(3.0291)"/>
      <path d="M-77.255 84.72c0-.686.468-.877.468-.877s.487.197.487.876m-2.161-1.859h3.367l.132.146-.132.145h-3.367l-.132-.145z" style="stroke-width:.330729" transform="translate(345.14 -196.048)scale(3.0291)"/>
      <path d="M-78.389 83.15h3.223l.125.146-.125.151h-3.223l-.125-.151zm1.041-2.194h.25v.185h.185v-.185h.264v.185h.185v-.185h.263v.415l-.112.106h-.916l-.119-.106m.119 1.476.896.007-.06-1.338-.777-.006m.93.098h.25v.185h.178v-.185h.257v.185h.185v-.185h.25v.416l-.112.112h-.896l-.113-.112m.159.112-.027.718h.857l-.026-.718m-3.164-.521h.25v.178h.179v-.185h.257v.185h.184v-.185h.25v.416l-.105.111h-.902l-.113-.111m.159.112-.027.718h.857l-.027-.718" style="stroke-width:.330729" transform="translate(345.14 -196.048)scale(3.0291)"/>
    </g>
    <g fill="#211e1e" style="stroke-width:.41341">
      <path d="M-76.866 82.254h.178v-.316h-.178zm1.1.389h.171V82.4h-.17zm-2.208.007h.172v-.25h-.172z" style="stroke-width:.330729" transform="translate(345.14 -196.048)scale(3.0291)"/>
      <path d="m-75.021 84.68-.139-1.187.165-.197-.032-.106.118-.184-.184-.198h-.106l-.026-.626.158-.158v-.468h-.356v.185h-.08v-.185h-.362v.185h-.079v-.185h-.35v.468l.159.151-.026.633h-.126l-.052-1.278h.026l.165-.158v-.468l-.369-.006v.19h-.079v-.184l-.362-.006v.191h-.086v-.185h-.356v.468l.171.159h.006l-.052 1.278h-.132l-.02-.626.157-.158v-.468h-.355v.185h-.079v-.185h-.362v.185h-.08v-.178h-.349v.461l.158.158-.02.626h-.106l-.185.198.113.184-.033.106.165.197-.126 1.187h-.006l-.19.21.19.218h3.513l.185-.217zm-.099-.006h-.758c-.026-.521-.25-.83-.441-1.009l-.244-.171h1.305zm-1.66-.884-.192.112c-.145.126-.316.363-.33.778h-.263c.033-1.015.784-1.173.784-1.173.007.006.752.217.798 1.173h-.264c-.026-.666-.494-.89-.534-.89m.429.877h-.85c.02-.527.336-.725.415-.771.085.046.415.244.435.77m.165-2.642v-.362h.145v.184h.282v-.184h.152v.184h.283v-.184h.152v.362l-.06.06h-.896l-.06-.06m.884.778h-.751l.02-.62h.705zm-1.925-1.378-.066-.052v-.363h.145v.178h.29v-.184h.158v.184h.29v-.184h.158v.369l-.06.052zm.844 1.378-.784-.006.052-1.233.68.006zm-2.004-.778v-.356h.145v.178h.284v-.184h.151v.184h.29v-.184h.152v.362l-.066.06h-.896zm.883.778h-.751l.02-.62h.706zm-1.034.204.079-.092h3.368l.079.092-.08.092h-3.367zm.08.29.072-.092h3.223l.073.092-.073.099h-3.223zm.165.198h1.278l-.184.118c-.205.172-.449.488-.468 1.061l-.752-.006zm3.275 1.51h-3.513l-.085-.113.085-.112h3.513l.086.112z" style="stroke-width:.330729" transform="translate(345.14 -196.048)scale(3.0291)"/>
    </g>
    <g fill="#f8de35" style="stroke-width:.41341">
      <path d="M-77.638 94.407c.027-1.146.844-1.417.85-1.423 0 0 .877.296.87 1.43" style="stroke-width:.330729" transform="translate(345.14 -196.048)scale(3.0291)"/>
      <path d="m-78.336 93.004-.145 1.318.863.006c.006-1.094.824-1.272.844-1.272.012 0 .824.244.85 1.272h.863l-.158-1.331m-3.315 1.331h3.513l.138.165-.138.158h-3.513l-.138-.158z" style="stroke-width:.330729" transform="translate(345.14 -196.048)scale(3.0291)"/>
      <path d="M-77.255 94.322c0-.686.468-.883.468-.883s.487.204.487.883m-2.161-1.859h3.367l.132.145-.132.145h-3.367l-.132-.145zm.072.29h3.223l.125.145-.125.152h-3.223l-.125-.152zm1.041-2.195h.25v.185h.185v-.191h.264v.191h.185v-.191h.263v.422l-.112.105h-.916l-.119-.112m.119 1.483.896.006-.06-1.338-.777-.006m.93.099h.25v.185h.178v-.185h.257v.185l.185-.007v-.178h.25v.416l-.112.105h-.896l-.113-.105m.159.105-.027.725h.857l-.026-.725m-3.164-.514h.25v.178h.179v-.185h.257v.185h.184v-.185h.25v.415l-.105.112h-.902l-.113-.112m.159.112-.027.719h.857l-.027-.719" style="stroke-width:.330729" transform="translate(345.14 -196.048)scale(3.0291)"/>
    </g>
    <g fill="#211e1e" style="stroke-width:.41341">
      <path d="M-76.866 91.857h.178v-.317h-.178zm1.1.389h.171v-.244h-.17zm-2.208 0h.172v-.244h-.172z" style="stroke-width:.330729" transform="translate(345.14 -196.048)scale(3.0291)"/>
      <path d="m-75.021 94.276-.139-1.18.165-.198-.032-.112.118-.178-.184-.198h-.106l-.026-.626.158-.158v-.468h-.356v.185h-.08v-.185h-.362v.185h-.079v-.185h-.35v.468l.159.152-.026.633h-.126l-.052-1.279h.026l.165-.158v-.468l-.369-.006v.185h-.079v-.178l-.362-.006v.184h-.086v-.179h-.356v.462l.171.164h.006l-.052 1.279h-.132l-.02-.626.157-.158v-.468h-.355v.184h-.079v-.184h-.362v.184h-.08v-.178h-.349v.462l.158.158-.02.626h-.106l-.185.198.113.178-.033.112.165.197-.126 1.18h-.006l-.19.218.19.21h3.513l.185-.21zm-.099-.006h-.758c-.026-.514-.25-.83-.441-1.002l-.244-.171h1.305zm-1.66-.877-.192.113c-.145.125-.316.362-.33.77h-.263c.033-1.008.784-1.166.784-1.166.007.006.752.218.798 1.167h-.264c-.026-.66-.494-.884-.534-.884m.429.877h-.85c.02-.527.336-.725.415-.771.085.046.415.244.435.771m.165-2.643v-.362h.145v.184h.282v-.19l.152.005v.185h.283v-.191h.152v.369l-.06.052-.896.007-.06-.06m.884.778h-.751l.02-.62h.705zm-1.925-1.378-.066-.06v-.355h.145v.178h.29v-.185h.158v.185h.29v-.185h.158v.37l-.06.052zm.844 1.378-.784-.006.052-1.233h.68zm-2.004-.778v-.356h.145v.178h.284v-.184h.151v.184h.29v-.184h.152v.362l-.066.06h-.896zm.883.778h-.751l.02-.62h.706zm-1.034.204.079-.099h3.368l.079.1-.08.091h-3.367zm.08.29.072-.092h3.223l.073.092-.073.099h-3.223zm.165.198h1.278l-.184.118c-.205.172-.449.482-.468 1.055h-.752zm3.275 1.51h-3.513l-.085-.113.085-.112h3.513l.086.112z" style="stroke-width:.330729" transform="translate(345.14 -196.048)scale(3.0291)"/>
    </g>
    <g fill="#f8de35" style="stroke-width:.41341">
      <path d="M-96.5 94.407c.027-1.146.844-1.417.85-1.423 0 0 .877.296.87 1.43" style="stroke-width:.330729" transform="translate(345.14 -196.048)scale(3.0291)"/>
      <path d="m-97.198 93.004-.145 1.318.863.006c.006-1.094.824-1.272.837-1.272.02 0 .83.244.85 1.272h.863l-.151-1.331m-3.322 1.331h3.52l.138.165-.138.158h-3.52l-.131-.158z" style="stroke-width:.330729" transform="translate(345.14 -196.048)scale(3.0291)"/>
      <path d="M-96.124 94.322c.006-.686.474-.883.474-.883s.488.204.488.883m-2.162-1.859h3.368l.132.145-.132.145h-3.368l-.132-.145zm.066.29h3.23l.118.145-.118.152h-3.23l-.118-.152zm1.048-2.195h.25v.185h.185v-.191h.264v.191h.184v-.191h.264v.422l-.119.105h-.91l-.118-.112m.119 1.483.896.006-.06-1.338-.777-.006m.922.099h.251v.185h.185v-.185h.257v.185l.178-.007v-.178h.257v.416l-.112.105h-.896l-.12-.105m.159.105-.02.725h.856l-.033-.725m-3.156-.514h.25v.178h.179v-.185h.257v.185h.177v-.185h.257v.415l-.112.112h-.896l-.112-.112m.152.112-.02.719h.856l-.027-.719" style="stroke-width:.330729" transform="translate(345.14 -196.048)scale(3.0291)"/>
    </g>
    <g fill="#211e1e" style="stroke-width:.41341">
      <path d="M-95.729 91.857h.178v-.317h-.178zm1.101.389h.171v-.244h-.171zm-2.208 0h.171v-.244h-.171z" style="stroke-width:.330729" transform="translate(345.14 -196.048)scale(3.0291)"/>
      <path d="m-93.883 94.276-.139-1.18.165-.198-.033-.112.112-.178-.178-.198h-.112l-.02-.626.158-.158v-.468h-.356v.185h-.086v-.185h-.356v.185h-.079v-.185h-.35v.468l.152.152-.02.633h-.126l-.052-1.279h.02l.172-.158v-.468l-.37-.006v.185h-.079v-.178l-.369-.006v.184h-.079v-.179h-.356v.462l.172.164h.006l-.053 1.279h-.132l-.02-.626.158-.158v-.468h-.356v.184h-.079v-.184h-.363v.184h-.079v-.178h-.349v.462l.158.158-.026.626h-.1l-.184.198.112.178-.032.112.164.197-.125 1.18h-.012l-.185.218.185.21h3.52l.184-.21-.185-.218m-.105-.006h-.751c-.027-.514-.25-.83-.442-1.002l-.244-.171h1.299zm-1.654-.877-.191.113c-.152.125-.317.362-.336.77h-.258c.033-1.008.785-1.166.785-1.166.006.006.745.218.797 1.167h-.27c-.02-.66-.494-.884-.527-.884m.428.877h-.85c.02-.527.336-.725.415-.771.086.046.415.244.435.771m.158-2.643v-.362h.152v.184h.283v-.19l.152.005v.185h.283v-.191h.152v.369l-.06.052-.896.007zm.89.778h-.752l.02-.62h.706zm-1.925-1.378-.072-.06v-.355h.151v.178h.29v-.185h.158v.185h.29v-.185h.158v.37l-.066.052zm.837 1.378-.784-.006.06-1.233h.672zm-1.997-.778v-.356h.145v.178h.284v-.184h.152v.184h.283v-.184h.152v.362l-.06.06h-.896zm.877.778h-.745l.02-.62h.706zm-1.028.204.079-.099h3.368l.079.1-.08.091h-3.367zm.08.29.073-.092h3.222l.073.092-.073.099h-3.222zm.165.198h1.272l-.178.118c-.204.172-.455.482-.468 1.055h-.751zm3.275 1.51h-3.519l-.08-.113.08-.112h3.52l.085.112z" style="stroke-width:.330729" transform="translate(345.14 -196.048)scale(3.0291)"/>
    </g>
    <g fill="#f8de35" style="stroke-width:.41341">
      <path d="M-92.756 104.412c-.791-.83-.409-1.595-.409-1.602 0-.006.83-.415 1.628.39" style="stroke-width:.330729" transform="translate(345.14 -196.048)scale(3.0291)"/>
      <path d="m-94.246 103.918.83 1.028.613-.6c-.77-.778-.316-1.483-.303-1.496s.758-.415 1.496.297l.613-.613-1.048-.824m-1.403 3.282 2.484-2.485.211.02.02.212-2.49 2.484-.205-.02z" style="stroke-width:.330729" transform="translate(345.14 -196.048)scale(3.0291)"/>
      <path d="M-92.552 104.082c-.481-.487-.29-.955-.29-.955s.488-.205.969.277m-2.847.217 2.385-2.386.192.013.012.19-2.38 2.386-.197-.012zm.257.159 2.28-2.281.191.012.012.191-2.273 2.28-.191-.012-.021-.19m-.815-2.294.184-.178.125.125.132-.132-.132-.132.185-.178.132.132.131-.138-.131-.126.184-.19.297.302-.006.152-.646.646-.158.006m.223-.025.91.988.632-.626-.988-.91m.171-.039.178-.171.125.125.132-.126-.132-.131.185-.178.125.125.132-.125-.132-.132.185-.178.29.29v.158l-.633.632-.158.006" style="stroke-width:.330729" transform="translate(345.14 -196.048)scale(3.0291)"/>
      <path d="m-93.554 101.426.494.528.607-.607-.527-.494m-2.604 1.872.171-.178.132.132.125-.132-.131-.132.184-.178.132.132.125-.132-.132-.125.185-.185.29.297v.151l-.633.633-.158.006" style="stroke-width:.330729" transform="translate(345.14 -196.048)scale(3.0291)"/>
      <path d="m-95.11 102.982.495.527.606-.606-.527-.488" style="stroke-width:.330729" transform="translate(345.14 -196.048)scale(3.0291)"/>
    </g>
    <g fill="#211e1e" style="stroke-width:.41341">
      <path d="m-94.246 101.842.23.224.126-.125-.23-.231zm1.107-.455.172.171.125-.118-.178-.172zm-1.561 1.562.177.171.12-.118-.172-.172z" style="stroke-width:.330729" transform="translate(345.14 -196.048)scale(3.0291)"/>
      <path d="m-90.997 102.468-.936-.738-.026-.25-.099-.06-.046-.211-.27-.006-.08.072-.454-.421v-.225l-.33-.33-.257.251.132.132-.06.053-.124-.126-.257.25.131.133-.052.052-.132-.125-.25.25.33.323h.223l.429.462-.093.092-.942-.87.02-.012v-.23l-.329-.33-.257.257.132.132-.06.06-.131-.132-.257.257.132.125-.06.06-.125-.126-.257.25.33.33.237-.006.006-.006.863.942-.092.093-.455-.429v-.224l-.33-.33-.256.251.132.132-.053.06-.132-.132-.257.25.132.132-.052.06-.132-.133-.25.25.329.33h.217l.429.455-.073.073.012.27.211.052.053.1.257.02.745.929-.007.006.02.283.284.02 2.485-2.49-.02-.284-.277-.02m-.08.072-.533.534c-.383-.35-.765-.408-1.022-.402l-.297.053.923-.916zm-1.792.547-.06.218c-.02.191.033.481.31.784l-.185.178c-.692-.738-.27-1.377-.27-1.377.006 0 .686-.376 1.39.263l-.19.185c-.481-.448-.97-.277-.995-.25m.922.316-.606.606c-.356-.389-.277-.758-.25-.843.092-.027.467-.119.856.237m-1.76-1.984-.25-.25.099-.106.132.126.198-.198-.132-.132.112-.105.125.125.204-.198-.132-.132.112-.105.257.257v.079l-.633.64zm1.18-.073-.527.527-.429-.448.501-.501zm-2.34.389-.086.006-.25-.257.105-.106.126.125.204-.204-.132-.125.112-.112.132.132.204-.205-.132-.132.113-.112.257.257v.086zm1.575.375-.56.554-.837-.91.481-.48zm-1.97.87-.25-.257.098-.105.132.132.198-.205-.125-.132.105-.105.132.132.198-.204-.132-.132.112-.106.257.257-.006.086-.633.633zm1.18-.08-.534.534-.422-.454.501-.495zm-.593.877-.006-.125 2.379-2.38.125.013.012.119-2.385 2.386zm.264.152-.012-.119 2.28-2.28.112.02.02.113v.006l-2.28 2.273v.006l-.118-.02m.257.02.903-.903-.047.218c-.026.263.027.659.422 1.074l-.534.534zm3.38-1.252-2.484 2.491-.138-.026-.02-.132 2.484-2.485.138.013z" style="stroke-width:.330729" transform="translate(345.14 -196.048)scale(3.0291)"/>
    </g>
    <g fill="#f8de35" style="stroke-width:.41341">
      <path d="M-80.827 103.2c.83-.792 1.594-.41 1.601-.41s.415.831-.389 1.635" style="stroke-width:.330729" transform="translate(345.14 -196.048)scale(3.0291)"/>
      <path d="m-80.333 101.71-1.028.837.606.606c.771-.764 1.476-.316 1.49-.296.012.012.415.75-.297 1.496l.613.606.824-1.048" style="stroke-width:.330729" transform="translate(345.14 -196.048)scale(3.0291)"/>
      <path d="m-81.407 102.507 2.484 2.485-.02.21-.211.021-2.485-2.484.02-.211zm.909.897c.488-.482.956-.29.956-.284 0 0 .197.481-.277.969m-.218-2.854 2.386 2.386-.012.198-.198.006-2.379-2.38.012-.197zm-.158.264 2.28 2.274-.012.19-.19.021-2.281-2.28.012-.191zm2.294-.818.178.178-.125.132.132.125.125-.125.184.184-.131.125.131.132.132-.132.185.191-.29.29h-.158l-.646-.652-.012-.158m-.957 1.133.626.633.91-.982-.548-.554m.58.725.178.178-.125.125.125.126.132-.132.178.184-.125.132.125.126.132-.126.178.178-.297.297-.151-.006-.633-.633-.006-.158m-.496.678.607.606.494-.527-.573-.567m-1.298-2.036.178.178-.132.125.132.132.132-.132.178.178-.132.132.132.132.125-.132.185.178-.297.297-.158-.006-.633-.633v-.158" style="stroke-width:.330729" transform="translate(345.14 -196.048)scale(3.0291)"/>
      <path d="m-79.925 101.347.607.6.488-.527-.567-.567" style="stroke-width:.330729" transform="translate(345.14 -196.048)scale(3.0291)"/>
    </g>
    <g fill="#211e1e" style="stroke-width:.41341">
      <path d="m-78.257 101.716-.224.224.125.126.224-.224zm.455 1.101-.172.178.119.119.171-.171zm-1.562-1.555-.178.17.125.126.171-.178z" style="stroke-width:.330729" transform="translate(345.14 -196.048)scale(3.0291)"/>
      <path d="m-78.883 104.959.738-.936.25-.02.06-.1.204-.052.012-.263-.079-.08.429-.46h.224l.33-.33-.251-.257-.132.131-.052-.052.125-.132-.25-.257-.132.132-.053-.053.125-.125-.25-.25-.323.33v.217l-.461.428-.093-.085.87-.943.013.012.23.006.33-.33-.257-.256-.132.125-.06-.06.132-.124-.257-.264-.125.138-.06-.059.126-.132-.25-.257-.33.336.006.23.006.007-.942.863-.093-.092.429-.455h.217l.336-.33-.25-.25-.132.125-.06-.052.132-.132-.25-.257-.132.132-.06-.053.133-.125-.25-.25-.33.33v.217l-.455.428-.073-.073-.27.013-.053.204-.098.052-.02.258-.93.75-.006-.005-.284.012-.02.29 2.491 2.485.277-.027.026-.276m-.072-.08-.534-.533c.35-.383.408-.765.395-1.022l-.046-.29.916.916zm-.547-1.792-.218-.06c-.191-.012-.481.033-.784.317l-.178-.185c.738-.692 1.377-.27 1.377-.277 0 .006.376.686-.263 1.391l-.185-.185c.448-.48.277-.975.25-1.001m-.316.929-.606-.606c.389-.363.758-.277.837-.25.033.091.125.46-.23.856m1.983-1.76.25-.257.106.106-.125.125.198.197.131-.125.106.106-.125.132.197.204.132-.132.106.105-.257.257h-.086l-.633-.632zm.073 1.173-.534-.527.455-.422.5.494zm-.39-2.333-.005-.086.257-.257.105.106-.132.132.211.204.125-.132.112.112-.131.125.204.205.132-.126.112.112-.257.257-.086-.006zm-.375 1.569-.553-.554.91-.837.48.481zm-.87-1.964.257-.257.1.105-.126.125.204.204.132-.131.106.105-.132.132.204.204.132-.132.105.106-.263.257h-.08l-.632-.633zm.079 1.173-.534-.527.455-.422.494.495zm-.877-.586.125-.012 2.38 2.385-.013.12-.119.011-2.385-2.385zm-.152.264.12-.02 2.28 2.28-.021.118-.112.013h-.006l-2.28-2.28.02-.113m-.02.257.896.897-.211-.04c-.264-.033-.66.02-1.075.415l-.533-.534zm1.251 3.381-2.484-2.491.012-.138.139-.013 2.484 2.485-.02.132-.132.026" style="stroke-width:.330729" transform="translate(345.14 -196.048)scale(3.0291)"/>
    </g>
  </g>
  <g style="stroke-width:.330729" transform="scale(3.02363)">
    <g fill="none" stroke="#613a21" stroke-width=".564" style="stroke-width:.41341">
      <path fill="#ffca26" d="M288.587 264.395c5.579-14.54 17.218-15.653 23.943-23.723 2.633-3.162 9.06-1.81 13.575-2.784 4.301-.927 5.735.928 6.157 5.06 8.01-.337 7.842 3.12 7.082 6.493-.337-1.349-3.962-1.56-5.733-1.392 0 2.951-2.109 3.079-5.396 3.923-2.537.649-2.983 4.602-3.048 7.463 7.083.167 13.334-6.115 19.742-13.03 6.41-6.914 16.941-12.95 34.067-11.974 20.743 1.18 61.894 1.855 75.723-2.193 13.83-4.049 16.865 1.687 6.747 8.095 1.177 2.53-1.56 7.05-6.41 8.939 2.361 2.866-1.35 6.746-8.601 9.611.337 4.553-6.915 9.781-16.19 10.627 2.36 5.732-11.637 10.793-26.815 9.78 1.518 2.193-3.54 6.072-9.277 6.072 2.024 2.36-3.203 5.06-6.913 5.229 2.192 2.024-8.601 5.228-14.335 4.047.168 2.024-6.24 3.541-10.456 2.53-.507 1.854-5.06 2.528-7.758.673-.675 1.856-3.878 2.194-6.746.338-1.855 1.856-5.06 1.687-6.914-.506-1.181 2.024-4.048 2.698-6.073.168-1.686 2.194-4.046 1.52-5.901-.674-.337 2.024-6.295 5.398-9.668-6.747-.84 5.698-2.457 9.244-3.823 11.637 1.12 3.466 1.794 11.175 1.526 18.045 1.012 6.747 4.038 16.526 5.978 22.767 1.94 6.242-1.09 5.607-2.86 4.594.222.848.246 1.9-.008 3.248-.675-.901-2.398-2.263-3.917-2.263-.042.925-.4 1.875-1.228 2.768-1.6-2.024-3.203-4.47-5.06-4.47-1.854.423-5.395 2.194-6.407 5.146a5.9 5.9 0 0 1-.573-2.557c-1.348 1.096-5.434 1.266-6.362-.087-.006.62-.113 1.293-.316 2.052-.712-1.047-2.295-2.46-3.896-2.535a4.23 4.23 0 0 1-1.265 2.806c-1.508-2.093-3.365-3.951-5.22-4.037-1.871.34-5.49 1.947-6.635 4.849-.598-1.403-.832-3.576.112-5.24-1.074-.095-2.186-.752-1.816-2.08-3.205 5.566-7.421 4.385-9.108 1.684-3.373 3.711-10.272 1.497-7.252-3.201 12.142-18.89 13.66-24.96 17.033-34.911 1.319-3.957.506-10.12 2.362-16.02-4.218 7.419-9.446 8.6-10.626 6.914-1.348 1.687-5.901 3.372-7.083.673-1.348 1.014-4.384 1.014-5.564-.337-2.194 1.687-5.397 1.856-5.903.337-2.193 1.35-6.746 1.183-7.59-.337-3.372 2.868-10.793 1.351-10.456-2.866-7.884 3.692-15.01 1.687-14.671-2.192-4.722.505-7.421-1.857-7.083-4.049-5.06.337-8.096-2.865-7.253-6.24-10.792 1.013-37.607-2.192-35.752-10.626-7.59-1.347-18.888-6.913-15.177-11.298-4.891-1.35-10.457-5.396-9.95-9.275-6.916-1.52-8.265-7.252-6.072-8.433-6.578-2.193-7.582-10.485 3.88-7.59 16.02 4.049 59.026 3.374 82.299 2.025s23.104 4.89 43.51 19.225c9.214 6.476 16.982 4.965 21.424 5.849z" style="stroke-width:.186531" transform="translate(.546 .527)scale(.31567)"/>
      <path d="M314.804 344.895c.88.834 1.545 2.155 1.48 3.555" style="stroke-width:.149225" transform="translate(.546 .527)scale(.31567)"/>
      <path d="M320.208 347.465c-.664-2.534-3.126-3.014-5.404-2.57-1.602-.422-2.952-1.516-2.952-4.382 0-1.86 1.097-4.642 3.371-9.447 1.12-2.357 1.69-6.479 1.866-10.958m-14.07 29.231c.01-2.04 1.097-4.227 4.281-4.866 1.686-.335 2.36-.761 2.36-3.202 0-7.84-9.781-9.36-9.781-28.754m10.312-3.191c1.155-2.88 3.891-4.67 5.371-7.266m-26.975-37.667c1.56.31 2.71.892 3.368 2.249m-.909 78.264c.874.906 1.494 2.375 1.4 3.859" style="stroke-width:.149225" transform="translate(.546 .527)scale(.31567)"/>
      <path d="M296.655 349.252c.036-3.462-2.794-4.761-5.613-4.346-1.581-.49-2.541-.769-2.411-3.631.534-11.695 10.691-15.38 8.381-36.685m-17.575 42.554c.617-1.09 1.736-1.97 3.595-2.256 1.7-.26 2.39-.671 2.502-3.112.1-2.212-1.368-3.216-2.18-4.472-3.888-6.01-7.083-22.6-5.061-28.671m46.874-49.199c-.018.848.01 1.697.01 2.487 0 8.266-5.313 11.807-5.226 18.72.047 3.83-.159 7.053-.56 9.782m-28.955-20.745c-16.864-.675-31.032-4.721-39.128-16.19-8.097-11.467-21.925-11.803-35.414-10.456-13.493 1.35-27.322 1.01-39.125 0" style="stroke-width:.149225" transform="translate(.546 .527)scale(.31567)"/>
      <path d="M195.192 243.916c-1.014 2.866 2.317 8.223 27.614 5.523" style="stroke-width:.149225" transform="translate(.546 .527)scale(.31567)"/>
      <path d="M197.513 248.092c.675 5.732 13.659 9.782 30.357 6.241" style="stroke-width:.149225" transform="translate(.546 .527)scale(.31567)"/>
      <path d="M205.775 254.416c-5.06.17-1.686 5.483 4.216 6.154 5.902.675 16.359.841 22.09-.675" style="stroke-width:.149225" transform="translate(.546 .527)scale(.31567)"/>
      <path d="M209.991 260.571c-3.375 2.7-1.66 6.483 9.107 7.252 2.36.17 11.129.335 19.225-2.025" style="stroke-width:.149225" transform="translate(.546 .527)scale(.31567)"/>
      <path d="M220.322 267.906c-3.036 2.025.296 5.65 6.032 5.65 5.732 0 12.142-1.012 16.525-3.206" style="stroke-width:.149225" transform="translate(.546 .527)scale(.31567)"/>
      <path d="M226.35 273.558c-2.36 3.205 1.451 6.653 8.937 4.891 2.866-.675 9.613-3.371 11.638-5.06" style="stroke-width:.149225" transform="translate(.546 .527)scale(.31567)"/>
      <path d="M235.963 278.28c-3.205 2.025-1.1 6.754 5.06 3.877 2.531-1.18 5.902-3.202 8.263-5.566m-8.263 5.569c-.845 2.53 1.855 4.555 5.736 2.195 3.876-2.361 5.901-4.891 7.082-6.747" style="stroke-width:.149225" transform="translate(.546 .527)scale(.31567)"/>
      <path d="M246.755 284.351c-.505 2.191 2.025 5.736 10.793-4.216" style="stroke-width:.149225" transform="translate(.546 .527)scale(.31567)"/>
      <path d="M250.971 286.037c-.675 2.7 3.375 4.386 9.782-3.88" style="stroke-width:.149225" transform="translate(.546 .527)scale(.31567)"/>
      <path d="M255.527 287.387c1.686 2.7 4.216 2.53 10.118-3.877" style="stroke-width:.149225" transform="translate(.546 .527)scale(.31567)"/>
      <path d="M259.743 288.567c-.336 2.527 3.88 3.202 8.602-2.025" style="stroke-width:.149225" transform="translate(.546 .527)scale(.31567)"/>
      <path d="M265.013 289.412c-.336 2.53 4.848 1.35 8.389-3.036" style="stroke-width:.149225" transform="translate(.546 .527)scale(.31567)"/>
      <path d="M269.691 289.578c1.35 2.025 5.736 2.191 8.602-2.7" style="stroke-width:.149225" transform="translate(.546 .527)scale(.31567)"/>
      <path d="M277.452 288.062c-2.7 3.541 1.686 4.891 5.06 1.35" style="stroke-width:.149225" transform="translate(.546 .527)scale(.31567)"/>
      <path d="M280.653 292.617c5.902-4.555 3.205-14.334 7.591-14.334m-150.77-33.396c10.962 4.046 40.644 6.577 60.544 4.891m-54.473 3.545c12.479 3.541 42.077 4.595 60.292 4.09m-50.343 5.183c8.771 2.025 38.114 6.407 57.003 3.205m-41.825 8.093c7.421 1.855 37.27 4.26 53.293-1.137m-17.54 11.764c4.721-.17 16.402-2.992 22.64-6.703m-15.388 12.94c6.916-1.01 16.825-3.963 23.062-9.024m-15.976 13.074c4.891-.17 17.709-5.48 23.271-9.7m-8.602 11.891c4.891-2.021 11.132-6.154 15.684-10.2m-5.227 13.066c4.555-3.205 8.432-7.927 11.973-11.973m-4.385 12.313c3.541-2.021 6.198-5.945 9.064-9.991m-3.159 9.651c2.866-2.025 6.407-6.028 8.432-9.233m-2.869 9.573c2.7-2.191 5.736-5.902 7.587-9.782m-.502 9.107c2.36-2.021 4.595-4.765 6.62-9.316m-8.139 56.537c3.541-6.071 7.757-13.32 10.793-20.24m-1.686 18.554c2.025-3.036 3.415-6.62 4.934-9.316m12.775 9.146c-.087-3.624-.762-15.178-.505-20.827m8.684 21.921c.087-4.3-1.772-13.828-1.686-20.74m15.179 19.563c-.505-2.112-2.108-9.024-2.444-12.143m10.623-66.023c17.54-.34 22.26-28.336 50.932-27.66 28.667.674 46.21 2.7 59.7 1.35" style="stroke-width:.149225" transform="translate(.546 .527)scale(.31567)"/>
      <path d="M381.672 245.732c17.879 1.35 25.296-1.35 25.127-5.566" style="stroke-width:.149225" transform="translate(.546 .527)scale(.31567)"/>
      <path d="M378.471 251.128c11.298 1.516 22.553 2.53 22.134-5.902" style="stroke-width:.149225" transform="translate(.546 .527)scale(.31567)"/>
      <path d="M373.41 256.694c9.107 1.855 22.936 4.216 22.6-5.227" style="stroke-width:.149225" transform="translate(.546 .527)scale(.31567)"/>
      <path d="M366.664 262.09c12.984 3.71 25.466 5.057 24.621-4.216" style="stroke-width:.149225" transform="translate(.546 .527)scale(.31567)"/>
      <path d="M361.603 268.162c11.298 4.386 23.61 4.848 22.26-3.249" style="stroke-width:.149225" transform="translate(.546 .527)scale(.31567)"/>
      <path d="M356.206 271.703c10.118 6.577 18.68 5.692 18.68-.379" style="stroke-width:.149225" transform="translate(.546 .527)scale(.31567)"/>
      <path d="M351.485 274.908c8.768 6.241 15.009 6.746 15.854 1.18" style="stroke-width:.149225" transform="translate(.546 .527)scale(.31567)"/>
      <path d="M348.449 277.099c5.736 6.407 10.793 6.241 11.973 2.53" style="stroke-width:.149225" transform="translate(.546 .527)scale(.31567)"/>
      <path d="M344.403 277.605c3.71 5.902 9.612 8.096 10.118 4.216" style="stroke-width:.149225" transform="translate(.546 .527)scale(.31567)"/>
      <path d="M341.284 279.124c3.71 5.902 9.107 8.262 9.612 4.386" style="stroke-width:.149225" transform="translate(.546 .527)scale(.31567)"/>
      <path d="M337.87 280.467c3.332 6.126 8.317 8.23 9.064 4.393" style="stroke-width:.149225" transform="translate(.546 .527)scale(.31567)"/>
      <path d="M334.072 281.142c2.317 6.837 7.295 8.775 8.389 4.812" style="stroke-width:.149225" transform="translate(.546 .527)scale(.31567)"/>
      <path d="M330.037 280.445c1.029 7.147 5.562 9.963 7.367 6.27" style="stroke-width:.149225" transform="translate(.546 .527)scale(.31567)"/>
      <path d="M326.918 281.878c1.029 7.143 4.415 8.797 6.523 5.844" style="stroke-width:.149225" transform="translate(.546 .527)scale(.31567)"/>
      <path d="M322.785 282.301c1.029 7.143 4.415 8.797 6.523 5.844" style="stroke-width:.149225" transform="translate(.546 .527)scale(.31567)"/>
      <path d="M324.503 287.639c-1.014 1.433-2.7 2.7-4.808.505m141.75-47.809c-9.11 6.241-48.74 7.757-61.053 7.252m54.642 1.686c-12.478 5.566-37.609 7.421-60.378 6.41m51.78 3.202c-9.612 4.552-44.185 4.891-56.498 3.88m40.306 6.747c-10.457 1.855-33.728 1.18-47.56-.17m20.744 9.948c-8.096-.17-21.29-2.317-29.891-4.512m20.614 10.584c-5.227.675-20.658-2.7-28.415-6.241m21.502 11.471c-4.555.845-19.9-1.855-27.996-9.107m13.663 13.153c-6.746-.675-15.388-5.65-20.11-10.88m9.653 13.411c-5.902-1.18-10.623-6.577-14.503-11.973m6.745 12.648c-3.036-2.191-8.685-7-11.468-11.468m4.722 11.804c-3.88-1.938-7-6.324-8.519-10.287m1.607 9.781c-2.195-2.53-4.386-5.65-5.736-9.36m-.339 9.53c-1.769-2.278-3.119-4.3-4.891-9.024" style="stroke-width:.149225" transform="translate(.546 .527)scale(.31567)"/>
      <path d="M329.055 297.169c-1.855-2.025-3.079-4.425-4.934-9.064m9.489-40.056c-1.855.126-3.667.043-4.512.379m3.162-5.479c.126 1.01-.801.884-.928 1.729m-12.326-1.906c2.177-.635 4.274 1.022 6.31.495.902-.235 2.418-.372 3.866.4" style="stroke-width:.149225" transform="translate(.546 .527)scale(.31567)"/>
      <path d="M321.955 242.952c-.202 1.054.693 2.104 1.982 2.173 1.133.058 2.317-.686 2.234-1.95" style="stroke-width:.149225" transform="translate(.546 .527)scale(.31567)"/>
    </g>
    <path fill="#613a21" d="m95.252 35.262-.143.44-.994 3.062-3.69-.006 2.987 2.17-1.135 3.5 2.979-2.16 2.972 2.16-1.135-3.492 2.985-2.164-3.688-.006z" color="#000" style="stroke-width:.41341;paint-order:stroke markers fill"/>
    <path id="a" fill="#ffca26" stroke="#613a21" stroke-width=".05" d="m95.252 35.747-1.028 3.167-3.336-.005 2.7 1.962-1.027 3.165 2.694-1.953 2.687 1.953-1.024-3.158 2.698-1.956-3.335-.005z" style="paint-order:fill markers stroke"/>
    <g fill="#ffca26" stroke="#613a21" stroke-width=".316" transform="translate(114.42 -64.802)">
      <use xlink:href="#a" width="100%" height="100%" style="stroke-width:.315877;paint-order:stroke markers fill" transform="rotate(-55 100.28 239.187)"/>
      <use xlink:href="#a" width="100%" height="100%" style="stroke-width:.315877;paint-order:stroke markers fill" transform="rotate(-41.25 124.125 281.291)"/>
      <use xlink:href="#a" width="100%" height="100%" style="stroke-width:.315877;paint-order:stroke markers fill" transform="rotate(-27.5 170.45 363.086)"/>
      <use xlink:href="#a" width="100%" height="100%" style="stroke-width:.315877;paint-order:stroke markers fill" transform="rotate(-13.75 306.77 603.78)"/>
      <use xlink:href="#a" width="100%" height="100%" style="stroke-width:.315877;paint-order:stroke markers fill" transform="rotate(13.75 -230.695 -345.204)"/>
      <use xlink:href="#a" width="100%" height="100%" style="stroke-width:.315877;paint-order:stroke markers fill" transform="rotate(27.5 -94.375 -104.51)"/>
      <use xlink:href="#a" width="100%" height="100%" style="stroke-width:.315877;paint-order:stroke markers fill" transform="rotate(41.25 -48.05 -22.715)"/>
      <use xlink:href="#a" width="100%" height="100%" style="stroke-width:.315877;paint-order:stroke markers fill" transform="rotate(55 -24.205 19.39)"/>
    </g>
  </g>
</svg>
