<svg id="flag-icons-ru-ast" class="fi fi-ru-ast" viewBox="0 0 640 480" xmlns="http://www.w3.org/2000/svg" width="640" height="480" fill-rule="evenodd" clip-rule="evenodd" image-rendering="optimizeQuality" shape-rendering="geometricPrecision" text-rendering="geometricPrecision" version="1.0">
  <metadata id="flag-icons">
    <name>Astrakhan Oblast</name>
    <code>ru-ast</code>
    <iso>true</iso>
    <type>Place</type>
    <capital>Astrakhan</capital>
    <continent>Europe</continent>
  </metadata>
  <defs id="defs134">
    <style id="style132" type="text/css">
      .fil3{fill:none}.fil1{fill:#0a0b0c}.fil5{fill:#fff500}.fil0{fill:#1d82b3}.fil6{fill:#000}.fil7{fill:#fff}.fil14{fill:#004f81}.fil4{fill:#00a13a}.fil8{fill:#da251d}.fil2{fill:#eb8a1b}.fil12{fill:#f9d000}
    </style>
  </defs>
  <g id="g2830" style="stroke-width:.999988">
    <path id="rect136" d="M0 0h640v480H0Z" class="fil0" style="stroke-width:.999985"/>
    <g id="g823" style="stroke-width:.309643" transform="translate(-28.895 .002)scale(3.2295)">
      <path id="polygon138" fill="#0a0b0c" d="m131.76 86.113.04-.043.05-.05.06-.089.05-.092.04-.093.03-.089.02-.086.02-.081v-.267l-.01-.037v-.184l.01-.084v-1.276l.52-.061.09-.035.08-.05.07-.062.06-.067.04-.072.05-.077.07-.168.17-.129.06-.077.05-.081.04-.088.03-.093.04-.102.05-.231.06-.227.05-.214.05-.201.04-.19.03-.181.02-.172.01-.167v-.162l-.01-.161-.03-.163-.03-.168-.06-.175-.07-.184-.09-.196-.1-.199-1.23-1.818v-.569l.37-.046.15-.034.14-.049.13-.064.13-.079.11-.088.1-.097.09-.108.08-.115.06-.125.05-.129.06-.223.06-.2.03-.161.02-.123.01-.087v-.053l-.01-.01-.04-.039-.06-.06-.07-.079-.08-.1-.05-.096-.1-.134-.1-.117-.11-.107-.11-.097-.12-.088-.13-.078-.13-.07-1.08-.499 1.29-.278.27-.066.28-.073.28-.082.28-.089.29-.098.24-.094.25-.117.26-.137.26-.154.27-.171.27-.183.27-.196.27-.206.27-.214.27-.219.27-.224.26-.226.24-.226.25-.224.23-.221.22-.215.05-.06.06-.059.06-.062.07-.062.06-.067.15-.154.28.059.11.012.12.001.11-.008.12-.018.13-.032.14-.043.14-.053.13-.063.14-.073.13-.081.13-.09.13-.097.13-.106.13-.113.12-.121.12-.127.12-.134.12-.14.11-.146.11-.153.14-.23.14-.232.11-.233.1-.231.09-.231.06-.226.05-.223.04-.216.01-.211v-.203l-.02-.195-.05-.185-.06-.175-.09-.161-.15-.174.12-.28.03-.078.03-.077.03-.079.03-.09.41-1.67.04-.203.04-.204.05-.209.05-.213.04-.216.06-.218.05-.221.05-.222.06-.223.06-.223.06-.223.06-.221.07-.22.07-.218.07-.214.07-.211.07-.176.09-.208.09-.236.11-.257.12-.274.13-.285.13-.292.13-.294.13-.292.13-.284.14-.303.21-.453.09-.205.18-.382.02-.046.32-.689.08-.159-.33-.124-.08-.028-.09-.029-.1-.028-.11-.028-.13-.025-.13-.021-.68-.071.41-.674.13-.277.11-.292.08-.304.05-.315.01-.324-.01-.323-.05-.315-.08-.305-.11-.291-.13-.278-.16-.261-.18-.245-.21-.225-.22-.205-.25-.182-.26-.16-.28-.133-.2-.073-.63-.233.48-.436.18-.208.17-.226.15-.242.12-.257.1-.27.08-.281.04-.291.02-.299-.02-.3-.04-.291-.08-.281-.09-.27-.13-.257-.15-.241-.17-.226-.18-.209-.21-.189-.23-.169-.24-.148-.26-.123-.27-.099-.28-.072-.64-.099.55-.735.13-.225.12-.238.09-.251.07-.261.04-.271.01-.278-.01-.278-.04-.27-.07-.262-.09-.25-.12-.238-.13-.225-.16-.21-.18-.194-.19-.176-.21-.157-.22-.136-.24-.116-.25-.091-.27-.068-.26-.041-.28-.014-.8.04.41-.672.11-.218.08-.229.06-.238.04-.247.01-.254-.01-.254-.04-.246-.06-.239-.08-.229-.11-.217-.12-.205-.15-.191-.16-.177-.17-.161-.19-.143-.21-.124-.22-.106-.23-.083-.23-.062-.25-.038-.26-.013-.25.013-.25.038-.74.192.19-.704.03-.241.02-.248-.02-.248-.03-.241-.06-.232-.09-.223-.1-.212-.12-.201-.14-.187-.16-.172-.17-.157-.19-.14-.2-.121-.21-.103-.22-.081-.23-.06-.24-.037-.25-.013-.25.013-.24.037-.23.06-.6.218-.03-.602-.03-.214-.05-.206-.08-.199-.09-.189-.11-.178-.12-.166-.14-.153-.15-.14-.17-.124-.18-.108-.18-.091-.2-.073-.21-.054-.21-.032-.22-.012-.22.012-.22.032-.2.054-.2.073-.64.309-.11-.728-.05-.207-.08-.198-.09-.189-.11-.178-.12-.166-.14-.153-.15-.14-.17-.124-.18-.108-.18-.092-.2-.072-.21-.054-.21-.032-.22-.012-.22.012-.22.032-.2.054-.2.072-.19.092-.64.388-.14-.555-.07-.177-.08-.168-.1-.158-.11-.148-.12-.136-.14-.124-.15-.111-.15-.096-.17-.081-.18-.064-.18-.048-.19-.029-.2-.01-.19.01-.2.029-.18.048-.18.064-.16.081-.16.097-.44.324-.21-.582-.08-.161-.09-.15-.1-.141-.12-.131-.13-.118-.14-.105-.15-.092-.16-.078-.17-.061-.18-.046-.18-.027-.19-.01-.18.01-.18.027-.18.046-.17.061-.16.078-.48.294-.3-.487-.1-.141-.12-.13-.13-.119-.14-.105-.15-.092-.16-.077-.17-.062-.18-.045-.18-.028-.19-.01-.26.019-.26.057-.63.24-.01-.701-.01-.16-.01-.158-.02-.157-.07-.492h.01l-.1-.298v-.018l-.11-.339-.13-.313-.14-.302-.16-.292-.18-.28-.2-.268-.21-.255-.23-.241-.24-.225-.26-.211-.27-.194-.28-.178-.29-.16-.45-.21-.06-.205-.03-.136-.04-.162-.05-.182-.05-.197-.06-.206-.05-.212-.22-.837.89.236.31.081.32.082.3.081.29.076.27.07.23.062.19.05.14.036.4.106v-4.002l-.41.116-.13.039-.19.053-.24.066-.26.074-.29.082-.31.085-.31.088-.31.086-.9.254.16-.685.06-.26.06-.262.06-.258.05-.245.05-.226.06-.234.05-.246.09-.388h-4.05l.1.388.05.246.05.234.06.226.05.245.06.258.06.262.06.26.16.685-.9-.254-.31-.086-.31-.088-.31-.085-.29-.082-.27-.074-.23-.066-.19-.053-.14-.039-.4-.116v4.002l.4-.106.14-.036.19-.05.23-.062.27-.07.29-.076.3-.081.32-.082.3-.081.9-.236-.22.837-.05.212-.06.206-.05.197-.05.182-.04.162-.03.136-.06.205-.45.21-.29.16-.29.178-.26.194-.26.211-.24.225-.23.241-.21.255-.2.268-.18.28-.16.292-.14.302-.13.313-.11.339-.01.018-.09.298h.01l-.07.492-.02.157-.01.158-.01.16-.01.701-.63-.24-.26-.057-.26-.019-.19.01-.18.028-.18.045-.17.062-.16.077-.15.092-.14.105-.13.119-.12.13-.1.141-.3.487-.482-.294-.161-.078-.168-.061-.176-.046-.182-.027-.187-.01-.186.01-.182.027-.176.046-.168.061-.161.078-.151.092-.14.105-.131.118-.118.131-.106.141-.091.15-.078.161-.213.582-.433-.324-.158-.097-.169-.081-.176-.064-.184-.048-.191-.029-.196-.01-.195.01-.191.029-.184.048-.176.064-.168.081-.159.096-.147.111-.137.124-.124.136-.11.148-.097.158-.081.168-.064.177-.145.555-.639-.388-.189-.092-.198-.072-.207-.054-.214-.032-.22-.012-.22.012-.214.032-.206.054-.199.072-.188.092-.178.108-.165.124-.154.14-.139.153-.124.166-.108.178-.091.189-.072.198-.054.207-.111.728-.638-.309-.198-.073-.207-.054-.214-.032-.22-.012-.22.012-.214.032-.206.054-.199.073-.188.091-.178.108-.166.124-.153.14-.139.153-.124.166-.108.178-.091.189-.073.199-.053.206-.033.214-.031.602-.595-.218-.232-.06-.241-.037-.247-.013-.248.013-.241.037-.232.06-.223.081-.212.103-.201.121-.186.14-.173.157-.156.172-.14.187-.122.201-.102.212-.082.223-.06.232-.037.241-.013.248.013.248.037.241.181.704-.739-.192-.247-.038-.254-.013-.254.013-.247.038-.238.062-.229.083-.217.106-.205.124-.192.143-.177.161-.16.177-.143.191-.125.205-.105.217-.084.229-.061.239-.038.246-.013.254.013.254.038.247.061.238.084.229.105.218.409.672-.794-.04-.277.014-.271.041-.261.068-.251.091-.238.116-.225.136-.21.157-.194.176-.176.194-.157.21-.137.225-.115.238-.091.25-.068.262-.041.27-.015.278.015.278.041.271.068.261.091.251.115.238.137.225.551.735-.646.099-.281.072-.27.099-.256.123-.242.148-.226.169-.209.189-.189.209-.169.226-.147.241-.124.257-.099.27-.073.281-.044.291-.016.3.016.299.044.291.073.281.099.27.124.257.147.242.169.226.189.208.48.436-.638.233-.198.073-.277.133-.262.16-.244.182-.225.205-.205.225-.183.245-.16.261-.133.278-.107.291-.079.305-.048.315-.017.323.017.324.048.315.079.304.107.292.133.277.41.674-.679.071-.134.021-.125.025-.114.028-.103.028-.092.029-.079.028-.326.124.077.159.321.689.022.046h.001l.178.382.095.205.208.453.139.303.129.284.132.292.132.294.13.292.126.285.118.274.11.257.098.236.083.208.067.176.075.211.072.214.069.218.066.22.064.221.061.223.059.223.056.223.054.222.053.221.05.218.048.216.047.213.045.209.044.204.043.203.405 1.67.032.09.03.079.03.077.031.078.117.28-.143.174-.091.161-.067.175-.043.185-.022.195-.003.203.016.211.033.216.05.223.068.226.083.231.1.231.116.233.131.232.147.23.108.153.112.146.115.14.118.134.122.127.124.121.127.113.129.106.131.097.132.09.133.081.135.073.136.063.136.053.136.043.136.032.118.018.115.008.113-.001.11-.012.28-.059.154.154.064.067.061.062.06.062.059.059.06.06.217.215.231.221.241.224.25.226.258.226.264.224.269.219.27.214.273.206.272.196.27.183.267.171.263.154.256.137.251.117.239.094.292.098.284.089.279.082.275.073.271.066 1.294.278-1.081.499-.131.07-.127.078-.122.088-.116.097-.108.107-.099.117-.094.134-.059.096-.074.1-.071.079-.06.06-.042.039-.009.01-.001.002.002.051.009.087.021.123.035.161.05.2.06.223.051.129.065.125.078.115.089.108.101.097.112.088.127.079.135.064.141.049.145.034.369.046.002.363.002.206-1.23 1.818-.106.199-.089.196-.07.184-.053.175-.037.168-.024.163-.011.161v.162l.011.167.021.172.03.181.038.19.046.201.052.214.057.227.058.231.03.102.035.093.042.088.05.081.063.077.165.129.075.168.041.077.047.072.056.067.066.062.08.05.093.035.518.061v.348l.002.163.001.155.001.145.001.134.001.123.001.11.001.098.001.084.001.07v.114l-.004.037-.002.026-.002.027-.001.034-.001.039.002.067.007.074.012.081.02.086.029.089.04.093.052.092.064.089.046.05.045.043.047.039.05.037.052.032.051.03.053.027.167.079.101.221.132.206.355.393.407.378.448.353.485.329.521.306.554.283.585.26.611.238.637.218.657.198.676.179.692.16.705.143.714.127.721.112.725.097.727.084.724.072.72.061.713.05.702.041.687.034.68.026.65.021.63.016.61.011.58.01.55.007.52.007.48.008.45.009.4.012.99.025 1 .015 1.01.006.04-.001.04.001 1.01-.006 1-.015.98-.025.41-.012.44-.009.49-.008.52-.007.55-.007.58-.01.61-.011.63-.016.65-.021.68-.026.68-.034.71-.041.71-.05.72-.061.72-.072.73-.084.73-.097.72-.112.71-.127.71-.143.69-.16.67-.179.66-.198.64-.218.61-.238.58-.26.56-.283.52-.306.49-.329.44-.353.41-.378.35-.393.14-.206.1-.221.16-.079.06-.027.05-.03.05-.032.05-.037z" class="fil1" style="stroke-width:.309643"/>
      <path id="path140" fill="#eb8a1b" d="M138.48 51.81a3.12 3.12 0 0 1 1.892-2.864 2.88 2.88 0 0 1-2.848-2.876 2.87 2.87 0 0 1 1.598-2.564l-.019-.045a2.7 2.7 0 0 1-.466.047 2.674 2.674 0 0 1-2.67-2.67c0-.718.288-1.368.75-1.849l-.197-.31a2.4 2.4 0 0 1-.454.046 2.434 2.434 0 0 1-2.432-2.431c0-.37.09-.716.237-1.03l-.043-.045c-.068-.068-.147-.14-.22-.21-.3.137-.63.218-.979.218a2.372 2.372 0 0 1-2.32-2.85l-.207-.146a2.1 2.1 0 0 1-.964.246c-1.158 0-2.1-.944-2.1-2.103 0-.043.01-.083.013-.126l-.33-.196a2.08 2.08 0 0 1-1.284.452c-1.158 0-2.1-.944-2.1-2.103 0-.04.01-.078.012-.117l-.198-.112c-.34.365-.822.597-1.359.597a1.865 1.865 0 0 1-1.863-1.863c0-.072.013-.141.021-.212l-.047-.017a1.77 1.77 0 0 1-1.519.868 1.77 1.77 0 0 1-1.748-1.503 1.77 1.77 0 0 1-1.423.723 1.77 1.77 0 0 1-1.752-1.549 5.21 5.21 0 0 1-4.68 2.93h-.011a5.22 5.22 0 0 1-4.557-2.704 1.77 1.77 0 0 1-1.71 1.323 1.77 1.77 0 0 1-1.423-.723 1.77 1.77 0 0 1-1.748 1.503c-.666 0-1.24-.372-1.544-.916l-.028.01c.013.088.027.175.027.267a1.866 1.866 0 0 1-1.863 1.863 1.85 1.85 0 0 1-1.408-.656l-.157.087c.006.067.02.132.02.2 0 1.16-.943 2.104-2.102 2.104a2.1 2.1 0 0 1-1.35-.504l-.276.163c.007.07.022.139.022.21 0 1.16-.944 2.104-2.103 2.104a2.1 2.1 0 0 1-1.048-.29l-.152.107c.044.18.074.367.074.561a2.374 2.374 0 0 1-2.372 2.372c-.386 0-.745-.101-1.068-.266-.075.072-.154.144-.224.214a2.4 2.4 0 0 1 .285 1.118 2.434 2.434 0 0 1-2.43 2.432c-.2 0-.39-.03-.575-.076l-.164.257c.513.487.837 1.17.837 1.932a2.673 2.673 0 0 1-2.67 2.67c-.205 0-.402-.028-.594-.072l-.004.009a2.88 2.88 0 0 1 1.711 2.625 2.88 2.88 0 0 1-2.848 2.876 3.12 3.12 0 0 1 1.892 2.864 3.11 3.11 0 0 1-2.15 2.948c.328-.081.684-.123 1.026-.063 1.028.182 1.89.8 1.926.825l.125.09-.132.08c-.015.009-1.48.893-1.94 1.64-.55.893-.939 2.06-.493 2.505.25.25.586.415.923.454.349.04.66-.057.877-.274.49-.49 1.376-2.431 1.385-2.451l.06-.131.103.1c.034.033.715.7 1.027 1.262a25 25 0 0 1-.243-3.431c0-2.983.065-6.093.54-8.629.365-1.953 1.441-5.361 2.46-7.322 1.043-2.006 4.256-5.274 6.221-6.644 6.11-4.257 11.664-5.858 11.72-5.874l.016.057.06.13c-.057.032-5.7 3.15-7.197 4.647-3.475 3.475-5.79 6.631-6.883 9.382-1.195 3.01-1.785 6.403-1.785 10.306q0 1.604.133 3.326c.175 2.275 1.325 6.9 1.957 9.318.312-.126.634-.219.931-.219.896 0 1.983.429 2.24.536l.025-.01c.06-.114.201-.362.447-.632a2.8 2.8 0 0 1-.946.175 2.82 2.82 0 0 1-2.815-2.815 2.813 2.813 0 0 1 5.143-1.58c-.261-1.999-.532-4.207-.593-5.207-.197-3.235-.036-7.372.36-9.22.398-1.852 2.279-6.733 4.46-9.46 1.572-1.964 4.936-5.074 6.624-6.597-.22.138-.479.222-.758.222a1.433 1.433 0 0 1-1.431-1.43c0-.79.642-1.432 1.43-1.432.79 0 1.432.642 1.432 1.431 0 .34-.124.647-.322.892.398-.356.65-.577.66-.587l.27-.237-.105.343c-.02.063-1.932 6.292-2.286 7.708l-.258.97c-.349 1.277-.783 2.867-.995 4.98-.246 2.473-.45 5.193-.268 8.324.018.316.038.614.058.903.492-.207 1.05-.37 1.589-.37l2.261.086c.071-.2.436-1.207.974-1.972.581-.827 1.604-1.853 1.614-1.863l.072-.072.072.072c.01.01 1.033 1.036 1.614 1.863.538.765.904 1.771.974 1.972l2.262-.087c.547 0 1.113.168 1.61.38l.06-.912c.182-3.131-.022-5.851-.27-8.325-.21-2.112-.645-3.702-.994-4.978l-.259-.971c-.353-1.416-2.265-7.645-2.285-7.708l-.105-.343.27.237c.054.048 5.502 4.835 7.635 7.502 2.181 2.726 4.062 7.607 4.46 9.459.396 1.848.557 5.985.36 9.22-.066 1.083-.377 3.584-.657 5.701a2.82 2.82 0 0 1 2.595-1.728 2.82 2.82 0 0 1 2.815 2.814 2.82 2.82 0 0 1-2.815 2.815c-.497 0-.958-.14-1.364-.369.356.33.556.667.634.815l.042.016c.272-.112 1.343-.53 2.228-.53.304 0 .634.097.952.227.631-2.417 1.784-7.05 1.959-9.326q.132-1.724.133-3.327c0-3.902-.59-7.296-1.785-10.306-1.093-2.751-3.41-5.908-6.883-9.382-1.384-1.384-6.303-4.149-7.084-4.584.11.203.179.432.179.678 0 .789-.642 1.43-1.431 1.43a1.433 1.433 0 0 1-1.431-1.43 1.429 1.429 0 0 1 2.605-.815l.026-.056.016-.057c.055.016 5.61 1.617 11.719 5.874 1.965 1.37 5.179 4.639 6.22 6.644 1.02 1.961 2.096 5.37 2.462 7.322.474 2.536.54 5.646.54 8.629a25 25 0 0 1-.238 3.383c.323-.552.965-1.182.999-1.214l.104-.1.06.13c.008.02.895 1.963 1.384 2.452.484.485 1.322.298 1.799-.18.446-.445.057-1.61-.493-2.505-.46-.747-1.924-1.631-1.939-1.64l-.132-.08.125-.09c.036-.026.898-.643 1.925-.825.691-.122 1.436.162 1.881.378l.004-.173c-1.59-.14-2.847-1.463-2.847-3.09m-48.083-3.748c1.352 0 2.451 1.1 2.451 2.451 0 1.352-1.1 2.451-2.451 2.451a2.454 2.454 0 0 1-2.451-2.45c0-1.352 1.1-2.452 2.451-2.452m.224 10.199a2.594 2.594 0 0 1-2.59-2.59 2.594 2.594 0 0 1 2.59-2.591 2.594 2.594 0 0 1 2.59 2.59 2.594 2.594 0 0 1-2.59 2.59m.27-10.234a2.315 2.315 0 0 1-2.313-2.312 2.315 2.315 0 0 1 2.312-2.312 2.315 2.315 0 0 1 2.312 2.312 2.315 2.315 0 0 1-2.312 2.312m1.255-4.534a2.175 2.175 0 0 1-2.173-2.173c0-1.198.975-2.173 2.173-2.173s2.173.975 2.173 2.173a2.175 2.175 0 0 1-2.173 2.173m2.018-3.818a1.99 1.99 0 0 1-1.988-1.987 1.99 1.99 0 0 1 1.988-1.987 1.99 1.99 0 0 1 1.987 1.987 1.99 1.99 0 0 1-1.987 1.987m4.798-6.063c-.43 0-.82-.165-1.12-.429.28.318.456.73.456 1.187 0 .993-.809 1.802-1.802 1.802a1.804 1.804 0 0 1-1.803-1.802c0-.994.809-1.802 1.803-1.802.456 0 .868.176 1.186.456a1.7 1.7 0 0 1-.43-1.12c0-.943.767-1.71 1.71-1.71.942 0 1.71.767 1.71 1.71 0 .942-.768 1.708-1.71 1.708m4.124-3.861a1.524 1.524 0 0 1-3.047 0c0-.84.684-1.524 1.524-1.524s1.523.684 1.523 1.524m8.367 15.909h-5.704v-6.9h5.704zm.137-15.39h.102v6.9h-5.704v-6.9zm15.552 27.99a2.594 2.594 0 0 1-2.59-2.59 2.594 2.594 0 0 1 2.59-2.59 2.594 2.594 0 0 1 2.591 2.59 2.594 2.594 0 0 1-2.59 2.59m.225-5.296a2.453 2.453 0 0 1-2.451-2.45c0-1.351 1.1-2.452 2.45-2.452 1.352 0 2.452 1.1 2.452 2.451 0 1.352-1.1 2.451-2.451 2.451m1.82-7.249a2.315 2.315 0 0 1-2.314 2.312 2.315 2.315 0 0 1-2.312-2.312 2.315 2.315 0 0 1 2.312-2.312 2.315 2.315 0 0 1 2.313 2.312m-1.396-4.394a2.176 2.176 0 0 1-2.173 2.172 2.175 2.175 0 0 1-2.173-2.172c0-1.198.975-2.173 2.173-2.173s2.173.975 2.173 2.173m-2.203-3.632a1.99 1.99 0 0 1-1.987 1.987 1.99 1.99 0 0 1-1.988-1.988A1.99 1.99 0 0 1 123.6 35.7a1.99 1.99 0 0 1 1.987 1.988m-5.076-5.785c0 .43-.165.82-.43 1.12a1.8 1.8 0 0 1 1.187-.456c.993 0 1.802.809 1.802 1.802 0 .994-.809 1.802-1.802 1.802a1.804 1.804 0 0 1-1.802-1.802c0-.456.176-.869.456-1.187-.3.264-.69.43-1.12.43-.943 0-1.71-.767-1.71-1.71a1.71 1.71 0 0 1 3.419.001m-4.31-3.676a1.524 1.524 0 0 1 0 3.047c-.84 0-1.524-.684-1.524-1.524s.684-1.523 1.524-1.523" class="fil2" style="stroke-width:.309643"/>
      <path id="path142" d="M101.64 38.675c.6-2.659 2.762-7.57 3.454-9.108l-3.148 3.148c-1.447 1.448-4.532 5.186-5.85 8.975a23.6 23.6 0 0 0-.989 4.002 43 43 0 0 1 5.664-1.44c.206-1.885.505-3.962.869-5.577" class="fil0" style="stroke-width:.309643"/>
      <path id="path144" fill="none" d="M88.462 41.037c1.103-2.777 3.434-5.957 6.928-9.451 1.036-1.036 3.896-2.761 5.7-3.804-2.558 1.14-7.618 3.623-11.375 6.912-3.31 2.896-6.616 8.526-6.616 16.013 0 .447.017.902.04 1.36a37 37 0 0 1 3.576-2.507c.162-3.16.737-5.98 1.747-8.524z" class="fil3" style="stroke-width:.309643"/>
      <path id="path146" d="M88.462 41.037c1.103-2.777 3.434-5.957 6.928-9.451 1.036-1.036 3.896-2.761 5.7-3.804-2.558 1.14-7.618 3.623-11.375 6.912-3.31 2.896-6.616 8.526-6.616 16.013 0 .447.017.902.04 1.36a37 37 0 0 1 3.576-2.507c.162-3.16.737-5.98 1.747-8.524z" class="fil0" style="stroke-width:.309643"/>
      <path id="path148" d="M134.46 50.708c0-7.488-3.307-13.118-6.617-16.014-3.757-3.289-8.817-5.771-11.374-6.912 1.804 1.043 4.664 2.768 5.7 3.804 3.494 3.495 5.824 6.674 6.927 9.452 1.01 2.544 1.586 5.364 1.747 8.523a37 37 0 0 1 3.576 2.508c.024-.459.041-.914.041-1.36z" class="fil0" style="stroke-width:.309643"/>
      <path id="path150" d="M121.46 41.691c-1.318-3.79-4.403-7.528-5.85-8.975l-3.148-3.148c.691 1.537 2.854 6.449 3.453 9.108.364 1.615.664 3.692.87 5.577 1.95.356 3.841.84 5.663 1.44a23.6 23.6 0 0 0-.988-4.002" class="fil0" style="stroke-width:.309643"/>
      <g id="g160" fill="#00a13a" style="stroke-width:.0958793">
        <path id="path152" d="M86.663 51.417c0-.634.022-1.25.052-1.857a37 37 0 0 0-3.576 2.508c.014.258.027.515.048.776.366 4.45.717 6.744.979 7.927l1.647.055.018.075c.01.045.204.844.204 1.521 0 .238-.024.462-.089.632l-.653 1.308c.18.13.879.655 1.113 1.137.262.538.264 1.943.264 2.002v.13l-.125-.03a7.5 7.5 0 0 0-1.56-.178c-.767 0-1.423.57-1.423 1.035 0 .515.25 1.284.807 1.841.651.651 1.545.748 2.02.748 1.028 0 3.696-.347 3.696-1.931 0-1.834-.288-2.367-.569-2.648-.302-.303-1.998-1.38-2.015-1.391l-.122-.078.114-.089a7.3 7.3 0 0 1 1.273-.77c-.632-2.42-1.793-7.086-1.97-9.381a44 44 0 0 1-.133-3.342" class="fil4" style="stroke-width:.309643"/>
        <path id="path154" d="M122.54 56.342c.179-1.768.308-3.046.308-4.953 0-1.126-.003-3.246-.397-5.697a42.5 42.5 0 0 0-5.664-1.44c.191 1.752.3 3.337.3 4.222 0 .84-.102 2.15-.259 3.528l.099.075-.115.06a51 51 0 0 1-.534 3.576 69 69 0 0 1-.419 1.968c1.27-.321 1.995-1.488 2.004-1.502l.072-.12.092.106c.023.028.58.683.74 1.642q.041.252.04.478c0 .58-.167.995-.239 1.149l.82.694c.359.358.833 1.51.853 1.558l.035.085-2.318 1.25-.11 1.878c-.118.95-1.317 1.367-1.368 1.384l-.076.03-1.012-1.741c-.268-.555-1.12-.551-1.63-.548h-.095c-.433 0-.892.506-.892 1.445 0 .902.714 2.046 1.625 2.604.842.515 2.05.687 3.491.495 1.393-.186 2.242-1.215 2.888-2.198.717-1.089.288-3.697.284-3.724l-.02-.118h.12c.018 0 .163.002.375.013.2-.912.728-3.42.906-5.243z" class="fil4" style="stroke-width:.309643"/>
        <path id="path156" d="M100.77 44.252a43 43 0 0 0-5.664 1.44c-.394 2.45-.396 4.57-.396 5.696 0 1.908.129 3.185.307 4.953l.096.956c.179 1.822.706 4.328.906 5.241.2-.01.336-.01.353-.01h.12l-.02.118c-.004.026-.433 2.635.283 3.724.647.982 1.495 2.011 2.889 2.197 1.442.193 2.649.02 3.49-.495.912-.558 1.626-1.702 1.626-2.603 0-.94-.46-1.446-.892-1.446h-.095c-.509-.003-1.362-.007-1.63.548l-1.009 1.738-.079-.027c-.051-.017-1.25-.435-1.368-1.384l-.11-1.878-2.318-1.25.035-.084c.02-.05.494-1.2.852-1.559l.82-.694a2.8 2.8 0 0 1-.238-1.148q-.001-.225.04-.48a3.65 3.65 0 0 1 .74-1.64l.092-.106.072.12c.009.013.743 1.198 2.028 1.51a70 70 0 0 1-.42-1.977 51 51 0 0 1-.534-3.563l-.14-.073.121-.09c-.156-1.372-.256-2.676-.256-3.513 0-.885.108-2.47.299-4.221" class="fil4" style="stroke-width:.309643"/>
        <path id="path158" d="M134.42 52.068a37 37 0 0 0-3.576-2.508c.032.608.053 1.224.053 1.857q0 1.612-.133 3.342c-.177 2.297-1.34 6.972-1.973 9.39.66.307 1.217.733 1.253.761l.114.089-.122.078c-.017.01-1.713 1.088-2.015 1.39-.282.282-.569.816-.569 2.649 0 1.585 2.668 1.931 3.695 1.931.475 0 1.37-.097 2.021-.748.558-.557.807-1.326.807-1.84 0-.466-.656-1.036-1.423-1.036-.815 0-1.553.176-1.56.177l-.126.03v-.129c0-.06.003-1.464.265-2.002.233-.482.932-1.006 1.113-1.137l-.654-1.308a1.9 1.9 0 0 1-.088-.631c0-.677.193-1.477.204-1.523l.019-.074 1.669-.056c.261-1.183.611-3.477.978-7.926.022-.261.034-.518.048-.776" class="fil4" style="stroke-width:.309643"/>
      </g>
      <g id="g168" fill="#eb8a1b" style="stroke-width:.0958793">
        <path id="path162" d="M93.595 68.015c-.2.459-.89 2-1.619 3.158-.524.832-1.493 1.488-2.512 1.915 1.9-.432 4.166-.898 6.146-1.166l2.85-.409 1.373-.201c-.855-.084-1.706-.336-2.87-.817-1.613-.665-2.993-2.075-3.368-2.48" class="fil2" style="stroke-width:.309643"/>
        <path id="path164" d="M125.56 71.173c-.73-1.157-1.418-2.698-1.618-3.158-.376.405-1.756 1.815-3.369 2.48-1.158.479-2.006.73-2.857.815l1.383.203 2.85.41c1.964.265 4.21.725 6.1 1.155-1.01-.427-1.97-1.08-2.489-1.905" class="fil2" style="stroke-width:.309643"/>
        <path id="path166" d="M108.77 66.236c-.316.42-1.537 1.993-2.824 3.048-.902.74-1.745 1.248-2.63 1.575a50 50 0 0 1 5.465-.313c1.937 0 3.711.123 5.433.31-.881-.328-1.721-.835-2.62-1.572-1.287-1.055-2.508-2.629-2.824-3.048" class="fil2" style="stroke-width:.309643"/>
      </g>
      <g id="g182" fill="#fff500" style="stroke-width:.0958793">
        <path id="path170" d="M113.22 16.428v-3.321l-3.444.967.668-2.913h-3.564l.85 2.915-3.514-.97v3.666l3.4-1.275-.737 2.576h.03a5.2 5.2 0 0 1 1.857-.352l.011-.001c.574 0 1.124.096 1.64.268l-.646-2.468z" class="fil5" style="stroke-width:.309643"/>
        <path id="path172" d="m116.6 52.252-1.242.656a33.5 33.5 0 0 1-.72 4.443l-.071.32c.194.057.407.096.652.096.15 0 .289-.026.428-.05.167-.738.323-1.46.436-2.043.193-.997.375-2.225.517-3.422" class="fil5" style="stroke-width:.309643"/>
        <path id="path174" d="M124.05 51.348c0-2.464-.162-4.914-.441-6.216-.393-1.835-2.257-6.673-4.42-9.375-1.85-2.314-6.217-6.239-7.34-7.236.403 1.316 1.875 6.142 2.183 7.372l.257.967c.35 1.284.788 2.882 1 5.012.182 1.816.34 3.765.34 5.913 0 .786-.02 1.6-.07 2.444-.02.349-.042.675-.065.991.516.24.93.501 1.143.647.149-1.328.244-2.582.244-3.393 0-1.619-.442-6.551-1.164-9.754-.707-3.136-3.64-9.512-3.67-9.575l.164-.115 3.543 3.542c1.458 1.459 4.568 5.228 5.898 9.052 1.396 4.014 1.396 8.044 1.396 9.765 0 1.917-.13 3.2-.309 4.973l-.095.956c-.18 1.835-.705 4.328-.904 5.234.328.024.759.07 1.2.16.26-1.876.926-6.777 1.026-8.415.057-.933.084-1.943.084-2.949" class="fil5" style="stroke-width:.309643"/>
        <path id="path176" d="M135.11 46.773c-.362-1.938-1.43-5.32-2.441-7.266-1.03-1.98-4.21-5.214-6.157-6.57a46.7 46.7 0 0 0-8.694-4.762c2.754 1.307 6.939 3.542 10.165 6.366 3.344 2.927 6.686 8.611 6.686 16.168q0 1.053-.09 2.153c-.3 3.643-.641 6.36-.978 7.901l1.462-.048c.267-1.24.584-3.166.584-5.35 0-2.973-.065-6.072-.537-8.592" class="fil5" style="stroke-width:.309643"/>
        <path id="path178" d="M101.92 57.72c.133.021.263.046.405.046.255 0 .473-.043.673-.104l-.07-.311a33.5 33.5 0 0 1-.719-4.431l-1.24-.656c.141 1.193.323 2.416.515 3.41.112.584.269 1.307.436 2.046" class="fil5" style="stroke-width:.309643"/>
        <path id="path180" d="M101.93 47.784c0-2.148.158-4.096.34-5.913.213-2.13.65-3.728 1-5.012l.258-.966c.308-1.23 1.78-6.056 2.183-7.373-1.123.997-5.49 4.923-7.341 7.237-2.162 2.702-4.027 7.539-4.42 9.375-.279 1.301-.44 3.752-.44 6.216 0 1.006.027 2.015.084 2.949.066 1.085.38 3.602.66 5.725.139.331.216.693.216 1.074 0 .105-.02.204-.03.306l.178 1.305a10 10 0 0 1 1.2-.157c-.198-.907-.723-3.399-.902-5.233l-.096-.955c-.18-1.774-.308-3.056-.308-4.974 0-1.72 0-5.75 1.395-9.764 1.33-3.824 4.44-7.594 5.899-9.052l3.542-3.542.165.114c-.03.064-2.964 6.44-3.67 9.576-.722 3.202-1.164 8.135-1.164 9.753 0 .809.095 2.057.242 3.38a8 8 0 0 1 1.144-.643 73 73 0 0 1-.065-.982 42 42 0 0 1-.07-2.444" class="fil5" style="stroke-width:.309643"/>
      </g>
      <g id="g196" fill="#eb8a1b" style="stroke-width:.0958793">
        <path id="path184" d="M93.758 62.945a5 5 0 0 1 .658-.19l-.106-.771a2.8 2.8 0 0 1-.552.961" class="fil2" style="stroke-width:.309643"/>
        <path id="path186" d="M135.29 60.707c0-.032 0-.078.002-.13l-.028.13z" class="fil2" style="stroke-width:.309643"/>
        <path id="path188" d="m115.14 53.022-.723.382c-.492.29-1.34 1.454-1.34 2.132 0 .468.271 1.627 1.297 2.056l.064-.285a33 33 0 0 0 .702-4.285" class="fil2" style="stroke-width:.309643"/>
        <path id="path190" d="m123.33 61.41-.184 1.35c.223.052.447.113.657.192q.194.075.36.167a2.8 2.8 0 0 1-.833-1.709" class="fil2" style="stroke-width:.309643"/>
        <path id="path192" d="m82.245 60.707.048.001-.053-.256c.003.11.005.2.005.255" class="fil2" style="stroke-width:.309643"/>
        <path id="path194" d="M103.19 57.584c1.01-.436 1.277-1.583 1.277-2.048 0-.678-.848-1.841-1.34-2.132l-.7-.37c.221 2.119.49 3.325.701 4.273z" class="fil2" style="stroke-width:.309643"/>
      </g>
      <path id="path198" fill="#fff500" d="M82.895 50.708c0-7.556 3.342-13.241 6.686-16.168 3.225-2.824 7.411-5.06 10.165-6.365a46.7 46.7 0 0 0-8.695 4.76c-1.947 1.357-5.127 4.59-6.157 6.571-1.01 1.945-2.078 5.328-2.441 7.266-.472 2.52-.537 5.619-.537 8.591 0 2.186.317 4.112.585 5.352l1.461.049c-.337-1.542-.678-4.259-.978-7.903a26 26 0 0 1-.09-2.153z" class="fil5" style="stroke-width:.309643"/>
      <g id="g208" style="stroke-width:.309643">
        <path id="path200" d="m125.4 64.384.027-.01-.042-.017z" class="fil6" style="stroke-width:.309643"/>
        <path id="path202" d="m78.422 43.422.043.024.004-.01z" class="fil6" style="stroke-width:.309643"/>
        <path id="path204" d="M97.752 26.565c.005.025.004.05.008.075l.027-.01z" class="fil6" style="stroke-width:.309643"/>
        <path id="path206" d="m92.143 64.384.009-.016-.024.01z" class="fil6" style="stroke-width:.309643"/>
      </g>
      <g id="g290" fill="#fff" style="stroke-width:.0958793">
        <path id="path210" d="M102.5 26.563a1.57 1.57 0 0 0 1.558-1.43 5.2 5.2 0 0 1-.394-1.19 1.56 1.56 0 0 0-1.164-.525c-.867 0-1.572.706-1.572 1.572l.002.026q.147.31.165.668c.258.518.787.879 1.405.879" class="fil7" style="stroke-width:.309643"/>
        <path id="path212" d="M99.332 27.343a1.574 1.574 0 0 0 0-3.145 1.574 1.574 0 0 0 0 3.145" class="fil7" style="stroke-width:.309643"/>
        <path id="path214" d="M95.924 28.567c.915 0 1.66-.745 1.66-1.66s-.745-1.66-1.66-1.66-1.66.745-1.66 1.66.745 1.66 1.66 1.66" class="fil7" style="stroke-width:.309643"/>
        <path id="path216" d="M92.276 30.301c1.047 0 1.9-.852 1.9-1.9a1.9 1.9 0 0 0-1.9-1.899c-1.047 0-1.9.852-1.9 1.9 0 1.047.852 1.899 1.9 1.899" class="fil7" style="stroke-width:.309643"/>
        <path id="path218" d="M88.57 32.274c1.048 0 1.9-.852 1.9-1.9a1.903 1.903 0 0 0-1.9-1.899c-1.047 0-1.9.852-1.9 1.9 0 1.047.853 1.899 1.9 1.899" class="fil7" style="stroke-width:.309643"/>
        <path id="path220" d="M85.072 35.024a2.17 2.17 0 0 0 2.168-2.169 2.17 2.17 0 0 0-2.168-2.168 2.17 2.17 0 0 0-2.169 2.168c0 1.196.973 2.169 2.169 2.169" class="fil7" style="stroke-width:.309643"/>
        <path id="path222" d="M81.634 38.522c1.229 0 2.228-1 2.228-2.228s-1-2.228-2.228-2.228a2.23 2.23 0 0 0-2.228 2.228c0 1.228 1 2.228 2.228 2.228" class="fil7" style="stroke-width:.309643"/>
        <path id="path224" d="M79.063 43.305a2.47 2.47 0 0 0 2.467-2.467 2.47 2.47 0 0 0-2.467-2.467 2.47 2.47 0 0 0-2.467 2.467 2.47 2.47 0 0 0 2.467 2.467" class="fil7" style="stroke-width:.309643"/>
        <path id="path226" d="M79.973 46.071c0-1.475-1.2-2.675-2.675-2.675a2.68 2.68 0 0 0-2.676 2.675 2.68 2.68 0 0 0 2.676 2.676c1.475 0 2.675-1.2 2.675-2.676" class="fil7" style="stroke-width:.309643"/>
        <path id="path228" d="M76.102 54.725a2.92 2.92 0 0 0 2.914-2.914 2.917 2.917 0 0 0-2.914-2.914 2.917 2.917 0 0 0-2.914 2.914 2.92 2.92 0 0 0 2.914 2.914" class="fil7" style="stroke-width:.309643"/>
        <path id="path230" d="M113.64 24.99c0 .867.705 1.573 1.572 1.573.617 0 1.147-.361 1.404-.88q.02-.359.166-.667l.002-.026c0-.867-.705-1.572-1.572-1.572a1.57 1.57 0 0 0-1.409.887q-.06.219-.138.429a1.6 1.6 0 0 0-.026.256z" class="fil7" style="stroke-width:.309643"/>
        <path id="path232" d="M116.81 25.77a1.574 1.574 0 0 0 3.145 0 1.574 1.574 0 0 0-3.145 0" class="fil7" style="stroke-width:.309643"/>
        <path id="path234" d="M120.13 26.907c0 .915.745 1.66 1.66 1.66.916 0 1.66-.745 1.66-1.66s-.744-1.66-1.66-1.66-1.66.745-1.66 1.66" class="fil7" style="stroke-width:.309643"/>
        <path id="path236" d="M123.54 28.401a1.9 1.9 0 0 0 1.898 1.9 1.9 1.9 0 0 0 0-3.8 1.9 1.9 0 0 0-1.898 1.9" class="fil7" style="stroke-width:.309643"/>
        <path id="path238" d="M129.14 28.475a1.9 1.9 0 0 0 0 3.799 1.9 1.9 0 0 0 0-3.799" class="fil7" style="stroke-width:.309643"/>
        <path id="path240" d="M130.46 32.856c0 1.196.97 2.169 2.164 2.169a2.17 2.17 0 0 0 2.167-2.169 2.17 2.17 0 0 0-2.167-2.168 2.17 2.17 0 0 0-2.164 2.168" class="fil7" style="stroke-width:.309643"/>
        <path id="path242" d="M133.84 36.294c0 1.229 1 2.228 2.228 2.228s2.228-1 2.228-2.228-1-2.228-2.228-2.228a2.23 2.23 0 0 0-2.228 2.228" class="fil7" style="stroke-width:.309643"/>
        <path id="path244" d="M136.17 40.838a2.47 2.47 0 0 0 2.467 2.467 2.47 2.47 0 0 0 2.467-2.467 2.47 2.47 0 0 0-2.467-2.467 2.47 2.47 0 0 0-2.467 2.467" class="fil7" style="stroke-width:.309643"/>
        <path id="path246" d="M143.08 46.071c0-1.475-1.2-2.675-2.675-2.675a2.68 2.68 0 0 0-2.675 2.675c0 1.475 1.2 2.676 2.675 2.676s2.675-1.2 2.675-2.676" class="fil7" style="stroke-width:.309643"/>
        <path id="path248" d="M144.51 51.81a2.92 2.92 0 0 0-2.915-2.914 2.917 2.917 0 0 0-2.914 2.914 2.92 2.92 0 0 0 2.914 2.915 2.92 2.92 0 0 0 2.915-2.915" class="fil7" style="stroke-width:.309643"/>
        <path id="path250" d="M94.28 61.096a2.63 2.63 0 0 0-2.628-2.628 2.63 2.63 0 0 0-2.628 2.628 2.63 2.63 0 0 0 2.628 2.628 2.63 2.63 0 0 0 2.628-2.628" class="fil7" style="stroke-width:.309643"/>
        <path id="path252" d="M90.621 53.252a2.42 2.42 0 0 0-2.418 2.418 2.42 2.42 0 0 0 2.418 2.418 2.42 2.42 0 0 0 2.418-2.418 2.42 2.42 0 0 0-2.418-2.418" class="fil7" style="stroke-width:.309643"/>
        <path id="path254" d="M90.397 52.802a2.29 2.29 0 0 0 2.289-2.288 2.29 2.29 0 0 0-2.289-2.289 2.29 2.29 0 0 0-2.289 2.289 2.29 2.29 0 0 0 2.289 2.288" class="fil7" style="stroke-width:.309643"/>
        <path id="path256" d="M93.049 45.715c0-1.19-.968-2.159-2.159-2.159a2.16 2.16 0 0 0-2.158 2.159c0 1.19.968 2.159 2.158 2.159s2.159-.969 2.159-2.159" class="fil7" style="stroke-width:.309643"/>
        <path id="path258" d="M92.146 39.292c-1.118 0-2.029.91-2.029 2.029a2.03 2.03 0 0 0 2.029 2.028 2.03 2.03 0 0 0 2.029-2.028c0-1.119-.91-2.029-2.029-2.029" class="fil7" style="stroke-width:.309643"/>
        <path id="path260" d="M94.164 35.833a1.857 1.857 0 0 0-1.855 1.856c0 1.023.832 1.855 1.855 1.855a1.86 1.86 0 0 0 1.856-1.855 1.86 1.86 0 0 0-1.856-1.856" class="fil7" style="stroke-width:.309643"/>
        <path id="path262" d="M96.496 32.688c-.927 0-1.682.755-1.682 1.683a1.683 1.683 0 1 0 1.682-1.683" class="fil7" style="stroke-width:.309643"/>
        <path id="path264" d="M98.962 30.308c-.88 0-1.596.716-1.596 1.596a1.597 1.597 0 0 0 3.192 0c0-.88-.716-1.596-1.596-1.596" class="fil7" style="stroke-width:.309643"/>
        <path id="path266" d="M101.56 28.329c-.784 0-1.423.638-1.423 1.423 0 .784.639 1.422 1.423 1.422s1.423-.638 1.423-1.422c0-.785-.639-1.423-1.423-1.423" class="fil7" style="stroke-width:.309643"/>
        <path id="path268" d="M104.07 29.159c.737 0 1.336-.599 1.336-1.335a1.337 1.337 0 0 0-2.672 0c0 .736.6 1.335 1.336 1.335" class="fil7" style="stroke-width:.309643"/>
        <path id="path270" d="M126.11 63.725c1.45 0 2.628-1.18 2.628-2.628a2.63 2.63 0 0 0-2.628-2.628 2.63 2.63 0 0 0-2.627 2.628 2.63 2.63 0 0 0 2.627 2.628" class="fil7" style="stroke-width:.309643"/>
        <path id="path272" d="M127.14 53.252a2.42 2.42 0 0 0-2.418 2.418 2.42 2.42 0 0 0 2.418 2.418 2.42 2.42 0 0 0 2.419-2.418 2.42 2.42 0 0 0-2.419-2.418" class="fil7" style="stroke-width:.309643"/>
        <path id="path274" d="M127.37 48.225a2.29 2.29 0 0 0-2.288 2.289 2.29 2.29 0 0 0 2.288 2.288 2.29 2.29 0 0 0 2.29-2.288 2.29 2.29 0 0 0-2.29-2.289" class="fil7" style="stroke-width:.309643"/>
        <path id="path276" d="M126.87 47.874c1.19 0 2.159-.968 2.159-2.158s-.968-2.16-2.159-2.16a2.16 2.16 0 0 0-2.158 2.16 2.16 2.16 0 0 0 2.158 2.158" class="fil7" style="stroke-width:.309643"/>
        <path id="path278" d="M125.62 43.349c1.119 0 2.03-.91 2.03-2.028 0-1.119-.911-2.03-2.03-2.03a2.03 2.03 0 0 0-2.028 2.03 2.03 2.03 0 0 0 2.028 2.028" class="fil7" style="stroke-width:.309643"/>
        <path id="path280" d="M123.6 39.544a1.86 1.86 0 0 0 1.855-1.855 1.857 1.857 0 0 0-1.855-1.856 1.86 1.86 0 0 0-1.856 1.856c0 1.022.832 1.855 1.856 1.855" class="fil7" style="stroke-width:.309643"/>
        <path id="path282" d="M121.27 36.052a1.683 1.683 0 1 0-1.682-1.682c0 .928.754 1.682 1.682 1.682" class="fil7" style="stroke-width:.309643"/>
        <path id="path284" d="M118.8 33.5c.88 0 1.596-.716 1.596-1.596a1.597 1.597 0 0 0-3.192 0c0 .88.716 1.596 1.596 1.596" class="fil7" style="stroke-width:.309643"/>
        <path id="path286" d="M116.2 31.174c.784 0 1.423-.638 1.423-1.422 0-.785-.639-1.423-1.423-1.423s-1.423.638-1.423 1.423c0 .784.639 1.422 1.423 1.422" class="fil7" style="stroke-width:.309643"/>
        <path id="path288" d="M113.69 26.488c-.737 0-1.336.599-1.336 1.336a1.337 1.337 0 0 0 2.672 0c0-.737-.6-1.336-1.336-1.336" class="fil7" style="stroke-width:.309643"/>
      </g>
      <path id="path292" fill="#eb8a1b" d="M108.77 23.646h4.965c.033-.233.056-.47.056-.712 0-.41-.054-.804-.147-1.185h-3.71v-3.686a5 5 0 0 0-1.153-.14l-.011.001a5 5 0 0 0-1.322.185v3.64h-3.53c-.093.38-.147.776-.147 1.185 0 .242.023.479.057.712z" class="fil2" style="stroke-width:.309643"/>
      <g id="g300" fill="#fff500" style="stroke-width:.0958793">
        <path id="path294" d="M108.77 23.849h-4.912a5.016 5.016 0 0 0 4.912 4.095h.011c2.45 0 4.49-1.769 4.923-4.095z" class="fil5" style="stroke-width:.309643"/>
        <path id="path296" d="M110.14 18.115v3.43h3.454a5.02 5.02 0 0 0-3.454-3.43" class="fil5" style="stroke-width:.309643"/>
        <path id="path298" d="M107.24 18.167a5.03 5.03 0 0 0-3.274 3.38h3.274z" class="fil5" style="stroke-width:.309643"/>
      </g>
      <path id="path302" fill="#eb8a1b" d="M143.29 54.528c-1.048.524-1.513.937-1.517.941l-.058.052-.065-.042c-.012-.007-1.205-.754-2.17-.583-.777.137-1.454.537-1.714.705.326.203 1.447.931 1.873 1.623.32.52.715 1.37.715 2.038 0 .286-.072.538-.252.718-.547.547-1.516.75-2.087.18-.444-.446-1.153-1.927-1.364-2.378-.225.228-.889.926-1.006 1.375-.144.548-.146 1.636-.146 1.648v.098l-3.607.12c-.04.177-.183.836-.183 1.404 0 .213.02.408.076.553l.723 1.445-.073.05c-.008.007-.877.62-1.117 1.112-.208.43-.237 1.488-.242 1.787.243-.05.824-.154 1.48-.154.902 0 1.627.677 1.627 1.238 0 .556-.268 1.386-.866 1.985-.704.702-1.659.807-2.165.807-.04 0-3.899-.025-3.899-2.135 0-1.906.318-2.481.628-2.792.286-.285 1.595-1.127 1.924-1.338-.28-.206-1.332-.94-2.15-.94-.954 0-2.25.554-2.262.56l-.092.04-.041-.091c-.005-.01-.476-1.014-1.528-1.412-.95-.36-2.156-.403-2.446-.409.036.244.118.867.118 1.588 0 .769-.096 1.621-.451 2.16-.671 1.02-1.556 2.09-3.03 2.287-1.49.199-2.743.018-3.625-.522-.982-.602-1.722-1.796-1.722-2.778 0-1.07.564-1.648 1.095-1.648l.094-.001c.558-.002 1.49-.007 1.814.663l.916 1.576c.195-.076 1.064-.448 1.156-1.185l.115-1.978 2.255-1.217c-.09-.211-.479-1.114-.772-1.407l-.931-.788.04-.073a2.6 2.6 0 0 0 .249-1.132q.001-.208-.036-.439a3.5 3.5 0 0 0-.614-1.437c-.21.314-1.134 1.567-2.739 1.567-1.707 0-2.344-1.492-2.344-2.434 0-.796.954-2.02 1.44-2.307l2.234-1.18c-.399-.273-1.693-1.097-2.854-1.097l-2.404.093-.025-.072c-.003-.012-.405-1.185-.973-1.992-.512-.728-1.338-1.579-1.52-1.763-.182.184-1.008 1.035-1.52 1.763-.567.807-.97 1.98-.973 1.992l-.03.071-2.398-.092c-1.162 0-2.456.824-2.855 1.097l2.234 1.18c.486.288 1.44 1.51 1.44 2.307 0 .942-.636 2.434-2.344 2.434-1.605 0-2.529-1.253-2.738-1.567a3.5 3.5 0 0 0-.615 1.437 3 3 0 0 0-.036.439c0 .666.247 1.127.25 1.132l.035.077-.927.784c-.293.293-.683 1.196-.772 1.407l2.206 1.19.05.032.114 1.973c.093.737.961 1.109 1.157 1.185l.916-1.576c.323-.67 1.256-.665 1.813-.663h.094c.531 0 1.096.578 1.096 1.65 0 .98-.74 2.175-1.723 2.777-.881.54-2.136.72-3.624.522-1.474-.197-2.36-1.266-3.03-2.287-.355-.539-.452-1.391-.452-2.16 0-.72.082-1.344.118-1.588-.29.006-1.495.05-2.446.409-1.052.398-1.523 1.402-1.528 1.412l-.042.09-.09-.039c-.013-.006-1.309-.56-2.262-.56-.818 0-1.87.734-2.152.94.33.21 1.64 1.053 1.925 1.338.31.31.628.885.628 2.792 0 2.11-3.86 2.135-3.899 2.135-.506 0-1.461-.105-2.164-.807-.599-.599-.867-1.428-.867-1.985 0-.56.725-1.238 1.626-1.238.657 0 1.238.104 1.48.154-.004-.3-.032-1.357-.241-1.787-.24-.492-1.109-1.105-1.118-1.112l-.068-.057.72-1.438c.054-.145.075-.34.075-.553 0-.569-.142-1.227-.182-1.404l-3.607-.12v-.098c0-.012-.002-1.1-.146-1.648-.118-.449-.781-1.147-1.008-1.375-.21.451-.919 1.932-1.363 2.377-.57.57-1.54.368-2.087-.18-.18-.18-.252-.431-.252-.717 0-.669.396-1.519.715-2.038.426-.692 1.547-1.42 1.873-1.623-.26-.168-.937-.568-1.714-.705-.965-.17-2.158.576-2.17.583l-.065.042-.057-.052c-.005-.004-.47-.417-1.518-.941-.843-.422-1.71-.146-1.987-.036l.236.506c.267.008 1.348.065 1.944.476 0 0 .92.749 1.03.837.158-.088.8-.429 1.379-.429h1.438l-.258.185c-.01.007-1.08.777-1.378 1.46-.303.692-.483 2.108-.075 2.752.461.729 1.075 1.164 1.64 1.164.704 0 1.456-.243 1.79-.576.36-.36.801-1.565.805-1.577l.088-.241.102.236c.016.04.411.97.411 1.721v.967c.314-.085 1.415-.373 1.894-.373h1.752l-.014.114c-.005.036-.116.894-.322 1.373-.176.411-.802.984-1.024 1.181.15.1.441.32.89.77.673.672.68 1.3.68 1.327v.102h-.1c-.016 0-1.542.01-2.32.829-.3.316-.452.716-.452 1.19q0 .057.003.116c.108 2.168 2.918 3.424 3.967 3.537.998.105 3.36-.422 4.074-1.568.723-1.16.742-2.845.592-3.488s-1.359-2.187-1.37-2.202l-.127-.161.204-.004c.053 0 1.291-.019 1.826.307l.96.595c.093-.207.332-.667.799-1.134.618-.618 1.691-.882 1.737-.894l.132-.032-.007.136c-.024.53-.05 1.992.126 2.39.015.034 1.475 3.275 4.178 3.558 2.434.254 4.543-.397 5.375-1.66.742-1.126.94-2.805.94-3.62 0-.584-.816-1.513-1.782-1.513-.98 0-1.906.214-2.2.509l-1.28 1.181-.053-.142a1.85 1.85 0 0 1-.002-1.113l.45-1.104-1.183-.245-1.303-.5-.136-.048.927-1.029.757-.714-.181-1.736.18.122c.01.006 1.007.67 2.156.67.873 0 3.366-.482 3.366-2.619 0-2.118-.73-2.747-.954-2.889l-2.115-1.248.248-.058c.054-.012 1.335-.307 2.263-.307.546 0 1.607.225 1.877.284.04-.254.195-1.116.56-1.823.418-.806 1.25-1.897 1.284-1.943l.081-.106.081.106c.035.046.866 1.137 1.284 1.943.366.707.52 1.57.56 1.823.27-.059 1.332-.284 1.878-.284.927 0 2.209.295 2.263.307l.246.058-2.113 1.248c-.224.142-.954.771-.954 2.889 0 2.137 2.492 2.619 3.366 2.619 1.149 0 2.145-.664 2.155-.67l.18-.122-.18 1.736.756.714.828.919.102.106-1.441.552-1.184.245.45 1.105a1.86 1.86 0 0 1-.002 1.112l-.052.144-1.28-1.183c-.295-.295-1.22-.509-2.2-.509-.967 0-1.783.93-1.783 1.513 0 .815.198 2.494.94 3.62.832 1.263 2.942 1.914 5.376 1.66 2.703-.283 4.163-3.524 4.177-3.557.176-.398.15-1.861.126-2.39l-.006-.137.132.032c.046.012 1.119.276 1.737.894.466.467.705.927.797 1.134l.962-.595c.535-.326 1.773-.307 1.826-.307l.204.004-.126.161c-.012.015-1.222 1.559-1.371 2.202s-.13 2.327.592 3.488c.713 1.146 3.076 1.673 4.074 1.568 1.05-.113 3.858-1.369 3.967-3.537l.003-.115c0-.475-.152-.875-.453-1.191-.777-.819-2.303-.83-2.318-.83h-.102v-.1c0-.028.008-.656.68-1.329.45-.45.742-.668.89-.769-.222-.197-.847-.77-1.023-1.181-.206-.479-.317-1.337-.322-1.373l-.015-.114h1.752c.48 0 1.58.288 1.895.373v-.967c0-.752.395-1.682.412-1.721l.1-.236.088.24c.005.013.446 1.217.807 1.578.333.333 1.085.576 1.788.576.566 0 1.18-.435 1.64-1.164.408-.644.229-2.06-.074-2.752-.299-.683-1.367-1.453-1.378-1.46l-.258-.185h1.438c.58 0 1.221.34 1.38.429l1.029-.837c.595-.41 1.675-.468 1.943-.476l.237-.507c-.277-.109-1.144-.385-1.987.037z" class="fil2" style="stroke-width:.309643"/>
      <path id="path304" d="M72.342 55.14c.512 1.105 1.515 3.287 1.785 4.026-.365-1-1.77-3.995-1.785-4.025z" class="fil6" style="stroke-width:.309643"/>
      <path id="path306" fill="#fff500" d="M120.5 70.308c1.838-.759 3.385-2.526 3.4-2.543l.107-.124.063.151c.008.019.814 1.921 1.666 3.274.834 1.321 2.847 2.194 4.32 2.344 1.258.128 2.555-.06 4.08-.593 1.172-.408 2.886-1.853 3.998-2.966q.233-.232.48-.497a1.08 1.08 0 0 1-.36-.638c-.13-.67.14-1.599.7-2.426v.001c.828-1.22 1.991-1.83 2.714-1.454.083-.198.168-.395.239-.597l.4-1.652c.223-1.049.5-2.353.916-3.491.32-.877 1.43-3.267 1.72-3.889-.341.016-1.233.09-1.732.435l-1.124.914-.061-.036c-.007-.004-.746-.434-1.338-.434h-.824c.347.276.974.825 1.209 1.36.188.43.328 1.102.328 1.73 0 .468-.077.91-.268 1.212-.507.8-1.168 1.258-1.813 1.258-.625 0-1.496-.199-1.933-.635-.289-.29-.602-1.016-.756-1.401-.117.32-.303.902-.303 1.396v1.233l-.13-.036c-.013-.004-1.449-.4-1.968-.4h-1.518c.034.236.133.84.289 1.204.19.443 1.062 1.188 1.071 1.195l.113.097-.13.07c-.004.002-.336.185-.963.813-.465.464-.58.902-.61 1.087.299.01 1.595.088 2.353.886.339.355.51.803.51 1.33a2 2 0 0 1-.004.127c-.115 2.289-3.052 3.612-4.15 3.728-1.068.114-3.5-.43-4.267-1.661-.542-.872-.698-1.96-.698-2.758 0-.377.035-.69.08-.884.137-.586.992-1.736 1.281-2.114-.358.007-1.138.046-1.51.273l-1.168.724-.042-.118c-.002-.006-.217-.593-.798-1.173-.473-.473-1.233-.723-1.51-.804.004.141.012.376.012.707 0 .596-.029 1.336-.16 1.636-.061.137-1.524 3.38-4.343 3.676-2.509.263-4.694-.424-5.566-1.749-.769-1.167-.974-2.896-.974-3.733 0-.678.89-1.716 1.985-1.716 1.046 0 2.01.233 2.344.567l1.037.958a1.7 1.7 0 0 0-.04-.824l-.536-1.317 1.417-.293 1.135-.436-.72-.798-.827-.78.149-1.416c-.34.195-1.147.596-2.09.596-1.38 0-3.57-.766-3.57-2.822 0-2.16.734-2.86 1.048-3.06l1.677-.99c-.423-.087-1.297-.249-1.963-.249-.59 0-1.925.3-1.938.302l-.108.025-.015-.11c-.001-.01-.153-1.083-.558-1.865-.352-.679-.995-1.553-1.184-1.805-.188.252-.832 1.126-1.184 1.805-.405.782-.556 1.854-.557 1.865l-.016.11-.108-.025c-.013-.002-1.348-.302-1.937-.302-.667 0-1.541.162-1.964.248l1.677.99c.315.2 1.048.9 1.048 3.061 0 2.056-2.19 2.822-3.57 2.822-.943 0-1.75-.4-2.09-.596l.144 1.366.004.051-.825.779-.72.798 1.135.436 1.296.269.118.03-.534 1.31a1.6 1.6 0 0 0-.04.825l1.038-.958c.333-.334 1.297-.567 2.343-.567 1.096 0 1.985 1.038 1.985 1.716 0 .837-.205 2.566-.973 3.733-.873 1.325-3.058 2.012-5.566 1.749-2.819-.295-4.282-3.54-4.343-3.676-.132-.3-.16-1.04-.16-1.636 0-.33.007-.566.012-.707-.278.08-1.038.33-1.51.804-.58.58-.797 1.167-.799 1.173l-.043.118-1.167-.724c-.372-.227-1.151-.266-1.51-.273.29.378 1.144 1.528 1.281 2.114.045.194.08.507.08.884 0 .798-.155 1.886-.698 2.758-.766 1.23-3.199 1.775-4.267 1.661-1.098-.116-4.035-1.44-4.15-3.728l-.003-.127c0-.527.171-.975.51-1.33.758-.798 2.054-.877 2.353-.886-.029-.185-.145-.623-.61-1.087-.627-.628-.96-.811-.962-.812l-.131-.071.113-.097c.009-.007.88-.752 1.07-1.195.157-.364.256-.968.291-1.204h-1.52c-.518 0-1.953.396-1.968.4l-.129.036v-1.233c0-.494-.186-1.077-.303-1.396-.154.385-.467 1.112-.756 1.401-.436.436-1.308.635-1.933.635-.645 0-1.306-.458-1.812-1.258-.192-.302-.269-.744-.269-1.211 0-.629.14-1.3.329-1.731.233-.535.861-1.084 1.208-1.36h-.824c-.592 0-1.33.43-1.338.434l-.069.029-1.117-.907c-.499-.344-1.39-.419-1.73-.435.29.622 1.399 3.012 1.72 3.889.415 1.138.692 2.441.914 3.49l.401 1.653c.071.202.156.399.24.597.714-.365 1.9.255 2.713 1.454.56.826.83 1.756.701 2.425a1.08 1.08 0 0 1-.362.638q.248.264.48.497c1.113 1.114 2.827 2.558 3.998 2.966 1.528.532 2.823.721 4.082.593 1.471-.15 3.485-1.023 4.318-2.344.853-1.353 1.659-3.255 1.667-3.274l.063-.15.107.123c.015.017 1.562 1.784 3.4 2.543 1.858.765 2.902.947 4.464.77 1.593-.18 2.842-.746 4.312-1.95 1.466-1.204 2.856-3.102 2.87-3.12l.083.059.082-.06c.014.02 1.404 1.917 2.87 3.12 1.457 1.195 2.698 1.759 4.27 1.945l.058.007c1.553.174 2.596-.007 4.448-.771m-11.747-6.83c-1.49 0-2.702-1.904-2.702-4.247s1.212-4.249 2.702-4.249 2.703 1.906 2.703 4.25c0 2.342-1.213 4.247-2.703 4.247" class="fil5" style="stroke-width:.309643"/>
      <g id="g314" fill="#fff" style="stroke-width:.0958793">
        <path id="path308" d="M78.746 69.256q.265-.18.342-.58c.119-.618-.138-1.488-.67-2.272-.786-1.158-1.921-1.768-2.528-1.357q-.266.181-.343.58c-.118.618.138 1.489.67 2.272.53.783 1.245 1.343 1.863 1.462q.4.075.666-.105" class="fil7" style="stroke-width:.309643"/>
        <path id="path310" d="M141.65 65.048c-.608-.411-1.743.198-2.53 1.357-.531.783-.788 1.654-.67 2.272q.078.4.344.58t.665.104c.619-.118 1.333-.679 1.864-1.461.787-1.161.934-2.44.327-2.852" class="fil7" style="stroke-width:.309643"/>
        <path id="path312" d="M111.25 59.231c0-2.23-1.121-4.046-2.5-4.046-1.377 0-2.498 1.815-2.498 4.046 0 2.23 1.12 4.044 2.499 4.044 1.378 0 2.499-1.814 2.499-4.044" class="fil7" style="stroke-width:.309643"/>
      </g>
      <path id="path316" fill="#fff500" d="M111.49 30.473h-5.297v6.493h5.297zm-.437 5.94h-4.423v-5.386h4.423z" class="fil5" style="stroke-width:.309643"/>
      <path id="polygon318" fill="#00a13a" d="M106.63 31.028v5.385h4.42v-5.385z" class="fil4" style="stroke-width:.309643"/>
      <path id="path320" fill="#fff500" d="M111.25 38.964h-5.297v6.493h5.297zm-4.86 5.94v-5.386h4.423v5.386z" class="fil5" style="stroke-width:.309643"/>
      <path id="polygon322" fill="#da251d" d="M110.81 44.903v-5.385h-4.42v5.385z" class="fil8" style="stroke-width:.309643"/>
      <g id="g332" fill="#fff500" style="stroke-width:.0958793">
        <path id="path324" d="M87.031 77.802c.239.238.265 1.711.265 2.333 0 .515-.019 2.216-.265 2.462a4.9 4.9 0 0 1-1.291.841l.015 1.788s-.01.05-.01.124c0 .127.027.332.17.506.079.096.19.166.32.221-.01-.064-.02-.128-.02-.192 0-2.827 9.916-5.041 22.577-5.041 12.658 0 22.574 2.214 22.574 5.04 0 .062-.01.122-.02.182a.8.8 0 0 0 .3-.21.8.8 0 0 0 .169-.508c0-.081-.01-.137-.01-.148l.015-1.762a4.9 4.9 0 0 1-1.29-.84c-.253-.254-.265-2.102-.264-2.47 0-.62.026-2.088.265-2.326.235-.235.673-.13 1.336.16.004-.35.006-.667.008-.939-.275-.072-7.025-1.82-10.974-2.342l-2.876-.419c-2.815-.43-5.473-.835-9.245-.835s-6.43.406-9.244.835l-2.876.42c-3.94.52-10.668 2.262-10.974 2.341l.007.94c.664-.29 1.103-.396 1.337-.161zm26.477 1.728c-.371.098-1.575.026-2.848-.051l-1.88-.086-1.831.084c-1.24.075-2.522.152-2.896.053-.613-.162-.684-1.33-.684-2.193 0-.564 0-1.416.563-1.979.541-.541.567-.544 1.93-.711l.122-.015a19 19 0 0 1 2.79-.12c.014 0 1.344-.058 2.803.12l.123.015c1.362.167 1.388.17 1.93.711.562.563.562 1.415.562 1.979 0 .864-.07 2.031-.684 2.193m5.998-3.59.405-.049c.74-.093 1.577-.2 3.298.05 1.84.265 4.08.726 4.309 1.413.232.694.232 1.652.232 2.285 0 .65-.266 1.419-.755 1.565-.42.124-.912-.042-.941-.051h-.001l-2.19-.575c-1.33-.302-3.414-.31-3.704-.31-.254.003-.725.007-1.075-.34-.291-.288-.439-.763-.439-1.41v-.241c-.002-1.542-.002-2.246.861-2.337l-29.464 1.414c.23-.687 2.47-1.148 4.31-1.413 1.72-.25 2.558-.143 3.297-.05l.405.049c.864.09.863.795.861 2.337v.241c0 .647-.147 1.122-.438 1.41-.35.347-.822.343-1.132.34-.233 0-2.318.008-3.647.31l-2.19.575h-.001c-.03.01-.522.175-.941.05-.49-.145-.754-.914-.754-1.564 0-.633 0-1.591.23-2.285z" class="fil5" style="stroke-width:.309643"/>
        <path id="path326" d="M91.507 81.152h.002z" class="fil5" style="stroke-width:.309643"/>
        <path id="path328" d="M126.05 81.152h-.001z" class="fil5" style="stroke-width:.309643"/>
        <path id="path330" d="M88.679 86.961c0-2.274 8.834-4.055 20.112-4.055 11.276 0 20.109 1.78 20.109 4.055 0 .606-.633 1.177-1.766 1.688 2.535-.784 4.028-1.737 4.028-2.764 0-2.668-10.036-4.838-22.371-4.838-12.337 0-22.374 2.17-22.374 4.838 0 1.027 1.493 1.98 4.028 2.764-1.134-.511-1.766-1.082-1.766-1.688" class="fil5" style="stroke-width:.309643"/>
      </g>
      <path id="path334" fill="#eb8a1b" d="M108.79 90.813c10.79 0 19.906-1.764 19.906-3.852s-9.116-3.852-19.906-3.852c-10.792 0-19.909 1.764-19.909 3.852s9.117 3.852 19.909 3.852" class="fil2" style="stroke-width:.309643"/>
      <path id="path336" fill="#fff500" d="M132.13 74.336c-.057-.015-5.848-1.576-10.213-2.166l-2.853-.41c-3.35-.496-6.513-.965-10.284-.965-3.77 0-6.935.47-10.284.965l-2.854.41c-4.366.59-10.156 2.15-10.21 2.165-.656.198-1.322.702-1.223 1.524.038.313.198.583.45.76.266.185.609.246.94.169.07-.019 7-1.821 11.026-2.355l2.872-.417c2.824-.432 5.492-.839 9.282-.839s6.457.407 9.282.839l2.872.417c4.026.534 10.957 2.336 11.023 2.353.334.079.678.017.943-.169.252-.176.412-.445.45-.759.1-.82-.566-1.325-1.22-1.522z" class="fil5" style="stroke-width:.309643"/>
      <path id="path338" fill="#eb8a1b" d="M90.643 80.944c.34.101.773-.046.777-.048h.003l2.216-.582c1.358-.308 3.47-.317 3.766-.316.243.002.612.005.882-.262.238-.236.359-.646.359-1.218v-.242c.002-1.587-.022-2.005-.62-2.068l-.41-.049c-.722-.092-1.54-.195-3.226.048-2.385.345-3.953.817-4.091 1.232-.218.652-.218 1.583-.218 2.2 0 .628.252 1.213.562 1.305m.733-3.336c.128-.33 1.131-.615 2.982-.845 1.19-.148 1.77-.085 2.281-.03l.281.03c.594.053.594.475.592 1.401v.144c0 .364-.09.639-.267.814-.243.24-.59.238-.815.236-.162 0-1.607.005-2.532.187l-1.52.342c-.014.006-.353.104-.642.03-.338-.086-.521-.549-.521-.94 0-.38 0-.952.161-1.37" class="fil2" style="stroke-width:.309643"/>
      <path id="path342" fill="#00a13a" d="M91.538 77.671c-.15.386-.15.94-.15 1.307 0 .37.176.717.391.772.241.061.547-.028.55-.029h.002l1.534-.347c.94-.183 2.402-.189 2.607-.189.171.002.46.004.65-.185.144-.143.216-.376.216-.691v-.145c.002-.942-.015-1.19-.433-1.228l-.285-.029c-.502-.055-1.07-.117-2.24.03-1.981.245-2.767.54-2.842.734" class="fil4" style="stroke-width:.309643"/>
      <path id="path344" fill="#eb8a1b" d="M118.92 78.277v.241c0 .573.12.983.359 1.219.27.267.638.263.94.26.238 0 2.35.01 3.708.318l2.215.581h.003c.004.003.438.15.778.049.31-.092.56-.678.56-1.306 0-.616 0-1.548-.216-2.2-.138-.414-1.706-.887-4.091-1.231-1.686-.244-2.504-.14-3.226-.048l-.41.049c-.598.062-.622.48-.62 2.068m1.133-.112c0-.926-.002-1.349.592-1.401l.281-.03c.512-.055 1.09-.119 2.282.03 1.85.23 2.853.514 2.982.844.16.417.16.99.16 1.37 0 .39-.182.853-.52.94-.289.074-.63-.026-.644-.03h.001l-1.52-.342c-.925-.182-2.37-.187-2.572-.187-.186.001-.532.004-.775-.236-.177-.176-.267-.45-.267-.814z" class="fil2" style="stroke-width:.309643"/>
      <path id="path348" fill="#00a13a" d="M120.22 78.163v.145c0 .316.073.549.216.691.191.19.48.187.692.186.164 0 1.625.005 2.566.189l1.534.346h.001c.004.001.309.09.55.03.216-.056.391-.402.391-.773 0-.366 0-.92-.15-1.307-.075-.194-.86-.488-2.84-.734-1.171-.146-1.74-.085-2.242-.03l-.284.03c-.418.037-.435.285-.434 1.227" class="fil4" style="stroke-width:.309643"/>
      <path id="path350" fill="#eb8a1b" d="M113.92 77.337c0-.52 0-1.304-.484-1.788-.475-.476-.475-.476-1.771-.634l-.123-.015c-1.436-.176-2.745-.12-2.77-.12-.013 0-1.322-.056-2.758.12l-.122.015c-1.296.158-1.296.158-1.772.634-.484.484-.484 1.269-.484 1.788 0 1.491.263 1.874.483 1.932.333.088 1.65.009 2.811-.061l1.848-.086 1.895.088c1.142.068 2.434.146 2.764.06.22-.059.483-.442.483-1.933m-1.312 1.2c-.341.067-.997.051-2.006-.047l-1.751-.057h-.145l-1.752.057c-1.008.098-1.664.114-2.005.047-.55-.107-.55-1.026-.55-1.328 0-.322 0-.861.463-1.204.434-.32.455-.321 1.552-.42l.098-.009 2.263-.071 2.27.071.098.01c1.096.098 1.117.1 1.552.42.463.342.463.881.463 1.203 0 .302 0 1.22-.55 1.328" class="fil2" style="stroke-width:.309643"/>
      <path id="path352" fill="#da251d" d="m111.13 75.772-.098-.008-2.253-.072-2.247.072-.098.008c-1.065.096-1.065.096-1.457.385-.386.286-.386.729-.386 1.052 0 .707.134 1.092.398 1.143.318.063.975.046 1.95-.05l1.77-.057h.145l1.77.057c.976.096 1.633.112 1.952.05.264-.051.397-.436.397-1.143 0-.323 0-.766-.386-1.052-.392-.289-.392-.289-1.457-.385" class="fil8" style="stroke-width:.309643"/>
      <path id="path354" fill="#eb8a1b" d="m84.878 79.009-.002.001zm0 0c.593-.276.974-.399 1.165-.208.172.173.19 1.236.19 1.685 0 .37-.013 1.59-.19 1.766-.156.156-.804.655-1.282.708.074.21.165.342.27.365.484.113 1.51-.592 1.822-.904.264-.326.265-4.147.002-4.444-.195-.195-.996.18-1.339.34h-.003c-.006.004-.546.248-.793.78a1 1 0 0 1 .159-.089" class="fil2" style="stroke-width:.309643"/>
      <path id="path356" fill="none" d="m85.41 78.09.004-.001" class="fil3" style="stroke-width:.309643"/>
      <path id="path358" fill="#da251d" d="M84.602 82.778c.349.08 1.088-.427 1.312-.651.19-.235.19-2.984.001-3.197-.14-.14-.717.128-.963.243l-.002.001c-.005.003-.495.221-.627.709-.046.172-.067 1.089-.067 1.348 0 .877.139 1.5.346 1.547" class="fil8" style="stroke-width:.309643"/>
      <path id="path360" fill="none" d="m84.877 79.011.002-.001" class="fil3" style="stroke-width:.309643"/>
      <path id="path362" fill="#eb8a1b" d="M131.52 82.253c-.172-.172-.19-1.359-.19-1.718 0-.462.014-1.557.19-1.733.192-.191.573-.069 1.165.208v-.001l.002.001c.009.005.072.034.156.088-.246-.532-.786-.776-.792-.78h-.003c-.343-.16-1.145-.535-1.339-.34-.263.297-.262 4.117 0 4.442.313.314 1.34 1.019 1.824.906.104-.023.195-.154.27-.366-.478-.053-1.126-.551-1.283-.707" class="fil2" style="stroke-width:.309643"/>
      <path id="path364" d="m132.15 78.089.003.001z" class="fil6" style="stroke-width:.309643"/>
      <path id="path366" fill="#da251d" d="m132.61 79.174-.002-.001c-.247-.115-.823-.384-.963-.244-.19.214-.189 2.963 0 3.196.225.225.965.733 1.313.653.207-.048.346-.67.346-1.551 0-.256-.021-1.173-.068-1.344-.131-.488-.62-.707-.626-.709" class="fil8" style="stroke-width:.309643"/>
      <path id="polygon368" fill="#0a0b0c" d="m72.498 119.27-2.52-.9-2.484-.96-2.445-1.02-2.405-1.09-2.365-1.14-2.322-1.2-2.279-1.26-2.234-1.31-2.776-1.74 1.164-.18.474-.07.476-.09.476-.09.477-.09.479-.11.481-.1.481-.12.484-.13.485-.13.487-.14.489-.15.491-.16.493-.17.495-.18.497-.18.5-.2.502-.22.505-.22.508-.23.51-.25.514-.26.516-.27.519-.29.522-.3.526-.31.529-.33.532-.34.536-.36.54-.38.543-.39.717-.53 1.315 1.15 1.209.98 1.264.94 1.322.91 1.38.86 1.439.83 1.498.79 1.559.76 1.621.72 1.682.67 1.745.64 1.809.59 1.874.56 1.939.51 2.005.47 2.072.43 2.14.38 2.208.34 2.278.3 2.345.25 2.42.21 2.49.16 2.57.11 2.63.07 2.71.02 2.79-.03 2.86-.07 2.94-.13 3.01-.17 3.09-.23 3.17-.27 3.37-.34-.01-.03-.22-.49-.24-.5-.25-.5-.27-.5-.28-.5-.3-.51-.32-.51-.34-.51-.35-.51-.65-.91.64-.02.15-.01.16.01h.16l.16.01.16.02.16.02.17.03.16.03.16.03.17.05.17.05.16.06.17.06.17.07.17.08.17.09.17.1.17.1.18.11.17.12.04.03-.01-.18-.02-.22-.03-.22-.02-.22-.03-.22-.03-.21-.03-.21-.03-.2-.04-.21-.03-.19-.04-.2-.05-.2-.04-.19-.05-.19-.05-.19-.05-.19-.06-.19-.06-.18-.06-.19-.07-.18-.07-.19-.07-.19-.08-.18-.08-.19-.09-.18-.08-.19-.1-.19-.09-.19-.1-.19-.11-.19-.1-.19-.08-.13-.08-.11-.08-.09-.07-.08-.07-.07-.07-.05-.06-.04-.06-.03-.06-.02-.06-.01-.06-.01-.07.01-.08.02-.09.02-.1.05-.2.09.05.06.1.2.07.21.02.22-.02.22-.07.21-.1.2-.15.18-.18.14-.2.11-.21.06-.22.02-.22-.02-.21-.06-.2-.11-.18-.14-.14-.18-.11-.2-.06-.21-.02-.22.02-.22.06-.21.11-.2.14-.18.18-.15.04-.01-.14.01.03-.59.08-.31.14-.27.19-.25.23-.21.28-.17.29-.14.33-.09.34-.06h.36l.36.04.36.1.37.16.35.22.33.27.31.34.14.19.13.18.12.19.12.19.12.19.12.2.11.2.11.2.1.21.1.21.1.21.09.22.1.22.08.22.09.23.08.23.08.24.08.23.07.24.07.25.07.24.06.25.06.25.06.26.06.25.05.26.05.27.05.26.05.27.04.27.04.26.07-.2.07-.21.08-.19.09-.19.09-.18.09-.17.1-.17.09-.16.11-.15.1-.15.11-.14.11-.13.12-.13.12-.12.12-.11.12-.12.12-.1.13-.1.13-.1.13-.09.13-.09.13-.08.55-.32-.05 1.11-.02.62v.61l.01.6.02.59.04.58.04.56.06.56.08.55.08.53.04.2.15.06.02.02h.02l.01.01.03.01.08.04.14.2-.01-.1.02-.12.02-.11.04-.12.05-.11.06-.12.07-.13.08-.12.09-.14.11-.13.12-.11.13-.11.13-.09.15-.08.15-.06.16-.06.17-.03.17-.02h.18l.18.01.19.03.19.05.19.07.15.06-.01-.09v-.12l.01-.12.02-.11.04-.12.05-.11.06-.12.07-.12.08-.13.1-.14.11-.13.11-.11.13-.11.14-.09.14-.08.16-.06.16-.05.16-.04.18-.02h.17l.19.01.18.03.19.05.19.07.2.08-.01-.06v-.12l.01-.11.03-.12.04-.11.04-.12.06-.12.07-.12.09-.13.09-.14.11-.12.12-.12.12-.11.14-.09.15-.08.15-.06.16-.05.17-.04.17-.02h.18l.18.02.19.03.19.05.19.06.24.1v-.04l-.01-.12.01-.13.03-.12.04-.13.06-.12.07-.13.08-.13.1-.14.1-.13.12-.11.13-.11.13-.09.15-.08.15-.07.16-.05.17-.03.17-.02h.18l.18.01.19.03.19.05.19.06-.02-.09v-.12l.01-.13.03-.12.04-.12.05-.13.07-.13.09-.13.09-.14.11-.13.12-.11.12-.11.14-.09.15-.08.15-.07.16-.04.17-.04.17-.02h.18l.18.01.19.03.19.05.19.07.26.11.13.2.09.13.1.13.09.13.08.09-.02-.09-.02-.16-.01-.15v-.31l.01-.16.02-.15.03-.15.03-.16.04-.15.05-.15.05-.14.07-.15.07-.14.07-.14.09-.13.09-.14.1-.12.11-.13.11-.12.12-.11.13-.11.12-.1.14-.09.13-.08.14-.08.14-.07.15-.07.14-.05.15-.05.15-.04.16-.03.15-.03.15-.02.16-.01h.31l.15.01.16.02.15.03.15.03.15.04.15.05.15.05.14.07.14.07.14.08.1.06-.04-.16v-.27l.05-.27.1-.26.14-.23.17-.21.21-.15.22-.1.24-.05.23-.01.23.04.23.07.21.11.2.14.09.08.08.07.07.08.07.07.07.08.06.07.06.08.06.08.11.21.09.22.06.23.02.23-.03.23-.07.23-.11.22-.17.19-.22.16-.26.12-.27.07-.28.04-.27-.03-.18-.06.02.03.06.15.06.15.04.14.04.15.04.16.02.15.02.15.01.16.01.15-.01.16-.01.15-.02.16-.02.15-.04.15-.04.15-.04.15-.06.15-.06.14-.07.14-.08.14-.08.14-.1.13-.1.13-.1.12-.12.13-.12.11-.12.11-.13.1-.13.09-.14.08-.14.08-.14.07-.14.06-.15.06-.15.04-.15.04-.15.04-.15.02-.16.02-.15.01-.16.01-.15-.01-.13-.01.02.04.04.13.02.13v.14l-.01.15-.03.15-.04.17-.06.16-.08.15-.1.14-.11.12-.14.12-.14.1-.16.08-.17.07-.18.05-.19.02-.2.01-.2-.01-.22-.04-.21-.05-.22-.09-.19-.09.04.12.03.14.01.15-.01.15-.03.17-.05.18-.05.16-.09.15-.09.14-.12.12-.13.12-.15.1-.16.08-.17.07-.18.04-.19.03-.2.01-.2-.01-.21-.04-.22-.05-.21-.09-.23-.11-.14-.1.02.04.03.25-.04.28-.11.32-.07.17-.1.17-.11.15-.13.14-.13.14-.16.11-.16.1-.18.09-.19.06-.2.04-.2.02h-.22l-.22-.03-.22-.05-.22-.08-.18-.09v.06l-.04.28-.1.32-.09.18-.11.16-.14.13-.15.12-.17.09-.18.07-.18.05-.2.02-.21.01-.21-.01-.21-.03-.22-.04-.22-.06-.22-.08-.22-.1-.19-.09.14.16.11.21.03.26-.04.28-.1.32-.09.18-.11.16-.14.13-.15.12-.17.09-.18.07-.19.05-.19.02-.21.01-.21-.01-.21-.03-.22-.04-.22-.07-.22-.08-.23-.09-.2-.11.01.03.03.26-.04.28-.1.31-.07.15-.08.13-.1.11-.11.11-.12.09-.13.07-.13.06-.15.05-.15.03-.15.03-.16.01h-.16l-.17-.02-.16-.02-.08-.01.13.23.23.4.25.4.26.38.27.38.28.36.29.36.3.34.32.34.32.33.87.83-.91-.08-.18-.02-.18-.02-.18-.02-.18-.04-.18-.03-.17-.04-.18-.04-.18-.04-.18-.05-.18-.06-.18-.05-.18-.06-.18-.07-.18-.06-.18-.08-.17-.07-.18-.08-.18-.08-.18-.09-.18-.09-.17-.09-.03-.02.02.29.02.23.02.23.03.22.02.22.03.21.03.22.03.2.03.21.03.2.04.2.04.2.05.19.04.2.05.19.05.19.05.18.06.19.06.19.06.18.07.19.07.18.07.19.08.18.08.19.08.19.09.18.09.19.1.19.1.2.1.19.11.19.08.12.08.11.07.1.08.08.07.07.07.05.06.04.06.03.06.02.06.01h.06l.07-.01.08-.01.09-.03.1-.04.2-.1-.05-.05-.11-.2-.06-.21-.02-.22.02-.22.06-.21.11-.2.15-.18.17-.15.2-.1.22-.07.21-.02.22.02.22.07.2.1.17.15.15.18.1.2.07.21.02.22-.02.22-.07.21-.1.2-.14.18-.18.14-.04.02.14-.01-.03.59-.08.3-.14.28-.19.24-.24.21-.27.18-.3.14-.32.09-.34.05-.36.01-.36-.05-.37-.1-.36-.15-.35-.22-.33-.28-.31-.34-.14-.18-.13-.19-.12-.18-.13-.19-.11-.19-.12-.2-.11-.2-.11-.2-.1-.21-.1-.21-.1-.22-.1-.21-.09-.23-.09-.22-.08-.23-.08-.23-.08-.23-.08-.24-.07-.24-.07-.24-.07-.25-.06-.24-.07-.26-.06-.25-.05-.26-.05-.26-.06-.26-.04-.27-.05-.27-.04-.27-.04-.27-.05-.32.03-.14.05-.32.02-.08-.02.04-.1.19-.1.2-.1.19-.11.19-.11.19-.11.18-.11.19-.12.18-.11.17-.12.18-.13.17-.12.16-.12.17-.13.16-.13.16-.13.15-.13.15-.14.15-.14.14-.13.14-.14.13-.14.13-.14.13-.14.12-.15.11-.72.57.28-1.18.09-.45.08-.45.07-.46.05-.45.03-.46.03-.46.01-.47-.01-.46-.02-.47-.01-.11-.01.25-3.18.91-2.99.76-2.99.68-2.98.6-2.97.51-2.96.42-2.94.34-2.93.26-2.91.18-2.9.1-2.88.02-2.86-.06-2.839-.13-2.816-.21-2.793-.28-2.768-.36-2.742-.42-2.714-.5-2.685-.57-2.655-.64-2.623-.7-2.591-.77z" class="fil1" style="stroke-width:.309643"/>
      <path id="path370" d="M137.52 119.76c-31.967 9.592-63.104 3.888-86.119-10.958 5.067-.757 10.314-2.325 16.205-6.79 12.09 11.06 33.542 16.102 68.679 12.346.825 1.726 1.355 3.505 1.235 5.402" style="fill:#fff;stroke-width:.309643"/>
      <path id="path372" d="M162.73 102.62a2.97 2.97 0 0 0-4.195 0 2.97 2.97 0 0 0 0 4.195 2.97 2.97 0 0 0 4.195 0 2.97 2.97 0 0 0 0-4.195m-16.17 24.546a.885.885 0 0 0 1.25 0 .885.885 0 0 0 0-1.25.885.885 0 0 0-1.25 0 .885.885 0 0 0 0 1.25m-5.083-7.833-.292 1.708c.392 2.937 1.19 5.423 2.583 7.25 1.472 1.861 3.972.945 3.875-.5q-.666.105-1.333-.292c-.677.361-1.073.167-1.542-.583-1.204-2.124-1.65-3.9-1.833-6.458zm-7.69-16.105a.885.885 0 0 0-1.249 0 .886.886 0 0 0 0 1.25.886.886 0 0 0 1.25 0 .885.885 0 0 0 0-1.25m5.084 7.834.292-1.709c-.392-2.937-1.19-5.423-2.583-7.25-1.472-1.86-3.972-.944-3.875.5q.666-.104 1.333.292c.677-.361 1.073-.166 1.542.584 1.203 2.123 1.65 3.899 1.833 6.458zm-5.238-2.196c4.05 5.55 5.208 10.73 3.972 15.607 1.484-1.127 2.864-3.074 3.667-5.25-.722-2.585-1.68-4.875-2.402-7.46-1.96-2.491-3.637-2.975-5.237-2.898zM144.167 117c.847.24 1.615.07 1.868-.567.33-.834-.033-.922-.637-1.346-1.241-.87-2.095-1.74-2.671-2.609l-.104-.045c.33 1.678.849 3.197 1.544 4.567m-2.16-10.91c-.376 6.86 1.472 11.837 5.164 15.255q-2.787-.206-5.574-2.289l-2.405-7.686c.287-3.155 1.432-4.475 2.816-5.28zm12.849.7c.852.917 1.755 1.628 3.02 2.545 1.068.575 2.014.124 2.227-.58.12-.398.078-.66-.063-.866a3.2 3.2 0 0 1-1.69-.888 3.2 3.2 0 0 1-.738-1.148 8 8 0 0 1-.817-1.053c-.957-.448-1.751-.166-2.182.494-.433.665-.252.964.243 1.497m-11.182 6.39c.732.917 1.533 1.319 2.815 2.236 1.098.595 2.264.543 2.587-.271.33-.834-.033-.922-.637-1.346-1.241-.87-2.096-1.74-2.672-2.609-.956-.448-1.75-.167-2.181.494-.433.665-.366.928.088 1.496m2.783-1.649c.732.917 1.533 1.319 2.815 2.236 1.097.595 2.263.543 2.586-.271.331-.834-.032-.923-.637-1.346-1.24-.87-2.095-1.74-2.67-2.609-.957-.448-1.752-.167-2.183.494-.433.665-.365.929.089 1.497m5.823-3.092c.851.917 1.755 1.628 3.02 2.545 1.068.575 2.014.124 2.227-.58.26-.859-.239-1.077-.843-1.5-1.241-.87-1.89-1.585-2.465-2.455-.957-.448-1.751-.166-2.182.494-.433.665-.252.964.243 1.496m-2.99 1.495q1.1 1.376 3.022 2.75c1.098.596 2.057.029 2.38-.786.332-.834-.032-.922-.636-1.346-1.241-.87-2.096-1.739-2.672-2.608-.956-.45-1.75-.167-2.181.494-.433.664-.366.928.088 1.496m13.62-7.709q.474.126.505.548c.04.553 1.017.434 1.425.058s.362-.961.058-1.425a2.6 2.6 0 0 0-.504-.548c-.424-.356-1.017-.434-1.425-.058s-.594 1.283-.058 1.425" style="fill:#ea952f;stroke-width:.309643"/>
      <path id="path374" d="m162.46 102.89-.096-.091-.1-.086-.102-.08-.106-.072-.108-.068-.11-.062-.114-.055-.115-.05-.118-.045-.118-.038-.12-.032-.122-.027-.123-.02-.123-.015-.123-.009-.124-.003-.124.003-.124.009-.123.015-.123.02-.122.027-.12.032-.118.038-.117.045-.116.05-.113.055-.11.061-.109.068-.105.074-.103.08-.1.084-.095.092-.092.096-.085.1-.08.102-.073.106-.068.108-.06.11-.057.113-.05.116-.044.117-.038.119-.032.12-.027.121-.02.123-.015.123-.009.124-.003.124.003.124.009.123.015.123.02.123.027.122.032.12.038.118.045.118.05.115.055.113.062.11.067.11.074.105.08.102.084.1.092.096.096.091.1.085.102.08.105.073.108.068.111.061.113.056.116.05.117.044.119.038.12.033.121.026.123.02.123.016.124.009.124.003.123-.003.124-.01.123-.014.123-.021.121-.026.12-.033.12-.038.117-.044.115-.05.113-.056.11-.061.11-.068.105-.073.102-.08.1-.085.096-.091.09-.096.086-.1.08-.102.073-.105.067-.11.062-.11.056-.113.05-.115.044-.117.038-.12.032-.12.027-.12.02-.124.015-.123.01-.124.002-.123-.003-.124-.009-.124-.014-.123-.021-.123-.027-.121-.032-.12-.038-.12-.044-.116-.05-.115-.056-.114-.062-.11-.067-.109-.073-.105-.08-.103-.085-.1zm-15.618 23.993.077.063.085.045.092.027.094.009.094-.01.092-.026.085-.045.077-.063.063-.077.045-.086.027-.091.009-.094-.009-.095-.027-.091-.044-.085-.064-.077-.077-.064-.085-.044-.091-.027-.095-.01-.095.01-.09.027-.085.044-.078.064-.063.077-.045.085-.027.09-.009.096.01.094.026.091.045.085zm-4.443-2.159.075.225.079.22.081.217.084.214.088.21.09.207.092.203.096.2.1.195.1.193.106.188.107.185.111.181.114.177.117.174.12.17.116.154.256.283.263.22.272.167.276.12.277.074.274.034.267-.004.255-.038.236-.07.215-.097.186-.12.153-.139.118-.151.067-.13-.09-.007-.201-.034-.2-.054-.197-.07-.194-.088-.006-.003-.096.04-.147.045-.148.03-.15.014-.15-.006-.148-.026-.142-.046-.134-.065-.125-.08-.117-.093-.109-.104-.103-.115-.098-.126-.097-.135-.098-.152-.119-.212-.109-.2-.104-.2-.1-.198-.097-.198-.092-.196-.089-.196-.084-.195-.08-.195-.078-.195-.073-.195-.07-.195-.067-.196-.063-.197-.06-.197-.056-.198-.054-.2-.05-.201-.048-.203-.045-.204-.042-.207-.04-.208-.036-.211-.034-.213-.033-.216-.03-.22-.027-.222-.025-.225-.024-.229-.021-.233-.02-.236-.005-.066-.137-.106-.09-.07-.092-.07-.091-.07-.091-.071-.091-.07-.091-.07-.092-.07-.034-.027-.019.108-.018.107-.054.32-.018.108-.055.32-.008.047.03.213.039.268.042.264.045.262.047.259.05.256.051.252.055.25.057.247.06.244.062.24.065.237.068.234.07.23zm-8.882-21.226-.078-.063-.085-.045-.091-.027-.095-.009-.094.01-.091.026-.085.045-.078.063-.063.078-.045.085-.027.09-.009.095.01.095.026.091.045.085.063.078.077.063.086.044.09.027.095.01.095-.01.091-.027.085-.044.078-.063.062-.078.045-.085.027-.091.01-.095-.01-.094-.027-.091-.045-.085zm3.852.663-.095-.2-.1-.196-.1-.192-.106-.188-.108-.185-.11-.181-.114-.177-.117-.174-.12-.17-.115-.154-.257-.283-.263-.22-.272-.167-.276-.12-.277-.074-.274-.034-.267.004-.254.038-.238.07-.214.098-.185.12-.154.138-.118.151-.066.13.09.007.201.035.2.053.197.07.194.089.006.003.095-.04.147-.046.148-.03.15-.013.15.006.148.026.143.047.133.063.125.08.117.093.109.105.103.115.099.125.096.136.099.152.118.212.109.2.104.2.1.198.097.197.092.196.089.196.084.195.081.195.077.195.073.195.07.196.067.196.063.196.06.197.057.2.053.199.05.2.048.203.045.205.042.206.04.208.036.211.035.214.032.216.03.219.027.222.026.225.023.23.022.232.02.236.005.067.045.035.09.07.092.07.09.07.092.07.091.071.091.07.091.07.092.071.034.026.037-.215.018-.107.118-.688-.03-.213-.04-.267-.042-.265-.045-.262-.047-.258-.05-.256-.051-.253-.055-.25-.057-.247-.06-.243-.062-.24-.065-.238-.068-.234-.07-.23-.073-.228-.076-.224-.079-.22-.081-.218-.084-.214-.087-.21-.09-.206zm.978 18.51-.068.476-.043.246.049-.05.127-.133.125-.137.125-.14.124-.146.122-.148.12-.152.12-.155.117-.16.115-.16.114-.166.111-.168.11-.17.107-.174.106-.176.103-.179.1-.18.098-.184.095-.185.093-.188.09-.189.087-.19.084-.194.081-.194.078-.196.03-.08-.033-.117-.069-.237-.07-.236-.071-.235-.073-.234-.073-.233-.075-.231-.075-.231-.076-.23-.076-.23-.077-.23-.078-.228-.078-.229-.08-.232-.155-.453-.08-.229-.078-.229-.079-.23-.078-.229-.078-.23-.078-.232-.077-.232-.077-.232-.076-.234-.076-.236-.074-.236-.074-.237-.072-.24-.072-.24-.07-.243-.047-.166-.131-.163-.176-.21-.174-.198-.172-.188-.17-.176-.168-.166-.166-.155-.164-.146-.163-.136-.16-.126-.159-.118-.157-.108-.155-.1-.154-.093-.152-.084-.15-.077-.15-.07-.148-.063-.146-.056-.146-.05-.145-.045-.143-.038-.143-.033-.143-.027-.142-.023-.141-.018-.103-.01.286.417.342.521.325.52.309.518.292.517.276.514.26.513.242.511.227.51.21.507.196.506.178.504.163.502.146.501.131.5.115.497.1.495.083.494.069.492.052.49.038.489.022.487.007.485-.008.483-.024.481-.038.48zm5.534-7.286.053.135.054.134.055.132.056.132.057.131.058.13.059.13.06.128.06.127.047.093.109.022.129.018.123.009h.117l.11-.007.102-.015.094-.021.084-.028.075-.034.067-.039.059-.043.05-.05.046-.054.04-.062.032-.071.075-.226.02-.137-.008-.062-.019-.038-.055-.061-.116-.092-.176-.118-.218-.148-.235-.168-.226-.168-.216-.168-.208-.168-.2-.168-.192-.17-.184-.168-.175-.17-.166-.167.03.106.043.144.043.142.045.142.045.14.047.14.048.14.049.138.05.137.05.137zm-4.155-5.053-.042.25-.038.262-.033.272-.021.207.051.163.226.721.075.24.225.721.076.24.225.72.075.24.15.481.076.24.075.24.225.721.076.24.225.72.075.24.451 1.442.037.119.07.051.17.122.169.117.17.114.17.11.168.108.17.103.168.1.17.096.168.092.168.088.169.086.168.081.168.078.168.074.167.07.168.068.167.063.168.06.167.056.167.053.167.05.167.045.167.042.166.039.032.007-.175-.189-.316-.362-.304-.371-.293-.381-.282-.391-.27-.401-.258-.41-.246-.421-.235-.43-.223-.44-.21-.45-.199-.46-.186-.47-.174-.48-.162-.49-.15-.5-.137-.51-.125-.52-.112-.53-.1-.54-.086-.551-.074-.561-.062-.572-.048-.581-.037-.593-.022-.602-.01-.613.003-.624.012-.506-.08.065-.11.092-.106.096-.105.101-.102.106-.1.11-.096.116-.095.121-.093.127-.09.133-.087.14-.084.147-.082.153-.079.161-.075.169-.073.176-.069.185-.066.194-.062.202-.059.212-.054.22-.051.231zm16.218-3.026.17.15.172.15.178.15.183.149.188.15.194.153.202.154.207.157.216.16.224.164.204.15.151.072.16.06.154.042.146.024.138.009.13-.005.12-.018.113-.03.103-.04.093-.049.084-.057.073-.063.063-.069.052-.074.041-.078.033-.087.028-.108.017-.097.006-.08-.002-.064-.008-.053-.002-.005-.06-.015-.129-.036-.126-.04-.126-.047-.124-.05-.123-.055-.12-.06-.12-.064-.116-.07-.115-.074-.113-.079-.11-.083-.107-.089-.105-.093-.103-.099-.135-.143-.127-.15-.118-.154-.108-.16-.1-.164-.088-.168-.08-.172-.041-.1-.072-.08-.116-.135-.112-.136-.107-.137-.104-.138-.101-.139-.099-.141-.03-.045-.058-.025-.145-.05-.138-.034-.131-.022-.125-.01-.117.002-.111.012-.106.022-.1.032-.095.04-.09.049-.085.058-.081.067-.077.075-.071.085-.068.095-.061.1-.048.089-.033.076-.021.063-.012.052-.004.042.001.036.006.036.012.039.02.045.029.053.04.062.052.07.063.076.075.085.084.092.155.165.158.16.159.157.162.154zm-11.834 5.778.13.144.133.136.136.129.14.124.147.12.153.12.16.12.168.12.176.122.196.135.39.264.216.148.227.157.212.15.17.086.184.08.182.064.178.05.172.036.164.022.155.008.144-.005.131-.018.118-.03.103-.039.088-.048.074-.056.063-.065.053-.075.046-.092.073-.223.02-.137-.008-.062-.018-.038-.056-.061-.116-.092-.175-.118-.219-.148-.235-.168-.225-.168-.217-.168-.208-.168-.2-.168-.192-.17-.183-.168-.176-.17-.168-.17-.16-.17-.153-.17-.146-.17-.138-.171-.13-.171-.125-.172-.05-.073-.06-.026-.145-.049-.138-.035-.13-.022-.125-.01-.118.002-.111.012-.105.023-.1.03-.096.041-.09.05-.085.057-.08.067-.077.076-.072.084-.069.097-.065.104-.055.095-.041.083-.03.071-.019.059-.01.048-.004.039v.035l.006.034.01.04.02.047.028.057.04.067.051.076.063.086.074.094zm2.783-1.649.13.144.133.136.136.129.14.124.147.12.153.12.16.12.167.12.177.122.196.135.39.264.216.148.226.157.213.15.17.086.184.08.182.064.178.05.171.036.165.022.155.008.144-.005.13-.018.119-.03.102-.039.088-.048.075-.056.063-.065.053-.075.045-.092.074-.223.02-.137-.008-.062-.018-.038-.056-.061-.116-.092-.176-.118-.218-.148-.235-.168-.226-.168-.216-.168-.208-.168-.2-.168-.192-.17-.184-.168-.175-.17-.168-.17-.16-.17-.153-.17-.146-.17-.138-.171-.131-.171-.124-.172-.05-.073-.06-.026-.145-.049-.138-.035-.131-.022-.125-.01-.117.002-.111.012-.106.023-.1.03-.095.041-.09.05-.085.057-.081.067-.076.076-.072.084-.069.097-.065.104-.055.095-.042.083-.03.071-.018.059-.01.047-.005.04.001.034.005.035.011.04.019.047.028.057.04.067.052.076.063.086.073.094zm5.676-3.268.156.165.157.16.16.157.161.154.165.152.17.15.172.15.178.15.182.149.189.15.194.153.201.154.208.157.216.16.223.164.205.15.15.072.161.06.154.042.146.024.138.009.13-.005.12-.018.113-.03.102-.04.093-.049.084-.057.074-.063.062-.07.053-.073.041-.079.032-.085.03-.117.017-.102.005-.084-.004-.065-.01-.054-.017-.046-.022-.043-.032-.046-.043-.05-.055-.053-.067-.057-.08-.06-.091-.065-.1-.069-.11-.074-.115-.08-.232-.165-.219-.163-.207-.16-.195-.159-.185-.157-.175-.157-.166-.156-.157-.155-.15-.157-.142-.156-.136-.158-.13-.16-.123-.16-.12-.162-.116-.165-.047-.07-.059-.024-.145-.05-.138-.035-.13-.021-.125-.01-.118.002-.111.012-.105.022-.1.031-.096.04-.09.05-.085.058-.081.066-.076.076-.072.084-.067.096-.062.1-.047.088-.034.076-.021.064-.011.052-.004.042v.036l.007.035.011.04.02.044.029.054.04.061.052.07.064.077.074.085zm-2.97 1.517.135.165.142.165.148.166.154.166.161.167.168.166.174.167.18.168.188.167.193.168.2.168.208.169.213.168.22.169.227.168.206.15.155.075.162.058.154.038.147.019.139.002.132-.013.126-.028.12-.04.113-.054.107-.065.1-.076.091-.086.083-.096.074-.103.063-.11.052-.113.075-.228.02-.137-.008-.062-.018-.038-.056-.061-.116-.092-.176-.118-.218-.148-.235-.169-.226-.167-.216-.168-.208-.168-.2-.168-.192-.17-.184-.168-.175-.17-.168-.17-.16-.17-.153-.17-.146-.17-.138-.171-.131-.171-.124-.172-.05-.073-.06-.026-.145-.049-.138-.035-.13-.022-.125-.01-.118.002-.111.012-.105.022-.1.032-.096.04-.09.05-.085.057-.081.067-.076.076-.072.084-.069.097-.065.104-.055.095-.041.083-.03.071-.02.059-.01.047-.003.04v.034l.005.035.011.04.02.047.028.057.04.067.05.076.064.086z" style="fill:#f2b004;stroke-width:.309643"/>
      <g id="g400" fill="#f9d000" style="stroke-width:.0958793">
        <path id="polygon376" d="m151.58 109.44-.16-.17-.15-.18-.15-.18-.13-.18-.12-.16-.06-.02-.11-.03-.1-.01-.08-.01h-.08l-.08.01-.07.01-.06.02-.06.03-.06.03-.05.04-.06.04-.05.05-.05.06-.05.08-.06.08-.04.08-.03.06-.02.05v.01l.01.02.02.05.05.06.05.08.07.08.13.16.13.16.15.16.15.16.15.16.16.16.17.16.18.17.18.16.19.17.2.16.2.16.21.17.21.16.23.17.17.13.11.05.12.04.11.03.11.01h.18l.08-.02.08-.03.07-.03.08-.05.06-.05.07-.06.05-.06.06-.08.04-.07.04-.08.04-.15-.01-.01-.17-.11-.22-.15-.24-.18-.23-.17-.23-.17-.21-.17-.21-.18-.19-.17-.2-.18-.18-.17-.17-.18z" class="fil12" style="stroke-width:.309643"/>
        <path id="polygon378" d="m156.36 109.62-.12-.08-.24-.17-.23-.17-.21-.17-.2-.16-.2-.16-.18-.17-.17-.16-.17-.16-.15-.17-.15-.16-.14-.17-.14-.16-.13-.17-.12-.17-.1-.14-.07-.02-.1-.03-.1-.02h-.17l-.07.01-.07.01-.07.02-.06.03-.05.03-.06.03-.05.05-.05.05-.05.06-.05.07-.05.08-.04.06-.02.05v.02l.03.04.04.06.05.06.07.08.08.08.15.16.15.16.16.15.15.15.16.15.17.15.17.14.17.15.18.14.19.15.19.15.19.15.21.16.21.16.23.16.17.13.1.05.13.04.12.04.11.02h.18l.08-.02.07-.01.06-.03.06-.03.05-.03.03-.03.03-.03.03-.04.02-.03.01-.05.02-.08.01-.06.01-.04v-.01l-.01-.01-.01-.02-.04-.03-.05-.04-.07-.05-.08-.06-.1-.07z" class="fil12" style="stroke-width:.309643"/>
        <path id="polygon380" d="m148.44 110.69-.15-.18-.14-.18-.11-.16-.06-.02-.11-.03-.1-.02h-.17l-.07.01-.07.01-.07.02-.06.03-.05.03-.06.04-.05.04-.05.05-.05.06-.05.07-.06.09-.04.08-.04.06-.01.05-.01.01.01.02.03.05.04.06.06.07.06.09.12.14.12.13.12.13.13.12.13.11.14.12.14.11.16.12.16.11.17.12.2.13.39.27.21.15.23.16.19.13.14.07.16.07.16.05.15.05.14.03.14.02h.23l.09-.02.07-.01.06-.03.04-.02.03-.02.02-.02.02-.02.02-.04.04-.14-.02-.01-.16-.11-.22-.16-.25-.17-.23-.17-.22-.17-.22-.18-.2-.17-.2-.18-.19-.17-.18-.17-.18-.18-.16-.18-.16-.18z" class="fil12" style="stroke-width:.309643"/>
        <path id="polygon382" d="m145.65 112.34-.14-.18-.14-.18-.11-.16-.07-.02-.1-.03-.1-.02h-.17l-.08.01-.06.01-.07.02-.06.03-.05.03-.06.03-.05.05-.05.05-.05.06-.06.07-.05.09-.05.08-.03.06-.02.04v.02l.01.02.03.05.04.06.05.07.07.09.12.14.12.13.12.13.13.12.13.11.14.12.14.11.15.11.17.12.17.12.19.13.39.27.22.15.23.16.19.13.13.07.16.07.16.05.16.05.14.03.13.01.13.01h.1l.1-.02.07-.01.06-.03.04-.02.02-.02.03-.02.01-.02.02-.05.05-.13-.02-.01-.16-.12-.23-.15-.24-.17-.23-.17-.22-.17-.22-.18-.2-.17-.2-.18-.19-.17-.18-.18-.18-.17-.17-.18-.16-.18z" class="fil12" style="stroke-width:.309643"/>
        <path id="polygon384" d="m156.94 106.27-.03-.03-.12-.15-.12-.14-.11-.14-.11-.15-.1-.14-.07-.09-.06-.02-.11-.03-.09-.02h-.18l-.07.01-.07.01-.06.02-.06.03-.06.03-.05.03-.06.05-.05.05-.05.06-.05.07-.05.08-.03.06-.02.05-.01.01.01.01.03.04.03.06.06.06.07.08.08.09.15.16.15.15.15.15.16.15.16.15.17.15.16.14.18.15.18.14.18.15.19.15.2.15.21.16.21.16.22.16.18.13.1.05.13.05.11.03.11.02h.19l.08-.01.07-.02.06-.03.05-.03.05-.03.04-.03.03-.03.02-.04.02-.03.02-.05-.03-.01-.14-.05-.14-.05-.13-.07-.14-.06-.13-.07-.13-.08-.13-.08-.12-.09-.12-.09-.12-.1-.12-.1-.11-.12-.15-.15-.14-.17-.13-.17-.12-.18-.11-.18-.1-.19-.09-.19z" class="fil12" style="stroke-width:.309643"/>
        <path id="polygon386" d="m141.21 109.2-.02-.61-.01-.62v-.19l-.08.1-.08.11-.08.13-.08.12-.08.14-.08.14-.07.15-.07.16-.07.16-.06.18-.07.18-.05.19-.06.2-.05.21-.05.22-.05.23-.04.24-.03.26-.03.26-.02.12.03.09.23.72.07.24.23.72.07.24.23.73.07.24.15.48.08.24.07.24.23.72.07.24.23.72.07.24.45 1.43.13.1.17.11.16.11.17.11.16.1.17.1.16.1.16.09.17.09.16.09.16.08.17.08.16.07.16.08.16.06.16.07.07.03-.24-.32-.29-.41-.28-.41-.26-.42-.26-.43-.24-.44-.22-.45-.22-.46-.2-.47-.2-.48-.17-.49-.17-.5-.15-.51-.14-.52-.13-.53-.11-.54-.1-.56-.09-.56-.08-.57-.06-.58-.05-.59z" class="fil12" style="stroke-width:.309643"/>
        <path id="polygon388" d="m144.48 115.38-.22-.18-.05-.04.03.09.05.13.05.13.06.13.05.13.06.12.05.13.06.13.06.12.02.04h.01l.1.01h.09l.08-.01.07-.01.06-.01.05-.02.04-.01.03-.02.02-.02.02-.01.01-.02.02-.02.01-.03.05-.14-.02-.02-.16-.11-.23-.15-.24-.17z" class="fil12" style="stroke-width:.309643"/>
        <path id="polygon390" d="m136.79 110.7-.15-.12-.15-.1-.15-.11-.14-.09-.15-.08-.14-.08-.14-.07-.13-.07-.14-.06-.13-.05-.12-.04.1.16.33.53.31.52.3.53.28.52.27.52.24.52.23.52.22.52.2.51.18.52.16.51.15.51.14.51.12.51.1.5.08.51.07.51.06.5.03.5.03.5v.99l-.03.49-.03.42.04-.06.11-.15.12-.16.11-.16.1-.16.11-.17.1-.17.11-.17.1-.17.09-.18.1-.17.09-.18.09-.18.09-.19.08-.18.09-.19.07-.19.06-.15-.06-.22-.07-.24-.07-.23-.08-.23-.07-.23-.07-.23-.08-.23-.07-.23-.08-.23-.08-.23-.07-.23-.08-.22-.08-.23-.16-.46-.07-.23-.08-.23-.08-.23-.08-.23-.08-.23-.08-.23-.08-.23-.07-.24-.08-.23-.07-.24-.08-.24-.07-.24-.08-.24-.07-.24-.07-.25-.03-.09-.08-.1-.17-.2-.16-.19-.17-.18-.16-.17-.16-.16-.16-.15-.16-.14z" class="fil12" style="stroke-width:.309643"/>
        <path id="polygon392" d="m137.68 106.54.06.2.05.21.04.21.05.21.04.22.03.21.04.22.03.22.03.23.03.22.02.23.03.24.02.23.01.14.09.07.07.05.06-.31-.03-.16-.03-.26-.05-.26-.04-.26-.05-.25-.04-.25-.06-.25-.05-.25-.06-.24-.05-.24-.07-.23-.06-.23-.07-.23-.06-.23-.08-.22-.07-.22-.08-.21-.07-.21-.09-.21-.08-.21-.09-.2-.09-.19-.09-.19-.1-.19-.09-.19-.11-.18-.1-.18-.1-.17-.12-.17-.11-.17-.11-.16-.1-.14-.23-.25-.22-.18-.22-.14-.23-.09-.22-.07-.22-.02h-.22l-.2.03-.18.06-.11.05.07.02.06.03.14-.04.18-.04.2-.02.2.01.2.04.2.06.18.09.16.1.14.12.14.12.12.14.11.14.11.15.11.17.12.23.11.2.11.21.1.2.1.2.1.2.09.2.08.21.09.2.08.2.07.2.08.2.06.2.07.2.06.21.06.2z" class="fil12" style="stroke-width:.309643"/>
        <path id="polygon394" d="m133.25 103.9.01-.01v-.08l-.01-.02-.02-.01-.01-.02h-.02l-.02-.01h-.04l-.02.01h-.01l-.02.02-.01.01-.01.02-.01.02v.04l.01.02.01.01.01.02.02.01.01.01.02.01h.04l.02-.01.02-.01.02-.01z" class="fil12" style="stroke-width:.309643"/>
        <path id="polygon396" d="m142.9 124.66-.06-.2-.06-.2-.06-.21-.06-.2-.05-.21-.05-.21-.04-.21-.05-.21-.04-.21-.03-.22-.04-.22-.03-.22-.03-.22-.03-.23-.03-.23-.02-.23-.02-.24-.02-.13-.09-.07-.06-.05-.06.31.02.15.04.26.04.26.05.26.04.26.05.25.05.25.06.24.05.24.06.24.06.24.07.23.06.23.07.22.07.22.08.22.07.22.08.21.08.21.09.2.09.2.09.2.09.19.09.19.1.18.1.18.11.18.1.18.11.17.12.16.11.17.1.13.23.25.22.18.22.14.23.1.22.06.22.03.21-.01.2-.03.19-.05.11-.05-.07-.03-.07-.03-.13.04-.19.04-.19.02-.21-.01-.2-.03-.19-.07-.18-.08-.16-.1-.15-.12-.13-.13-.12-.13-.11-.15-.11-.15-.11-.17-.12-.22-.12-.21-.1-.2-.11-.2-.09-.21-.1-.2-.09-.2-.09-.2-.08-.2-.08-.2-.08-.2-.07-.2z" class="fil12" style="stroke-width:.309643"/>
        <path id="polygon398" d="m147.1 126.48-.01.02v.02l-.01.02.01.02v.02l.01.01.01.02.02.01.02.01.01.01h.04l.02-.01.02-.01.02-.01.01-.02.01-.01v-.02l.01-.02-.01-.02v-.02l-.01-.02-.01-.02-.02-.01-.02-.01h-.07l-.02.01-.02.01z" class="fil12" style="stroke-width:.309643"/>
      </g>
      <path id="polygon402" d="m159.91 102.65-.1.04-.1.04-.1.05-.09.05-.09.06-.09.06-.09.07-.08.07-.08.08-.08.08-.07.08-.07.09-.06.09-.06.09-.05.09-.05.1-.04.1-.04.1-.03.1-.03.1-.02.1-.02.11-.01.1-.01.11v.21l.01.1.01.11.02.1.02.11.03.1.03.1.04.1.04.1.05.09.05.09.06.1.06.09.07.08.07.09.08.08.08.08.08.07.09.07.09.06.09.06.09.05.1.05.1.04.1.04.1.03.1.03.1.02.11.02.1.01.11.01h.21l.1-.01.11-.01.1-.02.11-.02.1-.03.1-.03.1-.04.1-.04.09-.05.09-.05.1-.06.09-.06.08-.07.09-.07.08-.08.08-.08.07-.09.07-.08.06-.09.06-.09.05-.1.05-.09.04-.1.04-.1.03-.1.03-.1.02-.11.02-.1.01-.11.01-.1v-.21l-.01-.11-.01-.1-.02-.11-.02-.1-.03-.1-.03-.1-.04-.1-.04-.1-.05-.09-.05-.1-.06-.09-.06-.09-.07-.09-.07-.08-.08-.08-.08-.08-.09-.07-.08-.07-.09-.06-.1-.06-.09-.05-.09-.05-.1-.04-.1-.04-.1-.03-.1-.03-.11-.02-.1-.02-.11-.01-.1-.01h-.21l-.11.01-.1.01-.11.02-.1.02-.1.03z" style="fill:#dea817;stroke-width:.309643"/>
      <g id="g418" fill="#fff500" style="stroke-width:.0958793">
        <path id="polygon404" d="m151.56 110.6.18.16.19.16.2.16.21.16.21.16.22.17.14.1.06.03.08.03.07.02.06.01h.05l.05-.01.04-.01.03-.01.04-.02.03-.02.04-.03.04-.03.02-.03-.13-.09-.25-.18-.24-.18-.23-.18-.22-.17-.21-.18-.21-.18-.19-.18-.19-.19-.18-.18-.18-.18-.16-.19-.16-.18-.15-.19-.14-.19-.04-.05-.02-.01-.06-.01h-.1l-.04.01h-.03l-.03.01-.02.01-.02.01-.03.02-.03.02-.02.03-.03.03-.04.05-.02.05.05.07.13.15.13.15.14.16.14.15.15.16.16.15.16.16.17.16z" class="fil5" style="stroke-width:.309643"/>
        <path id="polygon406" d="m154.54 108.66-.17-.17-.17-.17-.15-.17-.15-.18-.14-.17-.14-.18-.13-.17-.02-.04h-.01l-.07-.01h-.13l-.03.01-.03.01-.03.01-.02.01-.03.02-.02.02-.03.02-.03.04.02.02.07.08.15.15.15.15.15.15.15.15.16.14.16.14.16.14.17.15.18.14.18.15.18.14.2.15.2.16.22.15.22.17.14.1.06.03.09.03.08.03.07.01h.12l-.08-.06-.1-.07-.13-.09-.24-.17-.23-.17-.22-.17-.21-.17-.2-.17-.19-.17z" class="fil5" style="stroke-width:.309643"/>
        <path id="polygon408" d="M147.67 110.49h-.08l-.03.01-.03.01-.03.01-.02.01-.02.02-.03.02-.03.03-.02.03-.04.05-.03.04.06.07.11.14.11.12.11.11.11.11.12.11.13.1.14.11.15.11.15.11.17.12.2.13.39.27.22.15.23.16.16.12.1.05.14.06.13.04.08.02-.02-.01-.23-.17-.23-.18-.22-.18-.22-.18-.2-.18-.2-.18-.18-.18-.19-.18-.17-.19-.16-.18-.16-.18-.16-.19-.14-.19-.04-.05-.01-.01-.07-.01z" class="fil5" style="stroke-width:.309643"/>
        <path id="polygon410" d="M144.89 112.14h-.09l-.03.01-.02.01-.03.01-.02.01-.03.02-.02.02-.03.02-.03.04-.03.05-.03.04.05.07.11.14.11.12.11.11.12.11.12.11.13.1.14.11.14.11.16.11.17.12.19.13.39.27.22.15.23.16.17.12.1.05.14.06.13.04.07.02-.01-.01-.24-.17-.22-.18-.22-.18-.22-.18-.2-.18-.2-.18-.19-.18-.18-.18-.17-.19-.17-.18-.16-.19-.15-.18-.14-.19-.04-.05-.01-.01-.07-.01z" class="fil5" style="stroke-width:.309643"/>
        <path id="polygon412" d="m155.62 105.89.02.02.07.08.15.15.14.16.16.14.15.15.15.14.16.14.17.15.17.14.05.04-.08-.12-.12-.2-.11-.2-.09-.2-.12-.14-.12-.14-.12-.15-.11-.15-.1-.14-.07-.01h-.14l-.03.01-.03.01-.02.01-.02.01-.03.02-.02.02-.03.02z" class="fil5" style="stroke-width:.309643"/>
        <path id="polygon414" d="m141.05 111.6-.07-.58-.07-.59-.05-.6-.04-.61v-.01l-.03.09-.05.17-.06.18-.05.19-.05.2-.05.21-.04.22-.04.24-.04.24-.03.25v.04l.23.74.07.24.23.72.07.24.23.72.07.24.15.48.08.24.07.24.23.72.07.24.23.72.07.24.42 1.31.02.02.16.11.16.11.16.1.16.1.16.1.16.09.16.1-.24-.38-.26-.44-.24-.45-.24-.46-.22-.47-.2-.48-.2-.49-.18-.51-.17-.51-.15-.52-.15-.53-.13-.54-.11-.55-.11-.56z" class="fil5" style="stroke-width:.309643"/>
        <path id="polygon416" d="m139.8 119.73.08-.18.08-.18.07-.19.01-.02-.03-.09-.07-.23-.07-.24-.07-.22-.07-.23-.07-.23-.08-.23-.07-.23-.08-.23-.07-.22-.08-.23-.08-.23-.08-.23-.15-.45-.08-.23-.08-.23-.08-.23-.08-.23-.08-.23-.08-.24-.07-.23-.08-.24-.08-.23-.08-.24-.07-.24-.08-.24-.07-.25-.07-.24-.07-.25-.01-.02-.03-.03-.16-.2-.16-.18-.16-.17-.16-.17-.15-.15-.15-.14-.15-.13-.15-.12-.14-.11-.07-.06v.01l.3.53.29.53.26.53.26.53.23.53.22.52.2.53.19.52.17.52.15.53.14.52.12.52.1.52.09.51.07.52.05.51.04.51.03.51v.54l.01-.01.1-.17.09-.17.09-.17.09-.18.09-.18z" class="fil5" style="stroke-width:.309643"/>
      </g>
      <path id="polygon420" fill="#0a0b0c" d="m160.04 103.02-.09.03-.08.03-.08.04-.07.04-.08.05-.07.05-.07.06-.07.06-.07.06-.06.07-.06.07-.06.07-.05.07-.05.08-.04.08-.04.07-.03.09-.03.08-.03.08-.02.08-.02.09-.01.08-.01.09-.01.09v.26l.02.08.01.09.02.08.02.09.03.08.03.08.03.08.04.08.04.08.05.07.05.08.06.07.06.07.06.06.07.07.07.06.07.05.07.05.08.05.08.04.07.04.08.04.09.03.08.03.08.02.09.02.08.01.09.01.09.01h.17l.08-.01.09-.01.09-.01.08-.02.09-.03.08-.02.08-.03.08-.04.08-.04.08-.04.07-.05.08-.05.07-.05.07-.06.06-.07.07-.06.06-.07.05-.07.05-.08.05-.07.04-.08.04-.08.04-.08.03-.08.02-.08.03-.09.02-.08.01-.09.01-.08.01-.09v-.17l-.01-.09-.01-.09-.01-.08-.02-.09-.03-.08-.02-.08-.03-.09-.04-.08-.04-.07-.04-.08-.05-.08-.05-.07-.05-.07-.06-.07-.07-.07-.06-.06-.07-.06-.07-.06-.08-.05-.07-.05-.08-.04-.08-.04-.08-.03-.08-.03-.08-.03-.09-.02-.08-.02-.09-.01-.08-.01-.09-.01h-.18l-.08.01-.09.01-.08.01-.09.02-.08.02z" class="fil1" style="stroke-width:.309643"/>
      <path id="polygon422" fill="#004f81" d="m160.08 103.16-.07.02-.08.04-.07.03-.07.04-.07.04-.06.05-.07.05-.06.06-.07.06-.05.06-.06.06-.05.07-.05.06-.04.07-.04.07-.03.08-.04.07-.02.07-.03.08-.02.08-.02.08-.01.08-.01.07-.01.08v.16l.01.08.01.08.01.08.02.08.02.08.03.07.02.08.04.07.03.07.04.07.04.07.05.07.05.07.06.06.05.06.07.06.06.06.07.04.06.05.07.05.07.04.08.03.07.03.07.03.08.03.08.02.08.01.07.02.08.01h.32l.08-.01.08-.02.08-.01.07-.03.08-.02.08-.03.07-.03.07-.03.07-.04.07-.05.07-.05.07-.05.06-.05.06-.06.06-.06.05-.06.05-.07.05-.07.04-.07.04-.07.04-.07.03-.07.03-.08.02-.07.02-.08.02-.08.01-.08.01-.08.01-.08v-.16l-.01-.07-.01-.08-.01-.08-.02-.08-.02-.08-.02-.08-.03-.07-.03-.07-.04-.08-.04-.07-.04-.07-.05-.06-.05-.07-.05-.06-.06-.06-.06-.06-.06-.06-.07-.05-.07-.05-.07-.04-.07-.04-.07-.03-.07-.04-.08-.02-.08-.03-.07-.02-.08-.02-.08-.01-.08-.01h-.08l-.08-.01-.08.01h-.08l-.08.01-.07.01-.08.02-.08.02z" class="fil14" style="stroke-width:.309643"/>
      <path id="polygon424" fill="#004f81" d="m160.17 104.2.41-1.13.05-.01h.01l.44 1.17 1.2.44v.01l-1.12.43-.55 1.25h-.01l-.51-1.27-1.11-.39v-.05z" class="fil14" style="stroke-width:.309643"/>
      <path id="polygon426" d="m160.21 104.24.4-1.11.43 1.14 1.12.41-1.04.4-.51 1.16-.48-1.19-1.07-.37z" style="fill:#2c6693;stroke-width:.309643"/>
      <path id="polygon428" d="m160.25 104.28.36-1.01.39 1.04 1.01.37-.93.36-.47 1.07-.44-1.1-.97-.34z" style="fill:#5981a8;stroke-width:.309643"/>
      <path id="polygon430" d="m160.29 104.32.32-.9.35.93.91.33-.83.32-.43.98-.4-1.01-.86-.3z" style="fill:#84a5c3;stroke-width:.309643"/>
      <path id="polygon432" d="m160.33 104.36.28-.8.31.83.81.29-.72.28-.4.89-.37-.92-.74-.26z" style="fill:#c3dce3;stroke-width:.309643"/>
      <path id="polygon434" d="m160.37 104.4.24-.69.28.71.69.26-.61.24-.35.8-.34-.83-.63-.22z" style="fill:#86bbdb;stroke-width:.309643"/>
      <path id="polygon436" d="m160.41 104.44.2-.58.24.6.59.22-.51.2-.31.71-.3-.74-.52-.19z" style="fill:#52a2d2;stroke-width:.309643"/>
      <path id="polygon438" d="m160.45 104.48.17-.48.19.5.49.18-.41.16-.27.62-.26-.65-.41-.15z" style="fill:#008eca;stroke-width:.309643"/>
      <path id="polygon440" d="m160.49 104.51.13-.36.15.39.38.14-.29.12-.24.53-.22-.56-.3-.11z" style="fill:#007cc3;stroke-width:.309643"/>
    </g>
  </g>
</svg>
