<svg id="flag-icons-ru-agb" class="fi fi-ru-agb" viewBox="0 0 640 480" xmlns="http://www.w3.org/2000/svg" xml:space="preserve" width="640" height="480" version="1.1">
  <metadata id="flag-icons">
    <name>Agin-Buryat Okrug</name>
    <code>ru-agb</code>
    <iso>true</iso>
    <type>Place</type>
    <capital>Aginskoye</capital>
    <continent>Asia</continent>
  </metadata>
  <defs id="defs10179">
    <style id="style10177" type="text/css">
      .fil1{fill:gold}
    </style>
  </defs>
  <g id="g11048" style="stroke-width:.75" transform="scale(1.33333)">
    <path id="rect10182" d="M0 0h480v360H0Z" style="fill:#fff;stroke-width:.75"/>
    <path id="rect10184" d="M0 0h320v360H0Z" class="fil1" style="stroke-width:.75"/>
    <path id="rect10186" d="M0 0h160v360H0Z" style="fill:#0051ba;stroke-width:.75"/>
  </g>
  <g id="g11043" style="stroke-width:1.40625" transform="scale(.7111)">
    <path id="_244292232" d="M146.352 91.285c-1.757-1-2.163-2.248-2.297-3.62-6.082 1.123-10.676-1.123-14.595-3.62-2.973-1.872-8.243-9.61-5.946-15.601 1.891-4.618 2.568-4.37 4.188-6.99-.405-4.493-1.08-7.614 1.352-9.111.406-2.621 1.216-4.369 2.838-7.115 3.107 2.995 4.594 8.113 3.243 10.484-1.08 1.873-.405 4.619-.135 5.493.946 1.872 2.837 2.246 3.108 3.619-.405 5.241.675 6.364 2.568 6.115 3.108-1.123 1.892-3.993-.541-7.862-2.162-3.37-.676-8.363 4.325-12.108.54.125 1.622-3.619 1.351-6.365-1.892-4.369-2.297-7.738-.676-9.736 2.298-4.118 4.73-.623 5.541-4.867.676.124.405 3.495 1.891 5.118 3.784 3.868.676 10.983.811 12.48-.134 2.247.541 4.119 2.839 5.991 4.729 3.495 1.89 12.607.27 11.608-.54 3.744.135 4.244 1.215 4.743.541.25 1.893 0 2.433-.25-.406-2.621-.54-6.116 2.432-7.739 2.162-1.123 1.622-2.87 1.622-5.99-1.892-4.119-1.082-8.613 2.432-9.985.811 2.497 1.351 4.369 2.162 6.24.676 1.248 1.891 1.498 2.568 3.995-.54 2.496-.675 6.116 1.891 7.863 2.163 2.246 3.584 5.355 2.297 10.859s-5.994 10.043-9.189 10.734c-3.193.69-6.08 1.621-11.08 1.747-.135 1.372-.81 2.62-2.162 3.744-3.109.999-5.27.748-6.757.125z" class="fil1" style="stroke-width:1.40625"/>
    <path id="path10189" d="M204.579 144.358c17.985 38.54-10.206 85.642-54.58 85.642-44.016 0-72.255-46.439-54.91-84.925C92.257 176.942 117.62 205 149.866 205c32.544 0 57.981-28.574 54.713-60.643z" class="fil1" style="stroke-width:1.40625"/>
    <circle id="circle10191" cx="150" cy="150" r="50" class="fil1" style="stroke-width:1.40625"/>
  </g>
</svg>
