<svg id="flag-icons-ru-che" class="fi fi-ru-che" viewBox="0 0 640 480" xmlns="http://www.w3.org/2000/svg" width="640" height="480" fill-rule="evenodd">
  <metadata id="flag-icons">
    <name>Chelyabinsk Oblast</name>
    <code>ru-che</code>
    <iso>true</iso>
    <type>Place</type>
    <capital>Chelyabinsk</capital>
    <continent>Asia</continent>
  </metadata>
  <g style="stroke-width:.24945">
    <path fill="#d61a0c" d="M0 0h169.33v112.89H0Z" style="stroke-width:.207875" transform="matrix(3.7796 0 0 4.25193 -.003 0)"/>
    <path fill="#fecc00" d="M0 75.259h169.33v18.815H0Z" style="stroke-width:.207875" transform="matrix(3.7796 0 0 4.25193 -.003 0)"/>
  </g>
  <g style="stroke-width:.235187">
    <g fill-rule="nonzero" style="stroke-width:.195989">
      <path d="M54.481 44.862a.5.5 0 0 1 .264-.13c.103-.01.234.062.308.116a6.4 6.4 0 0 1 2.266-.522c1.14-.05 3.094.116 4.112.948.813.664 1.076 1.668.846 3.038.164.065.295.286.237.454a.6.6 0 0 1-.136.194c.339.708.524 1.363.572 2.133.498.166 2.92.865 2.92 1.632.39.344.852.954.952 1.807.277.416.32.963.475 1.427.055.164.113.321.19.476.214.412.323.881.048 1.237.26.429.469.784.469 1.27.008.183.07.282.15.442.272.301.525.632.803.938.433.478.89.936 1.28 1.433.805 1.025 1.64 2.482 2.316 3.59.587.964 1.186 1.233 1.94 2.18 1.451 1.824 2.347 3.885 3.085 6.18.271.793.504 1.61.707 2.421.148.592.359 1.226.399 1.838.012.185-.005.374.008.6.046.767.329 1.586.64 2.271-1.687-1.088-1.893-2.244-2.379-4.043l-.285.57c-.424-.593-.478-1.12-.619-1.854l-.142.19c-.331-.51-.337-.986-.476-1.522-.048.095-.048.238-.095.38-.821-.801-.883-2.384-1.04-3.502-.134-.96-.335-2.07-.897-2.736.64 1.667.874 3.345.795 5.097l-.237-.095c.152.612.21 1.351 0 1.855.253.762.34 1.78.142 2.568.684 1.169 1.14 2.422 1.575 3.697.243.711.378 1.234.728 1.61.218.234.519.412.98.544.052 1.476.01 2.34-.126 3.59-.142 1.312-.439 2.72-.434 4.08 0 .413.038.826.086 1.25.109.965.14 1.833-.098 2.78-1.139.215-2.037 1.042-2.33 2.046h-5.613c.39-1.416 1.64-2.307 3.33-2.378.067-.389.289-.771.57-1.142.756-.795 1.524-2.04 1.57-3.187.076-1.058.07-2.196-.077-3.26-.133-.972-.56-1.788-1.061-2.59-.488-.782-.815-1.664-1.145-2.521-.34-.918-1.089-1.698-1.903-2.283.229 1.121.221 1.895.12 2.808-.064.755-.028 1.496.235 2.21.11.303.216.572.074.88-.274.684-.668 1.366-1.047 1.998a85 85 0 0 0-1.41 2.499c-.816 1.535-1.574 3.336-1.92 5.063-1.203.448-2.478.89-3.176 1.903h-5.29c.33-1.398 1.298-2.128 2.645-2.367.367-.065.74-.106 1.065-.106.8-.208.696-.513.904-.904.145-.381.637-.722.935-.999.488-.488.89-.972 1.241-1.473.752-1.072 1.74-2.963 2.057-4.235.05-1.099-.157-2.936-.38-4.138-.318-1.01-1.464-2.65-2.015-5.018-.712-.713-1.296-1.604-1.878-2.42-.983.481-2.514 1.075-3.956.874l.143.429a7.3 7.3 0 0 1-1.38.047l.096.143c-.647.302-1.759.474-3.092.19.127.127.328.227.476.333-.902.044-1.807.087-2.711.048.74 2.355 1.034 5 .285 6.706.405 2.042.295 3.962.366 5.88.01.424.385 1.168.518 2.084.115.784.014 1.762-.218 2.69l-.048.238c-1.176-.333-2.612 1.698-2.972 1.998h-5.066c.2-.85.526-1.371 1.222-1.83a4.45 4.45 0 0 1 1.822-.691c.297 0 .416-.338.571-.57.291-.583.877-1.013 1.406-1.357.199-.128.393-.268.544-.451.237-.938-.083-2.827-.333-3.758-.171-.8-.417-2.233-.856-2.996-.286-.286-.61-.548-.69-1.033-.201-1.24-1.032-3.04-1.413-4.027-.315.837-.573 1.545-1.226 2.158-.21 1.774-.765 2.389-1.285 3.33-.288.522-.312.908-.38 1.366a25 25 0 0 0-.285 3.742c0 .525.004 1.081.047 1.598v1.332c0 .143.013.334 0 .476-.013.143-.15.256-.333.333-1.222.508-1.82 1.33-2.568 2.378h-5.453c.128-.84.526-1.647 1.286-2.082.517-.295 1.137-.413 1.741-.534l.238-.048c.253-.126.596-.452.64-.774.052-.373.275-.657.534-.911.216-.213.531-.472.81-.72.244-.217.585-.508.65-.855.165-.864.242-2.51.321-3.227.178-1.607.135-2.257-.72-3.596.207-1.302.218-2.327-.047-3.657a1.9 1.9 0 0 1-.524.327c.094-.279.021-.899 0-1.189-.318.234-.652.42-.998.571.22-.38.44-1.022.428-1.522-.374.306-.749.47-1.19.618.656-.695.844-1.293.714-2.188-.115-.574-.252-1.065-.538-1.544-.489 1.228-1.158 2.041-1.718 3.067-.543.991-1.041 2.274-.978 3.377-.27-.432-.614-.977-.714-1.475-.185.372-.154 1.15-.19 1.427-.217-.3-.508-.557-.666-.904a2.95 2.95 0 0 1-1.855 1.998c.4-.635.755-1.419.618-2.188-.182.732-.302 1.272-.903 1.76-.146-.765-.527-1.192-1.19-1.855-1.269-1.015-2.752-2.58-3.139-4.09 0 .825.048 1.316.238 2.14-1.09-1.091-1.997-2.644-1.997-4.233-.147.512-.175 1.016-.19 1.522-.525-.723-.918-2.37-.714-3.377-.314.42-.568.578-.999.76.51-1.045.67-1.806.618-3.043-.225.333-.555.634-.87.88.275-1.147.35-2.501.395-3.695.036-.946.115-1.874.475-2.798a2.7 2.7 0 0 1-.523.285v-.19a3.8 3.8 0 0 1-.904.666c.093-.217.136-.462.238-.666-.32.373-.71.52-1.189.618.478-.596.666-1.316.666-2.092 0-1.294-.337-2.858.428-3.996-.46.114-.864.409-1.284.619-.433.325-.811.308-1.19-.095-.069-.105-.332-.465-.332-.571-.532.05-.92-.06-1.136-.579-.256-.616.038-1.314.448-1.818.364-1.366 1.419-1.766 2.74-2.322a15 15 0 0 0 1.829-.922c.85-.502 1.773-1.343 2.029-2.324.147-.565-.06-1.013-.393-1.453.357.107.68.249.999.476.14-.279-.078-.792-.19-1.047.353.088.95.56 1.189 1.094.141-.208.15-.84.143-1.046.385.565.758 1.16.889 1.788.299-.357.323-1.087.395-1.55.47.46.727 1.03.856 1.664.246-.453.334-.746.428-1.236.235.312.523.831.523 1.236.232-.231.314-.649.38-.95.264.38.435.922.429 1.426a8 8 0 0 0 .713-.523v.808l.38-.475c.114.339.154.79.096 1.141l.285-.19c.101.35.048.606 0 .904l.19-.048c.023.262-.005.653-.047.951.782.128 1.357.895 1.701 1.548.246.465.648 1.494.725 2.162.234.704.295 1.763.222 2.273.176.852.286 1.65.158 2.436l-.333-.19c0 .428 0 .856-.047 1.284.887-2.4 1.79-4.287 3.662-6.183.948-.96 2.154-1.957 3.377-2.569.375-1.31 1.045-3.042 2.217-3.81.071-.867.3-1.69.579-2.391-.2-.15-.229-.325-.062-.534-.295-.617-.387-1.22-.25-1.838.473-2.12 3.016-2.74 4.834-2.726 1.096.01 2.259.194 3.505.535" style="stroke-width:.235187" transform="matrix(5.4331 0 0 5.43311 50.74 -167.285)"/>
      <path fill="#c1c1c1" d="M33.86 54.294c-.095.285-.333.666-.809 1.094-.523.428-1.284.285-1.284.285 1.17-.106 2.046-1.09 2.045-2.188l-.181.19c-.139.555-.722.93-1.245 1.047.948-.593 1.253-1.26 1.141-2.045l-.523.523v-.904c-.174.144-.292.268-.467.38-.09.547-.199.952-.294 1.142.238-.047.428-.047.475.048.096.143-.19.428-.332.618-.19.19-.762.999-1.285 1.237-.57.238-1.189.19-1.522 0 .771-.048 1.291-.677 1.808-1.19-.72-.047-1.497.155-2.14.476.596-.682 1.628-.787 2.473-.618-.324.77-.91 1.06-1.285 1.284 0 0 .476-.047 1-.475.57-.428.665-.951.998-1.19 0 0-.38.048-.856 0-.428 0-1.284 0-1.76.191-.476.143-.951.523-.951.523.178-.625.844-.753 1.275-.856.445-.889.63-2.192.009-3.044-.087.618-.159.875-.52 1.237.187.935-.28 1.879-1.002 2.473.777-1.067 1.148-2.333.238-3.805-.033.586-.313.924-.286.951.05 0-.392-.838-.766-1.203.026.238.028.51-.09.727.19.19.524.619.666 1.285.238 1.094-.57 1.664-.57 1.664.285-.475.427-1.046.332-1.617-.047-.428-.37-1.007-.57-1.236-.138-.157-.302-.265-.476-.38.512 1.478-.964 2.9-2.11 3.555-.593.339-1.222.612-1.79.915-.476.19-.904.38-1.332.618-.809.429-1.094 1-1.19 1.285.144-.143.381-.333.572-.428.333-.19.808-.333.998-.286.238 0 .238.333.048.476s-.618 0-1.094.238c-.333.142-.713.475-.904.666-.19.333-.333.808-.19 1.189.19.475.618.475.856.428.286-.19 1.047-.666 1.475-.951.57-.381 1.332-.761 1.427-.81.047 0 .142.191.19.239.047.095.285.285.143.38-.143.143-.428 0-.619 0-.19 0-.428.048-.618.143-.164.098-.687.421-1.044.644-.494.309-.943.461-.335 1.068.095.143.332.333.808 0a6.2 6.2 0 0 1 2.378-.999c-1.353 1.365-1.141 2.716-1.141 4.614 0 .714-.143 1.284-.286 1.617.333-.238.846-.68.894-2.011.047-1.38.39-3.601 1.247-4.172-.999 1.617-.816 3.496-.911 4.448-.143.998-.373 1.497-.421 1.592.424-.356.67-.868.861-1.36.623-1.599.381-2.512 1.137-3.824-.68 1.807.083 2.378-1.332 4.947 1.305-1.214 1.97-3.153 1.95-4.995.238.81.01 1.904.01 1.904.384-.502.612-1.411.737-1.846l-.224-.343c.541.397 1.44.423 1.855.238 0 .016-.428-.073-.808-.428.856.19 1.375-.086 1.565-.276-.047 0-.757.038-1.328-.438 1.145.361 1.445-.165 1.523-.214 0 0-.762-.024-1.237-.547 0 0 .808.38 1.427.333.666-.095.998-.475.998-.475s-.713.285-1.664-.238c.993.366 2.427.018 2.845-1-.553 0-1.184-.132-1.656-.427 1.903.335 3.199-.301 3.164-2.13zm-3.455-.45c.428-.048.651-.037.937-.037.24-.815.398-1.707-.003-2.51-.133.443-.245.665-.562.93-.034.495-.11 1.184-.372 1.616m1.144-.026c.17 0 .294-.01.459-.01.25-.574.402-1.63.187-2.225-.118.317-.192.383-.408.599.048.428-.056 1.287-.237 1.637zm14.506.451a9 9 0 0 1-.157-2.158c-1.018.86-1.618 2.435-2.006 3.682a14 14 0 0 0-3.463 2.627c-1.126 1.175-1.869 2.372-2.43 3.389-.73 1.427-1.725 4.376-1.95 6.707l-.572-.096c.94-1.88.908-5.813.952-5.802l.349.206c0-1.855-.587-2.727-.587-2.727.164.137.323.227.402.449a4.64 4.64 0 0 0-.687-2.59c.123.039.33.308.38.38-.061-.586-.341-1.269-.668-1.843-.338-.594-.758-1.27-1.486-1.39-.25.783-.662 1.395-1.699 1.522l.333.095s-.428.999-1.094 1.236c0 0-.452.68-1.213.823 0 0-.309.319-.547.414h.476s-.329.652-1.232.7l.38.19s-.765.641-1.812.26c0 0-.38 1.704-.998 2.18 0 0-.38 1.331-1.142 2.187-.285.761-.666 1.998-.666 3.377 0 1.38-.142 2.331-.238 2.902.23-.23.366-.485.524-.761.334 1.037.26 1.971-.095 2.996.518-.57.977-1.505 1.09-2.727.135 1.207-.303 1.864-.396 2.585-.095.903.019 1.807.21 2.378.094-.619.332-1.57.808-2.283-.396 1.845-.037 3.594 1.094 5.137-.143-1 .142-2.426.523-2.854-.5 2.283 1.365 3.934 2.949 5.517.525.42 1.021.97 1.237 1.617.261-.392.427-.942.492-1.417.08-.588-.2-1.438.221-1.96 0 0-.238 1 .143 1.712.38.761.142 1.38-.095 1.95 1.01-.82 1.214-1.812 1.046-3.043.247.522.18 1.369.618 1.807-.03-.714.472-1.395.666-2.093.002.66-.12 1.258.238 1.855.134-.802.6-1.805.997-2.476 1.296-2.192 2.574-3.658 2.047-6.37.666 1.569 0 3.186 0 3.186s.428.476.666 1.76c.143.666 0 1.189-.143 1.57.143-.096 1.38-1.237 1.047-4.614.523 3.14-.428 4.28-.428 4.28.047.381-.048 1-.143 1.333 0 0 .999-.571 1.237-1.57 0 .713-.571 1.38-.571 1.38.05.332.092.641.095.926.095-.095.666-.689.999-2.116-.143 1.475-.571 1.95-.571 1.95.523 1.19.19 3.52.095 3.9.919 1.25.902 2.289.734 3.644-.034.464-.077 1.01-.126 1.535-.093 1.005-.208 1.938-.322 2.099-.096.19-.333.38-.666.666-.238.19-.476.428-.761.713-.333.333-.38.523-.428.761-.11.441-.455.8-.834 1.032-.497.305-1.292.682-1.562 1.029-.285.38-.395.88-.405 1.078h3.99c.333-.57.903-1.189 1.379-1.617.38-.333.714-.523.951-.618.19-.095.38-.19.38-.286.048-.095.048-.76 0-1.522 0-.523 0-1.141-.047-1.807 0-1.903.333-3.9.428-4.471.048-.428.286-.809.571-1.332.567-.756.904-1.867.999-2.806.681-.617 1.126-1.803 1.341-2.645 1.44-1.636 1.349-4.56.657-6.487.436.666.67 1.627.732 2.548.288-1.185.35-2.619.029-3.69.15.177.239.346.325.618.66-2.198-.338-4.212-.632-4.85.743 1.141 1.576 2.824.782 5.279a9 9 0 0 1-.428 3.377c1.665.76 4.424.713 5.47.665-.152-.152-.286-.358-.428-.523 1.093.243 2.225.419 3.33.143l-.619-.618a4.7 4.7 0 0 0 2.045.285l-.19-.476c1.356.23 3.016-.227 4.22-.838-1.921-3.29-2.194-7.25-1.52-11.057-1.13.503-2.53.552-3.848.306-1.826-.34-3.653-.098-5.418.415-2.746.799-5.48-.294-6.18-3.032-.638-2.485-.031-5.38.826-7.793m6.198 36.078c-.057-1.879.02-3.89-.339-5.746a15.5 15.5 0 0 0-1.169-3.624s.933 1.407 1.313 3.072c.286-.856.257-1.597.257-2.025-.095-.524-.333-1.38-.904-2.093.377.263.724.557.87 1.011-.104-1.284-.468-2.54-.658-3.206-1.142-.047-2.293-.238-3.292-.666-.02 0-.013 1.682-1.2 3.194.237.523.57 1.332.903 2.14.428 1 .571 1.76.666 2.188 0 .416.42.605.619.904.285.333.618 1.522 1.046 3.662.38 1.903.333 2.997.19 3.377-.095.238-.38.38-.666.571-.575.345-1.077.823-1.38 1.427-.143.192-.332.523-.617.523-1.19.619-1.665 1.57-1.808 2.045h3.568c.632-.69 1.592-2.026 2.901-2.092.224-.934.32-1.895.209-2.567-.123-.734-.423-1.288-.509-2.095m24.89-6.564c-.19 0-.523-.142-.856-.428-.333-.285-.584-.95-.87-1.807-.325-1.302-.97-2.611-1.583-3.778.263-1.46-.066-2.773-.829-3.642.476.285.809.683.809.683.01-1.106-.239-2.047-.952-2.728.344.21.724.522 1.035.978.081-2.757-.713-4.557-.989-5.223a10 10 0 0 0-.696-.538c.527 1.251.739 3.052.106 4.334l-.108-.141c.19 1.427-.077 2.387-.116 2.413l-.109-.206c.095.904-.407 1.76-.407 1.76l-.143-.095c.095.76-.238 1.522-.238 1.522l-.095-.19c-.095.998-.76 2.473-.998 2.948 1.378.867 1.909 1.799 2.212 2.499.374.86.562 1.768 1.165 2.543.333.476.903 1.617 1.046 2.616.143.904.143 1.903.048 3.472-.048 1.38-1.237 2.807-1.665 3.282-.22.347-.44.71-.464 1.133-1.089.283-1.955.833-2.469 1.911h4.312c.619-1.57 1.903-1.95 2.33-1.997.191-.856.096-1.713.048-2.569a12 12 0 0 1-.095-1.236c0-1.094.238-2.854.428-4.138a40 40 0 0 0 .143-3.377zM62.95 51.407c.008.4-.02.733-.083 1.132 1.559 2.959 1.423 7.501-.52 10.391-.39.581-.836.954-1.373 1.258-.883 4.7-.307 9.715 3.102 13.364-.482-2.039-1.297-4.946-1.297-4.946 1.094 2.568 1.617 5.707 2.52 7.895.334.809 1.095 2.236 1.19 2.569 0 0 .523 3.234.333 4.233-.19.951-1.142 3.139-2.093 4.376a12.6 12.6 0 0 1-1.95 2.092c-.389.583-.304 1.208-1.284 1.332-.096 0-.238.048-.333.048-1.475.428-1.958 1.57-2.149 1.95h3.813c.286-.428 1.047-1.19 3.14-1.855.142-.476.665-2.759 1.95-5.042.523-.999 1.046-1.855 1.427-2.568.618-.999.998-1.713 1.046-1.95 0-.143-.048-.333-.143-.619a5.8 5.8 0 0 1-.237-2.283c.145-1.128.003-2.032-.143-3.044.537-.865 1.171-3.16.999-4.138l.259.613c.133-.63.096-1.212-.021-1.802l.353.597c.262-.419.351-1.768.217-2.547l.245.731c.163-.515.158-1.963-.245-2.729.248.206.412.47.517.711.529-1.541.129-3.081-.612-4.754l1.712 1.332c.666.714 1.077 1.766 1.311 3.282.152.983.13 2.057.64 2.949 0-.143.332-1.094.332-1.094 0 .285.19 1.903.38 2.33l.334-.713v.761c.047.286.143 1.094.38 1.57.133-.299.27-.571.429-.856.287 1.42.549 2.991 1.664 4.09-.19-.523-.38-1.284-.333-2.093 0-.142-.238-1.522-1.094-4.185-.903-2.759-1.95-4.804-3.139-6.184-.597-.656-1.505-1.345-1.903-2.14-.285-.476-1.474-2.568-2.235-3.472-.696-.796-1.459-1.58-2.093-2.426-.19-.238-.239-.523-.238-.761.002-.207-.4-1.223-.808-1.57.157-.078.39.105.475.19.182-.544-.219-1.148-.76-1.284 0 0 .047-.142.427 0-.276-.828-.23-1.59-1.141-2.045 0 0 .238-.142.57.143-.142-.619-.664-1.33-1.283-1.57 0 0 .095-.047.332-.047-.186-.186-.781-.668-2.587-1.223z" style="stroke-width:.163325" transform="matrix(5.4331 0 0 5.43311 50.74 -167.285)"/>
      <path fill="#fff" d="M63.738 76.185c-.45-1.766-.959-3.579-.959-3.579l-.175-.914s1.84 4.244 2.839 6.907c.951 2.664 1.855 4.139 1.855 4.139-.38 1.189-.143 3.186-.143 3.186.618-1.236 2.14-2.188 2.14-2.188.001-.74.165-1.343.19-2.092.048-.857-.095-1.855-.095-2.14.704-1.6 1.12-3.261.904-5.28q.417.468.666 1.189c.013-.943-.357-2.158-.428-2.14.132.075.224.142.354.365.476-2.426-.259-3.98-.259-3.98.523.285.856.665.856.665.38-2.901-1.236-5.374-1.236-5.374l.57.142c-.237-.618-1.284-2.092-1.76-2.758-.475-.666-1.379-1.665-1.854-2.474-.52-.983-.393-2.157-1.241-2.95q.264-.004.527.096c.048-.76-.793-1.542-.793-1.542.155-.038.387.014.517.078-.093-.822-.46-1.404-.96-1.675l.57-.047c-.238-.856-1.284-1.285-1.284-1.285l.333-.19a25 25 0 0 0-1.495-.41c.725 1.476 1.584 3.71 1.542 5.928-.047 2.378-1.236 4.851-1.95 5.565-.666.713-1.427 1.189-1.712 1.522-.285.285-.428 2.092-.428 2.092l.38-1.331c-.023 0-.107 1.855-.285 2.901l.286-.666c.142 1.094.047 2.473.095 3.33l.19-.952s.285.524.285.904c.048.38.238 1.95.666 3.234l.048-.998s.313 1.298 1.244 2.722m-29.596-21.08-.01-.001-.001.001zm-1.056 26.259q.017-.094.03-.186c.037-.275-.004-.607-.016-.936-.057-.78.235-.998.427-1.404 0 0-.048 1.094.048 1.379.142.333.285.951.285.951.428-.713.57-2.045.904-2.901.38-.856 1.141-1.617 1.141-1.617-1.141 1.807-.856 4.043-.856 4.043.143-.524.714-1.38.714-1.38.142-1.427 1.854-3.805 2.283-4.661.428-.904.665-2.378.665-2.378l.524.475c.05.558.13 1.108.047 1.665l.143.476a1.6 1.6 0 0 0-.048.808l.19-.523.236.575c-.19.618-.047.903-.047.903.047-.332.19-.57.19-.57l.192.71c-.142.427-.19 1.236-.19 1.236.333-.428.618-1.665.666-2.14a8 8 0 0 1-.01.286c.033-.494.027-1.062-.038-1.713.126.753.167 1.39.156 1.926.128 1.312-.078 2.925-.156 2.925.222-.183.469-.484.652-.75l.014-.059v.038q.083-.122.143-.228c.048.856-.333 1.76-.333 1.76.258-.32.58-.986.71-1.37l.001.001.003-.01-.002.011.192.274-.38 1.474.285-.428.047.57c-.19.334-.285.952-.285.952l.333-.618.047.38-.237.809.285-.333c.238 2.426-.048 2.901-.048 2.901s.476.571.571 1.427-.285 3.853-.38 5.137-.952 1.427-1.665 2.093c-.761.713-.904 1.38-.904 1.38h.38c.381-1.237 1.475-1.57 1.475-1.57-.808.523-1.141 1.617-1.141 1.617l.57.047a1.94 1.94 0 0 1 1.332-1.189c-.76.38-1.094 1.237-1.094 1.237.571.238.951.095 1.522-.238.571-.38.428-1.284.38-2.568s.048-3.71.191-4.471-.095-.952-.095-1.094c0-.19.095-.333.476-1.237.38-.904.475-2.996.475-2.996.523 2.14-.285 3.472-.285 3.472 1.284-1.522.856-3.425.856-3.425 2.045-1.95 1.237-4.043 1.237-4.043.19 1.903-.524 2.664-.524 2.664-.19-2.236-1.522-3.663-1.522-3.663 1.047 2.236.048 4.234.048 4.234s.143-1.57-.761-2.807c-.951-1.236-1.475-2.758-1.617-3.614-.143-.857 0-1.665 0-1.665-1.903-.333-1.665-2.997-1.665-2.997-.333.333-.761 1-.761 1-.714-1.523-.048-4.615-.048-4.615l-.428.286c-.047-1.617.952-4.043.952-4.043-.333.238-.809.57-.809.57.38-1.95 2.426-4.803 2.426-4.803-1.85 1.908-2.884 4.215-3.404 5.701-.406 1.158-.624 2.405-1.056 3.549-.554 1.466-1.818 1.288-2.407-.078-.293-.678-.27-1.457-.315-2.18.142.047.421.245.421.245-.095-.286-.34-.918-.34-.918.143.048.442.197.442.197-.095-.333-.38-.958-.38-.958.332.095.523.197.523.197-.19-.476-.429-.856-.429-.856.225.007.524.189.524.189-.143-.428-.476-.998-.476-.998.19.048.57.333.57.333-.285-1.332-1.14-2.378-1.14-2.378.57.238 1.046.856 1.046.856.047-.238-.048-.76-.048-.76.19.142.523.38.523.38-.142-.38-.951-1.332-.951-1.332.285.143.809.428.809.428-.19-.428-.476-.523-.476-.523.19-1-.713-1.665-.713-1.665.618.095 1.141.476 1.141.476-.143-.286-.523-.619-.523-.619a1.45 1.45 0 0 0-.761-1.379c.76.048 1.284.333 1.284.333-.523-.57-1.094-.761-1.094-.761l-.76.476-.239.19c-.618.904-2.473 2.52-4.043 3.948-1.617 1.522-2.378 3.52-2.901 5.232s-.19 4.375-.19 4.375l.428-1.236c.333 1.141.095 2.188-.048 2.901-.095.714-.047 1.712-.047 1.712.428-1.284 1.236-2.33 1.236-2.33.048.666-.285 1.046-.333 2.568a6.06 6.06 0 0 0 .571 2.711c.285-1.855 1.237-2.901 1.237-2.901-.761 3.14 1.189 5.042 2.52 6.183 1.332 1.142 1.38 1.712 1.38 1.712.15-.112.241-.285.32-.47zm7.763-2.065q.137-.18.242-.397l-.002-.001q-.103.213-.24.399zm-3.247 17.375h2.954c.145-.267.633-.874.908-1.068 0 0-1.553-.274-2.374-.081-.901.213-1.387.508-1.488 1.15m14-16.933s-.096-.808-.286-1.189c0 0-1.95-.095-2.426-.238 0 0-.095 1.38-.38 2.093 0 0 .332 1.76.523 2.474.237.713 1.141 2.71 1.522 3.567.38.856.76 2.949.808 4.47.048 1.475 0 2.141 0 2.141l.095.38s-.76.096-1.426.572c-.666.523-.971 1.052-.971 1.052l.565-.029s.881-1.071 1.642-1.261c0 0-.966.831-1.157 1.26l.824.093s.286-.307.428-.402c.19-.095.571-.143.666-.238.095-.047.428-.951.333-1.76-.047-.808-.475-1.76-.618-2.14-.095-.428-.048-1.665-.143-2.711-.143-1.047-.285-2.236-.238-2.997.048-.713-.047-1.95-.333-2.71-.285-.762-.998-1.76-.998-1.76l.285-.096s.951.714 1.284 1.475c0 0-.047-1.523-1.427-3.044h.38s.572.285 1.047.998zm-4.754 16.933h2.36c.267-.434 1.182-1.163 1.223-1.138 0 0-.703-.12-1.476-.069-.856.057-1.68.261-2.107 1.207m13.6-23.02c-.76.713-2.426.76-2.426.76l.048.238c-.666.38-1.76.143-1.76.143l.048.19c-.476.523-2.236.428-2.236.428-.618.523-2.045.095-2.045.095l.048.286c-1.426.69-2.985-.31-3.388-.635q-.043.327-.112.658c1.033.361 2.263.452 2.263.452l2.188.809-.9-.782 1.602-.074 2.152.475-.96-.618 1.014-.095 1.658.428-.631-.576.73-.14 1.318.253-.744-.481.76-.192 1.23.232-.686-.401c.76-.285 1.4-.407 1.4-.407zm-12.604-3.996s.524.951.428 2.045l-.713-1.141s.19-.619.285-.904m-.428 1.38c.026-.014.779 1.085.714 1.902 0 0-.333-.618-.666-1.047 0 0 .285.907.38 1.478 0 0-.618-1.097-1.141-1.24.082 0 .711 1.237.618 1.95-.213-.737-.668-1.76-1.057-2.322.339.194.989.072 1.152-.722zm-.285 5.327s-.809-2.521-1.95-3.044c0 0 1.427 3.186 1.141 4.994 0 0-.808-1.808-1.522-2.236 0 0 .999 1.903.714 3.568 0 0-1.094-2.76-2.521-3.71 0 0 .523.998.76 1.95.239.951.334 1.807.286 2.188 0 0-.475-1.475-1.189-2.426-.713-.999-1.332-2.759-.951-4.186 0 0 1.38-.142 1.665-1.57.065.26.382 1.095 1.17.857.676-.205.827-.714.97-1.094-.04 0 1.506 1.474 1.427 4.709m23.689 20.31h3.097c.142-.503.437-.82.8-1.19-1.573-.255-3.01.07-3.897 1.19m4.944-13.128s.713.713.808.903c.048.143-.237 2.14-.285 2.474l-.999-.762s.476 1.285.57 2.617c.096 1.331.191 2.901.191 3.71.048.76.143 2.092-.523 2.33s-1.807-.047-1.807-.047 1.284-1.903 1.331-3.71c.096-1.808-.095-4.376-.475-5.66 0 0 .713.142 1.094.523 0 0 .285-1.094.095-2.378m-3.092-8.372s.238.856.38 1.19c.19.38.238 1.331.619 2.378.38 1.046 1.284 3.33 1.237 3.9 0 .618-.524 1.95-.524 1.95s-.666-.761-1.046-1.712c-.38-.904-1.094-2.093-1.332-2.474-.285-.38-.285-1.617-.047-2.473.237-.904.713-2.759.713-2.759M59.56 65.423c-.887-.146-1.995-.11-2.868-.093-1.903.037-4.804 1.236-7.42.856-2.712-.38-4.71-2.379-4.662-4.804 0-1.456.234-2.398.457-3.134.174-1.373.548-2.74.988-3.978a7 7 0 0 1-.087-.516c-.215.103-.43.287-.644.588-.952 1.237-.761 1.903-.761 1.903s-.476.285-.523.904c0 0-1.237 0-2.664 2.092-1.427 1.998-1.665 3.472-1.665 3.472l.904-.333s-1.142 1.95-1.284 3.758l.76-.38s-.855 2.52-.618 4.518c0 0 .714-.808.904-.904 0 0-.428 3.14 1.094 3.235 1.57.142 1.998-1.38 2.14-1.903.073.417.42 1.682 1.075 1.36.726-.357.733-1.312.733-1.312s.428.856 1.046.618c.619-.285 1.38-1.76 1-4.328.55.663 1.06 1.648 1.36 2.696.334.975.454 2.183-.03 3.677q.033.465.013.935c.324.418 1.071 1.247 2.319 1.158 0 0-.666-.285-.952-.618 0 0 .856.047 1.237-.048 0 0 .856.428 1.665.333l-1-.428.762-.19s1.427.618 2.378.333l-1.712-.57 1.331-.334s1.19.666 2.284.57c0 0-1.38-.522-1.808-.76l1.094-.286s1.427.571 2.378.19l-1.902-.427.713-.428s1.475.142 2.093-.143l-1.57-.095.38-.428s.857 0 1.475-.333l-1.189-.048s.238-.428.286-.666c0 0 .57-.047.95-.19l-.855-.143c.276-1.79.384-3.57.395-5.376m17.156 10.751c-.148-.81-.184-1.604 0-2.48-.44.268-.542.684-.666.958-.169-.932-.264-1.851-.217-2.788-.325.323-.485.804-.591 1.218 0 0-.143-1.189-.333-1.997-.19-.809-.38-1.665-1-3.092 0 0 2.76 4.138 3.378 7.182 0 0-.333.523-.57 1m-9.37 13.413c-1.617 2.378-2.711 4.376-2.711 4.376s.951-.951 1.332-1.475c0 0-.38 1-.428 1.285-.095.285.095.95-.333 1.094-.476.19-1.332-.19-1.76-.619 0 0 1.38-1.141 2.14-2.616a183 183 0 0 1 1.903-3.757v.904s.903-1.427 1.046-1.998c.143-.57-.047-1.094-.523-.714-.476.333-.428-.333-.095-.665.666-.666 1.617-.81 1.617-.81s.238.62.333.81c0 0-.904 1.76-2.52 4.185m-5.042 7.087H59.87s.19-.79 1.388-1.085c1.228-.303 2.031-.087 2.378.039-.432.122-1.2.746-1.332 1.046zm15.268-20.548s.38 1.094.428 1.998c0 0-.428-.666-.428-1.998M33.207 54.974c.378-.4.606-.929.605-1.488l-.181.19a1.25 1.25 0 0 1-.41.631c-.013.02-.027.035-.027.035l.001-.013-.029.023a1.3 1.3 0 0 1-.828.465c.523.096.809-.095.809-.095-.476.523-1.237.476-1.237.476a3 3 0 0 1-.428.428c.72-.068 1.332-.341 1.725-.652m.33-2.225-.01-.072-.146.146c-.086.546-.278 1.105-.71 1.471.613-.35.847-.934.865-1.545m-.533.356v-.808q-.103.087-.191.165c-.024.653-.125 1.071-.142 1.071.095-.095.238-.238.333-.428m-3.425 2.616c.322-.02.6-.141.853-.313-.345.145-.74.218-1.28.218 0 0 .475-.143.855-.333.429-.19.666-.476.952-.57 0 0-.238-.096-1.047.237-.76.333-.856.523-.856.523a1.7 1.7 0 0 0-.329-.323c.271-.279.7-.46 1.049-.566.58-.304 1.313-.33 1.944-.205-.324.77-.91 1.061-1.285 1.285 0 0 .476-.048 1-.476.57-.428.665-.951.998-1.189 0 0-.38.048-.856 0-.428 0-1.284 0-1.76.19-.476.143-.951.524-.951.524a.93.93 0 0 1 .312-.475c.063-.103.19-.266.354-.43.333-.285.951-.618.713-2.14 0 0-.265.62-.583 1.006-.066.715-.474 1.387-1.034 1.848q-.152.116-.333.19l-.19-.237c.703-.79.801-2.21.292-3.202a6 6 0 0 0-.296-.463c.031.275.004.549-.04.823.13.218.255.499.33.844a1.64 1.64 0 0 1-.45 1.56l-.026.057c-.143.238-.286.428-.381.571 0 0-.19.999-.999 1.284-.76.238-1.664.048-2.378.333-.666.286-3.472 1.712-3.615 2.283-.19.571.333.571.571.523.285-.095.809-.475 1.284-.76.46-.23 1.097-.549 1.397-.485l.078-.039c.047 0 .142.19.19.238.048.095.285.285.143.38-.13.131-.38.023-.568.003a.94.94 0 0 0-.431.188c-.424.211-1.338.838-1.5 1.074-.05.074-.008.203.016.283.033.112.068.211.152.212.095.001.374-.135.666-.285.283-.146.864-.456 1.237-.58.305-.102.859-.09.976-.053.016.005.029.015.029.033-.002.075-.206.307-.292.695-.095.38-.38 1.522-.428 2.806 0 0 .285-1.332.523-2.235.238-.857.428-1.285 1.047-1.427 0 0-.38.808-.524 1.332-.142.57-.19 1.284-.19 1.284s.619-2.045.951-2.711l.38-.095s-.522.95-.808 1.902c-.285.999-.285 1.38-.428 2.188 0 0 .38-1.189.714-2.378.285-1.142.76-1.807.76-1.807l.048.19s-.095.238-.238 1.094c-.095.903-.237 1.902-.57 3.044 0 0 .57-.999.666-1.95.095-.952.237-2.093.237-2.093l.238.238c.095.19.19.57.19.856.046.36-.037.847-.207 1.341a6 6 0 0 1-.035.278c.242-.276.604-.987.29-2.332.428.285 1.047.57 1.665.665l-.001.001c.139-.017.263-.046.362-.088-.98-.138-1.782-.634-2.597-1.292l.476-.19s1.38 1.332 2.52.856c0 0-.618.238-2.425-.904 0 0 .428-.19.713-.38 0 0 1.144.787 2.066.611a1 1 0 0 0 .218-.065s-.279-.01-.604-.131c-.341-.058-.882-.203-1.584-.51 0 0 .237-.19.38-.38.777.388 1.648.699 2.526.654.314-.143.47-.322.47-.322s-.405.162-1.013.017c-.646-.065-1.286-.283-1.888-.493l.238-.285c.01.013 2.87 1.047 3.661-.48a3.5 3.5 0 0 1-.975-.188c-.383-.036-1.565-.324-2.4-.05.096-.333.142-.804.142-.804.174 0 .35-.034.523-.048m2.195.751c1.29-.015 2.136-.637 2.203-1.97a3.5 3.5 0 0 1-.204.526c-.872 1.636-3.337 1.169-3.337 1.169.562.16.99.247 1.338.275m-10.518.39c.251-.143.584-.26.814-.287.192-.096.57-.237 1.088-.378.38-.095 1.096-.329 1.808-.618.69-.282 1.59-.577 2.089-.964.953-.74 1.17-2.157.432-3.127 0 0 .095.951-.38 1.665a5 5 0 0 1-.931 1.003c-.54.455-1.27.906-1.924 1.232-1.141.571-1.855.714-2.854 1.38-.047.047-.095.047-.142.095m10.938-5.274a1.3 1.3 0 0 1-.187.36c.042 1.169-.144 1.776-.144 1.776.37-.65.369-1.49.33-2.136m-.665.256q-.057-.278-.19-.546l-.045.146c.158 1.248-.316 2.184-.335 2.184.5-.545.566-1.264.57-1.784" style="stroke-width:.163325" transform="matrix(5.4331 0 0 5.43311 50.74 -167.285)"/>
    </g>
    <g style="stroke-width:.235187">
      <path fill="#e08600" fill-rule="nonzero" d="M54.122 47.393c-.091-.243.177-.53.427-.452a61 61 0 0 0-.137-1.786c-1.218-.333-2.374-.536-3.438-.544-1.546-.013-4.135.607-4.555 2.49-.12.535-.025 1.1.232 1.648 2.331-.86 4.967-1.267 7.471-1.356m1.11 9.626c-.071.092-.208.182-.334.176-.082-.003-.202-.079-.262-.127-1.213.651-2.553 1.04-3.929 1.037-1.93-.005-3.4-.752-4.213-2.535a7 7 0 0 1-.314-.838c-.737 2.226-1.238 4.931-.701 7.171.622 2.594 3.209 3.71 5.838 2.946 1.814-.528 3.692-.796 5.57-.447 1.994.372 4.024.114 5.246-1.65 1.827-2.64 1.92-7.083.666-9.723-.032.135-.102.37-.141.503-.699 2.37-1.992 3.819-4.873 3.84-.765.007-1.6-.095-2.552-.352zm-.606-8.522c-.258.17-.576-.118-.517-.378-2.522.081-4.976.45-7.363 1.354-.687 1.668-.841 4.151-.01 5.972.76 1.664 2.188 2.377 3.991 2.377 1.322-.001 2.652-.38 3.816-1.008v-.01c.13-2.766.189-5.54.083-8.307m1.182-.397c.071.24-.189.513-.434.434.102 2.732.046 5.47-.08 8.2.937.253 1.776.363 2.52.354 1.482-.018 2.924-.56 3.752-1.82v-.002l.001-.002a6.9 6.9 0 0 0 .84-1.872c.416-1.466.348-3.023-.321-4.383-.602-.206-1.234-.355-1.863-.493-1.472-.323-2.924-.406-4.415-.416m-.51-1.124c.262-.168.589.136.508.4 1.522.018 3.07.123 4.558.409.552.105 1.106.258 1.642.432.194-1.221-.045-2.137-.749-2.71-.954-.78-2.878-.933-3.923-.886a6.2 6.2 0 0 0-2.178.48q.086.938.142 1.875" style="stroke-width:.195989" transform="matrix(5.4331 0 0 5.43311 50.74 -167.285)"/>
      <path fill="#fecc00" fill-rule="nonzero" d="M46.687 49.259a22 22 0 0 1 2.005-.64c1.857-.492 3.693-.682 5.59-.73l.169-.151-.139-.126c-1.903.06-3.848.32-5.677.804-.654.173-1.407.357-2.032.592-.06.023-.126.091-.097.174.029.081.122.1.181.077m8.938-1.383c1.568.005 3.1.081 4.644.407.58.122 1.273.305 1.857.503.09.03.155-.022.171-.09.017-.067-.015-.15-.117-.184-.59-.198-1.28-.367-1.86-.489-1.523-.32-3.13-.415-4.695-.424l-.153.138zm-.56 8.966v-.018c.133-2.827.19-5.644.076-8.463l-.18-.162-.12.11c.116 2.833.06 5.665-.074 8.507v.017c.006.089.075.136.145.139.07.002.142-.04.152-.13zm.017-9.675a62 62 0 0 0-.15-2.03c-.018-.206-.316-.183-.298.017q.09.98.147 1.959l.18.163zm-.563 1.13.276-.249-.177-.16-.259.234c-.132.12.041.283.16.175m.786-.71.257-.233c.099-.09-.065-.26-.16-.175l-.274.248zm.221.501-.98-.887c-.126-.112-.286.061-.184.153l.019.018.98.887c.151.136.319-.032.165-.17m-.082-2.378c.017.395-.028.797.038 1.198l.005.021a.39.39 0 0 1 .314.26c1.6.039 3.345.233 5.052.557 1.011.192.978-.65.779-1.375a1.3 1.3 0 0 0-.232-.296c-1.422-1.358-4.96-.817-5.956-.365m.26 3.785c-.014 1.627.009 3.252.35 4.87.225 1.063.116 1.72 1.5 1.781 3.419.152 5.123-2.543 4.608-5.892-.219-.55-.607-.99-1.149-1.162-1.231-.391-2.402-.664-3.625-.73-1.422-.08-1.673-.166-1.683 1.133m-8.575-1.073c-.99-2.725 3.35-4.084 7.18-2.884q.064.697.113 1.393a.39.39 0 0 0-.305.273 26.2 26.2 0 0 0-6.988 1.218m7.309.125c.088 2.02.127 4.077-.105 6.028-.094.798.032 1.619-.88 1.887-1.585.466-4.295.51-5.228-.582-.74-.866-1.096-2.477-1.089-4.48.004-.845-.034-1.556.939-1.888 2.01-.688 3.982-1.13 6.037-1.253a.39.39 0 0 0 .326.288m-8.211 7.58c1.345 2.265 3.823 2.778 7.072 2.074 1.315-.285 2.832-.238 4.412-.173 1.937.08 3.58-.74 4.928-2.345.312 6.154-2.2 8.794-7.442 7.504-.88-.217-1.61-.297-2.415.148-2.61 1.44-5.178 2.4-6.432-.79-.724-2.22-.52-4.33-.123-6.418" style="stroke-width:.195989" transform="matrix(5.4331 0 0 5.43311 50.74 -167.285)"/>
      <path fill="#cdc9c6" d="m26.773 54.389-.177.129-.394-.177c1.522-1.141 1.475-2.283 1.475-2.283.285 1.094-.38 1.903-.904 2.331m1.928 2.759.182-.428c.913-.225 1.882.394 2.739.346-.649.574-2.127-.063-2.921.082m4.255-.19-.036-.23.274.04c-.048 1.807-1.427 3.138-1.427 3.138.761-.142 1.237.095 1.237.095-1.855 1.047-2.474 2.902-2.474 2.902 1.855-.523 1.903 0 1.903 0-1.189.333-1.76 1.522-1.76 1.522.904-.143 1.522.285 1.522.285-1.712.856-1.997 2.521-1.997 2.521.903-.57 2.045-.856 2.045-.856-3.234 3.14-.999 5.85-.999 5.85-2.33-1.76-.666-4.708-.666-4.708-.476.285-1.284.95-1.284.95.143-2.425 1.902-3.662 1.902-3.662-.856.048-1.664.761-1.664.761.428-1.474 1.712-2.52 1.712-2.52a3.6 3.6 0 0 0-1.903 1.094c.666-2.569 2.664-3.948 2.664-3.948-1.046.047-2.33 1.236-2.33 1.236.475-1.189 1.712-2.188 2.568-2.949s.713-1.522.713-1.522m4.094 9.677.238-.714s1.043 2.594.995 4.687a10 10 0 0 1-.903 3.805c-.048-.713-.38-1.522-.38-1.522-.239 1.237-.667 1.95-.667 1.95l-.237-.285c-.048 1.665-1.237 3.187-1.237 3.187l-.19-.38-.524.903-.428-.809c-.05 1.124-.909 1.495-1.046 2.379-.19-1.047.475-1.427.666-2.331.19-.904-.238-2.045-.238-2.045.476.618 1.07 2.036 1.07 2.036.475-.761.024-2.227.024-2.227.523.571.774 1.446.774 1.446 1.094-1.38.795-3.681.795-3.681.27.42.401.711.508.941.619-.951.444-2.986.444-2.986.237.951.618 1.617.618 1.617.809-2.568-.282-5.971-.282-5.971m23.255 28.659c-.903.142-1.617.475-2.187 1.807h.532c.571-1.19 1.132-1.617 1.655-1.807m-13.037-.082c-.925.15-1.955.987-2.183 1.89h.732c.285-1 .928-1.557 1.451-1.89m-9.674.242c.27-.154.601-.296.88-.446-1.475.067-2.366.888-2.617 2.093h.749c.047-.618.379-1.3.988-1.648m33.85-.143c-1.466.392-1.96 1.22-2.197 1.79h.377c.142-.285.679-1.315 1.82-1.79m-2.15-11.575c.325.099.576-.151.239-.456-.194-.175-.352-.29-.43-.543-.19-.619-.332-.761-.38-1.38 0-.618.095-1.57-.57-2.52 0 0 1.141-1.237.998-3.853l.761.333s0-1.19-.142-1.855c0 0 .38.19.618.475 0 0 .048-.856-.285-1.712l.38.333c-.047-.285.048-1.332-.38-2.568l.475.238s-.285-1.713-.713-2.712c0 0 .618.333.76.571 0 0 .144-1.57-.95-3.615-1.047-2.045-2.807-2.806-2.807-2.806s2.093 1.142 2.902 5.185c0 0-.666-.524-1.95-.952 0 0 1.427.666 1.617 2.95 0 0-.761-.714-1.57-1.142 0 0 1.522 1.236 1.57 3.377 0 0-.666-.714-1.38-1.237 0 0 1.142 1.142 1.19 2.806 0 0-.714-.665-1.142-1.236 0 0 .856 1.617.904 2.901 0 0-.476-.475-1.094-1.236l.193.742c.8 1.038.145 3.352-.479 4.347l-.76-.428s.618.618.95 1.141c.334.524.524 1.332.619 1.95.047.619.047 1.142.143 1.427s.242.72-.333 1.19c-.569.463-.865 1.094-.904 1.522.5-.683 1.033-1.3 1.95-1.237m-9.89-18.42.916.26c-.821.744-1.68 1.638-2.822 1.845-1.046.238-.976-.183-.856-.808 0 0-.475.666-1.474 1.236-1 .524-1.237.524-1.142.238.095-.285.095-.666.095-.666s-2.283 1.95-4.851.524c0 .062 2.949.736 4.994-1.332 0 0 .602-.054 1.172-.482 0 0-.544.927-.782 1.498.69-.086 1.95-1.303 2.52-1.774-.169.311-.273.601-.231.978.028.252.244.382.888-.03 1.285-.904 1.573-1.487 1.573-1.487" style="stroke-width:.195989" transform="matrix(5.4331 0 0 5.43311 50.74 -167.285)"/>
    </g>
    <g fill-rule="nonzero" style="stroke-width:.195989">
      <path d="M26.871 54.92a.7.7 0 1 1-1.29.467q-.33.125-.656.254c-.03-.268.027-.516.3-.668a.5.5 0 0 1 .309-.359c.091-.172.258-.243.442-.234a.5.5 0 0 1 .48-.012.45.45 0 0 1 .338.016l.07.039h.001l.036.026a.4.4 0 0 1 .304.08.4.4 0 0 1 .052.05v.001c.043.052.073.116.106.174q-.247.082-.492.166" style="stroke-width:.235187" transform="matrix(5.4331 0 0 5.43311 50.74 -167.285)"/>
      <path fill="#fff" d="M26.101 55.195c.024.022.04.053.04.087a.12.12 0 0 1-.24 0v-.014l-.13.049a.326.326 0 1 0 .61-.224z" style="stroke-width:.163325" transform="matrix(5.4331 0 0 5.43311 50.74 -167.285)"/>
      <path fill="#c1c1c1" d="M25.153 55.331a44 44 0 0 1 1.855-.675c-.057-.013-.114 0-.17.01-.128-.114-.216-.15-.398-.071-.154-.091-.262-.103-.417-.006-.164-.015-.265.015-.34.189-.181.06-.247.14-.27.328-.108.054-.21.104-.26.225" style="stroke-width:.163325" transform="matrix(5.4331 0 0 5.43311 50.74 -167.285)"/>
    </g>
  </g>
</svg>
