<svg id="flag-icons-ua-sv" class="fi fi-ua-sv" viewBox="0 0 640 480" xmlns="http://www.w3.org/2000/svg" xmlns:xlink="http://www.w3.org/1999/xlink" width="640" height="480">
  <metadata id="flag-icons">
    <name>Sevastopol</name>
    <code>ua-sv</code>
    <iso>false</iso>
    <type>Place</type>
    <capital>Sevastopol</capital>
    <continent>Europe</continent>
  </metadata>
  <defs>
    <linearGradient xlink:href="#a" id="b" x1="519.09" x2="536.67" y1="256.77" y2="262.43" gradientTransform="matrix(.70537 0 0 .70542 -156.39 50.014)" gradientUnits="userSpaceOnUse"/>
    <linearGradient xlink:href="#a" id="c" x1="546.1" x2="561.46" y1="224.85" y2="224.85" gradientTransform="matrix(.70537 0 0 .70542 -156.39 50.014)" gradientUnits="userSpaceOnUse"/>
    <linearGradient id="d" x1="575.97" x2="598.07" y1="183.29" y2="186.81" gradientTransform="matrix(.70537 0 0 .70542 -156.39 50.014)" gradientUnits="userSpaceOnUse">
      <stop offset="0" stop-color="#a80"/>
      <stop offset="1" stop-color="#d4aa00" stop-opacity="0"/>
    </linearGradient>
    <linearGradient id="e" x1="588" x2="599.49" y1="222.87" y2="245.29" gradientTransform="matrix(.70537 0 0 .70542 -156.39 50.014)" gradientUnits="userSpaceOnUse">
      <stop offset="0" stop-color="#a80"/>
      <stop offset="1" stop-color="#d4aa00" stop-opacity="0"/>
    </linearGradient>
    <linearGradient xlink:href="#a" id="f" x1="529.02" x2="526.49" y1="307" y2="326.06" gradientTransform="matrix(.70537 0 0 .70542 -156.39 50.014)" gradientUnits="userSpaceOnUse"/>
    <linearGradient xlink:href="#a" id="g" x1="556.88" x2="561.99" y1="273.82" y2="295.46" gradientTransform="matrix(.70537 0 0 .70542 -156.39 50.014)" gradientUnits="userSpaceOnUse"/>
    <linearGradient id="h" x1="517.58" x2="517.58" y1="10.213" y2="-27.381" gradientTransform="matrix(.70537 0 0 .70542 -156.39 50.014)" gradientUnits="userSpaceOnUse">
      <stop offset="0" stop-color="#a00"/>
      <stop offset=".246" stop-color="#d40000"/>
      <stop offset=".721" stop-color="#d40000"/>
      <stop offset="1" stop-color="red"/>
    </linearGradient>
    <linearGradient id="a">
      <stop offset="0" stop-color="#a80"/>
      <stop offset="1" stop-color="#a80" stop-opacity="0"/>
    </linearGradient>
    <radialGradient id="i" cx="710.2" cy="106.48" r="55.722" gradientTransform="matrix(.88036 0 0 .83737 -407.634 35.742)" gradientUnits="userSpaceOnUse">
      <stop offset="0" stop-color="#a80"/>
      <stop offset="1" stop-color="#a80" stop-opacity="0"/>
    </radialGradient>
  </defs>
  <path fill="#d40000" d="M0 0h640v480H0z" style="stroke-width:1"/>
  <g style="stroke-width:.705664">
    <g fill-rule="evenodd" style="stroke-width:.156815">
      <path fill="#ffd500" stroke="#d4a900" stroke-width="1.058" d="M370.79 375.66c0 24.688-20.019 44.706-44.707 44.706h-107.86c-16.871.382-30.786 12.726-33.607 28.882-2.809-16.157-16.73-28.501-33.595-28.882H45.911c-24.688 0-44.713-20.019-44.713-44.706V.75h369.58v374.91z" transform="matrix(.71328 0 0 .71323 187.334 79.566)"/>
      <path fill="#007ccc" d="M367.09 375.66h-.01zl.005-371.2H4.925v371.205h-.01c0 11.303 4.595 21.553 12.024 28.981 7.422 7.422 17.672 12.024 28.981 12.024v-.02h105.115l.068.02c13.41.302 25.131 7.428 31.821 18.035.61.973 1.183 1.971 1.706 3a38.83 38.83 0 0 1 18.72-17.727 38.5 38.5 0 0 1 14.696-3.308h.118l.074-.02h107.865v.02c11.303-.005 21.553-4.601 28.975-12.024 7.429-7.428 12.024-17.678 12.024-28.987z" style="stroke-width:.0348476" transform="matrix(.71328 0 0 .71323 187.334 79.566)"/>
      <path fill="#fff" d="M367.09 375.66h-.01zl.005-371.2H4.925l351.54 398.72c6.603-7.28 10.625-16.939 10.625-27.521z" style="stroke-width:.0348476" transform="matrix(.71328 0 0 .71323 187.334 79.566)"/>
      <path fill="gray" d="M81.702 141.86c-3.394.056-9.572 1.472-10.533 2.661-.511.628-1.133.684-2.267.228-1.983-.74-2.716-.284-2.716 1.589 0 2.544 1.244 3 6.683 2.322 2.717-.345 5.889-.85 6.967-1.078l2.038-.4v3.233c0 3.228-1.36 7.761-2.322 7.478-1.189-.345-4.589.789-4.533 1.528 0 .45.566 1.527 1.195 2.377.677.85 1.244 2.156 1.244 2.89 0 .738.622 2.1 1.355 3.06.628.906.456 2.095 1.25 2.55-1.188 31.723-1.022 63.445-.967 95.112-.85-.118-.85.283-.96.905 0 .678-.284 1.244-.623 1.244s-1.077 1.59-1.644 3.517c-.961 3.283-3.4 7.133-3.4 5.378 0-.906-4.645-1.017-6.338-.111-1.645.905-1.534 3.117.276 6.572.85 1.583 1.362 2.889 1.078 2.889-.227 0-.45.733-.566 1.583-.056.906-.85 3.172-1.7 5.045-1.017 2.205-1.583 4.589-1.583 6.572 0 2.544-.173 3.055-.961 2.716-.512-.172-1.534-1.416-2.212-2.716-.905-1.872-1.472-2.328-2.439-2.039-.733.166-1.3.56-1.3.9 0 .344-.51 1.305-1.188 2.155-.684.85-1.417 2.661-1.645 3.967-.228 1.355-.795 2.606-1.3 2.828-.51.172-.911.911-.911 1.589 0 1.81-1.867 7.083-2.89 8.272-.621.733-.905 2.489-.85 6.006.118 6.283-1.071 9.683-2.771 7.989-.856-.85-2.322-.684-2.833.338-.339.567-.906 3.172-1.306 5.778-.45 2.605-1.189 6.566-1.7 8.777-.505 2.267-1.072 6.684-1.244 9.8-.111 3.117-.395 6.234-.567 6.912-.111.677-.056 1.589.172 1.921.622.967 2.661.857 2.661-.166 0-1.361 1.7-.905 2.212.567.221.795.505 2.605.56 4.022.117 3.228 1.361 4.872 3.29 4.361.794-.166 1.582-.056 1.81.284.228.344.906.622 1.59.622.794 0 1.638 1.133 2.777 3.572 1.411 3.117 1.805 3.511 3.167 3.228.967-.173 2.1.11 2.833.794 1.078.906 1.755.961 4.589.395 4.25-.789 14.389-1.023 15.41-.284.395.339 1.017.456 1.3.284.34-.228 2.212-.567 4.25-.733 2.04-.228 4.362-.512 5.156-.629.733-.11 3.394.117 5.889.456 2.889.45 4.589.45 4.872.056.394-.622 3.228-.567 15.806.172 8.895.45 10.194.45 12.633.056 6.628-1.078 6.911-1.078 7.533.567.352.948.573 1.33 1.583 1.416h1.238a57 57 0 0 0 1.713-.117c2.772-.222 4.188-.677 4.755-1.41.394-.623.795-.857.795-.623 0 .277.339.222.794-.172.45-.339 3.11-.678 5.833-.74 2.778-.055 5.778-.393 6.684-.788 1.928-.794 3.455-4.533 2.722-6.689-.228-.795-.456-3.117-.511-5.156-.117-4.133.172-3.794-5.611-6.91-1.639-.906-2.772-1.867-2.489-2.15.222-.284.055-.284-.345-.056-1.127.623-5.15-.905-5.488-2.156-.4-1.244 0-5.038.844-7.816.345-1.078.794-3.283 1.022-4.872.173-1.645.622-3.173.961-3.339.284-.172.74-1.645.967-3.178.228-1.583.733-2.772 1.078-2.661.678.227 4.866-3.567 4.866-4.472 0-.85-2.944-2.606-4.305-2.606-.622 0-1.355-.172-1.583-.4-.228-.283-1.362-.56-2.495-.622-2.039-.166-9.966-.733-11.839-.795-.511-.055-1.355-.788-1.81-1.7-.678-1.188-1.19-1.472-2.323-1.244-.795.228-1.472.118-1.472-.166 0-.338-1.25-.905-2.834-1.306-2.55-.622-3.172-1.188-2.889-2.771.056-.29-.172-.345-.455-.173-.733.456-1.984-2.377-2.04-4.533 0-.961-.51-2.433-1.188-3.283s-1.244-1.984-1.244-2.55c0-.512-.345-1.245-.684-1.584-.338-.345-.905-2.155-1.244-4.028-.85-4.361-1.417-5.039-4.133-4.589-1.7.283-2.156.117-2.156-.677 0-.512-.567-1.134-1.3-1.356-.739-.228-1.644-1.305-2.156-2.439-1.188-2.833-2.266-6.116-2.66-7.872-.228-.856-1.306-2.494-2.495-3.739-1.127-1.25-2.267-2.833-2.433-3.572-.961-3.339-3-6.739-4.361-7.36-1.25-.568-1.472-1.023-1.195-2.157.234-.905.117-1.527-.278-1.527-.456 0-.967-.567-1.361-1.245 0-32.067-.456-63.9-1.7-95.339l.056-.172c.4-.511.51-.795.794-.961.456-.283.85-1.189.85-1.983 0-.795.567-2.095 1.244-2.89 1.59-1.81 1.59-2.266 0-3.282-1.3-.795-1.7-3.518-.677-4.596.96-1.071.96-3-.173-5.55-.566-1.299-.905-2.66-.733-2.888.34-.567 2.661-.166 3.795.566.339.229 2.605.401 5.044.401 3.906-.062 4.417-.172 4.528-1.306.11-.905-.456-1.583-2.095-2.377-1.188-.622-2.494-.961-2.778-.795-.283.173-.794-.11-1.244-.567-.456-.622-1.361-.794-2.494-.566-.906.172-3.339 0-5.44-.45-2.038-.4-4.305-.684-4.982-.628-1.984.172-2.945.117-5.55-.284a7.5 7.5 0 0 0-1.25-.11zm7.028 6.4 1.3 1.472c.739.85 1.361 1.928 1.416 2.384 0 .505.118 1.355.118 1.977.055.567-.4 1.195-1.023 1.306-1.016.172-1.361-.166-1.133-1.361.056-.284-.228-.961-.567-1.417-.45-.45-.511-.906-.11-1.134.338-.221.45-1.016.338-1.81z" style="stroke-width:.0348476" transform="matrix(.71328 0 0 .71323 187.334 79.566)"/>
      <path fill="#fff" d="M142.32 375.82c.339 0 .622.283.622.622a.624.624 0 0 1-.622.622.624.624 0 0 1-.622-.622c0-.338.283-.622.622-.622m-62.939-.172c.228-.056.345.227.345.794 0 1.417-.117 1.534-.684.567a1.03 1.03 0 0 1 .173-1.244c.055-.056.11-.118.166-.118zm37.444-1.756c.511 0 .967.283.967.684 0 .338-.338.622-.684.622-.338 0-.505.228-.338.511.172.283-.111.505-.622.505-.567 0-.795-.339-.567-.905.172-.45.283-1.017.283-1.134 0-.166.45-.283.961-.283m7.367-1.189c.456 0 1.133.173 1.928.511 1.016.401 1.016.456-.228 1.245-.739.456-1.133.51-.905.117.222-.345 0-.684-.567-.684-.511 0-.967-.277-.967-.622 0-.338.228-.511.74-.567zm18.522-1.3c.117 0 .228.395.228.961 0 .512-.284.906-.567.906-.339 0-.511-.394-.283-.906.166-.566.455-.96.622-.96zm-44.805 0c.505 0 1.072.284 1.3.623s-.166.622-.906.622c-.739 0-1.306-.284-1.306-.622 0-.339.4-.622.912-.622m-42.772 0c.117 0 .456.284.622.623.228.339.117.622-.222.622-.4 0-.683-.284-.683-.622 0-.339.117-.622.283-.622m37.9-.172h.394c.622 0 1.078.173 1.078.567 0 .456-.511.85-1.133.85-.85 0-.906.172-.228.566.622.401.511.623-.456.85-1.472.395-2.772-.739-2.094-1.81.4-.567 1.534-.967 2.439-1.023m-6.517-.166c.283 0 .684.11 1.023.339.505.283.788.678.622.905-.173.173-.74.056-1.25-.283-.45-.283-.734-.739-.561-.905.055 0 .11 0 .166-.056m-24.528-.117c.11.055.394.339.905.905.968 1.134 1.7 1.361 3.117 1.078 1.023-.228 2.04-.11 2.267.173.172.339-.456 1.016-1.361 1.583-1.928 1.077-4.534.51-4.534-1.017 0-.511-.166-1.416-.394-2.039-.11-.51-.166-.739 0-.683m13.65-.055c.628.055 1.25.622 1.25 1.472 0 1.189-.911 1.189-1.872.055-.511-.622-.511-1.016-.055-1.3.172-.172.456-.227.677-.227m61.467-.118c-.511 0-1.244.4-1.7.912-.622.794-.622.96.166.96.511 0 1.306-.393 1.7-.96.622-.74.622-.912-.166-.912m-52.455-.56c.11 0 .222.166.45.394.456.394.622.905.456 1.133-.173.166-.567-.172-.795-.794-.228-.567-.228-.789-.11-.733zm14.839-.056c.339 0 .684.277.684.616 0 .345-.118.628-.284.628-.172 0-.455-.283-.683-.628-.228-.339-.111-.616.283-.616m-40.844 0c.228 0 .628.394.85.905.172.567 0 .961-.505.961-.456 0-.795-.394-.795-.96 0-.512.228-.906.45-.906m100.89-3.061c.055 0 .11 0 .166.055.173.228.228.74.055 1.19-.221.51-.338.393-.394-.34 0-.51.056-.85.173-.905m-4.25-1.078c1.755.056 3.338.228 3.172.622-.11.339.166 1.928.622 3.4.678 2.322.622 2.944-.055 3.628-1.022 1.016-.967 1.016-2.384.166-.616-.338-1.127-1.189-1.127-1.866 0-.684-.228-1.134-.511-1.023-.74.228-4.14-3.905-3.628-4.416.4-.4 2.211-.511 3.911-.511m-38.75-1.528c-.678 0-.505.394.622 1.528 1.59 1.583 3.117 2.039 3.117 1.022 0-.794-2.55-2.55-3.74-2.55m-15.461 0c-.85 0-1.534.222-1.534.45 0 .283.684.567 1.534.684.905.056 1.583-.173 1.583-.511 0-.34-.678-.623-1.583-.623m39.933-1.306c-.906 0-1.756 2.723-1.417 4.534.34 1.7 1.817 2.15 2.384.622.511-1.189-.283-5.156-.967-5.156m-54.95-1.866c-.56 0-1.016.45-1.016 1.016 0 1.078 1.36.906 1.755-.283.111-.394-.228-.733-.74-.733m1.706-.511c-.117 0-.172.283-.172.905 0 .684.172 1.473.394 1.7.739.789.85 0 .283-1.527-.283-.684-.45-1.023-.505-1.078m53.305-.117c-.345 0-.628.289-.628.683 0 .34.283.45.628.284.339-.228.622-.512.622-.678 0-.172-.283-.29-.622-.29zm-67.41 0c-.85 0-.685 1.761.22 2.1.401.11 1.023.11 1.307 0 .566-.339-.74-2.1-1.528-2.1m25.488-.616c-1.133 0-2.55 3.338-1.528 3.677.339.11.678.684.678 1.244 0 1.59.961-.283 1.417-2.889.339-1.583.172-2.032-.567-2.032m-33.878-.401c-.505 0-.788.166-.622.456.339.622-3.228 2.544-3.739 1.977-.222-.166-.394.117-.394.684 0 .85.283.905 1.583.394.911-.339 1.928-.45 2.211-.283.339.228.394-.056.228-.622-.284-.623-.117-.906.394-.795.456.062.905-.283 1.078-.85.117-.56-.228-.961-.74-.961zm16.49-.11c-.284.055-.512.393-.512.85 0 .566.283.905.622.788.967-.284 1.078-1.3.172-1.583-.055-.056-.117-.056-.172-.056zm14.271-1.079c-.622.111-.96.678-.505 1.189.56.567 1.355.511 1.756-.172.166-.339-.062-.733-.567-.906-.228-.11-.511-.11-.684-.11m16.656-2.211c-.339 0-.45.283-.283.622.227.34.511.628.683.628.167 0 .278-.289.278-.628 0-.338-.278-.622-.678-.622m17.734-.505c.222-.062.45 0 .678.11.51.167.394.34-.34.34-.683.055-1.077-.112-.85-.284q.168-.166.512-.166m-55.178-.228c-.283 0-.622.284-.794.733-.111.345.283.622.85.622.566 0 .911-.338.794-.788-.172-.4-.511-.628-.85-.567m45.261-.283c-.166 0-.338.056-.567.056-.677.11-1.527.283-1.866.283-.345.055-.172.338.339.677 1.133.795 1.928.795 3.055.111.912-.616.345-1.182-.96-1.127zm-60.16-1.134c-1.017 0-1.923.229-2.49.733-.85.74-1.305.795-1.983.284-.456-.394-1.022-.567-1.25-.339-.394.4-4.872 1.472-7.022 1.7-1.7.173-2.944 1.023-2.495 1.756.4.622 11.845.227 12.917-.45.345-.173 1.078.11 1.645.677.96.961 1.133.961 2.495-.677.85-.912 1.472-1.928 1.472-2.211 0-.967-1.7-1.473-3.29-1.473zm35.632-.967c-.11 0-.228.4-.228.906 0 .567.284.967.629.967.338 0 .45-.4.221-.967-.166-.505-.455-.906-.622-.906m7.367-.394c-.511.056-1.133.056-1.817.173-2.889.339-3.283.566-3.283 1.866 0 1.645.96 2.433 2.039 1.7.394-.228 1.527-.567 2.488-.622 1.873-.228 3.061 1.133 3.061 3.511 0 1.645 1.245 1.7 1.7.11.173-.677 1.134-1.582 2.095-1.976 1.022-.4 1.872-.967 1.872-1.195 0-.222-1.527-1.19-3.344-2.095-2.15-1.078-3.228-1.472-4.811-1.472M83.4 352.71c-.056.055-.166.055-.222.11-.338.229-.628.512-.628.685 0 .166.29.283.628.283.34 0 .622-.34.622-.684 0-.283-.172-.394-.4-.394m10.028-.172c-1.928 0-3.967 1.25-3.967 2.377 0 .456.511.511 1.756.062 1.022-.345 2.211-.567 2.667-.456.45.11.96-.283 1.072-.906.172-.85-.167-1.077-1.528-1.077m-13.366-.056a.5.5 0 0 0-.4.228c-.222.166-.167.678.117 1.133.394.678.505.622.733 0 .227-.683-.056-1.305-.45-1.36zm51.15-1.984c.228.056.456.684.567 1.756.394 3.061.172 3.345-.622 1.022-.395-1.022-.456-2.21-.166-2.605.055-.173.166-.173.221-.173m14.5-2.716h.117c.228.055.34.283.512.622.166.511.055.961-.339.961-.345 0-.511.456-.29.967.173.505.29.906.234.85-1.983-.684-2.328-1.817-.856-3.006a1.6 1.6 0 0 1 .622-.394m-42.427-.905a.624.624 0 0 0-.622.622c0 .338.283.622.622.622a.63.63 0 0 0 .622-.622.624.624 0 0 0-.622-.622m-11.328 0c-.511 0-1.244 1.527-1.244 2.543 0 .684.222.684 1.472.228.905-.338.74-2.772-.228-2.772zm53.533-3.179c.339 0 .394.456.222.967-.222.511-.622.906-.9.906-.289 0-.4-.395-.227-.906.227-.511.622-.967.905-.967m-97.661-9.116c-.228.056-.339.283-.339.622 0 .511.228.961.505.961.29 0 .567-.283.567-.622 0-.283-.278-.733-.567-.906-.056-.055-.11-.055-.166-.055m88.428-1.361c-.056 0-.117.055-.228.117-.339.166-.622.505-.622.677 0 .111.284.228.622.228a.63.63 0 0 0 .622-.628c0-.278-.172-.45-.394-.394m-63.222-.906c-1.244 0-2.15 5.778-1.3 8.273.567 1.644.512 1.866-.566 1.866-1.472 0-1.645.967-.284 1.472.512.228.961.85.961 1.417 0 .684.34.85.967.622.56-.222 1.3-.394 1.583-.394.339 0 .567-.74.567-1.59 0-.905.456-2.432 1.016-3.51.511-1.072.85-2.323.629-2.828-.173-.511-.117-.794.221-.573.29.173.85-.11 1.306-.616.511-.628.567-.911.056-.911-.394 0-.678-.567-.678-1.189 0-.795-.567-1.3-1.755-1.528-.967-.117-2.156-.4-2.606-.51zm55.005-.96c-.394.055-.228 1.016.567 1.983 1.133 1.244 1.755 1.133 1.755-.456 0-.733-.166-1.189-.394-.961s-.795.11-1.244-.228c-.284-.283-.511-.339-.684-.339m-33.816-.678c.85-.062 2.156 1.016 2.156 1.922-.062.394-.456.172-1.023-.567-.905-1.189-.905-1.189-.622.511.339 1.928.284 2.039-.739.961-.96-.905-1.016-2.211-.11-2.716.11-.056.227-.111.338-.111m-24.244-.118c-.172 0-.4.056-.511.173-.173.222.172.339.85.339.733-.056.85-.172.394-.394a3 3 0 0 0-.733-.118m-10.422-1.077c-.172 0-.345.055-.511.11-.906.345-.906.512-.056 1.818.844 1.3.844 1.472-.345 1.755-1.016.283-1.3.055-1.3-.905 0-.906-.283-1.134-1.022-.906-.511.228-1.355.394-1.866.394s-.906.567-.906 1.245c0 .739-.684 2.439-1.59 3.855-1.527 2.378-1.7 2.489-2.716 1.583-1.305-1.188-1.983-1.3-1.983-.338 0 .338-.394 1.078-.905 1.644-.567.512-.795 1.19-.567 1.528.172.339-.062 1.133-.567 1.7-.511.567-.85 1.928-.794 2.944.227 2.945.4 3.228.96 1.756.34-.789 1.306-1.7 2.156-2.039 2.323-.905 6.117-.228 7.14 1.25.45.678 1.36 1.245 1.977 1.245.628 0 1.533.45 1.983.96.456.567.967.74 1.189.34.228-.395.739-.395 1.306-.056.51.339 1.133.628 1.416.628.85 0 .456-2.95-.51-3.745-.512-.45-.734-1.127-.45-1.527.227-.395.504-1.134.566-1.645.733-6.455.788-8.155.222-8.494-.34-.228-.622-1.189-.622-2.156 0-1.81-1.017-3.055-2.206-2.944zm59.477-.906c.339 0 .622.283.622.622s-.283.74-.622.967c-.339.222-.622-.061-.622-.573 0-.56.283-1.016.622-1.016m30.644-.338c.117 0 .228.055.456.11.567.228.85.684.622 1.023-.228.394.056.456.85.222.733-.222 1.472-.111 1.7.234.228.394 0 .677-.511.677s-1.072.395-1.244.906c-.456 1.133-1.59 1.244-2.945.338-.794-.566-.794-.733.222-1.527.628-.512 1.023-1.19.795-1.59-.167-.221-.167-.394.055-.394zm-1.81-.062c.566 0 .566.172.055.456-1.072.739-1.639.739-2.039.117-.172-.228.456-.511 1.306-.573zm-8.329-.222h1.417c.96 0 1.3.284 1.023.795-.401.622-.284.622.394 0 1.306-1.25 2.266-.912 3.061 1.078 1.016 2.322.678 5.322-.4 4.133-.395-.456-.678-1.645-.623-2.606.111-1.416-.11-1.761-.96-1.644-.623.117-1.756-.228-2.55-.795zm-63.9-1.244c-.788 0-1.355 1.016-.85 1.466.684.74 1.423.456 1.423-.505 0-.511-.234-.961-.573-.961m57.272-1.872c.345 0 .622.566.622 1.244 0 .683-.11 1.25-.277 1.25-.117 0-.344-.567-.572-1.25-.167-.678-.056-1.244.227-1.244m-5.722-.623c-.339 0-.622.567-.622 1.245 0 .683.283 1.25.622 1.25.4 0 .684-.567.684-1.25 0-.678-.284-1.245-.684-1.245m-41.633-1.872c-.056 0-.228.172-.511.567-.34.566-.622 1.195-.622 1.478 0 .277.283.338.622.11.338-.227.622-.85.622-1.471 0-.456 0-.684-.111-.684m-33.311-.056c.283 0 .511.456.511.967 0 1.072-.055 1.134-.677.505-.567-.56-.512-1.472.166-1.472m72.111-.511c.172 0 .511.062 1.078.228 4.761 1.528 5.895 2.1 5.778 3.061-.056.567.172 1.017.51 1.017.284 0 .512.566.512 1.25 0 1.472 2.772 3.456 3.85 2.772.567-.277.684-.055.394.912-.166.733.062 1.638.511 1.977 1.023.85 1.645 3.172.85 3.172-.283 0-.566-.283-.566-.622a.654.654 0 0 0-.678-.678c-.339 0-.456.284-.283.567.166.339-.056.905-.511 1.3-.567.455-1.017.51-1.134.117-.11-.34-1.072-.795-2.094-1.078-1.873-.394-1.873-.394-.622.795.96.905 1.306 1.928 1.244 4.471 0 1.818-.228 3.29-.567 3.29-.283 0-.394.505-.221 1.188.166.623 0 1.583-.401 2.15-.678.906-.85.85-1.528-.222-.455-.739-1.188-1.077-1.872-.85-1.016.34-1.016.34 0-.345.622-.394 1.361-.622 1.59-.45.282.167.566-.4.621-1.188.111-.85.228-2.267.34-3.117.054-.85.338-1.583.621-1.583 1.023 0 .395-1.078-2.038-3.628-1.417-1.472-3-2.667-3.511-2.667-.45 0-.906-.166-.961-.45-.228-2.039-.117-4.589.277-6.344.4-1.473.234-2.495-.505-3.622-.684-1.023-.905-1.423-.684-1.423m-50.983-1.127c-.339.055-.85 1.244-1.127 3.227-.339 2.323-.284 2.433.566 1.3.506-.677.906-2.094.906-3.11 0-.968-.117-1.417-.345-1.417m12.239-2.1c-.339 0-.456.283-.228.621.172.34.511.629.622.629.172 0 .29-.29.29-.629 0-.338-.29-.622-.684-.622zm18.584-1.922c.222 0 .339.166.339.566 0 .284-.339.9-.85 1.3-.74.622-.85.511-.567-.567.166-.794.733-1.3 1.078-1.3zm-4.878-1.195c.4 0 .967.227 1.133.566.228.345.117 1.134-.277 1.762-.628.96-.74.96-.456-.283.173-.795 0-1.534-.4-1.7-.505-.228-.505-.284 0-.345m-34.95-.678c-.789 0-.733.172.172 1.189.733.85.85 1.361.394 1.644-.511.284-.511.678.056 1.362.628.733.85.677 1.645-.456.794-1.133.794-1.417-.167-2.55-.628-.622-1.533-1.189-2.1-1.189m2.778-.622c-.34 0-.111.45.51.905.678.512 1.245 1.528 1.3 2.212.056.733.684 1.7 1.362 2.205 1.417 1.022 1.59.905 2.495-1.756.505-1.472 1.133-2.038 2.205-2.038 2.55-.111 3.116-.228 3.116-.85 0-.789-7.022-.678-8.044.117-.567.45-1.078.45-1.583-.056-.4-.4-1.023-.74-1.361-.74m15.239-.283c-.623 0-1.25.227-1.59.677-.905 1.25-.455 2.039.629.967.566-.567.905-.283 1.527 1.134.567 1.41 1.017 1.755 2.095 1.466.739-.167 1.188-.678 1.077-1.072-.172-.394 0-1.189.284-1.811.338-.684.338-1.078-.056-1.078-.345 0-.905.511-1.25 1.078-.567.96-.622 1.016-.678.11 0-.96-1.022-1.527-2.039-1.471zm10.878-.34c-.34 0-.74.284-.967.623-.222.339.055.622.566.622.567 0 1.023-.284 1.023-.622a.63.63 0 0 0-.622-.622m-2.55-.283-.968 1.417c-.566.733-.85 1.644-.622 2.039.684 1.016 1.59 0 1.59-1.811zm28.039-2.267c.677 0 .905.34.677.961-.222.567 0 .967.628.967.906 0 .906.111.166 1.017-.794.967-.733 1.022.284.622.677-.222.96-.166.739.227-.228.34-.967.623-1.7.623-.74 0-1.7.51-2.211 1.078-.512.622-.733.739-.45.283.394-.85.622-1.984.788-4.645.056-.622.567-1.133 1.078-1.133zm-10.478-4.416c.338 0 .788.339 1.016.678.684 1.077.11 1.188-.795.227-.45-.456-.56-.905-.222-.905zm-20.111-2.211c-.512-.056-1.25.055-2.378.283-.173.055.056.45.511.96.733.906 2.094 1.023 2.378.173.339-.96.283-1.416-.511-1.416m-4.645-1.928c-.4 0-.85.172-1.361.622-.456.456-.394.967.283 1.7 1.528 1.817 3.4.283 2.15-1.7-.277-.45-.678-.678-1.072-.622m3.794-.228c-.566 0-1.016.283-1.016.628 0 .339.278.622.616.622.29 0 .74-.283.967-.622.228-.345-.056-.628-.567-.628m-29.06-.788c.338 0 .905.339 1.983 1.188 2.778 2.095 5.21 2.378 6.572.623 1.072-1.245 2.55-1.023 2.433.394 0 .566-.11.566-.339 0-.567-1.417-1.361-.844-2.094 1.416-.74 2.156-.912 2.267-5.156 3.117-1.133.173-2.039-1.244-1.417-2.266.173-.284-.117-.567-.622-.567-1.188 0-1.305.739-.227 1.817.566.56.566.9 0 1.472-.456.394-.795.567-.795.34 0-.229-.567 0-1.244.621-.684.567-1.244 1.583-1.244 2.212 0 .677-.29 1.755-.684 2.433-.795 1.527-1.866 1.527-1.866-.056 0-.678.394-1.244.788-1.244.567-.056.511-.228-.11-.629-.568-.339-.679-.677-.34-.677.395 0 .734-.733.795-1.645.111-.905.567-2.544 1.072-3.566.567-1.023.967-2.267.967-2.723 0-.45.283-.844.622-.844.34 0 .622-.455.622-1.022 0-.228.111-.394.284-.394m24.982-6.179c-.339 0-.794.284-1.022.684-.222.34-.111.622.228.622.338 0 .794-.283 1.016-.622.228-.4.117-.684-.222-.684m-14.05-5.66c.339 0 .567 1.3.512 2.827 0 1.762-.284 2.833-.74 2.833-1.016 0-1.638 2.606-.85 3.573.456.505.456.906 0 1.189-.394.166-.677-.055-.677-.628 0-.56-.283-.844-.684-.623-1.189.74.117-3.11 1.361-4.016 1.473-1.078 1.59-2.1.173-1.533-.906.339-.906.172-.173-1.134.456-.85.795-1.755.74-1.983-.118-.283.055-.505.339-.505zm27.872-1.306c.284-.055.505.567.678 1.928.172 1.133-.11 1.645-.906 1.81-.96.167-1.077-.055-.683-1.582.345-1.417.628-2.156.911-2.156m-.061-1.81c.345 0 .628.11.628.282 0 .111-.283.45-.628.678-.34.172-.616.055-.616-.283 0-.395.277-.678.616-.678m-24.355-1.756c-.34.055-.567.905-1.078 3.172-.222 1.016-.111 1.7.228 1.7.394 0 .677-.511.677-1.134 0-.628.345-1.472.74-1.872.566-.567.566-.906 0-1.472-.228-.228-.395-.395-.567-.395zm24.133-1.134h.11c.056 0 .056 0 .112.055.345.229.628.789.628 1.3s-.283.912-.628.912c-.34 0-.616-.629-.616-1.306 0-.567.166-.906.394-.961m-28.156-5.84c.227 0 .456.118.622.401.74 1.244 6.4 1.417 8.328.283 2.377-1.36 3.967-.622 3.344 1.583-.683 2.55-.794 6.462-.227 8.39.283 1.072.166 1.983-.228 2.433-.512.511-.45.677.117.677.45 0 .622.284.394.623-.794 1.25.283 3.005 1.639 2.667 1.706-.456 2.55-2.834 1.817-4.873-.339-.85-.339-1.589-.055-1.589 1.133 0 .338-3.172-.85-3.51-1.134-.401-1.134-.457.338-1.245.795-.456 1.983-.85 2.606-.85.622-.056 1.077-.34 1.077-.74 0-.393.395-.504.906-.338.511.173 1.078-.055 1.244-.566.511-1.3 2.889-.85 3.234.622.844 3.683 1.3 8.5.844 8.672-.622.222.172 3.511.905 3.795.284.055.74-.228 1.023-.684.394-.622.85-.678 1.755-.166 1.078.567 1.25 1.244 1.189 4.583l-.055 3.966-1.867-.166c-1.761-.117-1.817-.061-.794.733 1.7 1.306 1.3 1.59-1.984 1.306-2.322-.172-3.172 0-3.455.678-.228.622.056.905.85.905.622 0 1.355.345 1.645.684.221.394.96.567 1.638.394.74-.227 1.7.055 2.211.567 1.023 1.016 2.717 1.189 2.717.283 0-.4 1.133-.677 2.494-.677 2.717 0 4.306 1.127 5.95 4.36 1.411 2.772.734 4.023-2.1 3.567-3.51-.567-7.872-.85-8.666-.567-.45.173-.623 1.811-.395 4.706.228 3.795.056 4.59-.905 5.267-1.023.788-.967.85.795 1.3 1.016.228 2.094.794 2.377 1.133.34.511.678.4 1.244-.228.456-.566 1.528-.85 2.778-.733 1.867.166 2.095 0 2.095-1.416 0-.906-.284-1.645-.678-1.645a.634.634 0 0 0-.628.622c0 .4-.505.622-1.189.622-1.133 0-1.133-.11-.283-1.866 1.133-2.211 1.078-2.211 2.439-.85.794.739 1.189.85 1.866.227.511-.394 1.59-.622 2.44-.51.794.117 1.983-.173 2.55-.678.85-.74 1.016-.684 1.016.11 0 .567-.622 1.19-1.3 1.417q-1.365.427-1.022 1.528c.283 1.25-.567 3.172-1.473 3.172-.339 0-1.7.684-3.06 1.534-1.756 1.078-2.545 2.094-2.828 3.622-.228 1.188-.628 1.755-.906 1.416-.227-.394-1.195-.905-2.1-1.133s-2.094-1.133-2.66-1.983c-1.251-1.922-3.118-2.04-4.929-.339-1.305 1.189-1.305 1.478-.51 3.628.455 1.3.794 3.172.794 4.189-.062 1.077.394 2.21 1.133 2.833.906.74 1.244 1.928 1.355 4.589.117 2.833.4 3.683 1.25 3.911.623.111 1.3 0 1.528-.339.173-.283.906-.4 1.583-.172.628.172 1.195.11 1.195-.228s-.739-.795-1.589-1.016c-1.355-.345-1.528-.684-1.472-3.234.055-1.528.283-3 .622-3.172.283-.166.511 0 .511.4 0 .339.284.511.567.339.283-.166.394.283.283 1.078-.227 1.133 0 1.417 1.023 1.417.733 0 1.3-.173 1.3-.456 0-.795-1.528-3.967-2.095-4.361-.967-.678-1.244-5.384-.4-5.95.566-.34.683-.056.455 1.188-.283 1.534-.172 1.645 1.017 1.306.739-.228 2.439-1.472 3.738-2.833 1.306-1.362 3.006-2.606 3.74-2.778 1.478-.395 3.855-3.795 3.289-4.7-.173-.283.11-.678.622-.85.511-.228 1.361-1.361 1.866-2.606.912-2.21 1.817-2.771 2.495-1.644.227.283 0 .683-.511.856-.561.222-.733 1.072-.561 2.605.222 2.095.11 2.316-1.645 2.661-2.266.45-2.439 1.583-.51 3.511l1.416 1.417.166-2.322c.172-1.817.4-2.211.967-1.645.905.85.567 5.667-.456 6.345-.511.338-.45.45.062.45.733 0 .677.628-.29 3.178-.732 1.922-.677 6.85.118 7.872.622.906.566 1.361-.684 2.661l-1.41 1.528 1.355 1.817c1.305 1.81 1.36 1.81 2.494.566.622-.683 1.3-1.244 1.472-1.244.74 0 2.661 2.15 2.378 2.661-.166.284.567.906 1.645 1.3 1.077.4 1.928 1.189 1.928 1.817 0 1.127 1.638 1.977 2.605 1.41.339-.221.394.284.166 1.306-.394 1.59-.339 1.645.906.85.739-.455 1.36-1.188 1.36-1.644 0-.394.568-.795 1.251-.795.678 0 1.245-.221 1.245-.566 0-.284.85-.222 1.921.172 1.023.394 1.873 1.133 1.873 1.645.056.85.11.85.622.055.511-.794.622-.794.967.111.277.684.844.912 1.755.74.789-.228 1.811-.4 2.323-.4.505-.056 1.3-.506 1.7-1.017.677-.905.844-.905 1.416-.11.34.566.678.677.678.338 0-.4.166-.4.456 0 .616.85 5.377 3.684 4.921 2.889-.221-.339.117-.511.684-.4.622.061 1.189.455 1.3.85.117.344.628.51 1.078.344.51-.172 1.022-.061 1.25.277.166.345-.062.795-.573.967-.505.228-1.072.111-1.244-.172-.45-.733-3.683-.222-4.416.739-.339.45-1.473.788-2.495.678-1.016-.056-2.211.166-2.661.51-1.022.85-1.078 3.684-.11 3.684.504 0 .504.222 0 .85-.401.45-.574 1.017-.401 1.19.227.227-.512.732-1.528 1.188-1.078.511-1.928 1.189-1.928 1.583 0 1.078-1.928 1.644-2.833.85-.45-.34-1.245-.45-1.867-.222-.622.222-1.361-.055-1.928-.794-.788-1.134-.905-1.134-2.322.227-1.811 1.694-2.15 1.756-2.606.45-.228-.511-.11-.794.173-.622.339.228.905-.228 1.3-.905.683-1.306.566-1.306-3.283-1.134-2.945.111-3.967.456-3.967 1.134 0 .622-.74.905-2.378.96-1.244.056-2.322-.11-2.322-.45 0-.283.283-.566.622-.566.339-.062.905-.173 1.244-.283.339-.056.906-.173 1.25-.228.34 0 .623-.283.623-.567 0-.283-2.1-.567-4.706-.677-3.85-.118-4.7.055-4.7.85 0 .505-.795 1.127-1.7 1.355-1.361.338-1.928.117-3-1.244-.739-.906-1.872-1.645-2.55-1.645-.622 0-1.644-.45-2.211-.961-.622-.567-2.211-1.078-3.511-1.25-1.361-.111-2.606-.277-2.772-.395-.172-.055-.573-.055-.85 0-.29.056-2.605.228-5.217.395-4.078.227-4.81.455-6.117 1.928-1.133 1.36-1.81 1.644-3.061 1.305-1.755-.455-2.889-2.95-1.3-2.95.505 0 .795-.34.622-.788-.172-.401-.677-.623-1.133-.512-.511.111-1.361.228-1.983.166-.622 0-1.072.4-1.128 1.023 0 .85-.117.905-.51.227-.401-.622-.684-.622-1.023-.172-.284.511-.795.511-1.645.056-1.355-.733-4.983-.222-4.983.683 0 .284.511.795 1.078 1.19.96.51.85.621-.622.621-1.189.062-1.645-.228-1.362-.677.284-.4-.055-1.134-.677-1.59-1.023-.732-1.078-1.071-.456-2.094 1.078-1.755.961-2.039-.456-1.244-.733.34-1.3 1.016-1.3 1.472 0 .961-1.872 1.639-4.533 1.639-1.189 0-1.583-.222-1.355-.844.222-.567-.117-.85-1.133-.795-.795.055-1.645-.11-1.817-.4-.229-.277-1.639-.678-3.173-.789-6.172-.573-6.91-.739-7.644-1.472-.4-.456-.511-.74-.172-.684 1.3.228 2.266-.055 1.983-.566-.172-.284-.96-.45-1.81-.395-.795.056-1.756-.11-2.157-.455-.45-.34-1.133-.395-1.527-.167-.567.395-.678-.905-.34-5.439.395-6.289 1.3-10.256 2.834-12.067.505-.566.622-1.077.34-1.077-.85 0-.63-4.189.338-5.267.455-.567.51-1.078.166-1.306-1.19-.677 0-2.716 1.761-3.11 2.772-.512 4.866-3.234 4.472-5.612-.055-.283.567-.339 1.362-.11.739.228 1.928.51 2.488.677.628.172 1.133.74 1.133 1.244 0 .567.456.912 1.078.795 1.59-.34 4.078-6.006 4.25-9.745.166-3.283.678-4.305 3.4-6.738.85-.74 2.323-2.095 3.284-3.006 3.006-2.828 5.888-4.189 9.005-4.244 3.061-.056 4.14-.394 4.14-1.362 0-.283-1.19-.394-2.668-.172-5.777.795-5.716.85-5.888-2.544-.111-1.644.055-4.25.338-5.778.345-1.983.284-3.172-.338-4.194-.456-.85-1.023-1.984-1.245-2.55-.228-.623-.628-.961-.85-.85-.283.172-.283-.795-.055-2.206.277-1.36.221-2.667-.062-2.833-.339-.172-.394-.622-.222-.905.222-.345.056-.629-.345-.629-.566 0-.566-.222.062-.96.622-.79.567-1.079-.4-1.812-.678-.51-.961-1.133-.678-1.36.056-.112.173-.173.34-.173zm20.056-8.832c.505-.056.788.228.788.85 0 .567-.394.795-.905.622-.45-.228-1.078-.055-1.3.394-.345.567-.056.684 1.133.456.961-.172 1.7-.11 1.7.111 0 .622 2.717.622 3.512 0 .45-.45 1.016-.283 1.583.456.622.739.622.905.117.567-.456-.229-1.189-.229-1.59.055-.449.283-1.638.566-2.66.622-1.078.117-2.778.339-3.795.456-1.022.172-2.1.283-2.322.339-.227 0-.567.677-.684 1.472-.166.74-.339 1.016-.394.567s-.338-.678-.622-.45c-.339.166-.739-.062-.967-.629-.166-.51-.622-.905-1.016-.905-.4 0-.567.228-.4.45.172.29-.512.628-1.528.684-1.017.055-1.811-.173-1.811-.512 0-.733 2.716-1.527 3.85-1.133.455.172 1.188-.111 1.755-.567.567-.505 1.817-1.583 2.833-2.433 1.134-.96 2.095-1.472 2.723-1.472m.394-98.566c1.3 31.722 1.59 63.444 1.7 95.111-4.36.166-6.8 0-9.8 0-.456-31.667-1.022-63.389 1.023-95.111 3.51-.172 5.432-.056 7.077 0m4.133-7.878c.173 0 .345 0 .622.117.345.11.4.567.118 1.078-.395.622-.678.622-1.017.11-.4-.677-.234-1.188.277-1.305m-5.66-3.456c.11 0 .228.062.338.117.512.167.795.567.567.906-.456.733-.677.677-1.078-.339q-.25-.683.173-.683zm-3.912-.96c1.59 0 1.59.055.456 1.243-1.023 1.134-1.023 1.306-.056 1.306.678 0 .961.395.789 1.362-.229 1.638-1.528 2.26-2.04.905-.172-.511-.85-.85-1.471-.74-.622.118-1.078-.165-1.078-.677 0-.455.283-.85.622-.85.345 0 .456-.227.228-.455-.74-.733.911-2.095 2.55-2.095zm10.028-13.2c.394 0 .905.283 1.133.621.512.795.284.795-.905 0-.567-.338-.684-.622-.228-.622zm-7.817-.284h.111c.228 0 .567.172.961.394.856.573 1.134 1.25.912 2.1-.567 1.867-1.078 2.206-2.156 1.528-.511-.283-.678-.567-.283-.567.339-.055.283-.221-.111-.51-.456-.284-.512-.962-.173-1.923.284-.683.456-.967.74-1.022m-7.139 0c.456-.056.623.172.512.511-.284.906-2.323 1.362-2.323.511 0-.339.567-.739 1.245-.967.228-.055.4-.055.566-.055m12.295-.34c.506 0 1.017.229 1.245.568.172.283-.056.677-.512.905-.96.34-1.638-.055-1.638-.96 0-.34.45-.512.905-.512" style="stroke-width:.0348476" transform="matrix(.71328 0 0 .71323 187.334 79.566)"/>
      <path fill="#ffd500" d="M269.05 270.25c-3.221 7.792-7.238 15.504-12.498 23.376-7.509 11.254-8.34 23.955-10.878 36.274-2.858 13.865-11.679 19.896-20.555 24.99 38.387-11.913 60.358-44.072 43.93-84.639z" style="stroke-width:.0348476" transform="matrix(.71328 0 0 .71323 187.334 79.566)"/>
      <path fill="url(#b)" d="M269.05 270.25c-2.593 31.679-15.282 80.974-43.93 84.639 38.387-11.913 60.358-44.072 43.93-84.639" style="fill:url(#b);stroke-width:.0348476" transform="matrix(.71328 0 0 .71323 187.334 79.566)"/>
    </g>
    <path fill="none" stroke="#d4a900" stroke-width="1.058" d="M269.05 270.25c-3.221 7.792-7.238 15.504-12.498 23.376-7.509 11.254-8.34 23.955-10.878 36.274-2.858 13.865-11.679 19.896-20.555 24.99 38.387-11.913 60.358-44.072 43.93-84.639z" transform="matrix(.71328 0 0 .71323 187.334 79.566)"/>
    <path fill="#ffd500" fill-rule="evenodd" d="M290.41 231.96c-2.556 5.242-5.266 10.41-7.663 15.719-5.02 11.13-7.613 21.99-4.638 36.791 2.68 13.311 1.454 23.678-1.805 36.964 18.707-17.703 27.607-39.348 18.134-67.707-2.451-7.342-3.498-14.512-4.028-21.768z" style="stroke-width:.156815" transform="matrix(.71328 0 0 .71323 187.334 79.566)"/>
    <path fill="url(#c)" fill-rule="evenodd" d="M290.41 231.96c-7.804 34.783 6.406 58.319-14.106 89.475 18.707-17.703 27.607-39.348 18.134-67.707-2.451-7.342-3.499-14.512-4.028-21.768" style="fill:url(#c);stroke-width:.156815" transform="matrix(.71328 0 0 .71323 187.334 79.566)"/>
    <path fill="none" stroke="#d4a900" stroke-width="1.058" d="M290.41 231.96c-2.556 5.242-5.266 10.41-7.663 15.719-5.02 11.13-7.613 21.99-4.638 36.791 2.68 13.311 1.454 23.678-1.805 36.964 18.707-17.703 27.607-39.348 18.134-67.707-2.451-7.342-3.498-14.512-4.028-21.768z" transform="matrix(.71328 0 0 .71323 187.334 79.566)"/>
    <g fill-rule="evenodd" style="stroke-width:.156815">
      <path fill="#ffd500" d="M176.76 376.25c2.92-7.213 8.242-11.093 14.875-12.898 5.895-1.614 12.017-2.408 18.109-3.117 22.249-2.575 40.992-9.954 57.599-24.873 17.789-15.978 31.513-37.783 39.459-58.22l-1.971-.758c-9.06 23.29-27.398 48.372-50.022 63.72-22.242 15.092-49.351 16.54-75.227 19.213-3.086 5.777-5.106 11.555-6.043 17.333a599 599 0 0 1 3.222-.401z" style="stroke-width:.0348476" transform="matrix(.71328 0 0 .71323 187.334 79.566)"/>
      <path fill="#ffd500" d="M329.5 191.25c-6.64 8.137-15.405 15.436-20.869 24.398-6.997 11.494-6.043 24.183-3.714 38.473 1.614 9.898-.123 19.883-2.014 29.825 5.864-9.357 12.073-18.602 18.54-26.197 11.284-13.262 12.609-28.778 8.056-45.945-1.91-7.22-1.071-14.241 0-20.555z" style="stroke-width:.0348476" transform="matrix(.71328 0 0 .71323 187.334 79.566)"/>
      <path fill="url(#d)" d="M329.5 191.25c-17.093 26.998-9.744 61.744-26.406 93.078 5.864-9.356 11.888-18.984 18.35-26.579 11.284-13.262 12.609-28.778 8.057-45.945-1.91-7.22-1.072-14.241 0-20.555z" style="fill:url(#d);stroke-width:.0348476" transform="matrix(.71328 0 0 .71323 187.334 79.566)"/>
    </g>
    <path fill="none" stroke="#d4a900" stroke-width="1.058" d="M329.5 191.25c-6.64 8.137-15.405 15.436-20.869 24.398-6.997 11.494-6.043 24.183-3.714 38.473.936 5.753.745 11.537.05 17.321-.506 4.207-1.11 7.515-2.859 11.352-9.732 21.368-26.751 44.109-47.306 58.048-22.236 15.091-49.351 15.793-75.227 18.467-2.636 4.435-4.657 10.213-6.043 17.333a599 599 0 0 1 3.222-.4c2.92-7.214 8.242-11.094 14.875-12.899 5.895-1.613 12.024-2.408 18.109-3.116 22.249-2.575 40.617-11.07 57.223-25.987 15.916-14.29 28.95-32.135 37.13-50.601 1.682-3.795 3.37-6.868 5.71-10.33 3.77-5.575 7.656-10.878 11.642-15.56 11.284-13.261 12.609-28.777 8.057-45.944-1.91-7.22-1.072-14.241 0-20.555z" transform="matrix(.71328 0 0 .71323 187.334 79.566)"/>
    <path fill="#ffd500" fill-rule="evenodd" d="M355.7 240.42c-6.301 7.934-13.619 14.173-23.776 18.947-6.67 3.13-12.658 7.207-17.857 12.584-10.052 10.404-11.968 24.3-24.46 36.182 9.942-6.049 20.08-9.048 29.825-11.691 22.926-6.209 36.175-24.213 36.268-56.022" style="stroke-width:.156815" transform="matrix(.71328 0 0 .71323 187.334 79.566)"/>
    <path fill="url(#e)" fill-rule="evenodd" d="M355.7 240.42c-2.316 7.151-8.1 15.522-15.516 23.998-15.196 17.358-36.835 27.349-50.577 43.715 9.942-6.049 20.08-9.048 29.825-11.691 22.926-6.209 36.175-24.213 36.268-56.022" style="fill:url(#e);stroke-width:.156815" transform="matrix(.71328 0 0 .71323 187.334 79.566)"/>
    <path fill="none" stroke="#d4a900" stroke-width="1.058" d="M355.7 240.42c-6.301 7.934-13.619 14.173-23.776 18.947-6.67 3.13-12.658 7.207-17.857 12.584-10.052 10.404-11.968 24.3-24.46 36.182 9.942-6.049 20.08-9.048 29.825-11.691 22.926-6.209 36.175-24.213 36.268-56.022z" transform="matrix(.71328 0 0 .71323 187.334 79.566)"/>
    <path fill="#ffd500" fill-rule="evenodd" d="M313.38 366.17c-12.572-13.761-24.817-18.91-36.884-19.945-16.077-1.38-39.84 3.376-54.199 9.868 9.886 1.872 40.672 21.626 74.562 12.898 5.1-2.15 11.013-2.285 16.52-2.821z" style="stroke-width:.156815" transform="matrix(.71328 0 0 .71323 187.334 79.566)"/>
    <path fill="url(#f)" fill-rule="evenodd" d="M313.38 366.17c-24.207-9.443-60.327-9.843-91.082-10.077 9.886 1.873 40.672 21.626 74.562 12.898 5.1-2.15 11.013-2.285 16.52-2.821" style="fill:url(#f);stroke-width:.156815" transform="matrix(.71328 0 0 .71323 187.334 79.566)"/>
    <path fill="none" stroke="#d4a900" stroke-width="1.058" d="M313.38 366.17c-12.572-13.761-24.817-18.91-36.884-19.945-16.077-1.38-39.84 3.376-54.199 9.868 9.886 1.872 40.672 21.626 74.562 12.898 5.1-2.15 11.013-2.285 16.52-2.821z" transform="matrix(.71328 0 0 .71323 187.334 79.566)"/>
    <path fill="#ffd500" fill-rule="evenodd" d="M333.54 303.7c-22.692 16.594-47.417-1.953-78.997 39.496 11.907-2.797 21.386-1.756 33.133-.862 18.208 1.392 34.118-7.466 45.865-38.633z" style="stroke-width:.156815" transform="matrix(.71328 0 0 .71323 187.334 79.566)"/>
    <path fill="url(#g)" fill-rule="evenodd" d="M333.54 303.7c-26.573 34.106-51.55 16.686-78.997 39.496 11.907-2.797 21.386-1.756 33.133-.862 18.208 1.392 34.118-7.466 45.865-38.633z" style="fill:url(#g);stroke-width:.156815" transform="matrix(.71328 0 0 .71323 187.334 79.566)"/>
    <g fill="none" stroke="#d4a900" style="stroke-width:.156815">
      <path stroke-width="1.058" d="M333.54 303.7c-22.692 16.594-47.417-1.953-78.997 39.496 11.907-2.797 21.386-1.756 33.133-.862 18.208 1.392 34.118-7.466 45.865-38.633z" transform="matrix(.71328 0 0 .71323 187.334 79.566)"/>
      <path stroke-width=".705" d="M269.05 270.25c-2.593 31.679-15.282 80.974-43.93 84.639m65.29-122.929c-7.804 34.783 6.406 58.319-14.106 89.475M329.5 191.25c-17.093 26.998-9.744 61.744-26.406 93.078M355.7 240.42c-2.316 7.151-8.1 15.522-15.516 23.998-15.196 17.358-36.835 27.349-50.577 43.715m23.773 58.037c-24.207-9.443-60.327-9.843-91.082-10.077M333.54 303.7c-26.573 34.106-51.55 16.686-78.997 39.496" style="stroke-width:.705397" transform="matrix(.71328 0 0 .71323 187.334 79.566)"/>
      <path stroke-width="1.058" d="M367.09 375.66h-.01.01l.005-371.2H4.925v371.205h-.01c0 11.303 4.595 21.553 12.024 28.981 7.422 7.422 17.672 12.024 28.981 12.024v-.02h105.115l.068.02c13.41.302 25.131 7.428 31.821 18.035.61.973 1.183 1.971 1.706 3a38.83 38.83 0 0 1 18.72-17.727 38.5 38.5 0 0 1 14.696-3.308h.118l.074-.02h107.865v.02c11.303-.005 21.553-4.601 28.975-12.024 7.429-7.428 12.024-17.678 12.024-28.987z" transform="matrix(.71328 0 0 .71323 187.334 79.566)"/>
    </g>
    <path fill="#ffd500" stroke="#d4a900" stroke-width="1.058" d="M236.38 19.315h68.292c3.412 0 6.203 2.901 6.203 6.45v4.292c0 3.548-2.79 6.45-6.203 6.45H236.38c-3.412 0-6.203-2.902-6.203-6.45v-4.293c0-3.548 2.79-6.449 6.203-6.449zm0 49.948c-3.412 0-6.203-2.895-6.203-6.443v-4.3c0-3.547 2.79-6.442 6.203-6.442h68.292c3.412 0 6.203 2.895 6.203 6.443v4.299c0 3.548-2.79 6.443-6.203 6.443h-24.411l-4.324 6.615c-.616.949-1.712 1.35-2.846 1.22h-5.13c-1.128.13-2.224-.271-2.847-1.22l-4.324-6.615zm31.211.949a2.934 2.934 0 0 0 2.938 2.938 2.93 2.93 0 0 0 2.932-2.938 2.93 2.93 0 0 0-2.932-2.932 2.93 2.93 0 0 0-2.938 2.932z" transform="matrix(.71328 0 0 .71323 187.334 79.566)"/>
    <path fill="url(#h)" stroke="#a90000" stroke-width="1.058" d="M236.49 25.801h68.082v36.976H236.49Z" style="fill:url(#h)" transform="matrix(.71328 0 0 .71323 187.334 79.566)"/>
    <g fill="#ffd500" style="stroke-width:.156815">
      <path stroke="#d4a900" stroke-width="1.058" d="M270.53 81.866c5.15 0 9.326 4.182 9.326 9.332s-4.177 9.326-9.326 9.326-9.332-4.177-9.332-9.326 4.183-9.332 9.332-9.332zm-5.365 9.332a5.365 5.365 0 1 0 10.73 0 5.365 5.365 0 0 0-10.73 0z" transform="matrix(.71328 0 0 .71323 187.334 79.566)"/>
      <path stroke="#d4a900" stroke-width="1.058" d="M270.53 70.193c1.18 0 2.14 1.004 2.14 2.224v14.04c0 1.22-.96 2.224-2.14 2.224s-2.134-.998-2.134-2.223V72.417c0-1.226.954-2.224 2.134-2.224z" transform="matrix(.71328 0 0 .71323 187.334 79.566)"/>
      <path d="m304.96 204.99-34.426-15.214-34.426 15.208 3.831-37.438-25.107-28.039 36.791-7.927 18.91-32.547 18.91 32.547 36.791 7.927-25.107 28.039z" style="stroke-width:.705664" transform="matrix(.71328 0 0 .71323 187.334 79.566)"/>
    </g>
    <path fill="url(#i)" d="m304.96 204.99-34.426-15.214-34.426 15.208 3.831-37.438-25.107-28.039 36.791-7.927 18.91-32.547 18.91 32.547 36.791 7.927-25.107 28.039z" style="fill:url(#i);stroke-width:.156815" transform="matrix(.71328 0 0 .71323 187.334 79.566)"/>
    <g fill="#ffd500" fill-rule="evenodd" style="stroke-width:.156815">
      <path d="m236.11 204.98 3.831-37.438 30.59-9.942z" style="stroke-width:.705664" transform="matrix(.71328 0 0 .71323 187.334 79.566)"/>
      <path d="m214.83 139.51 36.791-7.927 18.904 26.024zm36.79-7.93 18.91-32.547v58.572zm74.61 7.93-36.791-7.927-18.91 26.024z" style="stroke-width:.705664" transform="matrix(.71328 0 0 .71323 187.334 79.566)"/>
    </g>
    <g fill="none" stroke="#d4a900" style="stroke-width:.156815">
      <path stroke-width=".353" d="m326.23 139.51-86.296 28.039m61.196.001-86.296-28.039m90.126 65.469-53.336-73.41m18.906-32.537v90.744m18.91-58.197-53.336 73.404" style="stroke-width:.352833" transform="matrix(.71328 0 0 .71323 187.334 79.566)"/>
      <path stroke-width="1.411" d="m304.96 204.99-34.426-15.214-34.426 15.208 3.831-37.438-25.107-28.039 36.791-7.927 18.91-32.547 18.91 32.547 36.791 7.927-25.107 28.039z" transform="matrix(.71328 0 0 .71323 187.334 79.566)"/>
    </g>
    <path fill="#ffd500" fill-rule="evenodd" d="m304.97 204.99-34.422-15.213-.003-32.164 34.425 47.376z" style="stroke-width:.156815" transform="matrix(.71328 0 0 .71323 187.334 79.566)"/>
  </g>
</svg>
