<?xml version="1.0" encoding="UTF-8" standalone="no"?>
<svg
   viewBox="0 0 16 16"
   version="1.1"
   id="bi-bluesky"
   width="16"
   height="16"
   class="bi bi-bluesky"
   fill="currentColor"
   inkscape:version="1.2.2 (b0a84865, 2022-12-01)"
   sodipodi:docname="bluesky.svg"
   xmlns:inkscape="http://www.inkscape.org/namespaces/inkscape"
   xmlns:sodipodi="http://sodipodi.sourceforge.net/DTD/sodipodi-0.dtd"
   xmlns="http://www.w3.org/2000/svg"
   xmlns:svg="http://www.w3.org/2000/svg">
  <defs
     id="defs263" />
  <sodipodi:namedview
     id="namedview261"
     pagecolor="#ffffff"
     bordercolor="#666666"
     borderopacity="1.0"
     inkscape:showpageshadow="2"
     inkscape:pageopacity="0.0"
     inkscape:pagecheckerboard="0"
     inkscape:deskcolor="#d1d1d1"
     showgrid="false"
     inkscape:zoom="44.3646"
     inkscape:cx="7.3707415"
     inkscape:cy="8.0807671"
     inkscape:window-width="1440"
     inkscape:window-height="819"
     inkscape:window-x="0"
     inkscape:window-y="25"
     inkscape:window-maximized="0"
     inkscape:current-layer="bi-bluesky" />
  <path
     fill="currentColor"
     d="M 3.4681977,1.9043757 C 5.3025636,3.2815304 7.2755211,6.0738398 7.9999998,7.572234 8.7244786,6.073868 10.697436,3.2815304 12.531802,1.9043475 c 1.323577,-0.99363366 3.468197,-1.76250679 3.468197,0.6840562 0,0.4886197 -0.280141,4.104591 -0.444451,4.6916895 -0.571127,2.0409293 -2.652253,2.5614926 -4.50352,2.2464222 3.235915,0.5507046 4.059069,2.3749296 2.281295,4.1991546 C 9.9569855,17.190233 8.4805913,12.856402 8.1022815,11.745924 8.0329294,11.542346 8.0004787,11.447107 7.9999998,11.528093 7.999521,11.447107 7.9670703,11.542346 7.8977182,11.745924 7.5194084,12.856402 6.0430142,17.190233 2.6666767,13.72567 0.88890228,11.901445 1.7120289,10.07722 4.9479721,9.5264872 3.0967048,9.8415576 1.0155783,9.3209943 0.44445164,7.280065 0.2801418,6.6929665 1e-6,3.076967 1e-6,2.5883755 1e-6,0.14184071 2.1446486,0.91068567 3.4681977,1.9043757 Z"
     id="path257"
     style="stroke-width:1" />
</svg>
