<svg id="flag-icons-ru-nvs" class="fi fi-ru-nvs" viewBox="0 0 640 480" xmlns="http://www.w3.org/2000/svg" width="640" height="480">
  <metadata id="flag-icons">
    <name>Novosibirsk Oblast</name>
    <code>ru-nvs</code>
    <iso>true</iso>
    <type>Place</type>
    <capital>Novosibirsk</capital>
    <continent>Asia</continent>
  </metadata>
  <g style="stroke-width:1.32596">
    <path fill="#fff" d="M0 .4h899.12v599.4H0Z" style="stroke-width:1.65795" transform="matrix(.71118 0 0 .79976 0 .144)"/>
    <path fill="#008e1f" d="M651.77 0h248.14v600H651.77Z" style="stroke-width:1.65795" transform="matrix(.71118 0 0 .79976 0 .144)"/>
    <path fill="#0039a6" d="M399.2 0h98.9c0 99.993.26 200.177.37 300s.23 199.987.37 300h-99.66V-.18" style="stroke-width:1.65795" transform="matrix(.71118 0 0 .79976 0 .144)"/>
    <path fill="#d20000" d="M0 0h248.14v600H0Z" style="stroke-width:1.65795" transform="matrix(.71118 0 0 .79976 0 .144)"/>
  </g>
  <g style="stroke-width:1.40611">
    <path d="M249 427h150.15v6.45H249zm249.13-.19h152.68v6.45H498.13z" style="stroke-width:1.40611" transform="translate(.036 33.217)scale(.71118)"/>
    <path fill="#fff" d="M399.15 425.82h99.49V435h-99.49v-9.15" style="stroke-width:1.75817" transform="translate(.036 33.217)scale(.71118)"/>
    <path fill="gold" d="M392.42 231.72h113.91v-8.32c-8.15-20.56-22.38-31.53-37.66-36.3l-2.1-.6v-5.94h-34.51v6.11l-1.25.34a59.64 59.64 0 0 0-38.43 36.44V232" style="stroke-width:1.75817" transform="translate(.036 33.217)scale(.71118)"/>
    <path fill="#d20000" d="M311.64 419.85c-1.51-.4-3-.82-4.52-1.28 2-1.59 3.89-3.35 5.85-5l4.91 1.16c-2.12 1.71-4.16 3.45-6.24 5.12" style="stroke-width:1.75817" transform="translate(.036 33.217)scale(.71118)"/>
    <path fill="none" stroke="#000" stroke-miterlimit="22.93" stroke-width=".62" d="M221.668 331.806a95 95 0 0 1-3.214-.91c1.422-1.131 2.766-2.383 4.16-3.556l3.492.825c-1.508 1.216-2.959 2.453-4.438 3.64z"/>
    <path fill="#d20000" d="m304.17 417.92-4.52-1.33c2-1.62 3.89-3.35 5.85-5 1.59.45 3.24.82 4.86 1.22-2.07 1.84-4.11 3.44-6.19 5.11" style="stroke-width:1.75817" transform="translate(.036 33.217)scale(.71118)"/>
    <path fill="none" stroke="#000" stroke-miterlimit="22.93" stroke-width=".62" d="m216.356 330.433-3.215-.946c1.422-1.152 2.767-2.382 4.16-3.555 1.131.32 2.305.583 3.457.867-1.472 1.309-2.923 2.447-4.402 3.634z"/>
    <path d="M280.37 200.88a6.13 6.13 0 0 1 8.72-2.84c3.66 3.32 3.21 4.17 6 8.8 1.08 1.73 3.55 3.92 6 6.87a69.5 69.5 0 0 1 13 27.69c3.32 15-1.87 28.4-7.36 39.48-3.81 6.48-8 12.64-11.36 19.45-2.44 5.4-5 9.83-4.8 16.87.2 4.23 1.45 8.35 6.93 7.19a11.5 11.5 0 0 0 6.19-5.14 25 25 0 0 0 1.82-1.93c-.62 6.42.43 12.89-1.9 17.84a13.83 13.83 0 0 1-10.91 4.94 13.46 13.46 0 0 1-14.51-9.68c-8.89-24.6 3.86-68 3.89-85.77 0-21.9-8.09-34.68-1.65-43.71m23.15-46.27a10.54 10.54 0 0 0 .62 6.48c-.43-5.68-.54-10.71 3.44-13.8 3.64-2.13 8.21 1 9.51 5.68 0-2 1.51-6.11 3-5.51 2 0 1.33 4.37 2.84 6.36a60.9 60.9 0 0 1 17.61 9.57c2.3 1.79 4.12 2.19 4.43 4.63.62 6.28-4.94 6.62-12.18 5.34-1.56 1.42 2.33 2.64 4 2.84a2.27 2.27 0 0 1-1.36 2.7 45.4 45.4 0 0 1-11 .31c-2.84.26-3.66 5.4 1.65 7.84a103.24 103.24 0 0 1 39 27.66l-32.86 20.16c-5-15.08-14.2-28.77-28.4-42.29a33.83 33.83 0 0 1-9.34-21.39 19 19 0 0 1 9.12-16.56" style="stroke-width:1.40611" transform="translate(.036 33.217)scale(.71118)"/>
    <path fill="#fff" d="M328.29 160.18a3.66 3.66 0 0 1 2.84 3.72c0 1.7-3.1 1.39-5.14.51a3.15 3.15 0 0 1-2.33-3.78c.48-1.33 2.53-1.31 4.6-.45" style="stroke-width:1.75817" transform="translate(.036 33.217)scale(.71118)"/>
    <path d="M327.89 160.78a1.51 1.51 0 1 1-1.51 1.53 1.51 1.51 0 0 1 1.51-1.53" style="stroke-width:1.40611" transform="translate(.036 33.217)scale(.71118)"/>
    <path fill="#fff" d="M341.95 164.3a8.52 8.52 0 0 1 4.86 1.93c1.48 3.07-1.82 5.4-2.13 4.69a4 4 0 0 0-.62-2.84c-.77-.2-1.11.77-1.33 1.33a7.38 7.38 0 0 1-.78-5.11" style="stroke-width:1.75817" transform="translate(.036 33.217)scale(.71118)"/>
    <path fill="none" d="M341.95 164.3a8.52 8.52 0 0 1 4.86 1.93c1.48 3.07-1.82 5.4-2.13 4.69a4 4 0 0 0-.62-2.84c-.77-.2-1.11.77-1.33 1.33a7.38 7.38 0 0 1-.78-5.11" style="stroke-width:1.75817" transform="translate(.036 33.217)scale(.71118)"/>
    <path fill="#d20000" d="M337.06 175c2.64-.2 5.14.82 8.15-.82a6.56 6.56 0 0 1 9.2.2c1.82 1.08 4.8-.31 6.82-.51a5.08 5.08 0 0 1-6.22 5.11c-2.7-.26-3-2.13-6-2.24-2.5 0-2.84 2.39-4.83 2.56-4-.4-4.12-2.84-7.27-4.23" style="stroke-width:1.75817" transform="translate(.036 33.217)scale(.71118)"/>
    <path fill="#fff" d="M322.15 181.45c.45-2.13 1.87-2.33 5-2.07a2.19 2.19 0 0 0-.85 3.78c3.38 4.06 13 9.09 20.39 15.14a104.4 104.4 0 0 0-21.81-11.7 4.74 4.74 0 0 1-2.73-5.15" style="stroke-width:1.75817" transform="translate(.036 33.217)scale(.71118)"/>
    <path fill="none" d="M322.15 181.45c.45-2.13 1.87-2.33 5-2.07a2.19 2.19 0 0 0-.85 3.78c3.38 4.06 13 9.09 20.39 15.14a104.4 104.4 0 0 0-21.81-11.7 4.74 4.74 0 0 1-2.73-5.15" style="stroke-width:1.75817" transform="translate(.036 33.217)scale(.71118)"/>
    <path fill="#fff" d="M309.88 152.23c1.39-1 3.46.65 3.46 3.15-2.5-.45-3.24.77-3.64 4.43-1.82-1.73-2-6.31.14-7.58" style="stroke-width:1.75817" transform="translate(.036 33.217)scale(.71118)"/>
    <path d="M397.25 180.49c-2.41-3.35-13.15 2.84-7.7 14 .82 22.72-14.65 21.47-25.25 16.07A65.6 65.6 0 0 1 374.67 235c0 .34 16.3-8 20.51-19.65 2.33-10 9.66-34.45 2.07-34.88" style="stroke-width:1.40611" transform="translate(.036 33.217)scale(.71118)"/>
    <path fill="#fff" d="M401 180.37a2.84 2.84 0 0 0-4.23.82 1.28 1.28 0 0 1-.6-2.41 4.29 4.29 0 0 1 4.83 1.59" style="stroke-width:1.75817" transform="translate(.036 33.217)scale(.71118)"/>
    <path fill="none" stroke="#000" stroke-miterlimit="22.93" stroke-width=".62" d="M285.22 161.493a2.02 2.02 0 0 0-3.01.583.91.91 0 0 1-.426-1.714 3.05 3.05 0 0 1 3.435 1.13z"/>
    <path fill="#fff" d="M402.53 183a2.84 2.84 0 0 0-4.2.77 1.22 1.22 0 0 1-.62-2.33 4.29 4.29 0 0 1 4.82 1.56" style="stroke-width:1.75817" transform="translate(.036 33.217)scale(.71118)"/>
    <path fill="none" stroke="#000" stroke-miterlimit="22.93" stroke-width=".62" d="M286.307 163.363a2.02 2.02 0 0 0-2.987.548.868.868 0 0 1-.44-1.658 3.05 3.05 0 0 1 3.427 1.11z"/>
    <path fill="#fff" d="M402.67 185.83a2.47 2.47 0 0 0-3.46.49l-.15.22a1.11 1.11 0 0 1-.54-2.07 3.78 3.78 0 0 1 4.15 1.36" style="stroke-width:1.75817" transform="translate(.036 33.217)scale(.71118)"/>
    <path fill="none" stroke="#000" stroke-miterlimit="22.93" stroke-width=".62" d="M286.407 165.376a1.757 1.757 0 0 0-2.46.348l-.108.157a.79.79 0 0 1-.384-1.473 2.69 2.69 0 0 1 2.952.968z"/>
    <path d="M341 344.28c-2.84-22.41 2.39-31.24 10-42.6-1.82 8.86-2.33 14.46 6.11 16.7 21.76 11.36 24.25 22.27 17 55.41-2.33 5.14 3 13.8 9.2 18.8 7 .77 15.54-2 18 5.68.14 6.67-5.37 11.81-15 10.91-15.08-4.12-15.39-18.94-25.56-29.08.45-6.73 3.81-10.39-.91-16.1-4.43-6.56-15.82-6.56-18.8-19.88" style="stroke-width:1.40611" transform="translate(.036 33.217)scale(.71118)"/>
    <path d="m331.75 233.88 32.52-20.42c8.15 10.54 11 19.71 15 30.5 2.84 6.11 5.06 5.25 8.83-2s5.06-8 9.15-10.28h14.54a7.7 7.7 0 0 1 0 2.56c0 4.43 0 11.56-10.71 14.83-4.06.31-5.85-.82-8 1.42-3.81 4.69-2.61 16.7-10.17 16.76-6.93-.57-11.36-7.07-18.55-16.56 1.68 4 2.41 7.33 6.31 10.34-5.25 22.72-11.36 25.93-18.92 37.86-5.85 9.83-12.89 17.67-13.12 34.34-.62 8.52 2.41 14.77 1.33 24.51-.51 4.88-1.51 15.08-9.83 20.79-7.21 6.42-18.77 2.84-26.78 7.5-2.84 2.39-4.8 10.14-3.32 17.47a3.69 3.69 0 0 0 3.55 3.72c7.9-1.08 14.06.51 15.34 5.91.45 5-13.29 10.54-18.4 9.37-5.68-1.08-9.32-9.88-10.37-16 0-6.82 0-13.6-.14-20.34.71-12.7 17.24-6 14.2-27.41-2.44-9.23-1.51-13.75 1.56-22.15 0-11.87-1-22.72 6.19-33.46 10.62-22.15 25.56-42.6 19.88-69.18" style="stroke-width:1.40611" transform="translate(.036 33.217)scale(.71118)"/>
    <path fill="#fff" d="M389.49 407.27c.65-1 1.48-1 2.61-.26a8.15 8.15 0 0 1-.94 6.73c-.36-2.74-2.07-4.94-1.67-6.47" style="stroke-width:1.75817" transform="translate(.036 33.217)scale(.71118)"/>
    <path fill="none" stroke="#000" stroke-miterlimit="22.93" stroke-width=".62" d="M277.033 322.86c.463-.712 1.053-.712 1.857-.186a5.8 5.8 0 0 1-.669 4.787c-.256-1.949-1.472-3.514-1.188-4.602z"/>
    <path fill="#fff" d="M393.21 407.07a1.62 1.62 0 0 1 3-.57c.85 2.84-.77 4.43-1.65 6.48.21-3.61-.89-3.15-1.35-5.91" style="stroke-width:1.75817" transform="translate(.036 33.217)scale(.71118)"/>
    <path fill="none" stroke="#000" stroke-miterlimit="22.93" stroke-width=".62" d="M279.68 322.717a1.152 1.152 0 0 1 2.133-.405c.604 2.02-.548 3.15-1.174 4.608.15-2.567-.633-2.24-.96-4.203z"/>
    <path fill="#fff" d="M396.85 404.57c0-1 2.27-1.79 2.84-.45.82 2.84-1 4.17-1.82 6.22.77-3.52-.87-3.27-1.02-5.77" style="stroke-width:1.75817" transform="translate(.036 33.217)scale(.71118)"/>
    <path fill="none" stroke="#000" stroke-miterlimit="22.93" stroke-width=".62" d="M282.268 320.94c0-.712 1.614-1.274 2.02-.32.583 2.019-.712 2.965-1.295 4.423.548-2.504-.619-2.326-.725-4.104z"/>
    <path fill="#fff" d="M399.66 401.62c0-1 1.28-2.3 2.19-.4 1 2.56-.94 3.92-1.7 5.68 1.18-3.9-1-3.61-.49-5.28" style="stroke-width:1.75817" transform="translate(.036 33.217)scale(.71118)"/>
    <path fill="none" stroke="#000" stroke-miterlimit="22.93" stroke-width=".62" d="M284.266 318.841c0-.711.91-1.636 1.558-.284.71 1.82-.669 2.787-1.21 4.04.84-2.774-.71-2.568-.348-3.756z"/>
    <path fill="#fff" d="M307.13 420a1.85 1.85 0 0 1 2.56-.2 5.17 5.17 0 0 1-.94 5.25c-.34-2.05-2.02-3.86-1.62-5.05" style="stroke-width:1.75817" transform="translate(.036 33.217)scale(.71118)"/>
    <path fill="none" stroke="#000" stroke-miterlimit="22.93" stroke-width=".62" d="M218.46 331.913a1.316 1.316 0 0 1 1.821-.143 3.68 3.68 0 0 1-.668 3.734c-.242-1.458-1.437-2.745-1.152-3.591z"/>
    <path fill="#fff" d="M310.82 419.85a1.73 1.73 0 0 1 3-.45c.85 2.19-.77 3.41-1.68 5.08.27-2.9-.89-2.48-1.32-4.63" style="stroke-width:1.75817" transform="translate(.036 33.217)scale(.71118)"/>
    <path fill="none" stroke="#000" stroke-miterlimit="22.93" stroke-width=".62" d="M221.085 331.806a1.23 1.23 0 0 1 2.134-.32c.604 1.557-.548 2.425-1.195 3.613.192-2.063-.633-1.764-.939-3.293z"/>
    <path fill="#fff" d="M314.46 417.86c0-.77 2.27-1.48 2.7-.45.82 2.24-1 3.35-1.82 4.94.85-2.7-.77-2.5-.88-4.49" style="stroke-width:1.75817" transform="translate(.036 33.217)scale(.71118)"/>
    <path fill="none" stroke="#000" stroke-miterlimit="22.93" stroke-width=".62" d="M223.674 330.39c0-.547 1.614-1.052 1.92-.32.583 1.594-.711 2.383-1.294 3.514.604-1.92-.548-1.778-.626-3.193z"/>
    <path fill="#fff" d="M317.21 415.48a1.14 1.14 0 0 1 2.19-.31c1 2-.94 3.15-1.7 4.54 1.19-3.07-.94-2.95-.49-4.23" style="stroke-width:1.75817" transform="translate(.036 33.217)scale(.71118)"/>
    <path fill="none" stroke="#000" stroke-miterlimit="22.93" stroke-width=".62" d="M225.63 328.698a.81.81 0 0 1 1.557-.22c.711 1.422-.669 2.24-1.21 3.228.847-2.183-.668-2.098-.348-3.008z"/>
    <path fill="#fff" d="M412.18 229.91a4.91 4.91 0 0 1-2.22 5.68c-.31 2 1.25 3.27 2.19 1.68a8.52 8.52 0 0 0 .03-7.36" style="stroke-width:1.75817" transform="translate(.036 33.217)scale(.71118)"/>
    <path fill="none" stroke="#000" stroke-miterlimit="22.93" stroke-width=".62" d="M293.17 196.724a3.49 3.49 0 0 1-1.579 4.04c-.22 1.422.89 2.325 1.558 1.195a6.06 6.06 0 0 0 .021-5.235z"/>
    <path fill="#fff" d="M410.37 230.67a4 4 0 0 1-2.22 5.2c-.31 1.93 1.51 3 2.53 1.62a6.53 6.53 0 0 0-.31-6.82" style="stroke-width:1.75817" transform="translate(.036 33.217)scale(.71118)"/>
    <path fill="none" stroke="#000" stroke-miterlimit="22.93" stroke-width=".62" d="M291.883 197.265a2.845 2.845 0 0 1-1.579 3.698c-.22 1.373 1.074 2.134 1.8 1.152a4.64 4.64 0 0 0-.221-4.85z"/>
    <path fill="#d20000" d="M586.74 419.45c1.51-.4 3-.82 4.54-1.28-2-1.62-4-3.27-5.91-4.94-1.65.45-3.27.82-4.86 1.22z" style="stroke-width:1.75817" transform="translate(.036 33.217)scale(.71118)"/>
    <path fill="none" stroke="#000" stroke-miterlimit="22.93" stroke-width=".62" d="M417.314 331.521c1.074-.284 2.133-.583 3.229-.91a146 146 0 0 1-4.204-3.513c-1.173.32-2.325.583-3.456.868z"/>
    <path fill="#d20000" d="M594.26 417.5c1.48-.4 3-.82 4.52-1.28l-5.88-5c-1.65.45-3.27.82-4.86 1.22 2.05 1.76 4.12 3.44 6.22 5.06" style="stroke-width:1.75817" transform="translate(.036 33.217)scale(.71118)"/>
    <path fill="none" stroke="#000" stroke-miterlimit="22.93" stroke-width=".62" d="M422.662 330.135a112 112 0 0 0 3.214-.91l-4.181-3.557c-1.174.32-2.326.584-3.457.868a109 109 0 0 0 4.424 3.599z"/>
    <path d="M618 200.77a6.16 6.16 0 0 0-8.72-2.84c-3.69 3.35-3.27 4.23-6 8.8-1.08 1.79-3.58 3.92-6 6.87a70 70 0 0 0-13 27.66c-3.35 14.88 1.82 28.4 7.36 39.34 3.86 6.48 8.07 12.64 11.36 19.45 2.44 5.45 5 9.83 4.8 17-.23 4.23-1.45 8.29-6.93 7.13a10.93 10.93 0 0 1-6.16-5 24 24 0 0 1-1.82-2c.62 6.36-.45 12.84 1.9 17.78a15.19 15.19 0 0 0 25.39-4.74c8.92-24.6-3.89-68-3.89-85.69 0-21.81 8.15-34.54 1.65-43.65m-23.08-46.41a10.54 10.54 0 0 1-.62 6.48c.4-5.68.51-10.59-3.46-13.75-3.66-2.13-8.21 1-9.54 5.68 0-1.93-1.48-6-3-5.45-2 0-1.28 4.29-2.84 6.31a60.7 60.7 0 0 0-17.55 9.57c-2.3 1.79-4.17 2.19-4.49 4.69-.6 6.28 5 6.62 12.21 5.34 1.56 1.42-2.33 2.64-4 2.84a2.24 2.24 0 0 0 1.33 2.64 45.4 45.4 0 0 0 11 .4c2.84.2 3.69 5.34-1.59 7.84a103.2 103.2 0 0 0-39 27.66c11 6.73 21.93 13.35 32.83 20 5-15 14.2-28.69 28.4-42.23a33.8 33.8 0 0 0 9.32-21.39 19.28 19.28 0 0 0-9.06-16.61" style="stroke-width:1.40611" transform="translate(.036 33.217)scale(.71118)"/>
    <path fill="#fff" d="M570.12 160a3.66 3.66 0 0 0-2.84 3.72c.14 1.7 3.07 1.42 5.11.51a3.15 3.15 0 0 0 2.33-3.78c-.51-1.33-2.5-1.31-4.54-.45" style="stroke-width:1.75817" transform="translate(.036 33.217)scale(.71118)"/>
    <path d="M570.52 160.58a1.51 1.51 0 0 0 0 3 1.48 1.48 0 0 0 1.56-1.39v-.09a1.51 1.51 0 0 0-1.48-1.53h-.09z" style="stroke-width:1.40611" transform="translate(.036 33.217)scale(.71118)"/>
    <path fill="none" stroke="#000" stroke-miterlimit="22.93" stroke-width=".62" d="M405.778 147.418a1.074 1.074 0 0 0 0 2.134 1.053 1.053 0 0 0 1.11-.989v-.064a1.074 1.074 0 0 0-1.053-1.088h-.064z"/>
    <path fill="#fff" d="M556.46 164.1a9.06 9.06 0 0 0-5 1.93c-1.48 3.15 1.9 5.45 2.22 4.74a3.72 3.72 0 0 1 .65-2.84c.74-.26 1.16.71 1.39 1.28a7.3 7.3 0 0 0 .74-5.11" style="stroke-width:1.75817" transform="translate(.036 33.217)scale(.71118)"/>
    <path fill="none" d="M556.46 164.1a9.06 9.06 0 0 0-5 1.93c-1.48 3.15 1.9 5.45 2.22 4.74a3.72 3.72 0 0 1 .65-2.84c.74-.26 1.16.71 1.39 1.28a7.3 7.3 0 0 0 .74-5.11" style="stroke-width:1.75817" transform="translate(.036 33.217)scale(.71118)"/>
    <path fill="#d20000" d="M561.29 174.84c-2.61-.2-5.11.82-8.15-.82a6.39 6.39 0 0 0-9 .17l-.08.09c-1.82 1-4.83-.4-6.9-.57a5.11 5.11 0 0 0 6.11 5.08c2.84-.26 3.07-2.13 6-2.24s2.84 2.39 4.8 2.56c4-.4 4.12-2.84 7.27-4.23" style="stroke-width:1.75817" transform="translate(.036 33.217)scale(.71118)"/>
    <path fill="#fff" d="M576.23 181.34c-.51-2.07-1.87-2.33-5-2 1.82 0 2 2.39.91 3.69-3.38 4.06-13 9.09-20.36 15.19a100.5 100.5 0 0 1 21.76-11.76 4.74 4.74 0 0 0 2.69-5.12" style="stroke-width:1.75817" transform="translate(.036 33.217)scale(.71118)"/>
    <path fill="none" d="M576.23 181.34c-.51-2.07-1.87-2.33-5-2 1.82 0 2 2.39.91 3.69-3.38 4.06-13 9.09-20.36 15.19a100.5 100.5 0 0 1 21.76-11.76 4.74 4.74 0 0 0 2.69-5.12" style="stroke-width:1.75817" transform="translate(.036 33.217)scale(.71118)"/>
    <path fill="#fff" d="M588.47 152c-1.36-.91-3.44.71-3.46 3.15 2.53-.45 3.27.77 3.61 4.43 1.87-1.73 2-6.28-.14-7.58" style="stroke-width:1.75817" transform="translate(.036 33.217)scale(.71118)"/>
    <path d="M500.57 180.15c2.41-3.35 13.18 2.84 7.81 13.92-.62 22.72 14.83 21.36 25.39 15.93a64.4 64.4 0 0 0-10.17 24.4c0 .34-16.33-7.87-20.68-19.43-2.39-10-10-34.37-2.36-34.85" style="stroke-width:1.40611" transform="translate(.036 33.217)scale(.71118)"/>
    <path fill="#fff" d="M495.74 180.94a2.84 2.84 0 0 1 4 .6l.15.22a1.28 1.28 0 0 0 .6-2.41 4.43 4.43 0 0 0-4.75 1.59" style="stroke-width:1.75817" transform="translate(.036 33.217)scale(.71118)"/>
    <path fill="none" stroke="#000" stroke-miterlimit="22.93" stroke-width=".62" d="M352.596 161.898a2.02 2.02 0 0 1 2.845.427l.107.156a.91.91 0 0 0 .426-1.714 3.15 3.15 0 0 0-3.378 1.13z"/>
    <path fill="#fff" d="M495 183.16a2.44 2.44 0 0 1 3.42.47l.13.19a1.05 1.05 0 0 0 .48-2 3.61 3.61 0 0 0-4.03 1.34" style="stroke-width:1.75817" transform="translate(.036 33.217)scale(.71118)"/>
    <path fill="none" stroke="#000" stroke-miterlimit="22.93" stroke-width=".62" d="M352.07 163.477a1.735 1.735 0 0 1 2.432.334l.093.135a.747.747 0 0 0 .341-1.422 2.57 2.57 0 0 0-2.866.953z"/>
    <path fill="#fff" d="M498.3 178.78a2.53 2.53 0 0 1 3.44 1l.11.21a1.11 1.11 0 0 0 .77-2 3.86 3.86 0 0 0-4.32.79" style="stroke-width:1.75817" transform="translate(.036 33.217)scale(.71118)"/>
    <path fill="none" stroke="#000" stroke-miterlimit="22.93" stroke-width=".62" d="M354.417 160.362a1.8 1.8 0 0 1 2.446.71l.079.15a.79.79 0 0 0 .547-1.422 2.745 2.745 0 0 0-3.072.562z"/>
    <path d="M557.34 344.11c2.7-22.41-2.39-31.24-9.94-42.6 1.79 8.92 2.27 14.57-6.16 16.76-21.81 11.36-24.25 22.21-17 55.33 2.3 5.14-3 13.86-9.2 18.8-7 .77-15.54-1.93-18 5.85-.14 6.56 5.37 11.67 15 10.79 15.11-4.12 15.42-18.94 25.56-29.08-.45-6.73-3.86-10.34.91-16.1 4.4-6.56 15.76-6.56 18.8-19.88" style="stroke-width:1.40611" transform="translate(.036 33.217)scale(.71118)"/>
    <path d="M566.66 233.68c-10.82-6.82-21.7-13.55-32.55-20.34-8.09 10.45-11 19.65-15 30.42-2.84 6.11-5.06 5.25-8.8-2s-5.06-8-9.15-10.28h-14.51a7.1 7.1 0 0 0 0 2.64c0 4.43 0 11.36 10.71 14.77 4.06.31 5.85-.82 8 1.48 3.86 4.54 2.64 16.56 10.2 16.61 6.9-.57 11.36-7.07 18.49-16.5-1.68 4-2.41 7.24-6.31 10.28 5.25 22.72 11.36 26 18.92 37.86 5.85 9.88 12.89 17.72 13.12 34.34.6 8.52-2.41 14.77-1.33 24.51.45 4.88 1.48 15.08 9.83 20.79 7.21 6.42 18.72 2.84 26.84 7.58 2.84 2.24 4.74 10 3.32 17.32a3.72 3.72 0 0 1-3.55 3.78c-8-1.16-14.2.51-15.42 5.85-.43 5 13.32 10.45 18.49 9.32s9.26-9.88 10.31-16V385.8c-.71-12.72-17.21-6-14-27.35 2.39-9.32 1.45-13.8-1.59-22.15 0-11.93 1-22.72-6.19-33.51-10.68-22.15-25.56-42.6-19.88-69.13" style="stroke-width:1.40611" transform="translate(.036 33.217)scale(.71118)"/>
    <path fill="#fff" d="M508.86 407c-.65-1-1.48-1-2.58-.26a8.12 8.12 0 0 0 .94 6.73c.36-2.68 2.04-4.92 1.64-6.47" style="stroke-width:1.75817" transform="translate(.036 33.217)scale(.71118)"/>
    <path fill="none" stroke="#000" stroke-miterlimit="22.93" stroke-width=".62" d="M361.927 322.667c-.462-.71-1.052-.71-1.835-.185a5.78 5.78 0 0 0 .669 4.787c.256-1.906 1.45-3.5 1.166-4.602z"/>
    <path fill="#fff" d="M505.14 406.82a1.59 1.59 0 0 0-2.84-.57c-.91 2.84.74 4.43 1.65 6.48-.4-3.61.79-3.16 1.19-5.91" style="stroke-width:1.75817" transform="translate(.036 33.217)scale(.71118)"/>
    <path fill="none" stroke="#000" stroke-miterlimit="22.93" stroke-width=".62" d="M359.281 322.54a1.13 1.13 0 0 0-2.02-.406c-.646 2.02.527 3.15 1.174 4.608-.284-2.567.562-2.247.846-4.203z"/>
    <path fill="#fff" d="M501.51 404.32c0-1-2.27-1.79-2.7-.45-.85 2.84 1 4.17 1.82 6.22-.77-3.53.76-3.22.88-5.77" style="stroke-width:1.75817" transform="translate(.036 33.217)scale(.71118)"/>
    <path fill="none" stroke="#000" stroke-miterlimit="22.93" stroke-width=".62" d="M356.7 320.761c0-.71-1.614-1.273-1.92-.32-.605 2.02.71 2.966 1.294 4.424-.548-2.51.54-2.29.626-4.104z"/>
    <path fill="#fff" d="M498.75 401.42c0-1-1.28-2.3-2.19-.4-1.05 2.56.91 3.86 1.68 5.68-1.24-3.86.96-3.7.51-5.28" style="stroke-width:1.75817" transform="translate(.036 33.217)scale(.71118)"/>
    <path fill="none" stroke="#000" stroke-miterlimit="22.93" stroke-width=".62" d="M354.737 318.699c0-.711-.91-1.636-1.557-.285-.747 1.821.647 2.746 1.194 4.04-.882-2.745.683-2.631.363-3.755z"/>
    <path fill="#fff" d="M591.31 419.65a1.79 1.79 0 0 0-2.51-.28l-.1.08a5.42 5.42 0 0 0 1 5.34c.3-2.18 1.95-3.92 1.61-5.14" style="stroke-width:1.75817" transform="translate(.036 33.217)scale(.71118)"/>
    <path fill="none" stroke="#000" stroke-miterlimit="22.93" stroke-width=".62" d="M420.564 331.664a1.273 1.273 0 0 0-1.785-.2l-.071.057a3.86 3.86 0 0 0 .71 3.798c.214-1.55 1.388-2.788 1.146-3.655z"/>
    <path fill="#fff" d="M587.56 419.45a1.79 1.79 0 0 0-3-.45c-.85 2.3.77 3.61 1.68 5.2-.3-2.87.95-2.5 1.32-4.75" style="stroke-width:1.75817" transform="translate(.036 33.217)scale(.71118)"/>
    <path fill="none" stroke="#000" stroke-miterlimit="22.93" stroke-width=".62" d="M417.897 331.521a1.273 1.273 0 0 0-2.134-.32c-.604 1.636.548 2.568 1.195 3.699-.213-2.042.676-1.778.939-3.379z"/>
    <path fill="#fff" d="M584 417.5c0-.77-2.27-1.42-2.7-.4-.82 2.39 1 3.41 1.82 5-.9-2.84.72-2.65.88-4.6" style="stroke-width:1.75817" transform="translate(.036 33.217)scale(.71118)"/>
    <path fill="none" stroke="#000" stroke-miterlimit="22.93" stroke-width=".62" d="M415.365 330.135c0-.548-1.614-1.01-1.92-.285-.583 1.7.711 2.425 1.294 3.556-.64-2.02.512-1.885.626-3.271z"/>
    <path fill="#fff" d="M581.14 415.17a1.11 1.11 0 0 0-2.13-.26c-1 2 .94 3 1.7 4.54-1.33-3.15.94-3.01.43-4.28" style="stroke-width:1.75817" transform="translate(.036 33.217)scale(.71118)"/>
    <path fill="none" stroke="#000" stroke-miterlimit="22.93" stroke-width=".62" d="M413.331 328.478a.79.79 0 0 0-1.515-.185c-.71 1.422.669 2.133 1.21 3.228-.947-2.24.668-2.14.305-3.043z"/>
    <path fill="#fff" d="M486.17 229.76a5 5 0 0 0 2.22 5.68c.34 2-1.22 3.21-2.19 1.68a8.8 8.8 0 0 1-.03-7.36" style="stroke-width:1.75817" transform="translate(.036 33.217)scale(.71118)"/>
    <path fill="none" stroke="#000" stroke-miterlimit="22.93" stroke-width=".62" d="M345.79 196.618a3.556 3.556 0 0 0 1.58 4.04c.241 1.422-.868 2.282-1.558 1.194a6.26 6.26 0 0 1-.022-5.234z"/>
    <path fill="#fff" d="M488 230.53c-.62 3.61.43 3.72 2.22 5.2.23 1.87-1.56 3-2.53 1.53a6.42 6.42 0 0 1 .31-6.73" style="stroke-width:1.75817" transform="translate(.036 33.217)scale(.71118)"/>
    <path fill="none" stroke="#000" stroke-miterlimit="22.93" stroke-width=".62" d="M347.092 197.165c-.441 2.568.306 2.646 1.579 3.698.163 1.33-1.11 2.134-1.8 1.089a4.57 4.57 0 0 1 .22-4.787z"/>
  </g>
</svg>
