<svg id="flag-icons-ru-tdn" class="fi fi-ru-tdn" viewBox="0 0 640 480" xmlns="http://www.w3.org/2000/svg" width="640" height="480">
  <metadata id="flag-icons">
    <name>Taymyrsky Dolgano-Nenetsky District</name>
    <code>ru-tdn</code>
    <iso>false</iso>
    <type>Place</type>
    <capital>Dudinka</capital>
    <continent>Asia</continent>
  </metadata>
  <path fill="#0081c4" d="M0 0h640v480H0Z" style="stroke-width:.999999"/>
  <g style="stroke-width:1.25" transform="translate(-40)scale(.8)">
    <circle cx="450" cy="300" r="150" fill="#fff" style="stroke-width:2.08334"/>
    <path fill="#fff" d="m450 15 5 130h-11zm155 280 130 5-130 6zM455 455l-5 130-6-130ZM295 306l-130-6 130-5Z" style="stroke-width:2.08334"/>
    <g style="stroke-width:1.25">
      <path fill="#fff" stroke="#000" stroke-width="3.75" d="M441 320c3-4 57-76 68-83s25-17 34-18 10 1 8 5c-2 3-20 28-22 34-3 7-7 29-19 38-6 5-29 25-27 41-10 2-33 0-33 0z"/>
      <path d="M483 336c-1-15 19-34 26-39-17-3-46 13-60 29-1 1-1 2 0 3 8 10 24 7 34 7" style="stroke-width:1.25"/>
      <path fill="#fff" stroke="#000" stroke-width="3.75" d="M406 360c-1 3-7 9-17 13-11 3-22 5-39 22-3 2 0 4 9 5h64c7-1 43-7 54-18 10-10 12-39 46-41 11-1 15-1 17-2 1 0 2-1 1-2s-2-2-6-5c-4-4 1-9-12-5-12 4-17 7-24 8-6 0-15 2-26 1-12-1-25-1-28-15-1-7 2-24 1-33 0-14-8-24-30-35-11-5-19-12-26-17-15-10-23-19-31-28-4-5-4-6-4-6-1-1-5-6-3 6-1 0-6 1 0 12-1 0-7 0-1 10-2 1-6 3 1 11 0 1-4 6 4 12 0 4-1 11 9 17 0 4 1 12 13 15 0 5 0 7 9 15 1 2 5 3 3 16-1 8 3 21 5 26 3 6 9 15 11 18z"/>
      <path d="M535 332c-4-4 1-9-12-5h-2c1 4 1 11 1 14h1c11-1 15-2 17-2 1 0 2-2 1-2-1-1-2-2-6-5" style="stroke-width:1.25"/>
      <circle cx="530" cy="332" r="2" fill="#fff" style="stroke-width:2.08334"/>
      <path d="M401 368c2-1 4-4 5-6 0-1 0-2-1-2-1 3-7 9-17 12-10 4-21 6-38 23-3 2-1 3 5 4 0-1 0-3 2-6 3-5 18-13 23-15 6-3 20-9 21-10" style="stroke-width:1.25"/>
      <path d="M392 386c-5 3-13 5-18 4-4-1-7-1-10 2-1 2 1 4 3 3 2-3 11-1 15-2s8-2 12-5c1-1 0-4-2-2m92-50c-11 5-27 6-34 3-8-3-10-13-11-16-1-2-1-24 0-35s-21-29-23-31c-1 0-1-2 0-4-2-1-4-1-5-2v1c0 4 2 18 11 23s9 18 8 23c0 4-1 20 1 27 1 7 5 10 8 16 3 5 1 8 0 9l-4 4c-6 7-12 7-16 7-3 1-10 0-14-1 0 1 0 1-1 2 7 3 17 4 28-2 6-3 15-13 15-15s2-2 5-1c2 2 2 13 1 15-1 3-9 7-10 7-2 0-10 0-14 1-4 0-2 4-4 6-3-1-7-1-16 0-10 1-8 12-6 12 2 1 11 2 21 0 10-3 9 7 6 8-1 1-6 4-10 7h2c8-1 44-7 54-18q4.5-3 6-9c-2-1-9 2-8 5 0 4-1 4-4 5-4 0-10-6-6-14s0-17-1-20c0-2 0-3 2-4 2 0 21-5 23-6q3-1.5 3-3z" style="stroke-width:1.25"/>
      <path fill="#ed1c24" d="M523 341c5-5 4-13 0-14-12 3-17 7-24 8-3 0-7 1-11 1-5 2-12 5-15 6-7 2-8 3-4 5s3 11 3 14c0 2-3 12-1 16 1 3 4 3 7 4 9-11 12-38 45-40" style="stroke-width:2.08334"/>
      <path d="M544 223c-7 6-11 14-16 21-3 6-7 13-6 20 0 2 2 1 2 0 2-8 4-14 9-22 3-6 9-11 12-18 0-1-1-1-1-1" style="stroke-width:1.25"/>
      <path d="M532 228c-11 7-16 25-16 37 0 2 3 2 3 0 1-6 2-12 4-18 2-7 7-12 10-18 1-1 0-2-1-1" style="stroke-width:1.25"/>
      <path d="M523 231c-5 3-8 11-10 16-2 6-5 13-2 20 1 2 4 1 4-1-2-7-1-13 2-20 1-5 5-9 7-14 0-1-1-1-1-1" style="stroke-width:1.25"/>
      <path d="M511 238c-7 7-8 21-7 30 1 2 4 2 4 0 1-10 1-20 5-29 1-1-1-2-2-1m-14 18c0-3-3-3-3-2-2 5-1 12 0 17 0 3 4 2 4 0-1-6-2-9-1-15m-5 17c-1-2-1-5-1-7s0-5-2-5c-1 1-1 4-1 6 0 3-1 5 0 8 1 2 5 0 4-2m-6 3c-1-1-1-3-1-4 0-2 1-3 0-4s-2-1-2 0c-1 1-1 3-1 5-1 1-1 3 0 5 1 3 5 1 4-2m-5 4c-1-1-1-2-1-2v-3c0-1-2-1-3 0-1 2-1 5 0 6 1 3 5 1 4-1m-6 4v-3c0-1-1-1-2 0v3c1 2 2 2 2 0m-4 4v-3c0-1-2 0-2 0v4c0 2 3 2 2-1m39-17h-1c-4 1-3 4-5 8 0 3-1 8 0 11 0 3 3 1 4-2 0-3 0-7 1-9s2-6 1-8m-8 9c0-1 0-6-2-6-3-1-3 4-3 6 1 3-1 8 1 11 1 1 2 0 2-1 1-1 1-3 1-5 1-2 1-3 1-5m-9-1v-2c-3 0-4 2-4 4 0 5 1 8 2 12 1 2 3 2 3 0 1-3 0-5 0-8-1-3 0-4-1-6m-10 4c-2 6 0 7 0 13 0 2 3 3 3 1 1-2 0-4 0-5v-9c0-2-2-2-3 0m-7 4c-2 5-2 9-1 15 0 2 4 1 4-1-1-6-1-9-1-14 1-1-2-2-2 0m-5 17c0-3-1-7 0-10 1-2-1-3-3-2-2 3-1 10-1 14 1 3 6 1 4-2m-6 3c0-1-1-1-1-2v-3c0-1 1-2 0-2v-2c-3 0-3 2-4 4 0 2 0 8 3 8 2 1 3-1 2-3m-6 5c-1-2 0-5-1-8 0-1-2-1-2 0-1 1-1 4-1 5 0 2 0 4 2 5 1 2 4-1 2-2m57-42c-2 3-3 7-4 11-1 0-2 5-2 6-1 1 1 3 2 3s2-1 2-2v-1c1-3 1-5 3-8 1-2 0-4 1-7 1-2-1-3-2-2m-13-2c-3-10 1-20 0-22-2-3-4 4-4 6-1 5-1 13 0 17 1 3 5 2 4-1m-119-32c-12-6-20-16-28-27-1-1-2 0-2 1 2 11 8 13 13 19 4 5 10 9 16 11 3 1 4-3 1-4m0 10c-4-4-10-8-15-11-4-4-8-11-13-13-1 0-1 1-1 1 1 5 7 10 10 14 5 4 11 10 18 11 1 0 2-1 1-2" style="stroke-width:1.25"/>
      <path d="M389 256c-6-4-12-7-18-12-5-4-10-10-16-14-1 0-2 1-2 2 3 5 10 11 15 15 6 4 13 9 19 12 2 1 4-2 2-3m1 7c-3-4-11-5-16-10-5-4-10-8-16-11-2-1-4 1-2 2 4 5 11 8 16 13 4 3 11 8 17 9 1 0 2-2 1-3m1 7c-10-6-20-9-29-17h-3v1c-1 1 0 1 0 2 8 8 20 14 30 17 2 1 4-2 2-3m-26-5s0 1 0 0c0 1 0 0 0 0m28 12c-9-3-17-7-25-12-3-2-5 2-3 3 8 6 18 10 27 13 3 1 4-3 1-4m6 9c-5-1-8-3-12-4-4-2-8-4-12-5-1 0-2 1-1 2 2 3 6 5 10 6 4 3 9 4 13 5 3 1 4-3 2-4m6 9c-3-2-6-2-9-2-4-1-7-2-11-3-1 0-2 2-1 2 2 3 6 3 9 4s7 2 11 2c2 1 3-3 1-3m2 9c0-1-1-1-2-2h-8c-2-1-4-2-6-2 0 0-1 1 0 1 1 2 3 2 5 3s5 2 8 3c1 0 2 0 3-1zm-2-54c-4-4-9-6-14-8-1 0-2 0-1 1 1 2 3 3 5 5 2 1 5 4 8 5 1 0 3-2 2-3m2 5c-6-1-9-3-13-5-2-1-4 2-2 3 4 2 8 4 13 6 3 1 4-4 2-4m2 6c-2 0-5-1-8-1s-5-2-8-3c-1-1-2 1-1 2 2 2 5 4 7 5 4 1 7 1 10 1 3 1 3-4 0-4m2 7c-5 0-10-1-15-2-1-1-2 1-1 2 1 2 4 2 7 3 2 2 6 2 9 2s3-5 0-5m8 8c-3-1-5-1-8-1h-12v1c0 1 0 1 1 2 3 1 6 1 9 2 3 0 7 1 10-1zm2 7c-3-2-6-1-9-1h-7c-1-1-2-1-3 0 0 0-1 0 0 1 1 2 5 3 7 4h11c2-1 2-3 1-4m3 6c-3-1-7 0-10 0-3-1-6-2-9 0v1c2 2 5 2 7 3 4 0 8 0 12 1 3 0 3-5 0-5m1 6h-7c-2 0-4 0-6 1-1 0-2 2-1 2 4 3 9 2 14 2 3 0 3-4 0-5m1 7h-6c-2 0-3 1-4 1s-2-1-3-1c-2 0-3 2-1 3 1 2 4 2 6 2 3 0 6 0 8-1s2-3 0-4m0 8c-5 0-9-1-13-1-2 0-2 3-1 3 4 2 9 2 13 3 3 0 4-5 1-5m-2 7c-3 1-7-1-10-1-2 0-2 2-1 3 4 1 8 3 12 3 3-1 2-5-1-5m0 6h-10c-1 0-2 2 0 3s4 1 6 1 4 1 6 0c1-2 0-4-2-4m0 5h-10c-1 0-1 2-1 3 2 1 3 1 5 1 2 1 3 0 5 1 3 0 3-4 1-5m3 7h-5c-2 1-4 0-6 0-1 0-1 2 0 2 3 3 8 3 11 2 2 0 2-3 0-4m0 5h-4c-2 1-4 1-5 1s-2 1-1 2 2 1 4 2c3 0 5 0 7-1 3-1 2-5-1-4m1 5c-3 1-6 1-9 2-1 0-1 1-1 1 3 3 8 2 11 1 4-1 2-5-1-4m3 5c-2 0-3 1-5 2-2 0-4 0-5 1 0 0-1 0 0 0 0 2 2 2 4 2 2 1 4-1 6-1s3-4 0-4m-24-41c-2-2-4-2-6-2s-5 0-6 1c-1 0-1 0-1 1 1 1 3 2 5 2s5 2 7 1c2 0 2-2 1-3m-1 5c-4 0-7 0-12 1 4 3 8 3 12 3 3 1 3-4 0-4m2 6c-3 0-6-1-9 0 0 0-4 0-3 2 0 1 2 1 3 1 3 1 6 1 8 2 3 0 3-5 1-5m2 8c-2 0-4-1-6-1-2-1-4 0-6 0-2-1-2 1-1 2s3 1 5 1 5 1 7 2c2 0 4-4 1-4m-1 6c-1 0-12 0-12 1 1 2 2 2 4 2 3 1 5 1 8 1 3 1 3-3 0-4m2 7q0-1.5 0 0v-1h-11c-1 0-2 2-1 2 4 2 7 2 10 2 2 1 3-1 3-2zm2 6c-1-2-4-1-6-1s-4 0-5 1h-1c1 2 4 2 6 3 2 0 5 1 6-1 1-1 1-1 0-2m4 8c-1-2-4-2-5-3-3 0-5 0-7 1-1 0-1 1-1 1 2 2 4 2 6 2 2 1 4 2 6 1 1-1 1-2 1-2" style="stroke-width:1.25"/>
    </g>
  </g>
</svg>
