<svg id="flag-icons-ru-bry" class="fi fi-ru-bry" viewBox="0 0 512 512" xmlns="http://www.w3.org/2000/svg" width="512" height="512">
  <metadata id="flag-icons">
    <name>Bryansk Oblast</name>
    <code>ru-bry</code>
    <iso>true</iso>
    <type>Place</type>
    <capital>Bryansk</capital>
    <continent>Europe</continent>
  </metadata>
  <path fill="#a32638" d="M0 0h512v512H0Z" style="clip-rule:evenodd;fill-rule:evenodd;stroke-width:1"/>
  <g style="stroke-width:1.33399">
    <g fill="#9b7d23" style="clip-rule:evenodd;fill-rule:evenodd;stroke-width:1.89815">
      <path d="m671.84 533.72.064.021c.015.764.53 1.379 1.155 1.376a1 1 0 0 0 .208-.027c-.166.89-.097 1.808.204 2.549 1.378 3.33 3.916 4.317 4.458 5.577.128.295.269-.702.489-.464 2.562 2.813 6.933 4.804 10.923 2.855 2.675-1.665 2.202-5.429.377-7.559-2.169-2.529-5.573-4.065-7.267-4.89.146-.262.62-.811.426-.879-1.56.31-5.654-1.229-7.724-.077a3.5 3.5 0 0 0-1.063.942c-.179-.494-.587-.838-1.054-.835q-.042 0-.08.002c-.307.441-.675.912-1.116 1.409m30.866-49.673c-7.609-1.797-8.92 4.72-12.921 4.854-2.126.072-1.024-2.194-3.231-3.056.293-.138.522-.361.641-.658q.049-.121.069-.247c.932.599 2.007.946 2.987.947 4.418-.023 6.712-2.448 8.395-2.48.394-.008-.676-.633-.302-.77 4.379-1.606 8.661-5.647 8.296-11.08-.653-3.81-5.143-5.012-8.405-3.925-3.875 1.291-7.195 4.446-8.914 5.987-.229-.287-.635-1.08-.8-.89-.372 1.913-4.014 5.849-3.662 8.731.072.588.278 1.14.579 1.641-.646-.023-1.227.279-1.438.813a1.23 1.23 0 0 0-.021.823l-.586.829c-2.878.426-3.563 4.895-6.251 5.333-.454.022-1.745-.471-2.122-1.783l-.013.011c-1.102-2.597-3.603-11.216-9.609-19.878-2.327-3.356-4.917-6.862-7.51-10.375.261 4.543-6-.079-9.118 5.782-1.308 2.461.113 5.321-1.465 7.5-1.253 1.729-3.651-1.232-5.23 2.679-2.57 6.366-6.33 12.449-8.845 18.292-2.793 6.488-.695 12.932-3.469 17.435 11.528 5.737 19.594 17.764 44.362 17.881 1.132-.753 1.761-1.396 2.471-1.057 2.456-.247 5.699 2.494 7.951 3.541s4.129-1.435 6.367-2.122c3.988-1.221 8.355 7.294 13.95 4.638 2.635-1.248 1.412-2.119 3.127-3.129 2.403-.938 8.025 5.472 11.697 3.101 3.146-2.032 1.384-3.971 2.675-4.965 1.762.092 4.805.64 6.909-.653 1.577-.97 2.12-1.861 2.313-2.947 1.017-5.734-4.253-5.516-4.366-7.52-.111-1.981 4.444-1.707 1.613-7.245-2.662-3.617-5.634-.651-7.79-2.088-1.038-.238 2.373-2.46-1.438-4.755-1.782-1.073-6.94-1.346-7.929-1.353-.979-1.309-1.283-2.091-2.226-3.03.508-1.816 5.087-2.978 6.335-5.13.96-1.654.876-4.33-.146-5.46-3.355-2.9-6.371-1.919-10.201-.12-1.931-.596.222-3.234-2.729-4.102m-53.42 76.153c-3.727-1.935-4.862-.154-4.724-7.383.061-3.241-5.69-1.844-9.351-3.465-4.988-2.935 2.249-4.509-3.219-7.968-.638-.405-7.89-1.387-11.57-2.059-1.547-.281-.342-2.732-.582-4.7l-.294-.188q.122-.082.232-.165c-.301-1.326-1.432-2.338-4.821-2.129-1.201.075-5.819 1.56-8.13.316-.473-4.052-1.838-3.688-2.941-3.979-3.402-.9-5.753 1.864-7.989 1.468-3.951-2.229-.556-1.682-4.412-3.73-3.537-.505-9.059 2.058-12.682 1.832 2.929 3.304 5.733 7.01 8.303 11.014 6.658 10.378 11.568 19.521 19.129 20.969.542-.005 1.189.055 2.057.279 2.752.712.557 6.182 5.025 6.605 4.535.883 3.134-2.914 5.101-2.217 2.229.79 3.052 5.398 6.535 5.339 3.03.211 2.157-2.893 4.057-2.574 2.153.36 3.222 4.134 7.188 3.494 3.46.032 3.228-4.292 5.171-5.357 5.681 2.758 14.296-.404 7.917-5.402m-74.346-36.205.113-.13c.874.337 1.813.037 2.096-.675q.049-.121.069-.247c.932.599 2.007.946 2.986.946 4.419-.021 6.713-2.446 8.396-2.48.393-.008-.676-.632-.302-.769 4.379-1.606 8.66-5.647 8.296-11.08-.653-3.81-5.144-5.013-8.405-3.925-3.875 1.291-7.196 4.446-8.915 5.987-.229-.287-.634-1.08-.799-.89-.372 1.913-4.015 5.849-3.662 8.732.071.587.278 1.139.578 1.64-.645-.022-1.226.279-1.438.813a1.23 1.23 0 0 0-.021.823l-.125.177q.57.53 1.133 1.078m119.96-105.78c-2.196-.813-4.347-1.508-5.927-.834-2.624 1.12-3.149 4.259-3.439 3.835-1.212-1.78-.504-3.899.552-4.871 1.714-1.58 5.67-2.009 6.646-3.049 2.336-2.493-.201-3.654.183-4.994.707-2.47 8.697-5.261 9.838-6.878.832-1.182 1.371-2.543.042-4.198-1.353-1.683.408-3.338 2.751-5.003 6.814-7.024 1.5-8.985-.638-9.431-.689-.145 5.127-4.878 5.906-8.706.604-2.978-3.844-5.214-3.838-5.562 9.812-12.421-3.5-14.682-7.907-7.712-1.061 1.571-3.555-3.249-6.183-2.319-1.084.385-3.702 2.33-4.323 2.883l1.901-3.632c1.827.448 3.565-.067 5.416-1.208 4.098-1.655 5.331-4.758 6.883-5.41.362-.152-.862-.337-.564-.603 3.473-3.113 5.957-8.452 3.606-13.363-2.015-3.299-6.631-2.755-9.261-.539-3.122 2.634-5.039 6.795-6.065 8.861-.118-.066-.282-.19-.447-.305a26 26 0 0 1-.816 1.563c-.611 2.483-2.198 6.229-1.121 8.196.283.52.576 1.267 1.041 1.622-.608.217-1.762.713-1.762 1.286 0 .285.105.55.285.772l-2.479 7.599c-1.32-.425-4.037-2.049-5.524.274-1.527 2.386-1.331 10.247-3.173 9.039-1.125-.738-2.446-1.909-4.652-.86l-.007.003q-.014.006-.024.013-.04.018-.08.04c.279-1.461.703-3.599-.021-4.495-.725-.897-3.282-.163-3.59-1.738-.449-2.302 2.033-7.075 1.909-9.316-.125-2.242-2.917-1.68-3.582-1.963a2 2 0 0 1-.119-.056l-.049-.025q-.038-.02-.073-.041l-.055-.031-.059-.039-.04-.026q-.036-.026-.07-.053l-.06-.048a1 1 0 0 1-.08-.069q-.046-.043-.088-.087l-.02-.021-.073-.084-.017-.02-.063-.082q-.007-.011-.016-.021a2 2 0 0 1-.075-.113 3.2 3.2 0 0 1-.381-.949l-.001-.009a7 7 0 0 1-.158-1.314l-.002-.041c-.056-1.653.237-3.644.071-5.297h.001c-.075-.757-.248-1.441-.594-1.992-1.371-2.189-5.749 1.522-6.146-.638-.339-6.386-4.122-10.723-5.979-6.779-.738 2.035-1.325.174-2.009-.822-3.477-3.904-3.157-4.652-8.046-5.229-1.998 1.196-1.751 6.165 1.055 10.816.803 1.898.254 2.008-.852 2.735-6.336 4.174 4.599 12.295.317 14.256-5.933 4.065 3.944 9.064 2.597 12.169-3.044.946-4.527 3.327-3.104 5.066 1.914 2.343 6.396 5.127 6.003 7.145.017 3.097-4.368 6.216.146 9.281.851.576 1.766 1.252 1.779 2.249l.035.001c-.652 2.826 4.124 15.926 15.644 30.385 13.214 16.585 24.452 36.502 23.903 42.434q0 .061-.004.123l-.001.006q0 .02-.003.039c.884-.596 3.17-1.529 4.233-2.896 1.008-1.296.534-3.488-.25-5.055-1.578-3.158 10.392 1.871 10.98-8.765.019-1.134-1.862-3.291.664-4.883 5.25-1.567 8.966-5.793 7.141-9.404-.434-.859-3.344-1.45-2.482-3.597 6.137-3.804 7.469-10.51 3.4-11.728-4.67-1.398.573-4.087 1.356-7.522.501-2.202-.175-4.31-.982-5.4-1.376-1.86-5.476-1.513-9.059 3.598-1.974.43-1.324-2.689-3.258-3.307-4.669-1.489-5.105 7.153-6.593 7.143m21.846-158.54c-2.434.776-3.215 1.809-6.155 3.57-2.682.689-.922-2.349-4.26-2.621-4.321-.352-6.376 4.185-8.043 7.517-1.487 2.194-.682-2.883-5.866-2.364-3.458.347-5.801 5.388-7.688 9.42-1.031.559-1.567-.828-2.957-1.54l1.551-4.453c.938-.01 1.697-.636 1.697-1.402q0-.13-.027-.255c1.089.211 2.216.137 3.126-.226 4.097-1.655 5.33-4.756 6.882-5.41.362-.152-.862-.336-.565-.603 3.474-3.113 5.958-8.451 3.608-13.362-2.016-3.298-6.632-2.754-9.261-.537-3.122 2.633-5.039 6.793-6.066 8.86-.319-.182-.989-.769-1.072-.531.362 1.915-1.565 6.919-.172 9.467.284.519.68.955 1.145 1.31-.608.216-1.035.712-1.035 1.286 0 .285.105.55.285.772l-1.143 4.74c-.855-.137-1.964-.001-3.461.677-3.5 4.043-2.733 4.738-4.397 10.276-1.263 2.405-1.242-1.264-5.306 1.82-.716 1.788-1.603 4.351-2.224 6.034 4.836 6.75 15.035 19.285 21.264 30.322.06.01.119.023.18.031 1.198.165 4.209.12 5.217-.993 1.294-1.432.464-4.038.724-3.959 1.941.583 7.219-1.008 8.702-3.266 1.485-2.259-.73-5.459.914-5.364 5.467-1.021 7.739-1.107 10.329-4.833 1.419-4.833-4.335-3.439-.771-6.05 3.161-2.316 5.395-2.158 8.364-6.897 1.063-6.66-6.268-4.92-1.226-8.152 2.469-2.306 8.201-8.31 2.08-10.273-3.682-1.165 2.161-5.57 1.239-10.193-.876-2.225-2.041-3.381-5.612-2.818m-24.615-24.687c-.442-1.526 1.258-2.532 1.964-2.918 10.085-5.519 4.901-7.832 3.472-10.177-1.149-1.885 3.518-2.721 4.658-4.338.833-1.182 1.861-3.52.531-5.175-1.353-1.683-4.379-.114-2.818-2.072 3.492-7.123 2.088-10.938-.051-11.385-1.227-.256-2.538.693-2.523-.1 1.447-15.164-8.325-9.889-10.188-3.563-1.059 1.571-2.13-1.34-4.585-.02-1.09.586-1.485 4.428-2.31 4.428-4.967-3.014 4.925-15.986-5.168-14.689-3.101.397 3.326-12.146-5.589-12.22-2.405-.021-4.326 2.855-5.235.374-.339-6.386-6.271-11.016-8.323-5.118-.738 2.035-2.01 1.933-2.692.937-3.477-3.903-4.988-6.408-10.267-5.128-1.999 1.195-3.051 4.124-.245 8.774.803 1.898-1.601 2.007-2.707 2.736-6.337 4.173 7.011 7.286 2.729 9.246-5.932 4.065 6.727 8.138 5.379 11.241-2.263 2.608-2.105 4.771-.682 6.512 1.914 2.342 9.169 4.425 8.775 6.441-1.06 5.421 5.925 8.333 6.164 13.513-2.057 2.076-1.713 1.008-3.883 4.68-1.092 1.896-2.244-2.505-5.432-.378-1.91 1.275-2.582 6.864-3.311 8.015-.751 1.185-4.751.405-5.521 3.981-.688 3.189 1.854 9.165 1.075 10.567-1.325 2.392-3.358-.309-4.35 5.749-.699 4.285 3.955 6.686 2.801 8.86-.872 1.64-3.025 3.407-2.414 6.693.892 4.781 4.134 11.092 5.464 15.181 4.837-8.397 12.586-15.807 20.739-20.09.176-.242.27-.467.269-.682-.009-1.685 4.604-4.277 8.762-7.293l-.013-.043c1.218-.919 1.56-1.311 2.099-1.582l.012.019c3.018-2.468 5.216-5.144 4.149-7.796-1.168-2.901 4.653-4.981 7.754-7.063 3.216-2.159 1.479-5.924 1.511-6.117M487.96 526.23c1.749.717 2.972 1.563 4.064 2.936 1.165 1.444 2.206 3.053 3.498 3.374.39-.037.733-.067 1.043-.095 1.592-.202 4.696.253 5.959 1.166 2.589 1.871 3.737 4.79 5.604 7.187q.166.239.333.473l-.047-.268.06.044c.221.655 3.536 3.146 3.871 3.795 1.006 1.949-.665 2.043 0 4.011-7.424 2.41-14.023 10.594-20.726 18.319-1.497-.82-3.257-1.772-2.917-4.823 5.257-5.68 12.088-10.637 19.116-15.069-4.544.94-9.418.766-14.358 4.658-1.146.759-3.935.791-4.738.155-1.034-.82-.008-2.688-1.367-2.532-2.417.278-4.901 4.844-8.27 4.379-1.157.045-2.306-2.896-3.835-2.731-2.92.313-1.971 5.133-7.451 2.203-4.054-3.999-3.746-3.015-7.991-.186-6.532-.018-1.363-3.258-2.359-4.818-.996-1.562-2.705-.875-3.911-.425-1.825.682-6.335 1.077-7.413-1.119-.619-1.62 1.231-4.246 2.203-4.489 3.495-.699 6.297-.947 2.78-3.997-2.374-2.059 3.27-4.839 8.062-3.583 5.576-.633-2.711-6.47 3.495-7.382.723-.106 5.68 2.718 9.245 2.06 2.718-.503-.133-8.269 7.789-4.435 1.049.509 2.837 3.336 5.033 3.146 1.218-2.058 2.32-2.23 3.228-1.954" style="stroke-width:1.33399" transform="translate(-127.813)scale(.74963)"/>
      <path d="M535.98 526.36c-1.749.718-2.975 1.565-4.067 2.938-1.165 1.445-2.207 3.055-3.501 3.377-.39-.037-.734-.067-1.044-.095-1.595-.202-4.698.253-5.964 1.167-2.593 1.872-3.741 4.795-5.61 7.193l-.333.473.047-.267-.06.043c-.222.656-3.54 3.148-3.875 3.798-1.006 1.952.667 2.046 0 4.015 7.431 2.413 14.037 10.604 20.745 18.337 1.499-.821 3.26-1.775 2.92-4.829-5.262-5.684-12.1-10.646-19.134-15.082 4.55.941 9.428.767 14.372 4.662 1.146.76 3.938.792 4.742.155 1.034-.82.008-2.69 1.368-2.534 2.419.278 4.905 4.849 8.277 4.384 1.158.044 2.308-2.899 3.839-2.735 2.923.315 1.972 5.139 7.457 2.206 4.059-4.003 3.749-3.019 7.999-.187 6.537-.018 1.364-3.26 2.36-4.822.997-1.563 2.708-.876 3.915-.425 1.826.682 6.341 1.078 7.42-1.12.621-1.623-1.232-4.25-2.204-4.493-3.498-.7-6.303-.948-2.783-4.001 2.376-2.061-3.272-4.844-8.069-3.587-5.581-.634 2.715-6.477-3.498-7.389-.723-.105-5.685 2.722-9.254 2.063-2.721-.503.134-8.276-7.796-4.439-1.05.509-2.839 3.338-5.038 3.147-1.218-2.056-2.321-2.228-3.231-1.953" style="stroke-width:1.33399" transform="translate(-127.813)scale(.74963)"/>
    </g>
    <path fill="#abd3f1" d="M394.33 245.89h235.38v220.92l-.002.002.002.182c0 16.073-13.038 28.871-29.079 29.015l-.003.003h-58.462v.015a27 27 0 0 0-.854-.015c-5.429 0-27.423 2.305-29.293 16.688-1.87-14.384-25.019-16.691-28.906-16.688q-.344 0-.684.01v-.01h-59.483l-.01-.009c-15.824-.394-28.608-13.093-28.608-29.009l.002-.182-.002-.002V245.89Z" style="clip-rule:evenodd;fill-rule:evenodd;stroke-width:1.89815" transform="translate(-127.813)scale(.74963)"/>
    <path fill="#f2d300" d="M642.56 166.67c0 2.554 1.359 3.769 2.144 7.106-.28 2.292-5.387 1.814-4.774 4.232.531 2.102 3.785 1.943 5.684 5.605-.413 2.273-3.944 2.478-2.299 4.289 2.319 2.557 4.813 3.201 6.878 6.697-.056 3.058-3.297 3.812-1.663 6.02 2.24 3.025 9.48 5.419 10.176 7.964-.057.69-.168 1.454-.673 2.531.122 2.23 5.318 5.955 5.734 10.375.927-.263 1.536-.2 4.054-.881.225-2.669.042-5.513-.415-8.478-.042-.273-6.577-3.1-6.622-3.376-.047-.275 6.392 1.917 6.341 1.64-.51-2.772-1.236-5.563-2.068-8.485-.098-.344-11.166-4.168-11.268-4.515 4.843-.964 10.764 2.781 10.661 2.434-.738-2.476-1.536-4.984-2.332-7.5-1.397-.002-11.157-4.017-14.911-6.946 9.21-.028 13.471 4.041 13.246 3.629-4.198-7.674-10.393-14.945-14.297-22.655-1.537-1.925-3.081-.798-3.596.314m48.731 23.823c-1.948 1.653-1.147 3.948-3.184 6.705-1.928 1.27-3.457-2.271-4.904-.24-1.258 1.764-.443 1.882-2.005 5.7-2 1.156-5.256.101-5.982 2.436-1.389 4.459 1.429 4.421.101 8.259-2.366 1.936-5.511 2.308-6.136 4.982-.228.974-.11 1.946-.123 3.181 1.663 3.601.202 7.579-.962 9.73.721 3.412 5.429-.987 5.869 3.266.393 3.998-1.943 3.397-2.358 7.307-.004 2.092 2.36.835 3.028 4.016.023 4.41-7.995 8.55-1.801 11.631 2.18-1.556 3.852-15.309 5.817-17.575.181-.209-5.85-15.119-5.669-15.333.18-.212 5.689 4.795 6.528 12.205 1.783-2.183 2.415-7.316 3.905-10.269-1.497-.956-6.594-11.682-6.396-11.983 3.869 3.067 6.919 10.57 7.117 10.267 1.41-2.165 2.052-7.599 3.455-9.834-.903-1.066-5.196-5.549-5.393-10.307 4.946 4.179 5.639 7.421 5.807 6.986 3.133-8.168 2.877-12.229 6.227-20.195.474-2.415-1.761-1.261-2.941-.935m-26.841 32.47c-1.946 1.652-2.754 2.64-4.791 5.397-2.732 2.275-4.964-1.566-6.312.161-1.331 1.708-1.147 3.29-1.402 7.007-2 2.162-5.504 1.367-6.083 3.743-1.087 4.458 3.036 6.432 1.71 10.27-2.469 2.841-3.601 1.906-4.729 3.877-.893 5.541 1.977 4.594 2.573 10.347-.412 2.791-2.447 1.386-2.862 5.296 1.6 5.441 3.478 9.55 5.45 14.542 1.074-2.662 3.349-10.786 3.605-14.358.019-.275-6.955-13.009-6.774-13.221.18-.212 6.393 3.286 7.231 10.696 1.783-2.183.706-6.41 2.196-9.364-1.495-.956-5.589-11.078-5.39-11.379 3.868 3.066 5.813 9.061 6.011 8.758 1.41-2.163 1.147-5.991 2.551-8.225-.903-1.066-3.488-4.645-3.685-9.402 4.947 4.178 4.837 6.415 5.003 5.979 3.134-8.166 4.283-10.619 7.635-18.585.474-2.416-.757-1.866-1.937-1.539m51.574 38.688c-2.433.776-2.035 2.81-4.976 4.57-2.682.689-2.101-3.712-5.439-3.983-4.323-.354-4.924 5.639-6.591 8.972-3.753 3.285-2.379-6.697-7.951-3.546-2.905 1.641-2.811 6.388-5.514 9.419-3.371 1.672-3.16-4.466-7.738-.841-2.955 4.771-1.735 4.375-3.4 9.912-2.44 3.224-3.688-1.991-5.577 1.457-.741 1.849-1.302 4.529-1.927 6.205a127 127 0 0 0 2.065 3.218c2.466 3.272 5.399 7.127 8.329 11.197.18-.246.498-.706 1.073-1.554.153-.228-3.381-15.491-3.133-15.617.247-.125 3.201 1.643 4.616 14.359 2.486-1.328 5.271-5.823 7.783-7.976-.475-1.996-2.953-16.407-2.652-16.609 2.838 4.32 4.206 15.17 4.505 14.967 2.134-1.453 5.516-5.445 7.671-7.415-.423-1.332-2.146-9.571-1.841-14.217 2.957 5.761 3.221 12.145 3.569 11.835 6.933-6.15 14.582-17.289 20.743-23.351-.871-2.226-2.399-1.655-3.615-1.002m-6.142 150.36c-1.704.729-2.46 2.339-4.463 3.814-1.888.685-2.79-3.636-5.22-3.6-3.146.045-1.556 5.007-4.053 7.445-2.059 2.04-3.368-3.232-7.174-.571-1.983 1.388-.993 4.978-2.735 7.354-3.25 2.965-4.369-.297-7.424 2.639-1.579 3.195.425 6.264-3.354 9.3 3.255 4.278 7.754 10.965 9.102 12.615.034.009.396-1.682 1.173-3.106.095-.175-3.431-12.985-3.092-13.432.123-.16 2.342 3.419 4.246 12.505 1.702-1.132 2.726-4.572 4.391-6.301-.481-1.408-1.747-13.169-1.376-13.25 2.35 2.923 2.313 11.934 2.514 11.767 1.441-1.197 4.283-6.008 5.704-7.58-.398-.933.493-7.018.393-10.394 2.534 3.955.8 8.716 1.028 8.469 4.579-4.922 8.992-12.397 13.021-17.203-.786-1.546-1.849-1.029-2.681-.471m-5.709-52.9c-1.585.537-2.279 1.56-4.057 3.3-3.129 1.702-4.625-3.043-7.024-2.669-3.109.482-2.791 5.683-5.602 8.528-2.771 2.307-3.361-4.169-6.761-1.005-.537.499-.206 6.59-2.206 9.13-1.279 1.626-5.585-2.41-7.325 1.016-.849 1.673-1.733 4.295-1.636 6.502.053 1.167.43 3.823-1.151 5.814-3.95-.241-4.764 2.247-5.231 3.252-1.441 3.095 1.389 7.139.629 9.207-2.807 3.389-2.253-.108-4.868 3.223-1.119 3.385 1.715 7.33-.335 10.608 3.818 3.783 6.24 8.594 7.807 10.039.034.005 2.528-7.052 3.099-8.57.07-.187-3.682-13.06-3.407-13.548.099-.175 1.355 1.365 4.505 10.098.67-.594 2.616-5.562 5.285-10.268.24-.425-4.613-17.294-4.387-17.655.228-.36 5.536 15.786 5.788 15.368 3.082-5.129 6.432-10.031 7.112-10.972-.673-1.328-3.394-14.067-3.037-14.2 2.733 2.568 3.783 12.765 3.958 12.572 1.261-1.385 5.775-7.139 6.962-8.893-.523-.869-.486-7.019-1.057-10.348 3.062 3.564 2.005 8.52 2.198 8.243 3.849-5.511 11.581-12.936 14.9-18.255-.992-1.421-3.412-1.183-4.159-.517m6.902 129.59c-1.62-.418-2.927.552-5.365 1.036-3.551-.285-1.716-3.597-3.929-4.597-2.866-1.295-6.596 3.396-10.176 4.899-5.389 1.567-3-2.863-7.574-2.073-.724.125-3.121 1.788-6.02 3.972-1.651 1.246-3.687-4.248-7.017-2.333-1.625.936-1.663.347-2.788 2.248-.594 1.006-2.717 4.257-5.132 5.061-3.173-2.362-4.395-1.381-5.334-.797-2.899 1.803-3.234 8.053-5.003 9.367-4.201 1.304-3.799-.5-7.811.859-2.691 2.144-3.657 7.506-6.139 9.928 3.054 2.142 6.257 4.383 10.027 6.353.574-.27 1.137-.539 1.658-.794 1.234-.603 2.239-1.127 2.617-1.403.16-.118-1.528-11.469-1.032-11.728.177-.093 2.523 4.516 2.194 10.754.885-.131 6.054-4.869 10.861-7.35.433-.224.335-13.223.722-13.4.389-.178.112 12.301.552 12.087 5.385-2.607 6.104-2.909 7.188-3.323.163-1.48 5.838-14.62 6.209-14.536.885 3.645-4.799 13.742-4.548 13.676 1.813-.469 9.562-4.79 11.515-5.609.036-1.014 5.073-6.307 6.417-9.405-.701 4.493-4.581 8.469-4.312 8.268 6.894-5.139 20.551-6.799 26.239-9.436-.05-1.736-3.029-1.874-4.019-1.724m-64.193 71.942c-3.612-1.875-4.715-.148-4.58-7.159.06-3.145-5.519-1.787-9.069-3.36-4.837-2.846 2.182-4.373-3.12-7.729-.619-.392-7.652-1.344-11.222-1.994-2.64-.481 2.979-7.478-5.301-6.966-1.166.072-5.644 1.512-7.884.306-.459-3.93-1.784-3.576-2.854-3.859-3.299-.872-5.578 1.809-7.747 1.425-3.832-2.164-.539-1.632-4.28-3.618-2.982-.427-7.418 1.396-10.834 1.736a88 88 0 0 1 4.003 5.093c4.002 1.61 8.728 2.878 9.902 3.292.459.162 10.758-1.899 11.153-1.739s-8.871 2.727-8.415 2.9c5.59 2.129 6.985 3.354 8.03 3.858 1.188-.897 12.938-2.604 13.131-2.275-3.521 2.689-11.813 2.302-11.479 2.894.918 1.632 7.432 4.691 9.368 5.552.762-.67 10.568-1.204 13.744-2.353-3.75 2.572-11.758 3.85-11.245 4.125 7.205 3.864 23.815 11.65 30.433 13.072 1.225-1.23-.945-2.584-1.734-3.201m-73.368-17.686c-3.496-.699-5.73-1.401-2.213-4.451 2.375-2.06-4.179-3.137-8.062-3.13-5.576-.633 3.28-6.018-2.927-6.927-.724-.106-5.793 2.604-9.36 1.946-2.719-.503.815-8.043-6.539-4.209-1.035.541-2.611 4.018-5.147 3.827-2.018-3.404-1.723-2.315-2.813-2.139-3.369.544-5.271 5.396-7.408 5.929-4.38-.419-.134-.136-4.359-.43-3.428.975-8.687 12.128-12.045 13.197-.331 1.768-2.211.7 1.684.437 3.521-3.429 13.5-6.546 14.897-6.658.486-.038 5.99-8.608 6.416-8.623s-3.701 7.689-3.215 7.662c5.973-.328 6.951-.798 8.111-.763.721-1.303 6.559-8.32 6.869-8.101-2.124 3.89-5.654 7.589-5.109 7.994 1.501 1.116 6.199.354 8.317.353.425-.921 5.077-3.58 7.512-5.921-2.38 3.875-5.087 6.481-4.507 6.524 8.152.601 16.613 4.707 22.896 6.381.618-1.62-2.028-2.654-2.998-2.898m85.551-82.474c-4.567 6.433-4.92.832-7.441 3.017-.553.479-2.597 4.461-2.119 8.155-1.15 3.64-4.085.738-5.646 3.59-1.713 3.128 2.074 8.182-.288 10.899-2.784 1.72-3.992 2.53-4.175 3.347-.744 3.332.495 4.141-.355 6.171-2.296 3.098-2.867.682-5.628 3.896-.985 2.589-1.237 8.093-1.84 11.98a55 55 0 0 1 2.931 1.794c2.907-3.376 7.576-8.9 8.013-9.922.078-.182-1.403-10.898-1.107-11.375.104-.169 2.334 4.409 2.598 10.11.695-.563 2.401-2.179 5.275-6.76.259-.414-2.172-13.359-2.423-17.326-.015-.237 2.259 3.957 3.434 8.464.916 3.504.779 7.589.896 7.41 3.307-4.984 5.744-8.57 6.466-9.479-.614-1.355-3.08-13.417-3.047-16.327 2.618 2.685 4.063 14.138 4.203 13.921 3.249-5.029 5.176-8.706 7.168-11.938a58 58 0 0 0-.579-.852c-1.976-2.849-4.142-5.802-6.336-8.775m-16.678-122.54c1.053 2.095 2.723 5.604 2.672 8.09-1.042 3.407-1.211 1.793-2.662 3.74-1.879 2.521 3.316 5.89 3.305 9.89-.362 3.587-2.183 1.067-2.394 5.706-.033.732 3.383 4.366 3.734 7.579.227 2.057-5.797 1.654-3.551 4.771 1.288 1.787 4.666 2.712 6.04 6.75.376 1.106-1.721 4.357-1.454 6.889 2.199 2.956 4.086 4.697 4.455 5.742 1.139 3.219-.884 5.33.021 7.339.104 1.212.323 2.109.698 2.972l.195.42c.689 1.384 1.789 2.799 3.45 5.428-.34-6.799-.951-10.784-.762-21.584.021-1.201-5.516-9.957-5.605-10.373-.091-.417 5.006 4.492 4.883 4.019-1.392-5.336-.506-5.271-.679-6.419-1.41-.477-7.813-10.437-7.649-10.781 3.628 1.244 7.417 5.735 7.408 5.477-.07-1.871-.999-7.331-1.381-9.414-.981-.253-4.781-3.582-6.434-7.73 4.32 1.847 5.8 5.766 5.774 5.43-.75-9.766-6.103-20.842-8.785-27.206-1.704-.323-1.816 1.421-1.279 3.265m22.226-162.62c-2.085 4.274-3.707 9.939-2.78 16.067 3.182-3.774 3.293-12.535 2.78-16.067m32.942 34.852c-4.608 1.176-9.693 1.629-9.056 4.229 1.735 1.114 6.695-1.553 9.056-4.229m17.461 77.912c-4.678-.854-16.006-1.234-16.634.547 1.111 1.736 13.372.9 16.634-.547m-4.959 141.81c-3.438-.293-10.715.643-11.044 1.973.924 1.175 8.788-.702 11.044-1.973m-11.259-41.38c-4.424-.376-12.686.743-13.109 2.455 1.187 1.511 10.208-.821 13.109-2.455m4.825-9.397c-4.425-.376-9.808-.781-10.231.93 1.187 1.514 7.33.705 10.231-.93m-45.403-24.591c-2.527 3.65-5.555 8.12-4.28 9.34 1.903-.278 4.254-6.01 4.28-9.34m3.739 7.961c-2.527 3.651-6.52 13.428-5.246 14.648 1.904-.278 5.222-11.317 5.246-14.648m4.342 11.46c-2.525 3.652-10.379 15.479-9.104 16.698 1.904-.278 9.08-13.366 9.104-16.698m30.504-124.84c-1.679-2.747-5.524-2.294-7.713-.447-3.201 2.7-5.045 7.251-5.418 8.309-.779 3.062 3.643 6.242 6.608 5.476 4.477-.605 9.246-7.646 6.523-13.338m7.757 89.213c-1.678-2.748-5.523-2.293-7.713-.447-3.2 2.699-5.045 7.25-5.418 8.308-.778 3.062 3.644 6.242 6.609 5.476 4.477-.603 9.246-7.645 6.522-13.337m.494 133.85c-.544-3.173-4.284-4.174-7.002-3.269-3.972 1.324-7.369 4.87-8.106 5.715-1.856 2.556 1.075 7.147 4.114 7.532 4.381 1.097 11.417-3.681 10.994-9.978m-16.662 72.431c2.229-1.387 1.835-4.521.314-6.294-2.224-2.594-5.948-4.067-6.813-4.365-2.502-.616-5.066 3.014-4.423 5.426.522 3.648 6.297 7.491 10.922 5.233m-18.283-302.56c-4.608 1.177-11.604 2.232-10.966 4.833 1.736 1.113 8.606-2.157 10.966-4.833m4.42-43.35c-2.973 3.712-5.8 8.882-6.24 15.064 3.933-2.982 5.966-11.506 6.24-15.064m16.998 34.64c-4.753.136-6.663.763-11.661 4.428 1.241 3.327 8.773-2.335 11.661-4.428m3.875 74.613c-4.376-1.861-9.45-2.21-15.521-.968-.262 3.543 12.022 1.663 15.521.968m6.1 139.01c-3.288-1.041-10.449.838-14.748 2.157.057 2.576 12.269-1.413 14.748-2.157m-38.296 46.023c-3.29-1.04-7.82.673-12.119 1.992.057 2.577 9.64-1.247 12.119-1.992m9.04-9.369c-3.29-1.041-9.464-2.121-13.928 1.005.057 2.578 11.448-.26 13.928-1.005m35.105 44.341c-.136-3.448-.059-6.993-4.514-10.133-2.404.927 2.974 8.053 4.514 10.133m5.709-1.726c-.095-2.413-.041-4.894-3.158-7.092-1.684.648 2.079 5.635 3.158 7.092m-13.532-18.463c-2.497-2.383-7.566-6.068-12.95-5.224-1.082 2.339 10.396 4.801 12.95 5.224m-10.767 7.431c-6.188-2.869-7.863-6.917-13.302-7.271-1.568 2.047 9.751 7.781 13.302 7.271m-10.191 4.275c-1.915-2.871-7.043-3.795-11.988-6.778-2.06 4.346 9.588 5.807 11.988 6.778m-14.63 6.245c-1.915-2.869-5.232-3.466-9.521-5.462-.087 5.496 7.123 4.492 9.521 5.462m-39.267 37.98c.028-3.451-4.768-8.421-7.194-12.48-3.161 4.498 5.753 10.329 7.194 12.48m-64.017-15.981c-1.12-2.506-5.779-5.881-8.876-8.019-.801 4.301 7.123 6.938 8.876 8.019m57.089 13.595c.027-3.45-8.63-12.168-11.056-16.228-3.161 4.499 9.615 14.077 11.056 16.228m-64.934-12.123c-1.121-2.506-7.769-6.864-10.865-9-.801 4.3 9.111 7.92 10.865 9m52.555 4.513c.026-3.45-7.723-10.463-10.148-14.524-3.16 4.499 8.707 12.374 10.148 14.524m-64.484-4.225c-1.12-2.507-5.979-6.158-9.076-8.295-.801 4.3 7.323 7.214 9.076 8.295m144.62-135.53c-4.232.524-9.721 1.756-14.998 2.521 3.167 2.959 7.89 1.627 14.998-2.521m-20.015-153.06c-4.754.136-7.869 2.975-12.867 6.64 1.241 3.327 9.978-4.547 12.867-6.64m6.246-78.017c-2.38 4.117-5.323 13.284-4.829 19.463 3.441-3.542 5.093-15.904 4.829-19.463m22.802 39.039c-4.68.85-9.9 1.526-9.957 4.019.876 1.742 7.414-1.516 9.957-4.019m11.634 76.007c-4.607-1.182-16.754-1.657-17.848.584.07 1.949 14.492.63 17.848-.584m1.225 142.32c-3.409-.533-14.162-.287-14.796 1.405.186 1.404 12.458-.296 14.796-1.405m-12.274-39.604c-4.387-.687-17.038 2.594-17.853 4.772.238 1.805 14.843-3.345 17.853-4.772m-26.018-149.98c-4.68.85-13.52 3.538-13.576 6.03.876 1.742 11.033-3.527 13.576-6.03m49.541 254.08c-1.978-.988-4.046-1.787-6.606-.977.631 2.632-6.632 4.401-7.667 4.401-3.489.364.607 3.773-1.668 6.042.105 0-1.065 1.581-2.873 1.995-3.454.788-6.658-1.087-7.466 1.291.134.82-.678 3.618-3.38 4.273-4.817 1.169-7.515-2.511-10.87.29-.825.606-1.223 3.015-2.564 3.953-2.354 1.647-5.774 1.943-2.484 2.22 2.675.434 5.216-1.698 6.19-4.94.656-1.424 5.198.743 6.849.79 5.047.744 6.606-1.933 7.74-4.834-.255-1.414 3.987.007 6.938-1.065 1.908-.694 2.181-1.595 2.449-2.635.617-.776 10.177-5.553 10.474-5.448s-9.498 5.699-8.916 5.808c1.021.187 1.989.445 2.941.731.951.285 1.886.598 2.837.89.34.104 8.405-3.212 8.635-3.103.38.182-7.114 3.795-6.572 3.985 8.398 2.969 15.359 6.953 16.151 6.874 2.396-.237 2.592-4.843-2.691-6.164-2.111-4.011 3.081-3.846 2.11-6.889-1.44-4.769-6.227.025-8.923-1.521-1.966-1.127 1.793-3.672-.634-5.967m-186.27 56.733-1.817 2.272c-1.811-3.613-4.997-6.856-7.495-10.074 3.571 2.141 6.921 4.43 9.312 7.802m-.682 3.408c-.788-.811.907-2.089 1.323-2.998.454.417.835 1.104 1.289 1.521-.28.813-1.125 2.514-2.612 1.477m63.314-54.695c-.543-3.173-4.283-4.174-7.001-3.269-3.972 1.323-7.369 4.869-8.106 5.715-1.856 2.556 1.075 7.147 4.114 7.532 4.381 1.096 11.417-3.681 10.993-9.978" style="clip-rule:evenodd;fill-rule:evenodd;stroke-width:1.89815" transform="translate(-127.813)scale(.74963)"/>
    <path fill="#0f5a26" d="M665.01 348.79h.515c1.825-2.443 1.88-3.543 1.68-6.173-10.119-9.922-25.325-27.857-25.325-37.915-1.449-17.395 16.043-37.084 32.424-41.918 3.019-1.349 2.801-3.613 2.306-5.255 1.218-.919 1.56-1.311 2.099-1.582 4.862 6.918-7.532 14.812-15.626 32.743 3.018 5.578 20.436 25.53 26.578 39.828 6.145 14.298-2.559 19.581-4.347 24.264-2.039 5.507-9.598 19.829-13.15 17.639v4.109q-.215.084-.441.199c.279-1.461.703-3.599-.021-4.495-.725-.897-3.282-.163-3.59-1.738-.449-2.302 2.033-7.075 1.909-9.316-.125-2.242-2.917-1.68-3.582-1.963-2.424-1.029-1.118-5.322-1.429-8.427" style="clip-rule:evenodd;fill-rule:evenodd;stroke-width:1.89815" transform="translate(-127.813)scale(.74963)"/>
    <path fill="#008d21" d="M683.88 351.48c4.01-4.838 7.423-12.799 5.676-16.269-7.332-25.132-35.435-42.265-30.671-62.495-6.539 6.249-11.917 14.822-14.968 23.978-2.87 14.002 7.763 25.607 18.01 37.497 8.229 9.548 17.664 19.381 11.2 34.146 7.75-8.041 6.344-7.944 10.753-16.857" style="clip-rule:evenodd;fill-rule:evenodd;stroke-width:1.89815" transform="translate(-127.813)scale(.74963)"/>
    <path fill="#d82819" d="M684.58 350.51c-3.262-16.548-14.627-27.019-24.524-40.123-6.498-8.601-10.33-20.917-8.786-28.978-.717 1.23-1.577 2.825-2.294 4.055.57 25.731 15.324 29.789 27.871 51.667 2.582 4.502 4.041 10.509 5.893 16.8.532-1.099.851-1.972 1.84-3.421" style="clip-rule:evenodd;fill-rule:evenodd;stroke-width:1.89815" transform="translate(-127.813)scale(.74963)"/>
    <path fill="#0f5a26" d="M689.76 469.87c.549-5.932-9.177-26.95-22.39-43.534-11.521-14.458-17.81-26.458-17.157-29.284-1.848-.135-.709 4.367-2.293 10.698-2.335 9.345-6.252 18.694-6.252 21.103-.498 3.708 1.236 10.798 4.888 16.655 5.003 8.026 11.816 16.776 17.604 25.122 6.005 8.662 9.745 15.906 10.847 18.503 1.378-1.092 2.363-5.131 4.716-7.646 4.489-4.8 10.037-8.955 10.037-11.617" style="clip-rule:evenodd;fill-rule:evenodd;stroke-width:1.89815" transform="translate(-127.813)scale(.74963)"/>
    <path fill="#008d21" d="M687.79 469.96c.501-5.394-8.981-26.084-20.998-41.167-10.476-13.147-17.029-22.066-16.437-24.637-1.68-.123.194 1.034-1.244 6.792-2.124 8.497-5.477 16.79-5.477 18.981-.453 3.371 2.384 10.03 5.704 15.355 4.549 7.3 10.36 15.239 15.623 22.829 5.46 7.877 9.668 14.484 10.671 16.847 1.253-.994 1.52-3.828 3.659-6.113 4.084-4.366 8.499-6.465 8.499-8.887" style="clip-rule:evenodd;fill-rule:evenodd;stroke-width:1.89815" transform="translate(-127.813)scale(.74963)"/>
    <path fill="#d82819" d="M682.49 475.94c-4.246-13.974-12.305-24.336-21.529-36.549-6.054-8.015-11.798-16.115-13.375-23.628-.668 1.146-.625 3.355-1.293 4.502 7.648 19.035 16.695 22.817 28.388 43.206 2.404 4.195 4.007 8.589 5.732 14.451.496-1.024 1.155-1.113 2.077-1.982" style="clip-rule:evenodd;fill-rule:evenodd;stroke-width:1.89815" transform="translate(-127.813)scale(.74963)"/>
    <path fill="#0f5a26" d="M674.48 528.45c-26.205-2.786-36.334-19.843-55.706-20.824-6.291-.737-15.446 3.382-22.629 9.989-7.604 3.91-11.587 6.714-12.081 9.386l-.04.019v.292c2.646-.632 5.392-1.384 7.46-1.089 3.856 2.049.461 1.501 4.412 3.73 2.236.396 4.587-2.368 7.989-1.468 1.104.291 2.469-.072 2.941 3.979 2.311 1.243 6.929-.241 8.13-.316 3.39-.209 4.521.803 4.821 2.128l-.003.004-.007.005a6 6 0 0 1-.223.157c5.098 3.288 10.145 5.458 14.79 8.077 6.792 3.828 12.61 7.39 15.415 6.365 5.839-.782 7.563-5.33 12.753-9.035 2.72-1.94 6.005-2.873 8.072-4.829 3.613-3.415 3.906-5.821 3.906-6.57" style="clip-rule:evenodd;fill-rule:evenodd;stroke-width:1.89815" transform="translate(-127.813)scale(.74963)"/>
    <path fill="#008d21" d="M671.88 530.01c-3.523.391-9.61-2.342-19.396-6.145-14.776-5.741-21.829-14.68-35.919-14.159-3.663.116-7.833.74-12.859 3.689-4.435 2.602-8.538 7.447-13.952 8.936 2.516 0 22.389 4.62 35.017 12.133 10.465 6.224 20.093 12.796 24.594 12.207 7.041-.093 8.515-7.412 13.477-9.271 8.633-3.236 9.038-6.512 9.038-7.39" style="clip-rule:evenodd;fill-rule:evenodd;stroke-width:1.89815" transform="translate(-127.813)scale(.74963)"/>
    <path fill="#d82819" d="M659.1 540.31c-14.093-1.39-21.506-9.831-34.867-16.288-8.77-4.238-16.616-7.977-24.059-8.053.963-.853 1.749-1.136 2.712-1.988 9.438 1.045 19.13 5.992 28.348 11.339 10.78 6.254 20.948 12.951 29.831 13.017-.88.665-1.314.932-1.965 1.973" style="clip-rule:evenodd;fill-rule:evenodd;stroke-width:1.89815" transform="translate(-127.813)scale(.74963)"/>
    <path fill="#902c16" d="M473.12 512.04c3.582-.869 8.176 3.079 14.515 5.724 9.253 3.863 17.286 2.212 20.827 23.502-2.249-3.168-4.533-7.39-6.765-8.024-2.863-.842-1.795-1.125-6.175-.706-2.138-.531-3.586-4.59-6.045-5.589-1.024-.415-2.727-2.173-4.745 1.231-2.196.19-3.984-2.637-5.033-3.146-7.922-3.834-5.071 3.932-7.789 4.435-3.565.658-8.522-2.166-9.245-2.06-6.207.912 2.081 6.749-3.495 7.382-4.792-1.256-10.436 1.524-8.062 3.583 3.517 3.05.715 3.298-2.78 3.997-.971.243-2.822 2.869-2.203 4.489 1.078 2.196 5.588 1.801 7.413 1.119 1.206-.45 2.916-1.137 3.911.425.996 1.561-4.173 4.801 2.359 4.818.651-.332 1.554-.903 2.523-1.376a67 67 0 0 1-2.989 3.801c-11.364 13.495-19.054 8.761-29.538 6.964-7.409-1.271-11.832 1.056-13.57-2.404 8.451-.434 13.561-10.092 20.659-21.154 10.65-16.6 25.353-28.084 36.227-27.011" style="clip-rule:evenodd;fill-rule:evenodd;stroke-width:1.89815" transform="translate(-127.813)scale(.74963)"/>
    <path fill="#0f5a26" d="M550.88 512.06c-3.582-.87-8.176 3.077-14.516 5.725-9.253 3.861-17.285 2.211-20.827 23.5 2.249-3.166 4.533-7.39 6.764-8.023 2.863-.842 1.797-1.126 6.176-.706 2.139-.532 3.587-4.591 6.046-5.588 1.024-.416 2.728-2.174 4.745 1.229 2.196.19 3.983-2.637 5.033-3.146 7.923-3.833 5.071 3.934 7.789 4.435 3.565.66 8.523-2.165 9.245-2.059 6.208.911-2.081 6.748 3.496 7.382 4.791-1.257 10.435 1.524 8.062 3.584-3.518 3.05-.716 3.298 2.78 3.996.971.244 2.822 2.87 2.202 4.489-1.077 2.196-5.589 1.802-7.414 1.12-1.204-.452-2.914-1.137-3.91.425-.996 1.561 4.173 4.8-2.358 4.818-.651-.333-1.555-.903-2.523-1.376a68 68 0 0 0 2.988 3.801c11.365 13.495 19.055 8.761 29.54 6.963 7.409-1.27 11.832 1.056 13.57-2.403-8.452-.434-13.562-10.092-20.658-21.154-10.652-16.602-25.355-28.087-36.23-27.012" style="clip-rule:evenodd;fill-rule:evenodd;stroke-width:1.89815" transform="translate(-127.813)scale(.74963)"/>
    <path fill="#008d21" d="M551.8 513.27c-3.755.087-8.366 3.111-14.126 5.516-1.556.648-3.037 1.156-4.44 1.674l8.029 6.074c1.444-.751 2.618-2.784 3.372-3.149 7.198-3.483 5.67 4.513 8.14 4.971 3.241.598 8.308-1.907 8.964-1.81 7.766 1.894-1.078 6.509 3.988 7.083 4.354-1.141 10.607 2.64 8.45 4.511-3.195 2.771-1.774 2.684 1.401 3.318 2.882.284 4.313 4.111 3.751 5.584-.979 1.995-2.267 3.643-7.986 2.208-1.596-.159-2.461-1.032-3.366-.053-.529 1.355 4.516 6.353-3.594 4.889 10.326 12.264 17.002 9.654 26.529 8.021 6.732-1.155 6.752-.17 10.956-1.307-8.304-7.538-10.51-12.054-16.96-22.106-9.677-15.086-23.227-26.399-33.108-25.424" style="clip-rule:evenodd;fill-rule:evenodd;stroke-width:1.89815" transform="translate(-127.813)scale(.74963)"/>
    <path fill="#d82819" d="M557.21 527.65c-5.263-4.856-10.356-8.821-15.857-10.735 1.245-.527 1.673-.814 2.919-1.34 5.48 2.547 10.772 6.618 15.735 11.304-.344.04-.767.118-.767.236-.271 0-.81 0-.989.09v.089c-.181.091-.72.181-.899.181 0 .127-.09.165-.142.175m29.167 35.233c-5.153-4.005-8.238-8.499-11.246-13.28.153-.027.293-.062.389-.092.641-.214 1.62-.146 2.179-.554 3.634 6.096 6.903 11.424 12.195 13.249-1.1.367-2.339.397-3.517.677" style="clip-rule:evenodd;fill-rule:evenodd;stroke-width:1.89815" transform="translate(-127.813)scale(.74963)"/>
    <path fill="#902c16" d="M379.26 237.41c-.681-.832-.722-1.437-2.358-1.777.517-1.972-.151-5.257-1.306-6.81-3.666-4.924-8.871-8.8-8.825-14.941.047-6.146 9.514-6.785 14.835-12.844-1.019-7.631 2.745-9.642 8.361-14.567 3.842-3.37 7.61-8.755 10.303-9.427 20.932-.328 22.551 18.233 33.227 32.078 12.352-8.99 15.864-14.447 24.348-13.217 13.308 3.842 14.948 12.953 29.881 19.284 12.339 5.232 17.96 1.019 24.288 8.876 0 5.117-.325 7.772 0 13.41-3.2-4.081-10.756-2.05-24.995-5.045-13.02-2.738-23.706-14.963-36.505-15.55-.475 9.165-5.106 6.514-10.07 10.066-5.625 4.023-7.54 9.108-14.061 8.335-12.333-1.464-20.289-23.069-22.508-25.208 0-1.426-4.004 2.115-7.654 5.969-2.258 2.383-2.956 5.539-5.443 7.667-3.015 2.582-5.596 2.438-8.827 1.887.906 5.466-1.882 10.918-2.691 11.814" style="clip-rule:evenodd;fill-rule:evenodd;stroke-width:1.89815" transform="translate(-127.813)scale(.74963)"/>
    <path fill="#0f5a26" d="M644.73 237.41c.681-.832.722-1.438 2.358-1.777-.517-1.972.151-5.258 1.307-6.811 3.665-4.924 8.871-8.799 8.824-14.941-.047-6.146-9.514-6.786-14.835-12.844 1.019-7.632-2.745-9.643-8.36-14.568-3.843-3.37-7.611-8.755-10.304-9.427-20.934-.328-22.554 18.234-33.229 32.078-12.353-8.99-15.865-14.447-24.35-13.217-13.308 3.842-14.948 12.953-29.881 19.285-12.339 5.231-17.961 1.018-24.289 8.877 0 5.116.326 7.771 0 13.41 3.201-4.082 10.479-4.059 24.996-5.045 13.174-.894 23.706-14.963 36.506-15.551.477 9.165 5.107 6.515 10.071 10.066 5.625 4.024 7.54 9.11 14.062 8.335 12.333-1.463 20.29-23.07 22.508-25.208 0-1.427 4.006 2.115 7.656 5.968 2.258 2.384 2.955 5.539 5.443 7.668 3.014 2.581 5.596 2.437 8.826 1.886-.906 5.468 1.882 10.921 2.691 11.816" style="clip-rule:evenodd;fill-rule:evenodd;stroke-width:1.89815" transform="translate(-127.813)scale(.74963)"/>
    <path fill="#008d21" d="M653.28 209.42c-2.368 0-10.53-5.598-12.267-7.106 0 2.84-3.77 6.293-6.205 10.036-2.753 4.231-3.971 8.305-.191 10.968 4.29 3.022 8.418 1.437 10.768-2.017 1.585-2.328 1.987-5.961 3.203-8.229 1.469-2.733 4.692-3.309 4.692-3.652" style="clip-rule:evenodd;fill-rule:evenodd;stroke-width:1.89815" transform="translate(-127.813)scale(.74963)"/>
    <path fill="#d82819" d="M646.74 206.18c-.507 0-1.128-.783-2.044-1.2-.675.381-2.808.98-4.077 3.344-1.217 2.267-1.619 5.9-3.203 8.229-1.232 1.81-2.95 3.104-4.926 3.494.069.325.112.614.112.812a1 1 0 0 1 .093.114c2.733.241 5.153-1.241 6.752-3.59 1.585-2.328 1.986-5.962 3.203-8.229 1.467-2.734 4.09-2.632 4.09-2.974" style="clip-rule:evenodd;fill-rule:evenodd;stroke-width:1.89815" transform="translate(-127.813)scale(.74963)"/>
    <path fill="#008d21" d="M624.25 179.2c-3.479-.822-9.228-.271-14.453 4.42-6.519 5.85-11.88 18.473-17.606 26.357-6.188 8.521-12.541 11.64-13.869 11.64.323 2.603 3.081 2.311 6.318 4.54 3.361 2.314 6.619 5.195 8.005 6.828 3.04 2.495 10.052-.167 14.468-5.409 5.014-5.947 13.876-23.965 19.744-30.261 7.424-7.964 11.504-3.605 12.918-3.605-3.142-3.266-12.661-11.984-15.525-14.51" style="clip-rule:evenodd;fill-rule:evenodd;stroke-width:1.89815" transform="translate(-127.813)scale(.74963)"/>
    <path fill="#d82819" d="M587.86 228.46c16.14-5.402 22.987-42.837 43.538-43.034-1.313-.554-1.423-1.429-2.735-1.982-22.12 3.355-23.375 34.666-43.229 43.402 1.16.387.862.818 2.426 1.614m-135.81-31.15c12.961-1.955 17.45 10.072 31.282 17.368 14.725 7.767 21.218 3.084 28.682 10.539v10.443c-9.481-5.229-16.707-2.368-26.478-5.456-12.06-3.812-28.337-17.832-35.704-14.967-.462-2.372-3.326-14.816 2.218-17.927" style="clip-rule:evenodd;fill-rule:evenodd;stroke-width:1.89815" transform="translate(-127.813)scale(.74963)"/>
    <g fill="#f8f100" style="clip-rule:evenodd;fill-rule:evenodd;stroke-width:1.89815">
      <path d="M450.6 198.55c12.96-1.955 18.756 9.981 32.588 17.277a50 50 0 0 0 5.91 2.668c10.744 4.015 16.502 1.562 22.887 7.938v1.387c-2.781-4.713-11.103-5.514-18.565-6.992-3.872-.766-10.173-3.841-11.884-4.896-11.897-7.333-20.733-19.344-31.742-16.096-.024.007.312-.715.806-1.286" style="stroke-width:1.33399" transform="translate(-127.813)scale(.74963)"/>
      <path d="M449.49 200.55c12.961-1.955 19.858 9.982 33.689 17.277a51 51 0 0 0 5.91 2.669c10.744 4.015 16.502 1.562 22.887 7.937v1.388c-2.781-4.713-11.103-5.514-18.565-6.993-3.872-.766-10.173-3.84-11.884-4.895-11.897-7.333-21.458-19.239-32.467-15.991-.022.007.153-.791.43-1.392m-.27 11.59c1.758.02 2.535-1.35 13.4 3.271 5.89 2.505 13.529 9.469 26.756 13.04 8.246 1.211 12.448-.205 22.595 4.267.01.768.011.869-.009 1.277-9.482-5.229-15.97-3.137-23.128-4.64-13.215-2.774-32.014-18.676-39.381-15.812z" style="stroke-width:1.33399" transform="translate(-127.813)scale(.74963)"/>
      <path d="M448.91 210.22c3.433-.707 6.482-.176 10.298 1.536 3.585 1.608 9.884 4.863 13.959 7.308 6.12 3.67 11.812 6.334 17.424 7.487 6.991 1.436 11.795-.337 21.3 4.4.01.768.011.87-.008 1.278-9.482-5.229-16.346-2.945-23.359-5.024-4.564-1.353-10.107-3.756-15.244-6.808-9.506-5.648-19.36-10.861-24.137-9.004z" style="stroke-width:1.33399" transform="translate(-127.813)scale(.74963)"/>
    </g>
    <path fill="#008d21" d="M571.94 197.31c-12.962-1.955-17.45 10.072-31.282 17.369-14.726 7.768-21.218 3.085-28.684 10.54v10.443c9.482-5.229 21.594-3.966 26.785-4.919 9.294-1.706 28.032-18.369 35.398-15.504.463-2.373 3.328-14.818-2.217-17.929" style="clip-rule:evenodd;fill-rule:evenodd;stroke-width:1.89815" transform="translate(-127.813)scale(.74963)"/>
    <path fill="#d82819" d="M575.3 205.85c-9.174-1.57-21.319 8.929-35.145 15.203-11.454 5.198-23.744 2.83-28.072 8.085.045 1.155-.091.929-.137 2.06 5.272-5.94 19.443-3.731 28.673-8.082 13.493-6.359 21.687-15.897 34.526-14.895.172-1.06.147-.739.155-2.371" style="clip-rule:evenodd;fill-rule:evenodd;stroke-width:1.89815" transform="translate(-127.813)scale(.74963)"/>
    <path fill="#9b7d23" d="M383.4 235.06h257.23V474.6l-.002.002.002.198c0 17.565-14.249 31.908-31.778 32.065l-.004.005H544.96v.015a32 32 0 0 0-.935-.015c-16.26 0-29.76 12.208-31.802 27.926-2.042-15.718-15.541-27.926-31.801-27.926q-.375 0-.747.008v-.008h-65.004l-.01-.011c-17.293-.431-31.264-14.666-31.264-32.06l.002-.198-.002-.002v-239.54z" style="clip-rule:evenodd;fill-rule:evenodd;stroke-width:1.89815" transform="translate(-127.813)scale(.74963)"/>
    <path fill="#039" d="M500.02 496.98c-6.773-2.787-14.259-3.438-16.303-3.437q-.336 0-.67.008v-.008h-58.225l-.009-.01c-15.49-.387-28.003-12.814-28.003-28.395l.002-.177-.002-.003v-25.061l103.21 32.313zm14.579 6.533a13.36 13.36 0 0 0-2.587 6.368c-.329-2.535-1.337-4.686-2.784-6.509l3.045 1.538zm112.62-63.528v24.975l-.003.003.003.177c0 15.734-12.764 28.26-28.464 28.399l-.003.005h-57.227v.012a29 29 0 0 0-.835-.012c-2.766 0-9.923.61-16.41 3.182v-24.513zm-230.4-191.28h230.4v166.77l-114.94 36.492-115.46-36.58v-166.68z" style="clip-rule:evenodd;fill-rule:evenodd;stroke-width:1.89815" transform="translate(-127.813)scale(.74963)"/>
    <path fill="#f2d300" d="m629.71 417.56-117.43 37.177v-.007l-117.95-37.092v-171.75h235.38v171.67zm-108.19 83.085v-30.352l108.19-34.213v30.734l-.002.002.002.182c0 16.073-13.038 28.871-29.079 29.015l-.003.003h-58.462v.015a27 27 0 0 0-.854-.015c-3.264.001-12.522.837-19.79 4.629zm-127.19-64.502 108.7 34.166v30.768c-7.575-4.165-17.492-5.061-19.916-5.06q-.344 0-.684.01v-.01h-59.483l-.01-.009c-15.824-.394-28.608-13.093-28.608-29.009l.002-.182-.002-.002v-30.672zm-6.374-196.58h248.13v231.86l-.004.003.004.191c0 16.943-13.745 30.576-30.654 30.729l-.004.003H543.8v.015a30 30 0 0 0-.899-.015c-12.744 0-28.911 6.342-30.881 21.505-1.97-15.163-20.671-21.508-30.472-21.505q-.363 0-.721.01v-.01h-62.705l-.01-.01c-16.682-.415-30.157-13.944-30.157-30.722l.002-.191-.002-.003z" style="clip-rule:evenodd;fill-rule:evenodd;stroke-width:1.89815" transform="translate(-127.813)scale(.74963)"/>
    <path fill="#9b7d23" d="M473.34 299.45c20.697-14.137 30.14-29.876 38.78-50.13v-.485c.043.09.092.183.133.265v-.052q.006.017.015.035.052-.125.106-.248v.495c8.652 20.24 18.079 35.965 38.778 50.085-1.981 8.562-11.631 11.599-16.64 6.7-1.164 2.606-3.807 3.841-7.327 2.851 13.148 17.277 32.176 30.982 54.171 42.018-3.102 7.399-8.813 11.172-17.87 7.575-2.817 6.38-9.798 7.409-14.068 3.807-.028 1.765-1.938 3.174-2.215 3.103 20.586 16.075 42.514 27.926 66.687 38.422-2.786 7.048-14.439 13.188-24.062 10.361-1.139 6.59-13.13 12.056-20.67 5.496-2.857 8.782-17.644 10.289-21.598 4.75-5.147 7.83-17.789 7.368-22.84 2.13-.037 6.271-1.524 13.191 6.059 13.162-2.788 2.439-7.356 3.937-11.49 2.959-2.297.958-3.936 3.148-6.915 2.841v.104l-.121-.052v.12c-.041.039-.09.039-.133.039v-.091c-2.973.312-4.612-1.858-6.917-2.829-4.126.971-8.68-.539-11.481-2.975 7.585.04 6.075-6.908 6.075-13.164-5.1 5.232-17.726 5.721-22.878-2.119-3.933 5.535-18.742 4.034-21.622-4.745-7.533 6.56-19.544 1.064-20.655-5.539-9.666 2.84-21.318-3.286-24.106-10.333 24.196-10.498 46.131-22.383 66.75-38.469-.273.083-2.17-1.337-2.223-3.1-4.246 3.589-11.255 2.565-14.095-3.814-9.035 3.59-14.755-.182-17.86-7.585 21.989-11.035 41.045-24.724 54.206-42.015-3.538.97-6.156-.265-7.35-2.88-5.011 4.915-14.637 1.865-16.624-6.693" style="clip-rule:evenodd;fill-rule:evenodd;stroke-width:1.89815" transform="translate(-127.813)scale(.74963)"/>
    <path fill="#f2d300" d="M476.31 300.78c19.36-13.205 27.604-25.881 35.715-44.721v-.923c.093.17.136.3.226.485v-.066l.019.047.205-.479v.956c8.111 18.812 16.339 31.478 35.714 44.678a12 12 0 0 1-.677 2.042c-.1.21-4.222-1.792-4.332-1.621-.172.32 3.667 2.822 3.458 3.106a6.15 6.15 0 0 1-2.04 1.791c-.183.076-4.266-3.518-4.449-3.416-.527.214 2.859 4.053 2.295 4.121-.705.107-1.377.147-2.081.072-.461-.072-3.558-3.243-4.022-3.346-.452-.105 1.7 2.854 1.24 2.644a13.1 13.1 0 0 1-4.162-2.711c-.175.945-.527 1.97-1.41 2.777-.283.286-2.815-2.217-3.245-2.004-.416.209 1.236 3.131.641 3.279-.465.106-1.028.17-1.623.207-.425.039-2.891-4.015-3.313-4.015-.429 0 1.23 4.015.811 3.979-.491-.035-2.084-1.866-2.61-1.94-.318-.034.426 1.692.104 1.622 11.318 17.982 35.104 34.05 55.869 44.49-.174.455-.389.844-.598 1.227-.145.319-8.07-3.87-8.286-3.589-.175.281 7.364 5.039 7.192 5.282a9.2 9.2 0 0 1-1.481 1.382c-.494.347-7.786-4.302-8.315-4.095-.567.209 5.599 5.36 4.97 5.47-.923.136-1.904.201-2.963.068-.494-.068-5.676-4.547-6.202-4.654-.705-.143 3.204 4.089 2.464 3.878a42 42 0 0 1-4.227-1.375c-.109.247-2.506-2.118-2.609-1.904s2.047 3.031 1.938 3.243a13 13 0 0 1-1.759 2.366c-.318.312-4.588-3.742-4.934-3.458-.357.247 3.241 4.831 2.849 5.006-.846.419-1.692.67-2.613.704-.562.033-3.413-4.201-3.976-4.302-.566-.101 1.2 3.908.634 3.663a10 10 0 0 1-2.045-1.164c-.075 1.693-5.391 7.511-5.673 7.443 19.454 15.187 42.82 28.21 65.664 38.11l.169.042-2.988 2.91-6.786-4.565 5.022 5.733-4.224 1.036-6.02-4.819 3.972 5.535-3.808.187-6.928-5.722 4.322 5.896-4.974-.561-5.669-4.34 5.761 7.366-1.658 2.05-5.709-5.504 4.707 6.693-2.576 1.443-5.397-5.663 3.872 6.335-3.379.406-5.13-5.982 2.7 5.565-4.333-2.37-4.649-5.778 2.697 6.346-1.829 2.925-3.871-5.329 2.363 6.988-3.104 1.979-3.514-5.395 1.39 5.928-4.012.536-2.893-5.35.433 4.993-4.488-1.663-2.744-5.706.749 5.438-2.371 2.751-1.998-5.143-.278 6.249-4.241 1.151-1.601-5.142-.745 5.233-4.251-.719-1.163-5.262-.705 4.489-3.798-2.209-1.128-6.042-.48 5.479-1.83 2.525-.859-5.564-.571 6.721-2.863 1.391-.545-5.616-1.19 6.167-2.786.511-.491-4.361v.142l-.486 4.339-2.788-.526-1.208-6.164-.528 5.624-2.88-1.366-.581-6.743-.839 5.545-1.815-2.524-.484-5.456-1.161 6.025-3.809 2.22-.661-4.482-1.195 5.272-4.259.715-.711-5.226-1.634 5.142-4.219-1.156-.302-6.249-1.998 5.143-2.342-2.749.751-5.455-2.75 5.722-4.525 1.64.45-5.01-2.881 5.364-4.038-.535 1.419-5.937-3.55 5.407-3.1-1.995 2.392-6.959-3.893 5.323-1.826-2.929 2.708-6.34-4.655 5.759-4.341 2.395 2.708-5.576-5.153 5.982-3.365-.406 3.852-6.34-5.405 5.679-2.566-1.457 4.694-6.691-5.665 5.486-1.685-2.029 5.76-7.362-5.681 4.34-4.959.534 4.341-5.897-6.957 5.72-3.814-.175 3.986-5.545-6.021 4.835-4.209-1.025 5.01-5.759-6.785 4.563-3.013-2.88.173-.04c22.871-9.93 46.235-22.96 65.735-38.161-.313.08-5.628-5.758-5.68-7.444-.697.485-1.365.88-2.076 1.146-.54.266 1.235-3.72.656-3.63-.565.08-3.406 4.34-3.985 4.29a6 6 0 0 1-2.616-.699c-.395-.187 3.195-4.746 2.84-5.011-.355-.271-4.615 3.761-4.92 3.461a15 15 0 0 1-1.775-2.355c-.09-.224 2.041-3.064 1.961-3.275-.093-.185-2.537 2.17-2.629 1.898a38 38 0 0 1-4.207 1.377c-.75.225 3.149-3.985 2.445-3.855-.54.095-5.72 4.564-6.209 4.653-1.063.135-2.035.043-2.97-.089-.622-.089 5.535-5.233 5.009-5.444-.538-.225-7.848 4.419-8.335 4.074-.529-.354-1.015-.839-1.512-1.379-.172-.221 7.413-5.009 7.233-5.271-.225-.265-8.154 3.895-8.287 3.592-.223-.396-.448-.753-.627-1.24 20.79-10.417 44.59-26.509 55.896-44.501-.313.042.438-1.64.134-1.64-.53.087-2.13 1.905-2.615 1.946-.448.051 1.245-3.984.8-3.984-.405 0-2.879 4.074-3.326 4.035-.58-.051-1.159-.091-1.605-.221-.619-.136 1.066-3.065.631-3.29-.445-.22-2.97 2.315-3.235 2-.893-.8-1.249-1.814-1.419-2.75a13 13 0 0 1-4.171 2.701c-.445.221 1.686-2.75 1.24-2.659-.435.14-3.54 3.287-4.026 3.372-.709.047-1.378.047-2.088-.084-.53-.052 2.84-3.904 2.3-4.128-.17-.08-4.25 3.5-4.42 3.417a5.74 5.74 0 0 1-2.048-1.772c-.224-.315 3.638-2.791 3.458-3.105-.133-.17-4.25 1.814-4.34 1.59a9.4 9.4 0 0 1-.667-2.045" style="clip-rule:evenodd;fill-rule:evenodd;stroke-width:1.89815" transform="translate(-127.813)scale(.74963)"/>
    <path fill="#9b7d23" d="M481.99 329.36h60.425v55.652c0 4.078-3.347 7.408-7.466 7.444v.001h-15.006v.003l-.221-.003c-3.819 0-6.99 2.834-7.47 6.482-.48-3.648-3.65-6.482-7.47-6.482l-.176.001v-.001h-15.27l-.001-.002c-4.063-.101-7.345-3.405-7.345-7.443l.001-.045-.001-.002z" style="clip-rule:evenodd;fill-rule:evenodd;stroke-width:1.89815" transform="translate(-127.813)scale(.74963)"/>
    <path fill="#dfbe66" d="M484.65 332.21h55.102v50.925c0 3.718-3.052 6.71-6.807 6.743l-.001.001h-13.687v.002l-.199-.002c-2.829 0-6.42 1.392-6.856 4.72-.438-3.328-4.591-4.721-6.768-4.72l-.16.001v-.001H491.35l-.002-.002c-3.705-.092-6.697-3.062-6.697-6.742V332.21Z" style="clip-rule:evenodd;fill-rule:evenodd;stroke-width:1.89815" transform="translate(-127.813)scale(.74963)"/>
    <path fill="#0f5a26" d="M537.72 373.71v8.023l-.001.003.001.036c0 3.446-2.825 6.258-6.304 6.288h-12.678v.002l-.185-.002c-3.224 0-5.903 1.271-6.308 4.352-.407-3.08-3.083-4.352-6.309-4.352l-.149.001v-.001h-12.898l-.001-.003c-3.432-.082-6.202-2.875-6.202-6.285l.001-.036-.001-.003v-8.023z" style="clip-rule:evenodd;fill-rule:evenodd;stroke-width:1.89815" transform="translate(-127.813)scale(.74963)"/>
    <path fill="#008d21" d="M536.81 374.97v6.138l-.001.003.001.036c0 3.323-2.728 5.997-6.082 6.026v.001H518.5v.001l-.177-.001c-2.53 0-5.735.119-6.128 3.092-.392-2.973-4.101-3.093-6.044-3.092l-.144.001v-.001h-12.44l-.004-.001c-3.308-.081-5.983-2.735-5.983-6.026v-6.177z" style="clip-rule:evenodd;fill-rule:evenodd;stroke-width:1.89815" transform="translate(-127.813)scale(.74963)"/>
    <path fill="#902c16" d="M486.67 334.33h51.033v37.574H486.67Z" style="clip-rule:evenodd;fill-rule:evenodd;stroke-width:1.89815" transform="translate(-127.813)scale(.74963)"/>
    <path fill="#d82819" d="M487.77 335.45h48.945v35.192h-12.937l-4.082-6.529-2.493-.001c-.503-4.806-5.198-4.639-8.152-6.974-.774-4.479-4.656-3.408-6.417-.788-.642.954-1.12 2.173-1.175 3.427-.104 2.395 1.178 4.663 4.16 3.671l.7.665h-4.103l-2.382 6.529h-12.063V335.45Z" style="clip-rule:evenodd;fill-rule:evenodd;stroke-width:1.89815" transform="translate(-127.813)scale(.74963)"/>
    <g style="clip-rule:evenodd;fill-rule:evenodd;stroke-width:1.89815">
      <path fill="#0f5a26" d="M493.63 380.14h2.64l-2.64-2.27 3.35.95.76-2.93.73 2.93 3.67-.95-2.93 2.27h2.93v1.47h-8.51zm29.05 0h2.64l-2.64-2.27 3.35.95.76-2.93.73 2.93 3.67-.95-2.93 2.27h2.93v1.47h-8.51zm-14.89 1.98h2.64l-2.64-2.27 3.34.95.77-2.93.73 2.93 3.67-.95-2.93 2.27h2.93v1.47h-8.51z" style="stroke-width:1.33399" transform="translate(-127.813)scale(.74963)"/>
    </g>
    <g style="clip-rule:evenodd;fill-rule:evenodd;stroke-width:1.89815">
      <path fill="#902c16" d="M527.51 365.43c.638 0 1.157.52 1.157 1.157s-.52 1.155-1.157 1.155a1.157 1.157 0 0 1 0-2.312m-1.69 2.57c.638 0 1.157.52 1.157 1.157s-.52 1.156-1.157 1.156-1.156-.52-1.156-1.156c0-.637.52-1.157 1.156-1.157m-32.17-.92c.829 0 1.504.675 1.504 1.504s-.676 1.505-1.504 1.505a1.51 1.51 0 0 1-1.505-1.505c0-.829.676-1.504 1.505-1.504m36.89-1.65a1.157 1.157 0 1 1-1.157 1.157c0-.637.519-1.157 1.157-1.157m-1.69 2.57c.638 0 1.157.52 1.157 1.157s-.52 1.156-1.157 1.156-1.156-.52-1.156-1.156A1.16 1.16 0 0 1 528.85 368m-35.2-7.74c.829 0 1.504.675 1.504 1.504s-.676 1.505-1.504 1.505a1.51 1.51 0 0 1-1.505-1.505c0-.829.676-1.504 1.505-1.504m36.89-.07c.638 0 1.156.519 1.156 1.156a1.158 1.158 0 0 1-2.313 0c0-.637.519-1.156 1.157-1.156m-39.1 3.48c.829 0 1.505.676 1.505 1.505s-.676 1.505-1.505 1.505a1.51 1.51 0 0 1-1.504-1.505 1.506 1.506 0 0 1 1.504-1.505m37.4-.86c.638 0 1.157.52 1.157 1.156 0 .638-.52 1.156-1.157 1.156a1.157 1.157 0 0 1 0-2.312m-31.04 4.27c.83 0 1.505.675 1.505 1.504s-.675 1.505-1.505 1.505a1.51 1.51 0 0 1-1.504-1.505c0-.829.676-1.504 1.504-1.504m35.93-1.65a1.157 1.157 0 1 1-1.157 1.157c0-.637.52-1.157 1.157-1.157m-1.69 2.57c.637 0 1.156.52 1.156 1.157s-.52 1.156-1.156 1.156c-.638 0-1.157-.52-1.157-1.156 0-.637.519-1.157 1.157-1.157m3.23 0c.637 0 1.156.52 1.156 1.157s-.52 1.156-1.156 1.156a1.16 1.16 0 0 1-1.156-1.156A1.16 1.16 0 0 1 535.27 368m-39.68-4.33c.829 0 1.504.676 1.504 1.505s-.675 1.505-1.504 1.505a1.51 1.51 0 0 1-1.505-1.505 1.507 1.507 0 0 1 1.505-1.505m36.44-.86c.638 0 1.157.52 1.157 1.156 0 .638-.52 1.156-1.157 1.156a1.16 1.16 0 0 1-1.155-1.156c0-.637.52-1.156 1.155-1.156" style="stroke-width:1.33399" transform="translate(-127.813)scale(.74963)"/>
    </g>
    <path fill="#989898" d="M498.76 113.95c18.793-5.216 36.332.134 50.06 12.501 19.914 19.914 19.914 52.397 0 72.311-17.569 17.569-44.921 19.634-64.794 6.201l-4.141-4.141 2.14-2.484 13.481 5.561 3.174 2.756-.206-2.407 4.22 2.849.155-2.475 4.569 2.396-.379-2.473 5.76 1.761-.563-2.384 5.415 1.123-.296-2.593 5.521.693-1.066-2.392 5.44.23-1.98-1.967 9.051-4.728 3.038-4.765 4.242-1.225-2.021-1.844 4.691-2.163-2.001-1.881 3.834-1.779-1.867-1.656 3.664-2.402-2.173-1.386 3.618-3.189-2.229-.856 3.217-3.772-2.263-.527 2.727-4.017-2.396-.261 2.45-3.979-2.194-.151 1.954-4.279-2.29.474 1.407-4.808-2.157.601.855-5.189-1.823.771-.095-5.518-1.749 1.19-.494-5.561-1.528 1.628-1.233-5.598-1.597 1.384-1.419-4.841-1.146 1.391-1.773-4.436-1.132 1.496-1.85-3.931-1.094 1.341-2.029-3.627-.74 1.484-2.451-3.069-.542 1.124-2.362-2.647-.619 1.133-2.427-2.395-.426 1.072-2.948-2.557-.566 1.24c-1.654-.731-4.09-1.094-6.912-1.175l.01-.035z" style="clip-rule:evenodd;fill-rule:evenodd;stroke-width:1.89815" transform="translate(-127.813)scale(.74963)"/>
    <path fill="#b6c6c8" d="M517.5 113.46c11.307 1.277 21.328 6.724 30.106 14.631 19.015 19.016 19.015 50.032 0 69.047-16.777 16.777-43.074 19.076-62.05 6.249-1.08-.704-2.055-1.311-2.896-2.305.199-.213.638-.7.837-.913l11.176 4.963 4.736 3.455.056-2.457 4.191 2.926-.01-2.965 4.741 2.604-.362-2.931 5.912 1.934-.569-2.624 5.329 1.103-.441-2.856 5.841.694-1.112-2.505 5.572.315-3.437-4.443 8.642-4.515 3.659-2.713 5.85-1.296-2.31-2.236 4.953-2.096-2.288-1.955 3.977-1.825-2.065-1.803 3.813-2.42-2.266-1.577 3.992-3.235-2.539-.912 3.323-3.982-2.412-.565 2.699-4.059-2.542-.249 2.625-4.052-2.349-.177 1.835-4.529-2.25.452 1.313-5.002-2.313.827 1.07-5.557-2.248.958-.025-6.25-1.893 1.706-.502-6.197-1.743 2.093-1.241-5.725-1.59 1.796-1.669-5.098-1.127 1.582-1.757-4.458-1.206 1.46-1.955-4.132-.888 1.787-2.254-3.716-.77 1.669-2.529-3.121-.549 1.2-2.478-2.941-.496 1.336-2.475-2.287-.469.993-2.911-2.354-.599 1.021q-.021-.008-.044-.014l.037-.051-.379-.054c-1.104-.311-2.595-.509-4.269-.61l-5.623-.803c3.705-.594 7.566-.579 11.615-.236" style="clip-rule:evenodd;fill-rule:evenodd;stroke-width:1.89815" transform="translate(-127.813)scale(.74963)"/>
    <path fill="#9b7d23" d="m482.82 151.39 6.801-6.801q39.296 35.44 78.588 70.881c3.349 11.056-3.452 17.857-14.282 14.282z" style="clip-rule:evenodd;fill-rule:evenodd;stroke-width:1.89815" transform="translate(-127.813)scale(.74963)"/>
    <path fill="#f2d300" d="m485.04 151.61 4.858-4.858c18.711 16.876 57.117 53.447 75.83 70.324 2.392 7.896-2.467 12.755-10.203 10.201z" style="clip-rule:evenodd;fill-rule:evenodd;stroke-width:1.89815" transform="translate(-127.813)scale(.74963)"/>
    <path fill="#989898" d="m471.2 168.34 27.88-27.89 30.21 1.19-42.39 42.4z" style="clip-rule:evenodd;fill-rule:evenodd;stroke-width:1.89815" transform="translate(-127.813)scale(.74963)"/>
    <path fill="#b6c6c8" d="m474.57 168.49 25.22-25.21 23.86.48-36.91 36.91z" style="clip-rule:evenodd;fill-rule:evenodd;stroke-width:1.89815" transform="translate(-127.813)scale(.74963)"/>
    <path fill="#9b7d23" d="M508.1 356.99c2.044 2.369 4.529 1.981 7.224 4.501 3.029 3.266-.626 7.14-3.682 5.743-3.85-1.464-4.532-4.502-6.877-4.908 1.229-1.915 2.11-3.422 3.335-5.336" style="clip-rule:evenodd;fill-rule:evenodd;stroke-width:1.89815" transform="translate(-127.813)scale(.74963)"/>
    <path fill="#dfbe66" d="M507.65 357.48c.892 1.299 2.197 1.823 3.593 2.425.05.169.086.349.102.532.111 1.209-.557 2.36-1.593 2.935 1.302-.481 2.215-1.773 2.171-3.167.473.216.951.457 1.422.752l-.305.027q.142.277.202.59c.207 1.134-.557 2.282-1.804 2.918 1.556-.562 2.603-1.829 2.51-3.121q.344.257.674.57c2.759 2.973.031 5.896-2.749 4.624-3.819-1.434-3.892-4.347-6.806-4.823 1.117-1.743 1.464-2.519 2.583-4.262" style="clip-rule:evenodd;fill-rule:evenodd;stroke-width:1.89815" transform="translate(-127.813)scale(.74963)"/>
    <path fill="#9b7d23" d="M502.86 364.99h16.35l3.47 5.69h-21.83z" style="clip-rule:evenodd;fill-rule:evenodd;stroke-width:1.89815" transform="translate(-127.813)scale(.74963)"/>
    <path fill="#dfbe66" d="M503.69 365.9h7.061a1.134 1.134 0 1 0 1.999.729c0-.277-.103-.532-.269-.729h5.91l2.427 3.875h-.907l-1.963-3.221h-2.458l1.962 3.221h-2.704v-3.221h-1.354v3.221h-6.924v-3.221h-1.354v3.221h-2.76z" style="clip-rule:evenodd;fill-rule:evenodd;stroke-width:1.89815" transform="translate(-127.813)scale(.74963)"/>
    <path fill="#9b7d23" d="M507.02 355.04c1.446.652 1.833 2.939.863 5.088-.972 2.15-2.944 3.37-4.391 2.717-1.447-.654-1.834-2.939-.863-5.09s2.943-3.37 4.391-2.715" style="clip-rule:evenodd;fill-rule:evenodd;stroke-width:1.89815" transform="translate(-127.813)scale(.74963)"/>
    <path fill="#dfbe66" d="M506.76 355.88c1.066.579 1.333 2.339.584 3.997-.772 1.71-2.341 2.681-3.491 2.16-1.152-.52-1.46-2.338-.687-4.049.576-1.276 1.598-2.141 2.558-2.28.908.482 1.137 1.973.503 3.374-.499 1.104-1.391 1.843-2.216 1.929.967.106 2.111-.729 2.714-2.064.514-1.141.497-2.333.035-3.067" style="clip-rule:evenodd;fill-rule:evenodd;stroke-width:1.89815" transform="translate(-127.813)scale(.74963)"/>
    <path fill="#9b7d23" d="m352.16 533.71-.064.021c-.015.765-.53 1.38-1.155 1.376a1 1 0 0 1-.208-.026c.166.889.097 1.808-.204 2.548-1.377 3.33-3.916 4.318-4.458 5.578-.127.294-.269-.704-.489-.464-2.562 2.812-6.932 4.804-10.922 2.854-2.676-1.666-2.203-5.43-.377-7.559 2.169-2.529 5.573-4.064 7.268-4.889-.147-.263-.622-.813-.427-.879 1.56.31 5.655-1.23 7.723-.078.422.236.775.561 1.063.942.179-.494.586-.839 1.054-.835q.04 0 .08.003c.306.441.674.91 1.116 1.408m-30.865-49.671c7.608-1.797 8.918 4.72 12.92 4.854 2.126.072 1.024-2.194 3.231-3.056a1.24 1.24 0 0 1-.641-.658 1 1 0 0 1-.069-.246c-.933.598-2.007.946-2.987.947-4.418-.023-6.712-2.448-8.395-2.48-.393-.008.676-.633.302-.77-4.378-1.607-8.661-5.647-8.295-11.08.653-3.81 5.143-5.012 8.405-3.924 3.875 1.29 7.195 4.445 8.915 5.987.229-.287.633-1.08.799-.892.371 1.913 4.014 5.85 3.662 8.732a4.2 4.2 0 0 1-.578 1.641c.645-.023 1.225.279 1.438.813.106.265.105.55.02.822l.586.83c2.878.426 3.563 4.894 6.251 5.332.455.023 1.744-.471 2.122-1.783l.013.012c1.102-2.598 3.603-11.216 9.609-19.878 2.327-3.355 4.917-6.861 7.509-10.374-.26 4.543 6-.079 9.118 5.782 1.309 2.461-.113 5.32 1.465 7.499 1.253 1.73 3.651-1.232 5.229 2.678 2.571 6.367 6.331 12.45 8.845 18.292 2.793 6.488.695 12.932 3.469 17.435-11.527 5.737-19.594 17.764-44.361 17.879-1.13-.751-1.761-1.396-2.47-1.055-2.456-.247-5.699 2.492-7.951 3.54s-4.128-1.435-6.368-2.121c-3.986-1.222-8.355 7.294-13.949 4.636-2.634-1.248-1.412-2.118-3.126-3.128-2.403-.938-8.025 5.473-11.696 3.102-3.147-2.033-1.384-3.971-2.675-4.966-1.762.093-4.805.64-6.91-.652-1.577-.97-2.121-1.862-2.313-2.947-1.017-5.735 4.252-5.516 4.365-7.521.112-1.98-4.443-1.707-1.612-7.245 2.661-3.616 5.633-.649 7.79-2.087 1.037-.238-2.374-2.46 1.437-4.754 1.782-1.073 6.94-1.347 7.929-1.353.98-1.311 1.284-2.093 2.226-3.031-.509-1.817-5.088-2.979-6.336-5.13-.96-1.654-.875-4.329.148-5.46 3.354-2.899 6.37-1.918 10.201-.121 1.929-.595-.224-3.234 2.728-4.101m53.419 76.15c3.725-1.935 4.861-.154 4.723-7.383-.062-3.241 5.689-1.842 9.351-3.465 4.987-2.934-2.25-4.508 3.218-7.968.638-.403 7.89-1.386 11.57-2.057 1.546-.281.343-2.732.582-4.7l.294-.188a6 6 0 0 1-.233-.165c.301-1.327 1.433-2.337 4.822-2.128 1.202.074 5.819 1.559 8.128.315.474-4.053 1.839-3.688 2.943-3.98 3.401-.898 5.752 1.864 7.989 1.47 3.95-2.231.555-1.682 4.412-3.73 3.537-.505 9.058 2.057 12.681 1.832-2.929 3.303-5.734 7.008-8.302 11.012-6.659 10.379-11.569 19.521-19.129 20.969-.542-.004-1.189.055-2.057.279-2.751.712-.556 6.183-5.024 6.605-4.536.884-3.135-2.914-5.101-2.218-2.228.79-3.051 5.4-6.535 5.339-3.03.213-2.157-2.892-4.057-2.573-2.154.36-3.222 4.134-7.187 3.494-3.461.031-3.228-4.292-5.17-5.357-5.684 2.759-14.297-.404-7.918-5.403m74.342-36.203-.114-.13c-.874.337-1.812.036-2.095-.676a1 1 0 0 1-.068-.246c-.933.598-2.008.946-2.987.946-4.418-.021-6.712-2.447-8.396-2.48-.393-.008.676-.631.302-.769-4.378-1.607-8.661-5.648-8.295-11.08.652-3.81 5.142-5.012 8.405-3.925 3.875 1.291 7.195 4.447 8.915 5.986.229-.286.633-1.078.8-.89.371 1.914 4.013 5.85 3.661 8.732a4.2 4.2 0 0 1-.578 1.641c.645-.024 1.225.279 1.438.812.105.266.105.55.019.823l.126.177q-.568.53-1.133 1.079m-119.96-105.78c2.196-.813 4.346-1.508 5.927-.834 2.623 1.119 3.148 4.259 3.438 3.834 1.214-1.779.504-3.898-.551-4.87-1.715-1.58-5.671-2.008-6.646-3.049-2.334-2.493.202-3.654-.182-4.993-.708-2.47-8.698-5.262-9.836-6.878-.833-1.183-1.373-2.544-.043-4.199 1.353-1.682-.408-3.337-2.75-5.002-6.815-7.024-1.501-8.985.637-9.43.689-.145-5.127-4.879-5.905-8.707-.605-2.977 3.843-5.214 3.836-5.562-9.81-12.42 3.5-14.682 7.908-7.711 1.06 1.57 3.555-3.25 6.182-2.318 1.084.383 3.702 2.328 4.323 2.881l-1.901-3.631c-1.827.448-3.565-.066-5.417-1.208-4.097-1.655-5.331-4.757-6.883-5.411-.362-.152.862-.336.566-.602-3.474-3.113-5.957-8.452-3.608-13.364 2.016-3.296 6.632-2.754 9.26-.536 3.122 2.633 5.04 6.793 6.067 8.86.117-.066.281-.189.446-.305q.394.82.817 1.562c.61 2.485 2.197 6.229 1.12 8.197-.284.52-.576 1.268-1.04 1.622.608.216 1.761.713 1.761 1.286 0 .285-.105.55-.286.771l2.479 7.599c1.321-.425 4.036-2.049 5.524.274 1.527 2.386 1.331 10.247 3.172 9.04 1.125-.739 2.447-1.91 4.652-.861l.007.003.024.013.079.04c-.279-1.46-.702-3.598.022-4.494.724-.898 3.282-.164 3.589-1.739.45-2.302-2.033-7.073-1.909-9.315s2.917-1.68 3.582-1.962l.119-.056.05-.027q.036-.018.073-.04l.054-.032.06-.039.04-.026q.036-.024.07-.052l.06-.048q.041-.034.079-.069v-.001q.045-.042.088-.087l.019-.021q.037-.04.073-.083l.017-.02q.033-.04.063-.083l.016-.02q.04-.057.076-.115c.173-.274.295-.594.379-.948l.002-.009c.094-.399.14-.843.158-1.313l.001-.041c.056-1.654-.237-3.645-.07-5.298h-.001c.076-.757.248-1.441.593-1.993 1.372-2.188 5.75 1.523 6.147-.637.339-6.387 4.122-10.723 5.978-6.779.738 2.036 1.326.174 2.009-.822 3.477-3.903 3.157-4.652 8.045-5.229 2 1.195 1.751 6.166-1.054 10.815-.803 1.898-.254 2.008.852 2.736 6.335 4.173-4.599 12.294-.318 14.254 5.932 4.065-3.944 9.066-2.596 12.169 3.043.946 4.526 3.327 3.104 5.066-1.914 2.342-6.396 5.128-6.002 7.144-.018 3.098 4.367 6.216-.146 9.281-.85.577-1.764 1.252-1.779 2.249l-.035.001c.652 2.826-4.124 15.926-15.644 30.384-13.213 16.585-24.451 36.501-23.902 42.433q0 .062.004.123v.007l.004.038c-.884-.596-3.17-1.53-4.234-2.896-1.008-1.295-.534-3.487.25-5.056 1.578-3.156-10.392 1.873-10.98-8.763-.019-1.135 1.862-3.291-.663-4.883-5.25-1.567-8.965-5.793-7.141-9.404.434-.859 3.344-1.449 2.483-3.596-6.138-3.804-7.469-10.51-3.401-11.728 4.67-1.399-.573-4.087-1.356-7.522-.501-2.203.175-4.31.982-5.4 1.375-1.86 5.476-1.513 9.059 3.598 1.974.43 1.325-2.689 3.258-3.307 4.671-1.488 5.108 7.155 6.596 7.144m-21.846-158.54c2.433.776 3.213 1.81 6.155 3.57 2.681.689.922-2.348 4.26-2.62 4.322-.352 6.375 4.185 8.042 7.517 1.487 2.194.683-2.883 5.866-2.363 3.458.346 5.801 5.388 7.688 9.418 1.031.56 1.567-.827 2.957-1.54l-1.551-4.452c-.938-.011-1.697-.636-1.697-1.402q0-.13.028-.255c-1.088.211-2.216.137-3.125-.225-4.097-1.655-5.331-4.757-6.883-5.41-.362-.152.862-.337.566-.603-3.473-3.113-5.957-8.451-3.608-13.362 2.016-3.298 6.632-2.754 9.261-.537 3.122 2.633 5.04 6.793 6.067 8.861.318-.183.988-.77 1.072-.531-.363 1.915 1.564 6.919.171 9.467-.284.52-.68.956-1.145 1.31.608.216 1.036.712 1.036 1.287 0 .285-.105.55-.287.771l1.144 4.74c.856-.138 1.962-.002 3.46.677 3.5 4.042 2.734 4.737 4.397 10.276 1.263 2.405 1.243-1.265 5.306 1.82.716 1.787 1.603 4.35 2.225 6.033-4.837 6.75-15.036 19.284-21.265 30.321l-.179.031c-1.198.165-4.209.12-5.217-.993-1.295-1.433-.464-4.038-.724-3.96-1.941.584-7.218-1.007-8.702-3.266-1.484-2.258.731-5.458-.914-5.363-5.466-1.021-7.738-1.107-10.328-4.833-1.419-4.833 4.334-3.439.771-6.05-3.161-2.316-5.394-2.158-8.364-6.897-1.061-6.66 6.268-4.92 1.226-8.152-2.469-2.306-8.201-8.309-2.08-10.273 3.682-1.164-2.162-5.569-1.239-10.192.874-2.225 2.039-3.382 5.61-2.82m24.615-24.685c.442-1.525-1.258-2.532-1.964-2.917-10.085-5.519-4.9-7.832-3.471-10.177 1.148-1.885-3.519-2.721-4.659-4.338-.833-1.182-1.861-3.52-.531-5.175 1.353-1.683 4.379-.114 2.818-2.072-3.492-7.122-2.087-10.938.051-11.385 1.227-.256 2.539.693 2.523-.1-1.447-15.163 8.326-9.889 10.188-3.563 1.059 1.571 2.13-1.34 4.585-.02 1.089.586 1.485 4.427 2.309 4.427 4.966-3.014-4.924-15.986 5.167-14.689 3.102.397-3.326-12.146 5.589-12.219 2.406-.02 4.326 2.855 5.235.374.338-6.387 6.271-11.016 8.322-5.117.739 2.035 2.01 1.933 2.693.936 3.477-3.902 4.988-6.407 10.267-5.127 2 1.195 3.05 4.124.244 8.774-.802 1.897 1.601 2.007 2.707 2.735 6.336 4.173-7.01 7.286-2.729 9.246 5.932 4.064-6.727 8.137-5.379 11.241 2.262 2.607 2.105 4.771.682 6.511-1.915 2.342-9.168 4.424-8.775 6.441 1.058 5.42-5.925 8.333-6.164 13.512 2.056 2.076 1.713 1.009 3.883 4.68 1.091 1.896 2.243-2.505 5.431-.378 1.911 1.275 2.583 6.864 3.312 8.015.75 1.185 4.75.405 5.52 3.981.688 3.189-1.854 9.164-1.075 10.567 1.327 2.392 3.359-.31 4.349 5.749.701 4.284-3.955 6.685-2.799 8.859.871 1.64 3.024 3.407 2.413 6.692-.891 4.781-4.133 11.093-5.463 15.181-4.837-8.396-12.585-15.807-20.738-20.088-.176-.243-.27-.467-.269-.683.009-1.684-4.603-4.277-8.762-7.293l.013-.043c-1.217-.918-1.559-1.311-2.098-1.582l-.013.019c-3.017-2.468-5.214-5.144-4.148-7.796 1.167-2.902-4.653-4.982-7.755-7.063-3.214-2.157-1.477-5.922-1.509-6.115" style="clip-rule:evenodd;fill-rule:evenodd;stroke-width:1.89815" transform="translate(-127.813)scale(.74963)"/>
    <path fill="#f2d300" d="M381.44 166.67c0 2.554-1.359 3.77-2.143 7.106.28 2.292 5.386 1.814 4.774 4.233-.532 2.102-3.785 1.942-5.684 5.604.413 2.272 3.944 2.478 2.299 4.289-2.321 2.557-4.813 3.201-6.878 6.696.056 3.058 3.297 3.812 1.663 6.019-2.239 3.026-9.48 5.419-10.175 7.963.056.691.168 1.455.672 2.53-.122 2.231-5.317 5.955-5.734 10.376-.926-.263-1.536-.2-4.053-.882-.225-2.669-.042-5.513.415-8.477.042-.274 6.576-3.1 6.622-3.376s-6.392 1.917-6.341 1.639c.51-2.772 1.236-5.563 2.067-8.484.098-.345 11.167-4.168 11.268-4.515-4.842-.964-10.764 2.781-10.661 2.434.738-2.477 1.536-4.984 2.332-7.5 1.397-.001 11.158-4.016 14.911-6.945-9.211-.028-13.471 4.04-13.246 3.629 4.198-7.674 10.392-14.944 14.296-22.654 1.536-1.923 3.081-.796 3.596.315m-48.729 23.823c1.947 1.653 1.146 3.948 3.182 6.705 1.928 1.27 3.457-2.272 4.904-.242 1.257 1.765.443 1.882 2.006 5.7 1.999 1.156 5.255.101 5.981 2.437 1.389 4.458-1.429 4.42-.101 8.259 2.367 1.936 5.51 2.308 6.135 4.982.228.973.111 1.946.123 3.18-1.663 3.601-.201 7.579.962 9.73-.721 3.412-5.428-.987-5.869 3.266-.393 3.998 1.945 3.398 2.359 7.307.003 2.093-2.36.835-3.029 4.016-.022 4.411 7.995 8.55 1.801 11.632-2.18-1.557-3.852-15.309-5.817-17.575-.181-.209 5.849-15.119 5.669-15.332s-5.689 4.794-6.528 12.204c-1.782-2.183-2.415-7.315-3.905-10.269 1.497-.957 6.594-11.681 6.395-11.983-3.869 3.067-6.918 10.57-7.117 10.268-1.41-2.165-2.052-7.6-3.455-9.834.903-1.066 5.196-5.549 5.393-10.306-4.947 4.178-5.64 7.421-5.807 6.985-3.133-8.167-2.876-12.227-6.227-20.194-.471-2.416 1.765-1.262 2.945-.936m26.84 32.469c1.946 1.653 2.754 2.641 4.791 5.397 2.732 2.275 4.963-1.567 6.311.161 1.332 1.708 1.148 3.289 1.403 7.007 2 2.161 5.503 1.367 6.082 3.743 1.087 4.458-3.036 6.432-1.709 10.27 2.468 2.841 3.601 1.906 4.729 3.877.891 5.541-1.977 4.594-2.574 10.346.412 2.792 2.448 1.387 2.862 5.296-1.599 5.441-3.478 9.55-5.45 14.542-1.075-2.663-3.35-10.786-3.605-14.358-.02-.275 6.955-13.008 6.774-13.221-.181-.212-6.394 3.286-7.232 10.696-1.783-2.182-.707-6.41-2.196-9.364 1.496-.956 5.588-11.078 5.39-11.379-3.87 3.066-5.814 9.061-6.011 8.759-1.41-2.163-1.147-5.991-2.55-8.225.903-1.067 3.487-4.645 3.684-9.402-4.947 4.178-4.836 6.415-5.003 5.979-3.133-8.166-4.283-10.619-7.634-18.584-.474-2.417.757-1.867 1.938-1.54m-51.574 38.687c2.433.776 2.036 2.81 4.977 4.57 2.68.689 2.1-3.711 5.438-3.983 4.323-.353 4.923 5.64 6.591 8.972 3.753 3.285 2.378-6.696 7.951-3.546 2.905 1.641 2.81 6.388 5.513 9.418 3.371 1.672 3.16-4.465 7.737-.841 2.956 4.771 1.737 4.374 3.401 9.912 2.441 3.224 3.689-1.991 5.578 1.457.741 1.849 1.302 4.529 1.926 6.205a125 125 0 0 1-2.065 3.219c-2.466 3.271-5.399 7.126-8.328 11.196-.18-.246-.499-.705-1.073-1.554-.154-.228 3.38-15.491 3.132-15.617-.248-.125-3.202 1.643-4.616 14.358-2.486-1.328-5.271-5.823-7.784-7.976.475-1.996 2.953-16.407 2.652-16.609-2.838 4.32-4.206 15.169-4.503 14.967-2.135-1.453-5.517-5.445-7.671-7.415.423-1.332 2.146-9.571 1.84-14.216-2.957 5.761-3.221 12.144-3.569 11.835-6.932-6.15-14.582-17.288-20.742-23.35.873-2.226 2.4-1.655 3.615-1.002m6.143 150.35c1.704.729 2.46 2.339 4.462 3.814 1.888.685 2.791-3.636 5.22-3.6 3.146.045 1.556 5.007 4.052 7.444 2.059 2.041 3.368-3.231 7.173-.57 1.984 1.387.994 4.978 2.736 7.354 3.25 2.964 4.369-.297 7.423 2.639 1.58 3.194-.423 6.264 3.354 9.299-3.254 4.278-7.752 10.965-9.101 12.614-.035.01-.396-1.681-1.173-3.105-.095-.175 3.431-12.984 3.091-13.431-.122-.16-2.341 3.418-4.245 12.504-1.703-1.132-2.726-4.571-4.391-6.301.482-1.408 1.748-13.168 1.375-13.249-2.349 2.922-2.313 11.933-2.514 11.766-1.441-1.195-4.283-6.007-5.702-7.58.397-.932-.495-7.017-.394-10.393-2.535 3.955-.798 8.716-1.029 8.469-4.579-4.923-8.992-12.397-13.021-17.203.789-1.546 1.852-1.029 2.684-.471m5.709-52.897c1.585.536 2.28 1.56 4.057 3.299 3.128 1.702 4.625-3.042 7.025-2.669 3.108.482 2.791 5.684 5.601 8.528 2.77 2.309 3.361-4.167 6.76-1.005.537.499.208 6.59 2.207 9.13 1.28 1.626 5.584-2.409 7.325 1.016.85 1.673 1.734 4.295 1.635 6.501-.052 1.168-.429 3.823 1.153 5.816 3.949-.243 4.762 2.245 5.229 3.25 1.442 3.095-1.388 7.141-.628 9.208 2.806 3.388 2.252-.109 4.868 3.223 1.119 3.384-1.715 7.329.334 10.608-3.818 3.782-6.241 8.593-7.806 10.039-.036.004-2.529-7.055-3.1-8.572-.069-.186 3.682-13.059 3.408-13.547-.099-.175-1.356 1.366-4.506 10.098-.668-.594-2.616-5.562-5.284-10.266-.241-.427 4.613-17.296 4.386-17.656s-5.536 15.786-5.788 15.367c-3.082-5.128-6.432-10.031-7.112-10.972.673-1.327 3.394-14.065 3.037-14.198-2.733 2.566-3.782 12.764-3.957 12.571-1.261-1.385-5.776-7.139-6.962-8.893.523-.868.487-7.019 1.057-10.347-3.061 3.563-2.005 8.519-2.198 8.242-3.85-5.511-11.581-12.936-14.901-18.254.993-1.422 3.413-1.183 4.16-.517m-6.902 129.59c1.621-.419 2.926.551 5.365 1.036 3.551-.287 1.716-3.597 3.929-4.597 2.866-1.295 6.595 3.396 10.176 4.899 5.389 1.565 3-2.863 7.574-2.073.723.124 3.121 1.788 6.019 3.972 1.651 1.246 3.687-4.249 7.016-2.334 1.625.936 1.664.348 2.788 2.248.595 1.006 2.717 4.258 5.132 5.06 3.174-2.361 4.395-1.38 5.334-.795 2.899 1.802 3.235 8.052 5.003 9.367 4.201 1.303 3.798-.502 7.81.857 2.691 2.145 3.656 7.508 6.138 9.928-3.053 2.143-6.256 4.384-10.027 6.354-.574-.271-1.136-.54-1.658-.794-1.234-.604-2.238-1.127-2.618-1.404-.16-.117 1.529-11.468 1.033-11.728-.177-.092-2.524 4.517-2.194 10.755-.885-.132-6.054-4.869-10.86-7.349-.434-.224-.335-13.223-.723-13.4-.387-.178-.112 12.299-.551 12.086-5.385-2.607-6.105-2.909-7.188-3.324-.163-1.479-5.837-14.619-6.208-14.534-.884 3.645 4.799 13.74 4.548 13.676-1.813-.469-9.561-4.79-11.514-5.61-.036-1.013-5.073-6.306-6.417-9.406.702 4.495 4.582 8.469 4.312 8.269-6.894-5.139-20.55-6.798-26.238-9.436.051-1.736 3.03-1.874 4.019-1.723m64.19 71.939c3.613-1.875 4.714-.149 4.581-7.16-.06-3.144 5.519-1.787 9.068-3.359 4.837-2.847-2.181-4.372 3.121-7.729.619-.392 7.652-1.344 11.221-1.994 2.639-.48-2.979-7.477 5.301-6.965 1.165.072 5.643 1.512 7.883.306.459-3.929 1.784-3.575 2.853-3.859 3.3-.873 5.58 1.808 7.749 1.424 3.831-2.162.538-1.631 4.279-3.617 2.982-.426 7.417 1.396 10.835 1.736a88 88 0 0 0-4.004 5.093c-4.001 1.609-8.728 2.879-9.901 3.291-.459.163-10.758-1.898-11.154-1.738-.395.159 8.872 2.727 8.416 2.901-5.59 2.129-6.986 3.354-8.03 3.856-1.188-.896-12.938-2.603-13.131-2.274 3.521 2.689 11.813 2.303 11.479 2.895-.917 1.631-7.432 4.691-9.368 5.55-.762-.668-10.568-1.203-13.744-2.353 3.75 2.573 11.757 3.851 11.244 4.126-7.205 3.864-23.813 11.65-30.43 13.07-1.226-1.23.945-2.583 1.732-3.2m73.367-17.686c3.496-.699 5.73-1.4 2.213-4.451-2.375-2.06 4.178-3.136 8.062-3.129 5.576-.634-3.28-6.018 2.927-6.929.724-.105 5.793 2.605 9.359 1.946 2.719-.501-.816-8.041 6.539-4.207 1.035.539 2.61 4.018 5.147 3.826 2.018-3.403 1.721-2.314 2.813-2.138 3.369.544 5.271 5.396 7.408 5.928 4.379-.419.133-.136 4.359-.429 3.428.974 8.687 12.128 12.045 13.196.329 1.769 2.21.701-1.684.437-3.52-3.43-13.5-6.546-14.897-6.658-.486-.038-5.991-8.607-6.417-8.622s3.701 7.688 3.215 7.661c-5.972-.328-6.951-.799-8.11-.763-.72-1.303-6.559-8.32-6.869-8.1 2.123 3.889 5.653 7.589 5.108 7.993-1.501 1.117-6.199.355-8.317.352-.424-.921-5.077-3.579-7.511-5.92 2.379 3.876 5.086 6.481 4.506 6.524-8.153.602-16.613 4.707-22.895 6.381-.617-1.619 2.028-2.654 2.999-2.898m-85.549-82.472c4.567 6.434 4.919.832 7.441 3.018.553.479 2.596 4.461 2.119 8.154 1.15 3.641 4.085.737 5.646 3.59 1.713 3.127-2.074 8.182.288 10.899 2.784 1.721 3.992 2.529 4.175 3.347.744 3.331-.495 4.139.356 6.171 2.294 3.097 2.867.682 5.627 3.896.985 2.589 1.237 8.092 1.839 11.979a55 55 0 0 0-2.93 1.794c-2.907-3.376-7.577-8.901-8.012-9.922-.078-.182 1.403-10.898 1.107-11.374-.105-.17-2.334 4.409-2.599 10.11-.694-.564-2.401-2.181-5.274-6.762-.259-.412 2.172-13.357 2.422-17.324.016-.238-2.257 3.956-3.433 8.463-.916 3.505-.778 7.588-.896 7.411-3.306-4.985-5.744-8.571-6.465-9.479.613-1.355 3.08-13.417 3.046-16.328-2.617 2.687-4.062 14.14-4.202 13.921-3.25-5.028-5.176-8.705-7.167-11.938q.284-.425.579-.852c1.974-2.847 4.14-5.8 6.333-8.774m16.679-122.53c-1.054 2.097-2.722 5.605-2.672 8.09 1.041 3.407 1.21 1.792 2.662 3.739 1.879 2.521-3.316 5.891-3.304 9.891.361 3.587 2.182 1.067 2.393 5.706.033.731-3.383 4.366-3.735 7.579-.225 2.056 5.798 1.653 3.552 4.77-1.289 1.787-4.666 2.712-6.04 6.75-.376 1.107 1.72 4.358 1.454 6.889-2.198 2.955-4.085 4.698-4.454 5.742-1.139 3.218.883 5.329-.021 7.338-.103 1.212-.323 2.109-.699 2.972l-.196.422c-.688 1.382-1.789 2.797-3.449 5.425.339-6.798.951-10.782.761-21.582-.021-1.202 5.515-9.956 5.605-10.374.091-.415-5.005 4.492-4.883 4.019 1.392-5.335.507-5.271.679-6.417 1.41-.478 7.812-10.438 7.65-10.782-3.629 1.244-7.418 5.735-7.409 5.477.07-1.871.999-7.331 1.381-9.414.982-.252 4.78-3.581 6.434-7.729-4.319 1.847-5.8 5.766-5.774 5.43.75-9.766 6.102-20.842 8.785-27.206 1.704-.322 1.817 1.422 1.28 3.265m-22.227-162.62c2.086 4.273 3.708 9.938 2.781 16.066-3.182-3.774-3.293-12.535-2.781-16.066m-32.94 34.85c4.607 1.177 9.692 1.629 9.055 4.23-1.734 1.113-6.696-1.554-9.055-4.23m-17.461 77.91c4.679-.854 16.006-1.234 16.634.547-1.112 1.736-13.372.9-16.634-.547m4.959 141.81c3.438-.294 10.714.642 11.043 1.972-.923 1.176-8.787-.703-11.043-1.972m11.259-41.379c4.424-.377 12.686.742 13.109 2.454-1.188 1.514-10.207-.819-13.109-2.454m-4.825-9.397c4.424-.376 9.807-.781 10.231.93-1.188 1.515-7.329.706-10.231-.93m45.402-24.59c2.527 3.651 5.555 8.12 4.28 9.339-1.904-.277-4.256-6.007-4.28-9.339m-3.739 7.961c2.526 3.65 6.52 13.428 5.246 14.647-1.905-.277-5.222-11.316-5.246-14.647m-4.343 11.46c2.526 3.651 10.379 15.478 9.105 16.696-1.904-.278-9.081-13.365-9.105-16.696m-30.502-124.84c1.679-2.747 5.524-2.294 7.713-.447 3.201 2.7 5.045 7.251 5.417 8.309.78 3.061-3.643 6.241-6.607 5.475-4.477-.604-9.246-7.645-6.523-13.337m-7.758 89.21c1.679-2.746 5.523-2.293 7.713-.447 3.201 2.699 5.045 7.251 5.417 8.309.78 3.061-3.643 6.24-6.608 5.476-4.476-.604-9.244-7.645-6.522-13.338m-.492 133.85c.542-3.173 4.283-4.175 7-3.269 3.972 1.323 7.37 4.869 8.107 5.715 1.856 2.555-1.076 7.146-4.114 7.53-4.381 1.097-11.417-3.68-10.993-9.976m16.661 72.427c-2.23-1.387-1.835-4.52-.314-6.294 2.223-2.593 5.948-4.067 6.813-4.364 2.502-.615 5.067 3.013 4.421 5.427-.521 3.646-6.295 7.491-10.92 5.231m18.282-302.55c4.607 1.177 11.603 2.233 10.965 4.834-1.735 1.113-8.606-2.157-10.965-4.834m-4.421-43.347c2.973 3.712 5.8 8.882 6.241 15.063-3.933-2.983-5.965-11.506-6.241-15.063m-16.997 34.638c4.754.136 6.664.763 11.661 4.428-1.241 3.327-8.771-2.336-11.661-4.428m-3.875 74.611c4.376-1.861 9.45-2.21 15.522-.968.261 3.542-12.023 1.662-15.522.968m-6.1 139c3.29-1.041 10.449.838 14.748 2.157-.057 2.576-12.269-1.412-14.748-2.157m38.296 46.022c3.29-1.041 7.82.673 12.119 1.992-.057 2.575-9.64-1.248-12.119-1.992m-9.04-9.368c3.29-1.041 9.463-2.121 13.926 1.005-.056 2.577-11.446-.261-13.926-1.005m-35.104 44.339c.136-3.447.06-6.992 4.514-10.132 2.404.925-2.973 8.051-4.514 10.132m-5.709-1.728c.095-2.412.042-4.893 3.159-7.09 1.682.649-2.08 5.635-3.159 7.09m13.532-18.462c2.497-2.381 7.565-6.067 12.949-5.223 1.082 2.339-10.395 4.802-12.949 5.223m10.766 7.433c6.189-2.87 7.864-6.917 13.302-7.27 1.567 2.045-9.751 7.779-13.302 7.27m10.191 4.274c1.915-2.871 7.042-3.795 11.986-6.778 2.061 4.347-9.586 5.806-11.986 6.778m14.628 6.245c1.916-2.87 5.234-3.466 9.522-5.463.088 5.497-7.122 4.494-9.522 5.463m39.267 37.979c-.026-3.451 4.769-8.421 7.195-12.48 3.159 4.498-5.754 10.328-7.195 12.48m64.015-15.981c1.12-2.506 5.779-5.881 8.876-8.018.801 4.301-7.123 6.938-8.876 8.018m-57.087 13.595c-.027-3.45 8.63-12.168 11.056-16.228 3.16 4.5-9.616 14.077-11.056 16.228m64.933-12.124c1.121-2.506 7.768-6.862 10.865-8.999.8 4.3-9.111 7.919-10.865 8.999m-52.554 4.515c-.027-3.45 7.722-10.464 10.147-14.524 3.161 4.498-8.706 12.373-10.147 14.524m64.482-4.227c1.12-2.507 5.979-6.157 9.077-8.294.799 4.299-7.324 7.213-9.077 8.294m-144.62-135.53c4.233.523 9.721 1.755 14.999 2.521-3.168 2.959-7.892 1.626-14.999-2.521m20.014-153.06c4.754.136 7.87 2.974 12.868 6.639-1.242 3.327-9.978-4.546-12.868-6.639m-6.246-78.014c2.38 4.117 5.323 13.284 4.829 19.461-3.439-3.541-5.092-15.903-4.829-19.461m-22.8 39.037c4.679.85 9.899 1.526 9.956 4.019-.876 1.742-7.414-1.515-9.956-4.019m-11.634 76.005c4.606-1.181 16.753-1.657 17.846.584-.068 1.948-14.491.629-17.846-.584m-1.225 142.32c3.409-.534 14.161-.288 14.795 1.405-.186 1.403-12.457-.297-14.795-1.405m12.274-39.603c4.387-.688 17.037 2.593 17.853 4.771-.239 1.805-14.844-3.344-17.853-4.771m26.017-149.97c4.679.85 13.518 3.538 13.576 6.029-.877 1.742-11.034-3.525-13.576-6.029m-49.54 254.08c1.978-.99 4.045-1.787 6.606-.977-.63 2.63 6.631 4.399 7.667 4.399 3.488.365-.607 3.774 1.668 6.042-.105 0 1.065 1.582 2.873 1.995 3.453.789 6.658-1.086 7.465 1.293-.134.818.678 3.618 3.379 4.271 4.818 1.17 7.514-2.51 10.87.29.825.606 1.224 3.015 2.564 3.952 2.353 1.648 5.774 1.944 2.484 2.222-2.675.433-5.216-1.698-6.19-4.94-.657-1.424-5.198.742-6.849.789-5.047.744-6.605-1.932-7.741-4.833.256-1.414-3.986.006-6.936-1.066-1.909-.693-2.181-1.595-2.449-2.635-.618-.776-10.177-5.552-10.474-5.447s9.498 5.699 8.915 5.807a28 28 0 0 0-2.94.732c-.951.285-1.887.597-2.837.89-.34.104-8.405-3.213-8.634-3.103-.382.182 7.114 3.794 6.571 3.985-8.398 2.969-15.359 6.953-16.152 6.873-2.395-.236-2.591-4.842 2.692-6.163 2.11-4.011-3.081-3.847-2.111-6.89 1.441-4.767 6.228.025 8.923-1.521 1.969-1.126-1.791-3.672.636-5.965m186.26 56.73 1.817 2.271c1.81-3.611 4.997-6.854 7.495-10.072-3.571 2.14-6.921 4.429-9.312 7.801m.682 3.408c.789-.811-.907-2.089-1.323-2.997-.455.416-.834 1.104-1.289 1.52.28.813 1.126 2.514 2.612 1.477m-63.312-54.692c.543-3.173 4.283-4.175 7-3.269 3.973 1.323 7.37 4.869 8.107 5.714 1.856 2.556-1.075 7.146-4.114 7.531-4.381 1.096-11.416-3.68-10.993-9.976" style="clip-rule:evenodd;fill-rule:evenodd;stroke-width:1.89815" transform="translate(-127.813)scale(.74963)"/>
    <path fill="#902c16" d="M358.99 348.78h-.515c-1.826-2.442-1.88-3.544-1.681-6.173 10.119-9.92 25.325-27.856 25.325-37.913 1.449-17.393-16.043-37.083-32.423-41.917-3.018-1.348-2.8-3.613-2.306-5.255-1.217-.918-1.559-1.311-2.098-1.582-4.863 6.918 7.531 14.81 15.625 32.742-3.017 5.578-20.434 25.529-26.578 39.827s2.559 19.58 4.347 24.264c2.039 5.505 9.598 19.827 13.149 17.637v4.109q.216.084.442.199c-.279-1.46-.702-3.598.022-4.494.724-.898 3.282-.164 3.589-1.739.45-2.302-2.033-7.073-1.909-9.315s2.917-1.68 3.582-1.962c2.424-1.03 1.117-5.323 1.429-8.428" style="clip-rule:evenodd;fill-rule:evenodd;stroke-width:1.89815" transform="translate(-127.813)scale(.74963)"/>
    <path fill="#d82819" d="M340.12 351.47c-4.01-4.836-7.422-12.798-5.676-16.268 7.332-25.131 35.434-42.264 30.67-62.493 6.539 6.249 11.916 14.822 14.967 23.977 2.87 14.002-7.763 25.606-18.008 37.494-8.229 9.549-17.665 19.382-11.2 34.146-7.749-8.041-6.344-7.943-10.753-16.856" style="clip-rule:evenodd;fill-rule:evenodd;stroke-width:1.89815" transform="translate(-127.813)scale(.74963)"/>
    <g fill="#f8f100" style="clip-rule:evenodd;fill-rule:evenodd;stroke-width:1.89815">
      <path d="M379.06 293.61c2.87 14.001-8.354 27.676-18.6 39.563-8.229 9.548-16.542 19.417-11.703 32.999-1.281-1.449-1.125-1.241-2.368-2.781-2.006-13.402 4.657-21.61 12.26-30.547 8.051-9.462 22.324-23.19 19.594-41.149.571 1.152.466.861.817 1.915" style="stroke-width:1.33399" transform="translate(-127.813)scale(.74963)"/>
      <path d="M377.14 289.34c2.87 14.002-7.173 28.859-17.861 40.302-8.603 9.21-16.538 19.85-14.21 31.956-.96-1.591-.878-1.443-1.799-3.306-.824-9.708 7.196-20.47 14.798-29.404 8.052-9.462 20.985-23.504 18.255-41.464.571 1.154.466.862.817 1.916m-42.81 51c2.432-11.834 9.293-21.429 16.472-31.13 9.229-12.472 18.357-23.714 15.678-35.093.845.899.632.704 1.477 1.603 1.345 12.07-7.551 22.444-16.245 34.245-7.202 9.778-14.423 19.738-16.438 33.3-.211-.513-.841-2.328-.944-2.925" style="stroke-width:1.33399" transform="translate(-127.813)scale(.74963)"/>
      <path d="M335.86 344.64c2.406-12.625 9.783-24.347 17.345-34.605 8.845-11.998 17.325-22.765 15.554-33.589.845.899.602.823 1.447 1.721.392 11.607-7.938 21.752-16.39 33.226-7.458 10.124-14.62 21.348-16.875 35.362-.211-.516-.978-1.52-1.081-2.115" style="stroke-width:1.33399" transform="translate(-127.813)scale(.74963)"/>
    </g>
    <path fill="#902c16" d="M334.24 469.86c-.549-5.932 7.68-27.273 20.893-43.857 11.52-14.458 19.304-26.133 18.652-28.959 1.848-.135.709 4.367 2.292 10.698 2.336 9.346 6.253 18.693 6.253 21.103.497 3.707-1.237 10.797-4.888 16.653-5.003 8.027-11.471 16.51-17.257 24.855-6.005 8.662-10.09 16.172-11.192 18.77-1.377-1.093-2.363-5.131-4.715-7.646-4.491-4.8-10.038-8.954-10.038-11.617" style="clip-rule:evenodd;fill-rule:evenodd;stroke-width:1.89815" transform="translate(-127.813)scale(.74963)"/>
    <path fill="#d82819" d="M336.21 469.95c-.5-5.396 8.711-27.455 20.728-42.537 10.476-13.148 17.299-20.695 16.706-23.266 1.68-.123-.194 1.034 1.245 6.792 2.125 8.497 5.477 16.79 5.477 18.981.453 3.371-2.385 10.029-5.704 15.354-4.548 7.299-10.765 15.806-16.026 23.395-5.46 7.876-8.79 14.393-9.791 16.755-1.253-.993-1.996-4.303-4.134-6.589-4.085-4.364-8.501-6.464-8.501-8.885" style="clip-rule:evenodd;fill-rule:evenodd;stroke-width:1.89815" transform="translate(-127.813)scale(.74963)"/>
    <g fill="#f8f100" style="clip-rule:evenodd;fill-rule:evenodd;stroke-width:1.89815">
      <path d="M379.49 426.1c.262.762.198.639.35 1.282.452 3.373-2.456 10.576-5.775 15.902-4.548 7.298-10.766 15.806-16.026 23.395-5.46 7.876-9.26 14.903-10.261 17.265l-.669-1.322c2.591-5.489 5.855-10.136 8.983-15.176 4.805-7.746 11.742-16.196 16.455-24.082 3.438-5.755 5.751-10.835 6.943-17.264" style="stroke-width:1.33399" transform="translate(-127.813)scale(.74963)"/>
      <path d="M378.55 423.26c.265.769.201.645.354 1.295.457 3.4-2.477 10.667-5.825 16.037-4.588 7.362-10.858 15.942-16.165 23.597-5.507 7.944-9.278 15.113-10.289 17.495l-.802-1.41c2.614-5.536 5.972-10.227 9.127-15.313 4.846-7.811 11.843-16.334 16.596-24.288 3.468-5.804 5.802-10.927 7.004-17.413m-41.78 48.48c-.504-6.639 8.993-27.874 21.114-43.087 10.567-13.264 16.933-20.242 16.335-22.835.281 1.524.161 1.639.442 3.164-5.655 9.359-17.036 20.781-22.691 30.076-7.053 11.595-12.843 22.751-14.125 33.582-.596-.481-.243-.157-1.075-.9" style="stroke-width:1.33399" transform="translate(-127.813)scale(.74963)"/>
      <path d="M338.61 473.48c-.487-6.422 8.599-27.162 20.324-41.877 10.221-12.829 16.478-19.381 15.9-21.889.272 1.475.155 1.586.428 3.061-5.47 9.054-16.566 19.599-21.65 28.492-6.514 11.398-13.012 21.449-13.866 33.18-.575-.466-.331-.248-1.136-.967" style="stroke-width:1.33399" transform="translate(-127.813)scale(.74963)"/>
    </g>
    <path fill="#902c16" d="M349.52 528.44c28.434-3.901 36.332-19.844 55.704-20.824 6.292-.737 15.446 3.381 22.628 9.989 7.604 3.91 11.587 6.713 12.082 9.385l.04.019v.293c-2.647-.632-5.392-1.384-7.459-1.089-3.857 2.049-.462 1.499-4.412 3.73-2.237.395-4.587-2.368-7.989-1.47-1.104.293-2.469-.072-2.943 3.98-2.31 1.243-6.927-.241-8.128-.315-3.39-.209-4.521.801-4.822 2.128l.004.003.007.005q.107.079.222.157c-5.097 3.288-10.144 5.458-14.79 8.076-6.791 3.83-12.609 7.39-15.414 6.365-5.839-.78-7.563-5.329-12.753-9.034-2.718-1.939-6.004-2.872-8.072-4.828-3.611-3.416-3.905-5.821-3.905-6.57" style="clip-rule:evenodd;fill-rule:evenodd;stroke-width:1.89815" transform="translate(-127.813)scale(.74963)"/>
    <path fill="#d82819" d="M352.12 530c3.523.391 11.282-3.457 21.067-7.26 14.776-5.741 20.157-13.564 34.246-13.043 3.664.114 7.833.739 12.859 3.688 4.435 2.602 8.538 7.447 13.952 8.936-2.515 0-22.387 4.62-35.016 12.132-10.463 6.225-20.09 12.796-24.592 12.206-7.041-.091-8.514-7.412-13.476-9.271-8.635-3.234-9.04-6.51-9.04-7.388" style="clip-rule:evenodd;fill-rule:evenodd;stroke-width:1.89815" transform="translate(-127.813)scale(.74963)"/>
    <g fill="#f8f100" style="clip-rule:evenodd;fill-rule:evenodd;stroke-width:1.89815">
      <path d="M352.5 531.45c3.524.391 12.41-4.116 22.195-7.919 15.927-6.188 20.587-15.044 41.228-12.243l1.452.531c-6.177-.103-12.971-.647-18.264 1.197-8.371 2.915-15.506 8.219-23.876 11.4-7.265 2.639-15.058 7.137-21.969 8.094-1.017-.774-.206-.03-.766-1.06" style="stroke-width:1.33399" transform="translate(-127.813)scale(.74963)"/>
      <path d="M354 533.31c3.524.391 12.41-4.117 22.195-7.919 15.927-6.188 17.853-14.07 42.639-12.688l1.717.798c-6.177-.103-16.234.238-21.528 2.082-8.371 2.915-13.918 7.512-22.29 10.693-7.264 2.64-14.704 7.136-21.616 8.094-1.015-.775-.558-.031-1.117-1.06m77.24-12.2c-2.515 0-22.301 4.621-34.929 12.132-10.462 6.222-21.352 12.919-25.854 12.329-.745-.476-.685-.44-1.039-.697 11.571-1.516 23.449-12.467 36.296-17.572 7.068-2.809 16.503-5.65 23.764-7.145 1.241.593.583.629 1.762.953" style="stroke-width:1.33399" transform="translate(-127.813)scale(.74963)"/>
      <path d="M429.13 519.49c-2.516 0-22.302 4.622-34.93 12.133-10.463 6.223-21.369 12.919-25.871 12.329-.437-.439-.26-.23-.686-.697 11.571-1.517 23.114-12.466 35.961-17.571 7.068-2.809 16.504-5.65 23.765-7.146 1.24.592.583.629 1.761.952" style="stroke-width:1.33399" transform="translate(-127.813)scale(.74963)"/>
    </g>
    <path fill="#d82819" d="M472.2 513.26c3.755.087 8.366 3.111 14.127 5.516 1.555.648 3.036 1.155 4.439 1.674l-8.029 6.074c-1.444-.751-2.617-2.784-3.372-3.15-7.198-3.483-5.67 4.514-8.139 4.97-3.241.599-8.307-1.905-8.964-1.809-7.764 1.894 1.079 6.509-3.988 7.084-4.354-1.143-10.606 2.639-8.45 4.51 3.195 2.771 1.774 2.684-1.402 3.318-2.881.284-4.313 4.11-3.75 5.583.979 1.996 2.266 3.643 7.986 2.208 1.596-.158 2.461-1.031 3.366-.052.529 1.355-4.516 6.352 3.594 4.888-10.327 12.264-17.002 9.653-26.529 8.021-6.732-1.154-6.752-.169-10.956-1.306 8.305-7.54 10.511-12.055 16.96-22.107 9.679-15.084 23.227-26.398 33.107-25.422" style="clip-rule:evenodd;fill-rule:evenodd;stroke-width:1.89815" transform="translate(-127.813)scale(.74963)"/>
    <g fill="#f8f100" style="clip-rule:evenodd;fill-rule:evenodd;stroke-width:1.89815">
      <path d="m474.01 513.44 2.025.892c-5.63-.237-13.293 2.393-18.459 7.236-3.103 2.909-6.659 6.346-9.847 10.149-2.642 3.15-5.002 6.642-6.903 9.513-4.448 6.718-8.708 14.631-15.326 20.051-.58-.099-1.119.038-1.741-.13 8.304-7.538 10.696-12.237 17.145-22.29 9.677-15.084 23.225-26.396 33.106-25.421" style="stroke-width:1.33399" transform="translate(-127.813)scale(.74963)"/>
      <path d="m477.71 514.92 2.025.893c-5.629-.237-13.941 2.394-18.736 6.22-3.324 2.652-6.937 6.16-10.125 9.964-2.642 3.151-5.002 6.644-6.902 9.515-4.449 6.717-8.708 14.629-15.326 20.049-.58-.098-1.119.04-1.742-.129 8.305-7.539 10.696-12.238 17.145-22.29 11.341-17.304 23.781-25.198 33.661-24.222m-20.9 39.4c-1.432 2.167-2.554 3.39-3.697 4.724a21.7 21.7 0 0 1-3.189 3.094c-.58.27-1.086.474-1.775.605 2.641-2.524 5.397-5.658 7.448-8.722.387.329.76.303 1.213.299m32.58-34.41c-2.939 1.841-5.521 3.614-7.782 5.742-.235-.208-.443-.415-.678-.622 2.056-2.021 4.485-3.844 7.455-5.497zm-2.45-.89c-2.939 1.841-4.678 2.82-6.938 4.948-.235-.208-.444-.416-.679-.623 2.056-2.02 3.643-3.049 6.612-4.702zm-31.98 34.11c-.979 1.482-2.091 2.837-3.238 4.243-1.678 2.056-3.509 4.106-5.744 5.892-.547.103-.754.007-1.443.138 2.141-2.047 4.439-4.477 6.479-6.998 1.915-2.368 3.591-4.82 5.043-6.99-.443 1.564-1.221 2.637-1.097 3.715" style="stroke-width:1.33399" transform="translate(-127.813)scale(.74963)"/>
    </g>
    <path fill="#d82819" d="M370.71 209.42c2.369 0 10.53-5.598 12.266-7.107 0 2.841 3.77 6.293 6.205 10.036 2.753 4.231 3.97 8.305.191 10.968-4.29 3.022-8.417 1.437-10.768-2.016-1.585-2.329-1.986-5.961-3.203-8.229-1.467-2.732-4.691-3.309-4.691-3.652" style="clip-rule:evenodd;fill-rule:evenodd;stroke-width:1.89815" transform="translate(-127.813)scale(.74963)"/>
    <path fill="#f8f100" d="m372.81 208.78.986-.487c1.967 1.255 2.18 1.673 3.749 3.248 1.538 1.982 2.558 7.433 4.255 9.136 1.816 1.902 4.51 2.576 7.401 2.765-.812.511-.352.234-1.245.736-3.112-.062-6.332-1.912-7.451-3.557-1.583-2.327-2.036-5.771-3.402-7.949-1.666-2.652-4.293-3.549-4.293-3.892" style="clip-rule:evenodd;fill-rule:evenodd;stroke-width:1.89815" transform="translate(-127.813)scale(.74963)"/>
    <path fill="#f8f100" d="m374.48 207.94.986-.487c1.967 1.256 2.18 1.674 3.749 3.248 1.538 1.982 2.398 7.233 4.096 8.937 1.816 1.902 4.449 2.329 7.34 2.518-.398.445-.293.353-.799.796-3.113-.062-6.559-1.528-7.677-3.171-1.583-2.326-2.036-5.771-3.402-7.949-1.665-2.653-4.293-3.549-4.293-3.892" style="clip-rule:evenodd;fill-rule:evenodd;stroke-width:1.89815" transform="translate(-127.813)scale(.74963)"/>
    <path fill="#d82819" d="M399.75 179.2c3.479-.823 9.227-.271 14.453 4.42 6.517 5.85 11.879 18.472 17.604 26.355 6.189 8.521 12.542 11.64 13.87 11.64-.323 2.603-3.082 2.311-6.319 4.54-3.361 2.313-6.618 5.194-8.004 6.827-3.04 2.495-10.05-.167-14.468-5.409-5.012-5.947-13.874-23.964-19.742-30.26-7.424-7.964-11.503-3.606-12.918-3.606 3.142-3.264 12.66-11.981 15.524-14.507" style="clip-rule:evenodd;fill-rule:evenodd;stroke-width:1.89815" transform="translate(-127.813)scale(.74963)"/>
    <g fill="#f8f100" style="clip-rule:evenodd;fill-rule:evenodd;stroke-width:1.89815">
      <path d="m386.98 191.01.804-.788c1.256-.167 6.123-2.319 13.32 7.314 3.161 4.276 5.157 7.734 7.752 11.633 2.219 3.333 4.526 7.185 7.821 11.902 6.615 9.724 10.503 10.508 15.647 10.874-.427.429-.327.341-.778.805-3.765-.002-8.804-1.417-13.616-8.06-3.654-5.045-7.025-10.55-10.039-15.229-4-6.21-7.238-11.059-8.354-12.333-6.998-8.875-12.557-5.776-12.557-6.118" style="stroke-width:1.33399" transform="translate(-127.813)scale(.74963)"/>
      <path d="m388.52 189.52.804-.788c1.255-.167 6.123-2.318 13.32 7.314 3.161 4.276 5.157 7.734 7.752 11.633 2.218 3.333 4.525 7.184 7.82 11.902 6.616 9.724 10.503 10.508 15.647 10.874-.427.428-.327.341-.779.805-3.764-.003-8.804-1.417-13.616-8.061-3.654-5.045-7.025-10.55-10.039-15.229-4.001-6.211-7.238-11.059-8.355-12.333-6.995-8.873-12.554-5.774-12.554-6.117m9.46-8.76.811-.696c6.668-.965 13.583 3.284 17.236 8.772 2.218 3.333 9.266 15.361 12.561 20.08 6.615 9.723 11.031 12.716 16.411 14.208-.467.411-.559.427-1.091.778-4.357-1.425-8.458-3.724-13.474-10.717-3.624-5.05-12.403-19.252-15.491-23.88-4.878-7.312-12.282-8.853-16.963-8.545" style="stroke-width:1.33399" transform="translate(-127.813)scale(.74963)"/>
      <path d="m396.58 182.02.811-.697c6.668-.965 13.583 3.285 17.237 8.772 2.218 3.333 9.266 15.361 12.561 20.08 6.615 9.724 10.567 12.582 15.948 14.074-.516.265-.888.317-1.433.607-4.356-1.426-7.652-3.419-12.669-10.412-3.623-5.049-12.402-19.251-15.49-23.88-4.88-7.312-12.284-8.853-16.965-8.544" style="stroke-width:1.33399" transform="translate(-127.813)scale(.74963)"/>
    </g>
    <path fill="#902c16" d="M489.71 367.08c.829 0 1.505.675 1.505 1.504s-.676 1.505-1.505 1.505a1.51 1.51 0 0 1-1.505-1.505c0-.829.676-1.504 1.505-1.504" style="clip-rule:evenodd;fill-rule:evenodd;stroke-width:1.89815" transform="translate(-127.813)scale(.74963)"/>
    <path fill="#9b7d23" d="m457.3 214.94.104-.102-.001-.001c2.663-2.663 8.302-4.393 10.965-7.055 3.424-3.425 3.873-7.783 7.297-11.208l11.392 11.393c-2.997 2.996-8.174 4.358-11.171 7.354-3.091 3.091-4 7.817-7.092 10.908l-.001-.001q-.05.053-.102.104c-3.137 3.138-8.254 3.138-11.392 0s-3.136-8.254.001-11.392" style="clip-rule:evenodd;fill-rule:evenodd;stroke-width:1.89815" transform="translate(-127.813)scale(.74963)"/>
    <path fill="#f2d300" d="m459.58 215.96.092-.091c2.367-2.367 7.03-4.253 9.397-6.621 3.043-3.044 3.792-6.569 6.835-9.612l8.091 8.09c-2.664 2.664-6.925 4.215-9.589 6.878-2.748 2.748-3.896 6.607-6.645 9.355l-.001-.001q-.044.047-.09.092c-2.789 2.789-6.88 3.246-9.108 1.018s-1.77-6.32 1.018-9.108" style="clip-rule:evenodd;fill-rule:evenodd;stroke-width:1.89815" transform="translate(-127.813)scale(.74963)"/>
  </g>
</svg>
