<svg id="flag-icons-ru-kir" class="fi fi-ru-kir" viewBox="0 0 512 512" xmlns="http://www.w3.org/2000/svg" xmlns:xlink="http://www.w3.org/1999/xlink" width="512" height="512" image-rendering="optimizeQuality" shape-rendering="geometricPrecision" version="1.1">
  <metadata id="flag-icons">
    <name>Kirov Oblast</name>
    <code>ru-kir</code>
    <iso>true</iso>
    <type>Place</type>
    <capital>Kirov</capital>
    <continent>Europe</continent>
  </metadata>
  <style id="style50556">
    .O{stroke-linejoin:round}.P{stroke:#fff}.Q{fill:#da251d}.R{stroke:#f8c300}.S{stroke-linecap:round}.T{stroke-width:1.818}.U{stroke-width:1.455}.V{stroke-width:1.091}
  </style>
  <g id="g51131" style="stroke-width:.956831" transform="scale(.85333 1.28)">
    <path id="path50558" fill="#fff" d="M0 0h600v400H0Z" style="stroke-width:.79736"/>
    <path id="path50560" fill="#00923f" d="M0 300h600v100H0Z" style="stroke-width:.79736"/>
    <path id="path50562" fill="#007cc3" d="M0 350h600v50H0Z" style="stroke-width:.79736"/>
  </g>
  <g id="g51126" style="stroke-width:.78125" transform="translate(-128)scale(1.28)">
    <use xlink:href="#B" id="use50564" fill="#0093dd" stroke="#da251d" stroke-width="5.682"/>
    <g id="g50574" class="T">
      <use xlink:href="#B" id="use50566" fill="#f8c300" class="R" style="stroke-width:1.18359"/>
      <g id="g50572" class="O" style="stroke-width:1.42031">
        <path id="path50568" fill="#007cc3" stroke="#007cc3" d="M387.364 59.818c-6 .545-10.545 1.636-15.091 6.909C361.364 68 355.909 74.182 355.364 84c-8.182 5.818-10.909 14.909-8 27.091-9.636 6-13.455 13.636-8.909 23.091l.182 22.364c.727 3.091 2.364 6 4.545 8.909-6.909 10.909-3.818 20.727 9.273 26.727 0 18.727 10.364 24 25.636 23.091 2 2.727 5.091 4.727 9.273 6.182l.182-161.818z" style="stroke-width:1.18359"/>
        <path id="path50570" fill="none" d="M387.364 59.818c-6 .545-10.545 1.636-15.091 6.909C361.364 68 355.909 74.182 355.364 84c-8.182 5.818-10.909 14.909-8 27.091-9.636 6-13.455 13.636-8.909 23.091l.182 22.364c.727 3.091 2.364 6 4.545 8.909-6.909 10.909-3.818 20.727 9.273 26.727 0 18.727 10.364 24 25.636 23.091 2 2.727 5.091 4.727 9.273 6.182" class="P S" style="stroke-width:1.18359"/>
      </g>
    </g>
    <g id="g50580" class="Q U O P">
      <path id="path50576" d="M241.182 72.364c-7.091 1.818-12.364 4.182-16.364 7.455V58.727c4 3.273 9.273 5.636 16.364 7.455-1.818-7.091-4.182-12.364-7.455-16.364h21.091c-3.273 4-5.636 9.273-7.455 16.364 7.091-1.818 12.364-4.182 16.364-7.455v21.091c-4-3.273-9.273-5.636-16.364-7.455 1.818 7.091 4.182 12.364 7.455 16.364h-21.091c3.273-4 5.636-9.273 7.455-16.364z" style="stroke-width:1.13672"/>
      <circle id="circle50578" cx="244.273" cy="44.727" r="4.545" style="stroke-width:1.13672"/>
    </g>
    <g id="g50586" stroke-width="1.09" class="O P Q">
      <circle id="circle50582" cx="-69.208" cy="219.742" r="4.533" style="stroke-width:1.08984" transform="rotate(-90)"/>
      <circle id="circle50584" cx="69.208" cy="-268.689" r="4.533" style="stroke-width:1.08984" transform="rotate(90)"/>
    </g>
    <circle id="circle50588" cx="244.273" cy="93.636" r="4.545" class="O P Q U"/>
    <g id="g50602" fill="none" class="S T O P">
      <path id="path50590" d="M387.364 92c-14.182 1.818-20.727 10.182-16 27.818m-1.637-12.182c-13.455 2-21.273 8-22 20" style="stroke-width:1.42031"/>
      <path id="path50592" d="M382.273 93.091c-1.636-2.727-.909-6.182 2-10m-1.637-4.727c-5.636 4.727-7.818 10-5.273 16.727m-11.999 4.364c-2.182 3.091-2.182 6.182-.364 9.273m-1.818-16.364c-5.455 4.545-7.636 10.182-4.182 18.364m4.545-23.637c-10.364 4.545-13.818 13.273-9.273 26.727m33.092 26.909c-3.636-3.273-4.182-6.545-1.455-9.455m1.455 16.91c-9.455-5.818-12.545-12.545-6-20.727m6 27.272c-15.636-8.727-21.273-19.818-6.727-31.455m6.727 77.273c-26.909-10-28-27.818-4-40.364m-16-39.272c-16.909 14.909-21.636 31.091 2.364 49.818" style="stroke-width:1.42031"/>
      <path id="path50594" d="M374.091 166.364c-10.182-6.364-14.909-14.545-14.182-24m17.455 21.454c-6.364-3.636-9.636-9.818-12.909-15.455m8.727 4.182c1.455 3.091 4 5.273 8 8.727M372.091 176c-1.455 8.364 5.091 13.818 15.091 17.818" style="stroke-width:1.42031"/>
      <path id="path50596" d="M377 178.364c-.182 4.364 3.455 7.455 10.182 9.636m-26-16.364c-6.545-.364-13.636-1.636-18-6.182m16.363 15.455c-3.455-2.909-4.545-6-2.727-9.636m-4.545-.909c-2.545 5.636-.909 10.545 4.727 14.727m-2.182 2.727c-8-5.091-10.727-10.182-6.364-18.727m4.001 23.273c7.091 1.818 13.091.909 19.455-.545M375.545 204c-.545 5.091.182 8.545 2.364 11.455" style="stroke-width:1.42031"/>
      <path id="path50598" d="M364.636 202.182c3.091 3.273 6 5.636 10.909 5.455" style="stroke-width:1.42031"/>
      <path id="path50600" d="M359 200.909c4 7.636 9.636 11.273 16.909 10.545" style="stroke-width:1.42031"/>
    </g>
    <path id="path50604" stroke-width=".995" d="M309.364 132.909h-25.091l-3.636 4.364H273v-15.818c-20.727-18.182 8-31.091 16.909-53.273zm-3.091 14.727 2.182 3.455-18.364 61.091c-8.909-22.182-37.636-35.091-16.909-53.273v-15.818h7.636l3.636 4.364h22zm5.273 5.818c4.182 2.182-.364 5.818 16 2.727l2.364 2.545c7.818-5.273 16.364.545 29.818 2.909-8-9.636-8.909-20-1.455-30.909-8.545-.182-16.182 1.091-21.636 4.909h-11.455c-3.273-2-7.091-3.091-12-3.091l-21.455-70.182c.182-.727.364-1.636.364-2.364 2.727 1.455 5.273 1.636 7.455 0 3.091-2.182 6.182.545 13.636-.727-6.909.364-10.364-2.727-13.818-1.273-3.091 1.273-5.273.545-7.091-1.636 0-1.818 0-3.455-.364-5.455-1.636-10.727-15.636-.727-4.909 2.727 4.909 28.545-49.636 46.182-25.636 70.727v12.727h-24.727c.545-2 1.818-3.818 3.273-5.455-6.909 2.909-15.091 5.636-24.364 8.545 9.273 2.909 17.455 5.636 24.364 8.545q-2.182-2.727-3.273-5.455h24.727V156c-24.182 24.545 30.364 42.182 25.636 70.727-10.727 3.455 3.273 13.273 4.909 2.727.364-1.818.364-3.636.364-5.455 1.818-2.182 4.182-2.909 7.091-1.636 3.455 1.455 7.091-1.636 13.818-1.273-7.455-1.091-10.727 1.455-13.636-.727-2.182-1.636-4.727-1.273-7.455 0-.182-.909-.182-1.636-.364-2.364l19.818-64.727z" class="O P Q"/>
    <g id="g50610" fill="#f8c300" style="stroke-width:.651041">
      <path id="path50606" d="M310.091 137.455c-.364 1.455 3.091 1.636 4.545 1.636 2.909 0 2.727 1.091 4.364 3.273 4.182 5.273 5.273 3.091 6.545 4.727-1.273 1.091-4.182-2.182-4.182 1.818 0 6 7.091 7.273 7.636.545.545-6.364-.727-7.636-4.364-11.455-1.636-1.636-13.273-4.364-14.364-.545zm.364 4.545c-2.909.364-1.273 3.091 1.091 2.545 3.636-.909 6.727-3.455-1.091-2.545m.909 4.545c-2 .909-.545 3.273 2 2 4.182-2 5.273-5.273-2-2m2.727 3.455c-1.636.909-.364 3.273 2 1.636 3.636-2.364 3.091-4.909-2-1.636m3.091 2.727c-1.636 1.273.364 3.091 2 1.091 2-2.545-.364-2.545-2-1.091m31.091-9.818c-.909-5.455 1.636-4 1.818-6.727-10.545.909-12 3.273-7.273 10.364.909-3.818-2.182-4.727 1.455-6.545 0 1.636.545 3.455 1.636 5.091.545-2-.545-4.909.909-5.818.364 1.273.545 2.727 1.455 3.636zm-13.637 6.364c-.182-2.909.182-5.818 1.273-6.909.182 2.182.545 4.182 2 5.273-.182-3.636-.182-5.636.727-6.364-2.182-1.455-3.273-2-4.727-2.182-.909 4.727-.545 8.364.909 10.182z" style="stroke-width:.78125"/>
      <path id="path50608" d="m284.091 138.727-1.273 1.455h23.273l1.273-1.455z" class="O R V"/>
    </g>
    <path id="path50612" fill="none" d="m309 137.091-1.455 1.818m-21.818-1.818-1.455 1.818m4.909-1.818-1.455 1.818m4.909-1.818-1.455 1.818m4.909-1.818-1.455 1.818m4.909-1.818-1.455 1.818m4.909-1.818-1.455 1.818m4.909-1.818L305 138.909" class="O R S V"/>
  </g>
  <defs id="defs50615">
    <path id="B" d="M300.273 262.727C301.545 252.182 310.455 244 321.364 244l44.545-1.091a21.185 21.185 0 0 0 21.273-21.273V37.273H212.818v184.364c0 11.818 9.818 21.273 21.455 21.273l44.545 1.09c10.909 0 20 8.182 21.273 18.727z"/>
  </defs>
</svg>
