<svg id="flag-icons-ru-yar" class="fi fi-ru-yar" viewBox="0 0 512 512" xmlns="http://www.w3.org/2000/svg" xml:space="preserve" width="512" height="512">
  <metadata id="flag-icons">
    <name>Yaroslavl Oblast</name>
    <code>ru-yar</code>
    <iso>true</iso>
    <type>Place</type>
    <capital>Yaroslavl</capital>
    <continent>Europe</continent>
  </metadata>
  <path d="M0 0h512v512H0z" style="fill:#ffcb00;fill-opacity:1;fill-rule:evenodd;stroke-width:.999996"/>
  <g style="stroke-width:1.47154">
    <path fill="#1d1d1b" fill-rule="evenodd" d="M394.806 489.828v.004l3.314-3.814 1.667 12.777 2.958-4.082 2.789 12.615 2.659-4.451c.977 3.619 3.931 10.859 1.016 12.076-9.133 2.963-21.225 7.701-23.622 11.627-4.874.98-10.909 3.793-12.328 7.768 3.24-1.529 6.023-2.34 9.646-2.645l.361.91c-4.393 1.139-8.389 4.164-9.754 7.434 2.705-1.023 7.393-3.023 10.892-3.244l.66.986c-4.338 1.377-7.727 4.654-9.057 7.49 3.654-1.025 7.615-3.182 11.598-3.807l.9.717c-4.094 1.723-6.239 3.738-7.965 6.631 3.951-.992 7.505-2.303 11.494-2.957.521.352 3.822.063 4.535-.021l44.022-5.152c2.657-.313 7.731.064 8.453-4.553.449-2.869.807-5.459.804-7.93l-.02-28.557 3.507 4.732.009-37.717 2.76-7.711c3.402 14.004 7.854 23.457 14.385 37.959l.066.174.021-.051q.015.026.031.049l.047-.234 2.125-5.09 6.494 12.619 1.543-5.58 7.943 11.869.75-5.113c2.324 3.729 6.887 12.729 4.488 13.65-8.014 3.086-18.861 5.965-24.615 12.932-4.471.965-9.871 3.785-10.977 7.787 3.219-1.531 5.629-2.299 9.717-2.955q.14.463.283.926c-4.33 1.365-8.404 4.242-9.578 7.639 2.637-1.17 7.191-2.928 11.189-3.365.125.277.25.553.383.828-4.254 1.605-7.982 4.523-9.369 7.492 3.623-1.014 7.912-2.877 12.105-3.523.191.285.635.566.838.852-3.881 1.77-6.494 3.152-7.965 6.172 4.201-1.225 8.75-2.301 12.109-2.928 1.613.336 4.188.322 5.463.15l45.518-6.057c2.67-.354 6.012-1.207 6.518-5.086.332-2.553.264-5.488-.018-8.646l-3.35-27.854 4.408 4.094-7.137-40.752.043-45.891 5.9 4.742.775-64.02.066-23.045c.016-5.723-.457-11.75-3.213-24.066-1.168-5.217-5.23-23.824-7.885-26.901l-1.1-33.424 4.588 1.731-1.252-14.739 4.219 1.873-2.559-14.637 4.439 1.548-3.102-14.446 4.639 1.2-4.135-13.763 5.215 1.441c-3.596-14.992-8.922-28.986-15.195-41.269l43.186-31.136c.936.63 2.137.689 3.02.051l.469-.336c.641-.461.988-1.194 1.016-1.976l2.334-1.811a46 46 0 0 1 2.701 6.13 32 32 0 0 1 1.227 4.806c.24 1.548.357 3.07.373 4.634a34 34 0 0 1-.32 4.537 28 28 0 0 1-1.488 5.546 37 37 0 0 1-.75 1.731 38 38 0 0 1-2.236 3.936c-2.127 3.187-3.271 4.463-5.73 7.383 1.822.13 2.803-.023 4.533-.417.668-.15 1.697-.484 2.355-.771a34 34 0 0 0 3.701-2.039 45 45 0 0 0 3.357-2.455 37 37 0 0 0 3.172-2.962 36 36 0 0 0 2.637-3.264 36 36 0 0 0 2.43-4.148 42 42 0 0 0 1.33-3.162 43 43 0 0 0 1.334-4.665c.377-1.812.646-3.611.82-5.458a44.4 44.4 0 0 0-.029-7.099 60 60 0 0 0-.291-2.341 46 46 0 0 0-1.232-5.393 51 51 0 0 0-1.359-3.778q-.57-1.337-1.17-2.662l2.557-1.983c.947.689 2.201.773 3.113.116l.469-.338c.965-.696 1.264-2.013.807-3.179l.617-.48a7.79 7.79 0 0 0 7.014-1.064 7.8 7.8 0 0 0 3.141-7.482l2.406-2.181c2.047.014 4.092.152 6.119.475 1.611.273 3.156.64 4.746 1.044l27.588-33.152-40.184 15.673-.166 2.221c-.273 2.644-.799 5.182-1.551 7.726q-.136.419-.273.833l-2.84 1.595c-2.518-1.279-5.646-1.146-8.088.612a7.78 7.78 0 0 0-3.23 6.287l-.641.426c-.967-.878-2.371-1.048-3.371-.328l-.469.337c-.941.68-1.248 1.951-.838 3.095l-1.129.749a184 184 0 0 1-1.959-4.349 38 38 0 0 1-1.77-5.327 40 40 0 0 1-.895-5.486c-.191-2.487-.184-4.946.088-7.432l.281-1.743c.252-1.179.553-2.314.914-3.467a42 42 0 0 1 1.35-3.388 44 44 0 0 1 1.736-3.254 43 43 0 0 1 2.645-3.783 53 53 0 0 1 1.805-2.077 41 41 0 0 1 3.303-3.06c2.447-1.914 6.803-4.782 9.459-5.734l-3.244-1.417a58.8 58.8 0 0 0-23.58-4.908c-32.563 0-58.973 26.409-58.973 58.973 0 2.968.309 5.816.73 8.744 3.047-2.949 5.914-5.794 9.629-7.914a34 34 0 0 1 6.242-2.682 35 35 0 0 1 5.682-1.194 37.4 37.4 0 0 1 8.438-.014l1.57.233c1.572.29 3.084.665 4.609 1.142 1.004.34 1.98.711 2.955 1.126a39 39 0 0 1 3.518 1.802 35 35 0 0 1 4.475 3.233 38 38 0 0 1 2.049 1.96c.502.529.986 1.068 1.461 1.614l-2.705 1.795c-.758-.232-1.578-.14-2.227.327l-.469.337c-.895.644-1.215 1.82-.896 2.917l-42.184 30.413a149 149 0 0 0-7.779-11.961l4.361.147-6.865-9.809 4.238-.19-7.59-7.563 4.213-.533-7.969-7.492 4.154-.873c-7.688-10.333-18.254-21.193-25.184-25.983.018-.01.031-.022.047-.033 0 0 3.227-1.557 3.33-4.068s-3.1-6.677-6.59-9.185c-3.646-2.618-7.326-2.953-9.139-1.98-1 .537-2.012 1.758-2.871 3.21-1.969-1.357-3.922-2.56-6.127-3.477l-.396-.244q-.68-.251-1.348-.401a24 24 0 0 0-4.671-.998 62 62 0 0 0-6.104-.369c-9.228-.126-20.028 1.438-29.737 3.849-3.452.858-9.657 6.429-9.75 6.43l-24.494 1.827c-5.462-.205-3.442 5.539-2.865 9.568.399 2.772.891 6 .891 6 9.946 3.147 15.33 5.132 18.403 8.115.427 1.078.318 3.259.051 3.888-2.464-1.191-9.224-4.19-15.266-4.075-.652.076.207 3.187 1.021 6.181.635 1.979 3.582 4.107 7.345 7.157 9.39 7.609 13.504 21.207 15.166 28.054l-.002.039.01-.01.001.002.001-.004 2.742-2.667.583 9.802 2.394-3.005 1.814 9.649 1.967-3.152 3.977 8.937.001 12.469c-3.34.105-6.671.137-9.743.072-8.213-.174-12.548-.232-18.273-5.976l-31.452-31.545c-2.252-2.26-5.939-6.972-12.039-10.004l-21.718-10.798c-4.887-2.431-10.399-4.505-15.989-3.635-5.526-1.674-10.888-2.92-13.671-.205 3.38.716 6.507 1.648 9.614 2.773q-.595.587-1.107 1.221c-5.368-.236-11.409-.895-13.313 2.239 3.917-.168 7.501.507 11.334 1.176q-.319.846-.488 1.726c-4.75.196-9.524.492-10.923 3.357 3.631-.492 7.044-.224 10.641.072a46 46 0 0 0-.036 1.888c-4.555.618-9.016 1.395-10.11 4.278 3.473-.799 6.803-.862 10.302-.896q.133 1.042.375 1.911c-3.643.941-6.816 2.174-7.509 4.661 3.081-1.014 6.1-1.408 9.24-1.738q.064.05.131.097c12.299 8.625 21.561 26.342 32.667 30.979l3.197 4.651-6.935.917 11.021 10.729-6.328 1.114 11.467 10.248-6.273 1.382 11.893 9.751-6.209 1.649 12.783 9.6-6.358 1.994 24.104 16.48-34.396 8.471c-13.329 3.283-18.222 7.626-22.403 13.362l-19.565 26.833c-5.073 6.957-7.138 11.317-7.652 17.484a5.9 5.9 0 0 0-.104 2.131c-.75 1.916-1.434 3.816-1.751 5.523l-29.948 21.592-.589.625-.361.883-.077.852.096.779.208.729.29.688.772 1.289.979 1.139.563.492.626.428.711.338.831.193.948-.063.78-.361 30.088-21.693c.228.443.523.836.903 1.16q.128-1.041.325-2.045l3.847-2.775c-.026 2.605.413 4.797 1.988 5.918.084-2.881.612-5.547 1.259-8.26l2.006-1.445.387-.025c-.117 4.449-.002 8.754 2.583 10.26-.23-3.701.299-7.121.861-10.732.6-.123 1.214-.282 1.802-.486.286 4.648.715 9.258 3.548 10.574-.673-4.346-.246-8.396.001-12.825 8.619-7.166 18.526-12.062 25.881-20.653l5.367-1.316-2.405 5.834 14.619-4.08-2.194 5.953 14.434-4.69-1.941 6.041 14.027-5.221-.342 1.496-1.142 4.518 20.284-3.924.319.058c-2.093 20.366-3.32 38.335-4.034 59.505l.001-.002 3.972-1.666-2.706 11.467 3.756-1.877-1.654 11.727 3.405-2.154c.201 1.65.372 9.766 1.141 15.746l-13.677 29.102c-5.295 11.268-7.548 29.756-6.148 43.936 2.529 13.95 3.1 16.011 5.843 27.059" clip-rule="evenodd" style="stroke-width:.494075" transform="translate(-52.019 50.197)scale(.67956)"/>
    <path fill="#fff" fill-rule="evenodd" d="M577.744 159.65c-2.719 2.215-5.779 4.152-9.152 5.208 5.115-6.225 8.273-12.095 8.516-20.178.188-6.275-1.271-11.173-4.094-16.75a48 48 0 0 0-.539-1.035l12.592-9.76.367.798c3.506 7.599 4.391 15.654 2.76 23.819-1.406 7.051-4.642 13.173-10.45 17.898m-62.45-43.947a58 58 0 0 1-.221-5.023c0-31.591 25.619-57.211 57.209-57.211 8.135 0 15.869 1.7 22.875 4.761-1.83 1.029-3.594 2.044-4.225 2.466-8.15 5.445-14.521 15.467-15.07 25.404-.355 6.427.652 12.514 3.354 18.366l2.355 5.1 4.154-2.758-.482-.664c-.27-.457-.412-.808-.193-1.323.193-.275.494-.461.785-.626.445-.133.758.019 1.109.298l.738 1.017 2.803-1.86a6.08 6.08 0 0 1 2.461-5.778c2.154-1.552 5.002-1.479 7.061-.023l4.283-2.405q.258-.747.494-1.498c.91-3.02 1.512-6.094 1.711-9.25l32.984-12.865-22.648 27.214a41 41 0 0 0-4.395-.896 44 44 0 0 0-4.006-.367l19.176-17.398-12.387 8.927-9.283 8.423-3.635 3.298c.73 2.415-.102 5.139-2.258 6.693a6.08 6.08 0 0 1-6.279.495l-2.631 2.039.463.639c.271.458.414.813.195 1.325-.195.278-.498.463-.789.626-.447.133-.756-.022-1.104-.299l-.621-.853-4.469 3.465h-.002l-13.17 10.216-.002-.001-4.748 3.682c.17.345.23.654.053 1.066-.193.277-.498.463-.785.626-.449.134-.758-.021-1.105-.297l-4.656-6.407c-.27-.458-.412-.81-.193-1.324.193-.275.492-.461.785-.625.447-.134.758.019 1.107.297l.047.063 5.188-3.442a46 46 0 0 0-3.1-3.512c-6.264-6.405-15.123-9.921-24.031-9.928-5.682-.003-10.889 1.107-15.971 3.671a32.4 32.4 0 0 0-6.41 4.264c-.357.302-1.386 1.198-2.521 2.192m-98.661-30.697-2.255 1.581 1.326 2.719a66 66 0 0 0-3.684-.22c.1-3.718 2.292-4.457 4.613-4.08m.109.005c1.424.229 2.844.878 3.804 1.511 1.714 1.134 2.731 2.536 4.405 4.965-3.365-1.167-5.512-1.776-8.289-2.101z" clip-rule="evenodd" style="stroke-width:.494075" transform="translate(-52.019 50.197)scale(.67956)"/>
    <path fill="#e20613" d="m267.557 343.901 30.412-21.928c-.33-2.086.131-4.776.711-7.523a28 28 0 0 1-.919-.389l-2.694 1.941a33 33 0 0 0-1.746 4.549c-.598-.715-.877-1.607-.928-2.621l-28.664 20.666c-1.768 1.275 2.06 6.58 3.828 5.305m32.735-23.602 3.379-2.437a59 59 0 0 1 .192-1.919q-1.031-.171-2.05-.44c-.556 1.605-1.086 3.183-1.521 4.796m127.67-92.051 135.111-97.413-3.846-5.292-150.067 108.2z" style="stroke-width:.494075" transform="translate(-52.019 50.197)scale(.67956)"/>
    <path fill="#f2987a" fill-rule="evenodd" d="M560.747 127.635 416.381 231.633l-4.932 1.441L559.738 126.25zM298.234 316.746l-4.81 3.465c.306-.99.66-1.941 1.049-2.865l4.087-2.945.12.049a63 63 0 0 0-.446 2.296m-5.044 3.635-27.697 19.953-1.002-1.389 28.007-20.178c.12.598.343 1.141.692 1.614" clip-rule="evenodd" style="stroke-width:.494075" transform="translate(-52.019 50.197)scale(.67956)"/>
    <path fill="#868686" fill-rule="evenodd" d="m434.804 151.536 2.071-5.243-1.96.801zm-44.331 375.855 4.446-1.074-1.448-.926zm-59.424-264.954 3.237-1.521-1.254-.481zm-12.941 14.055 3.26-2.854-1.622-.141zm3.331 4.092 3.629-3.333-1.848-.116zm102.182 121.205-.103-4.346-1.152 1.158zm2.653-252.366.989-4.475-1.47.895zm13.67-9.335.45-4.561-1.353 1.063zm3.111-13.659-1.046-4.462-.938 1.442zm10.489 6.725-1.047-4.462-.937 1.444zm8.772-27.555-2.039-4.106-.582 1.619zm-2.844 16.081-1.293-4.398-.855 1.494zm-10.14 22.688.499-5.414-1.596 1.272zm-17.515 41.713 2.823-5.179-2.138.582zm9.615-9.202 2.176-4.035-1.66.459zm-8.955 1.791 2.175-4.035-1.66.46zm-8.404 1.378 2.173-4.036-1.659.459zm-100.125 88.284 3.258-2.855-1.621-.14zm135.219 38.451 3.539-9.51-3.496 1.516zm23.909-14.694 2.301-6.186-2.275.985zm-6.161 6.595 2.625-7.054-2.594 1.124zm-102.414-22.99 4.328-.816-1.381-.738zm53.195-32.183 4.376-1.365-1.509-.831zm-42.954 38.368 4.375-1.365-1.509-.831zm21.925 1.402 4.376-1.365-1.509-.83zm-36.709-24.041 4.328-.817-1.383-.736zm51.099-5.258 4.376-1.366-1.509-.829zm8.863 8.715 4.375-1.365-1.509-.832zm-15.706 2.354 4.375-1.366-1.508-.83zm-7.679-8.795 4.376-1.365-1.509-.83zm-13.635-.631 4.376-1.365-1.509-.83zM361.201 267.8l4.329-.815-1.382-.738zm25.453 1.015 4.376-1.366-1.509-.83zm15.224 3.38 4.376-1.365-1.509-.831zm-23.946-22.689 4.376-1.365-1.51-.83zm45.566 24.773 4.375-1.365-1.508-.831zm-10.342-31.528 4.375-1.365-1.507-.831zm-13.138 3.336 4.375-1.365-1.509-.83zm35.7 32.112 4.376-1.366-1.51-.831zm40.658-101.845 3.82-2.536-1.682-.375zm-27.544 10.245 4.685-6.426-2.958.402zm-23.099 4.942 3.603-6.61-2.727.744zm-4.278-1.409 3.258-6.788-2.685.883zm5.678-7.219 2.823-5.181-2.137.583zm16.676 1.638 4.026-6.361-2.771.563zm32.778-16.056 3.82-2.535-1.68-.375zm9.17-6.877 4.148-1.953-1.609-.616zm-23.49 9.417 2.889-3.561-1.717.144zm21.496-1.671 4.146-1.953-1.609-.617zm-13.23-1.236 3.818-2.535-1.68-.377zm-33.484 17.436 4.026-6.361-2.771.563zm-3.157 9.3 4.025-6.361-2.769.564zm23.656-17.072 3.217-3.267-1.723-.022zm-2.57 10.816 3.158-4.984-2.172.441zm13.557-13.567 3.215-3.266-1.723-.023zm-.336 6.747 3.822-2.53-1.68-.378zm-18.206-4.459 3.154-4.984-2.171.441zm-26.069 39.918 3.602-6.611-2.727.744zm.387-8.637 4.854-8.911-3.676 1.003zm14.949-15.893 4.027-6.361-2.772.563zm24.136-60.283-1.293-4.397-.855 1.493zm23.051-2.927-1.82-6.156-1.193 2.094zm-3.536 27.244-.32-8.647-2.258 2.337zm-29.852-7.407 1.344-5.27-1.777 1.006zm22.118-49.651-2.037-4.105-.582 1.619zm-7.428 25.832-1.291-4.397-.857 1.494zm7.577 33.509-.32-8.647-2.258 2.336zm-13.809 4.354 1.309-8.553-2.656 1.87zm8.424-47.172-1.568-4.307-.76 1.545zm-60.251 187.93 1.966-5.285-1.943.841zm104.63 162.112-.051-4.346-1.162 1.146zm-12.875 14.629-.049-4.348-1.164 1.146zm-7.998-14.826-.072-6.445-1.725 1.697zm-22.473 1.551-.053-4.705-1.262 1.24zm25.609 8.73.057-5.715-1.563 1.473zm-.746-28.902.869-5.568-1.736 1.213zm-6.457-52.096 2.574-6.668-2.477 1.039zm15.293-.105 1.652-4.275-1.588.664zm-3.004-16.415 1.652-4.277-1.588.664zm-2.162-238.269-.816-4.51-1.01 1.395zm-16.896-20.844-1.637-4.28-.732 1.557zm6.24 30.262-.891-7.475-1.793 2.186zm-21.922-9.293-.584-5.405-1.314 1.564zm4.588-4.478-.688-6.34-1.537 1.834zm6.549-23.437-1.637-4.28-.734 1.556zm-23.633 46.395 1.861-7.295-2.461 1.393zm-6.308-.371 1.883-6.136-2.151 1.085zm-3.366-6.27 1.345-5.27-1.777 1.006zm15.305-9.997-.201-5.435-1.418 1.468zm-40.557 16.295 1.981-4.133-1.636.538zm52.127-51.072-1.637-4.282-.734 1.556zm11.695 1.582-2.037-4.105-.584 1.618zm6.45 11.928-1.5-4.33-.785 1.533zm4.904 9.555-1.277-4.401-.861 1.49zm-18.729-5.125-1.465-6.249-1.311 2.022zm14.715 13.091-1.439-7.388-1.625 2.312zm4.325 8.966-.607-7.503-1.873 2.117zm-14.315-12.416-1.467-6.249-1.313 2.022zm-4.598 11.97-1.029-8.592-2.057 2.514zm-7.023 16.936.377-8.645-2.439 2.148zm-.494-12.162-.322-8.646-2.258 2.335zm-6.807 1.49.375-8.646-2.438 2.147zm-24.317 5.56 2.358-5.97-2.23.914zm.018 10.128 2.766-7.002-2.615 1.07zm-5.908-1.464 2.072-5.245-1.959.804zm-2.784-6.77 2.073-5.244-1.96.804zm-5.53 6.638 2.072-5.244-1.96.802zm24.362 1.047 1.863-7.296-2.462 1.394zm6.956-.424 2.096-8.217-2.77 1.569zm29.111-22.641-1.25-7.422-1.686 2.269zm-40.3 17.668 1.586-6.221-2.096 1.187zm9.424 144.182 2.625-7.057-2.594 1.125zm-15.055-1.12 2.625-7.057-2.595 1.126zm-14.646-.913 2.624-7.055-2.594 1.123zm-7.795.65 2.624-7.055-2.594 1.123zm-74.58-48.883 5.709-1-1.806-.994zm-5.581 7.374 6.393-2.078-2.226-1.192zm1.437 8.206 6.394-2.079-2.226-1.191zm94.083 32.347 2.625-7.057-2.594 1.126zm15.391-.578 2.626-7.055-2.596 1.125zm23.704 88.552 2.711-7.021-2.609 1.092zm27.711-18.505 1.652-4.277-1.588.664zm-53.557-25.536 1.594-7.357-2.406 1.482zm12.356.53 1.594-7.357-2.406 1.482zm-37.456 149.209.85-4.264-1.375.877zm-7.52-183.285 2.624-7.055-2.594 1.122zm2.349 32.255 1.966-5.283-1.943.842zm8.945-6.474 3.54-9.512-3.497 1.516zm35.518-17.758 2.625-7.055-2.594 1.123zm-3.599 37.592.711-5.695-1.729 1.291zm-7.767 6.726.712-5.691-1.729 1.289zm9.538 3.819.713-5.693-1.727 1.289zm-129.683-98.246 5.183-3.476-2.29-.5zm-2.008 11.778 2.634-2.418-1.341-.084zm13.403-6.586 3.237-1.521-1.254-.482zm-7.895-.031 4.222-2.542-1.787-.482zm-14.4 8.159 3.63-3.333-1.848-.117zm-3.585-4.026 3.369-3.094-1.715-.107zm43.392-24.094 4.393-1.309-1.498-.85zm90.077-57.243 2.175-4.035-1.659.459zm14.894-11.064 2.965-3.496-1.719.104zm-7.661 7.051 2.175-4.036-1.66.459zm8.271-13.882 4.121-4.222-2.215-.018zm-43.351 37.643 3.259-6.786-2.686.881zm1.014-9.51 3.258-6.787-2.683.881zm12.305-5.017 4.197-9.24-3.596 1.268zm-3.22-9.297 4.855-8.91-3.676 1.002zm5.891 14.293 3.113-6.854-2.666.939zm6.909-5.897 3.113-6.854-2.666.939zm8.508-10.658 3.156-4.985-2.173.441zm-11.771 6.831 3.114-6.854-2.668.939zm5.77-5.976 4.255-6.718-2.927.595zm-22.841 5.023 3.258-6.787-2.683.882zm69.915 84.134 2.152-5.79-2.129.921zm-5.764 14.863 2.154-5.79-2.129.921zm-5.41 10.988 2.625-7.057-2.594 1.127zm-1.893 14.621 2.623-7.057-2.594 1.125zm-4.957-6.459 2.625-7.056-2.594 1.126zm-14.295-4.163 2.625-7.055-2.596 1.124zm8.99-10.87 2.313-6.216-2.285.992zm11.432 111.549 3.654-9.467-3.514 1.471zm6.762 62.027-.072-6.445-1.727 1.695zm-5.006 1.482-.072-6.447-1.727 1.699zm1.113-7.787-.074-6.445-1.725 1.695zm-5.75 1.668-.072-6.445-1.727 1.697zm.928-7.603-.07-6.445-1.729 1.697zm9.562 1.133-.076-6.445-1.725 1.697zm-9.158-11.243.617-7.502-2.193 1.785zm-5.748 2.227.615-7.502-2.191 1.783zm14.649-32.195 2.711-7.023-2.607 1.094zm-19.418 17.593 1.201-7.43-2.324 1.607zm-5.563-3.521 1.203-7.432-2.326 1.607zm-5.623-3.93 2.033-5.262-1.953.82zm-.183-9.642 2.031-5.26-1.955.818zm11.568-14.475 3.656-9.467-3.516 1.471zm1.851 7.602 3.658-9.467-3.514 1.473zm-4.738 16.013 2.713-7.023-2.609 1.094zm5.854 1.602 3.656-9.467-3.516 1.473zm-2.227-7.047 3.658-9.465-3.518 1.471zm5.194-7.045 3.656-9.467-3.516 1.473zm1.853-12.238 3.656-9.465-3.516 1.471zm-12.006 4.83 2.715-7.023-2.609 1.092zm-41.363-60.24 2.625-7.055-2.593 1.125zm30.896-25.549 2.624-7.055-2.592 1.123zm-4.476-14.629 3.54-9.51-3.499 1.515zm-5.945 7.267 3.538-9.512-3.497 1.518zm-6.006-1.287 3.539-9.51-3.498 1.516zm-19.37 8.698 2.625-7.059-2.595 1.123zm29.907 8.355 2.623-7.057-2.593 1.123zm-7.19 3.727 2.624-7.057-2.595 1.125zm33.539-31.799 2.627-7.056-2.598 1.126zm-6.964 3.216 2.625-7.057-2.592 1.126zm-53.181 29.575 1.966-5.285-1.943.844zm-5.222-5.188 1.965-5.285-1.943.842zm25.494 11.391 3.135-8.424-3.096 1.344zm1.934-17.535 3.54-9.51-3.496 1.518zm-6.763 1.338 3.539-9.51-3.498 1.516zm-5.105-3.795 3.54-9.512-3.497 1.518zm5.9-8.045 3.539-9.51-3.496 1.515zm-8.527 1.111 3.538-9.509-3.496 1.515zm14.245 91.045-1.489-4.086-.72 1.467zm10.144 3.121-1.488-4.084-.72 1.465zm4.986-12.281-.102-4.346-1.151 1.158zm-19.666-9.516-.103-4.346-1.152 1.158zm-21.963-42.859 1.21-5.586-1.826 1.127zm64.983 11.144 1.133-5.227-1.711 1.053zm-36.25 30.073.712-5.693-1.729 1.289zm29.428-16.737.713-5.693-1.729 1.289zm-9.211 12.514.713-5.693-1.727 1.289zm-9.557 3.268.712-5.693-1.729 1.287zm-6.615 13.439-.559-5.709-1.402 1.637zm-7.018-20.558.712-5.695-1.727 1.288zm15.5-7.754.712-5.693-1.729 1.287zm-7.407 6.617.712-5.693-1.728 1.289zm35.271-9.797 1.133-5.227-1.711 1.053zm-13.121-9.893 1.135-5.227-1.711 1.055zm.242-10.386 1.592-7.354-2.406 1.479zm1.625-11.784 2.268-6.094-2.242.971zm-13.122-1.627 2.625-7.055-2.594 1.123zm15.351-10.955 1.965-5.285-1.943.844zm-8.209 6.995 2.625-7.057-2.596 1.127zm5.806-12.897 2.625-7.055-2.594 1.125zm27.26-17.733 1.596-4.294-1.578.684zm-41.896 14.946 3.537-9.512-3.494 1.518zm47.802 14.715 1.598-4.297-1.578.686zm3.229-15.348 1.6-4.295-1.58.686zm-8.477 39.184 1.6-4.297-1.58.686zm-72.889 17.099.711-5.691-1.727 1.287zm66.083-45.757 1.596-4.297-1.58.686zm.98 13.753 1.6-4.297-1.582.684zm-14.885-7.427 1.598-4.297-1.578.684zm8.571 20.537 1.598-4.293-1.578.684zm-7.073-8.83 1.596-4.295-1.578.684zm-63.005-13.973 2.625-7.055-2.595 1.121zm20.048 68.912-.104-4.344-1.15 1.156zm-20.483-43.707 1.209-5.582-1.826 1.123zm5.278-3.285 1.21-5.584-1.826 1.123zm2.012 10.184 1.21-5.584-1.826 1.125zm-6.265 5.773 1.17-4.557-1.539.869zm4.065 11.615-.111-4.703-1.245 1.254zm6.654 8.653-.11-4.703-1.246 1.254zm3.605-8.153-.113-4.703-1.244 1.254zm-.025-13.258.712-5.693-1.728 1.287zm10.477 4.594 1.676-5.488-1.923.975zm-6.93-36.095 2.624-7.057-2.595 1.127zm-5.859 22.662 1.593-7.355-2.407 1.482zm9.726 6.601 1.36-7.404-2.358 1.559zm7.942-5.861 1.595-7.357-2.406 1.482zm7.243-7.809 1.594-7.355-2.406 1.482zm-11.879.963 1.594-7.357-2.406 1.48zm-7.067 2.77 1.594-7.355-2.406 1.479zm-3.921-9.821 2.623-7.055-2.592 1.125zm-18.696-23.382 1.965-5.283-1.943.842zm72.641 12.492 1.6-4.295-1.58.684zm-61.487-25.03 2.624-7.055-2.594 1.124zm-4.291 10.125 2.624-7.057-2.594 1.125zm32.407 4.27 2.624-7.057-2.595 1.125zm-5.773 3.973 2.625-7.057-2.594 1.127zm-5.115 4.978 2.624-7.057-2.592 1.125zm-17.821.637 2.624-7.057-2.594 1.125zm.981 8.363 2.624-7.055-2.592 1.125zm67.136-30.502 1.6-4.295-1.578.686zm-52.582-1.596 3.54-9.512-3.497 1.517zm7.916-1.234 3.538-9.511-3.496 1.517zm-15.574 3.192 3.539-9.512-3.496 1.517zm67.765-21.409 1.6-4.295-1.582.684zm-64.84 85.416.712-5.693-1.727 1.289zm85.438 137.151-.049-4.348-1.164 1.145zm-8.512-2.032-.049-4.346-1.166 1.143zm14.256-5.13-.047-4.346-1.166 1.146zm-52.172-44.375.783-5.686-1.744 1.268zm40.422-7.055 1.65-4.275-1.588.664zm-2.183 15.314-.049-4.348-1.166 1.146zm-21.721 14.311-.074-6.445-1.725 1.695zm17.082 2.057-.051-4.346-1.166 1.146zm-11.276-84.114 2.576-6.67-2.477 1.037zm10.485 61.84 1.279-5.566-1.84 1.102zm5.019-19.959.744-4.76-1.484 1.037zm-5.689 10.092.867-5.572-1.732 1.215zm17.476 33.824-.049-4.346-1.166 1.143zm-5.322-13.349-.051-4.348-1.164 1.146zm-9.291-52.305 1.65-4.275-1.588.666zm8.59 18.894 1.65-4.275-1.59.666zm-10.242-6.955 1.65-4.275-1.586.664zm-24.77-49.838 2.391-6.189-2.299.963zm-17.174 44.543 2.711-7.023-2.607 1.092zm36.063-4.662 1.652-4.275-1.588.664zm3.555 80.049-.051-4.348-1.162 1.145zm13.877-4.318-.051-4.346-1.162 1.143zm-5.161-13.873-.049-4.346-1.164 1.145zm-28.24 2.459-.049-4.348-1.164 1.145zm11.145 9.023-.051-4.346-1.164 1.143zm.267-8.586-.051-4.348-1.164 1.145zm-32.798-47.082 1.279-5.566-1.84 1.102zm4.861 4.078 1.279-5.568-1.84 1.102zm3.996 6.987.615-7.502-2.189 1.785zm-6.525 1.406 1.223-4.543-1.547.852zm5.234 13.01-.055-4.703-1.258 1.236zm4.654 6.353-.053-4.705-1.26 1.238zm6.012 3.854-.053-4.703-1.26 1.236zm16.475-24.817.873-5.57-1.738 1.215zm-16.438-27.689 2.711-7.021-2.609 1.094zm-5.332 19.576 1.686-7.338-2.426 1.453zm9.793 14.584 1.453-7.385-2.379 1.527zm8.211-14.305 1.686-7.336-2.426 1.453zm4.086-8.463 1.684-7.336-2.424 1.451zm-8.811 3.723 1.684-7.338-2.424 1.453zm-7.129 2.219 1.684-7.338-2.426 1.453zm-2.158-8.557 2.711-7.021-2.607 1.09zm24.803-35.224 1.65-4.275-1.586.662zm6.17 3.675 1.648-4.277-1.588.664zm3.01 8.625 1.648-4.275-1.588.666zm-9.215 1.957 1.65-4.275-1.586.666zm-2.649 16.569 1.65-4.275-1.588.666zm12.368-4.551 1.652-4.273-1.59.664zm-43.717-32.848 1.65-4.275-1.586.666zm-.436 7.969 2.711-7.02-2.609 1.092zm-5.306 8.316 2.713-7.025-2.609 1.094zm24.832-5.507 2.711-7.023-2.607 1.092zm8.054 4.529 2.713-7.021-2.609 1.092zm-.597 10.555 2.342-6.064-2.254.943zm-11.877 13.88 3.236-8.385-3.111 1.305zm6.357-18.916 2.713-7.023-2.607 1.094zm-4.664 6.77 2.707-7.021-2.605 1.09zm-18.131 1.5 2.709-7.025-2.607 1.094zm-4.652-1.15 2.711-7.021-2.605 1.092zm28.75 10.431 2.709-7.023-2.607 1.094zm7.545-37.23 2.576-6.666-2.479 1.037zm-13.996 4.408 3.654-9.467-3.516 1.473zm-3.981-4.004 3.654-9.467-3.514 1.473zm-4.928 6.322 3.656-9.467-3.516 1.473zm20.299-17.935 2.572-6.67-2.475 1.037zm4.006 2.496 1.65-4.277-1.588.664zm17.113 3.359 1.65-4.275-1.588.666zm-1.347-16.949 1.65-4.275-1.588.664zm-6.022 9.994 1.648-4.275-1.586.664zm-15.367-7.719 1.652-4.279-1.59.666zm-5.482 14.241 3.656-9.469-3.516 1.473zm-2.719-7.5 2.68-6.941-2.574 1.082zm23.389 117.894-.051-4.346-1.166 1.143zm-18.737-42.795-.074-6.445-1.727 1.697zm-4.92-5.168 1.961-6.141-2.174 1.064zm8.862 20.432-.072-6.447-1.727 1.695zm-1.661 8.498-.072-6.447-1.727 1.699zm4.434 5.541-.074-6.449-1.727 1.697zm3.865 11.977-.057-5.107-1.369 1.344zM345.741 266.615l5.709-.999-1.805-.996zm3.232 8.308 4.341-.759-1.373-.755zm164.776 57.331.609-4.541-1.387 1.016zm-5.121-31.152.611-4.542-1.389 1.016zm-1.478 52.691.609-4.545-1.387 1.016zm-110.845 72.123 2.367-5.969-2.234.912zm14.576 20.573 1.23-7.428-2.331 1.598zm-9.247-1.01 3.742-9.434-3.528 1.441zm4.605-22.869 3.743-9.436-3.53 1.441zm-4.737 12.371 3.742-9.434-3.527 1.441zm5.593 7.103 3.742-9.436-3.53 1.443zm-.103-9.64 3.742-9.436-3.529 1.443zm8.821 14.097 1.23-7.428-2.333 1.598zm4.756-7.191 2.775-6.996-2.617 1.066zm-2.477-6.106 3.742-9.434-3.53 1.441zm-20.958 2.815 2.367-5.969-2.233.912zm4.461-12.168 2.367-5.969-2.233.91zm-.006-6.721 2.366-5.971-2.233.912zm-3.211 28.746 1.213-6.33-2.032 1.318zm3.717 6.811 1.212-6.33-2.031 1.318zm-.361 34.363.71-4.289-1.347.924zm8.276-21.256.709-4.287-1.346.924zm2.879-3.441 1.213-6.332-2.032 1.318zm-.772-8.156 1.213-6.33-2.032 1.318zm-13.308 8.13.769-4.639-1.457.998zm4.112 2.803.932-4.064-1.343.805zm6.666 9.594.71-4.289-1.347.922zm10.427-24.291 1.23-7.426-2.331 1.6zm-7.345-13.299 2.775-6.998-2.617 1.068zm.626-8.582 3.742-9.434-3.53 1.439zm-6.356-17.594 2.367-5.971-2.233.914zm4.818 78.836.711-4.289-1.347.922zm6.675-22.898.933-4.064-1.344.805zm-24.708-29.037.934-4.064-1.343.803zm4.883 34.496.934-4.064-1.344.807zm-1.731-17.514.934-4.066-1.343.807zm38.381-3.517.71-4.289-1.347.922zm-32.18 6.203.933-4.063-1.344.803zm3.877-5.838 1.213-6.33-2.031 1.314zm17.267 1.541 2.1-6.432-2.289 1.102zm4.958 15.828 1.054-5.615-1.794 1.176zm.399-12.111.709-4.289-1.345.924zm-7.074 17.199.709-4.289-1.347.924zm12.178 1.263.71-4.287-1.347.924zm1.825-13.408.71-4.289-1.346.924zm-8.66 31.817.244-4.34-1.239 1.063zm6.8-6.084.71-4.289-1.346.924zm-6.298-6.596.711-4.287-1.347.922zm-22.82-.836.71-4.289-1.347.922zm.046-10.412.71-4.285-1.347.922zm18.246-6.15 1.053-5.613-1.794 1.174zm-31.428-15.387.769-4.641-1.457 1zm1.216 12.14.77-4.641-1.458.998zm28.014 26.332.709-4.287-1.347.922zm-3.694-27.404 1.229-7.426-2.33 1.596zm-9.87.904 1.052-6.359-1.996 1.369zm5.967 10.069 1.053-6.361-1.997 1.367zm1.681 9.65.833-5.037-1.58 1.082zm13.492-32.353 1.804-4.551-1.703.695zm9.189-5.114 2.174-5.482-2.051.836zm-12.186-.039 2.775-6.998-2.618 1.068zm5.746-3.931 2.775-6.998-2.619 1.068zm-16.155-23.371 2.774-6.998-2.618 1.068zm3.759 5.324 2.774-6.998-2.617 1.07zm3.746 6.402 2.774-7-2.618 1.07zm3.385 5.481 2.775-6.998-2.619 1.068zm-17.238-29.034 2.367-5.969-2.234.91zm1.984 19.061 3.191-8.047-3.009 1.229zm.989-10.836 3.192-8.049-3.009 1.23zm27.872-180.981 3.718-4.24-2.115.096zm71.629-35.749 4.715-5.376-2.682.122zm-6.515-3.333 6.691-7.63-3.807.172zm-50.606 79.648 3.695-2.713-1.697-.295zm14.949-2.582 2.727-3.686-1.709.22zm27.678-28.564 4.477-6.052-2.805.362zm-10.806 8.787 4.479-6.053-2.803.361zm-8.084-2.286 4.477-6.053-2.805.363zm21.029-27.746 4.477-6.052-2.803.361zm-19.338 39.165 2.727-3.685-1.707.22zm23.789-35.646 2.725-3.685-1.709.22zm11.584-19.023 2.727-3.685-1.709.221zm-2.416 12.146 2.725-3.685-1.709.221zm-7.525 14.73 2.727-3.685-1.709.22zm-20.436 40.098 2.725-3.685-1.707.22zm25.213-89.836 3.023-3.447-1.719.078zm-15.164 76.125 2.729-3.686-1.709.22zm-25.608-.358 5.486-5.154-2.822-.145zm11.26-21.11 6.689-7.629-3.807.171zm-41.029 4.197 4.37-1.382-1.512-.826zm17.935 19.513 4.439-1.138-1.465-.908zm-12.313 6.347 4.44-1.138-1.465-.908zm-10.649-17.185 6.227-1.543-2.037-1.284zm18.798-8.625 4.961-5.661-2.824.128zm-6.25 7.438 7.307-1.812-2.392-1.508zm21.959-26.468 5.922-6.754-3.367.151zm12.577-21.763 4.393-5.011-2.5.113zm6.459 37.257 4.477-6.052-2.805.362zm6.546-5.775 4.477-6.054-2.805.363zm12.229-21.371 4.479-6.053-2.805.362zm-45.145 33.713 6.689-7.629-3.807.172zm-13.104-9.717 4.394-5.01-2.501.113zm5.337 17.617 7.307-1.812-2.391-1.507zm-11.284 5.18 5.745-1.357-1.864-1.202zm24.217-8.411 8.08-6.141-3.766-.592zm4.223-9.186 6.693-7.629-3.807.172zm29.668-53.272 4.715-5.375-2.682.121zm1.4 17.294 6.691-7.63-3.807.172zm11.395 25.761 2.725-3.685-1.707.22zm-45.406 2.978 6.691-7.629-3.807.172zm8.978-10.081 6.691-7.629-3.809.172zm11.522 4.421 6.689-7.628-3.807.17zm-9.121 4.01 6.689-7.629-3.807.172zm6.466-10.068 6.693-7.628-3.807.172zm5.563-24.042 5.404-6.158-3.074.139zm12.67 49.185 2.727-3.686-1.709.221zm-26.479-34.456 5.926-6.755-3.371.152zm20.395-16.48 4.715-5.376-2.68.123zm-45.385 28.969 3.715-4.238-2.113.096zm18.426-14.524 4.396-5.01-2.502.114zm-8.324 9.562 4.396-5.009-2.502.113zm-3.469 10.788 4.963-5.66-2.824.128zm26.719-16.574 6.691-7.629-3.809.172zm-1.575-6.056 5.922-6.756-3.371.154zm9.887 7.07 6.691-7.628-3.809.171zm-.746-9.098 6.691-7.63-3.807.171zm-128.972-39.423 1.146 3.387.619-1.191zm1.707 13.123 1.147 3.387.62-1.192zm-8.511-5.995 1.148 3.387.619-1.191zm37.749 28.561 3.967 2.295-.412-1.672zm-21.056 3.495 3.171 3.31.071-1.72zm-26.33-16.47 2.108 4.07.554-1.631zm-1.714-7.971 2.109 4.07.553-1.631zm42.471 46.82 5.146 3.841-.298-2.395zm-15.577-47.298 1.146 3.387.621-1.192zm-17.077.415 2.109 4.07.553-1.63zm5.778 37.028 6.033 4.503-.349-2.803zm-1.233 4.95 6.033 4.502-.349-2.804zm46.37-13.556 3.968 2.295-.411-1.673zm-52.004-5.589 2.953 3.505.182-1.713zm11.675 2.079 4.915 5.701.266-2.813zm24.395 16.95 5.146 3.841-.298-2.395zm17.7-3.646 3.967 2.295-.411-1.672zm-9.322-6.53 3.968 2.296-.41-1.673zm-5.275 4.851 3.968 2.294-.412-1.673zm6.814 4.88 3.967 2.295-.411-1.672zm6.721 6.448 3.968 2.294-.411-1.672zm-8.066.599 5.144 3.842-.297-2.394zm-31.21-39.991 2.109 4.069.555-1.631zm-7.345 6.596 3.418 6.708.927-2.669zm-8.084-8.744 3.417 6.708.927-2.67zm8.911 2.321 2.108 4.07.554-1.631zm22.747 2.541 2.108 4.07.555-1.631zm-15.551 5.842 2.108 4.07.554-1.631zm23.144 9.759 3.17 3.31.073-1.721zm-11.678 1.588 3.17 3.309.071-1.72zm7.192 2.551 3.171 3.31.07-1.721zm-11.33-21.238 2.108 4.07.555-1.631zm9.33 11.026 2.109 4.07.553-1.63zm-9.06-2.538 2.108 4.07.554-1.632zm-27.669-1.519 2.955 3.505.181-1.712zm2.885 10.828 2.955 3.506.18-1.713zm8.269-4.659 4.917 5.701.266-2.813zm-6.495-7.364 4.916 5.702.265-2.813zm20.302 15.945 4.916 5.7.265-2.813zm-15.966-2.076 4.917 5.702.265-2.813zm7.577 1.169 7.596 6.729-.154-3.808zm17.161 5.186 5.146 3.841-.298-2.394zm-3.365 9.9 8.133 6.071-.472-3.782zm-10.283-7.998 8.131 6.072-.47-3.783zm-.245 5.928 8.132 6.071-.472-3.782zm10.203-4.346 5.145 3.841-.298-2.394zm-8.49 12.113 8.132 6.072-.471-3.782zm12.567 5.204 6.031 4.502-.348-2.806zm12.617-3.772 5.146 3.84-.299-2.394zm-18.464-2.325 6.938 5.177-.402-3.227zm10.204 3.779 6.938 5.18-.402-3.226zm96.281 299.171 6.264-.535-1.775-1.559zm20.458-3.575 4.234-.92-1.35-.906zm-5.356-3.625 4.234-.92-1.352-.908zm-16.92 13.979 3.477-.84-1.133-.725zm26.555-7.369 3.57.238-.865-1.029zm-7.963 1.918 3.568.236-.863-1.027zm-10.727 2.343 4.908-.418-1.389-1.221zm4.944-4.795 4.926-.18-1.33-1.287zm-4.149-3.994 6.264-.533-1.775-1.559zm1.926-4.875 3.564-.307-1.01-.887zm-10.744 5.664 6.064-1.467-1.977-1.26zm-6.047 7.307 4.791-1.156-1.561-.996zm-1.055-4.525 4.447-1.072-1.449-.924zm-75.783-1.424 6.263-.533-1.772-1.559zm20.459-3.574 4.233-.918-1.35-.906zm-5.357-3.623 4.233-.92-1.351-.908zm-16.918 13.978 3.474-.84-1.131-.723zm26.554-7.369 3.567.238-.865-1.027zm-7.963 1.918 3.567.238-.864-1.029zm-10.729 2.344 4.91-.418-1.392-1.223zm4.945-4.795 4.925-.18-1.33-1.287zm-4.15-3.992 6.263-.535-1.773-1.559zm1.927-4.879 3.563-.305-1.01-.887zm-10.747 5.666 6.068-1.467-1.976-1.262zm-6.043 7.308 4.789-1.158-1.56-.996z" clip-rule="evenodd" style="stroke-width:.494075" transform="translate(-52.019 50.197)scale(.67956)"/>
    <path fill="#ececec" fill-rule="evenodd" d="M604.785 93.944a56 56 0 0 1-.494 1.499l10.943-6.145 12.375-8.915-22.566 12.672q-.128.447-.258.889m-21.592 30.058-.018.013a38 38 0 0 0-1.074-3.008 82 82 0 0 0-.512-1.178l-9.113 7.065.002.001 3.441-2.671a55 55 0 0 1 1.953 3.904l-.01.006c.824 1.809 1.516 3.591 2.061 5.397.73 2.476 1.199 5 1.393 7.547.086 1.207.107 2.447.07 3.729a35 35 0 0 1-.316 3.795l-.012.069-.008.07-.01.061v.009l-.004.013-.018.124-.01.068-.01.059-.002.01-.043.264v-.002l-.002.012c1.256-2.223 2.166-4.648 2.785-7.257v-.002l.014-.048.031-.142.016-.07.018-.071.031-.142.012-.049.02-.092.031-.143q.19-.884.332-1.779l.016-.097.01-.067c.824-5.246.478-10.41-1.074-15.398m-62.602-17.657c2.203-26.618 24.508-47.542 51.691-47.542 4.219 0 8.318.509 12.246 1.459-1.082.965-2.115 2-3.094 3.092a48.5 48.5 0 0 0-9.152-.872c-24.486 0-44.711 18.271-47.789 41.918q-1.102.473-2.195 1.024-.866.44-1.707.921m5.819-2.703c3.391-22.287 22.639-39.369 45.873-39.369 2.662 0 5.27.228 7.809.659-4.85 5.993-8.092 13.462-8.504 20.933-.393 7.107.752 13.916 3.742 20.395l1.904 4.126 3.611-2.395.727 1.575-3.633 2.41v.001l-7.037 4.668-3.572 2.371a45 45 0 0 0-1.098-1.329l3.592-2.383a50 50 0 0 0-2.533-2.794c-7.064-7.22-17.021-11.207-27.09-11.214-4.829-.003-9.387.732-13.791 2.346m70.084-6.912c3.342 0 6.068 2.729 6.068 6.07 0 3.343-2.727 6.071-6.068 6.071-.98 0-1.908-.235-2.729-.65l-1.271.986-.193.148-1.166.904-3.451-4.75 1.258-.835.193-.128 1.348-.894a6.5 6.5 0 0 1-.059-.852c-.001-3.341 2.726-6.07 6.07-6.07m-3.172 11.242-.063-.038-.035-.023v-.001a6.1 6.1 0 0 1-2.32-2.741c.174.409.395.805.664 1.179a6 6 0 0 0 1.656 1.563zm2.843-10.05a4.223 4.223 0 0 1 4.213 4.214 4.224 4.224 0 0 1-4.213 4.215 4.225 4.225 0 0 1-4.217-4.215 4.224 4.224 0 0 1 4.217-4.214m-2.843 10.05-.063-.038zm-9.026-.215 2.818 3.915-19.902 14.839-3.545-4.918-.074-.098-1.453.964 4.607 6.341q.081.134.141.259l.83-.642.002.001 20.182-15.653 1.377-1.067-3.553-4.891z" clip-rule="evenodd" style="stroke-width:.494075" transform="translate(-52.019 50.197)scale(.67956)"/>
  </g>
</svg>
