<svg id="flag-icons-haz" class="fi fi-haz" viewBox="0 0 512 512" xmlns="http://www.w3.org/2000/svg" xml:space="preserve" width="512" height="512">
  <metadata id="flag-icons">
    <name>Hazarra</name>
    <code>haz</code>
    <iso>false</iso>
    <type>People</type>
    <continent>Asia</continent>
  </metadata>
  <g style="stroke-width:.248049">
    <g style="stroke-width:.301916">
      <path d="M0 0h188.148v127H0Z" style="fill:#fff;fill-opacity:1;fill-rule:evenodd;stroke-width:.27105" transform="scale(2.72126 4.03151)"/>
      <path d="M0 0h188.148v42.333H0Z" style="fill:#3f6eb4;fill-opacity:1;fill-rule:evenodd;stroke-width:.15649" transform="scale(2.72126 4.03151)"/>
      <path d="M0 84.667h188.148V127H0Z" style="fill:#fef200;fill-opacity:1;fill-rule:evenodd;stroke-width:.15649" transform="scale(2.72126 4.03151)"/>
    </g>
    <g style="stroke-width:.139528" transform="translate(-123.258 1.432)scale(7.1671)">
      <path d="M50.252 32.361v3.94h5.33v-3.94h-.595v1.058h-1.084v.948H51.93v-.948h-1.084V32.36Zm0 4.313v1.937l2.665-.913 2.665.913v-1.937h-2.665zm5.329 4.2v1.5l-1.125-1.942.166-.392zm-2.664.516-2.665 1.5 2.665.018 2.665-.018zm-2.665 1.906v.41h1.074v1.545h1.052v1.03h1.077v-1.03h1.052v-1.545h1.075v-.41h-2.665zm7.34-14.647-2.01 2.932h.93V45.08l1.934-1.493v1.493l1.932-1.493v1.493l1.795-1.493v1.493l1.811-1.493v1.341l1.105-1.34 1.958-2.465h-2.039l1.882-1.853h-1.458l-.96 1.014-.706-1.1 3.124-2.83h-1.5l-2.17 1.979-.635-.992 4.35-3.935H65.47l-3.395 3.137-.665-1.038 5.449-4.59H65.33l-4.467 3.738-.46-.719 4.732-4.234H63.42l-3.631 3.278-.215-.336V30.9Zm.475 1.43v1.041H57.02Zm0 2.508 5.876 9.108v.789h-5.876z" style="display:inline;fill:#fece00;fill-opacity:1;stroke:none;stroke-width:.0536917"/>
      <circle cx="52.917" cy="39.978" r="1.258" style="fill:#fece00;fill-opacity:1;stroke:none;stroke-width:.0581246"/>
      <path d="M51.497 26.822c-2.114 1.826-.655 4.347 1.42 4.347s3.534-2.52 1.42-4.347c1.169 2.026-.088 3.232-1.42 3.232-1.333 0-2.59-1.206-1.42-3.232" style="opacity:1;fill:#fece00;fill-opacity:1;stroke:none;stroke-width:.0536917"/>
      <path d="M50.252 40.874v1.5l1.125-1.942-.166-.392zm-2.011-12.225 2.01 2.932h-.93V45.08l-1.933-1.493v1.493l-1.933-1.493v1.493l-1.795-1.493v1.493l-1.81-1.493v1.341l-1.105-1.34-1.959-2.465h2.04l-1.883-1.853H40.4l.961 1.014.705-1.1-3.124-2.83h1.5l2.17 1.979.635-.992-4.35-3.935h1.467l3.395 3.137.664-1.038-5.448-4.59h1.526l4.468 3.738.46-.719-4.733-4.234h1.715l3.631 3.278.215-.336V30.9Zm-.475 1.43v1.041h1.047zm0 2.508-5.875 9.108v.789h5.875z" style="display:inline;fill:#fece00;fill-opacity:1;stroke:none;stroke-width:.0536917"/>
      <path d="m66.146 31.568-.74.033-.231.704-.26-.694-.741-.002.579-.462-.227-.705.618.408.601-.433-.197.713z" style="opacity:1;fill:#fece00;fill-opacity:1;stroke:none;stroke-width:.0671141" transform="translate(-12.299 -5.685)scale(1.00085)"/>
    </g>
  </g>
</svg>
