<svg id="flag-icons-krch" class="fi fi-krch" viewBox="0 0 512 512" xmlns="http://www.w3.org/2000/svg" xml:space="preserve" width="512" height="512" version="1.1">
  <metadata id="flag-icons">
    <name>Karachays</name>
    <code>krch</code>
    <iso>false</iso>
    <type>People</type>
  </metadata>
  <defs id="defs14165">
    <style id="style14163" type="text/css">
      .fil1{fill:#fff}
    </style>
  </defs>
  <g id="Слой_x0020_1" style="stroke-width:27.3072" transform="translate(9.38 9.71)scale(.03662)">
    <path id="rect14168" d="M-25-34.006h13518.979v13518.979H-25Z" style="fill:#04864a;stroke:#04864a;stroke-width:462.311"/>
    <g id="_1372371809616" style="stroke-width:15.4977" transform="matrix(1.76168 0 0 1.76235 -5131.921 25.92)">
      <path id="path14170" d="M5472 5187c337-227 883-294 1280-294 243 1 456 29 691 78 124 27 469 147 549 240-37 65-164 161-229 201-546 339-1560 353-2075-7-64-45-187-148-216-218m2714-2735c96 84 133 119 208 230 358 528 374 1537 6 2087-45 68-144 188-214 228-97-98-196-421-230-559-108-427-95-994 5-1422 24-103 59-200 92-301 18-54 97-225 133-263m-2954 0c35 26 127 199 146 246 123 294 186 572 201 890 9 183 6 407-24 587-19 112-38 202-65 311-37 148-138 397-233 515-172-145-272-301-347-517-58-165-118-458-116-640 0-36-4-70-4-108 0-239 41-519 116-743 65-193 156-366 296-514 10-10 19-15 30-27m355 165c28 2 92 32 122 43 102 40 289 84 395 105 172 34 435 54 615 54 141 0 327-9 468-28 154-20 400-72 542-128 29-11 96-42 122-46-3 22-35 91-46 119-158 425-180 869-147 1318l15 150c9 47 14 94 24 142 22 112 65 278 108 387 13 35 38 90 46 123l-244-82c-134-43-420-98-557-100l-154-11c-73-9-409 3-479 11-97 10-197 17-294 37-92 18-173 36-264 62l-247 83 82-249c86-303 116-572 116-887 0-358-63-779-223-1103m-140-356c27-55 169-170 225-204 301-186 686-263 1035-262 145 0 258 12 400 29 118 14 238 51 351 83 167 48 431 191 538 330-25 38-195 136-242 158-309 146-681 197-1018 197-243 0-490-19-725-85-104-29-206-57-305-100-60-26-216-102-259-146m1223-694c-324 12-606 47-901 190-478 232-859 636-1068 1123-137 320-159 594-155 939 4 305 55 620 200 891 127 240 275 436 476 618 451 408 977 620 1588 602 568-17 1116-270 1511-674 417-426 622-992 604-1585-17-550-272-1135-668-1518-423-410-1002-606-1587-586" class="fil1" style="stroke-width:15.4977"/>
      <path id="path14172" d="M6095 3794c-13-168 52-333 159-461 92-109 273-200 416-204 182-5 324 35 461 158 110 99 199 267 204 416 11 358-230 633-577 663-334 29-636-242-663-572m558-863c-465 39-792 444-754 886 38 448 438 789 887 750 319-27 586-230 701-530 120-313 32-683-222-904-173-149-384-221-612-202" class="fil1" style="stroke-width:15.4977"/>
      <path id="path14174" d="M6182 3807h843c-5-20-76-65-96-82-60-49-160-111-205-151-21-19-81-63-105-77-28 11-178 124-219 151-35 23-204 137-218 159" class="fil1" style="stroke-width:15.4977"/>
      <path id="path14176" d="M6743 3555c9 15 185 140 215 162 124 94 96 90 195 90 27 0 70 3 94-2-2-15-84-68-102-81l-327-232c-18 9-65 46-75 63" class="fil1" style="stroke-width:15.4977"/>
    </g>
  </g>
</svg>
