<svg id="flag-icons-ru-uly" class="fi fi-ru-uly" viewBox="0 0 512 512" xmlns="http://www.w3.org/2000/svg" xmlns:xlink="http://www.w3.org/1999/xlink" width="512" height="512">
  <metadata id="flag-icons">
    <name>Ulyanovsk Oblast</name>
    <code>ru-uly</code>
    <iso>true</iso>
    <type>Place</type>
    <capital>Ulyanovsk</capital>
    <continent>Europe</continent>
  </metadata>
  <defs>
    <linearGradient id="a">
      <stop offset="0" stop-color="#00adef"/>
      <stop offset=".562" stop-color="#46c3f3"/>
      <stop offset="1" stop-color="#8cd9f7"/>
    </linearGradient>
    <linearGradient id="b">
      <stop offset="0" stop-color="#00adef"/>
      <stop offset=".5" stop-color="#46c3f3"/>
      <stop offset="1" stop-color="#8cd9f7"/>
    </linearGradient>
    <linearGradient xlink:href="#a" id="c" x1="-347.32" x2="-295.76" y1="592.96" y2="624.08" gradientTransform="matrix(1.06615 0 0 1.06614 -272.035 -48.459)" gradientUnits="userSpaceOnUse"/>
    <linearGradient xlink:href="#b" id="e" x1="-346.49" x2="-408.37" y1="654.37" y2="654.37" gradientTransform="matrix(1.06615 0 0 1.06614 -272.035 -48.459)" gradientUnits="userSpaceOnUse"/>
    <linearGradient xlink:href="#b" id="g" x1="-310.32" x2="-295.11" y1="663.9" y2="673.45" gradientTransform="matrix(1.06615 0 0 1.06614 -272.035 -48.459)" gradientUnits="userSpaceOnUse"/>
    <linearGradient xlink:href="#a" id="d" x1="-347.32" x2="-295.76" y1="592.96" y2="624.08" gradientTransform="matrix(1.06615 0 0 1.06614 337.05 -48.459)" gradientUnits="userSpaceOnUse"/>
    <linearGradient xlink:href="#b" id="f" x1="-346.49" x2="-408.37" y1="654.37" y2="654.37" gradientTransform="matrix(1.06615 0 0 1.06614 337.05 -48.459)" gradientUnits="userSpaceOnUse"/>
    <linearGradient xlink:href="#b" id="h" x1="-310.32" x2="-295.11" y1="663.9" y2="673.45" gradientTransform="matrix(1.06615 0 0 1.06614 337.05 -48.459)" gradientUnits="userSpaceOnUse"/>
  </defs>
  <path fill="#0076bf" d="M0 0h512v512H0z" style="stroke-width:.999996"/>
  <g style="stroke-width:1.06613">
    <path fill="#ccc" stroke="#000" stroke-width="1.2" d="M221.897 117.852v5.9h68.98v-5.9h-34.49z"/>
    <g fill="#fff" stroke="#000" stroke-width="1.695">
      <path d="M-622.71 1522.9v41.75h264.15v-41.75h-132.06zm27.78-28.5c-8.928 9.52-15.463 19.19-27.75 28.5h264.12c-12.287-9.31-18.822-18.98-27.75-28.5h-104.31z" style="stroke-width:1.69495" transform="matrix(.47205 0 0 .47195 487.984 -251.884)"/>
      <g style="stroke-width:1.69495">
        <path d="M-561.05 925.68v12.5h140.876v-12.5h-70.438zm-22.53 413.72v132.44h185.938V1339.4h-92.969zm-3.6-75.7c-4.432 0-8 3.568-8 8v12.75c0 4.432 3.568 8 8 8h193.124c4.432 0 8-3.568 8-8v-12.75c0-4.432-3.568-8-8-8h-96.562z" style="stroke-width:1.69495" transform="matrix(.47205 0 0 .47195 487.984 -251.884)"/>
        <path d="M-564.68 907.02a6.51 6.51 0 0 0-6.531 6.531v9.188a6.51 6.51 0 0 0 6.531 6.53h148.124a6.51 6.51 0 0 0 6.531-6.53v-9.188a6.51 6.51 0 0 0-6.531-6.531h-74.062zm-6-112.59v20.75h160.124v-20.75h-80.062z" style="stroke-width:1.69495" transform="matrix(.47205 0 0 .47195 487.984 -251.884)"/>
        <path d="M-579.93 812.68v18.5h178.624v-18.5h-89.312zm25.5 125.53-16.5 325.47h160.624l-16.5-325.47h-63.812z" style="stroke-width:1.69495" transform="matrix(.47205 0 0 .47195 487.984 -251.884)"/>
        <path d="M-579.83 831.05c17.476 24.523 13.15 58.92 26.375 75.969h125.688c13.225-17.049 8.9-51.446 26.375-75.969h-89.219zm-16.1 489.15v22.25h210.62v-22.25h-105.31z" style="stroke-width:1.69495" transform="matrix(.47205 0 0 .47195 487.984 -251.884)"/>
        <path d="M-289.5 1372.6a7.5 7.5 0 1 1-15 0 7.5 7.5 0 0 1 15 0z" style="stroke-width:1.69495" transform="matrix(.47205 0 0 .47195 428.954 -215.721)"/>
      </g>
      <path d="M-528.65 1356.6c0 14.755-17.026 30.938-30.938 30.938v45.125c14.249 0 31.125 14.71 31.125 31.125h75.656c0-16.415 16.876-31.125 31.125-31.125v-45.125c-13.911 0-30.938-16.183-30.938-30.938z" style="stroke-width:1.69495" transform="matrix(.47205 0 0 .47195 487.984 -251.884)"/>
      <path d="M-519.3 1382.3c-2.359 3.503-3.592 6.062-9.281 8.938v32.5c4.746 3.096 6.473 4.2 9.375 9.03h57.156c2.902-4.83 4.629-5.934 9.375-9.03v-32.5c-5.69-2.876-6.923-5.435-9.281-8.938z" style="stroke-width:1.69495" transform="matrix(.47205 0 0 .47195 487.984 -251.884)"/>
      <path d="M-289.5 1372.6a7.5 7.5 0 1 1-15 0 7.5 7.5 0 0 1 15 0z" style="stroke-width:1.69495" transform="matrix(.47205 0 0 .47195 428.954 -257.724)"/>
      <path d="M-438.66 851.51c-.781-6.128-.65-11.373-9.634-17.501-11.06 4.071-17.716 10.55-18.65 22.009" style="stroke-width:1.69495" transform="matrix(.47205 0 0 .47195 487.984 -251.884)"/>
      <g style="stroke-width:1.69495">
        <path d="M-365.57 1183.7c8.31 0 10.174-4.976 11.699-8.308 0 0 3.003 8.308 10.575 8.308s10.175-8.308 10.175-8.308 1.925 8.213 8.75 8.308c6.825.094 9.25-8.308 9.25-8.308s1.186 8.308 8.625 8.308c7.44 0 8.625-8.308 8.625-8.308s.022 8.308 5.497 8.308 6.503-8.371 6.503-8.371" style="stroke-width:1.69495" transform="matrix(.47205 0 0 .47195 428.954 -216.295)"/>
        <path d="M-490.63 941.48c6.766 0 8.283 3.48 9.524 5.809 0 0 2.444-5.809 8.608-5.809s8.284 5.809 8.284 5.809 1.567-5.743 7.123-5.809c5.555-.066 7.53 5.809 7.53 5.809s.965-5.809 7.02-5.809c6.057 0 7.022 5.809 7.022 5.809s.018-5.809 4.475-5.809 4.635 5.809 4.635 5.809" style="stroke-width:1.69495" transform="matrix(.47205 0 0 .47195 487.984 -251.986)"/>
        <path d="m-297.94 1175.4-12.482-304.23m-4.638 304.23-9.344-304.23m-8.736 304.23-6.055-304.23m-14.725 304.23-2.051-304.23" style="stroke-width:1.69495" transform="matrix(.47205 0 0 .47195 428.954 -216.295)"/>
      </g>
      <path d="M-289.5 1372.6a7.5 7.5 0 1 1-15 0 7.5 7.5 0 0 1 15 0z" style="stroke-width:1.69495" transform="matrix(.47205 0 0 .47195 362.866 -215.721)"/>
      <path d="M-289.5 1372.6a7.5 7.5 0 1 1-15 0 7.5 7.5 0 0 1 15 0z" style="stroke-width:1.69495" transform="matrix(.47205 0 0 .47195 362.866 -257.724)"/>
      <g style="stroke-width:1.69495">
        <path d="M-365.57 1183.7c8.31 0 10.174-4.976 11.699-8.308 0 0 3.003 8.308 10.575 8.308s10.175-8.308 10.175-8.308 1.925 8.213 8.75 8.308c6.825.094 9.25-8.308 9.25-8.308s1.186 8.308 8.625 8.308c7.44 0 8.625-8.308 8.625-8.308s.022 8.308 5.497 8.308 6.566-8.308 6.566-8.308" style="stroke-width:1.69495" transform="matrix(-.47205 0 0 .47195 83.816 -216.295)"/>
        <path d="M-490.63 941.48c6.766 0 8.283 3.48 9.524 5.809 0 0 2.444-5.809 8.608-5.809s8.284 5.809 8.284 5.809 1.567-5.743 7.123-5.809c5.555-.066 7.53 5.809 7.53 5.809s.965-5.809 7.02-5.809c6.057 0 7.022 5.809 7.022 5.809s.018-5.809 4.475-5.809 4.723 5.809 4.723 5.809" style="stroke-width:1.69495" transform="matrix(-.47205 0 0 .47195 24.785 -251.986)"/>
        <path d="m-297.94 1175.4-12.482-304.23m-4.638 304.23-9.344-304.23m-8.736 304.23-6.055-304.23m-14.725 304.23-2.051-304.23" style="stroke-width:1.69495" transform="matrix(-.47205 0 0 .47195 83.816 -216.295)"/>
      </g>
      <path d="M-543.69 851.51c.781-6.128.65-11.373 9.634-17.501 11.06 4.071 17.716 10.55 18.65 22.009" style="stroke-width:1.69495" transform="matrix(.47205 0 0 .47195 487.984 -251.884)"/>
      <path d="M-490.62 835.53c-3.368 1.286-20.221 10.578-12.656 25.75.99 1.985-1.533 3.883-3.25 1.438-15.779-22.466-34.821 16.317-8.937 14.312 0 0-.407-5.617 4.656-5.188 4.373.37 5.41 7.432 4.656 10.312-3.553 13.588-22.806 13.341-34.531 4.25-4.945-3.834-9.228-14.27-5.156-17.438 4.435-3.45 6.093 2.208 3.625 4.125 29.059-1.91.819-39.435-10.25-11.125-.888 2.271-2.399 1.016-2.188-.312 5.5-34.658-36.65-20.566-21.312-5.125.842-3.728 10.338-1.428 13.812 13.469 9.261 39.71 52.625 47.477 71.531 20.28 18.906 27.195 62.24 19.43 71.5-20.28 3.474-14.896 12.97-17.196 13.812-13.47 15.338-15.44-26.813-29.533-21.312 5.125.211 1.329-1.3 2.584-2.187.313-11.07-28.31-39.31 9.216-10.25 11.125-2.468-1.917-.81-7.576 3.625-4.125 4.071 3.167-.212 13.603-5.156 17.438-11.725 9.091-30.978 9.339-34.531-4.25-.754-2.88.283-9.942 4.656-10.312 5.062-.429 4.656 5.188 4.656 5.188 25.883 2.004 6.841-36.78-8.938-14.312-1.717 2.445-4.24.547-3.25-1.438 7.565-15.172-9.257-24.464-12.625-25.75zm-100.81 633.67c-5.54 0-10 4.46-10 10v5.25c0 5.54 4.46 10 10 10h201.62c5.54 0 10-4.46 10-10v-5.25c0-5.54-4.46-10-10-10h-100.81zm-17.75-176.8v32.5h237.12v-32.5h-118.56z" style="stroke-width:1.69495" transform="matrix(.47205 0 0 .47195 487.984 -251.884)"/>
    </g>
    <g style="stroke-width:1.06613">
      <g style="stroke-width:1.06613">
        <g stroke="#000" style="stroke-width:.316101">
          <path fill="maroon" stroke-width="1.061" d="M-289.7 504.99h-149.83c0-8.284 33.238-16.102 74.659-16.102s75.171 7.818 75.171 16.102z" transform="matrix(.48938 0 0 .45408 435.265 -109.833)"/>
          <g stroke-width="1.059">
            <path fill="url(#c)" d="M-312.8 632.97c10.559-5.22 23.412-1.178 25.75-6.25 8.196-17.784-14.132-11.472-29.188-20.812-4.63-2.872-10.827-16.972-17.609-21.655-11.067-7.642-22.516-5.198-22.516.655 0 28.81 38.529 54.811 43.562 48.062z" style="fill:url(#d);stroke-width:1.05933" transform="matrix(.47205 0 0 .47195 487.984 -183.754)"/>
            <path fill="#00adef" d="M-356.45 584.13c1.765 18.885 18.189 21.188 19.915 26.617 3.6 12.222-17.682 27.323-18.324 26.681 1.469-15.598-3.82-39.156-1.591-53.298z" style="stroke-width:.314077" transform="matrix(.47205 0 0 .47195 487.984 -183.754)"/>
            <path fill="url(#e)" d="M-428.05 635.72c7.208 34.461 82.487 31.782 89 12 1.757-5.335-.12-11.621 1.018-17.445 1.102-5.644 5.31-10.764 1.482-19.805 2.094 25.676-64.071 45.808-82.5 30.5-3.634-3.634-5.222-3.046-9-5.25z" style="fill:url(#f);stroke-width:1.05933" transform="matrix(.47205 0 0 .47195 487.984 -183.754)"/>
            <path fill="#00aeef" d="M-297.32 654.31c-.17-5.295 8.785-22.758 10.479-28.314-4.997 7.207-22.686.126-26.072 2.014-9.803 6.536 10.118 24.931 15.593 26.3z" style="stroke-width:.314077" transform="matrix(.47205 0 0 .47195 487.984 -183.754)"/>
            <path fill="url(#g)" d="M-291.22 680.92c9.22 9.686 7.626 20.707 6.718 25.102 8.059-7.674 8.29-15.138 7.247-22.627-4.71-33.832-39.864-36.912-36.15-55.331-2.816.433-4.177 5.516-1.679 21.52-5.52 4.818-4.053 12.071.883 17.37 9.091 9.761 21.886 21.601 9.9 42.957 10.46-2.912 12.271-18.817 13.08-28.991z" style="fill:url(#h);stroke-width:1.05933" transform="matrix(.47205 0 0 .47195 487.984 -183.754)"/>
          </g>
          <g stroke-width="1.059">
            <path fill="url(#c)" d="M-312.8 632.97c10.559-5.22 23.412-1.178 25.75-6.25 8.196-17.784-14.132-11.472-29.188-20.812-4.63-2.872-10.827-16.972-17.609-21.655-11.067-7.642-22.516-5.198-22.516.655 0 28.81 38.529 54.811 43.562 48.062z" style="fill:url(#c);stroke-width:1.05933" transform="matrix(-.47205 0 0 .47195 24.016 -183.754)"/>
            <path fill="#00adef" d="M-356.45 584.13c1.765 18.885 18.189 21.188 19.915 26.617 3.6 12.222-17.682 27.323-18.324 26.681 1.469-15.598-3.82-39.156-1.591-53.298z" style="stroke-width:.314077" transform="matrix(-.47205 0 0 .47195 24.016 -183.754)"/>
            <path fill="url(#e)" d="M-428.05 635.72c7.208 34.461 82.487 31.782 89 12 1.757-5.335-.12-11.621 1.018-17.445 1.102-5.644 5.31-10.764 1.482-19.805 2.094 25.676-64.071 45.808-82.5 30.5-3.634-3.634-5.222-3.046-9-5.25z" style="fill:url(#e);stroke-width:1.05933" transform="matrix(-.47205 0 0 .47195 24.016 -183.754)"/>
            <path fill="#00aeef" d="M-297.32 654.31c-.17-5.295 8.785-22.758 10.479-28.314-4.997 7.207-22.686.126-26.072 2.014-9.803 6.536 10.118 24.931 15.593 26.3z" style="stroke-width:.314077" transform="matrix(-.47205 0 0 .47195 24.016 -183.754)"/>
            <path fill="url(#g)" d="M-291.22 680.92c9.22 9.686 7.626 20.707 6.718 25.102 8.059-7.674 8.29-15.138 7.247-22.627-4.71-33.832-39.864-36.912-36.15-55.331-2.816.433-4.177 5.516-1.679 21.52-5.52 4.818-4.053 12.071.883 17.37 9.091 9.761 21.886 21.601 9.9 42.957 10.46-2.912 12.271-18.817 13.08-28.991z" style="fill:url(#g);stroke-width:1.05933" transform="matrix(-.47205 0 0 .47195 24.016 -183.754)"/>
          </g>
        </g>
        <g style="stroke-width:1.06613">
          <path fill="#f3cd00" stroke="#000" stroke-width="1.059" d="m-497.61 382.39 4.596 16.591-16.59-4.596v15.364l16.59-4.596-4.596 16.59h15.364l-4.596-16.59 16.59 4.596v-15.364l-16.59 4.596 4.596-16.591z" transform="matrix(.47205 0 0 .47195 487.984 -155.055)"/>
          <g fill="#9a6105" stroke="#000" style="stroke-width:.316101">
            <path stroke-width=".932" d="M-328.45 383.66c0 4.198-2.355 7.601-5.26 7.601s-5.258-3.403-5.258-7.601 2.354-7.601 5.259-7.601c2.904 0 5.259 3.403 5.259 7.601z" transform="matrix(.4984 0 0 .57747 430.681 -162.293)"/>
            <path stroke-width=".826" d="M-328.45 383.66c0 4.198-2.355 7.601-5.26 7.601s-5.258-3.403-5.258-7.601 2.354-7.601 5.259-7.601c2.904 0 5.259 3.403 5.259 7.601z" transform="matrix(.5236 0 0 .6997 447.077 -207.195)"/>
            <path stroke-width=".932" d="M-328.45 383.66c0 4.198-2.355 7.601-5.26 7.601s-5.258-3.403-5.258-7.601 2.354-7.601 5.259-7.601c2.904 0 5.259 3.403 5.259 7.601z" transform="matrix(-.4984 0 0 .57747 82.63 -162.293)"/>
            <path stroke-width=".826" d="M-328.45 383.66c0 4.198-2.355 7.601-5.26 7.601s-5.258-3.403-5.258-7.601 2.354-7.601 5.259-7.601c2.904 0 5.259 3.403 5.259 7.601z" transform="matrix(-.5236 0 0 .6997 66.151 -207.195)"/>
          </g>
          <g stroke="#000" style="stroke-width:.316101">
            <path fill="#f4c901" stroke-width="1.059" d="M-351.12 356.88c0 7.615-6.173 13.789-13.789 13.789s-13.789-6.173-13.789-13.789 6.173-13.789 13.789-13.789 13.789 6.173 13.789 13.789z" transform="matrix(.47205 0 0 .47195 428.954 -118.88)"/>
            <path fill="#c68413" stroke-width="1.059" d="M-489.99 419.32c-1.25.01-3.16.13-3.437.688v10.062c-2.984.233-7.99.419-10.062 1.562-.697.384-1.83 5.567.937 4.625 3.875-1.32 8.851-1.437 12.562-1.437s8.687.118 12.562 1.437c2.767.942 1.634-4.24.938-4.625-2.073-1.143-7.08-1.33-10.062-1.562v-10.062c-.279-.557-2.188-.678-3.438-.688z" transform="matrix(.47205 0 0 .47195 487.984 -155.055)"/>
            <path fill="#f3cd00" stroke-width="1.267" d="M-1008.6 466.7h12.884v12.884h-12.884z" transform="matrix(.43717 -.17805 .43717 .17805 487.967 -155.05)"/>
            <path fill="#880523" stroke-width="1.059" d="M-288.78 426.7c0 25.97-34.064 47.023-76.084 47.023s-76.084-21.053-76.084-47.023 34.064-47.023 76.084-47.023 76.084 21.053 76.084 47.023z" transform="matrix(.47205 0 0 .47195 428.954 -119.05)"/>
            <path fill="#c68413" stroke-width="1.059" d="M-373.56 369.62c-3.738.107-7.087.607-6.312 1.875 5.83 9.644 9.26 42.256 9.5 51.5 1.33-.222 4.756-1.885 5.5-3.125.743 1.24 4.17 2.903 5.5 3.125.238-9.244 3.668-41.856 9.5-51.5 1.548-2.535-13.352-2.014-15-1.375-.824-.32-4.95-.607-8.688-.5z" transform="matrix(.47205 0 0 .47195 428.954 -119.364)"/>
          </g>
          <g stroke-width=".533">
            <path fill="#d59b11" d="M-414.95 556.42c7.372-11.306 18.724-21.12 23.102-31.752 15.732-38.202-8.813-74.451-51.533-72.461-9.647 17.061-36.24 77.289-43.969 86.967 20.312 8.226 77.215 28.952 72.4 17.246" style="stroke-width:.15805" transform="matrix(.47205 0 0 .47195 488.81 -155.055)"/>
            <g style="stroke-width:.533078">
              <path fill="#d0a609" d="m-279.66 446.41-2.563-9.37 7.955-2.828z" style="stroke-width:.15805" transform="matrix(.47205 0 0 .47195 429.404 -117.695)"/>
              <path fill="#ce8a14" d="m-282.58 437.13 2.828 9.37-13.17-6.807z" style="stroke-width:.15805" transform="matrix(.47205 0 0 .47195 429.404 -117.695)"/>
              <path fill="#f2cc00" d="m-286.56 427.5 4.42 9.811 7.866-3.005z" style="stroke-width:.15805" transform="matrix(.47205 0 0 .47195 429.404 -117.695)"/>
              <path fill="#e9c002" d="m-286.64 427.32-6.109 12.307 10.586-2.392z" style="stroke-width:.15805" transform="matrix(.47205 0 0 .47195 429.404 -117.695)"/>
            </g>
            <g style="stroke-width:.533078">
              <path fill="#d0a609" d="m-279.66 446.41-2.563-9.37 7.955-2.828z" style="stroke-width:.15805" transform="matrix(.4672 -.06263 .03655 .47195 406.179 -138.252)"/>
              <path fill="#ce8a14" d="m-282.58 437.13 2.828 9.37-13.17-6.807z" style="stroke-width:.15805" transform="matrix(.4672 -.06263 .03655 .47195 406.179 -138.252)"/>
              <path fill="#f2cc00" d="m-286.56 427.5 4.42 9.811 7.866-3.005z" style="stroke-width:.15805" transform="matrix(.4672 -.06263 .03655 .47195 406.179 -138.252)"/>
              <path fill="#e9c002" d="m-286.64 427.32-6.109 12.307 10.586-2.392z" style="stroke-width:.15805" transform="matrix(.4672 -.06263 .03655 .47195 406.179 -138.252)"/>
            </g>
            <g style="stroke-width:.533078">
              <path fill="#d0a609" d="m-279.66 446.41-2.563-9.37 7.955-2.828z" style="stroke-width:.15805" transform="matrix(.4672 -.095 .03655 .46942 400.087 -148.659)"/>
              <path fill="#ce8a14" d="m-282.58 437.13 2.828 9.37-13.17-6.807z" style="stroke-width:.15805" transform="matrix(.4672 -.095 .03655 .46942 400.087 -148.659)"/>
              <path fill="#f2cc00" d="m-286.56 427.5 4.42 9.811 7.866-3.005z" style="stroke-width:.15805" transform="matrix(.4672 -.095 .03655 .46942 400.087 -148.659)"/>
              <path fill="#e9c002" d="m-286.64 427.32-6.109 12.307 10.586-2.392z" style="stroke-width:.15805" transform="matrix(.4672 -.095 .03655 .46942 400.087 -148.659)"/>
            </g>
            <g style="stroke-width:.533078">
              <path fill="#d0a609" d="m-279.66 446.41-2.563-9.37 7.955-2.828z" style="stroke-width:.15805" transform="matrix(.4672 -.095 .03655 .46942 393.88 -150.657)"/>
              <path fill="#ce8a14" d="m-282.58 437.13 2.828 9.37-13.17-6.807z" style="stroke-width:.15805" transform="matrix(.4672 -.095 .03655 .46942 393.88 -150.657)"/>
              <path fill="#f2cc00" d="m-286.56 427.5 4.42 9.811 7.866-3.005z" style="stroke-width:.15805" transform="matrix(.4672 -.095 .03655 .46942 393.88 -150.657)"/>
              <path fill="#e9c002" d="m-286.64 427.32-6.109 12.307 10.586-2.392z" style="stroke-width:.15805" transform="matrix(.4672 -.095 .03655 .46942 393.88 -150.657)"/>
            </g>
            <g style="stroke-width:.533078">
              <path fill="#d0a609" d="m-280.93 441.55-1.294-4.509 3.509-.727z" style="stroke-width:.15805" transform="matrix(.47404 .0101 .03408 .47071 421.418 -111.087)"/>
              <path fill="#ce8a14" d="m-282.2 437.12 1.189 3.994-1.943 3.259-9.961-4.682z" style="stroke-width:.15805" transform="matrix(.47404 .0101 .03408 .47071 421.418 -111.087)"/>
              <path fill="#f2cc00" d="m-286.56 427.5 4.42 9.811 3.836-1.466 1.418-3.3z" style="stroke-width:.15805" transform="matrix(.47404 .0101 .03408 .47071 421.418 -111.087)"/>
              <path fill="#e9c002" d="m-286.64 427.32-6.109 12.307 10.586-2.392z" style="stroke-width:.15805" transform="matrix(.47404 .0101 .03408 .47071 421.418 -111.087)"/>
            </g>
            <g style="stroke-width:.533078">
              <path fill="#d0a609" d="m-279.66 446.41-2.563-9.37 7.955-2.828z" style="stroke-width:.15805" transform="matrix(.46908 -.0529 .0529 .46897 407.919 -137.5)"/>
              <path fill="#ce8a14" d="m-282.58 437.13 2.828 9.37-13.17-6.807z" style="stroke-width:.15805" transform="matrix(.46908 -.0529 .0529 .46897 407.919 -137.5)"/>
              <path fill="#f2cc00" d="m-286.56 427.5 4.42 9.811 7.866-3.005z" style="stroke-width:.15805" transform="matrix(.46908 -.0529 .0529 .46897 407.919 -137.5)"/>
              <path fill="#e9c002" d="m-286.64 427.32-6.109 12.307 10.586-2.392z" style="stroke-width:.15805" transform="matrix(.46908 -.0529 .0529 .46897 407.919 -137.5)"/>
            </g>
            <g style="stroke-width:.533078">
              <path fill="#d0a609" d="m-279.66 446.41-2.563-9.37 7.955-2.828z" style="stroke-width:.15805" transform="matrix(.4672 -.06263 .03655 .47195 408.4 -144.689)"/>
              <path fill="#ce8a14" d="m-282.58 437.13 2.828 9.37-13.17-6.807z" style="stroke-width:.15805" transform="matrix(.4672 -.06263 .03655 .47195 408.4 -144.689)"/>
              <path fill="#f2cc00" d="m-286.56 427.5 4.42 9.811 7.866-3.005z" style="stroke-width:.15805" transform="matrix(.4672 -.06263 .03655 .47195 408.4 -144.689)"/>
              <path fill="#e9c002" d="m-286.64 427.32-6.109 12.307 10.586-2.392z" style="stroke-width:.15805" transform="matrix(.4672 -.06263 .03655 .47195 408.4 -144.689)"/>
            </g>
            <g style="stroke-width:.533078">
              <path fill="#d0a609" d="m-279.66 446.41-2.563-9.37 7.955-2.828z" style="stroke-width:.15805" transform="matrix(.4672 -.095 .03655 .46942 402.016 -155.22)"/>
              <path fill="#ce8a14" d="m-282.58 437.13 2.828 9.37-13.17-6.807z" style="stroke-width:.15805" transform="matrix(.4672 -.095 .03655 .46942 402.016 -155.22)"/>
              <path fill="#f2cc00" d="m-286.56 427.5 4.42 9.811 7.866-3.005z" style="stroke-width:.15805" transform="matrix(.4672 -.095 .03655 .46942 402.016 -155.22)"/>
              <path fill="#e9c002" d="m-286.64 427.32-6.109 12.307 10.586-2.392z" style="stroke-width:.15805" transform="matrix(.4672 -.095 .03655 .46942 402.016 -155.22)"/>
            </g>
            <g style="stroke-width:.533078">
              <path fill="#d0a609" d="m-279.66 446.41-2.563-9.37 7.955-2.828z" style="stroke-width:.15805" transform="matrix(.4672 -.095 .03655 .46942 395.643 -157.344)"/>
              <path fill="#ce8a14" d="m-282.58 437.13 2.828 9.37-13.17-6.807z" style="stroke-width:.15805" transform="matrix(.4672 -.095 .03655 .46942 395.643 -157.344)"/>
              <path fill="#f2cc00" d="m-286.56 427.5 4.42 9.811 7.866-3.005z" style="stroke-width:.15805" transform="matrix(.4672 -.095 .03655 .46942 395.643 -157.344)"/>
              <path fill="#e9c002" d="m-286.64 427.32-6.109 12.307 10.586-2.392z" style="stroke-width:.15805" transform="matrix(.4672 -.095 .03655 .46942 395.643 -157.344)"/>
            </g>
            <g style="stroke-width:.533078">
              <path fill="#ce8a14" d="m-281.4 437.23-.215 3.08-1.536 4.194-9.766-4.81z" style="stroke-width:.15805" transform="matrix(.47404 .0101 .03408 .47071 423.973 -116.732)"/>
              <path fill="#f2cc00" d="m-286.56 427.5 4.355 9.844 1.183-.074 1.355-6.405z" style="stroke-width:.15805" transform="matrix(.47404 .0101 .03408 .47071 423.973 -116.732)"/>
              <path fill="#e9c002" d="m-286.64 427.32-6.109 12.307 10.586-2.392z" style="stroke-width:.15805" transform="matrix(.47404 .0101 .03408 .47071 423.973 -116.732)"/>
            </g>
            <g style="stroke-width:.533078">
              <path fill="#d0a609" d="m-279.66 446.41-2.563-9.37 7.955-2.828z" style="stroke-width:.15805" transform="matrix(.47205 0 0 .47195 434.504 -129.764)"/>
              <path fill="#ce8a14" d="m-282.58 437.13 2.828 9.37-13.17-6.807z" style="stroke-width:.15805" transform="matrix(.47205 0 0 .47195 434.504 -129.764)"/>
              <path fill="#f2cc00" d="m-286.56 427.5 4.42 9.811 7.866-3.005z" style="stroke-width:.15805" transform="matrix(.47205 0 0 .47195 434.504 -129.764)"/>
              <path fill="#e9c002" d="m-286.64 427.32-6.109 12.307 10.586-2.392z" style="stroke-width:.15805" transform="matrix(.47205 0 0 .47195 434.504 -129.764)"/>
            </g>
            <g style="stroke-width:.533078">
              <path fill="#d0a609" d="m-279.66 446.41-2.563-9.37 7.955-2.828z" style="stroke-width:.15805" transform="matrix(.4672 -.06263 .03655 .47195 410.778 -150.779)"/>
              <path fill="#ce8a14" d="m-282.58 437.13 2.828 9.37-13.17-6.807z" style="stroke-width:.15805" transform="matrix(.4672 -.06263 .03655 .47195 410.778 -150.779)"/>
              <path fill="#f2cc00" d="m-286.56 427.5 4.42 9.811 7.866-3.005z" style="stroke-width:.15805" transform="matrix(.4672 -.06263 .03655 .47195 410.778 -150.779)"/>
              <path fill="#e9c002" d="m-286.64 427.32-6.109 12.307 10.586-2.392z" style="stroke-width:.15805" transform="matrix(.4672 -.06263 .03655 .47195 410.778 -150.779)"/>
            </g>
            <g style="stroke-width:.533078">
              <path fill="#d0a609" d="m-279.66 446.41-2.563-9.37 7.955-2.828z" style="stroke-width:.15805" transform="matrix(.4672 -.095 .03655 .46942 404.56 -161.686)"/>
              <path fill="#ce8a14" d="m-282.58 437.13 2.828 9.37-13.17-6.807z" style="stroke-width:.15805" transform="matrix(.4672 -.095 .03655 .46942 404.56 -161.686)"/>
              <path fill="#f2cc00" d="m-286.56 427.5 4.42 9.811 7.866-3.005z" style="stroke-width:.15805" transform="matrix(.4672 -.095 .03655 .46942 404.56 -161.686)"/>
              <path fill="#e9c002" d="m-286.64 427.32-6.109 12.307 10.586-2.392z" style="stroke-width:.15805" transform="matrix(.4672 -.095 .03655 .46942 404.56 -161.686)"/>
            </g>
            <g style="stroke-width:.533078">
              <path fill="#d0a609" d="m-279.66 446.41-2.563-9.37 7.955-2.828z" style="stroke-width:.15805" transform="matrix(.4672 -.095 .03655 .46942 398.23 -163.852)"/>
              <path fill="#ce8a14" d="m-282.58 437.13 2.828 9.37-13.17-6.807z" style="stroke-width:.15805" transform="matrix(.4672 -.095 .03655 .46942 398.23 -163.852)"/>
              <path fill="#f2cc00" d="m-286.56 427.5 4.42 9.811 7.866-3.005z" style="stroke-width:.15805" transform="matrix(.4672 -.095 .03655 .46942 398.23 -163.852)"/>
              <path fill="#e9c002" d="m-286.64 427.32-6.109 12.307 10.586-2.392z" style="stroke-width:.15805" transform="matrix(.4672 -.095 .03655 .46942 398.23 -163.852)"/>
            </g>
            <g style="stroke-width:.533078">
              <path fill="#ce8a14" d="m-284.96 437.85-.405 5.982-7.552-4.134z" style="stroke-width:.15805" transform="matrix(.47404 .0101 .03408 .47071 426.226 -122.739)"/>
              <path fill="#e9c002" d="m-286.27 426.43-6.481 13.202 7.752-1.533c.805-5.424-.21-8.772-1.271-11.668z" style="stroke-width:.15805" transform="matrix(.47404 .0101 .03408 .47071 426.226 -122.739)"/>
            </g>
            <g style="stroke-width:.533078">
              <path fill="#ce8a14" d="m-281.14 437.07 1.044 10.699-11.723-10.234z" style="stroke-width:.15805" transform="matrix(.45564 -.12338 .1234 .45553 377.405 -163.363)"/>
              <path fill="#e9c002" d="m-285.35 425.75-6.303 11.843 10.303-.5z" style="stroke-width:.15805" transform="matrix(.45564 -.12338 .1234 .45553 377.405 -163.363)"/>
            </g>
            <g style="stroke-width:.533078">
              <path fill="#d0a609" d="m-280.47 447.39-1.75-10.343 7.225-.313z" style="stroke-width:.15805" transform="matrix(.45862 -.10895 .0835 .46594 389.659 -167.665)"/>
              <path fill="#ce8a14" d="m-282.58 437.13 2.245 10.576-12.092-8.479z" style="stroke-width:.15805" transform="matrix(.45862 -.10895 .0835 .46594 389.659 -167.665)"/>
              <path fill="#f2cc00" d="m-285.32 425.23 3.188 12.075 6.846-.648z" style="stroke-width:.15805" transform="matrix(.45862 -.10895 .0835 .46594 389.659 -167.665)"/>
              <path fill="#e9c002" d="m-285.44 425.19-7.1 14.001 10.37-1.95z" style="stroke-width:.15805" transform="matrix(.45862 -.10895 .0835 .46594 389.659 -167.665)"/>
            </g>
            <g style="stroke-width:.533078">
              <path fill="#d0a609" d="m-279.66 446.41-2.563-9.37 7.955-2.828z" style="stroke-width:.15805" transform="matrix(.45727 -.13493 .07691 .46451 386.057 -177.243)"/>
              <path fill="#ce8a14" d="m-282.58 437.13 2.828 9.37-13.17-6.807z" style="stroke-width:.15805" transform="matrix(.45727 -.13493 .07691 .46451 386.057 -177.243)"/>
              <path fill="#f2cc00" d="m-286.98 425.98 4.849 11.328 7.866-3.005c-4.154-2.682-7.107-7.066-12.715-8.323" style="stroke-width:.15805" transform="matrix(.45727 -.13493 .07691 .46451 386.057 -177.243)"/>
              <path fill="#e9c002" d="m-286.88 426-5.875 13.632 10.586-2.392z" style="stroke-width:.15805" transform="matrix(.45727 -.13493 .07691 .46451 386.057 -177.243)"/>
            </g>
            <g style="stroke-width:.533078">
              <path fill="#d0a609" d="m-279.99 446.43-2.232-9.382 8.54-3.35z" style="stroke-width:.15805" transform="matrix(.44889 -.16061 .10311 .45941 365.791 -183.932)"/>
              <path fill="#ce8a14" d="m-282.58 437.13 2.828 9.37-13.17-6.807z" style="stroke-width:.15805" transform="matrix(.44889 -.16061 .10311 .45941 365.791 -183.932)"/>
              <path fill="#f2cc00" d="m-286.56 427.5 4.42 9.811 8.647-3.776c-4.027-3.046-8.619-4.314-13.067-6.035" style="stroke-width:.15805" transform="matrix(.44889 -.16061 .10311 .45941 365.791 -183.932)"/>
              <path fill="#e9c002" d="m-286.64 427.32-6.109 12.307 10.586-2.392z" style="stroke-width:.15805" transform="matrix(.44889 -.16061 .10311 .45941 365.791 -183.932)"/>
            </g>
            <path fill="none" stroke="#000" stroke-width="1.059" d="M-414.95 556.42c7.372-11.306 18.724-21.12 23.102-31.752 15.732-38.202-8.813-74.451-51.533-72.461-8.555 15.13-26.797 70.308-41.292 83.214-1.965 1.75.948 5.407.073 6.503 20.312 8.226 74.465 26.202 69.65 14.496z" transform="matrix(.47205 0 0 .47195 488.81 -155.055)"/>
          </g>
          <g stroke-width=".533">
            <path fill="#d59b11" d="M-414.95 556.42c7.372-11.306 18.724-21.12 23.102-31.752 15.732-38.202-8.813-74.451-51.533-72.461-8.588 15.188-27.1 65.926-40.695 83.894-1.52 2.008.324 4.76-.525 5.823 20.312 8.226 74.465 26.202 69.65 14.496z" style="stroke-width:.15805" transform="matrix(-.47205 0 0 .47195 24.417 -155.055)"/>
            <g style="stroke-width:.533078">
              <path fill="#d0a609" d="m-279.66 446.41-2.563-9.37 7.955-2.828z" style="stroke-width:.15805" transform="matrix(-.47205 0 0 .47195 83.823 -117.695)"/>
              <path fill="#ce8a14" d="m-282.58 437.13 2.828 9.37-13.17-6.807z" style="stroke-width:.15805" transform="matrix(-.47205 0 0 .47195 83.823 -117.695)"/>
              <path fill="#f2cc00" d="m-286.56 427.5 4.42 9.811 7.866-3.005z" style="stroke-width:.15805" transform="matrix(-.47205 0 0 .47195 83.823 -117.695)"/>
              <path fill="#e9c002" d="m-286.64 427.32-6.109 12.307 10.586-2.392z" style="stroke-width:.15805" transform="matrix(-.47205 0 0 .47195 83.823 -117.695)"/>
            </g>
            <g style="stroke-width:.533078">
              <path fill="#d0a609" d="m-279.66 446.41-2.563-9.37 7.955-2.828z" style="stroke-width:.15805" transform="matrix(-.4672 -.06263 -.03655 .47195 107.049 -138.252)"/>
              <path fill="#ce8a14" d="m-282.58 437.13 2.828 9.37-13.17-6.807z" style="stroke-width:.15805" transform="matrix(-.4672 -.06263 -.03655 .47195 107.049 -138.252)"/>
              <path fill="#f2cc00" d="m-286.56 427.5 4.42 9.811 7.866-3.005z" style="stroke-width:.15805" transform="matrix(-.4672 -.06263 -.03655 .47195 107.049 -138.252)"/>
              <path fill="#e9c002" d="m-286.64 427.32-6.109 12.307 10.586-2.392z" style="stroke-width:.15805" transform="matrix(-.4672 -.06263 -.03655 .47195 107.049 -138.252)"/>
            </g>
            <g style="stroke-width:.533078">
              <path fill="#d0a609" d="m-279.66 446.41-2.563-9.37 7.955-2.828z" style="stroke-width:.15805" transform="matrix(-.4672 -.095 -.03655 .46942 113.14 -148.659)"/>
              <path fill="#ce8a14" d="m-282.58 437.13 2.828 9.37-13.17-6.807z" style="stroke-width:.15805" transform="matrix(-.4672 -.095 -.03655 .46942 113.14 -148.659)"/>
              <path fill="#f2cc00" d="m-286.56 427.5 4.42 9.811 7.866-3.005z" style="stroke-width:.15805" transform="matrix(-.4672 -.095 -.03655 .46942 113.14 -148.659)"/>
              <path fill="#e9c002" d="m-286.64 427.32-6.109 12.307 10.586-2.392z" style="stroke-width:.15805" transform="matrix(-.4672 -.095 -.03655 .46942 113.14 -148.659)"/>
            </g>
            <g style="stroke-width:.533078">
              <path fill="#d0a609" d="m-279.66 446.41-2.563-9.37 7.955-2.828z" style="stroke-width:.15805" transform="matrix(-.4672 -.095 -.03655 .46942 119.347 -150.657)"/>
              <path fill="#ce8a14" d="m-282.58 437.13 2.828 9.37-13.17-6.807z" style="stroke-width:.15805" transform="matrix(-.4672 -.095 -.03655 .46942 119.347 -150.657)"/>
              <path fill="#f2cc00" d="m-286.56 427.5 4.42 9.811 7.866-3.005z" style="stroke-width:.15805" transform="matrix(-.4672 -.095 -.03655 .46942 119.347 -150.657)"/>
              <path fill="#e9c002" d="m-286.64 427.32-6.109 12.307 10.586-2.392z" style="stroke-width:.15805" transform="matrix(-.4672 -.095 -.03655 .46942 119.347 -150.657)"/>
            </g>
            <g style="stroke-width:.533078">
              <path fill="#d0a609" d="m-280.93 441.55-1.294-4.509 3.509-.727z" style="stroke-width:.15805" transform="matrix(-.47404 .0101 -.03408 .47071 91.81 -111.087)"/>
              <path fill="#ce8a14" d="m-282.2 437.12 1.189 3.994-1.943 3.259-9.961-4.682z" style="stroke-width:.15805" transform="matrix(-.47404 .0101 -.03408 .47071 91.81 -111.087)"/>
              <path fill="#f2cc00" d="m-286.56 427.5 4.42 9.811 3.836-1.466 1.418-3.3z" style="stroke-width:.15805" transform="matrix(-.47404 .0101 -.03408 .47071 91.81 -111.087)"/>
              <path fill="#e9c002" d="m-286.64 427.32-6.109 12.307 10.586-2.392z" style="stroke-width:.15805" transform="matrix(-.47404 .0101 -.03408 .47071 91.81 -111.087)"/>
            </g>
            <g style="stroke-width:.533078">
              <path fill="#d0a609" d="m-279.66 446.41-2.563-9.37 7.955-2.828z" style="stroke-width:.15805" transform="matrix(-.46908 -.0529 -.0529 .46897 105.309 -137.5)"/>
              <path fill="#ce8a14" d="m-282.58 437.13 2.828 9.37-13.17-6.807z" style="stroke-width:.15805" transform="matrix(-.46908 -.0529 -.0529 .46897 105.309 -137.5)"/>
              <path fill="#f2cc00" d="m-286.56 427.5 4.42 9.811 7.866-3.005z" style="stroke-width:.15805" transform="matrix(-.46908 -.0529 -.0529 .46897 105.309 -137.5)"/>
              <path fill="#e9c002" d="m-286.64 427.32-6.109 12.307 10.586-2.392z" style="stroke-width:.15805" transform="matrix(-.46908 -.0529 -.0529 .46897 105.309 -137.5)"/>
            </g>
            <g style="stroke-width:.533078">
              <path fill="#d0a609" d="m-279.66 446.41-2.563-9.37 7.955-2.828z" style="stroke-width:.15805" transform="matrix(-.4672 -.06263 -.03655 .47195 104.828 -144.689)"/>
              <path fill="#ce8a14" d="m-282.58 437.13 2.828 9.37-13.17-6.807z" style="stroke-width:.15805" transform="matrix(-.4672 -.06263 -.03655 .47195 104.828 -144.689)"/>
              <path fill="#f2cc00" d="m-286.56 427.5 4.42 9.811 7.866-3.005z" style="stroke-width:.15805" transform="matrix(-.4672 -.06263 -.03655 .47195 104.828 -144.689)"/>
              <path fill="#e9c002" d="m-286.64 427.32-6.109 12.307 10.586-2.392z" style="stroke-width:.15805" transform="matrix(-.4672 -.06263 -.03655 .47195 104.828 -144.689)"/>
            </g>
            <g style="stroke-width:.533078">
              <path fill="#d0a609" d="m-279.66 446.41-2.563-9.37 7.955-2.828z" style="stroke-width:.15805" transform="matrix(-.4672 -.095 -.03655 .46942 111.212 -155.22)"/>
              <path fill="#ce8a14" d="m-282.58 437.13 2.828 9.37-13.17-6.807z" style="stroke-width:.15805" transform="matrix(-.4672 -.095 -.03655 .46942 111.212 -155.22)"/>
              <path fill="#f2cc00" d="m-286.56 427.5 4.42 9.811 7.866-3.005z" style="stroke-width:.15805" transform="matrix(-.4672 -.095 -.03655 .46942 111.212 -155.22)"/>
              <path fill="#e9c002" d="m-286.64 427.32-6.109 12.307 10.586-2.392z" style="stroke-width:.15805" transform="matrix(-.4672 -.095 -.03655 .46942 111.212 -155.22)"/>
            </g>
            <g style="stroke-width:.533078">
              <path fill="#d0a609" d="m-279.66 446.41-2.563-9.37 7.955-2.828z" style="stroke-width:.15805" transform="matrix(-.4672 -.095 -.03655 .46942 117.584 -157.344)"/>
              <path fill="#ce8a14" d="m-282.58 437.13 2.828 9.37-13.17-6.807z" style="stroke-width:.15805" transform="matrix(-.4672 -.095 -.03655 .46942 117.584 -157.344)"/>
              <path fill="#f2cc00" d="m-286.56 427.5 4.42 9.811 7.866-3.005z" style="stroke-width:.15805" transform="matrix(-.4672 -.095 -.03655 .46942 117.584 -157.344)"/>
              <path fill="#e9c002" d="m-286.64 427.32-6.109 12.307 10.586-2.392z" style="stroke-width:.15805" transform="matrix(-.4672 -.095 -.03655 .46942 117.584 -157.344)"/>
            </g>
            <g style="stroke-width:.533078">
              <path fill="#ce8a14" d="m-281.4 437.23-.215 3.08-1.536 4.194-9.766-4.81z" style="stroke-width:.15805" transform="matrix(-.47404 .0101 -.03408 .47071 89.254 -116.732)"/>
              <path fill="#f2cc00" d="m-286.56 427.5 4.355 9.844 1.183-.074 1.355-6.405z" style="stroke-width:.15805" transform="matrix(-.47404 .0101 -.03408 .47071 89.254 -116.732)"/>
              <path fill="#e9c002" d="m-286.64 427.32-6.109 12.307 10.586-2.392z" style="stroke-width:.15805" transform="matrix(-.47404 .0101 -.03408 .47071 89.254 -116.732)"/>
            </g>
            <g style="stroke-width:.533078">
              <path fill="#d0a609" d="m-279.66 446.41-2.563-9.37 7.955-2.828z" style="stroke-width:.15805" transform="matrix(-.47205 0 0 .47195 78.723 -129.764)"/>
              <path fill="#ce8a14" d="m-282.58 437.13 2.828 9.37-13.17-6.807z" style="stroke-width:.15805" transform="matrix(-.47205 0 0 .47195 78.723 -129.764)"/>
              <path fill="#f2cc00" d="m-286.56 427.5 4.42 9.811 7.866-3.005z" style="stroke-width:.15805" transform="matrix(-.47205 0 0 .47195 78.723 -129.764)"/>
              <path fill="#e9c002" d="m-286.64 427.32-6.109 12.307 10.586-2.392z" style="stroke-width:.15805" transform="matrix(-.47205 0 0 .47195 78.723 -129.764)"/>
            </g>
            <g style="stroke-width:.533078">
              <path fill="#d0a609" d="m-279.66 446.41-2.563-9.37 7.955-2.828z" style="stroke-width:.15805" transform="matrix(-.4672 -.06263 -.03655 .47195 102.45 -150.779)"/>
              <path fill="#ce8a14" d="m-282.58 437.13 2.828 9.37-13.17-6.807z" style="stroke-width:.15805" transform="matrix(-.4672 -.06263 -.03655 .47195 102.45 -150.779)"/>
              <path fill="#f2cc00" d="m-286.56 427.5 4.42 9.811 7.866-3.005z" style="stroke-width:.15805" transform="matrix(-.4672 -.06263 -.03655 .47195 102.45 -150.779)"/>
              <path fill="#e9c002" d="m-286.64 427.32-6.109 12.307 10.586-2.392z" style="stroke-width:.15805" transform="matrix(-.4672 -.06263 -.03655 .47195 102.45 -150.779)"/>
            </g>
            <g style="stroke-width:.533078">
              <path fill="#d0a609" d="m-279.66 446.41-2.563-9.37 7.955-2.828z" style="stroke-width:.15805" transform="matrix(-.4672 -.095 -.03655 .46942 108.667 -161.686)"/>
              <path fill="#ce8a14" d="m-282.58 437.13 2.828 9.37-13.17-6.807z" style="stroke-width:.15805" transform="matrix(-.4672 -.095 -.03655 .46942 108.667 -161.686)"/>
              <path fill="#f2cc00" d="m-286.56 427.5 4.42 9.811 7.866-3.005z" style="stroke-width:.15805" transform="matrix(-.4672 -.095 -.03655 .46942 108.667 -161.686)"/>
              <path fill="#e9c002" d="m-286.64 427.32-6.109 12.307 10.586-2.392z" style="stroke-width:.15805" transform="matrix(-.4672 -.095 -.03655 .46942 108.667 -161.686)"/>
            </g>
            <g style="stroke-width:.533078">
              <path fill="#d0a609" d="m-279.66 446.41-2.563-9.37 7.955-2.828z" style="stroke-width:.15805" transform="matrix(-.4672 -.095 -.03655 .46942 114.997 -163.852)"/>
              <path fill="#ce8a14" d="m-282.58 437.13 2.828 9.37-13.17-6.807z" style="stroke-width:.15805" transform="matrix(-.4672 -.095 -.03655 .46942 114.997 -163.852)"/>
              <path fill="#f2cc00" d="m-286.56 427.5 4.42 9.811 7.866-3.005z" style="stroke-width:.15805" transform="matrix(-.4672 -.095 -.03655 .46942 114.997 -163.852)"/>
              <path fill="#e9c002" d="m-286.64 427.32-6.109 12.307 10.586-2.392z" style="stroke-width:.15805" transform="matrix(-.4672 -.095 -.03655 .46942 114.997 -163.852)"/>
            </g>
            <g style="stroke-width:.533078">
              <path fill="#ce8a14" d="m-284.96 437.85-.405 5.982-7.552-4.134z" style="stroke-width:.15805" transform="matrix(-.47404 .0101 -.03408 .47071 87.001 -122.739)"/>
              <path fill="#e9c002" d="m-286.27 426.43-6.481 13.202 7.752-1.533c.805-5.424-.21-8.772-1.271-11.668z" style="stroke-width:.15805" transform="matrix(-.47404 .0101 -.03408 .47071 87.001 -122.739)"/>
            </g>
            <g style="stroke-width:.533078">
              <path fill="#ce8a14" d="m-281.14 437.07 1.044 10.699-11.723-10.234z" style="stroke-width:.15805" transform="scale(-.47205 .47194)rotate(-15.155 -1444.894 908.37)"/>
              <path fill="#e9c002" d="m-285.35 425.75-6.303 11.843 10.303-.5z" style="stroke-width:.15805" transform="scale(-.47205 .47194)rotate(-15.155 -1444.894 908.37)"/>
            </g>
            <g style="stroke-width:.533078">
              <path fill="#d0a609" d="m-280.47 447.39-1.75-10.343 7.225-.313z" style="stroke-width:.15805" transform="matrix(-.45862 -.10895 -.0835 .46594 123.569 -167.665)"/>
              <path fill="#ce8a14" d="m-282.58 437.13 2.245 10.576-12.092-8.479z" style="stroke-width:.15805" transform="matrix(-.45862 -.10895 -.0835 .46594 123.569 -167.665)"/>
              <path fill="#f2cc00" d="m-285.32 425.23 3.188 12.075 6.846-.648z" style="stroke-width:.15805" transform="matrix(-.45862 -.10895 -.0835 .46594 123.569 -167.665)"/>
              <path fill="#e9c002" d="m-285.44 425.19-7.1 14.001 10.37-1.95z" style="stroke-width:.15805" transform="matrix(-.45862 -.10895 -.0835 .46594 123.569 -167.665)"/>
            </g>
            <g style="stroke-width:.533078">
              <path fill="#d0a609" d="m-279.66 446.41-2.563-9.37 7.955-2.828z" style="stroke-width:.15805" transform="matrix(-.45727 -.13493 -.07691 .46451 127.17 -177.243)"/>
              <path fill="#ce8a14" d="m-282.58 437.13 2.828 9.37-13.17-6.807z" style="stroke-width:.15805" transform="matrix(-.45727 -.13493 -.07691 .46451 127.17 -177.243)"/>
              <path fill="#f2cc00" d="m-286.98 425.98 4.849 11.328 7.866-3.005c-4.154-2.682-7.107-7.066-12.715-8.323" style="stroke-width:.15805" transform="matrix(-.45727 -.13493 -.07691 .46451 127.17 -177.243)"/>
              <path fill="#e9c002" d="m-286.88 426-5.875 13.632 10.586-2.392z" style="stroke-width:.15805" transform="matrix(-.45727 -.13493 -.07691 .46451 127.17 -177.243)"/>
            </g>
            <g style="stroke-width:.533078">
              <path fill="#d0a609" d="m-279.99 446.43-2.232-9.382 8.54-3.35z" style="stroke-width:.15805" transform="matrix(-.44889 -.16061 -.10311 .45941 147.436 -183.932)"/>
              <path fill="#ce8a14" d="m-282.58 437.13 2.828 9.37-13.17-6.807z" style="stroke-width:.15805" transform="matrix(-.44889 -.16061 -.10311 .45941 147.436 -183.932)"/>
              <path fill="#f2cc00" d="m-286.56 427.5 4.42 9.811 8.647-3.776c-4.027-3.046-8.619-4.314-13.067-6.035" style="stroke-width:.15805" transform="matrix(-.44889 -.16061 -.10311 .45941 147.436 -183.932)"/>
              <path fill="#e9c002" d="m-286.64 427.32-6.109 12.307 10.586-2.392z" style="stroke-width:.15805" transform="matrix(-.44889 -.16061 -.10311 .45941 147.436 -183.932)"/>
            </g>
            <path fill="none" stroke="#000" stroke-width="1.059" d="M-414.95 556.42c7.372-11.306 18.724-21.12 23.102-31.752 15.732-38.202-8.813-74.451-51.533-72.461-8.6 15.209-24.45 67.002-41.39 84.152-1.742 1.763 1.01 4.514.171 5.565 20.312 8.226 74.465 26.202 69.65 14.496z" transform="matrix(-.47205 0 0 .47195 24.417 -155.055)"/>
          </g>
          <g stroke="#000" stroke-width="1.059">
            <path fill="#d59b11" d="M-538.97 447.51c1.355-3.891 13.203-6.562 19.5 0-14.045 3.55 18.591 84.504 26.207 85.796-.555 2.881-1.663 3.737-3.715 2.913-23.205-9.316-43.768-74.22-41.992-88.709z" style="stroke-width:.314077" transform="matrix(.47205 0 0 .47195 486.922 -155.055)"/>
            <g fill="#fff" style="stroke-width:.314077">
              <path d="M-338.26 432.8a3.712 3.712 0 1 1-7.425 0 3.712 3.712 0 0 1 7.425 0zm4.15-7.25a4.243 4.243 0 1 1-8.485 0 4.243 4.243 0 0 1 8.485 0z" style="stroke-width:1.05933" transform="matrix(-.47205 0 0 .47195 82.857 -119.364)"/>
              <path d="M-330.57 417.42a4.596 4.596 0 1 1-9.192 0 4.596 4.596 0 0 1 9.192 0z" style="stroke-width:1.05933" transform="matrix(-.47205 0 0 .47195 82.857 -119.364)"/>
              <path d="M-326.95 408.23a5.038 5.038 0 1 1-10.076 0 5.038 5.038 0 0 1 10.076 0z" style="stroke-width:1.05933" transform="matrix(-.47205 0 0 .47195 82.857 -119.364)"/>
              <path d="M-324.21 398.24a5.215 5.215 0 1 1-10.43 0 5.215 5.215 0 0 1 10.43 0z" style="stroke-width:1.05933" transform="matrix(-.47205 0 0 .47195 82.857 -119.364)"/>
              <path d="M-320.32 387.1a6.01 6.01 0 1 1-12.02 0 6.01 6.01 0 0 1 12.02 0z" style="stroke-width:1.05933" transform="matrix(-.47205 0 0 .47195 82.857 -119.364)"/>
              <path d="M-318.37 375.35a6.806 6.806 0 1 1-13.612 0 6.806 6.806 0 0 1 13.612 0z" style="stroke-width:1.05933" transform="matrix(-.47205 0 0 .47195 82.857 -119.823)"/>
            </g>
            <path fill="#f2cc00" d="M-495.32 499.11c1.451-17.687-6.877-54.901-11.837-52.566.751-2.22 3.227-3.775 5.917-2.302 1.548.848 10.94 41.055 8.635 54.439-.176 1.022-1.96.154-2.715.428z" style="stroke-width:.314077" transform="matrix(.47205 0 0 .47195 486.922 -155.055)"/>
          </g>
          <g stroke="#000" stroke-width="1.059">
            <path fill="#d59b11" d="M-315.75 371.89c-1.355-3.891-13.203-6.562-19.5 0 14.045 3.55-18.768 84.239-26.384 85.53.555 2.881 1.84 4.002 3.892 3.179 23.205-9.316 43.768-74.221 41.992-88.71z" style="stroke-width:.314077" transform="matrix(.47205 0 0 .47195 429.78 -119.364)"/>
            <g fill="#fff" style="stroke-width:.314077">
              <path d="M-338.26 432.8a3.712 3.712 0 1 1-7.425 0 3.712 3.712 0 0 1 7.425 0zm4.15-7.25a4.243 4.243 0 1 1-8.485 0 4.243 4.243 0 0 1 8.485 0z" style="stroke-width:1.05933" transform="matrix(.47205 0 0 .47195 430.368 -119.364)"/>
              <path d="M-330.57 417.42a4.596 4.596 0 1 1-9.192 0 4.596 4.596 0 0 1 9.192 0z" style="stroke-width:1.05933" transform="matrix(.47205 0 0 .47195 430.368 -119.364)"/>
              <path d="M-326.95 408.23a5.038 5.038 0 1 1-10.076 0 5.038 5.038 0 0 1 10.076 0z" style="stroke-width:1.05933" transform="matrix(.47205 0 0 .47195 430.368 -119.364)"/>
              <path d="M-324.21 398.24a5.215 5.215 0 1 1-10.43 0 5.215 5.215 0 0 1 10.43 0z" style="stroke-width:1.05933" transform="matrix(.47205 0 0 .47195 430.368 -119.364)"/>
              <path d="M-320.32 387.1a6.01 6.01 0 1 1-12.02 0 6.01 6.01 0 0 1 12.02 0z" style="stroke-width:1.05933" transform="matrix(.47205 0 0 .47195 430.368 -119.364)"/>
              <path d="M-318.37 375.35a6.806 6.806 0 1 1-13.612 0 6.806 6.806 0 0 1 13.612 0z" style="stroke-width:1.05933" transform="matrix(.47205 0 0 .47195 430.368 -119.823)"/>
            </g>
            <path fill="#f2cc00" d="M-484.1 499.11c-1.451-17.687 6.877-54.901 11.837-52.566-.751-2.22-3.227-3.775-5.917-2.302-1.548.848-10.94 41.055-8.635 54.439.176 1.022 1.96.154 2.715.428z" style="stroke-width:.314077" transform="matrix(.47205 0 0 .47195 488.81 -155.055)"/>
          </g>
          <path fill="#f3cd00" stroke="#000" stroke-width="1.059" d="M-364.91 414.25c-4.509 2.39-3.24 4.603-4.187 7.313-.913-.664-7.26-2.054-8.782 5.75 9.505-.434 6.951 7.879 6.813 8.156-1.929 3.856-9.607.953-7.5-4.906-1.478.063-9.08.425-5.281 8.906-4.226.288-10.746 7.823-.282 9.75-.356 1.07-.76 10.672 6.907 7.437-1.11-1.657-.558-10.102 4.5-7.75 7.822 3.638-.687 13.885-7.782 16.25-7.098 2.162-35.986 1.767-27.938-11.312 3.382-3.381 6.344 3.135 6.344 5.656 0 1.07 6.565-1.084 3.625-8.5 11.055-4.26 3.654-8.937.281-8.937 1.95-4.09-3.397-8.89-7.437-6.594.87.862 1.529 9.627-5.938 5.781-.98-.504-4.056-8.81 3.625-6.843-.292-6.096-2.511-5.483-8.437-5-.638-8.088-12.197-6.247-8.531 2.25-5.796.295-8.281 3.376-5.875 7.718 2.109-.297 7.94-.679 6.343 4.438-1.74 5.576-6.884 1.3-7.718-1.656-4.463-.33-5.466 6.562-3.063 8.5-6.741 3.6-2.69 9.862 3.656 8.28-2.396 5.8 5.18 8.385 6.594 6-2.038-2.574-.712-8.834 3.344-7.718 9.18 2.526-3.594 16.672-9.813 17.844-4.025.759-23.235-1.515-17.312-7.437 2.166-2.166 4.3.125 6.375 3 3.399-2.515 1.832-6.572-2.343-7.282 7.338-2.454 3.137-10.15-2.438-6.656-.772-1.917-2.56-7.301-7.687-5.062.861.758 3.231 7.003-2.375 6.812-1.112-.038-6.449-5.838-.22-7.281-.922-4.415-6.47-2.309-7.218-2.438-.349-1.962-8.344-6.09-10.469 1.688 3.213-1.626 7.304 1.399 8.5 10.53 2.122 16.2 23.77 6.881 24.938 24.376l1.781-.719c18.29-6.65 74.935-13.838 75-13.969.066.13 56.711 7.319 75 13.97l1.75.718c1.169-17.495 22.816-8.176 24.938-24.375 1.196-9.132 5.288-12.157 8.5-10.531-2.125-7.778-10.089-3.65-10.438-1.688-.748.13-6.295-1.977-7.218 2.438 6.229 1.443.892 7.243-.22 7.281-5.606.191-3.236-6.054-2.374-6.812-5.128-2.24-6.915 3.145-7.688 5.062-5.574-3.493-9.807 4.202-2.469 6.656-4.175.71-5.71 4.767-2.312 7.282 2.075-2.875 4.21-5.166 6.375-3 5.922 5.922-13.319 8.196-17.344 7.437-6.219-1.172-18.992-15.318-9.812-17.844 4.055-1.116 5.413 5.144 3.374 7.719 1.414 2.384 8.99-.201 6.594-6 6.347 1.581 10.397-4.68 3.656-8.281 2.403-1.938 1.37-8.83-3.093-8.5-.835 2.956-5.947 7.232-7.688 1.656-1.597-5.117 4.235-4.735 6.344-4.438 2.406-4.342-.079-7.423-5.875-7.718 3.666-8.497-7.893-10.338-8.531-2.25-5.926-.483-8.146-1.096-8.438 5 7.681-1.967 4.605 6.339 3.625 6.843-7.466 3.846-6.84-4.92-5.969-5.78-4.04-2.297-9.387 2.502-7.437 6.593-3.373 0-10.774 4.678.281 8.937-2.94 7.416 3.625 9.57 3.625 8.5 0-2.52 2.994-9.037 6.375-5.656 8.049 13.08-20.839 13.474-27.938 11.312-7.095-2.365-15.604-12.613-7.781-16.25 5.057-2.351 5.61 6.093 4.5 7.75 7.667 3.235 7.263-6.367 6.906-7.437 10.465-1.927 3.913-9.462-.312-9.75 3.799-8.481-3.772-8.843-5.25-8.906 2.107 5.86-5.603 8.762-7.531 4.906-.139-.277-2.693-8.59 6.812-8.156-1.522-7.804-7.838-6.414-8.75-5.75-.948-2.71.321-4.923-4.187-7.313z" transform="matrix(.47205 0 0 .47195 428.954 -119.364)"/>
          <g fill="#f2cc00" stroke="#000" style="stroke-width:.316101">
            <g stroke-width="1.059">
              <path d="M-489.96 567.72c-39.804 0-66.129 8.4-76.062 14.062-3.31 7.23-1.695 19.412-.281 21.75 7.248-1.463 21.65-13.719 76.344-13.719s69.065 12.256 76.312 13.719c1.414-2.338 3.029-14.52-.281-21.75-9.934-5.662-36.227-14.062-76.031-14.062z" style="stroke-width:1.05933" transform="matrix(.47205 0 0 .47195 487.984 -165.777)"/>
              <path d="M-489.96 588.25c-54.657 0-85.64 16.812-77.844 16.812s23.151-12.75 77.844-12.75 70.016 12.75 77.812 12.75-23.156-16.812-77.812-16.812zm0-22.25c-54.657 0-85.64 16.812-77.844 16.812s23.151-12.75 77.844-12.75 70.016 12.75 77.812 12.75S-435.304 566-489.96 566z" style="stroke-width:1.05933" transform="matrix(.47205 0 0 .47195 487.984 -165.777)"/>
            </g>
            <g stroke-width=".533">
              <g stroke-width="1.059">
                <path d="M-301.93 489.63a3.536 3.536 0 1 1-7.071 0 3.536 3.536 0 0 1 7.071 0z" style="stroke-width:1.05933" transform="matrix(.47205 0 0 .47195 428.954 -119.364)"/>
                <path d="M-301.93 489.63a3.536 3.536 0 1 1-7.071 0 3.536 3.536 0 0 1 7.071 0z" style="stroke-width:1.05933" transform="matrix(.47205 0 0 .47195 410.596 -122.868)"/>
                <path d="M-299.94 492.32s14.713 10.301 14.688 6.563l-.062-9.125c-.017-2.388-9.364 1.44-14.625 2.562z" style="stroke-width:1.05933" transform="matrix(.47205 0 0 .47195 428.954 -119.364)"/>
              </g>
              <path stroke-width="1.224" d="M-963.35 565.02h13.766v13.766h-13.766z" transform="matrix(.45675 -.11922 .39188 .26313 487.984 -155.055)"/>
              <g style="stroke-width:.533078">
                <g stroke-width="1.059">
                  <path d="M-301.93 489.63a3.536 3.536 0 1 1-7.071 0 3.536 3.536 0 0 1 7.071 0z" style="stroke-width:1.05933" transform="matrix(-.47205 0 0 .47195 83.84 -119.364)"/>
                  <path d="M-301.93 489.63a3.536 3.536 0 1 1-7.071 0 3.536 3.536 0 0 1 7.071 0z" style="stroke-width:1.05933" transform="matrix(-.47205 0 0 .47195 102.198 -122.868)"/>
                  <path d="M-299.94 492.32s14.713 10.301 14.688 6.563l-.062-9.125c-.017-2.388-9.364 1.44-14.625 2.562z" style="stroke-width:1.05933" transform="matrix(-.47205 0 0 .47195 83.84 -119.364)"/>
                </g>
                <path stroke-width="1.224" d="M-963.35 565.02h13.766v13.766h-13.766z" transform="matrix(-.45675 -.11922 -.39188 .26313 24.809 -155.055)"/>
              </g>
            </g>
          </g>
          <g fill="#fff" stroke="#000" stroke-width="1.059">
            <path d="M-266.58 465.06c0 3.71-1.504 6.718-3.359 6.718s-3.359-3.008-3.359-6.718 1.504-6.717 3.36-6.717c1.854 0 3.358 3.007 3.358 6.717z" style="stroke-width:1.05933" transform="matrix(.36393 .30057 -.30064 .36385 540.326 12.46)"/>
            <path d="M-308.65 449.86c0 3.808-1.979 6.894-4.42 6.894s-4.419-3.086-4.419-6.894 1.979-6.894 4.42-6.894 4.419 3.086 4.419 6.894z" style="stroke-width:1.05933" transform="matrix(.4663 .07353 -.07355 .46618 460.234 -93.75)"/>
            <g style="stroke-width:1.05933">
              <path d="M-266.58 465.06c0 3.71-1.504 6.718-3.359 6.718s-3.359-3.008-3.359-6.718 1.504-6.717 3.36-6.717c1.854 0 3.358 3.007 3.358 6.717z" style="stroke-width:1.05933" transform="matrix(-.36393 .30057 .30064 .36385 -27.249 12.462)"/>
              <path d="M-308.65 449.86c0 3.808-1.979 6.894-4.42 6.894s-4.419-3.086-4.419-6.894 1.979-6.894 4.42-6.894 4.419 3.086 4.419 6.894z" style="stroke-width:1.05933" transform="matrix(-.4663 .07353 .07355 .46618 52.851 -93.75)"/>
            </g>
            <path d="M-360.36 442.7c0 4.028-2.018 7.294-4.508 7.294s-4.508-3.266-4.508-7.294 2.019-7.294 4.508-7.294c2.49 0 4.508 3.266 4.508 7.294z" style="stroke-width:1.05933" transform="matrix(.47205 0 0 .47195 428.954 -119.364)"/>
          </g>
        </g>
      </g>
      <path fill="#f2cc00" stroke="#000" stroke-width="1.257" d="M-1261.6 717.34h13.47v13.47h-13.47z" transform="scale(.61616 .25688)rotate(-45 -787.638 -1446.27)"/>
    </g>
  </g>
</svg>
