<svg id="flag-icons-ua-18" class="fi fi-ua-18" viewBox="0 0 512 512" xmlns="http://www.w3.org/2000/svg" width="512" height="512" version="1.0">
  <metadata id="flag-icons">
    <name>Zhytomyr Oblast</name>
    <code>ua-18</code>
    <iso>true</iso>
    <type>Place</type>
    <capital>Zhytomyr</capital>
    <continent>Europe</continent>
  </metadata>
  <path d="M0 0h512v512H0z" style="fill:#ee161f;fill-opacity:1;stroke:#fff;stroke-width:0;stroke-miterlimit:4;stroke-dasharray:none;stroke-opacity:1"/>
  <path d="M0 234.667h512v42.667H0z" style="fill:#fff215;fill-opacity:1;fill-rule:evenodd;stroke-width:.999996"/>
  <path d="M234.667 0h42.667v512h-42.667z" style="fill:#fff215;fill-opacity:1;fill-rule:evenodd;stroke-width:.999999"/>
  <g style="stroke-width:3.88143">
    <path d="M1050 494.947v494.947c0 20.698 2.095 40.941 6.094 60.463s9.75 38.302 17.344 56.244c7.593 17.941 16.87 34.66 27.656 50.62 10.786 15.958 23.456 30.952 37.031 44.526 13.575 13.573 28.101 25.773 44.063 36.558 15.96 10.785 33.15 20.06 51.093 27.654 17.944 7.592 36.727 13.812 56.25 17.81s39.769 6.093 60.469 6.093 40.945-2.095 60.469-6.093c19.523-3.998 38.306-10.218 56.25-17.81 17.944-7.593 35.132-16.869 51.094-27.654 15.96-10.785 30.487-22.985 44.062-36.558s26.245-28.568 37.031-44.527c10.786-15.96 20.063-32.678 27.657-50.62 7.593-17.941 13.345-36.722 17.343-56.243 3.999-19.522 6.094-39.765 6.094-60.463V494.947Z" style="fill:#00aef5;fill-opacity:1;stroke:#000;stroke-width:0;stroke-miterlimit:4;stroke-dasharray:none;stroke-opacity:1" transform="translate(-91.81 26.083)scale(.25764)"/>
    <g style="stroke-width:1.15005">
      <g style="opacity:1;stroke-width:1.15005">
        <g style="stroke-width:1.15005">
          <g style="stroke-width:1.15005">
            <path d="M79.076 191.643h18.64v37.84h-18.64zm18.526-.002h38.975v37.843H97.602Zm39.086.115h15.106v37.614h-15.106Zm-57.612-21.014h38.737v21.008H79.076Zm38.973 0h33.645v21.005h-33.645Zm-38.973-34.94H99.41v34.935H79.076Zm20.272-.045h37.34v34.87h-37.34Zm37.34.218h14.924v34.767h-14.924ZM79.076 99.68h38.057v36.138H79.076Zm38.068-.002h34.386v36.28h-34.386z" style="opacity:1;fill:#fff;fill-opacity:1;stroke:#000;stroke-width:1.07817;stroke-miterlimit:4;stroke-opacity:1" transform="matrix(-.38908 0 0 .38904 343.87 145.326)"/>
            <g style="stroke-width:1.15005">
              <path d="M88.396 117.24h15.541v37.99H88.396zm19.283 0h15.541v37.99h-15.541zm19.571 0h15.541v37.99H127.25z" style="opacity:1;fill:#000;fill-opacity:1;stroke:#000;stroke-width:0;stroke-miterlimit:4;stroke-dasharray:none;stroke-opacity:1" transform="matrix(-.38908 0 0 .38904 343.87 145.326)"/>
            </g>
          </g>
          <path d="M76.928 95.69h77.014v6.87H76.928z" style="opacity:1;fill:#fff;fill-opacity:1;stroke:#000;stroke-width:1.07817;stroke-linejoin:round;stroke-miterlimit:4;stroke-dasharray:none;stroke-opacity:1" transform="matrix(-.38908 0 0 .38904 343.87 145.326)"/>
          <path d="M72.325 69.031v31h86.22v-31h-12.157v14.844h-11.031V69.031h-13.875v14.844H110.45V69.031H96.575v14.844h-11.03V69.031Z" style="opacity:1;fill:#fff;fill-opacity:1;stroke:#000;stroke-width:1.07817;stroke-linejoin:round;stroke-miterlimit:4;stroke-dasharray:none;stroke-opacity:1" transform="matrix(-.38908 0 0 .38904 343.87 145.326)"/>
        </g>
        <g style="stroke-width:1.15005">
          <g style="stroke-width:1.15005">
            <path d="M79.076 191.643h18.64v37.84h-18.64zm18.526-.002h38.975v37.843H97.602Zm39.086.115h15.106v37.614h-15.106Zm-57.612-21.014h38.737v21.008H79.076Zm38.973 0h33.645v21.005h-33.645Zm-38.973-34.94H99.41v34.935H79.076Zm20.272-.045h37.34v34.87h-37.34Zm37.34.218h14.924v34.767h-14.924ZM79.076 99.68h38.057v36.138H79.076Zm38.068-.002h34.386v36.28h-34.386z" style="opacity:1;fill:#fff;fill-opacity:1;stroke:#000;stroke-width:1.07817;stroke-miterlimit:4;stroke-opacity:1" transform="matrix(.38908 0 0 .38904 168.146 145.028)"/>
            <g style="stroke-width:1.15005">
              <path d="M88.396 117.24h15.541v37.99H88.396zm19.283 0h15.541v37.99h-15.541zm19.571 0h15.541v37.99H127.25z" style="opacity:1;fill:#000;fill-opacity:1;stroke:#000;stroke-width:0;stroke-miterlimit:4;stroke-dasharray:none;stroke-opacity:1" transform="matrix(.38908 0 0 .38904 168.146 145.028)"/>
            </g>
          </g>
          <path d="M76.928 95.69h77.014v6.87H76.928z" style="opacity:1;fill:#fff;fill-opacity:1;stroke:#000;stroke-width:1.07817;stroke-linejoin:round;stroke-miterlimit:4;stroke-dasharray:none;stroke-opacity:1" transform="matrix(.38908 0 0 .38904 168.146 145.028)"/>
          <path d="M72.325 69.031v31h86.22v-31h-12.157v14.844h-11.031V69.031h-13.875v14.844H110.45V69.031H96.575v14.844h-11.03V69.031Z" style="opacity:1;fill:#fff;fill-opacity:1;stroke:#000;stroke-width:1.07817;stroke-linejoin:round;stroke-miterlimit:4;stroke-dasharray:none;stroke-opacity:1" transform="matrix(.38908 0 0 .38904 168.146 145.028)"/>
        </g>
        <g style="stroke-width:1.15005">
          <path d="M330.961 1897.439h16.135v47.92h-16.135zm16.127-.036h25.387v47.956h-25.387zm25.342-.032h29.49v47.988h-29.49zm29.445-.068h13.957v48.054h-13.957zm-70.995-21.06h26.806v21.114H330.88zm26.635.08h32.38v21.122h-32.38Zm32.425 0h25.803v21.158H389.94zm-59.11-37.49h13.033v37.404H330.83zm13.055.087h28.545v37.279h-28.545zm28.403-.175h31.935v37.657h-31.935zm-41.628-59.975h13.335v60.025H330.66zm13.324.038h28.156v60.283h-28.156zm28.221 0h31.82v60.08h-31.82zm31.848.042h11.651v59.828h-11.65Zm.083 59.78h11.65v37.657h-11.65Z" style="opacity:1;fill:#fff;fill-opacity:1;stroke:#000;stroke-width:1.07817;stroke-linejoin:round;stroke-miterlimit:4;stroke-opacity:1" transform="matrix(.38908 0 0 .38904 110.914 -521.208)"/>
          <path d="M319.719 1755.25v35.656H426.78v-35.656H411v14.438h-14.531v-14.438h-16.281v14.438h-14.5v-14.438h-16.313v14.438h-14.5v-14.438Z" style="opacity:1;fill:#fff;fill-opacity:1;stroke:#000;stroke-width:1.07817;stroke-linejoin:round;stroke-miterlimit:4;stroke-dasharray:none;stroke-opacity:1" transform="matrix(.38908 0 0 .38904 110.914 -521.208)"/>
          <path d="M344.628 1812.406h14.436v47.59h-14.436zm21.602 0h14.436v47.59H366.23zm21.602 0h14.436v47.59h-14.436z" style="opacity:1;fill:#000;fill-opacity:1;stroke:#000;stroke-width:0;stroke-linejoin:miter;stroke-miterlimit:4;stroke-dasharray:none;stroke-opacity:1" transform="matrix(.38908 0 0 .38904 110.914 -521.208)"/>
        </g>
        <g style="stroke-width:1.15005">
          <path d="M371.135 280.192v21.843h22.812v-22h-.062v.157zm0 0h22.75v-.157h-22.75zm-80.782 21.687h.032v-21.656h-.032zm20.032-21.687v.062h44.343v-.062h-44.281zm-20.032 0v.03h.032v21.657h-.032v.125h80.72v-21.812h-16.345v.062h-44.343v-.062zm-20.718.03h20.718v-.03h-20.718zm-167.313-.03v.062h44.313v-.062h-44.282zm64.375.03h20.719v-.03h-20.719zm0 21.657v-21.656h-.031v21.656zm0 0h-.031v-21.656h.031v-.031h-20.062v.062h-44.313v-.062H85.947v21.812h80.75zm47.094-21.625h-26.375v-.031h-20.719v21.656h24.063c.945-2.052 1.932-4.08 3.187-5.937a42.6 42.6 0 0 1 5.188-6.25 42.4 42.4 0 0 1 6.25-5.157 42.3 42.3 0 0 1 7.187-3.906c.388-.164.825-.222 1.219-.375zm.094-.031h-26.47v.031h26.376zm30.406.031h25.344v-.031h-25.438zm23.062 21.625h23v-21.656h-20.718v.031H244.29c.394.153.83.21 1.219.375a42.3 42.3 0 0 1 7.187 3.906 42.4 42.4 0 0 1 6.25 5.156 42.6 42.6 0 0 1 5.188 6.25c1.256 1.86 2.265 3.885 3.218 5.938zm103.844 73.438h-.031v25.25h.031zm0 0v25.25h22.75v-25.25zm-.031-21.844h22.781v-25.25h-22.781zm-16.531 0v21.781h39.312v-21.781h-22.781zm.25-51.406v26.062h39.062v-26.062zm-87.438-.032c.174.38.431.71.594 1.094a42 42 0 0 1 2.469 7.938c.283 1.382.855 2.853 1 4.28v12.813h83.375v-26.125zm-165.281.032v26.093h84.406v-12.812c.145-1.427.748-2.9 1.031-4.282a42 42 0 0 1 2.47-7.937c.162-.386.42-.714.593-1.094h-88.5zM63.26 328.129h38.906v-26.062H63.26Zm0 25.344h22.593v-25.25H63.26zm0 21.781h39.125v-21.781H63.26Zm22.562.063v25.25h.031v-25.25zm-22.562 25.25h22.562v-25.25H63.26zm123.312 0H63.26v42.03h123.312Zm0-25.22h-84.156v-.062H85.822v.031h.031v25.25h100.72Zm0-.062h-84.156v.063h84.156zm-84.156-21.843v21.843h84.156v-21.843zm0 0h84.156v-.094h-84.156zm84.156-25.25v-.032h-84.406v-.03H63.26v.093h22.593v25.25h16.532v21.781H63.26v.063h22.562v-.032h16.594v-21.843H85.978v-25.25zm0 0H85.978v25.25h16.438v-.094h84.156zm84.938 25.156h83.125v.093h16.437v-25.25H271.51zm0 .093h83.125v-.093H271.51zm0 21.844h83.125v-21.843H271.51zm0 .063h83.125v-.063H271.51zm0 25.218h99.656v-25.25h.031v-.03h-16.562v.062H271.51zm122.375-144.78v24.25h.062v22h-22.812V280.19h-.063v21.813h-80.719v-.125h-23c.026.055.069.1.094.156h87.438v.031h39.062v26.063h-39.062v.031H271.51v.031h99.562v25.25h-16.437v.032h16.53v-25.25h22.782v47.03h-39.312v.032h16.562v.031h22.75v25.25H271.51v42.031h122.53V255.785zm-39.157 0v24.405h16.407v-.156h22.75v-24.25zm-.062 0v24.405h.062v-24.406zm-44.219 0v24.405h44.219v-24.406zm-.062 0v24.405h.062v-24.406zm-40.75 0v24.405h40.75v-24.406zm-29.094 0v23.312c1.231.35 2.473.668 3.656 1.125h25.438v-24.438zm-24.031 0v23.624c1.334-.417 2.611-.965 4-1.25a42.5 42.5 0 0 1 8.53-.875c2.92 0 5.779.311 8.532.875 1.031.211 1.967.653 2.969.938v-23.313zm-29.094 0v24.437h26.469c.85-.328 1.75-.54 2.625-.813v-23.625zm-40.781 0v24.405h40.781v-24.406zm-.032 0v24.405h.032v-24.406zm-44.25 0v24.405h44.25v-24.406zm-.03 0v24.405h.03v-24.406zM85.915 280.19h16.406v-24.406H63.26v24.25h22.656zm0 0v-.156H63.26v.156zM63.26 302.035v.031h38.906v-.03h88.5c.025-.056.068-.102.094-.157h-24.063v.125h-80.75v-21.813h-.031v21.844zm0 0h22.656v-21.844H63.26z" style="opacity:1;fill:#fff;fill-opacity:1;stroke:#000;stroke-width:1.07817;stroke-miterlimit:4;stroke-opacity:1" transform="matrix(.38908 0 0 .38904 166.945 142.757)"/>
          <path d="M59.774 239.776H399.03v17.284H59.774z" style="opacity:1;fill:#fff;fill-opacity:1;stroke:#000;stroke-width:1.07817;stroke-miterlimit:4;stroke-dasharray:none;stroke-opacity:1" transform="matrix(.38908 0 0 .38904 166.945 142.757)"/>
          <path d="M53.188 202.313v44.718h351.437v-44.719h-21.656v23.47H370.03v-23.47h-18.437v23.47h-12.938v-23.47H318.25v23.47h-12.969v-23.47h-20.906v23.47h-12.937v-23.47H252v23.47h-12.937v-23.47h-20.438v23.47h-12.937v-23.47H187.25v23.47h-12.937v-23.47h-20.438v23.47h-12.937v-23.47H120.53v23.47h-12.969v-23.47H89.157v23.47h-12.97v-23.47Z" style="opacity:1;fill:#fff;fill-opacity:1;stroke:#000;stroke-width:1.07817;stroke-miterlimit:4;stroke-dasharray:none;stroke-opacity:1" transform="matrix(.38908 0 0 .38904 166.945 142.757)"/>
        </g>
      </g>
      <g style="stroke-width:1.15005">
        <path d="M58.875 1788.719v164.844h51.594v-104.657c.009-.032.022-.062.031-.094v-23.031c-5.821-19.951-26.415-35.114-51.625-37.063z" style="opacity:1;fill:#fff;fill-opacity:1;stroke:#000;stroke-width:1.07817;stroke-linejoin:miter;stroke-miterlimit:4;stroke-dasharray:none;stroke-opacity:1" transform="matrix(.38908 0 0 .38904 192.155 -445.033)"/>
        <path d="M81.563 1837.125v6.594l-10.063-4-2.75 6.906 12.813 5.094v8.531h5.687V1854l5.875 2.344v9.344h5.688v-7.094l12.906 5.156 2.75-6.906-15.656-6.25v-8.031h-5.688v5.78L87.25 1846v-8.875zm-.439 43.293v6.594l-10.062-4-2.75 6.906 12.812 5.094v8.531h5.688v-6.25l5.875 2.344v9.344h5.687v-7.094l12.906 5.156 2.75-6.906-15.656-6.25v-8.031h-5.687v5.78l-5.875-2.343v-8.875z" style="opacity:1;fill:#000;fill-opacity:1;stroke:#000;stroke-width:0;stroke-linejoin:miter;stroke-miterlimit:4;stroke-dasharray:none;stroke-opacity:1" transform="matrix(.38908 0 0 .38904 192.155 -445.033)"/>
      </g>
      <path d="M151.656 1779.82c-20.994 4.66-37.355 21.772-41.062 43.23h-.063v130.57h12.47v-130.57c2.825-15.425 14.014-27.922 28.655-32.54z" style="opacity:1;fill:#fff;fill-opacity:1;stroke:#000;stroke-width:1.07817;stroke-linejoin:miter;stroke-miterlimit:4;stroke-dasharray:none;stroke-opacity:1" transform="matrix(.38908 0 0 .38904 192.121 -445.031)"/>
      <g style="stroke-width:1.15005">
        <path d="M58.875 1788.719v164.844h51.594v-104.657c.009-.032.022-.062.031-.094v-23.031c-5.821-19.951-26.415-35.114-51.625-37.063z" style="opacity:1;fill:#fff;fill-opacity:1;stroke:#000;stroke-width:1.07817;stroke-linejoin:miter;stroke-miterlimit:4;stroke-dasharray:none;stroke-opacity:1" transform="matrix(-.38908 0 0 .38904 319.72 -445.033)"/>
        <path d="M81.563 1837.125v6.594l-10.063-4-2.75 6.906 12.813 5.094v8.531h5.687V1854l5.875 2.344v9.344h5.688v-7.094l12.906 5.156 2.75-6.906-15.656-6.25v-8.031h-5.688v5.78L87.25 1846v-8.875zm-.439 43.293v6.594l-10.062-4-2.75 6.906 12.812 5.094v8.531h5.688v-6.25l5.875 2.344v9.344h5.687v-7.094l12.906 5.156 2.75-6.906-15.656-6.25v-8.031h-5.687v5.78l-5.875-2.343v-8.875z" style="opacity:1;fill:#000;fill-opacity:1;stroke:#000;stroke-width:0;stroke-linejoin:miter;stroke-miterlimit:4;stroke-dasharray:none;stroke-opacity:1" transform="matrix(-.38908 0 0 .38904 319.72 -445.033)"/>
      </g>
      <path d="M176.396 1779.585c20.995 4.664 37.355 21.793 41.062 43.274h.063v130.706h-12.469V1822.86c-2.826-15.44-14.015-27.95-28.656-32.574z" style="opacity:1;fill:#fff;fill-opacity:1;stroke:#000;stroke-width:1.07817;stroke-linejoin:miter;stroke-miterlimit:4;stroke-dasharray:none;stroke-opacity:1" transform="matrix(.38908 0 0 .38904 192.121 -445.031)"/>
    </g>
  </g>
</svg>
