<svg id="flag-icons-uz-qr" class="fi fi-uz-qr" viewBox="0 0 512 512" xmlns="http://www.w3.org/2000/svg" xmlns:xlink="http://www.w3.org/1999/xlink" width="512" height="512">
  <metadata id="flag-icons">
    <name>Karakalpakstan</name>
    <code>uz-qr</code>
    <iso>true</iso>
    <type>Place</type>
    <capital>Nukus</capital>
    <continent>Europe</continent>
  </metadata>
  <defs>
    <linearGradient id="a">
      <stop offset="0" style="stop-color:#fff;stop-opacity:1"/>
    </linearGradient>
    <linearGradient xlink:href="#a" id="b" x1="3851.177" x2="4419.354" y1="1693.212" y2="1693.212" gradientTransform="translate(-46.145 -54.016)scale(17.45945)" gradientUnits="userSpaceOnUse"/>
    <linearGradient xlink:href="#a" id="c" x1="3222.622" x2="3790.541" y1="1691.844" y2="1691.844" gradientTransform="translate(-46.145 -54.016)scale(17.45945)" gradientUnits="userSpaceOnUse"/>
    <linearGradient xlink:href="#a" id="d" x1="2593.044" x2="3158.069" y1="1694.722" y2="1694.722" gradientTransform="translate(-46.145 -54.016)scale(17.45945)" gradientUnits="userSpaceOnUse"/>
    <linearGradient xlink:href="#a" id="e" x1="3537.026" x2="4104.807" y1="1327.441" y2="1327.441" gradientTransform="translate(-46.145 -54.016)scale(17.45945)" gradientUnits="userSpaceOnUse"/>
    <linearGradient xlink:href="#a" id="f" x1="2907.476" x2="3476.135" y1="1324.746" y2="1324.746" gradientTransform="translate(-46.145 -54.016)scale(17.45945)" gradientUnits="userSpaceOnUse"/>
    <linearGradient xlink:href="#a" id="g" x1="1230.725" x2="2253.835" y1="1292.689" y2="1292.689" gradientTransform="translate(133.725)scale(15)" gradientUnits="userSpaceOnUse"/>
  </defs>
  <g style="stroke-width:15">
    <g style="stroke-width:18.3711">
      <path d="M0 0h11520v7680H0z" style="fill:#fff;fill-opacity:1;fill-rule:evenodd;stroke-width:18.3711" transform="scale(.04444 .06667)"/>
      <path d="M0 4608h11520v3072H0z" style="display:inline;fill:#1a9d37;fill-opacity:1;fill-rule:evenodd;stroke-width:18.3711" transform="scale(.04444 .06667)"/>
      <path d="M0 0h11520v2304H0z" style="display:inline;fill:#008fb8;fill-opacity:1;fill-rule:evenodd;stroke-width:18.3711" transform="scale(.04444 .06667)"/>
      <path d="M0 2368h11520v2176H0z" style="display:inline;fill:#db2016;fill-opacity:1;fill-rule:evenodd;stroke-width:18.3711" transform="scale(.04444 .06667)"/>
      <path d="M0 3072h11520v768H0z" style="display:inline;fill:#f7be24;fill-opacity:1;fill-rule:evenodd;stroke-width:18.3711" transform="scale(.04444 .06667)"/>
    </g>
    <g style="display:inline;stroke-width:15">
      <g style="stroke-width:17.4594">
        <path d="M4103.362 1514.295c-16.827 52.156-32.063 98.405-33.858 102.779l-3.264 7.948h-108.117c-66.41 0-107.66 1.29-106.937 3.342 1.321 3.745 34.8 28.961 116.871 88.02 30.6 22.019 55.64 40.548 55.64 41.173 0 1.215-26.59 83.607-51.284 158.91-8.284 25.258-14.491 46.535-13.792 47.284 1.859 2 12.895-5.596 98.17-67.548 42.487-30.868 79.209-55.374 81.6-54.456 2.388.915 42.078 28.964 88.193 62.33 46.119 33.366 84.66 59.854 85.65 58.865.988-.989-11.764-43.646-28.343-94.792-16.575-51.142-31.144-97.123-32.37-102.171-2.091-8.602 2.664-12.774 74.85-65.68 42.399-31.069 80.665-58.716 85.035-61.436 4.37-2.716 7.948-6.945 7.948-9.393 0-3.476-23.315-4.448-106.951-4.448h-106.951l-9.309-27.378c-5.119-15.056-19.875-59.967-32.79-99.797-12.915-39.831-24.81-73.762-26.438-75.401-1.625-1.64-16.724 39.693-33.554 91.849" style="display:inline;fill:url(#b);fill-opacity:1;stroke-width:2.67701" transform="translate(2.643 3.094)scale(.05728)"/>
        <path d="M3500.863 1424.332c0 2.314-14.406 48.415-32.013 102.447l-32.013 98.243h-107.82c-84.688 0-107.506.947-106.354 4.416.809 2.43 22.005 19.218 47.104 37.312 91.471 65.94 121.584 89.25 121.584 94.107 0 4.564-22.072 74.436-51.8 163.96-6.687 20.14-11.247 37.525-10.135 38.637 1.11 1.113 10.648-4.235 21.193-11.883 127.727-92.64 153.504-111.057 155.461-111.057 1.251 0 30.13 20.267 64.171 45.042 111.749 81.322 108.926 79.439 110.152 73.543.625-2.985-13.315-49.461-30.97-103.278-17.657-53.816-30.887-98.953-29.393-100.302 1.491-1.35 26.555-19.564 55.7-40.478 86.296-61.92 114.811-83.48 114.811-86.79 0-1.724-48.475-3.547-108.145-4.062l-108.142-.933-15.049-45.925a21525 21525 0 0 1-29.823-91.849c-8.125-25.258-16.469-50.298-18.543-55.639-3.815-9.831-9.976-13.237-9.976-5.51" style="display:inline;fill:url(#c);fill-opacity:1;stroke-width:2.67701" transform="translate(2.643 3.094)scale(.05728)"/>
        <path d="M2842.666 1516.421c-17.024 52.93-32.257 98.621-33.847 101.536-2.451 4.497-19.023 5.44-109.37 6.235-81.7.717-106.461 1.95-106.404 5.3.043 2.398 6.8 9.04 15.013 14.755 42.707 29.71 154.48 112.632 154.48 114.603 0 1.254-9.542 31.667-21.207 67.583-36.98 113.868-43.236 134.513-41.346 136.403 1.65 1.65 69.382-45.924 144.995-101.846 15.225-11.262 29.045-20.476 30.713-20.476 1.663 0 41.402 27.95 88.305 62.112 46.903 34.164 86.233 61.16 87.398 59.995 1.166-1.166-1.226-12.026-5.313-24.135-14.063-41.661-57.455-177.506-57.455-179.876 0-1.304 25.036-20.454 55.64-42.555s68.695-49.637 84.656-61.192c15.96-11.556 29.077-22.994 29.144-25.425.1-3.437-23.538-4.416-106.76-4.416h-106.891l-25.52-78.601c-14.035-43.233-28.19-87.345-31.458-98.032-11.09-36.276-11.34-35.891-44.773 68.032" style="display:inline;fill:url(#d);fill-opacity:1;stroke-width:2.67701" transform="translate(2.643 3.094)scale(.05728)"/>
        <path d="M3814.874 1065.98c-2.066 5.34-9.079 26.406-15.586 46.807-6.504 20.401-19.6 60.938-29.098 90.083l-17.272 52.99-108.64.936c-84.313.724-108.321 1.91-107.216 5.299.785 2.398 18 16.437 38.256 31.197 111.78 81.445 128.775 94.53 129.842 99.963.937 4.776-24.166 86.448-57.67 187.609-2.572 7.772-3.388 14.611-1.809 15.194 2.618.971 100.098-67.912 152.402-107.69 16.925-12.869 22.821-15.635 27.333-12.809 3.161 1.982 43.042 30.794 88.616 64.026 45.575 33.235 83.498 59.79 84.272 59.016.774-.773-13.067-45.772-30.759-99.998-17.691-54.223-32.165-101.137-32.165-104.249 0-3.331 34.797-30.787 84.643-66.778 46.553-33.613 84.706-63.083 84.783-65.485.11-3.352-24.923-4.578-107.982-5.299l-108.124-.932-16.614-51.224a64724 64724 0 0 1-32.26-99.798c-8.61-26.713-16.901-48.574-18.423-48.574-1.527 0-4.466 4.374-6.529 9.715" style="display:inline;fill:url(#e);fill-opacity:1;stroke-width:2.67701" transform="translate(2.643 3.094)scale(.05728)"/>
        <path d="M3186.56 1060.68c-1.806 4.374-17.039 50.475-33.854 102.447l-30.568 94.499h-107.382c-83.6 0-107.358.979-107.28 4.416.057 2.43 38.209 31.999 84.784 65.71 46.578 33.713 84.684 63.338 84.684 65.832s-6.97 25.781-15.487 51.75c-13.82 42.134-39.262 121.29-46.292 144.012-2.183 7.062-1.614 8.097 3.388 6.175 3.31-1.268 43.183-29.455 88.61-62.634 53.35-38.972 84.197-59.377 87.126-57.635 2.494 1.48 41.328 29.427 86.306 62.1 44.974 32.674 83.49 59.409 85.59 59.409 2.557 0 2.758-2.621.6-7.948-1.77-4.374-15.35-46.102-30.176-92.733-14.827-46.63-28.66-89.206-30.741-94.611s-3.173-10.337-2.427-10.955c.749-.622 34.743-25.446 75.546-55.17 40.802-29.72 79.35-57.857 85.667-62.524 6.316-4.67 11.48-9.973 11.48-11.789 0-1.957-44.292-3.684-108.628-4.239l-108.63-.932-7.666-22.963c-4.214-12.629-19.094-58.33-33.065-101.563-13.972-43.233-26.054-78.602-26.855-78.602-.799 0-2.93 3.575-4.73 7.948" style="display:inline;fill:url(#f);fill-opacity:1;stroke-width:2.67701" transform="translate(2.643 3.094)scale(.05728)"/>
      </g>
      <path d="M1775.86 576.407c-100.871 6.83-202.86 41.146-285.291 95.998-120.324 80.067-213.338 212.932-243.795 348.245-9.524 42.314-11.175 53.11-14.41 94.31-9.424 119.908 22.116 247.473 86.498 349.866 107.586 171.1 289.76 272.582 490.384 273.17 67.76.198 120.922-8.036 185.137-28.684 33.084-10.637 115.33-49.643 115.33-54.7 0-2.185-2.953-2.628-8.346-1.25-4.592 1.174-34.517 2.844-66.503 3.706-46.63 1.26-64.349.53-89.418-3.679-159.97-26.863-290.92-120.779-366.5-262.851-101.98-191.69-66.935-429.326 86.136-584.118 18.362-18.568 44.564-42.002 58.227-52.072 64.992-47.899 140.546-79.879 219.855-93.05 32.128-5.336 124.754-6.53 148.34-1.913 20.805 4.073 20.547-.832-.638-12.27-82.835-44.728-165.764-67.311-258.857-70.489-21.7-.74-46.967-.838-56.148-.219" style="display:inline;fill:url(#g);fill-opacity:1;stroke-width:2.29991" transform="translate(-8.915)scale(.06667)"/>
    </g>
  </g>
</svg>
