<svg id="flag-icons-asy" class="fi fi-asy" viewBox="0 0 640 480" xmlns="http://www.w3.org/2000/svg" width="640" height="480">
  <metadata id="flag-icons">
    <name>Assyrian people</name>
    <code>asy</code>
    <iso>false</iso>
    <type>People</type>
    <continent>Asia</continent>
  </metadata>
  <g style="stroke-width:1.32682">
    <path d="M0 0h900v600H0z" style="fill:#fff;fill-opacity:1;stroke:none;stroke-width:1.32682" transform="matrix(.71005 0 0 .8 .957 0)"/>
    <path d="M168.465 0c5.954 0 9.961 13.006 11.973 17.719 5.908 13.846 17.999 23.377 30.812 30.031 13.114 6.81 28.374 10.347 39.719 21 13.02 12.226 20.13 28.81 27.844 44.406 3.574 7.228 8.908 13.211 15.093 18.531 4.051 3.485 7.398 7.191 12.188 10.157 11.358 7.032 23.46 13.833 30.844 25.562 6 9.534 7.464 21.187 13.25 31.031 6.109 10.397 17.654 17.018 27.187 24.438 9.093 7.078 11.76 20.377 19.875 27.875l31.625 29.219c6.167 5.697 9.068.415 9.754-1.192 1.128-2.642-3.049-6.66-9.488-9.947-1.736-.886-3.414-1.982-5.11-3.268-10.685-8.099-15.103-21.475-17.812-33.937-1.987-9.138-6.438-17.293-12.469-23.375-4.915-4.956-11.927-7.96-16.5-13.5-6.777-8.21-10.899-17.618-13.062-28.188-2.1-10.256-7.487-19.762-14.938-28.062-7.72-8.6-18.803-12.455-26.281-21.031-7.095-8.136-9.126-19.599-13.844-29.375-3.143-6.513-4.387-13.146-7.062-19.344-2.95-6.831-7.03-13.71-9.844-20.812-2.314-5.841-5.024-11.891-10.469-14.688-12.861-6.606-25.985-13.498-36.469-23.406C241.666 6.426 237.646 4.534 236 0Zm494.187 0c-1.646 4.533-5.665 6.426-9.28 9.844-10.484 9.908-23.608 16.8-36.47 23.406-5.445 2.797-8.154 8.847-10.468 14.688-2.814 7.102-6.895 13.98-9.844 20.812-2.676 6.198-3.92 12.831-7.063 19.344-4.718 9.776-6.75 21.239-13.843 29.375-7.478 8.576-18.561 12.43-26.282 21.031-7.45 8.3-12.837 17.806-14.937 28.063-2.164 10.569-6.286 19.978-13.063 28.187-4.573 5.54-11.585 8.544-16.5 13.5-6.03 6.082-10.482 14.237-12.468 23.375-2.71 12.462-7.127 25.838-17.813 33.938-1.695 1.285-3.375 2.38-5.111 3.267-6.44 3.288-10.614 7.305-9.487 9.947.686 1.607 3.588 6.89 9.754 1.192l31.625-29.219c8.116-7.498 10.782-20.797 19.875-27.875 9.533-7.42 21.078-14.041 27.188-24.437 5.785-9.845 7.249-21.498 13.25-31.032 7.383-11.73 19.485-18.53 30.844-25.562 4.789-2.966 8.136-6.672 12.187-10.156 6.185-5.321 11.52-11.304 15.094-18.532 7.713-15.595 14.824-32.18 27.844-44.406 11.345-10.653 26.605-14.19 39.718-21 12.813-6.654 24.904-16.185 30.813-30.031C720.226 13.006 724.233 0 730.187 0Zm-230.88 304.975c-2.24.05-4.58.584-6.362 1.931-5.884 4.452-15.388 13.91-27.969 14.906-15.263 1.21-18.77 22.7-31.843 30.438-10.612 6.28-25.907 10.034-35.938 19.375-9.445 8.795-14.083 20.482-24.094 28.656-9.95 8.125-22.52 9.724-34.03 12.344-10.068 2.292-19.855 8.896-27.876 16.469-7.813 7.377-12.025 15.591-19.781 22.812-15.183 14.136-33.455 24.335-53.531 29.906-8.015 2.224-15.576 4.087-23.313 7.22-7.658 3.1-15.258 7.125-22.437 11.093-16.38 9.052-29.363 25.37-38.5 40.969-5.698 9.726-14.116 18.251-24.375 23.875-12.948 7.097-27.038 12.333-41.47 16.25C10.778 583.79 2.978 587.367 0 600h109.348c6.09-16.498 16.225-32.523 28.75-45.25 11.86-12.051 27.917-21.83 44.25-27.375 11.456-3.89 22.45-7.893 32.812-14.187 17.608-10.696 29.195-28.565 38.156-46.657 6.865-13.857 20.416-24.746 35.844-28.812 14.91-3.93 30.707-9.82 38.5-24.219 3.28-6.06 5.41-12.092 9.688-17.906 9.63-13.09 27.517-15.902 39.75-25.844 8.6-6.99 10.338-19.704 17.812-28.531 6.433-7.597 21.852-12.864 29.176-20.053 2.487-2.442 15.389-10.592 15-13.926-.127-1.087-3.582-2.349-7.315-2.265m36.457 0c-3.733-.084-7.188 1.178-7.315 2.265-.389 3.334 12.513 11.484 15 13.926 7.324 7.19 22.743 12.456 29.176 20.053 7.474 8.827 9.212 21.54 17.812 28.531 12.233 9.942 30.12 12.753 39.75 25.844 4.278 5.814 6.407 11.845 9.688 17.906 7.793 14.399 23.59 20.289 38.5 24.219 15.428 4.066 28.98 14.955 35.844 28.812 8.961 18.092 20.548 35.96 38.156 46.656 10.363 6.295 21.356 10.299 32.812 14.188 16.333 5.545 32.39 15.324 44.25 27.375 12.525 12.727 22.66 28.752 28.75 45.25H900c-2.977-12.633-10.777-16.21-20.254-18.781-14.43-3.917-28.52-9.153-41.469-16.25-10.259-5.624-18.677-14.149-24.375-23.875-9.137-15.6-22.12-31.917-38.5-40.969-7.179-3.968-14.78-7.994-22.437-11.094-7.737-3.132-15.298-4.995-23.313-7.219-20.076-5.57-38.348-15.77-53.53-29.906-7.757-7.22-11.969-15.435-19.782-22.812-8.02-7.573-17.808-14.177-27.875-16.469-11.51-2.62-24.082-4.219-34.031-12.344-10.011-8.174-14.65-19.86-24.094-28.656-10.03-9.34-25.326-13.094-35.938-19.375-13.073-7.738-16.58-29.228-31.843-30.437-12.58-.998-22.085-10.455-27.97-14.907-1.78-1.347-4.12-1.881-6.36-1.931" style="fill:#003e87;stroke-width:1.32682" transform="matrix(.71005 0 0 .8 .957 0)"/>
    <path d="M-1.348 0C1.63 12.633 9.43 16.21 18.906 18.781c14.431 3.917 28.521 9.153 41.469 16.25 10.26 5.624 18.678 14.149 24.375 23.875 9.138 15.6 22.12 31.917 38.5 40.969 7.18 3.968 14.78 7.994 22.438 11.094 7.737 3.132 15.298 4.995 23.312 7.219 20.076 5.57 38.349 15.77 53.531 29.906 7.756 7.22 11.968 15.435 19.781 22.812 8.02 7.573 17.809 14.177 27.875 16.469 11.511 2.62 24.082 4.219 34.032 12.344 10.01 8.174 14.649 19.86 24.094 28.656 10.03 9.34 25.325 13.094 35.937 19.375 13.073 7.738 16.58 29.228 31.844 30.438 12.58.997 22.085 10.454 27.969 14.906 4.75 3.594 13.47 1.405 13.673-.334.39-3.334-12.513-11.484-15-13.926-7.323-7.19-22.74-12.456-29.173-20.053-7.474-8.827-9.212-21.54-17.813-28.531-12.232-9.942-30.12-12.753-39.75-25.844-4.277-5.814-6.407-11.845-9.687-17.906-7.794-14.399-23.591-20.289-38.5-24.219-15.429-4.066-28.98-14.955-35.844-28.812-8.962-18.092-20.549-35.96-38.156-46.656C203.45 80.518 192.456 76.514 181 72.625c-16.332-5.545-32.39-15.324-44.25-27.375C124.225 32.523 114.09 16.498 108 0Zm792 0c-6.09 16.498-16.225 32.523-28.75 45.25-11.86 12.051-27.917 21.83-44.25 27.375-11.456 3.89-22.45 7.893-32.812 14.188-17.608 10.695-29.195 28.564-38.156 46.656-6.865 13.857-20.416 24.746-35.844 28.812-14.91 3.93-30.707 9.82-38.5 24.219-3.28 6.06-5.41 12.092-9.688 17.906-9.63 13.09-27.517 15.902-39.75 25.844-8.6 6.99-10.338 19.705-17.812 28.531-6.433 7.597-21.852 12.864-29.176 20.053-2.487 2.442-15.389 10.592-15 13.926.203 1.74 8.926 3.928 13.676.334 5.884-4.452 15.388-13.91 27.969-14.906 15.263-1.21 18.77-22.7 31.843-30.438 10.612-6.28 25.907-10.034 35.938-19.375 9.445-8.795 14.083-20.482 24.094-28.656 9.95-8.125 22.52-9.724 34.03-12.344 10.068-2.292 19.855-8.896 27.876-16.469 7.813-7.377 12.025-15.591 19.781-22.812 15.183-14.136 33.455-24.335 53.531-29.906 8.015-2.224 15.576-4.087 23.313-7.22 7.658-3.1 15.258-7.125 22.437-11.093 16.38-9.052 29.363-25.37 38.5-40.969 5.698-9.726 14.116-18.251 24.375-23.875 12.948-7.097 27.038-12.333 41.47-16.25C889.222 16.21 897.022 12.633 900 0ZM435.08 317.459c-1.321.083-2.93.792-4.857 2.572l-31.625 29.219c-8.116 7.498-10.782 20.797-19.875 27.875-9.533 7.42-21.078 14.041-27.188 24.438-5.785 9.844-7.249 21.497-13.25 31.03-7.383 11.73-19.485 18.53-30.844 25.563-4.789 2.966-8.136 6.672-12.187 10.156-6.185 5.321-11.52 11.304-15.094 18.532-7.713 15.595-14.824 32.18-27.844 44.406-11.345 10.653-26.605 14.19-39.718 21-12.813 6.654-24.904 16.185-30.813 30.031-2.011 4.713-6.018 17.719-11.972 17.719h67.535c1.646-4.533 5.665-6.426 9.28-9.844 10.484-9.908 23.608-16.8 36.47-23.406 5.445-2.797 8.154-8.847 10.468-14.687 2.814-7.103 6.895-13.982 9.844-20.813 2.676-6.198 3.92-12.831 7.063-19.344 4.718-9.776 6.75-21.239 13.843-29.375 7.478-8.576 18.561-12.43 26.282-21.031 7.45-8.3 12.837-17.806 14.937-28.062 2.164-10.57 6.286-19.979 13.063-28.188 4.573-5.54 11.585-8.544 16.5-13.5 6.03-6.082 10.482-14.237 12.468-23.375 2.71-12.462 7.127-25.838 17.813-33.937 1.695-1.286 3.375-2.382 5.111-3.268 6.44-3.288 10.614-7.305 9.487-9.947-.472-1.105-1.99-3.947-4.897-3.764m29.84 0c-2.907-.183-4.425 2.659-4.897 3.764-1.127 2.642 3.047 6.66 9.487 9.947 1.736.886 3.416 1.982 5.111 3.268 10.686 8.099 15.104 21.475 17.813 33.937 1.986 9.138 6.437 17.293 12.468 23.375 4.915 4.956 11.927 7.96 16.5 13.5 6.777 8.21 10.899 17.618 13.063 28.188 2.1 10.256 7.487 19.762 14.937 28.062 7.72 8.6 18.804 12.455 26.282 21.031 7.094 8.136 9.125 19.599 13.843 29.375 3.143 6.513 4.387 13.146 7.063 19.344 2.95 6.831 7.03 13.71 9.844 20.813 2.314 5.84 5.023 11.89 10.468 14.687 12.862 6.606 25.986 13.498 36.47 23.406 3.615 3.418 7.634 5.31 9.28 9.844h67.535c-5.954 0-9.96-13.006-11.972-17.719-5.909-13.846-18-23.377-30.813-30.031-13.113-6.81-28.373-10.347-39.718-21-13.02-12.226-20.131-28.81-27.844-44.406-3.575-7.228-8.909-13.211-15.094-18.531-4.05-3.485-7.398-7.191-12.187-10.157-11.359-7.032-23.46-13.833-30.844-25.562-6.001-9.534-7.465-21.187-13.25-31.031-6.11-10.397-17.655-17.018-27.188-24.438-9.093-7.078-11.759-20.377-19.875-27.875l-31.625-29.219c-1.927-1.78-3.536-2.489-4.857-2.572" style="fill:#de0000;stroke-width:1.32682" transform="matrix(.71005 0 0 .8 .957 0)"/>
  </g>
  <g style="stroke-width:1.25">
    <g style="stroke-width:1.25">
      <path d="M474.501 324.501 450 405l-24.501-80.499L345 300l80.499-24.501L450 195l24.501 80.499L555 300Z" style="opacity:1;fill:#42a7ea;fill-opacity:1;stroke:none;stroke-width:2.93469" transform="translate(-38.4)scale(.8)"/>
      <path d="M479.235 300a29.235 29.227 0 1 1-58.47 0 29.235 29.227 0 1 1 58.47 0z" style="fill:#d78530;fill-opacity:1;stroke:#fff;stroke-width:6.9122;stroke-miterlimit:4;stroke-dasharray:none;stroke-opacity:1" transform="translate(-38.4)scale(.8)"/>
    </g>
    <g style="stroke-width:1.25">
      <path d="M440.969 169.903c-.483-.094-1.323-.668-1.869-1.275-.962-1.072-1.025-1.088-2.17-.533-1.984.962-3.865.746-5.17-.592-1.1-1.128-1.206-1.156-3.505-.912-2.33.247-2.395.228-3.707-1.037-1.191-1.15-1.503-1.268-2.904-1.093-1.78.223-3.342-.656-4.228-2.38-.462-.898-.685-.977-2.5-.886-2.472.124-3.935-.814-4.538-2.912l-.414-1.442-2.75.07c-2.458.064-2.855-.026-3.74-.855-.689-.644-1.089-1.553-1.308-2.968l-.316-2.04-1.7.127c-2.445.183-3.799-.47-4.65-2.24l-.724-1.504-2.464.216c-2.548.223-3.125-.06-2.52-1.236.158-.306.397-1.099.53-1.762.237-1.165.2-1.205-1.081-1.205-2.58 0-3.801-.404-3.788-1.252.007-.433.274-1.112.594-1.508.883-1.094.747-1.239-1.464-1.57-1.125-.169-2.112-.494-2.194-.724s.305-.92.858-1.537c.554-.616 1.006-1.221 1.006-1.345s-1.069-.224-2.375-.224c-2.11 0-2.375-.083-2.375-.742 0-.408.16-.742.353-.742.194 0 .472-.443.617-.985.294-1.098-.223-1.597-1.662-1.606-.967-.006-1.153-.708-.494-1.862.456-.798.124-1.09-1.89-1.668l-1.297-.37 1.056-1.45c1.01-1.386 1.024-1.472.33-1.948-.4-.273-1.227-.497-1.838-.497-1.312 0-1.41-.474-.32-1.57 1.083-1.09 1.006-1.351-.58-1.972-1.608-.63-2.382-1.695-1.698-2.336.251-.235.653-.428.892-.428.24 0 .655-.206.924-.458.387-.363.137-.613-1.207-1.21-2.18-.968-2.213-1.845-.113-2.946 2.463-1.292 2.19-2.126-1.088-3.333-2.102-.774-2.025-1.874.198-2.82.925-.393 2.144-.72 2.71-.724 1.016-.008 2.337-1 2.337-1.756 0-.216-.401-.65-.891-.964-2.006-1.287-3.394-2.741-3.825-4.009-.252-.738-1.238-2.028-2.191-2.865-.954-.838-1.934-2.092-2.179-2.787-.483-1.372-1.355-1.707-4.521-1.738-1.95-.02-4.342-.767-5.477-1.71-.452-.377-1.155-1.382-1.562-2.233-.641-1.343-1.015-1.634-2.812-2.192-1.14-.355-2.567-.986-3.17-1.403-1.282-.886-2.664-2.938-2.664-3.956 0-.422-.503-.956-1.234-1.31-1.951-.945-3.516-2.651-3.516-3.834 0-.783-.602-1.624-2.374-3.316-2.497-2.384-2.797-3.192-1.746-4.696l.63-.9 18.073-.019c17.997-.019 25.31-.228 25.909-.739.173-.148-.317-.72-1.089-1.272s-1.403-1.214-1.403-1.471-.535-.948-1.188-1.535c-.653-.586-1.187-1.285-1.187-1.553 0-.808 2.259-.754 4.118.099 1.328.609 2.555.667 3.403.16.503-.3.455-.445-.314-.953-1.066-.703-2.853-3.241-2.853-4.051 0-.44.51-.564 2.342-.564 2.577 0 3.595-.24 3.595-.85 0-.22-.712-1.192-1.583-2.16-.87-.968-1.583-1.911-1.583-2.097 0-.77 2.154-1.24 4.574-.997 2.81.282 3.299-.043 2.394-1.591-1.635-2.799-1.61-2.725-1.008-3.104.314-.199 1.342-.29 2.284-.202 3.09.288 3.191.187 3.11-3.111-.08-3.217.316-4.05 1.576-3.313.414.243 1.155 1.015 1.646 1.717 1.6 2.29 3.905 2.39 2.695.118-.868-1.631-1.266-4.637-.66-4.988.27-.157 1.12.217 2 .88 1.068.804 1.954 1.152 2.938 1.152 1.558 0 1.537.04 1.026-2.028-.395-1.593.108-2.724.93-2.092.243.187 1.412.636 2.598.998s2.837 1.236 3.671 1.942 1.624 1.184 1.755 1.06c.13-.122.212-1.366.182-2.764-.048-2.163.127-2.885 1.174-4.849 1.096-2.054 1.486-2.428 3.557-3.407 2.768-1.31 5.385-1.445 7.96-.41 1.795.72 4.41 3.118 4.864 4.461.198.585.59.783 1.549.783 1.102 0 1.7-.428 4.228-3.026 1.62-1.664 3.137-3.21 3.372-3.434s.682-.906.993-1.513c1.27-2.483 2.87-1.029 3.266 2.965.12 1.225.23 2.277.241 2.34.068.369 5.788-4.212 6.505-5.21 1.15-1.6 2.126-1.76 2.428-.4.854 3.85 1.156 4.008 2.55 1.345.553-1.06 1.285-1.936 1.625-1.948.838-.029 2.35 3.301 2.35 5.175 0 .814.158 1.48.35 1.48.333 0 2.025-1.737 3.868-3.972l.853-1.035.928 1.094c1.455 1.716 1.833 3.418 1.239 5.57-.28 1.014-.509 2.07-.509 2.346 0 .87 1.265.312 1.933-.852.826-1.44 5.423-5.747 6.132-5.747.605 0 1.04 1.568 1.04 3.756 0 1.615.27 1.739 1.628.75 1.542-1.122 3.923-2.048 4.318-1.679.453.426.622 4.503.231 5.612-.611 1.737 2.315.507 4.578-1.924.873-.938 1.183-1.066 1.772-.73 1.355.77 1.738 4.525.735 7.19-.662 1.758-.496 2.374.51 1.9.371-.173 1.387-.642 2.258-1.04.871-.397 1.96-.945 2.422-1.217q2.134-1.258 2.124 1.744c-.003.975-.254 2.44-.556 3.256-.683 1.838-.491 2.156 1.095 1.821.686-.144 1.516-.237 1.842-.206.327.03 1.663.097 2.969.148 2.336.091 2.373.11 2.26 1.116-.227 2.031-1.597 4.316-3.217 5.367-2.445 1.586-1.998 2.619.75 1.731.78-.252 2.443-.45 3.693-.439 1.57.013 2.495-.168 2.987-.586.393-.333.923-.605 1.178-.605.598 0 .612 2.745.02 3.826-.764 1.393-2.44 2.85-3.292 2.862-1.107.016-2.464 1.007-1.983 1.448.23.21 1.21.138 2.539-.187 1.19-.292 2.868-.53 3.73-.53.908 0 1.871-.261 2.297-.622 1.022-.867 1.679-.17 1.357 1.438-.348 1.737-2.345 3.862-4.667 4.964-1.08.514-1.893 1.134-1.805 1.379.123.34 5.411.416 22.62.32 20.886-.114 22.512-.078 23.22.522 1.334 1.131.804 3.586-1.117 5.17-.6.495-1.273.906-1.494.912-.22.006-.709.823-1.085 1.814-.695 1.834-2.923 3.762-4.35 3.762-.795 0-1.11.447-1.36 1.934-.374 2.23-2.678 4.187-5.735 4.875-.789.177-1.126.543-1.33 1.443-.295 1.308-1.524 2.47-3.831 3.625-1.231.615-2.243.734-6.247.734-4.198 0-4.806.079-5.011.65-.912 2.538-1.788 3.665-3.394 4.363-1.523.663-1.722.903-1.992 2.406-.412 2.294-.043 3.55 1.273 4.339.614.368 2.016 1.336 3.116 2.152s2.455 1.784 3.013 2.15c1.184.78 1.287 1.304.32 1.631-.381.13-1.138.517-1.682.862-.545.345-1.48.738-2.078.874-2.285.518-.722 1.712 1.88 1.437.983-.104 1.788-.01 1.943.225.512.777-.963 2.613-2.93 3.648-1.09.574-1.981 1.16-1.982 1.304s.617.37 1.371.503c1.998.35 2.384.973 1.29 2.08-.496.501-1.476 1.23-2.178 1.617-1.56.864-1.607 1.203-.19 1.356.632.069 1.138.376 1.21.737.193.95-1.932 2.929-3.458 3.221-1.864.357-1.958 1.068-.23 1.744.94.368 1.402.773 1.32 1.157-.19.9-2.68 1.975-4.571 1.975-2.11 0-2.156.468-.248 2.557 1.26 1.38 1.369 1.646.867 2.116-.316.297-1.499.641-2.629.767-2.155.239-2.45.604-1.473 1.815 1.423 1.762.196 3.502-2.469 3.502-2.028 0-2.348.447-1.303 1.822.893 1.176 1.044 2.083.407 2.452-.226.13-1.473.233-2.771.227-2.625-.012-2.647.018-1.978 2.72.569 2.3-.437 2.874-3.251 1.854-.628-.228-.668-.039-.432 2.073l.259 2.323-1.943-.218c-1.069-.12-2.264-.334-2.656-.476-.618-.225-.676-.118-.435.808.153.587.697 1.539 1.208 2.116 1.139 1.284 1.16 1.615.121 1.923-1.771.527-4.873-.427-8.75-2.692-1.027-.6-1.07-.587-2.154.619-1.093 1.218-1.134 1.229-3.832 1.048-2.282-.153-2.759-.085-2.919.419-.972 3.058-3.668 4.847-6.283 4.17-1.826-.472-2.373-.264-2.993 1.139-.511 1.157-2.44 2.522-3.57 2.524-.782.002-3.218-1.097-3.63-1.639-.198-.259-.575-.073-1.072.528-.422.51-1.144 1.386-1.605 1.947-.712.865-1.131 1.02-2.765 1.02-1.059 0-2.035-.167-2.17-.37-.4-.607-1.558-.424-2.274.36-1.306 1.43-4.666 1.431-6.045.003-.73-.755-2.17-1.01-2.17-.383 0 .194-.594.777-1.32 1.296-1.37.98-3 1.367-4.505 1.073" style="fill:#a06c36;fill-opacity:1;stroke-width:.478969" transform="translate(-38.4)scale(.8)"/>
      <path d="M444.178 167.148c.58-.427 1.43-1.465 1.888-2.307.775-1.423.82-1.958.637-7.593-.114-3.536-.372-6.225-.617-6.455-.445-.417-3.436-.622-3.82-.262-.284.266-.796 3.164-1.402 7.936-.26 2.04-.642 4.234-.851 4.877-.46 1.417-.145 2.76.892 3.803.98.986 1.938.986 3.273 0z" style="fill:#d78530;fill-opacity:1;stroke-width:.478969" transform="translate(-38.4)scale(.8)"/>
      <path d="M454.03 165.792c.482-.765.828-1.528.769-1.696-.06-.168-.2-1.253-.312-2.411-.2-2.053-.419-3.541-1.39-9.42-.551-3.332-1.195-4.122-3.072-3.77-.689.13-1.258.339-1.266.467-.007.127-.104 3.348-.215 7.158-.23 7.846.032 9.026 2.283 10.312 1.81 1.034 2.198.956 3.203-.64m-16.538-2.15c.217-1.01.548-2.059.735-2.33.352-.51.872-3.672 1.299-7.887.197-1.945.13-2.488-.325-2.651-.94-.338-2.75.143-2.958.787-.107.33-.36.89-.561 1.244s-.367 1.056-.367 1.559-.16 1.298-.355 1.767-.571 1.603-.837 2.521c-.265.918-.652 2.014-.86 2.435-.208.42-.41 1.562-.45 2.536-.059 1.464.092 1.895.871 2.486.915.694.978.696 2.177.043.99-.539 1.314-1.037 1.63-2.51" style="fill:#42a7ea;fill-opacity:1;stroke-width:.478969" transform="translate(-38.4)scale(.8)"/>
      <path d="M461.403 165.18c.492-.491 1.042-1.508 1.223-2.26.364-1.512-.332-6.974-1.394-10.945-.354-1.326-.788-3.05-.963-3.832-.435-1.94-.926-2.34-2.202-1.796-.56.24-1.435.435-1.944.435q-1.756.002-.975 3.895c.441 2.193.6 3.438 1.148 9.014.431 4.39.74 5.248 2.126 5.895 1.354.634 2.031.541 2.981-.407m-31.592-1.449c1.168-1.066 1.47-1.746 2.268-5.101.506-2.13 1.085-4.255 1.287-4.724.646-1.505.44-3.977-.39-4.681-.703-.596-.842-.6-2-.038-.684.331-1.304.802-1.378 1.047a824 824 0 0 1-1.96 5.823c-1.823 5.367-2.272 8.3-1.328 8.656 1.201.454 2.248.16 3.501-.983" style="fill:#d78530;fill-opacity:1;stroke-width:.478969" transform="translate(-38.4)scale(.8)"/>
      <path d="M470.014 163.297c.886-.581 1.508-2.118 1.354-3.347-.11-.87-1.697-5.947-3.017-9.644-.51-1.428-1.042-3.203-1.184-3.944-.141-.74-.597-1.87-1.012-2.51l-.755-1.164-2.017.958c-1.852.88-1.994 1.04-1.737 1.954.715 2.55 1.413 5.672 1.799 8.044 1.08 6.657 1.96 8.964 3.682 9.667 1.593.65 1.88.648 2.887-.014m-46.753-1.547c.534-.54.968-1.165.965-1.39-.006-.459 1.505-5.196 2.024-6.345.442-.979 1.531-4.02 1.538-4.298.006-.246-1.818-1.08-2.36-1.08-.193 0-1.092 1.363-1.998 3.03s-2.042 3.627-2.525 4.358c-1.428 2.16-1.914 3.603-1.627 4.826.474 2.026 2.432 2.468 3.983.9" style="fill:#42a7ea;fill-opacity:1;stroke-width:.478969" transform="translate(-38.4)scale(.8)"/>
      <path d="M478.4 159.762c1.604-1.088 1.643-1.166 1.643-3.286 0-1.705-.213-2.465-.99-3.538-.544-.752-.99-1.509-.99-1.683 0-.75-3.019-6.232-5.043-9.155l-1.317-1.9-1.866.183c-1.027.101-1.99.289-2.143.417s.256 1.735.907 3.571c1.463 4.13 2.226 6.617 3.129 10.2.945 3.751 1.34 4.589 2.597 5.516 1.43 1.054 2.124.999 4.073-.325m-60.939-1.373c1.283-1.328 5.533-9.636 5.657-11.057.115-1.323.034-1.45-1.063-1.686-.654-.14-1.48-.37-1.838-.511-.494-.195-1.088.355-2.474 2.291-1.003 1.401-1.824 2.64-1.824 2.752s-.801 1.347-1.78 2.745c-1.42 2.025-1.782 2.868-1.782 4.147 0 1.314.162 1.67.89 1.959 1.238.49 3.447.155 4.214-.64m78.446-3.772c-.235-.84-.612-2.197-.838-3.013-.517-1.86-1.35-1.926-3.088-.246-1.09 1.053-1.224 1.376-.906 2.16.533 1.314 4.273 3.551 4.921 2.944.185-.173.145-1.003-.09-1.845" style="fill:#d78530;fill-opacity:1;stroke-width:.478969" transform="translate(-38.4)scale(.8)"/>
      <path d="M486.556 155.996c.554-.237 1.008-.704 1.008-1.039s.208-.803.462-1.041c.75-.702-.254-3.124-2.378-5.738-1.038-1.278-3.015-3.873-4.393-5.768-2.61-3.587-3.733-4.541-4.5-3.822-.238.222-.842.405-1.343.405-1.418 0-1.159 1.004 1.563 6.048 1.361 2.52 2.906 5.488 3.434 6.594 1.406 2.946 2.298 3.998 3.714 4.382.695.188 1.3.358 1.344.376s.534-.16 1.089-.397m-77.498-1.4c1.13-.48 2.095-1.323 3.067-2.676.78-1.086 1.42-2.1 1.42-2.254s.784-1.246 1.743-2.428c2.434-2.998 2.477-3.578.282-3.725-.954-.064-2.168-.382-2.697-.707-.94-.578-1.003-.548-2.817 1.35-1.02 1.067-2.7 2.804-3.731 3.86-1.807 1.848-1.877 2.003-1.88 4.18-.005 1.982.106 2.312.886 2.665 1.265.572 1.86.53 3.727-.265" style="fill:#42a7ea;fill-opacity:1;stroke-width:.478969" transform="translate(-38.4)scale(.8)"/>
      <path d="M500.75 151.326c-.331-2.267-1.58-4.915-2.32-4.915-.316 0-.943.345-1.392.766-.64.6-.758 1.023-.542 1.948.35 1.507 1.508 2.912 2.868 3.483 1.604.673 1.663.619 1.386-1.282m-9.47-1.687c.501-.47 1.658-1.368 2.571-1.998 1.594-1.098 5.206-4.655 8.556-8.426.871-.98 2.073-2.33 2.672-2.999s1.089-1.319 1.089-1.444c0-.126.594-1.022 1.32-1.991s1.557-2.347 1.846-3.061.742-1.549 1.006-1.855c1.7-1.969 5.945-13.22 6.72-17.805.155-.918.375-1.815.488-1.993.287-.451.562-6.538.296-6.538-.401 0-1.048 2.026-1.185 3.71-.174 2.145-1.181 6.928-1.744 8.277-.24.574-.435 1.453-.435 1.952 0 .5-.166 1.198-.368 1.552s-1.024 2.23-1.826 4.168c-2.069 4.998-5.929 11.513-8.592 14.502-1.252 1.405-2.276 2.65-2.276 2.767 0 .415-5.238 5.366-9.987 9.44-2.057 1.765-2.52 2.595-1.45 2.595.214 0 .8-.384 1.3-.853m-87.248-1.879c.877-.543 1.595-1.122 1.595-1.287s.626-.954 1.392-1.756 2.017-2.438 2.781-3.634c1.528-2.394 1.39-3.191-.56-3.216-.572-.007-1.483-.243-2.023-.523-1.119-.58-1.73-.37-3.442 1.18-.622.564-2.328 2.024-3.79 3.246-3.457 2.887-4.303 4.966-2.65 6.514 1.163 1.091 4.517.829 6.697-.523m35.594.171c.943-.826 1.237-1.408 1.263-2.504.094-4.046.43-8.09.716-8.62.177-.329.361-1.655.41-2.949.066-1.791-.076-2.52-.598-3.06-1.48-1.532-1.823-1.063-3.958 5.412-.808 2.448-1.598 4.785-1.757 5.193-.617 1.58-1.576 4.915-1.576 5.477 0 .853 1.904 2.127 3.178 2.127.66 0 1.58-.427 2.322-1.076m64.83.676c.958-.898-1.232-5.535-2.614-5.535-1.036 0-2.126 1.294-1.829 2.172.255.752 3.252 3.763 3.746 3.763.149 0 .462-.18.697-.4" style="fill:#d78530;fill-opacity:1;stroke-width:.478969" transform="translate(-38.4)scale(.8)"/>
      <path d="M445.305 148.097c2.248-.88 2.513-2.007 1.744-7.414-.358-2.515-.651-5.41-.651-6.43 0-1.309-.176-1.92-.594-2.071-.895-.322-1.764.12-1.984 1.01-.568 2.304-1.524 14.188-1.204 14.97.253.618.99.6 2.689-.065m-14.902-.735c1.165-.311 1.81-1.733 4.134-9.111.481-1.53 1-2.949 1.151-3.153s.516-1.085.81-1.958c.622-1.848.268-2.43-1.365-2.244-.858.098-1.345.598-2.465 2.533a540 540 0 0 1-2.834 4.822c-1.895 3.18-3.598 6.709-3.612 7.484-.014.805 1.905 2.221 2.723 2.01.347-.089 1.003-.261 1.458-.383m21.892-1.832c.269-.304.497-1.106.506-1.783.03-2.124-.306-5.324-.608-5.783-.16-.242-.458-1.653-.664-3.136-.896-6.466-1.51-7.849-2.74-6.17-.85 1.16-.91 1.975-.446 6.07.232 2.04.53 5.34.661 7.334.259 3.907.797 5.025 2.105 4.369.384-.193.917-.598 1.186-.902" style="fill:#42a7ea;fill-opacity:1;stroke-width:.478969" transform="translate(-38.4)scale(.8)"/>
      <path d="M488.599 145.603c1.987-1.406 9.81-8.932 11.647-11.205 2.463-3.046 3.35-4.378 5.585-8.388.512-.918 1.04-1.752 1.174-1.854s.369-.603.522-1.113.511-1.428.796-2.04c.61-1.308 1.342-3.262 1.81-4.822.184-.612.63-2.031.993-3.153s.814-2.791 1.002-3.71c.189-.917.459-2.211.6-2.874.161-.75.101-1.206-.159-1.206-.532 0-.903.565-1.05 1.598-.412 2.905-3.796 13.178-4.77 14.48-.32.429-.581 1.051-.581 1.383 0 .703-1.683 3.769-2.797 5.095-.421.502-.766 1.127-.766 1.388 0 .262-.154.531-.342.6-.189.067-1.689 1.792-3.334 3.832-2.763 3.425-8.567 9.283-11.091 11.193-1.924 1.456-1.217 2.196.76.796" style="fill:#d78530;fill-opacity:1;stroke-width:.478969" transform="translate(-38.4)scale(.8)"/>
      <path d="M495.586 142.483c1.248-1.242 2.27-2.444 2.27-2.67 0-.227.253-.546.562-.709.725-.382 5.375-5.566 5.375-5.993 0-.178.531-.888 1.18-1.58 1.018-1.08 1.597-2.553 1.005-2.553-.104 0-1.03 1.21-2.055 2.689-1.027 1.48-2.322 3.2-2.879 3.824s-1.724 1.938-2.595 2.92c-1.508 1.7-3.823 3.88-6.495 6.116-.673.563-1.224 1.138-1.224 1.277 0 .64 2.803-1.277 4.856-3.32" style="fill:#42a7ea;fill-opacity:1;stroke-width:.478969" transform="translate(-38.4)scale(.8)"/>
      <path d="M394.356 145.304c.222-.003.744-.596 1.158-1.317.684-1.19.696-1.367.137-1.891-.84-.787-1.991-.184-2.836 1.484-.89 1.757-.831 2.223.245 1.952.49-.123 1.073-.226 1.296-.228m63.661-.915c.86-.746 1.047-1.237 1.047-2.737 0-1.005-.25-2.39-.555-3.078s-.686-2.252-.845-3.476c-.357-2.738-.361-2.755-.876-3.895-.23-.51-.61-1.386-.843-1.947-.469-1.129-1.445-1.315-2.632-.502-.71.487-.724.678-.241 3.06.283 1.399.584 3.293.668 4.211.352 3.834 1.111 8.378 1.472 8.81.6.72 1.657.551 2.805-.446" style="fill:#d78530;fill-opacity:1;stroke-width:.478969" transform="translate(-38.4)scale(.8)"/>
      <path d="M424.17 143.952c1.704-.98 7.582-12.454 7.582-14.798 0-2.33-1.325-1.995-3.468.876-2.142 2.869-4.052 5.683-4.052 5.968 0 .148-.446.661-.99 1.14-.544.48-.99 1.08-.99 1.337s-.239.689-.53.963c-1.717 1.608-1.68 3.661.081 4.558 1.307.665 1.13.669 2.368-.044m62.415-.52c.4-.415 1.315-1.094 2.033-1.51s1.67-1.236 2.116-1.822l.81-1.067-3.384-2.089c-1.862-1.149-5.052-3.628-7.09-5.51-3.96-3.658-6.965-5.345-6.965-3.911 0 .39.585 1.337 1.3 2.103.714.765 1.645 2.018 2.069 2.783s.884 1.39 1.024 1.39.371.68.513 1.51c.25 1.462.509 1.909 1.88 3.238.358.347 1.139 1.466 1.734 2.486 1.925 3.3 2.66 3.745 3.96 2.399" style="fill:#42a7ea;fill-opacity:1;stroke-width:.478969" transform="translate(-38.4)scale(.8)"/>
      <path d="M508.938 143.346c0-.89-2.55-4.724-3.142-4.724-.39 0-2.406 2.14-2.387 2.532.02.4 1.76 2.143 2.59 2.595.42.228 1.252.42 1.85.426.871.009 1.09-.157 1.09-.829" style="fill:#d78530;fill-opacity:1;stroke-width:.478969" transform="translate(-38.4)scale(.8)"/>
      <path d="M463.635 141.72c.862-.87 1.14-1.881 1.056-3.84-.014-.306-.37-1.474-.793-2.596a185 185 0 0 1-1.68-4.728c-.977-2.881-2.01-3.917-3.535-3.544-.775.19-.852.393-.662 1.74.397 2.82 2.017 10.86 2.464 12.23.64 1.96 1.698 2.207 3.15.739" style="fill:#42a7ea;fill-opacity:1;stroke-width:.478969" transform="translate(-38.4)scale(.8)"/>
      <path d="M417.037 141.928c.868-.284 1.827-1.218 3.225-3.14 1.095-1.506 1.99-2.844 1.99-2.975 0-.13.496-.845 1.101-1.589.605-.743 1.358-1.852 1.672-2.464a14.6 14.6 0 0 1 1.274-1.998c1.019-1.281.872-2.135-.583-3.375-1.23-1.048-2.672-1.478-2.672-.797 0 .176-1.35 1.72-2.998 3.43-1.65 1.711-3.435 3.695-3.968 4.409a177 177 0 0 1-2.134 2.782c-1.621 2.065-1.612 3.868.027 5.16 1.39 1.097 1.404 1.1 3.066.557m-25.198-.966c1.542-.638 1.915-1.449 1.043-2.266-.929-.87-2.23-.497-3.27.94-.553.76-1.005 1.512-1.005 1.669 0 .487 1.645.313 3.232-.343m6.268-.026c0-.155-.407-.697-.904-1.205s-1.333-1.591-1.859-2.407c-.525-.816-1.055-1.567-1.176-1.67-1.873-1.57-7.936-11.524-7.936-13.028 0-.3-.168-.706-.374-.9-.504-.475-3.584-9.383-3.584-10.366 0-.43-.18-.95-.4-1.156-.221-.207-.49-1.116-.597-2.021-.108-.906-.27-1.98-.36-2.388a14 14 0 0 1-.196-1.02c-.017-.153-.32-.278-.676-.278-.53 0-.597.248-.375 1.39.148.766.433 2.508.631 3.872.387 2.656 2.018 7.974 2.974 9.697.32.578.582 1.306.582 1.62 0 .312.337 1.175.748 1.916.411.742 1.389 2.601 2.172 4.131 1.512 2.953 4.15 7.026 5.789 8.94 2.743 3.205 3.695 4.239 4.293 4.665.75.535 1.248.618 1.248.208m114.958-1.528c.427-.646-2.752-5.575-3.61-5.596-.802-.02-2.467 2.963-2.13 3.817.576 1.459 5.039 2.843 5.74 1.78" style="fill:#d78530;fill-opacity:1;stroke-width:.478969" transform="translate(-38.4)scale(.8)"/>
      <path d="M399.295 138.437c0-.307-.15-.557-.333-.557-.63 0-8.494-10.733-8.969-12.24-.16-.51-.508-1.178-.772-1.484-.61-.708-1.801-3.72-1.801-4.556 0-.35-.178-.637-.396-.637s-.396-.326-.396-.725-.166-1.107-.37-1.576c-.294-.681-1.827-5.319-2.658-8.046-.086-.284-.267-.414-.4-.288-.134.125-.058.942.168 1.815.227.872.62 2.505.876 3.627.636 2.801 1.067 3.96 2.899 7.79.536 1.121 1.21 2.624 1.495 3.338.287.714 1.02 2.067 1.63 3.008s1.11 1.86 1.11 2.044.4.75.89 1.258c.49.509 1.542 1.811 2.337 2.894 1.714 2.335 3.976 4.843 4.393 4.871.163.011.297-.23.297-.536m71.248-.186c.436-.408.791-.867.79-1.02 0-.153-.627-1.252-1.392-2.442-.766-1.19-2.194-3.576-3.174-5.303-2.455-4.325-2.652-4.588-3.444-4.588-1.136 0-.919 1.81.713 5.934.282.715.82 2.3 1.196 3.524 1.02 3.331 1.968 4.637 3.364 4.637.636 0 1.512-.334 1.947-.742" style="fill:#42a7ea;fill-opacity:1;stroke-width:.478969" transform="translate(-38.4)scale(.8)"/>
      <path d="M402.065 137.907c0-.19-.641-.983-1.426-1.762-.784-.78-1.68-1.876-1.99-2.438-.309-.56-.698-1.02-.864-1.02-.402 0-5.589-8.087-6.423-10.015a62 62 0 0 0-.942-2.04c-.61-1.253-1.076-2.37-1.781-4.266-.651-1.751-.67-1.815-1.015-3.61-.167-.862-.548-1.76-.847-1.992-.447-.347-.542-.165-.527 1.013.01.79.29 2.104.626 2.92.334.816.7 1.901.81 2.411s.431 1.428.712 2.04c2.37 5.173 3.585 7.531 4.218 8.185.408.42.741.91.741 1.085 0 .655 4.563 6.637 6.715 8.803.997 1.003 1.993 1.345 1.993.686m-12.013-1.281c.72-.655-.061-2.085-1.135-2.079-1.116.007-1.462.24-2.578 1.732l-.883 1.18.883.133c1.035.155 3.062-.372 3.713-.966" style="fill:#d78530;fill-opacity:1;stroke-width:.478969" transform="translate(-38.4)scale(.8)"/>
      <path d="M476.286 136.926c.91-.651 1.26-1.153 1.1-1.577-.22-.576-3.75-5.294-4.66-6.226-.22-.226-.847-1.12-1.391-1.985s-1.51-2.016-2.148-2.556c-.636-.54-2.061-1.769-3.166-2.73-1.312-1.14-2.052-1.566-2.132-1.23-.163.687 3.15 6.89 4.462 8.356.274.306 1.436 2.225 2.582 4.266 1.965 3.498 2.866 4.636 3.67 4.636.191 0 .948-.43 1.683-.954" style="fill:#42a7ea;fill-opacity:1;stroke-width:.478969" transform="translate(-38.4)scale(.8)"/>
      <path d="M494.966 136.065c.523-.784.309-1.152-.671-1.152-1.202 0-4.272-2.228-8.594-6.237-4.006-3.716-4.47-4.03-7.44-5.029-3.162-1.063-4.317-1.714-6.926-3.901-.762-.64-1.759-1.255-2.215-1.37-1.312-.327-3.92-.015-3.92.47 0 .242 1.336 1.51 2.968 2.82 2.118 1.698 3.706 2.624 5.54 3.233 3.327 1.104 5.749 2.673 9.91 6.418 3.15 2.835 4.91 4.251 6.328 5.092.323.19 1.479.35 2.57.353 1.52.004 2.091-.158 2.45-.697" style="fill:#d78530;fill-opacity:1;stroke-width:.478969" transform="translate(-38.4)scale(.8)"/>
      <path d="M412.159 135.178c1.915-2.11 2.969-3.393 2.969-3.615 0-.131.723-.951 1.606-1.822a62 62 0 0 0 3.203-3.474c1.435-1.702 1.523-1.92.867-2.161-2.078-.767-2.73-.424-7.044 3.708-6.045 5.79-6.88 6.996-5.658 8.166.73.699 3.124.226 4.057-.802m-7.284.248c.292-.33.803-1.161 1.137-1.847.608-1.252 4.168-4.972 4.758-4.972.173 0 .417-.25.543-.556.446-1.09-.89-.541-2.981 1.226-1.161.98-2.734 2.186-3.496 2.677s-1.62 1.108-1.908 1.37-.778.476-1.089.476c-.756 0-.715.714.09 1.547.81.84 2.238.877 2.945.079" style="fill:#42a7ea;fill-opacity:1;stroke-width:.478969" transform="translate(-38.4)scale(.8)"/>
      <path d="M516.063 133.745c0-.187-.242-.426-.537-.532s-.77-.855-1.055-1.663c-.284-.809-.747-1.648-1.027-1.866-1.36-1.057-3.23.854-2.435 2.488.76 1.562 5.054 2.899 5.054 1.573m-128.54-.635c.436-.41-.067-2.288-.67-2.505-1.21-.435-4.579 1.742-4.579 2.96 0 .412 4.765-.001 5.25-.456" style="fill:#d78530;fill-opacity:1;stroke-width:.478969" transform="translate(-38.4)scale(.8)"/>
      <path d="M496.84 133.067c.558-.199 1.015-.502 1.015-.673s-1.011-.705-2.248-1.185c-2.268-.881-3.886-2.195-8.089-6.566-2.102-2.188-2.377-2.344-5.847-3.317-2.321-.651-4.173-1.433-5.109-2.156-2.28-1.763-4.358-2.654-4.934-2.114-.37.348-.158.72.966 1.684 1.427 1.225 2.674 1.87 7.22 3.73 2.12.868 5.761 3.26 6.106 4.012.358.783 6.119 5.798 7.269 6.329 1.518.701 2.257.753 3.65.256" style="fill:#42a7ea;fill-opacity:1;stroke-width:.478969" transform="translate(-38.4)scale(.8)"/>
      <path d="M403.053 131.37c1.043-.52 2.384-1.395 2.98-1.947 1.365-1.263 3.19-2.503 7.808-5.305q3.663-2.222 3.662-2.907c0-1.18-1.05-1.131-2.633.121-.838.663-2.548 1.836-3.8 2.607-1.251.77-3.148 2.137-4.214 3.035s-2.135 1.633-2.375 1.633-.437.145-.437.322-1.068.757-2.374 1.288c-2.267.921-2.7 1.3-2.112 1.852.498.466 1.6.246 3.495-.698m96.575-1.267c.13-.197-.44-.758-1.268-1.247-.826-.489-2.302-1.777-3.28-2.862-4.253-4.721-5.218-5.52-8.478-7.02-1.79-.823-3.582-1.496-3.984-1.496-.401 0-1.682-.503-2.845-1.119-1.494-.79-2.405-1.05-3.103-.886-1.893.445-1.537 1.217 1.195 2.588.436.22 1.149.587 1.584.818s2.122.796 3.749 1.256c3.172.897 4.314 1.758 8.492 6.4 2.554 2.837 7.078 4.871 7.938 3.568m-115.598-.441c1.117-.477 1.7-1.676 1.09-2.246-.906-.85-4.897 1.293-4.247 2.28.342.518 1.903.502 3.156-.034" style="fill:#d78530;fill-opacity:1;stroke-width:.478969" transform="translate(-38.4)scale(.8)"/>
      <path d="M446.395 129.538c.75-.846 1.585-5.585 1.586-8.99 0-2.824-.072-3.096-.963-3.643-1.397-.858-2.38-.215-2.982 1.95-.271.977-1.009 3.311-1.639 5.187-.63 1.875-1.145 3.594-1.145 3.819s.437.818.972 1.32c1.117 1.046 3.388 1.241 4.17.357m-45.557-.574c1.886-.802 6.549-3.803 7.053-4.54.17-.25 1.736-1.36 3.477-2.47 4.426-2.816 5.64-3.955 5.083-4.766-.521-.757-1.721-.646-2.409.224-1.464 1.853-6.998 6.744-7.63 6.744-.405 0-.832.144-.948.32s-1.758 1.025-3.648 1.887c-3.67 1.673-4.698 2.385-4.303 2.983.368.559 1.386.442 3.325-.382" style="fill:#42a7ea;fill-opacity:1;stroke-width:.478969" transform="translate(-38.4)scale(.8)"/>
      <path d="M438.957 127.973c.37-.309 1.047-1.753 1.505-3.21.457-1.456.992-2.925 1.189-3.264.196-.34.472-1.432.613-2.427.31-2.187-.258-2.81-2.398-2.637-1.387.112-1.523.257-3.573 3.826-3.284 5.715-3.377 5.947-2.887 7.262.233.628.8 1.272 1.257 1.43.991.344 3.35-.195 4.294-.98m79.79.467c.306-.286-3.506-3.504-4.178-3.526-.783-.026-1.393 1.816-.817 2.466 1 1.129 4.198 1.808 4.995 1.06" style="fill:#d78530;fill-opacity:1;stroke-width:.478969" transform="translate(-38.4)scale(.8)"/>
      <path d="M507.926 126.422c-.28-.263-1.369 1.032-1.35 1.607.008.216.369-.006.802-.495.434-.488.68-.988.548-1.112m-6.036.564c.285-.483.93-1.584 1.435-2.447 1.105-1.885.943-2.456-.792-2.796-.722-.142-3.403-1.232-5.957-2.423-2.67-1.245-5.445-2.267-6.53-2.405-2.107-.27-4.439-1.166-6.591-2.535-1.366-.868-2.743-.953-3.24-.2-.284.43 2.186 1.812 3.241 1.814 2.9.005 9.408 4.214 12.046 7.79 1.14 1.547 2.85 2.985 4.283 3.6 1.43.616 1.52.599 2.106-.398" style="fill:#42a7ea;fill-opacity:1;stroke-width:.478969" transform="translate(-38.4)scale(.8)"/>
      <path d="M398.232 126.595c.693-.494 2.596-1.486 4.23-2.204 1.632-.719 3.49-1.64 4.128-2.046 1.482-.945 6.559-5.63 6.559-6.053 0-.176-.281-.421-.625-.545-.407-.146-1.265.36-2.474 1.458-1.017.924-2.918 2.231-4.224 2.903-4.687 2.412-10.094 6.094-10.094 6.874 0 .782 1.1.612 2.5-.387" style="fill:#d78530;fill-opacity:1;stroke-width:.478969" transform="translate(-38.4)scale(.8)"/>
      <path d="M454.54 125.961c.365-.663.547-1.579.423-2.133l-.632-2.825c-.228-1.02-.49-2.105-.581-2.411a7 7 0 0 1-.197-.808c-.072-.602-1.352-1.418-2.222-1.418-1.376 0-1.767 1.026-1.767 4.637 0 4.164 1.029 6.12 3.218 6.12.85 0 1.269-.277 1.757-1.162" style="fill:#42a7ea;fill-opacity:1;stroke-width:.478969" transform="translate(-38.4)scale(.8)"/>
      <path d="M383.433 125.821c.45-.419.472-.716.107-1.466-.251-.518-.7-.941-.999-.941-.814 0-2.82 1.014-3.596 1.818-.653.676-.651.732.035 1.122.896.511 3.69.177 4.453-.533" style="fill:#d78530;fill-opacity:1;stroke-width:.478969" transform="translate(-38.4)scale(.8)"/>
      <path d="M431.22 125.064c.728-.52 1.324-1.155 1.324-1.411s.534-1.254 1.187-2.22c.8-1.18 1.188-2.23 1.188-3.208 0-1.363-.092-1.477-1.484-1.84-2.302-.598-2.55-.51-4.512 1.586-3.514 3.755-4.154 6.145-1.985 7.407 1.495.869 2.757.777 4.282-.314m77.848-.646c2.51-5.468 3.702-8.475 4.22-10.648.266-1.122.644-2.33.838-2.685.445-.81.464-2.88.027-2.88-.18 0-.542 1.127-.804 2.505-.261 1.377-.724 3.004-1.028 3.616s-.945 2.365-1.425 3.895-1.206 3.401-1.613 4.158-.74 1.717-.74 2.133-.179.756-.396.756a.395.395 0 0 0-.396.393c0 .695.754-.017 1.317-1.243m-47.411-.815c.543-1.332.58-1.775.19-2.215-.268-.303-.487-1.17-.487-1.928 0-1.142-.3-1.65-1.755-2.976-1.286-1.171-1.813-1.456-1.972-1.066-.12.293-.738.639-1.373.77-.864.177-1.154.45-1.154 1.084 0 1.222 1.578 6.985 2.062 7.533.225.255 1.175.463 2.11.463 1.65 0 1.72-.049 2.379-1.665m-63.806-.423c1.12-.946 2.483-1.902 3.027-2.126s1.079-.494 1.187-.6c.11-.106.994-.6 1.967-1.097s2.282-1.331 2.91-1.854c4.177-3.48 4.407-3.713 4.016-4.08-.277-.26-1.03.15-2.373 1.288-2.366 2.006-5.42 3.938-7.311 4.625-1.476.536-7.521 4.412-7.521 4.823 0 .444.517.739 1.294.739.422 0 1.684-.774 2.804-1.719" style="fill:#42a7ea;fill-opacity:1;stroke-width:.478969" transform="translate(-38.4)scale(.8)"/>
      <path d="m521.152 123.838.933-.673-1.373-.61c-.755-.336-1.598-.865-1.872-1.174-.274-.31-.744-.564-1.044-.564s-.545-.167-.545-.37c0-.75-1.074-.344-1.52.573-.753 1.55-.545 2.023 1.223 2.775 2.094.89 3.01.9 4.198.043m-139.07-1.917c.111-.168-.015-.753-.281-1.3-.432-.888-.646-.973-2.015-.8-2.683.336-4.082 2.253-1.965 2.69.599.125 1.267.27 1.484.322.53.129 2.522-.526 2.777-.912m14.046-1.156c.762-.566 2.674-1.667 4.249-2.445 3.272-1.618 9.994-6.36 9.998-7.054.004-.723-.984-.546-1.816.326-1.019 1.068-3.119 2.287-5.722 3.322-1.186.472-3.378 1.785-4.87 2.917-1.492 1.133-3.14 2.277-3.661 2.543-1.125.574-1.352 2.044-.256 1.662.38-.133 1.316-.705 2.078-1.271" style="fill:#d78530;fill-opacity:1;stroke-width:.478969" transform="translate(-38.4)scale(.8)"/>
      <path d="M423.275 122.017c.644-.41 4.747-5.03 5.2-5.857.446-.812-.374-3.132-1.106-3.132-.232 0-1.254.876-2.27 1.947a136 136 0 0 1-3.52 3.559c-1.725 1.663-2.33 2.743-1.902 3.393.284.43 2.958.497 3.598.09" style="fill:#42a7ea;fill-opacity:1;stroke-width:.478969" transform="translate(-38.4)scale(.8)"/>
      <path d="M505.633 119.426c.095-.595-.065-.834-.558-.834-1.37 0-8.06-2.513-9.595-3.604-1.253-.891-6.482-2.926-8.375-3.26-1.442-.253-3.104.248-3.104.936 0 .658 3.95 2.23 6.96 2.769 1.65.296 3.565.826 4.255 1.178 7.598 3.88 10.137 4.567 10.417 2.815" style="fill:#d78530;fill-opacity:1;stroke-width:.478969" transform="translate(-38.4)scale(.8)"/>
      <path d="M395.138 117.79c2.616-2.246 3.633-2.931 4.908-3.31 1.937-.574 6.373-2.889 6.373-3.325 0-.194-.897-.353-1.994-.353-1.63 0-2.415.254-4.301 1.391-3.05 1.839-8.953 7.008-8.273 7.245.548.192 1.979-.525 3.287-1.648" style="fill:#42a7ea;fill-opacity:1;stroke-width:.478969" transform="translate(-38.4)scale(.8)"/>
      <path d="M522.99 118.517q.396-.39-.018-.534c-.228-.08-1.357-.726-2.509-1.437s-2.243-1.293-2.425-1.293c-.456 0-1.296 2.496-.994 2.955.677 1.026 4.987 1.25 5.946.309m-144.116-.073c1.649-.646 1.971-1.114 1.425-2.07-.677-1.185-2.254-.941-3.903.604-1.349 1.264-1.392 1.373-.653 1.643 1.165.426 1.663.398 3.131-.177m41.748-.664c1.573-1.508 1.56-1.909-.052-1.586-1.59.319-2.276.813-2.276 1.64 0 1.47.756 1.453 2.328-.055m-27.271-2.148c.687-.812 2.305-2.088 3.596-2.835s2.348-1.508 2.348-1.692c0-.874-3.084.27-4.838 1.794-1.028.893-2.324 1.786-2.88 1.984-1.214.432-1.716 1.432-.95 1.887.968.574 1.447.374 2.724-1.138" style="fill:#d78530;fill-opacity:1;stroke-width:.478969" transform="translate(-38.4)scale(.8)"/>
      <path d="M506.951 116.56c.585-.66-.25-1.06-3.464-1.656-2.075-.386-5.292-1.726-7.25-3.02-2.476-1.635-7.91-2.81-7.579-1.638.058.204 1.632.9 3.499 1.549 1.866.647 4.045 1.575 4.842 2.06 2.54 1.546 6.552 2.974 9.021 3.21.246.024.665-.203.931-.504" style="fill:#42a7ea;fill-opacity:1;stroke-width:.478969" transform="translate(-38.4)scale(.8)"/>
      <path d="M472.72 114.962c3.081-1.072 3.18-1.119 2.913-1.369-.308-.288-6.82 1.707-7.465 2.287-.52.47-.448.505.594.29.653-.134 2.434-.678 3.958-1.208m-17.43-.436c2.172-.013 2.31-.062 1.722-.613-.56-.524-2.245-.605-13.576-.65-7.116-.027-13.018.026-13.117.118-.098.093.584.46 1.518.818 1.5.574 2.824.631 11.394.495 5.334-.084 10.76-.16 12.059-.168m-76.039-.743c.643-.602-.336-2.417-1.362-2.526-.928-.098-3.531 1.748-3.531 2.504 0 .754 4.09.773 4.893.022" style="fill:#d78530;fill-opacity:1;stroke-width:.478969" transform="translate(-38.4)scale(.8)"/>
      <path d="M422.846 113.085c3.703-2.197 3.966-2.38 4.628-3.203.583-.723.6-.998.138-2.256-.613-1.671-.271-2.878 1.176-4.149.522-.459 1.069-1.432 1.215-2.162.146-.731.51-1.417.81-1.524.299-.108.543-.609.543-1.113 0-.841-.106-.896-1.286-.656-2.546.516-5.193 1.71-6.881 3.103-1.055.87-2.449 1.588-3.604 1.857-7.386 1.719-7.377 1.71-7.004 6.47.38 4.856.739 5.207 5.08 4.977 2.745-.145 3.49-.338 5.185-1.344m44.756.879c2.21-.54 3.337-1.112 3.337-1.695 0-.796-2.115-2.498-3.636-2.926-3.136-.884-4.03-1.28-5.358-2.373-1.176-.967-1.501-1.056-2.99-.82-.92.145-2.473.38-3.453.522-1.174.17-1.743.424-1.669.749.138.601 2.895 3.725 4.999 5.663 1.465 1.35 1.682 1.427 4.038 1.427 1.369 0 3.498-.246 4.732-.547" style="fill:#42a7ea;fill-opacity:1;stroke-width:.478969" transform="translate(-38.4)scale(.8)"/>
      <path d="m523.639 113.405.934-.735-.945-.249c-.52-.137-1.732-.64-2.693-1.12-.96-.478-1.819-.87-1.906-.87-.088 0-.278.593-.423 1.318-.208 1.042-.109 1.427.477 1.842 1.092.775 3.458.678 4.556-.186" style="fill:#d78530;fill-opacity:1;stroke-width:.478969" transform="translate(-38.4)scale(.8)"/>
      <path d="M391.91 112.953c2.458-1.608 2.268-2.15-.753-2.15-1.913 0-2.154.085-2.154.765 0 .973.692 2.202 1.24 2.202.23 0 .981-.368 1.668-.817" style="fill:#42a7ea;fill-opacity:1;stroke-width:.478969" transform="translate(-38.4)scale(.8)"/>
      <path d="M507.355 113.427c0-.188-.668-.543-1.484-.79-.817-.246-1.663-.577-1.88-.735-.218-.158-1.42-.812-2.67-1.454-1.936-.993-2.615-1.15-4.553-1.055l-2.277.111 3.362 1.642c1.849.904 4.075 1.852 4.948 2.108 1.886.554 4.554.656 4.554.173m-25.45-1.976c6.505-3.23 8.995-4.901 13.266-8.908 2.342-2.196 4.599-4.616 5.016-5.378s1.22-1.79 1.786-2.285c.565-.494 1.028-1.123 1.028-1.398s.457-1.178 1.016-2.007c1.943-2.885 4.125-10.718 2.986-10.718-.194 0-.448.542-.564 1.206-.471 2.684-1.061 4.714-1.872 6.437-1.549 3.293-2.888 5.784-3.34 6.214-.246.233-1.187 1.448-2.091 2.7-1.838 2.543-3.115 3.832-6.751 6.812-2.59 2.122-6.708 4.822-7.354 4.822-.206 0-.655.233-.999.517s-1.916 1.131-3.494 1.88c-1.579.75-2.87 1.434-2.87 1.523 0 .462 1.388-.001 4.237-1.417" style="fill:#d78530;fill-opacity:1;stroke-width:.478969" transform="translate(-38.4)scale(.8)"/>
      <path d="M449.727 111.751c2.592-.11 4.773-.257 4.844-.324s-.096-.414-.374-.77c-.45-.577-1.58-.664-10.584-.812-5.544-.09-10.966-.205-12.05-.253-2.338-.104-2.944.753-1.113 1.571 1.056.472 9.537 1.04 12.98.87.87-.044 3.704-.17 6.297-.282m26.73-.328c3.857-1.302 3.575-1.734-1.13-1.734-2.196 0-3.992.092-3.992.204 0 .718 1.324 2.393 1.89 2.392.376 0 1.83-.388 3.232-.862" style="fill:#fff;fill-opacity:1;stroke-width:.478969" transform="translate(-38.4)scale(.8)"/>
      <path d="M508.74 109.875c0-.814-.16-1.07-.593-.952-.327.089-1.44.23-2.474.314s-1.88.299-1.88.476c0 .615 2.182 1.449 3.562 1.362 1.255-.08 1.385-.192 1.385-1.2" style="fill:#42a7ea;fill-opacity:1;stroke-width:.478969" transform="translate(-38.4)scale(.8)"/>
      <path d="M378.118 108.02c0-1.105-.151-1.464-.594-1.407-.96.123-3.563 1.016-3.556 1.22.028.864 1.851 1.88 3.16 1.761.875-.08.99-.262.99-1.574" style="fill:#d78530;fill-opacity:1;stroke-width:.478969" transform="translate(-38.4)scale(.8)"/>
      <path d="M408.498 108.915c1.462-.361 1.484-.394 1.484-2.2 0-1.661-.096-1.856-1.02-2.074-1.652-.388-24.35.112-24.813.547-.576.54.562 2.058 2.39 3.188 1.463.905 1.546.912 10.974.909 5.225-.001 10.168-.168 10.985-.37" style="fill:#42a7ea;fill-opacity:1;stroke-width:.478969" transform="translate(-38.4)scale(.8)"/>
      <path d="M451.46 108.037c.154-.145-.065-.5-.487-.789-.541-.37-1.944-.527-4.75-.53-4.136-.006-13.339-1.45-13.581-2.133-.19-.535-1.992-.09-2.257.559-.678 1.654.828 2.736 4.336 3.114 2.934.316 16.355.139 16.74-.221m72.618-.279c.598-.211 1.088-.5 1.088-.642s-1.164-.953-2.587-1.804c-2.746-1.64-2.736-1.642-3.093.758-.353 2.377 1.115 2.917 4.592 1.688" style="fill:#d78530;fill-opacity:1;stroke-width:.478969" transform="translate(-38.4)scale(.8)"/>
      <path d="M484.198 106.815c1.581-.89 1.798-1.162 1.698-2.133l-.113-1.113-11.651-.098c-7.552-.064-11.794.035-12.056.28-.604.567.52 1.446 3.609 2.824l2.681 1.196 7.01.032c6.971.032 7.02.026 8.822-.988" style="fill:#42a7ea;fill-opacity:1;stroke-width:.478969" transform="translate(-38.4)scale(.8)"/>
      <path d="M507.22 107.256c1.396-.205 3.697-2.18 3.697-3.171 0-.868-1.112-1.035-7.718-1.156l-5.542-.102-2.327 2.091c-1.28 1.15-2.227 2.242-2.105 2.427.221.335 11.61.263 13.995-.089" style="fill:#d78530;fill-opacity:1;stroke-width:.478969" transform="translate(-38.4)scale(.8)"/>
      <path d="M515.232 104.59c.022-.46-.139-.835-.356-.835-.218 0-.378.792-.357 1.761.032 1.437.098 1.59.357.835.174-.51.334-1.303.356-1.762m-66.063.334c0-.638-2.356-3.338-3.107-3.562-.426-.126-2.885-.396-5.464-.598-2.58-.203-5.447-.465-6.372-.582l-1.682-.214v1.258c0 1.438 1.031 2.196 3.99 2.934 3.086.769 12.635 1.346 12.635.764m10.628-4.368-2.557-.735c-.094.574-.771.967-1.926.967-2.55 0-6.146.484-6.146.828 0 .194.312.736.693 1.203s.96 1.22 1.287 1.672c.546.755.81.804 3.256.598 1.465-.123 3.295-.508 4.069-.854 1.606-.717 2.112-1.912 1.414-3.347-.068-.14-.05-.213-.09-.332" style="fill:#42a7ea;fill-opacity:1;stroke-width:.478969" transform="translate(-38.4)scale(.8)"/>
      <path d="M461.6 97.078c-3.833 0-4.578.094-4.788.606-.136.333-.032.929.233 1.326.2.299.235.566.195.81l2.557.735c-.396-1.199.519-1.404 1.672-.14.825.902 1.326 1.114 2.64 1.114 3.135 0 5.52-3.207 3.043-4.09-.558-.199-3.056-.36-5.552-.36" style="fill:#d78530;fill-opacity:1;stroke-width:.478969" transform="translate(-38.4)scale(.8)"/>
      <path d="M489.642 104.518c1.548-.727 1.43-1.583-.198-1.436-1.085.098-1.307.282-1.416 1.177-.071.583.018.995.198.915s.817-.375 1.416-.656" style="fill:#fff;fill-opacity:1;stroke-width:.478969" transform="translate(-38.4)scale(.8)"/>
      <path d="M394.092 102.682c.363-.215.399-.398.11-.565-.234-.136-.544-1.078-.687-2.092-.311-2.197-.596-2.317-4.908-2.066-1.632.095-5.519.186-8.636.202-5.566.03-5.666.044-5.542.826.159.999 2.511 2.807 4.531 3.481 1.739.58 14.217.758 15.132.214" style="fill:#42a7ea;fill-opacity:1;stroke-width:.478969" transform="translate(-38.4)scale(.8)"/>
      <path d="M415.684 101.92c1.286-.42 2.595-.762 2.91-.762 1.184 0 3.32-1.253 3.887-2.28l.589-1.068-13.57.098-13.57.097-.121 1.17c-.1.961.118 1.343 1.213 2.125 1.85 1.323 3.375 1.538 10.298 1.454 4.915-.06 6.458-.213 8.364-.834m72.712-.955c3.144-1.003 4.585-2.939 2.957-3.97-.526-.334-18.34-.288-20.11.05-1.085.209-1.321.447-1.518 1.531-.127.706-.364 1.66-.525 2.118l-.293.835h8.862c6.89 0 9.255-.125 10.627-.564" style="fill:#d78530;fill-opacity:1;stroke-width:.478969" transform="translate(-38.4)scale(.8)"/>
      <path d="M493.755 101.245c.603-.364 3.704-3.9 3.704-4.224 0-.47-2.396-.76-2.92-.351-.283.22-.722 1.049-.976 1.843s-.726 1.65-1.049 1.901c-1.002.78.102 1.519 1.24.831" style="fill:#fff;fill-opacity:1;stroke-width:.478969" transform="translate(-38.4)scale(.8)"/>
      <path d="M515.004 100.567c1.941-.62 3.547-2.105 3.346-3.093-.1-.49-1.12-.61-6.447-.767-8.843-.26-8.65-.297-10.296 2.027-.757 1.07-1.377 2.052-1.377 2.184s2.907.24 6.46.24c4.876 0 6.916-.145 8.314-.591m-70.859-1.611c.176-.16-.944-2.061-2.489-4.226-2.495-3.496-2.988-3.987-4.414-4.387-2.159-.606-2.81-.156-3.364 2.32-.247 1.102-.633 2.438-.858 2.968-.64 1.503.19 2.688 2.108 3.006 5.06.838 6.056.945 7.312.785.762-.097 1.53-.307 1.705-.466m9.294.364c.893-.016.904-.07.784-3.93-.084-2.725-.279-4.003-.64-4.212-.686-.397-10.797-.47-11.46-.083-.412.24-.42.499-.036 1.287.264.543.63.987.812.987s.332.16.332.357.545 1.073 1.21 1.948a71 71 0 0 1 2.037 2.824l.826 1.234 2.615-.198c1.438-.108 3.022-.205 3.52-.214m-66.444-3.224c.093-.076-.285-.596-.84-1.155-.556-.559-1.256-1.514-1.557-2.123-.478-.967-.745-1.102-2.128-1.075-.87.017-4.036.056-7.036.086-6.215.064-6.804.351-4.79 2.335 1.613 1.588 2.382 1.904 5.297 2.173 2.46.228 10.7.048 11.054-.241" style="fill:#d78530;fill-opacity:1;stroke-width:.478969" transform="translate(-38.4)scale(.8)"/>
      <path d="M405.815 95.732c.332-.12.604-.36.604-.536 0-.522-1.353-3.104-1.78-3.398-.592-.408-16.53-.33-17.22.083-.527.316-.526.469.005 1.367.74 1.25 2.547 2.268 4.806 2.706 1.769.342 12.503.167 13.585-.222m22.749-.125.969-.013-1.233-1.205c-.677-.663-1.291-1.623-1.364-2.133l-.132-.928-9.5.123c-5.224.067-9.62.234-9.767.37-.532.493.833 2.669 1.932 3.081 2.38.893 3.009.916 19.095.705m40.681-.596c1.865-.275 3.745-1.88 3.595-3.068-.163-1.303-.694-1.375-9.257-1.248-8.203.122-7.96.03-7.511 2.84.18 1.12.476 1.68.935 1.765.93.172 10.675-.058 12.238-.289m24.405-.535c2.847-.791 4.52-3.34 2.523-3.841-1.167-.293-19.441-.3-20.254-.01-.344.125-.626.64-.626 1.148s-.356 1.346-.791 1.865-.792 1.1-.792 1.293c0 .493 18.01.081 19.94-.455" style="fill:#42a7ea;fill-opacity:1;stroke-width:.478969" transform="translate(-38.4)scale(.8)"/>
      <path d="M500.61 92.781c1.1-1.7 1.24-2.131.777-2.405-1.18-.7-2.342-.164-2.353 1.085-.005.54-.357 1.398-.783 1.908-1.007 1.206-.986 1.483.114 1.483.676 0 1.246-.526 2.246-2.071" style="fill:#fff;fill-opacity:1;stroke-width:.478969" transform="translate(-38.4)scale(.8)"/>
      <path d="M518.298 94.335c3.314-.827 5.95-2.718 5.013-3.596-.185-.174-3.095-.34-6.464-.368-10.195-.086-9.314-.234-10.671 1.792-.65.97-1.184 1.97-1.188 2.226-.011.668 10.587.626 13.31-.054m-86.6-1.15c.582-1.51.353-2.042-.88-2.042-1.857 0-2.47 1.768-.957 2.76 1.198.787 1.266.76 1.837-.718" style="fill:#42a7ea;fill-opacity:1;stroke-width:.478969" transform="translate(-38.4)scale(.8)"/>
      <path d="M378.184 89.536c.18-.17.044-.503-.303-.742-.347-.238-.93-.975-1.296-1.638l-.664-1.206h-8.27c-4.549 0-8.552.101-8.896.225-1.76.633.193 2.63 3.285 3.359 2.079.49 15.623.492 16.144.002" style="fill:#fff;fill-opacity:1;stroke-width:.478969" transform="translate(-38.4)scale(.8)"/>
      <path d="M399.508 89.265c.143-.217 0-.676-.32-1.02-.318-.344-.697-1.091-.841-1.66l-.262-1.033-4.838.195c-2.66.108-7.02.197-9.686.2-3.985.002-4.85.1-4.85.544 0 .77 1.962 2.387 3.365 2.774 1.758.485 17.112.485 17.432 0" style="fill:#d78530;fill-opacity:1;stroke-width:.478969" transform="translate(-38.4)scale(.8)"/>
      <path d="M423.373 89.104c.086-.081-.22-.596-.68-1.144-.46-.549-.836-1.309-.836-1.69 0-.38-.223-.7-.495-.711-2.629-.11-19.91.102-20.158.246-.81.47-.208 1.706 1.356 2.782l1.682 1.157 9.487-.246c5.217-.135 9.557-.313 9.644-.394m8.93-.121c.299-.454-3.606-3.064-5.2-3.477-3.596-.93-4.466 1.195-1.299 3.172 1.04.648 6.115.887 6.499.305" style="fill:#42a7ea;fill-opacity:1;stroke-width:.478969" transform="translate(-38.4)scale(.8)"/>
      <path d="m460.07 69.207 1.416.91c.014-.068-.125-.193-.07-.244.321-.3.648-.288 1.217.045 1.35.79 5.92 1.156 12.263.98 6.693-.184 8.132-.461 9.493-1.818 1.91-1.906 1.538-1.967-11.871-1.96-12.285.004-12.332.008-12.118.775.179.638.006 1.036-.33 1.312" style="fill:#d78530;fill-opacity:1;stroke-width:.478969" transform="translate(-38.4)scale(.8)"/>
      <path d="m481.453 82.51-.72.994c1.11-.164 10.864-.487 15.779-.508 2.845-.012 3.325-.117 4.254-.924 1.949-1.693 1.222-2.787-2.037-3.064-2.213-.188-2.654-.09-5.499 1.224-2.557 1.181-3.677 1.472-6.459 1.68-1.85.139-3.873.376-4.496.527-.48.117-.686.132-.822.07" style="fill:#42a7ea;fill-opacity:1;stroke-width:.478969" transform="translate(-38.4)scale(.8)"/>
      <path d="m480.732 83.504-16.43-.2c-.328.546-1.169 1.162-2.093 1.352-.62.128-2.025.918-3.125 1.756-2.259 1.722-2.658 2.746-.91 2.336 2.359-.553 3.578-.627 3.836-.236.355.538 9.672.54 12.53.002 2.69-.507 3.151-.835 4.29-3.057.505-.985 1.12-1.856 1.363-1.935.016-.006.501-.012.54-.018" style="fill:#42a7ea;fill-opacity:1;stroke-width:.478969" transform="translate(-38.4)scale(.8)"/>
      <path d="M439.295 54.791c-.27.046-.52.227-.781.522-.308.347-.423 1.938-.346 4.792.104 3.855.033 4.377-.715 5.323-1.107 1.4-3.347 2.11-4.812 1.525-1.665-.665-2.471-1.435-2.471-2.357 0-.462-.224-.926-.496-1.032-.177-.068.123-.37.287-.607l-2.775 1.809c2.725 2.822 3.573 4.658 2.376 6.14-.854 1.06-.732 1.64.864 4.102a125 125 0 0 1 2.627 4.265 71 71 0 0 0 2.713 4.215c.84 1.197 1.527 2.323 1.527 2.504s.189.328.418.328.595.481.812 1.067c.646 1.734 1.49 1.894 8.86 1.685 5.396-.152 6.787-.298 7.053-.742 1.51-2.528 8.83-6.752 9.923-5.726.183.17.108.429-.056.7l16.43.2.72-.994c-.176-.08-.187-.32-.037-.96s.202-1.163.115-1.163-.753.496-1.48 1.105c-2.647 2.215-4.151 1.904-1.783-.369 1.171-1.124 1.537-1.775 1.537-2.728 0-2.43-2.412-4.315-5.518-4.315-1.999 0-2.556.332-2.556 1.524 0 .59-.16 1.074-.354 1.074s-.454.375-.58.834c-.332 1.21-2.13 2.887-2.828 2.636-.63-.226-.545-.446.834-2.173.488-.612 1.014-1.59 1.17-2.172.341-1.282-.214-1.709-2.23-1.717-2.071-.009-6.472-2.906-6.257-3.969l-1.416-.91c-.786.645-2.82.357-5.896-1.004-4.454-1.97-7.729-4.808-11.047-9.568-2.024-2.903-3.02-3.982-3.832-3.844" style="fill:#fff;fill-opacity:1;stroke-width:.478969" transform="translate(-38.4)scale(.8)"/>
      <path d="m429.668 63.148-.961-1.64c-.083.117-.099.332-.234.332-.28 0-.848-.542-1.264-1.205s-1.256-1.707-1.865-2.319c-.61-.612-1.109-1.277-1.11-1.476-.003-.536-3.07-3.09-5.406-4.5-1.121-.677-2.576-1.845-3.234-2.594-1.51-1.717-2.66-1.554-2.233.316.366 1.603 2.439 3.939 5.662 6.376 1.45 1.095 3.26 2.78 4.022 3.744s2.365 2.701 3.562 3.861c.306.296.314.448.579.723z" style="fill:#d78530;fill-opacity:1;stroke-width:.478969" transform="translate(-38.4)scale(.8)"/>
      <path d="m432.598 60.906-.582-.789c-.301.574-1.452-.689-3.827-4.293-.634-.962-2.23-2.533-3.544-3.49-1.316-.957-2.393-1.856-2.393-1.996s-.376-.656-.836-1.147a52 52 0 0 1-1.828-2.095c-1.105-1.343-1.874-1.5-2.936-.6-.66.56-.667.683-.095 1.59.34.54 2.034 1.895 3.763 3.01 3.138 2.023 5.487 4.459 7.112 7.38.462.832 1 1.606 1.195 1.72.416.24.347.932.08 1.312l.961 1.64.293-.191c.367-.533 1.183-1.25 2.457-1.896.077-.04.11-.113.18-.155" style="fill:#42a7ea;fill-opacity:1;stroke-width:.478969" transform="translate(-38.4)scale(.8)"/>
      <path d="M421.973 44.1c-.465-.14-.876-.041-1.12.328-.628.953.541 2.548 4.698 6.412 3.222 2.995 4.746 4.72 5.523 6.248.59 1.16 1.074 2.37 1.074 2.69 0 .21-.081.241-.132.34l.582.788c.758-.45 1.174-1.048 1.632-2.558.354-1.166.558-2.317.454-2.559s-1.182-1.191-2.395-2.11c-3.02-2.285-6.945-6.037-8.879-8.488-.456-.577-.973-.953-1.437-1.091" style="fill:#d78530;fill-opacity:1;stroke-width:.478969" transform="translate(-38.4)scale(.8)"/>
      <path d="M448.575 73.098a104 104 0 0 1-3.858-.95c-1.1-.305-1.879-.3-3.015.019-2.072.581-2.825.54-2.825-.154 0-.491-.347-.542-2.216-.323-2.027.237-2.203.2-2.073-.434.216-1.05 2.047-1.68 5.537-1.904 3.415-.22 6.274.223 9.835 1.523 1.429.521 3.062.794 4.75.794 1.998 0 2.573.122 2.573.545 0 .667-2.573 1.441-4.75 1.43-.87-.005-2.652-.25-3.958-.546" style="fill:#42a7ea;fill-opacity:1;stroke-width:.478969" transform="translate(-38.4)scale(.8)"/>
      <path d="M496.538 88.575c.84-.052 2.9-1.935 2.9-2.65 0-1.029-.916-1.124-9.686-1.007-7.836.104-7.909.112-8.365.97-.253.477-.66 1.053-.902 1.28-.243.228-.442.718-.442 1.089 0 .635.466.665 8.016.51 4.408-.09 8.224-.176 8.48-.192" style="fill:#d78530;fill-opacity:1;stroke-width:.478969" transform="translate(-38.4)scale(.8)"/>
      <path d="M502.574 88.547c.45 0 1.219-1.765 1.219-2.8 0-.764-.191-.91-1.188-.91-.808 0-1.187.184-1.187.575 0 .316-.284 1.09-.631 1.718-.522.946-.54 1.2-.1 1.462.293.175.77.236 1.06.136s.662-.181.827-.181m-66.246-.407c.147-.223-.11-.884-.57-1.468-.462-.585-.84-1.17-.84-1.3s-.979-1.72-2.176-3.535c-1.198-1.813-2.177-3.428-2.177-3.588s-.592-1.133-1.316-2.163c-.723-1.03-1.43-2.153-1.57-2.495-.313-.762-1.402-.787-2.435-.055-.422.3-1.541.544-2.486.544-1.83 0-2.173-.331-2.247-2.17-.054-1.32-1.157-1.459-1.758-.222-.423.87-.317 1.215 1.002 3.25 1.782 2.749 7.736 8.465 11.008 10.568 1.306.84 2.82 1.863 3.364 2.275 1.115.844 1.807.957 2.2.36" style="fill:#fff;fill-opacity:1;stroke-width:.478969" transform="translate(-38.4)scale(.8)"/>
      <path d="M520.457 88.145c3.032-.904 3.992-1.775 3.085-2.798-.623-.704-13.903-.744-14.523-.044-.58.655-.997 2.384-.688 2.852.346.525 10.362.517 12.126-.01" style="fill:#d78530;fill-opacity:1;stroke-width:.478969" transform="translate(-38.4)scale(.8)"/>
      <path d="M535.525 87.759c2.021-.42 3.329-1.458 2.963-2.351-.196-.48-1.214-.57-6.366-.57h-6.133l-.428 1.492c-.236.82-.31 1.672-.166 1.891.306.464 7.182.15 10.13-.462M387.807 83.87c4.24-.104 7.793-.269 7.895-.365.103-.096-.116-.654-.485-1.24-.37-.586-.672-1.404-.672-1.818s-.312-.83-.693-.927c-.381-.095-5.41-.065-11.177.068-9.752.225-10.495.29-10.625.924-.248 1.215 2.36 3.188 4.88 3.691.436.087 1.326.091 1.98.008s4.656-.235 8.897-.34zm-16.617.005c0-.122-.265-.664-.59-1.206a15 15 0 0 1-.98-2.004l-.389-1.02-8.025-.038c-9.502-.045-10.686 0-11.141.41-.568.512 1.122 2.352 2.975 3.242 1.618.776 2.228.827 9.938.832 4.517.003 8.213-.095 8.213-.216" style="fill:#42a7ea;fill-opacity:1;stroke-width:.478969" transform="translate(-38.4)scale(.8)"/>
      <path d="M418.238 83.394c.544-.323.34-1.632-.389-2.49-.208-.245-1.977-.428-4.405-.456-2.232-.025-5.571-.297-7.421-.603-4.807-.797-8.572-.76-9.056.087-.458.802.045 1.793 1.493 2.945 1 .795 1.32.821 10.137.829 5.007.004 9.345-.136 9.64-.312" style="fill:#d78530;fill-opacity:1;stroke-width:.478969" transform="translate(-38.4)scale(.8)"/>
      <path d="M424.03 82.334c-1.524-2.256-3.502-3.037-3.288-1.298.09.736.51 1.2 1.51 1.668 2.086.977 2.613.867 1.778-.37m96.603.509c1.316-.073 2.972-.414 3.679-.756 1.585-.769 2.377-2.174 1.673-2.969-.402-.455-1.727-.53-7.752-.446-5.232.074-7.44.237-7.885.583-.58.452-.899 3.341-.418 3.792.193.18 5.704.076 10.703-.204" style="fill:#42a7ea;fill-opacity:1;stroke-width:.478969" transform="translate(-38.4)scale(.8)"/>
      <path d="M537.264 82.65c2.703-.178 5.193-.536 5.74-.826 1.659-.877 2.35-1.529 2.35-2.214 0-.935-2.031-1.138-10.054-1.004l-6.69.111-.145.928c-.08.51-.498 1.38-.93 1.932-.431.553-.784 1.085-.784 1.182 0 .29 2.456.494 4.156.344.87-.076 3.731-.28 6.357-.453" style="fill:#d78530;fill-opacity:1;stroke-width:.478969" transform="translate(-38.4)scale(.8)"/>
      <path d="M504.913 81.725c.207-1.701-.79-1.912-1.392-.294-.28.752-.51 1.42-.514 1.485-.003.065.395.065.885 0 .65-.087.925-.408 1.02-1.191m-12.598-3.261c2.763-1.236 5.543-1.466 8.594-.71.825.205 2.854.484 4.51.621l3.009.25 1.047-1.287c.576-.708 1.048-1.56 1.048-1.893 0-.513-.153-.541-.996-.182-.693.296-.927.625-.772 1.083.316.935-1.133 1.635-1.808.873-.398-.45-.368-.684.157-1.227.356-.37.648-1.052.648-1.517 0-.853.526-.894 2.484-.19.372.134.66-.087.81-.619.302-1.085.03-1.44-1.108-1.44-1.516 0-2.186-.396-2.186-1.292 0-1.584-.495-3.16-.992-3.16-.274 0-.943.543-1.488 1.206-3.296 4.013-6.001 5.427-9.468 4.947-.94-.13-3.668-.333-6.063-.45-3.434-.167-4.842-.08-6.658.415-1.875.51-2.252.742-2.023 1.243.155.338.365 1.543.467 2.678.18 2.016.21 2.059 1.294 1.91.61-.084 1.408.004 1.772.194 1.04.546 4.861-.173 7.722-1.453m-72.829-.157c.32-.3.058-1-.97-2.597-.773-1.202-1.407-2.457-1.407-2.789-.001-.378-.462-.689-1.238-.834-2.133-.4-2.843-.27-5.69 1.038-2.981 1.369-5.578 1.892-6.531 1.315-.81-.49-.198-.838 3.364-1.911 1.86-.56 3.783-1.54 5.85-2.98 2.618-1.823 3.332-2.145 4.761-2.145 2.226 0 3.277.743 3.582 2.535.333 1.95.928 2.36 2.74 1.891.795-.205 1.55-.534 1.68-.73.13-.197.575-.358.99-.358.784 0 1.574-1.01 1.574-2.014 0-.923-2.662-3.434-4.545-4.288-1.342-.609-2.475-.782-5.109-.782-3.288 0-4.063.16-8.85 1.84-4.07 1.427-9.957 5.546-11.563 8.089-.718 1.137-.72 1.195-.022 1.787 1.01.856 6.294 2.758 7.725 2.78.653.01 1.433.164 1.733.342.804.477 11.394.309 11.926-.19" style="fill:#fff;fill-opacity:1;stroke-width:.478969" transform="translate(-38.4)scale(.8)"/>
      <path d="M386.232 77.823c2.94-.024 5.558-.172 5.819-.327.358-.214.37-.669.05-1.85-.233-.86-.535-1.578-.672-1.592-1.157-.126-22.926-.175-23.306-.053-.857.276-.538 1.757.594 2.76 1.305 1.158 1.776 1.23 7.62 1.16 2.503-.029 6.956-.073 9.895-.098m-20.51-1.703c-.069-.815-.302-1.65-.517-1.854-.47-.444-19.365-.317-19.846.134-.544.51.147 1.549 1.64 2.47 1.41.87 1.567.883 10.14.81l8.708-.076z" style="fill:#d78530;fill-opacity:1;stroke-width:.478969" transform="translate(-38.4)scale(.8)"/>
      <path d="M397.038 76.584c-.446-.459-1.018-1.21-1.27-1.669-.668-1.213-2.015-1.108-2.015.156 0 1.429 1.059 2.348 2.703 2.348h1.393z" style="fill:#42a7ea;fill-opacity:1;stroke-width:.478969" transform="translate(-38.4)scale(.8)"/>
      <path d="M526.819 76.212c1.622-.654 2.912-2.198 2.557-3.063-.195-.476-.97-.54-4.892-.403-2.563.089-6.087.175-7.83.192l-3.169.03-.492 1.478c-.943 2.831-1.255 2.7 5.94 2.516 4.664-.119 6.832-.325 7.886-.75" style="fill:#d78530;fill-opacity:1;stroke-width:.478969" transform="translate(-38.4)scale(.8)"/>
      <path d="M548.398 75.786c1.624-.641 3.215-2.27 2.695-2.758-.144-.135-4.392-.298-9.44-.362l-9.178-.117-.973 1.786c-.535.982-1.033 1.902-1.107 2.045-.206.398 3.859.504 10.407.272 4.386-.155 6.371-.382 7.596-.866m-187.103-4.094c0-.294-.154-.625-.344-.734-.189-.11-.458-.87-.598-1.691-.224-1.31-.386-1.496-1.338-1.521-3.55-.095-17.332.11-17.593.262-1.15.665 1.108 3.299 3.345 3.903.491.133 4.411.258 8.71.278 6.562.031 7.818-.049 7.818-.497m28.453-.041c.1-.092-.052-.574-.335-1.07s-.425-1.229-.313-1.628c.444-1.594.08-1.652-9.652-1.527-5.086.065-9.96.147-10.83.182s-2.607.087-3.86.115c-2.16.05-2.275.1-2.275.997 0 1.125 1.455 2.492 3.26 3.063 1.245.394 23.575.272 24.005-.132" style="fill:#42a7ea;fill-opacity:1;stroke-width:.478969" transform="translate(-38.4)scale(.8)"/>
      <path d="m399.67 69.648 2.392-2.186-1.087-.204c-1.816-.341-8.396.044-9.018.528-.902.702-.686 2.3.467 3.465.957.967 1.208 1.036 2.95.82 1.639-.204 2.239-.542 4.296-2.423m98.539 1.019c1.935.028 3.195-.133 3.718-.477.812-.533 2.254-2.375 2.259-2.886.002-.157-3.68-.24-8.18-.186l-8.181.1-.922 1.635c-.508.9-.923 1.685-.923 1.747 0 .216 6.156.376 7.72.201.87-.098 2.9-.158 4.509-.134m30.271-.471c2.12-.475 3.812-1.517 3.812-2.35 0-.373-5.696-.692-14.349-.802l-5.838-.075v1.64c0 .901.119 1.75.264 1.886.516.483 13.71.238 16.11-.299m25.234-.24c1.11-.402 2.259-1.999 1.769-2.459-.332-.311-18.174-.585-19.45-.298-.447.1-1.276.846-1.842 1.656l-1.03 1.474 1.05.114c2.412.261 18.55-.141 19.503-.487" style="fill:#d78530;fill-opacity:1;stroke-width:.478969" transform="translate(-38.4)scale(.8)"/>
      <path d="M417.693 69.637c.655-.678.659-.752.047-.972-.878-.316-2.462.96-1.731 1.395.73.434.897.392 1.684-.423" style="fill:#42a7ea;fill-opacity:1;stroke-width:.478969" transform="translate(-38.4)scale(.8)"/>
      <path d="M509.305 65.923c-.62-2.505-2.944-7.117-4.254-8.442-.533-.539-1.26-1.406-1.617-1.927-.842-1.23-2.399-2.875-5.594-5.908-5.521-5.243-10.93-8.908-18.294-12.399-5.477-2.596-5.857-2.742-10.784-4.14a267 267 0 0 1-4.552-1.324c-1.156-.365-5.436-.97-9.104-1.287-8.69-.75-7.01-.746-13.2-.03-5.514.638-5.8.716-5.8 1.58 0 .425.234.512.891.327 3.96-1.111 17.035-1.354 22.661-.42 6.239 1.035 11.55 2.457 15.5 4.15 1.135.487 2.218.885 2.408.885s.958.43 1.707.957 2.524 1.51 3.943 2.187c7.01 3.34 16.322 11.668 22.266 19.914 2.474 3.431 3.456 5.773 3.456 8.242 0 .466.134.974.297 1.13.543.516.582-1.425.07-3.495M389.094 64.9c.335-.357 1.03-1.38 1.545-2.276 1.065-1.848 1.324-2.245 2.822-4.308 1.966-2.71 2.832-3.642 7.046-7.586 5.811-5.437 8.061-7.056 16.741-12.048q1.13-.65.735-1.021c-.45-.423-2.375.508-7.43 3.595-5.842 3.57-14.278 11.13-17.548 15.73-.52.732-1.342 1.748-1.827 2.258-1.09 1.146-3.362 5.048-3.362 5.772 0 .72.539.672 1.278-.116" style="fill:#d78530;fill-opacity:1;stroke-width:.478969" transform="translate(-38.4)scale(.8)"/>
      <path d="M392.013 64.362c.36-.653.9-1.416 1.198-1.696s.542-.733.542-1.007.149-.555.33-.623 1.33-1.396 2.551-2.95c1.222-1.556 4.176-4.644 6.566-6.863 4.837-4.492 7.236-6.258 11.334-8.343.87-.444 2.118-1.175 2.77-1.625.654-.45 1.544-.947 1.98-1.103.494-.177.608-.347.301-.455-.269-.094-.982.068-1.583.362-3.694 1.8-5.443 2.782-6.353 3.562a17 17 0 0 1-2.208 1.556c-1.188.677-7.621 6.1-10.086 8.503-2.338 2.278-8.769 10.773-8.769 11.583 0 .704.83.18 1.427-.901m9.205.957c.677-.127 1.13-.384 1.006-.572-.307-.464-3.215-2.165-3.703-2.165-.536 0-1.692 2.159-1.396 2.607.27.41 2.265.472 4.093.13m57.618-2.085c.598-3.505 2.836-6.584 7.595-10.45 3.275-2.662 6.39-8.154 5.808-10.241-.408-1.463-1.479-.757-2.883 1.9-1.013 1.916-2.185 3.337-4.354 5.28-2.954 2.645-4.75 4.506-4.75 4.922 0 .12-.342.668-.76 1.218s-1.134 2.078-1.59 3.396c-.916 2.636-1.194 3.14-1.856 3.36-.283.094-.094.666.518 1.566 1.164 1.71 1.868 1.416 2.272-.951" style="fill:#42a7ea;fill-opacity:1;stroke-width:.478969" transform="translate(-38.4)scale(.8)"/>
      <path d="M462.735 64.9c.345-.357.997-1.4 1.45-2.318 1.53-3.104 2.713-4.798 5.133-7.35 1.327-1.399 2.413-2.664 2.413-2.812s.524-.884 1.165-1.637c1.408-1.655 2.489-4.504 2.322-6.12-.188-1.812-1.226-1.527-1.583.435-.397 2.18-3.31 6.417-6.284 9.138-2.544 2.328-6.308 7.174-6.308 8.122 0 .303-.178.654-.395.78-.565.327-.49 1.943.099 2.166.906.342 1.356.251 1.988-.404m-67.727-.335c.398-.338.724-.805.724-1.038 0-.498.538-1.178 5.74-7.266 2-2.34 11.96-10.37 12.862-10.37.204 0 .955-.464 1.67-1.03 1.331-1.054 1.89-1.34 5.16-2.635 1.846-.732 2.496-1.529 1.246-1.529-1.048 0-9.445 4.631-12.319 6.794-5.996 4.512-12.689 11.296-15.285 15.494-1.419 2.293-1.342 2.89.202 1.58m12.155.278c.585-.347.284-1.148-.433-1.148-.238 0-1.018-.418-1.731-.928s-1.46-.927-1.658-.927c-.199 0-.684-.334-1.078-.742-.819-.848-2.177-.992-2.177-.23 0 .649.708 1.2 3.715 2.888 2.77 1.557 2.641 1.515 3.362 1.087" style="fill:#d78530;fill-opacity:1;stroke-width:.478969" transform="translate(-38.4)scale(.8)"/>
      <path d="M467.369 63.973c.717-1.787 1.245-2.982 1.637-3.704.192-.355.35-.839.35-1.076s1.826-2.125 4.057-4.195c2.96-2.747 4.422-4.431 5.407-6.233 1.476-2.701 1.371-3.3-.707-4.04-1.19-.425-1.618.07-1.626 1.883-.007 1.374-1.225 4.066-2.549 5.634a61 61 0 0 0-1.614 2.015c-.435.573-1.515 1.888-2.4 2.921-4.137 4.83-5.177 6.447-4.968 7.722.025.153.47.278.987.278.7 0 1.066-.31 1.426-1.205" style="fill:#42a7ea;fill-opacity:1;stroke-width:.478969" transform="translate(-38.4)scale(.8)"/>
      <path d="M471.482 63.72c.408-.798 2.032-2.674 3.61-4.169s3.185-3.303 3.572-4.017a19.6 19.6 0 0 1 1.597-2.41c1.728-2.156 2.71-5.386 1.798-5.914-.198-.115-1.018.919-1.822 2.296-1.616 2.765-3.17 4.659-6.511 7.928-3.383 3.31-5.493 7.751-3.678 7.74.413-.003.993-.59 1.434-1.454" style="fill:#d78530;fill-opacity:1;stroke-width:.478969" transform="translate(-38.4)scale(.8)"/>
      <path d="M476.847 64.028c1.371-2.123 2.262-3.173 3.74-4.414.852-.714 2.34-1.959 3.309-2.767 2.107-1.758 3.834-4.722 3.493-5.994-.13-.486-.377-.883-.55-.883-.172 0-.712-.348-1.2-.774-1.073-.937-2.034-.686-2.034.53 0 2.276-3.163 6.937-7.322 10.79-3.802 3.522-4.266 4.767-1.712 4.591 1.284-.089 1.792-.33 2.276-1.079" style="fill:#42a7ea;fill-opacity:1;stroke-width:.478969" transform="translate(-38.4)scale(.8)"/>
      <path d="M483.01 63.698c.392-.814 1.835-2.475 3.207-3.691 3.207-2.843 5.037-6.06 4-7.032-.778-.729-1.397-.434-1.676.797-.2.881-1.472 2.304-4.727 5.286-3.92 3.59-5.354 5.174-5.354 5.91 0 .116.863.21 1.919.21 1.855 0 1.942-.049 2.631-1.48m6.292.164c.894-.724 2.605-2.027 3.802-2.896 2.15-1.561 2.802-2.584 2.079-3.262-.508-.476-6.498 2.794-8.677 4.736-2.161 1.927-2.242 2.738-.272 2.738 1.081 0 1.847-.328 3.068-1.316" style="fill:#d78530;fill-opacity:1;stroke-width:.478969" transform="translate(-38.4)scale(.8)"/>
      <path d="M500.445 64.781c.295-.447-2.69-4.61-3.305-4.61-.218 0-1.136.622-2.04 1.382-.903.76-2.166 1.672-2.808 2.027-2.257 1.25-1.523 1.598 3.363 1.598 2.79 0 4.629-.152 4.79-.397" style="fill:#42a7ea;fill-opacity:1;stroke-width:.478969" transform="translate(-38.4)scale(.8)"/>
      <path d="M503.326 63.387c-.49-.749-1.13-1.594-1.426-1.877-.295-.284-.832-.951-1.192-1.484-1.376-2.034-6.006-6.98-8.195-8.757-1.256-1.02-2.572-2.121-2.924-2.446s-1.219-.904-1.926-1.286c-.708-.382-1.287-.809-1.287-.949 0-.32-6.848-4.426-8.708-5.22-4.052-1.732-5.144-2.155-5.565-2.155-.254 0-1.11-.32-1.902-.714-2.452-1.216-10.308-3.015-11.688-2.675-.195.047-.907-.097-1.584-.322-1.59-.527-12.422-.506-17.062.034-1.96.227-4.364.69-5.344 1.026-2.676.919-9.273.852-10.973-.111-1.67-.947-2.627-3.142-2.26-5.181.335-1.853 2.736-4.297 4.221-4.297 1.407 0 3.536.732 4.5 1.548 1.557 1.316 2.075 5.045.897 6.46-.85 1.024.82.908 2.13-.147 1.338-1.076.636-5.312-1.202-7.25-1.895-2.001-6.974-2.773-8.9-1.353-.553.408-1.17.742-1.368.742-.583 0-2.001 3.006-2.287 4.85-.316 2.03.358 3.79 2.088 5.447 2.11 2.023 3.322 2.403 6.139 1.925 1.355-.23 3.176-.717 4.046-1.08.871-.365 2.83-.864 4.354-1.11 1.524-.245 3.395-.584 4.157-.753 2.054-.454 13.6-.453 16.386.001 5.508.899 6.918 1.195 9.936 2.084 5.406 1.592 11.702 4.261 14.912 6.321 1.692 1.086 3.196 1.974 3.343 1.974.338 0 3.58 2.418 4.936 3.682a45 45 0 0 0 2.45 2.067c.785.612 3.08 2.95 5.1 5.193 2.02 2.245 3.9 4.301 4.179 4.57.278.27.506.698.506.95 0 .678 1.568 2.137 2.016 1.878.224-.13.014-.792-.503-1.585" style="fill:#d78530;fill-opacity:1;stroke-width:.478969" transform="translate(-38.4)scale(.8)"/>
      <path d="M505.544 62.514c-.69-1.262-2.438-3.464-4.038-5.084-.495-.502-1.269-1.47-1.718-2.152s-1.826-2.135-3.058-3.228c-3.746-3.326-6.455-5.585-7.135-5.95a7 7 0 0 1-1.19-.855c-1.429-1.332-7.04-4.567-10.539-6.075-.653-.281-1.277-.616-1.385-.743-.511-.597-5.621-2.49-7.373-2.732a6.2 6.2 0 0 1-1.583-.48c-.408-.2-3.182-.811-6.164-1.357-5.081-.93-5.929-.982-13.458-.816-9.503.21-11.797.452-11.797 1.245 0 .407.246.495.891.32 4.473-1.214 15.395-1.445 21.474-.454 1.959.32 4.542.743 5.739.942 2.272.376 7.653 2.123 9.698 3.148.653.327 1.393.596 1.644.597s1.587.611 2.969 1.355 2.957 1.587 3.501 1.874c2.134 1.124 3.884 2.196 5.179 3.17.744.561 2.526 1.897 3.96 2.968 3.877 2.896 12.373 12.144 14.23 15.487.282.51.583.73.669.489s-.147-.992-.516-1.669" style="fill:#42a7ea;fill-opacity:1;stroke-width:.478969" transform="translate(-38.4)scale(.8)"/>
      <path d="M386.869 63.046c1.002-1.238.651-1.485-2.074-1.46l-2.625.022 1.246 1.044c1.423 1.191 2.69 1.336 3.453.394" style="fill:#d78530;fill-opacity:1;stroke-width:.478969" transform="translate(-38.4)scale(.8)"/>
      <path d="M411.862 63.09c1.057-.265 1.18-1.186.198-1.482-1.711-.517-8.016-3.563-8.016-3.874 0-.545-1.04-.402-1.589.218-.602.68.183 1.646 2.42 2.978 3.854 2.295 5.017 2.655 6.987 2.16" style="fill:#42a7ea;fill-opacity:1;stroke-width:.478969" transform="translate(-38.4)scale(.8)"/>
      <path d="M513.112 61.664c1.67-.916 2.424-1.853 1.788-2.22-.357-.208-4.186.386-4.805.745-.841.487-.072 2.393.966 2.393.21 0 1.132-.413 2.051-.918" style="fill:#d78530;fill-opacity:1;stroke-width:.478969" transform="translate(-38.4)scale(.8)"/>
      <path d="M422.252 61.773c0-.585-3.237-3.382-5.392-4.658-.952-.563-1.731-1.214-1.732-1.445s-.447-.696-.993-1.03c-.546-.336-1.367-1.357-1.825-2.27-.458-.911-1.047-1.658-1.31-1.658-.54 0-3.789 2.507-3.789 2.922 0 .147.668.488 1.484.758 2.289.756 5.579 2.73 8.412 5.047 3.125 2.557 5.145 3.473 5.145 2.334" style="fill:#42a7ea;fill-opacity:1;stroke-width:.478969" transform="translate(-38.4)scale(.8)"/>
      <path d="M456.28 59.383c.035-2.94 2.86-7.072 8.122-11.878 3.932-3.592 4.928-5 4.418-6.244-.232-.567-1.443-.385-1.443.217 0 .435-2.77 4.04-3.105 4.042-.748.004-6.052 4.816-7.685 6.972-2.267 2.993-2.676 3.803-3.098 6.135-.303 1.67-.251 1.854.745 2.66l1.07.864.48-.805c.265-.442.488-1.325.495-1.963m-40.756.961c-.98-.821-2.404-1.899-3.166-2.394-1.542-1.001-6.683-2.74-7.422-2.508-.778.242.56 1.808 1.999 2.34 2.507.927 6.824 2.89 7.6 3.456.435.318 1.237.583 1.781.59.921.01.867-.093-.792-1.484" style="fill:#d78530;fill-opacity:1;stroke-width:.478969" transform="translate(-38.4)scale(.8)"/>
      <path d="M451.91 58.038c-.033-.867.072-1.958.233-2.424.237-.687-.005-1.112-1.28-2.249-.864-.77-1.686-1.828-1.826-2.35-.14-.523-.583-1.33-.984-1.795l-.73-.845-2.64 2.474c-1.451 1.36-2.64 2.607-2.64 2.77 0 .164.507.829 1.125 1.478.809.849 1.47 1.18 2.36 1.18.811 0 1.705.383 2.59 1.112.744.612 1.53 1.113 1.747 1.113s.616.25.887.556c.843.952 1.222.619 1.159-1.02" style="fill:#fff;fill-opacity:1;stroke-width:.478969" transform="translate(-38.4)scale(.8)"/>
      <path d="M446.608 54.81c-.726-1.1 1.353-3.152 2.297-2.267.531.497.04 1.372-1.205 2.147-.567.353-.914.391-1.092.12" style="fill:#a06c36;fill-opacity:1;stroke-width:.478969" transform="translate(-38.4)scale(.8)"/>
      <path d="M390.515 57.283c.586-.91.595-1.075.071-1.385-.74-.44-4.628-.477-4.912-.047-.396.601 2.637 2.72 3.653 2.552.287-.048.821-.552 1.188-1.12" style="fill:#d78530;fill-opacity:1;stroke-width:.478969" transform="translate(-38.4)scale(.8)"/>
      <path d="M492.465 56.695c.859-.889.6-1.903-.485-1.903-.506 0-.827.336-.975 1.02-.12.562-.348 1.332-.505 1.713-.244.591-.175.637.472.312.416-.208 1.088-.722 1.493-1.142" style="fill:#42a7ea;fill-opacity:1;stroke-width:.478969" transform="translate(-38.4)scale(.8)"/>
      <path d="M510.047 55.074c1.882-1.06 1.55-1.921-.795-2.063-2.08-.126-4.476.777-4.027 1.519 1.141 1.885 2.225 2.007 4.822.544M394.29 52.492c1.084-1.754.764-2.044-2.615-2.368-3.248-.311-3.425.071-1.117 2.414 1.829 1.856 2.562 1.848 3.732-.046" style="fill:#d78530;fill-opacity:1;stroke-width:.478969" transform="translate(-38.4)scale(.8)"/>
      <path d="M436.26 52.422c1.56-.61 3.828-3.047 5.198-5.582.717-1.329.982-2.41.982-4.023 0-2.069-.09-2.283-1.463-3.46-1.62-1.392-2.185-1.49-4.368-.753-2.668.9-4.307 1.351-4.905 1.351-.322 0-1.065.209-1.65.464-.887.385-1.067.705-1.07 1.894-.006 3.425 2.323 8.658 4.488 10.08 1.022.67 1.15.67 2.789.03" style="fill:#fff;fill-opacity:1;stroke-width:.478969" transform="translate(-38.4)scale(.8)"/>
      <path d="M452.731 52.043c0-.084.261-1.432.58-2.996.667-3.261 1.496-4.703 4.442-7.722 1.157-1.185 2.103-2.293 2.103-2.464 0-.407-1.017-.76-2.19-.76-1.626 0-4.26 4.064-4.768 7.358-.147.951-.398 1.896-.56 2.1-.4.51-.78 3.499-.523 4.126.187.457.916.741.916.358" style="fill:#d78530;fill-opacity:1;stroke-width:.478969" transform="translate(-38.4)scale(.8)"/>
      <path d="M456.657 49.228c.951-1.224 1.882-2.225 2.068-2.225s.653-.294 1.037-.654 1.32-1.061 2.078-1.558c.76-.497 1.523-1.12 1.697-1.386s.57-.482.88-.482c.653 0 1.916-2.086 1.65-2.723-.1-.237-.925-.643-1.835-.903l-1.654-.472-2.328 2.327c-4.01 4.01-4.631 4.918-5.104 7.462-.46 2.475-.502 2.84-.327 2.84.06 0 .887-1.001 1.838-2.226" style="fill:#42a7ea;fill-opacity:1;stroke-width:.478969" transform="translate(-38.4)scale(.8)"/>
      <path d="M504.148 48.34c1.816-1.756 1.56-2.603-.833-2.748-2.1-.127-5.064.504-5.064 1.079 0 .21.467.954 1.037 1.655 1.422 1.748 3.062 1.753 4.86.014m-105.078-.57 1.52-1.458-1.34-.766c-1.394-.796-4.469-1.056-4.892-.414-.25.378.706 2.786 1.431 3.604.74.836 1.698.553 3.281-.966" style="fill:#d78530;fill-opacity:1;stroke-width:.478969" transform="translate(-38.4)scale(.8)"/>
      <path d="M450.922 45.89c.15-1.122.886-3.237 1.635-4.7s1.362-2.816 1.362-3.007c0-.19-1.281-.458-2.846-.595-3.108-.27-8.633.07-8.633.534 0 .262 1.915 2.42 3.661 4.125.381.371.693.822.693 1.001 0 .18.267.533.593.787.327.254.594.93.594 1.501 0 1.273 1.96 3.646 2.387 2.89.154-.273.404-1.414.554-2.536m-23.288.44c-.347-.629-.502-1.625-.39-2.504.27-2.108-.212-2.612-1.772-1.856-1.77.857-1.693 1.252.762 3.91 1.595 1.73 2.216 1.928 1.4.45" style="fill:#42a7ea;fill-opacity:1;stroke-width:.478969" transform="translate(-38.4)scale(.8)"/>
      <path d="M403.679 43.82c.94-.938.944-.968.19-1.484-.422-.29-1.099-.526-1.503-.526-.957 0-3.071-1.028-3.071-1.493 0-.2-.179-.362-.396-.362-.531 0-.503 1.339.05 2.343 1.396 2.541 3.144 3.104 4.73 1.522m94.166-2.66c.007-.78-.182-1.205-.534-1.205-.824 0-4.997 1.801-4.997 2.156 0 .38 1.492 1.674 2.573 2.232.672.347.953.23 1.87-.784.68-.754 1.08-1.636 1.088-2.398m-89.26-.906c2.03-1.342 2.163-1.656.902-2.143-1.107-.428-5.111-1.187-5.304-1.006-.079.073.207.786.634 1.584s.868 1.743.98 2.1c.282.907.736.82 2.788-.535m81.865-.461c1.056-.99 1.28-6.145.266-6.145-.46 0-5.274 2.685-5.6 3.124-.391.527-.106.824 2.174 2.263 2.325 1.467 2.387 1.482 3.16.758m-76.166-2.98c.298-.273.434-.66.302-.86-.27-.409-3.585-1.934-4.204-1.934-.687 0-.438 1.505.44 2.661.69.907 1.028 1.063 1.88.868.572-.132 1.284-.462 1.582-.735m68.918-2.596c.47-.713.8-1.855.8-2.77 0-1.444-.066-1.54-.891-1.302-1.445.415-4.255 2.749-4.255 3.534 0 .822 2.193 2.237 3.012 1.943.294-.106.894-.738 1.334-1.405" style="fill:#d78530;fill-opacity:1;stroke-width:.478969" transform="translate(-38.4)scale(.8)"/>
      <path d="M427.68 35.115c2.96-.967 2.678-5.094-.398-5.841-1.935-.47-2.931-.133-3.619 1.225-.884 1.746-.774 2.545.53 3.853 1.25 1.254 1.689 1.35 3.487.763" style="fill:#42a7ea;fill-opacity:1;stroke-width:.478969" transform="translate(-38.4)scale(.8)"/>
      <path d="M477.35 31.122c.629-1.833.609-3.036-.049-3.036-.47 0-2.655 1.984-3.138 2.85-.656 1.173-.565 1.582.437 1.964 1.541.588 2.054.257 2.75-1.778m-8.547-1.773c.327-.734.54-1.987.475-2.786l-.12-1.453-2.276 2.004c-1.252 1.103-2.276 2.158-2.276 2.344 0 .383 1.81 1.125 2.89 1.185.464.025.92-.426 1.307-1.294m-7.031-1.466c.606-1.247.584-2.948-.045-3.437-.378-.294-.968.103-2.375 1.598-1.029 1.094-1.871 2.168-1.871 2.386 0 .228.818.397 1.916.397 1.668 0 1.974-.121 2.375-.944m-16.482-.076c1.434-1.553 1.624-4.355.243-3.567-.706.403-3.885 3.66-3.885 3.98 0 .553 3.073.205 3.643-.413m9.855-.133c.667-.974 1.118-3.042.785-3.599-.27-.454-.591-.313-1.743.766-.777.728-1.957 1.624-2.622 1.993-.665.368-1.21.788-1.21.933 0 .786 4.245.703 4.79-.093" style="fill:#d78530;fill-opacity:1;stroke-width:.478969" transform="translate(-38.4)scale(.8)"/>
      <path d="M430.877 63.564c-3.974 1.881-3.931 1.784-3.931 1.784" style="fill:none;stroke:#a06c36;stroke-width:2.5;stroke-linecap:butt;stroke-linejoin:miter;stroke-miterlimit:4;stroke-dasharray:none;stroke-opacity:1" transform="translate(-38.4)scale(.8)"/>
      <path d="m427.973 60.481 2.447 3.236 3.029-1.784-2.572-3.692" style="fill:none;stroke:#a06c36;stroke-width:1.5625;stroke-linecap:butt;stroke-linejoin:miter;stroke-miterlimit:4;stroke-dasharray:none;stroke-opacity:1" transform="translate(-38.4)scale(.8)"/>
      <path d="M464.635 71.01c-1.292-.628-4.58-1.097-5.974-1.962" style="fill:none;stroke:#a06c36;stroke-width:1.375;stroke-linecap:butt;stroke-linejoin:miter;stroke-miterlimit:4;stroke-dasharray:none;stroke-opacity:1" transform="translate(-38.4)scale(.8)"/>
      <path d="M481.775 82.176c-1.244 2.365-2.157 1.992-2.157 1.992" style="fill:none;stroke:#a06c36;stroke-width:1.75;stroke-linecap:butt;stroke-linejoin:miter;stroke-miterlimit:4;stroke-dasharray:none;stroke-opacity:1" transform="translate(-38.4)scale(.8)"/>
      <path d="m460.06 100.076-3.63-.228" style="fill:none;stroke:#ad6e2d;stroke-width:1.25px;stroke-linecap:butt;stroke-linejoin:miter;stroke-opacity:1" transform="translate(-38.4)scale(.8)"/>
      <path d="M463.191 82.965c.003.003 7.745.595 16.928.939" style="fill:none;stroke:#a06c36;stroke-width:1.25px;stroke-linecap:butt;stroke-linejoin:miter;stroke-opacity:1" transform="translate(-38.4)scale(.8)"/>
    </g>
  </g>
</svg>
