<?xml version="1.0" encoding="UTF-8" standalone="no"?>
<svg
   width="640pt"
   height="480pt"
   viewBox="0 0 640 480"
   version="1.1"
   id="svg13599"
   sodipodi:docname="balk.svg"
   inkscape:version="1.2.2 (b0a84865, 2022-12-01)"
   xmlns:inkscape="http://www.inkscape.org/namespaces/inkscape"
   xmlns:sodipodi="http://sodipodi.sourceforge.net/DTD/sodipodi-0.dtd"
   xmlns="http://www.w3.org/2000/svg"
   xmlns:svg="http://www.w3.org/2000/svg">
  <sodipodi:namedview
     id="namedview13601"
     pagecolor="#ffffff"
     bordercolor="#666666"
     borderopacity="1.0"
     inkscape:showpageshadow="2"
     inkscape:pageopacity="0.0"
     inkscape:pagecheckerboard="0"
     inkscape:deskcolor="#d1d1d1"
     inkscape:document-units="pt"
     showgrid="false"
     inkscape:zoom="0.92395833"
     inkscape:cx="434.54341"
     inkscape:cy="327.39572"
     inkscape:window-width="1440"
     inkscape:window-height="819"
     inkscape:window-x="0"
     inkscape:window-y="25"
     inkscape:window-maximized="0"
     inkscape:current-layer="svg13599" />
  <defs
     id="defs13572">
    <clipPath
       clipPathUnits="userSpaceOnUse"
       id="clipPath14317">
      <g
         id="g14321"
         style="stroke-width:1">
        <rect
           width="225"
           height="150"
           id="rect14319"
           x="0"
           y="0"
           style="stroke-width:1" />
      </g>
    </clipPath>
    <clipPath
       clipPathUnits="userSpaceOnUse"
       id="clipPath14323">
      <g
         id="g14327"
         style="stroke-width:1">
        <rect
           width="225"
           height="150"
           id="rect14325"
           x="0"
           y="0"
           style="stroke-width:1" />
      </g>
    </clipPath>
    <clipPath
       clipPathUnits="userSpaceOnUse"
       id="clipPath14329">
      <g
         id="g14333"
         style="stroke-width:1">
        <rect
           width="225"
           height="150"
           id="rect14331"
           x="0"
           y="0"
           style="stroke-width:1" />
      </g>
    </clipPath>
    <clipPath
       clipPathUnits="userSpaceOnUse"
       id="clipPath14335">
      <g
         id="g14339"
         style="stroke-width:1">
        <rect
           width="225"
           height="150"
           id="rect14337"
           x="0"
           y="0"
           style="stroke-width:1" />
      </g>
    </clipPath>
    <clipPath
       clipPathUnits="userSpaceOnUse"
       id="clipPath14341">
      <g
         id="g14345"
         style="stroke-width:1">
        <rect
           width="225"
           height="150"
           id="rect14343"
           x="0"
           y="0"
           style="stroke-width:1" />
      </g>
    </clipPath>
    <clipPath
       clipPathUnits="userSpaceOnUse"
       id="clipPath14347">
      <g
         id="g14351"
         style="stroke-width:1">
        <rect
           width="225"
           height="150"
           id="rect14349"
           x="0"
           y="0"
           style="stroke-width:1" />
      </g>
    </clipPath>
    <clipPath
       clipPathUnits="userSpaceOnUse"
       id="clipPath14353">
      <g
         id="g14357"
         style="stroke-width:1">
        <rect
           width="225"
           height="150"
           id="rect14355"
           x="0"
           y="0"
           style="stroke-width:1" />
      </g>
    </clipPath>
    <clipPath
       clipPathUnits="userSpaceOnUse"
       id="clipPath14359">
      <g
         id="g14363"
         style="stroke-width:1">
        <rect
           width="225"
           height="150"
           id="rect14361"
           x="0"
           y="0"
           style="stroke-width:1" />
      </g>
    </clipPath>
    <clipPath
       clipPathUnits="userSpaceOnUse"
       id="clipPath14365">
      <g
         id="g14369"
         style="stroke-width:1">
        <rect
           width="225"
           height="150"
           id="rect14367"
           x="0"
           y="0"
           style="stroke-width:1" />
      </g>
    </clipPath>
    <clipPath
       clipPathUnits="userSpaceOnUse"
       id="clipPath14371">
      <g
         id="g14375"
         style="stroke-width:1">
        <rect
           width="225"
           height="150"
           id="rect14373"
           x="0"
           y="0"
           style="stroke-width:1" />
      </g>
    </clipPath>
    <clipPath
       clipPathUnits="userSpaceOnUse"
       id="clipPath14377">
      <g
         id="g14381"
         style="stroke-width:1">
        <rect
           width="225"
           height="150"
           id="rect14379"
           x="0"
           y="0"
           style="stroke-width:1" />
      </g>
    </clipPath>
    <clipPath
       clipPathUnits="userSpaceOnUse"
       id="clipPath14383">
      <g
         id="g14387"
         style="stroke-width:1">
        <rect
           width="225"
           height="150"
           id="rect14385"
           x="0"
           y="0"
           style="stroke-width:1" />
      </g>
    </clipPath>
  </defs>
  <g
     id="g14394"
     style="display:inline;stroke-width:0.331456"
     transform="scale(2.8444444,3.2)">
    <path
       style="fill:#73c5f5;fill-rule:nonzero;stroke:none;stroke-width:0.331456"
       d="M 0,0 H 225 V 14.98996 C 156.99997,15.013 88.999588,14.991089 20.99939,15.003403 13.999222,15.033524 6.985703,14.776733 0,15.35672 Z m 0,0"
       id="path13576"
       clip-path="url(#clipPath14377)" />
    <path
       style="fill:#ffffff;fill-rule:nonzero;stroke:none;stroke-width:0.331456"
       d="M 0,15.35672 C 6.985703,14.776733 13.999222,15.033524 20.99939,15.003403 88.999588,14.991089 156.99997,15.013 225,14.98996 v 18.652954 c -2.66652,0.20108 -5.33627,0.338135 -8.00688,0.365814 C 144.66225,33.996933 72.330673,33.986938 0,34.015259 Z m 0,0"
       id="path13580"
       clip-path="url(#clipPath14365)" />
    <path
       style="fill:#73c5f5;fill-rule:nonzero;stroke:none;stroke-width:0.331456"
       d="m 0,34.015259 c 72.330673,-0.02832 144.66225,-0.01833 216.99312,-0.0065 2.67061,-0.02768 5.34036,-0.164734 8.00688,-0.365814 v 81.356035 c -72.33034,9.7e-4 -144.661072,0.0102 -216.991287,-0.008 C 5.335678,115.0175 2.665237,115.15355 0,115.35538 Z m 0,0"
       id="path13584"
       clip-path="url(#clipPath14353)" />
    <path
       style="fill:#ffffff;fill-rule:nonzero;stroke:none;stroke-width:0.331456"
       d="m 0,115.35538 c 2.665237,-0.20183 5.335678,-0.33788 8.008713,-0.36437 72.330215,0.0182 144.660947,0.009 216.991287,0.008 v 18.64538 c -6.65363,0.55654 -13.33345,0.33957 -19.99995,0.35626 -68.33344,0.002 -136.666844,-0.006 -205.00005,0.001 z m 0,0"
       id="path13592"
       clip-path="url(#clipPath14329)" />
    <path
       style="fill:#73c5f5;fill-rule:nonzero;stroke:none;stroke-width:0.331456"
       d="m 0,134.00198 c 68.333206,-0.007 136.66661,8.1e-4 205.00005,-0.001 6.6665,-0.0167 13.34632,0.20028 19.99995,-0.35626 V 150 H 0 Z m 0,0"
       id="path13596"
       clip-path="url(#clipPath14317)" />
  </g>
  <path
     style="fill:#ffffff;fill-rule:nonzero;stroke:none;stroke-width:0.3125"
     d="m 94.388855,67.384918 c 1.37706,-0.879547 2.68544,-2.397873 4.434113,-2.323746 4.679182,2.553086 8.344052,6.570725 12.834262,9.408768 0.91186,0.687058 1.83944,0.715607 2.78277,0.08566 4.76841,-2.759216 8.70412,-6.736877 13.47809,-9.479034 9.58424,6.714157 19.33699,13.229278 28.65558,20.321731 3.32637,2.343628 6.86194,4.474259 9.65324,7.483429 -35.47723,0.200241 -70.974041,0.194977 -106.451077,3.21e-4 3.792786,-4.050919 8.839844,-6.549012 13.083511,-10.057633 6.991059,-5.401489 14.60814,-9.939407 21.529511,-15.439499 z m 0,0"
     id="path13588"
     clip-path="url(#clipPath14341)"
     transform="matrix(3.2,0,0,3.2,-41.604394,0)" />
</svg>
