<svg id="flag-icons-ru-kgd" class="fi fi-ru-kgd" viewBox="0 0 640 480" xmlns="http://www.w3.org/2000/svg" width="640" height="480">
  <metadata id="flag-icons">
    <name>Kaliningrad Oblast</name>
    <code>ru-kgd</code>
    <iso>true</iso>
    <type>Place</type>
    <capital>Kaliningrad</capital>
    <continent>Europe</continent>
  </metadata>
  <g style="stroke-width:.928078">
    <path fill="#283595" d="M0 0h630v420H0Z" style="stroke-width:.812068" transform="scale(1.01587 1.14286)"/>
    <path fill="#fdf100" d="M0 0h630v240H0Z" style="stroke-width:.812068" transform="scale(1.01587 1.14286)"/>
    <path fill="#ec1a23" d="M0 0h630v180H0Z" style="stroke-width:.812068" transform="scale(1.01587 1.14286)"/>
  </g>
  <g stroke="#000" style="stroke-width:.875">
    <path fill="#fff" stroke-width=".905" d="m44.38 179.072.093-54.745h-2.215l.092-4.34h2.03l.093-20.494 2.493-.092.185-22.249-7.294-9.694-.091-20.772h9.97l-.093 10.433 5.078.091.092-10.617 9.325.093v10.248h4.153l-.184-10.432 10.709.091v20.404l-7.57 10.8.185 21.604 17.563.023.069 13.386 5.679.023-.185-13.248h18.164l.023 13.294 6.255.07-.093-13.456 18.764.045v13.388h6.047v-13.41l17.517-.07-.138-21.856-7.57-10.709.045-20.08h9.948l.092 10.294 5.078.023-.023-10.363 9.232.023.069 10.271 4.27.046-.022-10.317 10.108.046.023 20.565-7.131 10.316.137 21.672 2.933.023.091 20.773 1.43.022.07 3.97-1.615.046.092.023-.023 55.669-55.783-.321.02-39.04-.266-3.74-1.391-4.228-3.6-3.278-4.073-3.04-5.326-1.154-4.926.061-5.102 1.229-3.657 3.19-3.147 3.83-1.584 4.07-.09 2.62v39.288z"/>
    <path fill="none" stroke-width=".905" d="m71.314 99.283-1.11.066.065 13.774-6.267-.065v-13.84l-17.037.13m114.157.107 1.094-.024-.033 13.497h5.81l-.065-13.383 17.429-.066M140.19 179.44l-.092-3.508h-7.663l8.494-.092v-4.892l-8.586.091 7.478-.091v-5.078l-7.2-.093 8.123-.138-.023-4.224h-8.308 7.362v-5.078l-7.317-.045 8.447.045.023-5.169-8.585.023 7.409-.023-.023-5.24h-7.409l8.517-.023-.069-4.985-8.402-.023 6.277-.023.07-6.277-6.439 2.445 7.8-2.977-3.23-5.723-6.462 4.593 5.03-3.647-3.807-4.64-4.755 4.41 6.231-5.818-5.863-4.153-3.645 7.223 3.07-6.092-6.971-1.593-1.662 6.486 2.17-8.263-4.454.023m-24.077 62.2.092-3.138h7.662l-8.493-.093v-4.892l8.586.091-7.478-.091v-5.078l7.2-.093-8.123-.138.023-4.224h8.308-7.362v-5.078l7.317-.045-8.447.045-.023-5.169 8.585.023-7.41-.023.024-5.24h7.409l-8.517-.023.069-4.985 8.402-.023-6.278-.023-.07-6.277 6.44 2.445-7.8-2.977 3.23-5.723 6.462 4.593-5.03-3.647 3.807-4.64 4.755 4.41-6.231-5.818 5.863-4.153 3.645 7.223-3.07-6.092 6.97-1.593 1.663 6.486-2.17-8.263 4.454.023m72.441 7.362-56.314.139m56.038-4.2-59.132.185m-84.765 3.969h55.531m-55.346-4.34 58.16.278"/>
    <path fill="none" stroke-width=".453" d="m108.912 113.248.093 6.001m-14.125-5.816v6.554m-14.033-6.646.092 7.293m-14.4-7.2-.093 6.831m-13.387-6.832v6.463m69.886-6.648-.092 6.001m14.125-5.816v6.554m14.032-6.646-.092 7.293m14.402-7.2.091 6.831m13.387-6.832v6.463m-90.403 55.76.092 4.063m-15.14-4.063v3.878m7.755-10.987.185 7.109m6.83-13.94v7.017M73.625 161.9l-.091 6.739m-7.018.278.092 6.83m-6.924-.09.093 3.876m-6.832-10.801-.091 6.739m6.83-13.755-.091 7.108m-6.74-13.386-.185 6.462m13.756-6.647v6.647m14.402-6.647.184 6.74m7.201-14.127v7.203m-7.385-13.757v6.463m7.2-13.386.093 7.017M73.53 134.39l.092 7.108m-14.032-6.923v6.554m-6.738-13.755-.093 7.2m13.663-7.109-.092 6.925m14.587-7.017v7.108m7.2-10.154.092 2.862m-14.493-2.77.091 2.77m-14.217-2.77.092 2.955m13.848 20.587v7.109m-14.03-7.201v7.385m-6.37-14.126v6.648m13.294-6.463.091 6.74m76.926 27.603-.091 4.063m15.139-4.063v3.878m-7.755-10.987-.184 7.109m-6.832-13.94v7.017m14.494-6.832.092 6.739m7.017.278-.093 6.83m6.924-.09-.092 3.876m6.831-10.801.093 6.739m-6.832-13.755.092 7.108m6.74-13.386.185 6.462m-13.757-6.647v6.647m-14.4-6.647-.186 6.74m-7.2-14.127v7.203m7.385-13.757v6.463m-7.2-13.386-.092 7.017m14.585-7.017-.092 7.108m14.032-6.923v6.554m6.74-13.755.091 7.2m-13.663-7.109.093 6.925m-14.586-7.017v7.108m-7.2-10.154-.094 2.862m14.495-2.77-.093 2.77m14.217-2.77-.091 2.955m-13.85 20.587v7.109m14.034-7.201v7.385m6.37-14.126v6.648m-13.295-6.463-.091 6.74M101.943 106.6l.046 6.855M74.247 106.6v6.786m-14.125-6.877-.068 6.969m70.368-6.878-.046 6.81m27.742-6.81v6.878m14.125-6.97v7.064m15.701 61.99-46.797.276m46.983-7.109h-48.106m48.014-6.738h-47.36m47.266-6.646h-46.703m46.703-7.292-48.107-.093m48.107-6.74-47.078.186m46.983-6.74-48.761-.184m49.038-7.016-53.998-.184m-89.656 48.282 46.16.276m-46.344-7.108h47.451m-47.36-6.74h46.715m-46.622-6.647h46.069m-46.069-7.293 47.451-.092m-47.451-6.74 46.437.185m-46.344-6.74 48.098-.184m-48.006-7.017 52.898-.184m25.629-27.972-.091 7.385m28.216-7.385-.093 7.385m28.113-7.385-.092 7.385m-70.311-7.385.092 7.385m-28.217-7.385.093 7.385M52.78 99.309l.092 7.385m-8.447 6.74 143.96.01m-20.163-6.777 19.974-.014m-44.275.016 17.947-.016m-42.458.114 17.944-.017m-42.36-.048 17.946-.017m-42.748.05 19.145-.279m-44.93.41 19.145-.28m.439 5.045 6.415-.084m-6.61-5.531 6.414-.082m-6.414-5.075 6.414-.083m-4.939-.107.138 5.468M58.97 95.528l.164 3.672m-.194-14.505.132 5.35m-.089-16.015.137 4.986m6.086 10.947.137 5.469m-12.675-5.368.137 5.469M65.114 79.07l.139 5.468M52.576 79.17l.137 5.469m12.494-16.186.137 5.468m-12.675-5.367.137 5.469m18.457-10.38.137 4.987m-12.416-5.263.137 4.986M46.43 63.551l.137 4.987m18.65-10.341.137 4.986M52.66 58.289l.139 4.986m18.834-10.34.137 4.986m-12.74-4.986.139 4.986m-12.647-4.986.137 4.986m.505 37.768 24.144-.251M47.23 90.336l24.144-.251m-24.08-5.429 24.145-.251m-24.405-5.036 24.144-.251m-26.06-4.852 28.954-.23m-33.444-5.462 36.499-.204m-37.278-4.827 38.907-.196m-38.971-5.19 38.906-.195m-10.183-5.027 6.656-.087 3.266-.043m-24.05 0 9.922-.13M39.783 53l9.923-.13m118.523 58.75-6.415-.082m6.611-5.531-6.416-.082m6.416-5.075-6.416-.083m4.94-.108-.138 5.469m6.438-10.61-.162 3.673m.194-14.505-.134 5.35m.09-16.015-.138 4.986m-6.085 10.946-.137 5.469m12.675-5.367-.137 5.468M167.106 79.06l-.137 5.469m12.676-5.367-.138 5.469m-12.493-16.187-.137 5.469m12.675-5.368-.137 5.469m-18.457-10.379-.137 4.987m12.416-5.264-.138 4.987m12.694-4.802-.138 4.986m-18.65-10.34-.138 4.986m12.694-4.894-.137 4.986M160.59 52.925l-.139 4.987m12.74-4.987-.137 4.987m12.647-4.987-.139 4.987m-.505 37.767-23.82-.252m23.755-5.101-23.75-.275m23.685-5.405-23.705-.18m23.965-5.107-24.142-.252m26.058-4.851-28.423-.206m32.914-5.485-36.891-.204m37.67-4.827-38.906-.196m38.972-5.19-38.906-.196m10.182-5.026-6.657-.088-3.265-.043m24.05 0-9.39-.038m23.986.234-9.922-.13"/>
    <path fill="#ffd211" stroke-width=".173" d="M116.922 36.837c10.933.026 11.324 10.939 4.212 12.59 2.858-3.837 3.005-6.36 2.16-8.4.175 2.38-.352 4.126-2.553 4.363 1.693-6.3-3.907-5.596-4.407-6.219z"/>
    <g fill="#ffd211" style="stroke-width:.765625">
      <path stroke-width=".181" d="M114.985 25.143h.605v-1.429l.832-.008-.005-.787-.844-.008-.004-.922-.608-.005.008.93-.914-.008.017.783.905.008zm3.898 11.62 2.539-3.833c4.937-5.4-3.615-9.682-6.093-4.892-2.961-4.68-10.928-.848-5.908 4.985l2.445 3.704 7.017.034z"/>
      <path stroke-width=".203" d="M116.43 26.194a1.152 1.152 0 1 1-2.303 0 1.152 1.152 0 0 1 2.303 0z"/>
      <path stroke-width=".181" d="m109.512 33.115 11.726-.092m-7.847 3.743h4.007l.105 39.816c-1.182.153-3.07.125-3.999-.097 0-14.434-.062-22.622-.113-39.72z"/>
    </g>
    <path fill="#ffd211" stroke-width=".173" d="M123.424 62.517c-3.987.428-3.051-5.502 1.833-4.538 3.709 1.271 6.034 5.967 5.442 9.204-6.094 33.291-53.305-6.521-17.268-14.965l.044 1.659c-13.188 2.939-11.952 24.994 6.807 19.81l-.175 2.618c3.111-.078 13.223-11.076 2.707-16.232-.382.669.076 1.546.61 2.444z"/>
    <path fill="#ffd211" stroke-width=".173" d="M113.497 65.363c-2.252 3.506-8.304 13.235-12.588 6.404-.862 2.908 2.91 11.274 12.588-4.81-.043-.037.016-1.592 0-1.594zm3.97-12.01c3.474-.296 2.261 2.482.023 2.575-11.691 2.002-9.937-9.978-6.153-12.393l-2.356-1.004c1.47-1.065 3.043-3.4 4.406-3.185l.012-2.52c-1.452.179-2.846 1.427-4.069 2.869l.13-3.229c-3.375 4.79-4.786 8.29-4.486 10.785 2.628 21.894 28.283 4.762 12.461 4.706l.034 1.396z"/>
  </g>
</svg>
