<?xml version="1.0" encoding="UTF-8" standalone="no"?>
<svg
   xml:space="preserve"
   width="640"
   height="480"
   viewBox="0 0 320 240"
   version="1.1"
   id="svg14042"
   sodipodi:docname="ru-kc.svg"
   inkscape:version="1.2.2 (b0a84865, 2022-12-01)"
   xmlns:inkscape="http://www.inkscape.org/namespaces/inkscape"
   xmlns:sodipodi="http://sodipodi.sourceforge.net/DTD/sodipodi-0.dtd"
   xmlns:xlink="http://www.w3.org/1999/xlink"
   xmlns="http://www.w3.org/2000/svg"
   xmlns:svg="http://www.w3.org/2000/svg"><sodipodi:namedview
   id="namedview14044"
   pagecolor="#ffffff"
   bordercolor="#666666"
   borderopacity="1.0"
   inkscape:showpageshadow="2"
   inkscape:pageopacity="0.0"
   inkscape:pagecheckerboard="0"
   inkscape:deskcolor="#d1d1d1"
   showgrid="false"
   inkscape:zoom="1.2479167"
   inkscape:cx="320.13356"
   inkscape:cy="240"
   inkscape:window-width="1440"
   inkscape:window-height="819"
   inkscape:window-x="0"
   inkscape:window-y="25"
   inkscape:window-maximized="0"
   inkscape:current-layer="svg14042" />
<defs
   id="defs14006">
<path
   id="big"
   fill="#ffb000"
   d="m 0,-23 c 2,-14 3,-21 0,-21 -3,0 -2,7 0,21 z" />
<path
   id="small"
   fill="#ffb000"
   d="m 0,-23 c 1,-10 1.5,-14 0,-14 -1.5,0 -1,4 0,14 z" />
</defs>
<clipPath
   id="mid"><circle
     cx="300"
     cy="150"
     r="49"
     id="circle14008" /></clipPath>


<g
   id="g14665"
   transform="scale(0.53333333,0.8)"
   style="stroke-width:1.53093"><rect
     fill="#e02010"
     width="600"
     height="300"
     id="rect14011"
     x="0"
     y="0"
     style="stroke-width:1.91366" /><rect
     fill="#007030"
     width="600"
     height="200"
     id="rect14013"
     x="0"
     y="0"
     style="stroke-width:1.91366" /><rect
     fill="#0090d0"
     width="600"
     height="100"
     id="rect14015"
     x="0"
     y="0"
     style="stroke-width:1.91366" /></g>









<g
   id="g14680"
   transform="matrix(0.8,0,0,0.8,-80.000001,0)"
   style="stroke-width:1.25"><circle
     fill="#ffb000"
     cx="300"
     cy="150"
     r="20"
     id="circle14017"
     style="stroke-width:1.5625" /><path
     fill="#ffffff"
     clip-path="url(#mid)"
     d="m 300,145 c -15,-15 -78,40 -78,40 l 169,4 c 0,0 -68,-62 -90,-44 z"
     id="path14019"
     style="stroke-width:1.5625" /><path
     fill="#007030"
     clip-path="url(#mid)"
     d="m 301,162 c -20,-18 -38,16 -60,4 11,50 125,55 115,-2 -18,2 -35,-25 -55,-2 z"
     id="path14021"
     style="stroke-width:1.5625" /><circle
     cx="300"
     cy="150"
     r="48"
     stroke="#ffb000"
     stroke-width="5"
     fill="none"
     id="circle14023" /><g
     id="L"
     style="stroke-width:1.25">
<use
   transform="rotate(-75,247.7419,-120.48381)"
   xlink:href="#small"
   id="use14025"
   style="stroke-width:1.25" />
<use
   transform="rotate(-64,270.02509,-165.05018)"
   xlink:href="#big"
   id="use14027"
   style="stroke-width:1.25" />
<use
   transform="rotate(-56,291.05448,-207.10897)"
   xlink:href="#big"
   id="use14029"
   style="stroke-width:1.25" />
</g><use
     transform="rotate(30,300,150)"
     xlink:href="#L"
     id="use14032"
     style="stroke-width:1.25" /><use
     transform="rotate(60,300,150)"
     xlink:href="#L"
     id="use14034"
     style="stroke-width:1.25" /><use
     transform="rotate(90,300,150)"
     xlink:href="#L"
     id="use14036"
     style="stroke-width:1.25" /><use
     transform="rotate(120,300,150)"
     xlink:href="#L"
     id="use14038"
     style="stroke-width:1.25" /><use
     transform="rotate(75,52.258097,270.48381)"
     xlink:href="#small"
     id="use14040"
     style="stroke-width:1.25" /></g>
</svg>
