<svg id="flag-icons-ru-mur" class="fi fi-ru-mur" viewBox="0 0 640 480" xmlns="http://www.w3.org/2000/svg" xml:space="preserve" width="640" height="480">
  <metadata id="flag-icons">
    <name>Murmansk Oblast</name>
    <code>ru-mur</code>
    <iso>true</iso>
    <type>Place</type>
    <capital>Murmansk</capital>
    <continent>Europe</continent>
  </metadata>
  <g fill-rule="evenodd" clip-rule="evenodd" style="stroke-width:1.37523">
    <path fill="#395c98" d="M933.96 622.781H.425V.425H933.96Z" style="stroke-width:1.78613" transform="matrix(.68557 0 0 .77126 -.291 -.328)"/>
    <path fill="#e30613" d="M933.96 622.781H.425V498.31H933.96Z" style="stroke-width:1.78613" transform="matrix(.68557 0 0 .77126 -.291 -.328)"/>
  </g>
  <g fill-rule="evenodd" stroke-miterlimit="22.926" clip-rule="evenodd" style="stroke-width:1.29879">
    <path fill="#312783" stroke="#312783" stroke-width=".631" d="m220.98 264.52 61.3 85.561q-6.486 6.206-9.278 15.57z" transform="matrix(.77 0 0 .7699 -39.737 -.327)"/>
    <path fill="#312783" stroke="#312783" stroke-width=".611" d="m241.313 247.856 57.412 88.683c-5.636 3.726-11.726 7.058-15.064 12.371zm21.257-12.216 54.433 94.406c-5.419.806-11.759 3.04-17.16 5.951zm22.842-8.378 48.68 100.078c-5.19.446-10.38.644-15.573 2.148zm23.741-5.675 45.24 105.414-18.59.275zm20.14-9.331q18.114 50.294 36.233 100.587l-9.325 14.391c-8.966-38.329-17.94-76.65-26.908-114.978z" transform="matrix(.77 0 0 .7699 -39.737 -.327)"/>
    <path fill="#312783" stroke="#312783" stroke-width=".61" d="M343.654 194.846c10.702 34.837 21.403 69.678 32.106 104.513-3.345 4.114-6.69 8.23-10.046 12.344-7.356-38.95-14.706-77.908-22.06-116.857zm16.393-16.132c9.334 36.143 18.651 72.285 27.986 108.435-3.589 3.431-7.175 6.87-10.764 10.3q-8.605-59.37-17.222-118.735zm18.419-14.481c7.957 37.448 15.9 74.905 23.85 112.354-3.823 2.753-7.654 5.511-11.474 8.264-4.13-40.204-8.252-80.414-12.376-120.618zm20.372-12.405c6.583 38.765 13.148 77.52 19.721 116.282l-12.195 6.217zm22.076-9.885q7.796 60.105 15.596 120.21l-12.922 4.181c-.89-41.464-1.776-82.926-2.674-124.39zm23.374-6.841c3.823 41.376 7.64 82.746 11.461 124.122-4.543.716-9.084 1.426-13.635 2.144q1.095-63.137 2.174-126.266z" transform="matrix(.77 0 0 .7699 -39.737 -.327)"/>
    <path fill="#312783" stroke="#312783" stroke-width=".624" d="m468.34 131.377 7.335 128.046-14.35.097z" transform="matrix(.77 0 0 .7699 -39.737 -.327)"/>
    <path fill="#312783" stroke="#312783" stroke-width=".631" d="m715.832 264.52-61.3 85.561q6.485 6.206 9.278 15.57z" transform="matrix(.77 0 0 .7699 -39.737 -.327)"/>
    <path fill="#312783" stroke="#312783" stroke-width=".611" d="m695.497 247.856-57.41 88.683c5.636 3.726 11.725 7.058 15.063 12.371zM674.24 235.64l-54.434 94.406c5.42.806 11.76 3.04 17.162 5.951zm-22.843-8.378L602.718 327.34c5.19.446 10.381.644 15.573 2.148zm-23.74-5.675-45.24 105.414 18.59.275zm-20.137-9.331-36.236 100.587c3.111 4.798 6.217 9.592 9.327 14.391 8.966-38.329 17.942-76.65 26.908-114.978z" transform="matrix(.77 0 0 .7699 -39.737 -.327)"/>
    <path fill="#312783" stroke="#312783" stroke-width=".61" d="M593.16 194.846c-10.705 34.837-21.405 69.678-32.109 104.513 3.348 4.114 6.691 8.23 10.046 12.344 7.356-38.95 14.705-77.908 22.062-116.857zm-16.396-16.132c-9.336 36.143-18.652 72.285-27.987 108.435 3.59 3.431 7.178 6.87 10.767 10.3 5.737-39.58 11.474-79.159 17.22-118.735zm-18.418-14.481c-7.959 37.448-15.902 74.905-23.85 112.354 3.82 2.753 7.651 5.511 11.475 8.264 4.127-40.204 8.248-80.414 12.375-120.618zm-20.372-12.405c-6.583 38.765-13.15 77.52-19.724 116.282l12.195 6.217zm-22.078-9.885L500.3 262.153l12.922 4.181c.893-41.464 1.776-82.929 2.674-124.39zm-23.374-6.841c-3.823 41.376-7.639 82.746-11.46 124.122 4.542.716 9.083 1.426 13.634 2.144q-1.093-63.139-2.174-126.266z" transform="matrix(.77 0 0 .7699 -39.737 -.327)"/>
    <path fill="#312783" stroke="#312783" stroke-width=".624" d="m468.471 131.377-7.337 128.046 14.351.097z" transform="matrix(.77 0 0 .7699 -39.737 -.327)"/>
    <path fill="#fc0" stroke="#e1a000" stroke-width=".631" d="m218.55 260.603 61.3 85.563q-6.487 6.2-9.277 15.57z" transform="matrix(.77 0 0 .7699 -39.737 -.327)"/>
    <path fill="#fc0" stroke="#e1a000" stroke-width=".611" d="m238.884 243.937 57.413 88.686c-5.637 3.728-11.726 7.055-15.065 12.372zm21.256-12.217 54.432 94.407c-5.416.806-11.756 3.044-17.158 5.951zm22.842-8.375 48.681 100.075c-5.19.451-10.382.644-15.572 2.15zm23.743-5.678 45.24 105.42-18.589.274zm20.137-9.327c12.08 33.527 24.155 67.055 36.234 100.583-3.11 4.8-6.214 9.592-9.327 14.391-8.966-38.326-17.94-76.648-26.907-114.975z" transform="matrix(.77 0 0 .7699 -39.737 -.327)"/>
    <path fill="#fc0" stroke="#e1a000" stroke-width=".61" d="M341.223 190.93c10.703 34.834 21.405 69.675 32.107 104.512-3.346 4.112-6.69 8.23-10.044 12.344-7.359-38.952-14.706-77.908-22.063-116.857zm16.393-16.133c9.335 36.142 18.654 72.283 27.987 108.433-3.587 3.433-7.176 6.87-10.765 10.3-5.739-39.58-11.476-79.159-17.222-118.733zm18.418-14.483c7.96 37.45 15.901 74.905 23.854 112.354-3.823 2.755-7.655 5.511-11.478 8.264-4.128-40.203-8.247-80.412-12.376-120.618zm20.373-12.404c6.583 38.764 13.15 77.52 19.726 116.28-4.064 2.071-8.13 4.148-12.198 6.22zm22.077-9.886q7.799 60.106 15.595 120.21l-12.92 4.181c-.893-41.462-1.777-82.927-2.675-124.39zm23.376-6.84c3.822 41.374 7.636 82.744 11.46 124.121-4.543.716-9.086 1.428-13.635 2.144q1.092-63.138 2.174-126.265z" transform="matrix(.77 0 0 .7699 -39.737 -.327)"/>
    <path fill="#fc0" stroke="#e1a000" stroke-width=".624" d="m465.91 127.457 7.336 128.047-14.35.1z" transform="matrix(.77 0 0 .7699 -39.737 -.327)"/>
    <path fill="#fc0" stroke="#e1a000" stroke-width=".631" d="m713.402 260.603-61.299 85.563q6.483 6.2 9.274 15.57z" transform="matrix(.77 0 0 .7699 -39.737 -.327)"/>
    <path fill="#fc0" stroke="#e1a000" stroke-width=".611" d="m693.068 243.937-57.412 88.686c5.637 3.728 11.726 7.055 15.064 12.372zm-21.257-12.217-54.435 94.407c5.42.806 11.76 3.044 17.16 5.951zm-22.843-8.375-48.68 100.075c5.19.451 10.383.644 15.573 2.15zm-23.741-5.678-45.24 105.42 18.592.274zm-20.137-9.327q-18.12 50.29-36.236 100.583l9.328 14.391c8.967-38.326 17.942-76.648 26.907-114.975z" transform="matrix(.77 0 0 .7699 -39.737 -.327)"/>
    <path fill="#fc0" stroke="#e1a000" stroke-width=".61" d="M590.73 190.93c-10.704 34.834-21.405 69.675-32.108 104.512 3.347 4.112 6.691 8.23 10.047 12.344 7.356-38.952 14.704-77.908 22.06-116.857zm-16.395-16.133c-9.334 36.142-18.652 72.283-27.985 108.433 3.587 3.433 7.176 6.87 10.763 10.3 5.738-39.58 11.476-79.159 17.222-118.733zm-18.419-14.483c-7.956 37.45-15.9 74.905-23.85 112.354 3.821 2.755 7.653 5.511 11.476 8.264 4.128-40.203 8.248-80.412 12.374-120.618zm-20.371-12.404c-6.582 38.764-13.15 77.52-19.724 116.28 4.065 2.071 8.131 4.148 12.196 6.22zm-22.079-9.884c-5.199 40.068-10.396 80.14-15.596 120.208l12.922 4.181c.893-41.462 1.777-82.927 2.674-124.389zm-23.374-6.842c-3.823 41.374-7.637 82.744-11.46 124.121 4.542.716 9.085 1.428 13.634 2.144-.725-42.092-1.453-84.18-2.174-126.265z" transform="matrix(.77 0 0 .7699 -39.737 -.327)"/>
    <path fill="#fc0" stroke="#e1a000" stroke-width=".624" d="m466.042 127.457-7.337 128.05 14.35.096z" transform="matrix(.77 0 0 .7699 -39.737 -.327)"/>
  </g>
</svg>
