<?xml version="1.0" encoding="UTF-8" standalone="no"?>
<svg
   width="640"
   height="480"
   style="clip-rule:evenodd;fill-rule:evenodd;image-rendering:optimizeQuality;shape-rendering:geometricPrecision;text-rendering:geometricPrecision"
   viewBox="0 0 960 720"
   version="1.1"
   id="svg130165"
   sodipodi:docname="ru-per-4x3.svg"
   inkscape:version="1.2.2 (b0a84865, 2022-12-01)"
   inkscape:export-filename="ru-per.png"
   inkscape:export-xdpi="145.14"
   inkscape:export-ydpi="145.14"
   xmlns:inkscape="http://www.inkscape.org/namespaces/inkscape"
   xmlns:sodipodi="http://sodipodi.sourceforge.net/DTD/sodipodi-0.dtd"
   xmlns="http://www.w3.org/2000/svg"
   xmlns:svg="http://www.w3.org/2000/svg">
  <sodipodi:namedview
     id="namedview130167"
     pagecolor="#ffffff"
     bordercolor="#666666"
     borderopacity="1.0"
     inkscape:showpageshadow="2"
     inkscape:pageopacity="0.0"
     inkscape:pagecheckerboard="0"
     inkscape:deskcolor="#d1d1d1"
     showgrid="false"
     inkscape:zoom="1.2479167"
     inkscape:cx="320.13356"
     inkscape:cy="240"
     inkscape:window-width="1440"
     inkscape:window-height="819"
     inkscape:window-x="0"
     inkscape:window-y="25"
     inkscape:window-maximized="0"
     inkscape:current-layer="svg130165" />
  <defs
     id="defs130023">
    <style
       type="text/css"
       id="style130021"><![CDATA[
    .fil3 {fill:#1F1A17}
    .fil5 {fill:#C0A062}
    .fil2 {fill:#DA251D}
    .fil0 {fill:white}
    .fil11 {fill:#0071B4}
    .fil1 {fill:#684833}
    .fil6 {fill:#7A6842}
    .fil10 {fill:#92C6C7}
    .fil4 {fill:#E1DFE2}
    .fil9 {fill:#1F1A17;fill-rule:nonzero}
    .fil7 {fill:#92C6C7}
    .fil8 {fill:#92C6C7}
   ]]></style>
    <clipPath
       clipPathUnits="userSpaceOnUse"
       id="clipPath156952">
      <rect
         class="fil0"
         width="2208.2522"
         height="1656.1892"
         id="rect156954"
         x="162.76833"
         y="-301.50995"
         style="clip-rule:evenodd;fill-rule:evenodd;stroke-width:0.999998;image-rendering:optimizeQuality;shape-rendering:geometricPrecision;text-rendering:geometricPrecision"
         inkscape:label="Clipping" />
    </clipPath>
    <clipPath
       clipPathUnits="userSpaceOnUse"
       id="clipPath156956">
      <rect
         class="fil0"
         width="3600"
         height="2700"
         id="rect156958"
         x="150"
         y="0"
         style="clip-rule:evenodd;fill-rule:evenodd;stroke-width:1;image-rendering:optimizeQuality;shape-rendering:geometricPrecision;text-rendering:geometricPrecision"
         inkscape:label="Clipping" />
    </clipPath>
    <clipPath
       clipPathUnits="userSpaceOnUse"
       id="clipPath156960">
      <rect
         class="fil0"
         width="3600"
         height="2700"
         id="rect156962"
         x="150"
         y="0"
         style="clip-rule:evenodd;fill-rule:evenodd;stroke-width:1;image-rendering:optimizeQuality;shape-rendering:geometricPrecision;text-rendering:geometricPrecision"
         inkscape:label="Clipping" />
    </clipPath>
    <clipPath
       clipPathUnits="userSpaceOnUse"
       id="clipPath156964">
      <rect
         class="fil0"
         width="3600"
         height="2700"
         id="rect156966"
         x="150"
         y="0"
         style="clip-rule:evenodd;fill-rule:evenodd;stroke-width:1;image-rendering:optimizeQuality;shape-rendering:geometricPrecision;text-rendering:geometricPrecision"
         inkscape:label="Clipping" />
    </clipPath>
    <clipPath
       clipPathUnits="userSpaceOnUse"
       id="clipPath156968">
      <rect
         class="fil0"
         width="3600"
         height="2700"
         id="rect156970"
         x="150"
         y="0"
         style="clip-rule:evenodd;fill-rule:evenodd;stroke-width:1;image-rendering:optimizeQuality;shape-rendering:geometricPrecision;text-rendering:geometricPrecision"
         inkscape:label="Clipping" />
    </clipPath>
    <clipPath
       clipPathUnits="userSpaceOnUse"
       id="clipPath156972">
      <rect
         class="fil0"
         width="3600"
         height="2700"
         id="rect156974"
         x="150"
         y="0"
         style="clip-rule:evenodd;fill-rule:evenodd;stroke-width:1;image-rendering:optimizeQuality;shape-rendering:geometricPrecision;text-rendering:geometricPrecision"
         inkscape:label="Clipping" />
    </clipPath>
    <clipPath
       clipPathUnits="userSpaceOnUse"
       id="clipPath156976">
      <rect
         class="fil0"
         width="3600"
         height="2700"
         id="rect156978"
         x="150"
         y="0"
         style="clip-rule:evenodd;fill-rule:evenodd;stroke-width:1;image-rendering:optimizeQuality;shape-rendering:geometricPrecision;text-rendering:geometricPrecision"
         inkscape:label="Clipping" />
    </clipPath>
  </defs>
  <rect
     class="fil2"
     width="1350"
     height="1350"
     id="rect130027"
     x="0"
     y="0"
     style="stroke-width:3.75"
     clip-path="url(#clipPath156976)"
     transform="matrix(0.26666667,0,0,0.26666667,-40,0)" />
  <rect
     class="fil2"
     x="1350"
     y="1350"
     width="2700"
     height="1350"
     id="rect130029"
     style="stroke-width:3.75"
     clip-path="url(#clipPath156972)"
     transform="matrix(0.26666667,0,0,0.26666667,-40,0)" />
  <rect
     class="fil11"
     x="1350"
     width="2700"
     height="1350"
     id="rect130031"
     y="0"
     style="stroke-width:3.75"
     clip-path="url(#clipPath156968)"
     transform="matrix(0.26666667,0,0,0.26666667,-40,0)" />
  <rect
     class="fil11"
     y="1350"
     width="1350"
     height="1350"
     id="rect130033"
     x="0"
     style="stroke-width:3.75"
     clip-path="url(#clipPath156964)"
     transform="matrix(0.26666667,0,0,0.26666667,-40,0)" />
  <rect
     class="fil0"
     width="540"
     height="2700"
     id="rect130025"
     x="1080"
     y="0"
     style="stroke-width:3.75"
     inkscape:label="White Vertical"
     clip-path="url(#clipPath156960)"
     transform="matrix(0.26666667,0,0,0.26666667,-40,0)" />
  <rect
     class="fil0"
     width="4050"
     height="540"
     id="rect136503"
     x="0"
     y="1080"
     style="clip-rule:evenodd;fill-rule:evenodd;stroke-width:3.75;image-rendering:optimizeQuality;shape-rendering:geometricPrecision;text-rendering:geometricPrecision"
     inkscape:label="White Horizontal"
     clip-path="url(#clipPath156956)"
     transform="matrix(0.26666667,0,0,0.26666667,-40,0)" />
  <g
     id="g130714"
     transform="matrix(0.43473293,0,0,0.43473293,-70.760752,131.0763)"
     style="stroke-width:2.30027"
     clip-path="url(#clipPath156952)">
    <path
       class="fil1"
       d="m 857.203,748.72 c -6.34724,0.14528 -12.6874,0.74528 -18.9945,1.4374 -10.748,1.17992 -21.6555,2.73425 -32.478,2.77087 h -0.0354 l -0.0366,-10e-4 c -5.71772,-0.28228 -11.4189,-1.50236 -16.6429,-3.86811 -16.0772,-7.28031 -22.4079,-22.6476 -22.6583,-39.4972 v -256.232 h 264.872 l 0.1181,255.523 c 0.021,9.03071 -1.7906,18.2055 -6.3307,26.0988 -3.8268,6.65433 -9.4217,12.0331 -16.5094,15.1169 -4.9973,2.17441 -10.4717,3.05433 -15.9177,2.7 -17.3906,-1.47638 -34.7598,-4.11024 -52.2449,-4.11142 h -0.0354 l -0.0354,-0.002 c -6.53386,-0.34489 -13.5661,1.67362 -19.4197,4.45748 -7.45276,3.54449 -16.8909,10.4102 -19.4776,18.6248 l -1.28622,4.08543 -1.27677,-4.08898 c -1.72205,-5.51339 -6.51378,-10.1445 -11.152,-13.3547 -5.93268,-4.10551 -13.0795,-6.99921 -20.1307,-8.48858 -3.39094,-0.71575 -6.86102,-1.13031 -10.3276,-1.17047 z"
       id="path130035"
       style="stroke-width:2.30027" />
    <path
       class="fil2"
       d="m 767.7,454.668 h 262.186 l 0.1181,254.187 c 0.063,27.4134 -16.9476,43.9051 -37.30749,42.5787 -17.478,-1.48346 -34.8756,-4.11378 -52.3524,-4.11496 -15.6354,-0.82677 -36.2563,11.3386 -40.2496,24.0165 -3.97795,-12.7417 -24.1181,-23.7484 -42.9,-23.9539 -17.1567,0.38976 -35.1366,4.15157 -51.4689,4.20827 -19.2177,-0.95079 -37.5886,-12.7181 -38.0256,-42.0331 v -254.889 z"
       id="path130037"
       style="stroke-width:2.30027" />
    <path
       class="fil3"
       d="m 932.498,603.804 c 0.75354,-0.33425 1.6252,-0.30354 2.17323,0.50551 0.53504,0.7878 0.25039,1.63937 -0.34252,2.21339 -0.13347,0.12992 -0.27165,0.25512 -0.40748,0.3815 -0.15,0.14173 -0.3,0.28464 -0.44528,0.43228 1.13386,-0.39803 2.42717,-1.0252 2.85118,-1.22362 1.69016,-0.79134 3.99331,-1.93346 5.88307,-1.86378 l 1.11614,0.0413 0.35315,1.05591 c 0.24331,0.72756 -0.0697,1.31457 -0.46417,1.8685 3.25157,-0.61181 7.43976,-1.10197 9.74173,0.0449 l 0.89055,0.4441 v 0.9933 c 0,0.31181 -0.0532,0.61299 -0.15827,0.89646 l 6.39213,-0.16299 -0.1748,0.52204 h 1.87913 c -0.32008,1.09843 -0.42283,2.41535 -1.34882,3.17244 0.0402,0.001 0.0791,0.002 0.11693,0.004 2.37638,0.0579 4.7622,0.20315 6.17953,2.41535 l 0.085,0.13228 0.0579,0.14764 c 1.8874,4.81654 6.10984,8.58071 9.90236,11.9339 l 0.14646,0.12992 0.11102,0.16063 c 2.72953,3.94961 3.71457,11.7177 4.8437,16.4776 l 0.43819,1.84961 -1.90157,0.12402 c -0.9496,0.0614 -1.86024,-0.12166 -2.69882,-0.57284 -0.31417,-0.1689 -0.60472,-0.36732 -0.87401,-0.58819 1.67362,2.26299 2.88189,4.59567 1.20472,7.46929 -0.76536,1.31102 -1.20709,2.60433 -1.11378,4.13031 0.0791,1.28504 0.48543,2.52756 0.58346,3.8185 0.0898,1.19409 -0.0803,2.29252 -0.57756,3.3874 -0.22913,0.50315 -0.63307,0.89173 -1.16457,1.06181 -0.75826,0.24449 -1.39252,-0.008 -1.95827,-0.41102 0.33662,1.32874 0.81024,2.60551 1.27323,3.92717 1.09843,3.13701 1.70787,5.75787 1.26969,9.11929 l -0.27047,2.0752 -1.94055,-0.79607 c -0.10866,-0.0449 -0.17953,-0.0732 -0.23031,-0.0933 0.52086,1.63228 1.34646,3.25748 1.98898,4.55669 1.60866,3.25394 4.58622,7.68425 3.64961,11.4142 l -0.11929,0.47716 -0.36497,0.32835 c -4.49409,4.0311 -10.0335,7.40669 -14.5677,11.3929 -3.20315,1.90866 -15.6744,3.16299 -18.1311,-0.88583 -0.86102,-1.4185 0.15591,-3.69331 2.20866,-5.69528 0.89528,-0.87165 1.94646,-1.60039 2.99528,-2.25709 1.19291,-0.74646 4.5189,-2.47677 5.07402,-3.73228 0.163,-0.3685 0.46182,-1.33465 0.47126,-1.74449 -0.27165,-1.59803 -1.69961,-4.88031 -3.3189,-6.71811 l -0.95551,6.31299 -2.16969,-1.66772 c -2.59016,-1.99252 -4.82244,-9.32717 -5.60787,-12.8705 -1.22362,4.27087 -2.88898,0.72756 -3.71457,-1.06535 -0.42401,-0.92126 -0.83622,-1.84724 -1.26969,-2.76378 -0.1311,-0.27638 -0.39094,-0.82086 -0.69094,-1.40197 0,0.0921 0,0.17126 0,0.23504 0,1.31929 0.14173,3.71457 -1.65591,3.96732 0.44173,0.93307 0.23622,2.16732 0.0295,3.13465 -0.11457,0.53504 -0.32599,1.18583 -0.42402,1.7315 l 0.93543,3.74764 c 1.39488,5.58661 1.69843,11.876 -3.72874,15.4559 -2.39291,1.57913 -6.49252,2.94567 -9.24449,3.78661 -2.33031,0.71221 -4.82953,1.37835 -7.24488,1.71969 -2.35276,0.13228 -11.6433,0.0354 -12.2327,-4.51417 l -0.0106,-0.0815 -0.002,-0.0827 c -0.10984,-4.21535 6.34252,-6.18071 9.46181,-7.72441 1.49173,-0.73819 5.17795,-2.47677 5.68701,-4.20827 0.0779,-0.26575 0.0862,-0.5315 0.0449,-0.80315 -0.0154,-0.10158 -0.0449,-0.19725 -0.0791,-0.29292 -0.15,-0.40629 -0.3815,-0.81378 -0.55394,-1.21654 -0.32126,-0.75 -0.51732,-1.49882 -0.61181,-2.30906 -0.0449,-0.3744 -0.0957,-1.22953 -0.17126,-2.02087 -0.14646,0.10985 -0.32717,0.20315 -0.55984,0.26575 -0.93071,0.25158 -1.67362,-0.3189 -2.10118,-1.06535 -0.1937,-0.33897 -0.36024,-0.70866 -0.51496,-1.06654 -0.45709,-1.05472 -0.86221,-2.14843 -1.25669,-3.22795 -0.53977,-1.47638 -1.02283,-2.98583 -1.5685,-4.45276 -0.26103,-0.69212 -0.38386,-1.51417 -0.33071,-2.31496 -0.0508,-0.013 -0.1004,-0.0283 -0.15118,-0.0461 -1.30748,-0.44409 -1.74213,-1.84606 -2.12126,-3.04252 -0.25512,1.04291 -0.7063,2.15197 -1.95945,2.19449 -0.42284,0.0154 -0.67205,-0.0756 -0.96497,-0.25512 -0.94606,-0.58228 -1.4752,-1.18465 -2.20394,-1.81299 -0.41692,1.08543 -0.96496,2.18976 -2.4,2.04331 -0.92007,-0.0945 -1.7374,-0.0331 -2.64921,0.0779 -0.92126,0.11221 -2.13425,0.54213 -3.00354,0.10985 -0.75354,-0.37559 -1.4374,-2.50748 -1.97362,-1.82126 l -1.09724,1.40551 h -0.33189 c 0.0165,0.3496 0.0449,0.71929 0.0177,0.99094 l -0.21496,2.14724 -1.25906,-0.51614 c 0.11811,0.65906 0.19016,1.34882 0.20197,2.09173 l 0.0555,3.56339 -1.48346,-1.26732 -0.24921,7.77165 -2.21929,2.21575 c -0.28583,0.72047 -0.3,1.74921 -0.30118,2.47677 -0.002,2.15197 0.28582,4.98189 -1.85551,6.29291 -0.4063,0.24803 -0.77481,0.36142 -1.12559,0.37795 v 0.88111 h -0.45709 c -0.0142,0.16181 -0.026,0.31417 -0.0366,0.42755 -0.0709,0.77245 -0.13111,1.54252 -0.22796,2.3126 -0.27756,2.19685 -1.01457,5.4685 -3.87047,5.35748 -7.12795,-0.27755 -13.8402,0.86457 -20.5276,3.28583 -0.7559,0.27402 -1.64055,0.013 -2.03622,-0.79488 -0.0543,-0.10984 -0.0945,-0.22323 -0.12165,-0.33661 -0.96378,0.29291 -1.88976,0.26811 -2.50866,-0.47008 -0.65079,-0.77835 -0.46417,-1.69134 -0.0189,-2.47087 -0.0236,-0.008 -0.0484,-0.0177 -0.072,-0.0272 l -1.52362,-0.58346 0.60591,-1.51181 c 0.16299,-0.4063 0.37913,-0.78543 0.64252,-1.13386 1.57559,-2.07992 4.65591,-2.72126 7.04055,-3.40866 2.5937,-0.74882 5.21693,-1.53425 5.21693,-4.69016 v -1.6063 h 0.62362 c 0.0839,-0.81614 0.002,-2.09055 -0.29764,-2.54055 l -0.61653,-0.0378 -0.44528,-0.63897 c -1.29331,-1.85197 -0.39212,-4.71142 -0.79488,-5.49803 -0.0555,-0.0189 -0.13937,-0.0295 -0.18189,-0.0342 l -1.08661,-0.11339 -0.29527,-1.04882 c -0.17599,-0.62362 -0.22087,-1.46929 -0.27166,-2.12008 -0.0744,-0.94252 -0.13937,-1.88622 -0.23386,-2.82756 -0.0272,-0.27756 -0.0862,-0.82441 -0.17126,-1.41496 -0.0685,0.0472 -0.14291,0.0921 -0.22322,0.13346 -1.05709,0.55158 -2.03976,-0.0354 -2.78386,-0.77007 l -0.33071,-0.32481 -0.10512,-0.45118 c -0.32717,-1.3937 -0.94606,-3.39567 -1.54134,-4.69134 -0.13937,-0.30472 -0.27638,-0.6059 -0.4063,-0.90354 l -0.47717,-0.7441 c -0.0779,1.28858 -0.88346,3.27638 -1.62874,4.24488 -0.54094,0.70276 -1.16339,1.38543 -1.81654,1.98661 -0.82086,0.75591 -2.0185,1.68898 -3.12992,0.63544 -0.13818,-0.1311 -0.24094,-0.26693 -0.31535,-0.4004 -1.88504,1.24961 -8.70591,3.26102 -6.10157,-0.74055 l -3.95079,3.46417 c -0.51968,0.39567 -1.20709,0.50197 -1.80827,0.2126 -0.34842,-0.16772 -0.57638,-0.3874 -0.72283,-0.63898 -0.0921,0.11221 -0.17953,0.21851 -0.25867,0.31536 -0.80196,4.57795 -5.19213,5.62205 -5.58661,9.10157 l -0.0378,0.32953 -0.16536,0.287 c -0.46653,0.81497 -0.54803,1.55197 -1.24843,2.31969 -0.63661,0.69922 -1.74449,1.36063 -2.67992,1.40669 -5.31024,0.92363 -6.07087,0.61654 -8.47795,-4.1374 -0.62598,-1.33465 -0.65787,-2.94567 -0.37204,-4.42205 l 0.11575,-0.59291 0.4311,-0.33543 c 0.14409,-0.27874 0.32834,-1.47283 0.48189,-2.01378 0.25275,-0.99921 0.64842,-1.93937 1.11969,-2.85354 0.91181,-1.76811 2.17205,-3.48661 2.75669,-5.39291 l 0.0272,-0.0898 0.0378,-0.085 c 0.39685,-0.90473 0.94842,-1.37126 1.43858,-2.14134 0.18071,-0.28347 0.24212,-0.49134 0.19606,-0.82914 l -0.0909,-0.66496 0.40984,-0.5315 c 0.71339,-0.9248 1.2626,-1.99843 1.7811,-3.04016 1.44921,-2.90906 2.75551,-5.63504 5.8311,-7.07244 1.23071,-1.1374 2.80394,-1.90866 4.31339,-2.59961 1.28386,-0.58937 2.94921,-1.25551 4.04173,-2.1437 l 0.065,-0.052 0.0697,-0.0461 c 1.45157,-0.94724 3.2126,-1.44803 4.46457,-2.63386 l 1.02165,-0.96732 -0.69213,-2.20748 c -0.3437,-1.09606 -0.25039,-2.25354 -0.098,-3.37323 0.0496,-0.3685 0.27638,-1.68071 0.21378,-2.29606 -1.07598,0.76299 -2.38346,1.41378 -3.58228,0.74409 -1.06299,-0.59409 -1.26614,-1.88386 -1.70315,-3.08504 -0.21969,0.18544 -0.44055,0.3626 -0.6626,0.52678 -0.7748,0.57519 -1.72913,0.97086 -2.63504,0.35787 -0.34961,-0.2374 -0.55276,-0.52205 -0.67087,-0.83976 -0.35551,0.72637 -0.89291,1.29213 -1.80709,1.61102 l -1.06417,0.37204 -0.71574,-0.87047 c -0.50906,-0.62126 -0.71457,-1.35591 -0.89174,-2.11063 -0.53149,0.64724 -1.20472,1.04764 -2.19921,1.04764 h -1.18465 l -0.35315,-1.12677 c -0.0579,-0.18189 -0.13937,-0.35197 -0.24567,-0.51024 -1.01102,-1.50354 -4.3311,-2.07756 -5.98937,-2.34213 -1.74449,-0.27874 -3.5315,-0.45 -5.25827,-0.80551 -3.70394,-0.76181 -5.06575,-2.24291 -6.64843,-4.43504 l -1.10315,-1.38661 c -0.97322,-2.52992 -0.65669,-5.50039 -1.11496,-6.06024 -0.0154,-0.0142 -0.059,-0.0331 -0.0779,-0.0401 l -1.0122,-0.40394 V 619.13 c 0,-0.30827 -0.1122,-0.68504 -0.17244,-0.98977 -0.10984,-0.56102 -0.14173,-1.08898 -0.039,-1.65591 l 0.15,-0.82322 0.76182,-0.34961 c 3.55512,-1.62992 8.34685,-2.83465 10.9819,-5.81457 l 0.68267,-0.77244 0.27284,0.0815 c 0.54449,-0.7063 1.32402,-2.11299 1.60984,-2.61614 0.59055,-1.04173 1.79646,-3.41102 2.68583,-4.11969 l 0.0461,-0.0378 0.0496,-0.0331 c 1.83661,-1.25197 3.99213,-2.87835 6.2752,-3.90827 -0.13111,-0.10748 -0.25866,-0.22795 -0.37914,-0.36378 -1.47992,-1.65 -0.95433,-4.30866 0.0685,-6.04843 0.95433,-1.62165 2.80984,-3.75591 4.76339,-3.75591 h 0.17126 l 0.16653,0.0354 c 0.49725,0.1063 1.85197,1.27677 3.05669,1.59449 0.98504,0.25866 2.14843,0.69331 2.12835,1.9311 2.31378,-1.39488 4.94764,-1.69488 7.55551,0.25394 l 0.0295,0.0224 0.0283,0.0224 c 2.11299,1.73504 2.02795,5.73189 0.95551,8.37165 0.32598,-0.45709 0.72401,-0.85275 1.19055,-1.18228 1.85787,-1.31693 3.67205,-1.13268 5.66339,-1.74331 l 2.08583,-0.64016 v 2.17559 c 0,0.25276 -0.004,0.26811 -0.0626,0.50434 -0.0248,0.0992 -0.0531,0.19133 -0.0862,0.27637 0.6189,-0.013 1.24016,-0.0532 1.87323,-0.10866 1.27913,-0.11102 3.05197,-0.44645 3.89409,0.8067 0.48307,0.72047 0.37323,1.49291 0.0532,2.20276 0.73819,-0.23859 1.40551,-0.49016 1.72677,-0.61654 1.55787,-0.6189 3.37323,-1.42205 4.84016,-2.27835 3.24449,-2.98819 6.97323,-3.50669 11.3031,-3.16181 2.67992,0.21378 5.77795,0.98858 8.39882,1.61339 3.92598,0.93661 7.83425,1.9689 11.7366,3 4.44213,1.17402 8.88543,2.37756 13.3488,3.46417 1.22008,0.29764 5.77559,1.45512 7.04882,1.37244 1.23543,-0.52087 2.31732,-0.83858 3.66732,-0.96732 1.88031,-0.17953 3.00354,-0.41339 4.81181,-1.06772 z m -82.3417,-2.15079 -0.15,0.11457 c -0.2185,0.16771 -0.65315,0.52322 -1.05236,0.90472 0.29173,-0.0579 0.56221,-0.12165 0.74409,-0.16772 z m 1.32638,1.39016 0.0661,0.098 c 0.0969,0.14528 0.1748,0.29291 0.23622,0.44173 l 0.20906,-0.27874 c 0.0472,-0.0614 0.11456,-0.15472 0.19015,-0.25984 -0.0319,-0.001 -0.0591,-0.001 -0.0838,-0.001 h -0.61772 z m 3.00118,3.26457 -0.0142,0.0437 c 0.009,-0.013 0.0201,-0.026 0.0307,-0.039 z"
       id="path130039"
       style="stroke-width:2.30027" />
    <path
       class="fil3"
       d="m 843.615,598.368 c 0.2126,1.47756 0.77244,2.7685 2.19803,2.7685 0.80551,0 2.02087,-1.66417 2.29016,-2.68701 0.26221,-1.00039 0.38386,-2.36811 -0.17244,-2.81811 -0.42638,-0.34606 -1.78583,0.70866 -1.95709,-0.10158 -0.39095,-1.85197 -1.09843,-1.32282 -1.74567,-0.56811 -1.17992,1.37717 -0.72756,2.61024 -0.61299,3.4063 z"
       id="path130041"
       style="stroke-width:2.30027" />
    <path
       class="fil4"
       d="m 921.728,675.18 c 0.31772,-1.86732 -0.33661,-4.34173 1.24724,-4.56142 2.43425,-0.33661 1.55079,4.86496 4.07717,4.81063 1.63937,-0.0354 1.06654,-4.17638 2.49449,-3.81496 5.9811,1.51535 1.73386,4.76457 6.41929,5.72598 1.12795,0.23031 -0.35079,4.15394 -0.24921,4.56024 l 1.00157,4.01102 c 1.23898,4.96181 1.67835,10.6063 -3.05551,13.7291 -4.17874,2.75787 -21.8008,7.97598 -19.3677,3.93307 2.43189,-4.04291 -3.11811,-0.47362 -4.07717,-0.74646 2.38937,-4.67244 -2.51457,1.05354 -2.78858,-1.06063 -0.0768,-2.94567 5.45906,-4.70551 8.56654,-6.24449 3.9626,-1.96063 7.05945,-3.76181 6.60945,-6.69331 -0.17599,-1.14449 -1.00748,-1.79409 -1.2378,-3.76181 -0.32717,-2.78504 -0.11457,-6.55748 -2.72598,-3.13937 -0.39803,0.52087 -3.36496,-8.34921 -3.53858,-8.80866 -1.02874,-2.7189 1.18937,-5.12717 2.81339,-2.12835 1.92992,3.56102 3.80079,4.24961 3.81142,4.18937 z m -81.9024,-83.5063 c -0.68622,1.45276 -2.05866,2.39409 -1.8874,4.44449 -7.69843,4.38543 -5.62559,-5.72835 -1.28622,-5.72835 2.38228,0.50905 5.91614,1.16811 3.17362,1.28386 z m 84.698,15.6992 c 3.68622,-1.58504 3.50551,-0.2315 8.58898,-2.08228 1.20591,-0.59055 -2.83937,2.04449 -2.12953,3.7748 2.47795,1.23543 8.09055,-3.32362 11.1685,-3.21024 0.0791,0.23622 -2.33386,2.58189 -1.07126,3.44646 3.15591,-0.70748 8.78976,-1.78346 11.1567,-0.60354 0,1.26378 -2.08701,1.07126 -1.53307,2.5689 l 8.06575,-0.17835 c -0.19488,0.58228 0.68976,0.47244 0.94606,0.47244 -0.64488,0.96496 -2.84646,1.16575 -3.25394,2.30079 2.44606,1.80945 7.09961,-0.28346 8.91378,2.54764 1.97244,5.03268 6.15354,8.85472 10.3335,12.5504 2.44606,3.53858 3.57638,11.6126 4.60276,15.9378 -3.62953,0.23504 -4.49646,-4.64055 -6.70512,-6.99921 -4.19173,5.85 6.09331,8.88543 3.04843,14.1024 -3.16654,5.42717 0.47953,7.82835 -1.18228,11.4803 -0.5622,1.23661 -2.99764,-3.53858 -3.62835,-0.47126 0.63071,5.2689 3.70748,8.57126 2.9185,14.6256 -1.34055,-0.55039 -1.2626,-3.14528 -2.9185,-2.12244 -0.62834,6.00945 7.40551,12.9992 5.97756,18.6933 -3.9437,3.53858 -10.3583,8.24882 -14.3811,11.7862 -3.55984,0.33071 -7.40433,-0.052 -10.5177,1.35591 0,-3.99094 -0.48661,-1.25787 -2.84055,-1.25787 0.81851,-0.40748 1.03937,-1.56969 1.18346,-2.35866 -0.68031,-0.27165 -2.69646,0.48544 -3.39213,1.17874 0.98977,-4.93583 8.79449,-6.33661 10.2543,-9.63661 0.27166,-0.61417 0.68386,-2.03858 0.59528,-2.59488 -0.3815,-2.39882 -3.03189,-8.3622 -6.12638,-9.30236 l -0.93189,6.16063 c -2.60433,-2.00197 -4.69961,-7.06417 -5.06339,-10.4858 0.59527,-2.96929 -2.9185,-5.30315 -2.9185,-1.17992 -1.06654,-1.3748 -5.89843,-15.1476 -5.89843,-4.92874 0,9.80079 -3.53031,-13.8803 -5.99528,-13.3677 -2.20866,2.67283 0.95669,7.64055 -0.23622,10.5366 -0.75236,1.82362 -1.62874,-1.8815 -3.4252,-2.69528 -1.02165,8.32087 -0.99213,0.77953 -4.34409,1.64055 -0.89055,0.22914 -1.96417,0.72992 -2.80157,0.58347 -2.0185,-0.35552 -3.21732,-4.57087 -4.3937,-2.70118 -5.05276,8.03268 -2.94213,-3.40866 -6.62717,-1.31102 -0.21024,0.11929 -0.57047,3.51969 -1.04764,3.22559 -1.28976,-0.7937 -1.1811,-1.05591 -2.51575,-2.08465 -2.07992,-1.60276 -1.83071,2.18031 -2.76969,2.08465 -4.49409,-0.46181 -5.5311,2.23228 -5.99528,-4.24606 1.13504,0.37677 -0.22441,-10.7185 -3.86457,-9.35787 -0.28583,1.30276 1.54134,6.92008 0.23622,6.92008 l -0.70984,6.44764 c -0.73701,0 -0.41575,1.86378 -0.47245,2.4378 -0.67322,-0.27638 -1.70196,-5.66693 -1.89331,-6.68386 -1.18346,-1.02283 -1.12323,-3.48543 -1.75394,-3.24921 -1.34763,5.59961 2.28661,8.64213 2.36694,13.8402 -3.8315,-3.27402 -1.09016,0.40275 -1.41969,1.96535 l -0.23741,7.39134 -1.97126,1.9689 c -1.33228,2.57835 0.39213,7.07953 -1.65709,8.33268 -1.13504,0.69448 -1.89331,-1.82953 -1.89331,1.02283 -0.90118,0 -10e-4,8.2122 -2.9185,8.09882 -7.73031,-0.3 -14.5925,1.01102 -21.1406,3.3815 -0.45118,0.16299 3.31299,-1.57205 0.94725,-2.90906 -2.8878,2.15906 -6,3.14882 -1.89331,-0.9437 -0.70985,-1.02283 -1.65709,0.15708 -2.68228,-0.23622 1.85669,-4.62638 13.0157,-2.13543 13.0157,-9.82913 0.87992,0 1.17756,-5.60787 -1.0252,-5.74134 -1.2626,-1.80827 0.86693,-5.89724 -2.13071,-6.21142 -0.40158,-1.42205 -0.28111,-10.3028 -2.36575,-9.35787 -0.94725,0.3933 -0.0295,3.33425 -1.73622,1.65118 -0.86693,-3.69567 -3.39213,-6.44646 -3.39213,-10.6146 -0.55512,-0.55276 -1.73622,-0.22087 -1.73622,0.70748 -0.39803,-1.38661 0.0815,-9.25748 -1.62874,-9.47126 -2.08346,3.63543 -1.11969,-0.45827 -2.83937,-1.8874 0.23622,-1.65 -0.26339,-3.19016 -0.0272,-4.84134 -2.28661,0.0791 -0.15709,-5.11063 -3.31299,-2.67402 -0.78897,-2.51575 1.73622,-6.44764 -1.49882,-7.15512 -4.24606,3.38504 -2.38937,-0.17363 -4.81181,-2.91024 -5.25,4.91811 -0.99921,-0.19725 -4.57441,-0.70748 -1.2626,0.70748 -0.55275,2.8311 -2.13071,3.3815 -0.70984,-0.86457 -0.55157,-2.75197 -1.41969,-3.61654 -1.81417,-0.31418 -1.34055,1.96535 -2.9185,1.96535 -1.79528,-5.72835 -16.5685,-3.02126 -15.6189,-6.99803 3.31299,0.15708 5.91614,-0.78662 7.73031,-3.30236 -1.0252,-1.57323 -2.62913,0.006 -4.12795,0.006 -2.05157,1.80827 -5.0811,-0.59646 -7.52598,0.26811 -1.60157,-1.92165 0.53268,-5.62205 -1.83425,-6.56575 0,-0.86457 -0.39449,-1.49409 -0.2374,-2.35866 3.94488,-1.80827 8.59843,-2.91024 11.5169,-6.2126 1.06063,0.31772 4.02756,-6.41929 5.04921,-7.23425 2.72244,-1.85669 6.83858,-5.14134 10.3335,-4.56024 0.2622,3.91299 2.67874,1.93819 4.57559,1.49291 -0.15827,-1.88622 -2.84055,-3.06614 -1.18346,-5.34685 2.44252,-2.63858 5.32205,-4.04055 8.20394,-1.8874 1.76929,1.45394 1.15394,5.7437 0,7.47165 -3.40748,2.61142 -3.64488,4.82126 1.18228,3.5374 0.71457,1.0689 -1.17402,3.49724 2.36693,2.91024 -0.11693,0.34843 -1.32402,1.78346 -0.47362,2.12244 2.09528,0.83504 0.67204,0.0425 0.94724,1.96535 1.65591,1.65236 2.2878,-0.94252 3.39094,-1.49291 -3.54449,-1.30157 2.06339,-3.69685 0.2374,-4.24724 l -3.39213,-1.02165 c 1.73268,-2.30433 0.91536,-2.8311 -1.18346,-2.8311 1.19173,-2.21457 4.19409,-2.04803 6.2315,-2.67283 0,0.7252 -1.65591,1.01102 -1.65591,2.20039 6.34488,0.95906 10.2201,-2.24646 5.52165,3.53976 2.26299,0.78898 9.37205,-2.71535 10.9583,-3.66024 1.0122,-0.95905 2.25945,-1.89567 4.2189,-2.44488 v 4.40197 c -0.009,0.3437 0.0484,0.68386 0.0862,1.02402 0.44174,2.19921 2.52756,4.17283 6.23031,4.16693 l 3.15354,-0.006 v 0.006 h 35.8311 v -0.67205 c 0.93898,0.13701 1.58268,0.16536 1.84724,0.052 z m -95.6457,6.08386 c 0.54803,2.73071 1.16693,2.07165 -3.94134,0.87283 -0.98268,-0.23031 1.95827,-6.80315 3.94134,-0.87283 z m 9.01417,18.4996 c 1.30394,0.22795 2.80866,0.21968 3.54331,1.51654 0.19488,0.3437 0.6626,0.27874 0.66024,-0.24685 -0.0142,-2.68465 4.08543,0.97323 4.12205,-2.79449 0.0165,-1.69724 1.21772,-1.32874 2.59134,-1.32874 1.35827,0 2.1189,-0.51142 2.56535,-1.94764 -1.62638,0.54567 -2.17441,0.63661 -4.27441,0.3 -0.94843,-0.15236 -2.28425,-0.68858 -2.28425,0.92126 0,0.8622 0.42637,2.23701 -0.0272,2.50276 -0.27165,0.15945 -1.29213,-0.0378 -1.70433,-1.10551 -0.26457,-0.6874 -1.31102,-1.64764 -1.56614,-0.65787 -0.31653,1.22953 -0.3437,2.19094 -2.47323,1.64409 -0.20433,-0.052 -1.24606,-0.7193 -1.57323,-0.90355 -1.52717,-0.86102 -2.21929,1.63819 0.42047,2.1 z m 15.5126,24.7594 c -0.41811,1.74921 -2.40827,2.99764 -1.15512,4.99606 3.62717,-0.83386 3.04606,-1.7563 2.65984,1.33346 -0.0177,0.13701 -1.52717,3.5811 -0.50197,3.5811 6.23386,0 -1.51654,7.30866 -1.43976,6.61299 0.0839,-0.75 -0.0827,-1.49882 -0.50079,-2.08228 -1.5874,1.91575 -4.0937,2.66575 -6.34961,3.33189 0.14646,-0.17008 1.42913,-2.90315 0.50079,-2.74843 l -1.50354,0.24921 -4.59449,3.49843 c -0.88465,0.67205 1.96181,-6.10866 -3.34252,0.49961 -0.50079,4.41378 -5.15669,5.17205 -5.65748,9.58583 -0.66968,1.16693 -0.66968,2.49921 -2.33976,2.58189 0.50079,-1.08307 -0.90472,-2.52874 -1.23898,-3.27874 -1.17047,0.24921 -0.88346,2.31732 -1.30039,3.31654 -1.00276,-0.49961 -0.0248,-3.72756 -2.28071,-2.81102 -1.08543,0.66614 0.0236,1.81181 -1.06181,2.31142 0.16772,-1.33228 -2.07638,-3.26929 -1.57559,-5.85118 0.75236,-0.58347 0.6685,-1.91575 1.00276,-2.83228 0.75118,-2.99764 2.94213,-5.19331 3.86102,-8.19213 0.58465,-1.33228 2.00551,-1.99843 1.75394,-3.8315 2.5063,-3.24803 3.15709,-7.99134 7.25079,-9.74055 2.17205,-2.16614 6.20197,-3.01654 8.45787,-4.84843 2.42244,-1.58268 4.09252,-2.26181 6.34843,-3.84449 2.39055,0.98622 0.76772,3.92953 0.97559,5.67165 0.11457,0.94724 -1.11969,2.93858 2.0315,2.49094 z"
       id="path130043"
       style="stroke-width:2.30027" />
    <path
       class="fil3"
       d="m 918.97,556.355 h 3.7063 v 51.6378 h -35.8311 v -0.006 l -3.15354,0.006 c -3.70276,0.006 -5.78858,-1.96772 -6.23031,-4.16693 -0.0378,-0.34016 -0.0957,-0.68031 -0.0862,-1.02402 v -50.4898 -0.0815 -0.30236 h 0.013 c 0.18543,-2.34803 2.40354,-4.63701 6.70866,-4.81772 l 35.374,0.065 -0.80787,1.19173 c -1.38071,2.03858 -1.38189,5.49567 0,7.53425 l 0.30708,0.45355 z"
       id="path130045"
       style="stroke-width:2.30027" />
    <path
       class="fil5"
       d="m 887.65,557.158 h 34.2201 v 50.0315 H 887.65 Z m 19.5024,14.8441 h 3.13228 v 3.04252 h -3.13228 v 2.6563 h 6.07559 v 3.04252 h -6.07559 v 6.22087 l 3.45945,1.99134 v 3.29173 l -3.45945,-1.99134 v 5.30551 h -3.05197 v -7.06181 l -3.46063,-1.99134 v -3.29173 l 3.46063,1.99134 v -4.46457 h -6.07677 v -3.04252 h 6.07677 v -2.6563 h -3.13346 v -3.04252 h 3.13346 v -2.85591 h 3.05197 z m -2.24646,-2.05276 h 1.44094 v 2.85591 h 3.13228 v 1.43622 h -3.13228 v 4.2626 h 6.07559 v 1.43622 h -6.07559 v 7.48819 l 3.45945,1.99134 v 1.43622 l -3.45945,-1.99134 v 5.8937 h -1.44094 v -6.72283 l -3.46063,-1.99134 v -1.43622 l 3.46063,1.99134 v -6.65906 h -6.07677 v -1.43622 h 6.07677 v -4.2626 h -3.13228 v -1.43622 h 3.13228 z m -12.9591,-8.50748 h 25.6264 v 41.4626 h -25.6264 z m 0.80551,0.80315 h 3.75118 l -3.75118,3.73937 z m 4.89094,0 h 14.2335 l 4.89094,4.87559 v 30.1063 l -4.89094,4.87441 h -14.2346 l -4.88976,-4.87441 v -30.1075 l 4.89094,-4.87441 z m 15.3732,0 h 3.75118 v 3.73937 z m 3.75118,36.1169 v 3.73937 h -3.75118 z m -20.2642,3.73937 h -3.75118 v -3.73819 z"
       id="path130047"
       style="stroke-width:2.30027" />
    <path
       class="fil0"
       d="m 884.235,547.913 h 33.5846 c 0.0579,0 0.11693,0.002 0.17598,0.005 -0.47952,0.7063 -0.81141,1.55315 -0.99803,2.45433 h -27.6874 v 0.70748 h 27.5728 c -0.10275,0.85867 -0.0791,1.74567 0.072,2.59134 h -25.5768 v 0.7063 h 25.735 c 0.19488,0.72048 0.48898,1.3937 0.88228,1.97244 -0.0591,0.004 -0.11811,0.005 -0.17598,0.005 h -33.5846 c -7.65709,0 -7.6878,-8.49449 0,-8.44134 z"
       id="path130049"
       style="stroke-width:2.30027" />
    <path
       class="fil3"
       d="m 895.754,529.144 -5.37165,-14.0445 1.73976,0.42402 c 5.09528,1.24252 10.1846,1.24252 15.2787,0 l 1.74094,-0.42402 -5.37165,14.0445 13.2154,-5.20512 -0.43228,1.76102 c -1.24724,5.07874 -1.24724,10.1516 0,15.2303 l 0.43228,1.75984 -12.4299,-4.89449 4.61102,11.6362 -1.76575,-0.4311 c -5.09409,-1.2437 -10.1835,-1.2437 -15.2787,0 l -1.76457,0.4311 4.61102,-11.6362 -12.4299,4.89449 0.43228,-1.75984 c 1.24724,-5.07874 1.24724,-10.1516 0,-15.2303 l -0.43228,-1.76102 13.2154,5.20512 z"
       id="path130051"
       style="stroke-width:2.30027" />
    <path
       class="fil4"
       d="m 883.884,525.477 13.5083,5.31969 -5.49331,-14.3622 c 5.25,1.28031 10.4764,1.28031 15.7264,0 l -5.49331,14.3622 13.5083,-5.31969 c -1.28504,5.23346 -1.28504,10.4433 0,15.6768 l -12.7559,-5.02441 4.74094,11.961 c -5.25,-1.28031 -10.4764,-1.28031 -15.7264,0 l 4.73976,-11.961 -12.7547,5.02441 c 1.28504,-5.23346 1.28504,-10.4433 0,-15.6768 z"
       id="path130053"
       style="stroke-width:2.30027" />
    <path
       class="fil5"
       d="m 878.18,554.704 c 0,0.63543 0.0295,1.08189 0.10748,1.68543 l 0.001,0.001 0.0236,0.18543 c 0.2315,1.0748 0.86221,1.85551 1.69016,2.38701 1.02874,0.66142 2.36102,0.94725 3.62244,0.94607 l 3.21969,-0.007 v -2.74843 l -2.74843,0.005 c -2.92087,0.005 -4.89803,-1.03819 -5.91614,-2.45433 z m 6.22559,32.987 h 0.68386 v 10.6713 h -0.68386 z m -2.47087,-0.68032 h 0.68386 v 10.6713 h -0.68386 z m -2.47205,-0.74055 h 0.68504 v 10.6713 h -0.68504 z m 4.94291,-19.226 h 0.68386 v 10.6724 h -0.68386 z m -2.47087,-0.68031 h 0.68386 v 10.6724 h -0.68386 z m -2.47205,-0.74055 h 0.68504 v 10.6724 h -0.68504 z m -1.28268,-7.4374 c 0,0.62953 0.0295,1.0689 0.10748,1.66772 l 10e-4,10e-4 0.0236,0.18543 c 0.2315,1.0748 0.86221,1.85551 1.69016,2.38701 1.02874,0.66024 2.36102,0.94725 3.62244,0.94488 l 3.21969,-0.006 v -2.72598 l -3.21969,0.006 c -1.39016,0.002 -2.86772,-0.31889 -4.02283,-1.06181 -0.56693,-0.36378 -1.05591,-0.82559 -1.42205,-1.39843 z m 0,3.46417 v 14.6232 c 0.002,0.31063 0.0957,0.56575 0.13228,0.86102 0.2315,1.0748 0.86221,1.85551 1.69016,2.38701 1.02874,0.66142 2.36102,0.94725 3.62244,0.94607 l 3.21969,-0.007 v -16.3559 l -3.21969,0.006 c -1.39016,0.002 -2.86772,-0.31889 -4.02283,-1.06181 -0.56693,-0.36378 -1.05591,-0.82559 -1.42205,-1.39843 z m 0,17.0941 c 0,0.62953 0.0295,1.0689 0.10748,1.66772 l 10e-4,10e-4 0.0236,0.18543 c 0.2315,1.0748 0.86221,1.85551 1.69016,2.38701 1.02874,0.66142 2.36102,0.94725 3.62244,0.94607 l 3.21969,-0.007 v -2.72598 l -3.21969,0.006 c -1.39016,0.002 -2.86772,-0.31889 -4.02283,-1.06063 -0.56693,-0.36378 -1.05591,-0.82677 -1.42205,-1.39961 z m 0,3.46417 v 13.0594 c 0,0.55748 0.0614,1.00039 0.13228,1.56378 0.2315,1.0748 0.86221,1.85433 1.69016,2.38701 1.02874,0.66023 2.36102,0.94724 3.62244,0.94488 l 3.21969,-0.006 v -15.4949 l -3.21969,0.006 c -1.39016,0.002 -2.86772,-0.3189 -4.02283,-1.06063 -0.56693,-0.36496 -1.05591,-0.82795 -1.42205,-1.39961 z m 0,16.2331 c 0,0.62953 0.0295,1.0689 0.10748,1.66772 l 10e-4,10e-4 0.0236,0.18543 c 0.2315,1.0748 0.86221,1.85433 1.69016,2.38701 1.02874,0.66024 2.36102,0.94725 3.62244,0.94488 l 3.21969,-0.006 v -2.72598 l -3.21969,0.006 c -1.39016,0.002 -2.86772,-0.31889 -4.02283,-1.06181 -0.56693,-0.36378 -1.05591,-0.82677 -1.42205,-1.39843 z m 0,3.46299 v 0.91417 c -0.008,0.28701 0.0437,0.5941 0.0779,0.8811 0.52323,2.50984 3.10512,3.4937 5.43189,3.48898 l 3.15472,-0.005 v -2.82402 l -3.21969,0.006 c -1.39016,0.002 -2.86772,-0.31889 -4.02283,-1.06181 -0.56693,-0.36378 -1.05591,-0.82677 -1.42205,-1.39961 z"
       id="path130055"
       style="stroke-width:2.30027" />
    <path
       class="fil3"
       d="m 972.548,389.583 c 0.9815,0.17835 1.96417,0.41575 2.94449,0.70394 0.63661,0.18661 1.25906,0.44882 1.84488,0.75826 3.59646,1.89685 5.18386,5.42363 0.0366,6.64725 -2.45079,0.58228 -4.47638,1.49054 -6.49488,3.02008 -3.52913,2.6752 -6.20787,6.67086 -8.2311,10.54489 -2.21102,4.23307 -3.92953,8.8311 -5.52047,13.32761 -2.03504,5.75315 -3.86929,11.7543 -6.30709,17.34089 -1.31102,3.00354 -3.18661,5.10118 -6.09803,6.6626 -4.49882,2.41299 -10.6913,3.05079 -15.7087,3.24331 -20.0941,0.77008 -40.2295,0.77008 -60.3236,0 -5.01732,-0.19252 -11.2098,-0.83031 -15.7087,-3.24331 -2.91142,-1.56142 -4.78701,-3.65906 -6.09803,-6.6626 -2.4378,-5.58661 -4.27205,-11.5878 -6.30709,-17.34089 -1.59094,-4.49646 -3.30945,-9.09449 -5.52047,-13.32761 -2.02323,-3.87401 -4.70197,-7.86968 -8.2311,-10.54489 -2.0185,-1.52954 -4.04291,-2.4378 -6.49488,-3.02008 -1.32874,-0.31654 -3.09449,-0.99449 -3.26575,-2.5689 -0.25275,-2.32559 3.2315,-4.27323 5.14724,-4.83661 0.98032,-0.28819 1.96299,-0.5256 2.94449,-0.70394 -4.73031,-9.19134 -7.51181,-19.5283 -6.71693,-29.9043 0.70748,-9.23504 4.25079,-17.9894 10.7858,-24.6555 6.8811,-7.01693 16.0406,-10.6713 25.8024,-11.1661 9.55866,-0.48307 19.0051,2.02677 27.6343,6.07677 -0.013,-0.25866 -0.0201,-0.51969 -0.0201,-0.78189 0,-7.47874 5.1,-13.7728 12.0224,-15.613 v -7.45394 h -6.08031 l -5.19567,8.02323 h -4.31929 v -24.3969 h 4.31929 l 5.19567,8.02323 h 6.08031 v -8.92205 l -10.0382,-6.46063 v -5.00551 h 28.4528 v 5.00551 l -10.0382,6.46063 v 8.92205 h 6.07913 l 5.19685,-8.02323 h 4.31929 v 24.3969 h -4.31929 l -5.19685,-8.02323 h -6.07913 v 7.45394 c 6.92126,1.84016 12.0213,8.13425 12.0213,15.613 0,0.2622 -0.006,0.52323 -0.0189,0.78189 8.62913,-4.05 18.0756,-6.55984 27.6331,-6.07677 9.76181,0.49488 18.9224,4.14921 25.8035,11.1661 6.53504,6.66614 10.0783,15.4205 10.7858,24.6555 0.79488,10.376 -1.98661,20.713 -6.71693,29.9043 z"
       id="path130057"
       style="stroke-width:2.30027" />
    <path
       class="fil6"
       d="m 971.713,389.444 c 4.73504,-9.11693 7.53898,-19.389 6.74882,-29.7035 -0.69213,-9.04606 -4.15512,-17.6244 -10.5591,-24.1547 -6.73937,-6.87283 -15.7075,-10.4409 -25.2673,-10.9252 -9.3189,-0.47244 -18.5398,1.95354 -26.9787,5.87362 l -10.2909,39.2445 c 1.00157,0.51614 1.98071,1.15394 2.92795,1.91575 l 10.1457,-39.4748 c 42.2209,-18.3626 71.6539,17.576 50.3657,56.9764 0.96378,0.0189 1.93465,0.10394 2.90787,0.24803 z m -79.3748,-19.6654 -10.2921,-39.2445 c -8.4378,-3.92008 -17.6587,-6.34606 -26.9776,-5.87362 -9.55984,0.48425 -18.528,4.05236 -25.2673,10.9252 -6.40394,6.53031 -9.86575,15.1087 -10.5591,24.1547 -0.79016,10.3146 2.01378,20.5866 6.74882,29.7035 0.97441,-0.14409 1.94409,-0.22913 2.90787,-0.24803 -21.2882,-39.4004 8.14488,-75.339 50.3657,-56.9764 l 10.1457,39.4748 c 0.94724,-0.76181 1.92638,-1.39961 2.92795,-1.91575 z"
       id="path130059"
       style="stroke-width:2.30027" />
    <ellipse
       class="fil3"
       cx="874.12903"
       cy="321.28601"
       rx="5.6977301"
       ry="5.6799202"
       id="ellipse130061"
       style="stroke-width:2.30027" />
    <ellipse
       class="fil7"
       cx="874.12903"
       cy="321.28601"
       rx="4.8919802"
       ry="4.8766899"
       id="ellipse130063"
       style="stroke-width:2.30027" />
    <ellipse
       class="fil3"
       cx="856.97601"
       cy="318.85599"
       rx="5.6977301"
       ry="5.6799202"
       id="ellipse130065"
       style="stroke-width:2.30027" />
    <ellipse
       class="fil7"
       cx="856.97601"
       cy="318.85599"
       rx="4.8919802"
       ry="4.8766899"
       id="ellipse130067"
       style="stroke-width:2.30027" />
    <ellipse
       class="fil3"
       cx="838.49597"
       cy="322.27701"
       rx="5.6977301"
       ry="5.6799202"
       id="ellipse130069"
       style="stroke-width:2.30027" />
    <ellipse
       class="fil7"
       cx="838.49597"
       cy="322.27701"
       rx="4.8919802"
       ry="4.8766899"
       id="ellipse130071"
       style="stroke-width:2.30027" />
    <ellipse
       class="fil3"
       cx="823.62201"
       cy="333.37799"
       rx="5.6977301"
       ry="5.6799202"
       id="ellipse130073"
       style="stroke-width:2.30027" />
    <ellipse
       class="fil7"
       cx="823.62201"
       cy="333.37799"
       rx="4.8919802"
       ry="4.8766899"
       id="ellipse130075"
       style="stroke-width:2.30027" />
    <ellipse
       class="fil3"
       cx="815.04401"
       cy="349.69601"
       rx="5.6977301"
       ry="5.6799202"
       id="ellipse130077"
       style="stroke-width:2.30027" />
    <ellipse
       class="fil7"
       cx="815.04401"
       cy="349.69601"
       rx="4.8919802"
       ry="4.8766899"
       id="ellipse130079"
       style="stroke-width:2.30027" />
    <ellipse
       class="fil3"
       cx="923.57501"
       cy="321.28601"
       rx="5.6977301"
       ry="5.6799202"
       id="ellipse130081"
       style="stroke-width:2.30027" />
    <ellipse
       class="fil8"
       cx="923.57501"
       cy="321.28601"
       rx="4.8919802"
       ry="4.8766899"
       id="ellipse130083"
       style="stroke-width:2.30027" />
    <ellipse
       class="fil3"
       cx="940.72803"
       cy="318.85599"
       rx="5.6977301"
       ry="5.6799202"
       id="ellipse130085"
       style="stroke-width:2.30027" />
    <ellipse
       class="fil8"
       cx="940.72803"
       cy="318.85599"
       rx="4.8919802"
       ry="4.8766899"
       id="ellipse130087"
       style="stroke-width:2.30027" />
    <ellipse
       class="fil3"
       cx="959.20801"
       cy="322.27701"
       rx="5.6977301"
       ry="5.6799202"
       id="ellipse130089"
       style="stroke-width:2.30027" />
    <ellipse
       class="fil8"
       cx="959.20801"
       cy="322.27701"
       rx="4.8919802"
       ry="4.8766899"
       id="ellipse130091"
       style="stroke-width:2.30027" />
    <ellipse
       class="fil3"
       cx="974.08301"
       cy="333.37799"
       rx="5.6977301"
       ry="5.6799202"
       id="ellipse130093"
       style="stroke-width:2.30027" />
    <ellipse
       class="fil8"
       cx="974.08301"
       cy="333.37799"
       rx="4.8919802"
       ry="4.8766899"
       id="ellipse130095"
       style="stroke-width:2.30027" />
    <ellipse
       class="fil3"
       cx="982.65997"
       cy="349.69601"
       rx="5.6977301"
       ry="5.6799202"
       id="ellipse130097"
       style="stroke-width:2.30027" />
    <ellipse
       class="fil8"
       cx="982.65997"
       cy="349.69601"
       rx="4.8919802"
       ry="4.8766899"
       id="ellipse130099"
       style="stroke-width:2.30027" />
    <path
       class="fil2"
       d="m 888.728,372.27 -10.1457,-39.4713 c -8.35276,-3.57638 -17.6067,-5.5878 -26.6976,-4.34882 -7.45276,1.01457 -14.3043,4.18346 -19.5874,9.57047 -5.82756,5.94331 -8.94331,13.7587 -9.57283,21.9862 -0.77008,10.0512 2.15315,20.074 6.91181,28.8626 0.10394,0.10984 0.20669,0.22205 0.30709,0.33425 3.33543,0.10866 6.56575,1.06417 9.50433,3.18543 2.75433,1.98898 4.83543,4.67244 6.50787,7.59094 0.10157,-6.40039 0.90118,-13.4457 3.36378,-19.1244 1.73504,-4.00157 4.7185,-8.09291 9.34016,-8.8063 4.57677,-0.70394 8.73898,2.21575 11.6634,5.41772 3.84449,4.20945 6.64488,9.89173 8.62913,15.4051 1.60748,-9.75354 5.27126,-16.6193 9.77598,-20.602 z"
       id="path130101"
       style="stroke-width:2.30027" />
    <path
       class="fil2"
       d="m 908.978,372.27 10.1445,-39.4713 c 8.35276,-3.57638 17.6067,-5.5878 26.6976,-4.34882 7.45394,1.01457 14.3055,4.18346 19.5874,9.57047 5.82756,5.94331 8.94331,13.7587 9.57402,21.9862 0.7689,10.0512 -2.15433,20.074 -6.91299,28.8626 -0.10394,0.10984 -0.20551,0.22205 -0.30709,0.33425 -3.33425,0.10866 -6.56457,1.06417 -9.50315,3.18543 -2.75551,1.98898 -4.83661,4.67244 -6.50906,7.59094 -0.10157,-6.40039 -0.90118,-13.4457 -3.36378,-19.1244 -1.73504,-4.00157 -4.7185,-8.09291 -9.34016,-8.8063 -4.57677,-0.70394 -8.73898,2.21575 -11.6634,5.41772 -3.84449,4.20945 -6.64488,9.89173 -8.62913,15.4051 -1.6063,-9.75354 -5.27126,-16.6193 -9.7748,-20.602 z"
       id="path130103"
       style="stroke-width:2.30027" />
    <path
       class="fil5"
       d="m 899.206,313.8 c 8.34213,0.18779 15.0496,6.99094 15.0496,15.352 0,2.0315 -0.39685,3.96969 -1.11496,5.74488 0.17362,-0.45118 0.26929,-0.94016 0.26929,-1.45276 0,-2.23346 -1.81772,-4.04409 -4.05827,-4.04409 -2.24055,0 -4.05709,1.81063 -4.05709,4.04409 0,2.23465 1.81654,4.04528 4.05709,4.04528 1.67008,0 3.10394,-1.0063 3.72638,-2.44252 -2.3185,5.55472 -7.81535,9.46181 -14.2264,9.46181 -6.41102,0 -11.9079,-3.90709 -14.2276,-9.46181 0.62244,1.43622 2.05748,2.44252 3.72638,2.44252 2.24055,0 4.05827,-1.81063 4.05827,-4.04528 0,-2.23346 -1.81772,-4.04409 -4.05827,-4.04409 -2.24055,0 -4.05709,1.81063 -4.05709,4.04409 0,0.5126 0.0957,1.00157 0.26929,1.45276 -0.71929,-1.7752 -1.11614,-3.71339 -1.11614,-5.74488 0,-8.36102 6.70866,-15.1642 15.0508,-15.352 -2.0752,0.17953 -3.70394,1.91575 -3.70394,4.02992 0,2.23346 1.81772,4.04528 4.05827,4.04528 2.24055,0 4.05709,-1.81181 4.05709,-4.04528 0,-2.11417 -1.62874,-3.85039 -3.70276,-4.02992 z m -0.35433,8.08701 c 4.02402,0 7.2874,3.25276 7.2874,7.26496 0,4.01102 -3.26339,7.26496 -7.2874,7.26496 -4.02402,0 -7.2874,-3.25394 -7.2874,-7.26496 0,-4.0122 3.26339,-7.26496 7.2874,-7.26496 z"
       id="path130105"
       style="stroke-width:2.30027" />
    <path
       class="fil5"
       d="m 884.478,336.632 3.25984,12.4264 c -0.0413,-0.23268 -0.0626,-0.47126 -0.0626,-0.71575 0,-2.28425 1.85906,-4.13622 4.15039,-4.13622 2.29016,0 4.14921,1.85197 4.14921,4.13622 0,2.28425 -1.85906,4.13622 -4.14921,4.13622 -1.80945,0 -3.34843,-1.15394 -3.91654,-2.76496 l 5.1685,19.7079 c 3.75945,-1.6937 7.78937,-1.6937 11.5488,0 l 5.16969,-19.715 c -0.56575,1.61457 -2.10591,2.77205 -3.91772,2.77205 -2.29134,0 -4.14921,-1.85197 -4.14921,-4.13622 0,-2.28425 1.85787,-4.13622 4.14921,-4.13622 2.29134,0 4.14921,1.85197 4.14921,4.13622 0,0.24685 -0.0213,0.4878 -0.0626,0.72284 l 3.2622,-12.437 c -2.72126,5.1874 -8.17441,8.68346 -14.3752,8.68346 -6.20079,0 -11.6528,-3.49488 -14.374,-8.67992 z m 14.374,13.8295 c 4.55906,0 8.25591,3.68622 8.25591,8.2311 0,4.5437 -3.69685,8.22992 -8.25591,8.22992 -4.55906,0 -8.25709,-3.68622 -8.25709,-8.22992 0,-4.54488 3.69803,-8.2311 8.25709,-8.2311 z"
       id="path130107"
       style="stroke-width:2.30027" />
    <path
       class="fil0"
       d="m 820.517,396.911 c 3.55276,0.84449 9.48661,2.9315 15.2539,13.976 4.81772,9.22559 8.06693,22.0453 11.8524,30.7181 2.06929,4.74213 6.20551,8.85354 21.098,9.42402 20.0303,0.76772 40.2319,0.76772 60.2622,0 14.8925,-0.57047 19.0287,-4.68189 21.098,-9.42402 3.78543,-8.67283 7.03465,-21.4925 11.8524,-30.7181 5.76732,-11.0445 11.7012,-13.1315 15.2539,-13.976 5.44961,-1.29567 1.35591,-4.88976 -1.92283,-5.85354 -14.8146,-4.35354 -21.1689,5.56417 -24.3283,12.2303 0.73701,-39.1524 -22.3311,-39.7949 -32.5169,-6.8752 -3.94134,-36.6083 -35.1933,-36.6083 -39.1346,0 -10.1858,-32.9197 -33.2539,-32.2772 -32.5169,6.8752 -3.15945,-6.66614 -9.51378,-16.5839 -24.3283,-12.2303 -3.27874,0.96378 -7.37244,4.55787 -1.92283,5.85354 z"
       id="path130109"
       style="stroke-width:2.30027" />
    <path
       class="fil3"
       d="m 898.852,429.43 c 10.702,0 22.7622,1.03701 33.0402,4.15276 4.33937,1.31575 14.0031,4.77283 14.0031,10.4811 0,1.71024 -0.6815,2.13307 -2.06339,2.8748 -4.21535,2.26063 -10.1575,2.83937 -14.8902,3.02008 -20.0492,0.76772 -40.1303,0.76772 -60.1795,0 -4.73268,-0.18071 -10.6748,-0.75945 -14.8902,-3.02008 -1.38189,-0.74173 -2.06339,-1.16457 -2.06339,-2.8748 0,-5.70827 9.66378,-9.16535 14.0043,-10.4811 10.278,-3.11575 22.337,-4.15276 33.039,-4.15276 z"
       id="path130111"
       style="stroke-width:2.30027" />
    <path
       class="fil9"
       d="m 892.329,383.276 c 1.17638,0 2.16732,0.86339 2.34213,2.00669 h 3.82559 v -2.92559 c -4.10433,-0.61654 -1.00748,-7.03701 2.03031,-4.00394 1.38189,1.37953 0.5752,3.71929 -1.31929,4.00394 v 2.92559 h 3.82559 c 0.62953,-4.09606 7.04882,-1.00039 4.01575,2.02441 -1.37598,1.37244 -3.72638,0.58228 -4.01575,-1.31575 h -3.10157 l 8.78268,15.1098 -0.63071,0.3248 -8.87598,-15.2705 v 4.55906 l 6.82087,11.7685 -0.63779,0.32717 -6.18307,-10.6394 v 12.2835 h -0.71103 v -12.2835 l -6.19606,10.6606 -0.63661,-0.32717 6.83268,-11.7921 v -4.55669 l -8.8878,15.2929 -0.61772,-0.34606 8.7815,-15.1098 h -3.10157 c -0.62953,4.09488 -7.04764,1.00394 -4.01575,-2.02323 0.42874,-0.42756 1.02047,-0.69213 1.67362,-0.69213 v -0.001 z m 7.69606,-4.42441 c -2.25945,-2.24291 -4.35118,2.82165 -1.17283,2.82165 1.47874,0 2.21102,-1.78701 1.17283,-2.82165 z m 6.52323,5.61614 c -2.25945,-2.24291 -4.35118,2.82165 -1.17283,2.82165 1.47874,0 2.21102,-1.78701 1.17283,-2.82165 z m -13.0465,0 c -2.25945,-2.24173 -4.35236,2.82165 -1.17283,2.82165 1.48228,0 2.20748,-1.79055 1.17283,-2.82165 z"
       id="path130113"
       style="stroke-width:2.30027" />
    <path
       class="fil9"
       d="m 909.702,407.381 c 1.17165,0.0803 2.10591,1.0122 2.19567,2.16378 l 3.81732,0.26693 0.20551,-2.92087 c -3.95669,-0.87992 -0.67323,-7.03819 2.30433,-3.85157 1.23071,1.31693 0.42047,3.73819 -1.59567,3.90118 l -0.20551,2.91969 3.81614,0.26693 c 0.87874,-3.94016 7.05827,-0.67914 3.86339,2.29724 -1.31811,1.22953 -3.75118,0.41811 -3.91299,-1.59094 l -3.09449,-0.21496 7.70433,15.685 -0.65197,0.27874 -7.78465,-15.8504 -0.3189,4.54724 5.97992,12.215 -0.65787,0.28228 -5.4248,-11.0433 -0.85984,12.2539 -0.70985,-0.0496 0.86103,-12.2539 -6.92717,10.2047 -0.61299,-0.37204 7.64173,-11.2878 0.31889,-4.54488 -9.93543,14.6362 -0.59291,-0.38741 9.8185,-14.4626 -3.09567,-0.21496 c -0.88228,3.94488 -7.05709,0.67087 -3.86339,-2.29843 0.45827,-0.39567 1.06654,-0.61889 1.71732,-0.57283 v -0.002 z m 7.9878,-3.87874 c -2.09291,-2.39528 -4.53898,2.51102 -1.36772,2.73307 1.47283,0.10276 2.32795,-1.62756 1.36772,-2.73307 z m 6.11457,6.05551 c -2.10354,-2.39409 -4.53307,2.51457 -1.36772,2.73425 1.47283,0.10157 2.32795,-1.62874 1.36772,-2.73425 z m -13.0157,-0.90709 c -2.08583,-2.39764 -4.5437,2.50984 -1.36654,2.73307 1.47165,0.10276 2.33031,-1.62874 1.36654,-2.73307 z"
       id="path130115"
       style="stroke-width:2.30027" />
    <path
       class="fil9"
       d="m 888.002,407.381 c -1.17283,0.0803 -2.10236,1.00866 -2.19567,2.16378 l -3.81732,0.26693 -0.20315,-2.92087 c 3.95433,-0.8811 0.67087,-7.03701 -2.30551,-3.85157 -1.23307,1.31811 -0.41929,3.73819 1.59567,3.90118 l 0.20551,2.91969 -3.81732,0.26693 c -0.87874,-3.94016 -7.05709,-0.67914 -3.86339,2.29724 1.31929,1.22953 3.75118,0.41811 3.91299,-1.59094 l 3.09449,-0.21496 -7.70315,15.685 0.65197,0.27874 7.78465,-15.8504 0.3189,4.54724 -5.97992,12.215 0.65787,0.28228 5.4248,-11.0433 0.85985,12.2539 0.70866,-0.0496 -0.85985,-12.2539 6.92717,10.2047 0.613,-0.37204 -7.64173,-11.2878 -0.3189,-4.54488 9.93543,14.6362 0.59291,-0.38741 -9.81732,-14.4626 3.09331,-0.21496 c 0.88347,3.94488 7.05827,0.67087 3.86339,-2.29843 -0.45827,-0.39567 -1.06654,-0.61889 -1.71732,-0.57283 v -0.002 z m -7.9878,-3.87874 c 2.09291,-2.39528 4.54016,2.51102 1.36772,2.73307 -1.47283,0.10276 -2.32795,-1.62756 -1.36772,-2.73307 z m -6.11457,6.05551 c 2.10354,-2.39528 4.53307,2.51457 1.36772,2.73425 -1.47283,0.10157 -2.32795,-1.62874 -1.36772,-2.73425 z m 13.0157,-0.90709 c 2.08583,-2.39764 4.54488,2.50984 1.36654,2.73307 -1.47165,0.10276 -2.33031,-1.62874 -1.36654,-2.73307 z"
       id="path130117"
       style="stroke-width:2.30027" />
    <path
       class="fil9"
       d="m 939.384,411.344 c 1.1126,0.38031 1.76929,1.52008 1.55906,2.65748 l 3.61772,1.24134 0.95669,-2.76732 c -3.29173,-1.71496 0.50315,-6.94606 3.22677,-3.12638 0.80197,1.12441 -0.28464,3.7748 -2.55354,3.35669 l -0.95787,2.7685 3.61772,1.24134 c 1.34291,-2.55236 5.28307,-0.86811 4.33937,1.86378 -0.94606,2.73661 -5.09291,1.63465 -4.57087,-1.19409 l -2.93268,-1.0063 3.36969,17.1366 -0.70276,0.10276 -3.40512,-17.3197 -1.48819,4.30866 2.60551,13.3429 -0.70984,0.10275 -2.37047,-12.0673 -4.0122,11.615 -0.67205,-0.23031 4.0122,-11.6126 -9.34016,8.06693 -0.49606,-0.51496 10.3122,-8.9315 1.48819,-4.30866 -13.3984,11.5748 -0.47126,-0.52796 13.239,-11.4378 -2.93386,-1.0063 c -1.90866,3.65315 -7.00039,-1.30984 -3.13465,-3.21614 0.54449,-0.26456 1.19055,-0.32244 1.80709,-0.11102 l -10e-4,-10e-4 z m 8.72244,-1.68543 c -1.39724,-2.85827 -5.03976,1.26024 -2.03031,2.2878 1.40315,0.47835 2.67165,-0.97559 2.03031,-2.2878 z m 4.33346,7.42677 c -1.39606,-2.85472 -5.03858,1.25551 -2.03031,2.2878 1.39488,0.47953 2.67165,-0.97087 2.03031,-2.2878 z m -12.3354,-4.23425 c -1.40315,-2.85236 -5.03504,1.25433 -2.03031,2.2878 1.39488,0.47953 2.67165,-0.97205 2.03031,-2.2878 z"
       id="path130119"
       style="stroke-width:2.30027" />
    <path
       class="fil9"
       d="m 858.32,411.344 c -1.1126,0.38031 -1.76929,1.52008 -1.55906,2.65748 l -3.61772,1.24134 -0.95669,-2.76732 c 3.29173,-1.71496 -0.50315,-6.94606 -3.22677,-3.12638 -0.80197,1.12441 0.28464,3.7748 2.55354,3.35669 l 0.95787,2.7685 -3.61772,1.24134 c -1.34291,-2.55236 -5.28307,-0.86811 -4.33937,1.86378 0.94606,2.73661 5.09291,1.63465 4.57087,-1.19409 l 2.93268,-1.0063 -3.3685,17.1366 0.70158,0.10276 3.40512,-17.3197 1.48819,4.30866 -2.60551,13.3429 0.70984,0.10275 2.37047,-12.0673 4.0122,11.615 0.67205,-0.23031 -4.0122,-11.6126 9.34134,8.06693 0.49488,-0.51496 -10.3122,-8.9315 -1.48819,-4.30866 13.3984,11.5748 0.47126,-0.52796 -13.239,-11.4378 2.93386,-1.0063 c 1.90748,3.65315 7.00039,-1.30984 3.13465,-3.21614 -0.54449,-0.26456 -1.19055,-0.32244 -1.80709,-0.11102 l 0.001,-10e-4 z m -8.72244,-1.68543 c 1.39724,-2.85827 5.03976,1.26024 2.03031,2.2878 -1.40315,0.47835 -2.67165,-0.97559 -2.03031,-2.2878 z m -4.33346,7.42677 c 1.39606,-2.85472 5.03858,1.25551 2.03031,2.2878 -1.39488,0.47953 -2.67165,-0.97087 -2.03031,-2.2878 z m 12.3354,-4.23425 c 1.40197,-2.85236 5.03622,1.25433 2.03031,2.2878 -1.39488,0.47953 -2.67165,-0.97205 -2.03031,-2.2878 z"
       id="path130121"
       style="stroke-width:2.30027" />
    <path
       class="fil9"
       d="m 930.938,386.223 c 1.14331,0.2622 1.91693,1.32638 1.82953,2.48031 l 3.72756,0.85866 0.66142,-2.85236 c -2.68228,-1.05236 -1.42559,-5.14724 1.40551,-4.49528 2.8311,0.65197 2.16024,4.87913 -0.71339,4.65472 l -0.66142,2.85236 3.72874,0.85866 c 1.05945,-2.6752 5.16378,-1.41732 4.50945,1.40079 -0.65433,2.82047 -4.88858,2.15906 -4.67008,-0.70984 l -3.02126,-0.69567 5.14606,16.6925 -0.68858,0.1748 -5.20039,-16.8709 -1.02874,4.44094 3.98858,12.998 -0.69449,0.17481 -3.6248,-11.7531 -2.77205,11.9705 -0.6933,-0.15945 2.77323,-11.9693 -8.4437,8.99764 -0.54685,-0.463 9.3189,-9.95551 1.02992,-4.43976 -12.111,12.9071 -0.52441,-0.47716 11.9669,-12.7524 -3.02244,-0.69567 c -1.06299,2.67638 -5.16378,1.41496 -4.50945,-1.40197 0.29409,-1.27087 1.56969,-2.0622 2.84055,-1.76929 v -10e-4 z m 8.49803,-2.58425 c -1.69134,-2.69528 -4.87795,1.7752 -1.77874,2.4874 1.43622,0.32953 2.55709,-1.24724 1.77874,-2.4874 z m 5.08819,6.93543 c -1.69134,-2.69528 -4.87677,1.7752 -1.77874,2.48622 1.43504,0.33071 2.55827,-1.24488 1.77874,-2.48622 z m -12.7122,-2.92677 c -1.69016,-2.69409 -4.87795,1.7752 -1.77874,2.4874 1.43622,0.32953 2.55827,-1.24488 1.77874,-2.4874 z"
       id="path130123"
       style="stroke-width:2.30027" />
    <path
       class="fil9"
       d="m 866.766,386.223 c -1.14449,0.26339 -1.92047,1.32756 -1.82953,2.48031 l -3.72756,0.85866 -0.66142,-2.85236 c 2.6811,-1.05236 1.42559,-5.14606 -1.40551,-4.49528 -2.8311,0.65079 -2.16142,4.87913 0.71339,4.65472 l 0.66023,2.85236 -3.72756,0.85866 c -1.4185,-3.57992 -7.02992,0.0354 -3.45591,2.87362 1.19055,0.94488 3.7878,0.0177 3.61535,-2.18268 l 3.02244,-0.69567 -5.14606,16.6925 0.68741,0.17481 5.20157,-16.8709 1.02874,4.44094 -3.98858,12.998 0.69448,0.1748 3.6248,-11.7531 2.77205,11.9705 0.69331,-0.15945 -2.77323,-11.9693 8.4437,8.99764 0.54685,-0.46299 -9.32008,-9.95551 -1.02874,-4.43976 12.1122,12.9071 0.52441,-0.47717 -11.9681,-12.7524 3.02362,-0.69567 c 1.41142,3.57756 7.0311,-0.0307 3.45472,-2.87244 -0.63661,-0.50669 -1.76929,-0.29055 -1.78701,-0.3 z m -8.49803,-2.58425 c 1.69134,-2.69528 4.87795,1.7752 1.77874,2.4874 -1.43622,0.32953 -2.55709,-1.24606 -1.77874,-2.4874 z m -5.08819,6.93543 c 1.69134,-2.69528 4.87677,1.7752 1.77874,2.48622 -1.43622,0.33071 -2.55827,-1.24488 -1.77874,-2.48622 z m 12.7122,-2.92677 c 1.69016,-2.69409 4.87795,1.7752 1.77874,2.4874 -1.43622,0.32953 -2.55827,-1.24488 -1.77874,-2.4874 z"
       id="path130125"
       style="stroke-width:2.30027" />
    <path
       class="fil9"
       d="m 963.516,397.172 c 1.03819,0.54921 1.50709,1.77874 1.12323,2.86772 l 3.37795,1.79055 1.37717,-2.58425 c -2.77677,-2.05984 1.13976,-6.80906 3.67795,-2.58425 0.9437,1.56969 -1.8437,3.33898 -3.05079,2.91614 -1.22717,2.30433 -0.48425,0.9626 -2.41654,3.02598 l 10e-4,-0.002 -15.0508,9.34134 -0.38268,-0.59528 14.8701,-9.23031 -2.73898,-1.45039 c -2.06929,2.76614 -6.82559,-1.13031 -2.59134,-3.66732 0.57993,-0.17598 1.22835,-0.13228 1.80354,0.17362 v -10e-4 z m -0.57402,11.876 -8.66102,5.37638 -0.40866,-0.58701 9.89055,-6.15591 c -0.27401,0.43701 -0.54685,0.89291 -0.82086,1.36772 v -10e-4 z m 9.45354,-12.1807 c -0.93425,-3.03898 -5.17205,0.45591 -2.36457,1.94291 1.30276,0.68976 2.79213,-0.54213 2.36457,-1.94291 z m -8.40472,1.90512 c -0.93425,-3.0378 -5.17205,0.45591 -2.36457,1.94291 1.30394,0.69094 2.78858,-0.53976 2.36457,-1.94291 z"
       id="path130127"
       style="stroke-width:2.30027" />
    <path
       class="fil9"
       d="m 834.188,397.172 c -1.03701,0.54803 -1.50827,1.77756 -1.12323,2.86772 l -3.37795,1.79055 -1.37717,-2.58425 c 2.77677,-2.05866 -1.13858,-6.80906 -3.67795,-2.58425 -0.94488,1.57205 1.85197,3.34016 3.05079,2.91614 1.22598,2.30079 0.48425,0.96496 2.4189,3.02717 l -0.002,-0.005 15.0508,9.34252 0.38267,-0.59528 -14.8713,-9.23031 2.73898,-1.45276 c 1.72087,2.3126 5.35394,0.0378 3.99213,-2.51693 -1.04882,-1.96772 -3.19488,-0.97559 -3.20433,-0.97559 z m 0.57402,11.876 8.66102,5.37638 0.40866,-0.58701 -9.88937,-6.15472 c 0.27283,0.43701 0.54685,0.89291 0.81968,1.36535 z m -9.45354,-12.1807 c 0.93425,-3.03898 5.17323,0.45591 2.36457,1.94291 -1.30276,0.69094 -2.78976,-0.54095 -2.36457,-1.94291 z m 8.40472,1.90512 c 0.93661,-3.03543 5.17205,0.45236 2.36457,1.94291 -1.29567,0.68858 -2.79094,-0.52913 -2.36457,-1.94291 z"
       id="path130129"
       style="stroke-width:2.30027" />
    <path
       class="fil2"
       d="m 898.852,429.965 c 25.6807,0 46.5071,6.31417 46.5071,14.0988 0,1.47047 -0.55394,1.74449 -1.78228,2.40236 -4.12323,2.2122 -10.0654,2.7815 -14.6551,2.95748 -20.0327,0.76772 -40.1055,0.76772 -60.1394,0 -4.58976,-0.17598 -10.5319,-0.74528 -14.6551,-2.95748 -1.22835,-0.65787 -1.7811,-0.93189 -1.7811,-2.40236 0,-7.78465 20.8252,-14.0988 46.5059,-14.0988 z"
       id="path130131"
       style="stroke-width:2.30027" />
    <ellipse
       class="fil3"
       cx="813.26501"
       cy="368.61301"
       rx="5.6977301"
       ry="5.6799202"
       id="ellipse130133"
       style="stroke-width:2.30027" />
    <ellipse
       class="fil7"
       cx="813.26501"
       cy="368.61301"
       rx="4.8919802"
       ry="4.8766899"
       id="ellipse130135"
       style="stroke-width:2.30027" />
    <ellipse
       class="fil3"
       cx="817.94397"
       cy="386.552"
       rx="5.6977301"
       ry="5.6799202"
       id="ellipse130137"
       style="stroke-width:2.30027" />
    <ellipse
       class="fil7"
       cx="817.94397"
       cy="386.552"
       rx="4.8919802"
       ry="4.8766899"
       id="ellipse130139"
       style="stroke-width:2.30027" />
    <ellipse
       class="fil3"
       cx="984.43903"
       cy="368.61301"
       rx="5.6977301"
       ry="5.6799202"
       id="ellipse130141"
       style="stroke-width:2.30027" />
    <ellipse
       class="fil8"
       cx="984.43903"
       cy="368.61301"
       rx="4.8919802"
       ry="4.8766899"
       id="ellipse130143"
       style="stroke-width:2.30027" />
    <ellipse
       class="fil3"
       cx="979.76099"
       cy="386.552"
       rx="5.6977301"
       ry="5.6799202"
       id="ellipse130145"
       style="stroke-width:2.30027" />
    <ellipse
       class="fil8"
       cx="979.76099"
       cy="386.552"
       rx="4.8919802"
       ry="4.8766899"
       id="ellipse130147"
       style="stroke-width:2.30027" />
    <ellipse
       class="fil2"
       cx="898.85199"
       cy="329.15201"
       rx="6.6162901"
       ry="6.5956001"
       id="ellipse130149"
       style="stroke-width:2.30027" />
    <ellipse
       class="fil10"
       cx="898.85199"
       cy="317.82999"
       rx="3.3863001"
       ry="3.37572"
       id="ellipse130151"
       style="stroke-width:2.30027" />
    <ellipse
       class="fil10"
       cx="909.35199"
       cy="333.44501"
       rx="3.3863001"
       ry="3.37572"
       id="ellipse130153"
       style="stroke-width:2.30027" />
    <ellipse
       class="fil10"
       cx="888.35101"
       cy="333.44501"
       rx="3.3863001"
       ry="3.37572"
       id="ellipse130155"
       style="stroke-width:2.30027" />
    <ellipse
       class="fil2"
       cx="898.85199"
       cy="358.69199"
       rx="7.5847998"
       ry="7.56109"
       id="ellipse130157"
       style="stroke-width:2.30027" />
    <ellipse
       class="fil10"
       cx="905.87799"
       cy="348.34201"
       rx="3.4781599"
       ry="3.4672799"
       id="ellipse130159"
       style="stroke-width:2.30027" />
    <ellipse
       class="fil10"
       cx="891.82501"
       cy="348.34201"
       rx="3.4781599"
       ry="3.4672799"
       id="ellipse130161"
       style="stroke-width:2.30027" />
    <path
       class="fil5"
       d="m 917.83,290.515 h -3.07441 l -5.19685,8.02323 h -7.32402 v -10.1622 l 10.0382,-6.46063 v -3.76535 h -26.8417 v 3.76535 l 10.0382,6.46063 v 10.1622 h -7.32402 l -5.19685,-8.02323 h -3.07441 v 22.7906 h 3.07441 l 5.19685,-8.02323 h 7.32402 v 8.06457 c 1.09134,-0.2315 2.22283,-0.35433 3.38268,-0.35433 1.15984,0 2.29134,0.12283 3.38268,0.35433 v -8.06457 h 7.32402 l 5.19685,8.02323 h 3.07441 V 290.515 Z"
       id="path130163"
       style="stroke-width:2.30027" />
  </g>
</svg>
