<?xml version="1.0" encoding="UTF-8" standalone="no"?>
<svg
   xml:space="preserve"
   width="640"
   height="480"
   viewBox="0 0 640 480"
   version="1.1"
   id="svg197477"
   sodipodi:docname="ru-sak-4x3.svg"
   inkscape:version="1.2.2 (b0a84865, 2022-12-01)"
   xmlns:inkscape="http://www.inkscape.org/namespaces/inkscape"
   xmlns:sodipodi="http://sodipodi.sourceforge.net/DTD/sodipodi-0.dtd"
   xmlns="http://www.w3.org/2000/svg"
   xmlns:svg="http://www.w3.org/2000/svg"><defs
   id="defs197481" /><sodipodi:namedview
   id="namedview197479"
   pagecolor="#ffffff"
   bordercolor="#666666"
   borderopacity="1.0"
   inkscape:showpageshadow="2"
   inkscape:pageopacity="0.0"
   inkscape:pagecheckerboard="0"
   inkscape:deskcolor="#d1d1d1"
   showgrid="false"
   inkscape:zoom="1.2479167"
   inkscape:cx="320.13356"
   inkscape:cy="240"
   inkscape:window-width="1440"
   inkscape:window-height="819"
   inkscape:window-x="0"
   inkscape:window-y="25"
   inkscape:window-maximized="0"
   inkscape:current-layer="svg197477" />
<rect
   width="640"
   height="480"
   fill="#47a5ae"
   id="rect197473"
   x="0"
   y="0"
   style="stroke-width:1" />
<path
   fill="#ffffff"
   d="m 314.52672,399.28798 c -0.42725,-0.99694 -1.56656,-1.13934 -1.56656,-0.28488 0,0.56965 0.42723,0.9969 0.85448,0.9969 0.56966,0 0.85446,-0.28482 0.71208,-0.71202 z m -1.85136,-0.99694 c 0.42723,-0.71205 -0.28485,-2.13616 -1.13933,-2.13616 -0.99685,0 -1.42408,0.71206 -0.99685,1.85139 0.42722,0.85443 1.5665,1.13925 2.13618,0.28477 z m 4.12992,-0.28477 c 0.56966,-0.71211 0.56966,-0.99693 0,-1.70901 -1.13928,-0.99686 -2.70581,-0.42723 -2.70581,0.8545 0,0.85451 0.56963,1.56654 1.70896,1.70894 0.14237,0 0.71205,-0.42723 0.99685,-0.85443 z m 1.70894,-3.70275 c 0,-1.2817 -0.85446,-1.99376 -2.13616,-1.70896 -0.71206,0.14243 -1.13928,0.71206 -1.13928,1.28171 0,0.85448 0.2848,1.13931 1.5665,1.13931 0.99691,0 1.70894,-0.28483 1.70894,-0.71206 z m -19.51043,-4.27237 c 0,-3.70272 0,-3.84512 2.56341,-6.69339 2.27859,-2.42096 2.56342,-3.13306 2.56342,-5.12682 0,-1.42411 0.42722,-2.70582 0.85445,-3.13307 0.56968,-0.28483 1.28171,-1.42413 1.70896,-2.42101 0.42723,-1.13926 0.99688,-1.85131 1.42413,-1.85131 0.42723,-0.14245 1.56654,-0.85453 2.56342,-1.70899 1.1393,-0.85445 2.27858,-1.70896 2.70581,-1.70896 0.42725,0 0.71208,-0.1424 0.71208,-0.42722 0,-0.28483 0.85448,-0.71206 1.85133,-0.85448 1.42414,-0.28478 1.99379,-0.71206 2.27862,-1.85136 0.56965,-2.13616 -0.42723,-2.56342 -3.13307,-1.56648 -2.70584,0.99685 -4.55717,1.13928 -5.83888,0.4272 -0.56965,-0.28483 -1.28173,-0.4272 -1.56656,-0.14243 -0.71205,0.42723 -2.42099,3.84515 -2.42099,4.69965 0,0.28478 -0.71208,1.99376 -1.42413,3.84512 -2.13616,4.98443 -2.27859,5.26923 -2.99064,8.11747 -0.42723,1.70896 -1.42413,3.41789 -2.70584,4.6996 -1.13931,1.13931 -2.27859,2.70584 -2.56341,3.56032 -0.14243,0.71205 -0.56966,1.56651 -0.85448,1.99376 -0.71206,0.85445 0,2.27859 1.1393,2.27859 0.56966,0 1.28171,0.42722 1.70894,0.85448 1.2817,1.5665 1.56656,0.85445 1.42413,-2.99067 z m 30.90341,-8.40229 c 0.71208,-0.71206 1.28174,-1.42416 1.28174,-1.85136 0,-0.42726 0.1424,-0.71206 0.42722,-0.71206 0.28483,0 0.71206,-0.7121 0.99688,-1.42416 0.56966,-0.99685 0.56966,-1.2817 -0.1424,-1.5665 -1.42413,-0.56966 -1.70896,-0.42726 -4.2724,1.85136 -1.42408,1.1393 -2.70578,2.13613 -3.13304,2.27856 -0.85448,0.28482 -0.14242,1.85136 1.28171,2.56341 1.28171,0.56965 1.70896,0.42725 3.56029,-1.13925 z m -71.49087,-1.42416 c 0,-0.56963 0.42723,-1.28171 0.85448,-1.70891 0.42723,-0.28485 0.99688,-1.85136 1.42411,-3.27549 0.56965,-2.56344 0.71208,-4.12998 0.56965,-12.95952 0,-2.70582 0.14243,-6.12371 0.56968,-7.69024 0.56963,-2.56342 0.85445,-2.99067 2.99064,-3.98752 l 2.27858,-1.13931 3.41789,1.85136 c 3.84512,1.85136 4.9844,1.99373 9.5416,0.42723 3.13307,-0.99688 3.70275,-0.71206 3.70275,2.13618 0,1.70896 1.56651,5.83888 2.27856,5.83888 0.14243,0 0.71208,0.85448 1.13931,1.85136 0.42725,0.99691 1.13928,2.56342 1.70896,3.70275 0.99688,1.56651 1.2817,1.70891 1.85136,0.85443 0.2848,-0.42723 0.56962,-2.27856 0.42722,-4.69955 -0.14242,-2.13621 0,-4.4148 0.28483,-4.84205 0.42723,-0.71206 0.1424,-1.99376 -0.71205,-4.27235 -0.71208,-1.85136 -1.70896,-4.41477 -2.27862,-5.83891 -1.2817,-3.56032 -3.84512,-5.55408 -6.1237,-4.98445 -2.27862,0.71208 -6.26616,-0.56963 -8.40232,-2.70579 -1.56654,-1.4241 -4.98446,-7.69024 -4.98446,-9.11437 -0.14237,-1.42411 -6.83575,-7.40544 -12.2474,-10.82331 -2.42101,-1.42413 -6.12373,-9.96885 -6.83579,-15.52293 -0.14242,-0.85448 -0.42723,-2.99064 -0.85445,-4.55717 -0.28485,-1.56656 -0.56968,-4.41478 -0.71208,-6.26614 -0.1424,-1.99376 -0.42725,-4.12997 -0.71206,-4.84202 -0.28482,-0.85446 -0.42725,-1.85136 -0.14242,-2.27859 0.28485,-0.42725 0.56966,-2.13619 0.85448,-3.70269 0.1424,-1.70896 0.71208,-3.84518 1.1393,-4.84203 0.99689,-2.27859 0.99689,-4.5572 0.1424,-10.25369 -0.56962,-4.5572 -0.56962,-4.6996 0.56966,-5.8389 0.56965,-0.71206 1.42413,-1.13928 1.70894,-1.13928 0.28484,0 1.42412,-0.71208 2.42101,-1.42414 0.99687,-0.71205 2.13618,-1.4241 2.42101,-1.4241 0.28482,0 0.71205,-0.14243 0.71205,-0.42725 0.14241,-0.14242 1.99377,-0.85448 4.12995,-1.56653 5.98132,-1.70895 10.11124,-1.13931 13.95636,2.42101 0.71208,0.56965 3.2755,2.27858 5.69648,3.56029 2.70584,1.56653 5.98134,3.98755 7.9751,5.98131 1.85136,1.99379 3.56032,3.27549 3.70272,3.13309 0.28482,-0.14242 -0.1424,-1.42413 -0.71208,-2.84826 -0.71203,-1.42412 -1.28171,-2.70583 -1.28171,-3.13308 0,-1.56653 -1.85133,-3.70269 -3.98752,-4.27234 -4.41475,-1.28171 -7.40544,-3.70273 -9.25677,-7.40545 -2.42102,-4.98442 -5.41168,-9.82643 -6.97822,-11.67779 -0.85448,-0.85447 -1.85133,-2.421 -2.27858,-3.27547 -0.42723,-0.85448 -0.99688,-1.70895 -1.13931,-1.85136 -1.2817,-1.28171 -5.9813,-7.54784 -6.83575,-9.3992 -0.71208,-1.13929 -2.27861,-3.41789 -3.56032,-4.84202 -4.12995,-4.842 -4.98442,-5.9813 -5.26923,-7.54784 -0.28483,-0.99688 -0.71205,-1.99376 -0.9969,-2.56342 -0.42723,-0.42723 -1.28171,-2.27859 -1.99376,-4.12994 -0.71208,-1.70895 -1.99379,-4.27236 -2.84825,-5.55407 -2.13618,-3.13307 -3.27546,-5.8389 -3.27546,-7.83267 0,-1.85136 -1.99378,-4.55719 -3.27549,-4.27236 -0.56965,0 -1.56654,-0.42724 -2.27859,-0.99689 l -1.42411,-0.99688 0.99686,-1.56653 c 1.2817,-1.56654 1.2817,-1.28171 -1.42411,-5.98131 -0.99688,-1.70895 -2.56342,-3.27549 -3.41786,-3.27549 -0.28486,0 -0.71208,0.71206 -0.85451,1.42413 -0.28484,2.70583 -1.56654,2.27859 -1.42411,-0.42724 0.1424,-3.27547 -1.28171,-6.26613 -3.84515,-7.97508 -1.42411,-0.99688 -2.27856,-2.27859 -2.84821,-3.70272 -1.1393,-3.41789 -1.56654,-6.40854 -0.99691,-6.55096 0.28486,0 -0.42722,-2.56341 -1.56653,-5.55407 -1.70894,-5.12683 -1.85136,-5.55407 -1.13928,-7.1206 0.71205,-1.2817 0.85445,-1.42412 1.13928,-0.71206 0.14243,0.56965 0.14243,1.28172 -0.1424,1.85136 -0.42725,0.85447 -0.14243,3.41789 0.42722,3.41789 0.71208,0 2.42102,-5.83889 2.13619,-7.26302 -0.56962,-3.13307 -1.85133,-6.40854 -3.41789,-8.97196 -0.99688,-1.56653 -1.99377,-3.41789 -2.13618,-4.27236 -0.42724,-1.70895 -1.42412,-1.56654 -1.42412,0.28482 0,1.70895 -0.85448,0.99689 -4.12995,-3.56031 -3.5603,-5.12683 -4.27237,-6.69337 -2.56342,-7.26301 1.28171,-0.28482 1.85136,0.42724 2.42101,2.99065 0.42723,1.56654 4.41478,4.84202 4.69959,3.84513 0.14241,-0.42724 -0.56964,-1.85137 -1.56653,-3.41789 -0.85447,-1.42412 -1.70894,-3.13307 -1.70894,-3.70271 0,-1.28171 -2.70583,-3.84513 -3.98754,-3.84513 -0.56965,0 -1.28171,-0.71206 -1.56654,-1.70895 -0.42724,-0.85447 -1.28171,-1.85135 -1.85136,-2.13618 -0.71206,-0.28482 -1.2817,-0.99688 -1.2817,-1.56653 0,-0.99688 -2.99066,-5.41166 -4.41478,-6.55096 -0.85447,-0.71206 -1.28171,-6.693367 -0.56965,-7.69025 1.28171,-1.566533 -3.5603,-9.541614 -5.8389,-9.541614 -0.42723,0 -1.13929,-0.712061 -1.42411,-1.424122 -0.85447,-1.708944 -2.2786,-1.566531 -2.56342,0.142413 -0.14241,0.712061 0.28482,1.708944 1.1393,2.563416 0.85447,0.854475 1.13929,1.424123 0.71206,1.424123 -0.42724,0 -0.99689,0.427234 -1.42413,0.854472 -0.42723,0.42724 -0.99688,0.569648 -1.2817,0.42724 -0.28484,-0.28483 -2.2786,-0.42724 -4.27237,-0.42724 l -3.70271,-0.142411 3.13306,2.990653 c 3.56031,3.417891 7.69026,6.266134 8.40232,5.838899 0.85447,-0.427237 1.56653,2.563421 1.42411,5.838901 -0.14241,4.12994 0.85449,5.41165 1.99378,2.70582 1.42412,-3.5603 2.99065,-3.13306 2.27859,0.56965 -0.42723,2.42101 -1.42411,3.13307 -2.99065,2.27859 -0.85447,-0.42723 -1.1393,-0.42723 -1.1393,0.28483 0,1.1393 0.28483,1.70895 0.56965,1.56654 0.14242,-0.14242 0.56965,0.42723 0.85448,1.2817 0.42723,0.71206 0.42723,1.28171 0.1424,1.28171 -0.1424,0 -0.28482,0.85446 -0.1424,1.99378 0.1424,1.99376 0,2.27858 -2.56342,3.84511 -1.42412,0.99689 -2.70584,1.70896 -2.84825,1.42413 -0.14242,-0.28482 -0.42723,-1.56653 -0.56965,-2.99066 -0.28482,-1.42411 -0.71206,-2.70583 -0.85448,-2.70583 -0.85446,0 -3.98753,1.85136 -3.98753,2.2786 0,0.14241 -0.85447,1.42412 -1.85136,2.56342 -2.2786,2.70583 -2.2786,4.12994 0.28483,8.68714 2.70583,4.98442 4.41477,9.96884 4.41477,12.8171 0,2.27858 0.85448,6.55094 2.421,12.10501 0.42725,1.28171 -0.56964,3.13307 -1.42411,2.56342 -0.28483,-0.1424 -0.42724,0.28482 -0.42724,0.99689 0,0.71206 -0.28482,1.56653 -0.56965,1.85136 -0.71206,0.71206 0.99689,4.69959 1.85136,4.41477 1.28171,-0.56964 1.85136,0.71206 2.42101,5.69649 0.99688,6.83577 1.1393,7.69025 1.99376,7.69025 1.56654,0 3.70273,2.70582 3.98755,4.84201 0.14241,1.56654 0.71205,2.70583 2.99065,4.98442 1.56654,1.56654 3.13306,2.70583 3.27547,2.56342 0.71207,-0.42723 2.70584,0.28483 2.70584,1.1393 0,0.28482 0.56964,0.99688 1.13929,1.56654 0.56966,0.56964 1.1393,0.85446 1.1393,0.71206 0,-0.28483 0.42724,-0.14242 0.99689,0.1424 0.56965,0.42724 0.99688,0.99689 0.71206,1.56654 -0.14241,1.13929 3.13306,6.55096 4.98442,7.83267 1.42412,0.99688 1.28171,2.27859 -0.42724,1.99376 -1.42412,-0.42723 -1.56653,-0.28482 -2.421,6.69337 -0.71206,4.41478 -0.42723,5.26925 2.84824,12.24745 1.1393,2.27859 1.99377,4.41477 1.99377,4.842 0,0.42724 0.71206,2.13618 1.70894,3.70272 0.85448,1.70894 1.70896,4.27236 1.99377,6.12372 0.14241,1.85135 0.85447,4.6996 1.56655,6.55096 2.56341,6.69336 3.70269,12.10502 3.84512,17.6591 0.28483,5.83891 0.42722,7.83267 1.28171,13.38673 0.71205,3.98754 0.42722,5.12688 -1.99379,7.69029 l -1.70893,1.85136 1.42414,1.13928 c 0.85444,0.71205 2.13615,1.56651 2.99063,1.85136 0.71208,0.42723 2.13619,1.99376 3.2755,4.12995 0.99687,1.85136 2.70583,4.27237 3.56029,5.12685 1.99376,1.99376 2.99066,3.70269 5.41166,9.39917 0.42722,0.99688 0.71204,4.69963 0.71204,10.25368 0,11.53539 1.42411,15.52294 7.54785,22.21624 2.27858,2.42104 2.27858,2.8483 1.2817,5.55411 -0.42723,0.99688 -0.71205,1.99376 -0.56963,2.13619 0.1424,0.1424 0,0.56962 -0.42722,1.13928 -0.56968,0.42725 -1.13933,2.27861 -1.28171,4.27234 -0.28485,1.85139 -0.56968,3.84515 -0.85451,4.27243 -0.42725,0.99683 0.42726,3.84512 1.70897,5.2692 1.2817,1.56653 2.56341,5.12683 3.84512,9.82643 0.9969,4.12997 1.85136,5.55408 2.84823,4.842 0.28483,-0.14238 0.85449,0.71208 1.28174,1.70898 0.85445,2.13619 1.85133,2.70582 1.85133,0.99686 z m 70.63639,-24.49486 c 2.99067,-2.70584 3.70272,-3.98754 4.41478,-6.40853 0.56965,-1.70899 1.99378,-4.69963 3.13306,-6.69339 1.28171,-1.85136 2.27862,-3.98752 2.27862,-4.41477 0,-1.42411 1.5665,-2.70581 3.41786,-2.70581 2.13619,0 4.5572,-2.56342 7.40544,-7.54784 3.13307,-5.83891 3.98755,-6.83579 6.97819,-8.1175 2.99067,-1.28173 5.83891,-3.98754 5.98133,-5.69648 0,-0.85448 0,-4.41477 -0.14242,-5.12685 0,-0.28483 -0.71206,-0.42723 -1.56654,-0.42723 -2.27858,0 -6.55093,2.99062 -7.54784,5.12686 -0.42722,1.13928 -0.99688,2.13616 -1.2817,2.27853 -0.42723,0.14245 -0.42723,0.56968 -0.2848,0.85451 0.71205,1.1393 -2.56344,4.84197 -5.41168,6.1237 -1.42414,0.56966 -1.85136,0.42728 -3.2755,-0.71205 -2.42098,-1.70893 -3.41789,-0.99688 -3.41789,2.70584 0,2.13619 -0.2848,3.13307 -1.28171,4.12997 -0.71202,0.71206 -1.2817,1.70891 -1.2817,2.27854 0,0.8545 -0.2848,1.1393 -2.84824,1.70898 -0.99688,0.14238 -1.42411,0.56966 -1.13928,1.13931 0.42722,1.13928 -0.28483,3.27544 -1.70896,4.98443 -0.71206,0.85445 -1.56654,2.42096 -1.70894,3.27546 -0.28485,0.85446 -0.99688,1.99376 -1.56656,2.56342 -0.99685,0.71205 -0.99685,0.99685 -0.42722,2.27856 0.85448,1.99381 0.85448,2.27861 -0.71206,2.99066 -0.99688,0.42726 -1.2817,0.85448 -0.99688,1.56656 0.1424,0.85446 -0.1424,1.28171 -0.99688,1.42408 -0.71208,0.14243 -1.1393,0.71208 -1.1393,1.70902 0,1.42408 0.99688,4.12989 1.42413,4.12989 0.14243,0 1.85136,-1.42411 3.70269,-3.41787 z m 46.8536,-53.68936 c 1.85134,-1.2817 3.7027,-3.84512 3.7027,-5.12682 0,-0.56966 1.42413,-2.42104 3.27549,-4.27238 2.13619,-2.13616 3.27547,-3.84514 3.27547,-4.6996 0,-2.13618 1.2817,-4.84202 2.84826,-6.69336 0.85448,-0.85445 1.70894,-2.27858 1.85136,-3.27549 0.28483,-0.85445 0.71206,-1.85136 0.99686,-2.27859 1.2817,-1.56653 -0.85446,-1.99376 -4.27235,-0.71205 -1.56651,0.56965 -1.99376,1.13928 -2.13619,3.56029 -0.1424,1.13931 -0.2848,2.13619 -0.42722,2.13619 -2.13619,1.56653 -3.5603,2.84824 -4.6996,4.5572 -1.13931,1.70893 -1.28171,2.56341 -1.13931,4.55717 l 0.28485,2.56342 -2.56344,1.1393 c -2.56341,1.13928 -2.70581,1.13928 -2.99066,4.12995 -0.14238,1.56653 -0.42723,3.56029 -0.71206,4.12995 -0.42722,1.56653 0.56968,1.70896 2.70584,0.28482 z m 20.79216,-37.73921 c 0,-1.1393 -0.71205,-1.42413 -1.70893,-0.85447 -0.56965,0.28482 -0.56965,0.56965 0,1.28171 0.71205,0.99687 1.70893,0.71204 1.70893,-0.42724 z m 0.99688,-2.70583 c 0.85448,-0.85448 -0.2848,-1.99376 -1.5665,-1.70894 -1.28171,0.42723 -1.42414,0.85446 -0.42726,1.70894 0.85448,0.85448 1.13931,0.85448 1.99376,0 z m -5.8389,-5.98131 c -0.2848,-1.1393 -2.56342,-1.42413 -3.13304,-0.42723 -0.71208,0.99687 0.71205,1.99377 2.13618,1.70894 0.99686,-0.1424 1.13928,-0.42724 0.99686,-1.28171 z m 23.21317,-10.82333 c 0.42728,-0.42723 1.13934,-1.85135 1.70899,-3.27547 0.56963,-1.42412 1.13928,-2.84824 1.42408,-3.13307 0.28485,-0.28482 0.42725,-1.13929 0.42725,-1.99377 0,-0.71206 0.71208,-2.56342 1.42414,-3.98753 1.56653,-2.84825 1.1393,-3.56031 -1.28171,-2.42101 -0.99691,0.42723 -1.56653,1.2817 -1.85139,2.56341 -0.42722,2.2786 -1.70893,5.8389 -2.27858,6.40855 -0.1424,0.28483 -0.42723,0.99689 -0.42723,1.56653 0,1.28172 -1.13931,2.70584 -2.84824,3.27549 -0.85448,0.28482 -0.99688,0.56964 -0.42723,1.13929 0.71206,0.85448 2.84822,0.85448 4.12992,-0.14242 z m 8.40232,-22.07387 c 0.42726,-0.28482 0.42726,-0.71206 -0.42722,-1.70894 -0.99688,-1.28172 -0.99688,-1.28172 -1.99376,-0.42724 -0.71208,0.71205 -0.71208,1.1393 -0.14243,1.85136 0.71208,0.85446 1.56656,0.99688 2.56341,0.28482 z m 3.84515,-8.97197 c 0.28483,-0.56964 -1.28171,-2.56341 -1.85136,-1.99377 -0.42723,0.42724 0.28483,2.70584 0.99691,2.70584 0.14237,0 0.56962,-0.28482 0.85445,-0.71207 z m -1.13931,-0.28482 c -0.1424,-0.14241 -0.28482,-0.56964 -0.28482,-0.85447 0,-0.42724 0.14242,-0.42724 0.56968,0 0.42722,0.42724 0.56962,0.85447 0.42722,0.99688 -0.14242,0.14241 -0.42722,0.14241 -0.71208,-0.14241 z m 2.99064,-7.54784 c 0,-1.99377 -0.71205,-3.41789 -1.5665,-2.84824 -0.71206,0.42723 -0.85448,4.842 -0.28483,5.41167 0.71205,0.71205 1.85133,-0.85448 1.85133,-2.56343 z m 0.71208,-12.10502 c 0.1424,-0.42725 -0.14242,-1.1393 -0.71208,-1.70896 -1.85133,-1.70894 -3.41786,-0.56964 -1.5665,1.28171 1.2817,1.42412 1.85136,1.56654 2.27858,0.42725 z m -3.27549,-8.11749 c -0.42723,-0.28483 -1.13928,-0.42724 -1.85136,-0.14242 l -1.28171,0.42723 1.28171,0.71206 c 1.56656,0.71207 2.84827,0.14242 1.85136,-0.99687 z m 21.78909,-2.56343 c 0,-0.71206 -1.56656,-1.56653 -2.56346,-1.56653 -0.42723,0.14242 -0.71203,0.28483 -0.71203,0.56965 0,0.14241 0,0.85447 0,1.42412 0,0.56965 0.42723,1.13929 0.99688,1.28171 0.99685,0.14241 2.27861,-0.85447 2.27861,-1.70895 z m -11.25058,-9.54161 c 0.14242,-0.14241 -0.56966,-0.42724 -1.70894,-0.42724 -1.56653,0 -1.85138,0.28483 -1.2817,0.71207 0.56965,0.71206 2.42098,0.56964 2.99064,-0.28483 z m 0,-8.2599 c 0.28485,-0.99689 0.85448,-2.421 1.2817,-2.99066 1.56656,-2.84824 0.14243,-4.55718 -2.27861,-2.70582 -0.71203,0.56965 -0.99685,1.42412 -0.99685,4.41478 0,3.98753 0.99685,4.69959 1.99376,1.2817 z m -3.84512,-4.27236 c 0.2848,-1.28171 0,-2.2786 -0.85448,-2.2786 -0.71206,0 -2.70584,2.2786 -2.42102,2.84825 0.56966,0.99688 2.84827,0.42723 3.2755,-0.56965 z m 19.22562,-3.4179 c 0.71208,-1.13928 -1.13928,-2.27858 -2.99064,-1.85135 -1.56653,0.28482 -2.13618,1.28171 -1.2817,2.13618 0.56965,0.56966 3.98754,0.42724 4.27234,-0.28483 z m -9.82642,-6.69336 c 0.85448,-0.99689 0.28482,-1.85136 -1.56654,-2.27859 -1.13928,-0.28482 -1.42413,-0.14242 -1.85136,0.85447 -0.56962,1.85136 1.85136,2.84824 3.4179,1.42412 z m -9.68403,-2.84825 c 0,-1.13929 -2.27859,-1.99377 -3.41789,-1.2817 -1.56654,0.71206 -0.56963,2.13618 1.56653,2.13618 1.28171,0 1.85136,-0.28482 1.85136,-0.85448 z m 11.39299,-5.41164 c 0.85445,-1.42413 0.85445,-1.70896 0,-4.27238 -0.71208,-1.85136 -0.99691,-3.41789 -0.71208,-4.69959 0.42722,-2.2786 -0.1424,-2.99067 -2.56342,-2.99067 -1.70896,0 -1.70896,0.14242 -0.9969,1.70895 0.42725,0.56966 0.42725,1.28172 0.28485,1.70895 -0.71208,1.1393 -0.85448,8.11748 -0.28485,9.25678 0.85448,1.56654 3.13306,1.28172 4.2724,-0.71204 z m -13.67158,-10.53851 c 0,-0.42724 -0.42722,-1.28171 -0.85448,-1.99377 -0.85445,-0.99689 -1.1393,-1.1393 -1.70893,-0.42724 -0.56965,0.56965 -0.42723,0.99688 0.1424,1.99377 0.99688,1.28172 2.42101,1.56654 2.42101,0.42724 z m 16.09256,-16.23498 c 2.13619,0.14242 3.2755,-0.28484 3.13307,-1.28171 -0.14243,-0.85447 1.13928,-3.27548 3.41789,-6.69337 1.99379,-2.84824 2.13616,-4.27236 1.13931,-8.687137 -0.71208,-2.990653 -0.71208,-3.27548 0.1424,-3.987538 0.99688,-0.569648 0.99688,-0.854478 -0.56963,-3.987539 -0.9969,-1.85136 -2.42104,-3.702718 -3.13306,-4.272366 -1.42414,-0.854472 -1.42414,-0.854472 -1.70896,0 -0.28483,0.569648 -0.71208,1.993771 -1.13931,3.133067 -0.56963,1.566536 -0.56963,2.563416 -0.1424,3.560304 0.99688,2.563419 0.85448,7.405429 -0.14243,8.544729 -0.56965,0.56964 -1.2817,0.85447 -1.56653,0.71206 -0.28483,-0.14242 -1.70896,1.13929 -3.13304,2.99065 -1.42413,1.85136 -2.84827,3.27548 -3.13307,3.27548 -0.71208,0 0.2848,1.56653 1.28171,1.85136 0.56963,0.14241 1.13928,0.99688 1.42411,2.13618 0.56962,2.70583 1.2817,3.98753 1.85133,3.27548 0.28485,-0.42723 1.28171,-0.71206 2.27861,-0.56965 z m -9.39917,-3.41789 c 0,-1.28171 -0.14243,-1.28171 -1.99379,-0.42724 -0.9969,0.56965 -1.1393,0.85448 -0.71205,1.1393 1.42408,0.85447 2.70584,0.42723 2.70584,-0.71206 z m 3.70269,-22.358703 c 0.2848,-1.708947 -1.42413,-2.990656 -3.13306,-2.705832 -2.13619,0.569648 -2.99067,1.708944 -2.27862,2.990653 0.71208,1.424126 5.12686,1.281715 5.41168,-0.284821 z m 17.23187,-1.566536 c 1.28171,-1.566531 1.42413,-2.278592 1.13928,-4.557187 -0.2848,-2.848242 -0.85445,-3.987538 -2.13616,-3.987538 -0.99691,0.142413 -3.56032,1.708946 -2.56341,1.708946 0.2848,0 -0.14243,0.427235 -0.85448,0.854472 -0.99691,0.854472 -1.13928,1.281707 -0.99691,3.133067 0.28485,1.708947 0.85448,2.705832 1.85139,3.560304 0.85445,0.712061 1.70893,1.281707 1.85136,1.281707 0.14237,0 0.99685,-0.996883 1.70893,-1.993771 z"
   id="path197475"
   style="stroke-width:1" />
</svg>
