<svg id="flag-icons-ru-sak" class="fi fi-ru-sak" viewBox="0 0 640 480" xmlns="http://www.w3.org/2000/svg" xml:space="preserve" width="640" height="480">
  <metadata id="flag-icons">
    <name>Sakhalin Oblast</name>
    <code>ru-sak</code>
    <iso>true</iso>
    <type>Place</type>
    <capital>Yuzhno-Sakhalinsk</capital>
    <continent>Asia</continent>
  </metadata>
  <path fill="#47a5ae" d="M0 0h640v480H0z" style="stroke-width:1"/>
  <path fill="#fff" d="M314.527 399.288c-.428-.997-1.567-1.14-1.567-.285 0 .57.427.997.855.997.57 0 .854-.285.712-.712m-1.852-.997c.428-.712-.284-2.136-1.139-2.136-.997 0-1.424.712-.997 1.851.427.855 1.567 1.14 2.136.285m4.13-.285c.57-.712.57-.997 0-1.709-1.139-.997-2.706-.427-2.706.855 0 .854.57 1.566 1.71 1.709.142 0 .711-.428.996-.855m1.71-3.702c0-1.282-.855-1.994-2.137-1.71-.712.143-1.14.713-1.14 1.282 0 .855.286 1.14 1.567 1.14.997 0 1.71-.285 1.71-.712m-19.511-4.273c0-3.703 0-3.845 2.563-6.693 2.279-2.421 2.564-3.133 2.564-5.127 0-1.424.427-2.706.854-3.133.57-.285 1.282-1.424 1.709-2.421.427-1.14.997-1.851 1.424-1.851.427-.143 1.567-.855 2.564-1.71 1.139-.854 2.278-1.708 2.705-1.708s.712-.143.712-.428c0-.284.855-.712 1.852-.854 1.424-.285 1.994-.712 2.278-1.851.57-2.137-.427-2.564-3.133-1.567s-4.557 1.14-5.839.427c-.57-.285-1.281-.427-1.566-.142-.712.427-2.421 3.845-2.421 4.7 0 .284-.712 1.993-1.424 3.845-2.136 4.984-2.279 5.269-2.99 8.117-.428 1.709-1.425 3.418-2.707 4.7-1.139 1.139-2.278 2.706-2.563 3.56-.143.712-.57 1.567-.855 1.994-.712.854 0 2.278 1.14 2.278.57 0 1.281.428 1.709.855 1.281 1.566 1.566.854 1.424-2.99m30.903-8.402c.712-.712 1.282-1.424 1.282-1.851s.142-.713.427-.713.712-.712.997-1.424c.57-.997.57-1.281-.142-1.566-1.424-.57-1.71-.427-4.273 1.851-1.424 1.14-2.706 2.136-3.133 2.279-.854.285-.142 1.851 1.282 2.563 1.282.57 1.709.427 3.56-1.14m-71.49-1.424c0-.57.427-1.282.854-1.71.427-.284.997-1.85 1.424-3.275.57-2.563.712-4.13.57-12.96 0-2.705.142-6.123.57-7.69.569-2.563.854-2.99 2.99-3.987l2.278-1.14 3.418 1.852c3.845 1.851 4.985 1.994 9.542.427 3.133-.997 3.703-.712 3.703 2.136 0 1.71 1.566 5.84 2.278 5.84.143 0 .712.854 1.14 1.85a78 78 0 0 0 1.709 3.703c.996 1.567 1.281 1.71 1.85.855.286-.427.57-2.279.428-4.7-.142-2.136 0-4.414.285-4.842.427-.712.142-1.993-.712-4.272a577 577 0 0 0-2.279-5.839c-1.281-3.56-3.845-5.554-6.123-4.984-2.279.712-6.267-.57-8.403-2.706-1.566-1.424-4.984-7.69-4.984-9.115-.143-1.424-6.836-7.405-12.248-10.823-2.42-1.424-6.123-9.969-6.835-15.523-.143-.854-.428-2.99-.855-4.557-.285-1.567-.57-4.415-.712-6.266-.142-1.994-.427-4.13-.712-4.842-.285-.855-.427-1.851-.142-2.279.284-.427.57-2.136.854-3.702.142-1.71.712-3.846 1.14-4.842.996-2.279.996-4.558.142-10.254-.57-4.557-.57-4.7.57-5.839.57-.712 1.424-1.14 1.708-1.14s1.425-.711 2.421-1.423c.997-.713 2.137-1.425 2.421-1.425.285 0 .712-.142.712-.427.143-.142 1.994-.854 4.13-1.566 5.982-1.71 10.112-1.14 13.957 2.42.712.57 3.275 2.28 5.696 3.561 2.706 1.566 5.982 3.988 7.975 5.981 1.852 1.994 3.56 3.276 3.703 3.133.285-.142-.142-1.424-.712-2.848-.712-1.424-1.282-2.706-1.282-3.133 0-1.567-1.851-3.703-3.987-4.272-4.415-1.282-7.406-3.703-9.257-7.406-2.421-4.984-5.412-9.826-6.978-11.678-.855-.854-1.852-2.42-2.279-3.275s-.997-1.709-1.14-1.851c-1.28-1.282-5.98-7.548-6.835-9.4-.712-1.139-2.278-3.417-3.56-4.842-4.13-4.842-4.985-5.98-5.27-7.547a16 16 0 0 0-.996-2.564c-.428-.427-1.282-2.278-1.994-4.13-.712-1.709-1.994-4.272-2.848-5.554-2.137-3.133-3.276-5.839-3.276-7.833 0-1.85-1.994-4.557-3.275-4.272-.57 0-1.567-.427-2.279-.997l-1.424-.997.997-1.566c1.282-1.567 1.282-1.282-1.424-5.982-.997-1.708-2.564-3.275-3.418-3.275-.285 0-.712.712-.855 1.424-.284 2.706-1.566 2.279-1.424-.427.143-3.276-1.281-6.266-3.845-7.975-1.424-.997-2.278-2.279-2.848-3.703-1.14-3.418-1.567-6.408-.997-6.55.285 0-.427-2.564-1.567-5.555-1.708-5.127-1.85-5.554-1.139-7.12.712-1.282.855-1.425 1.14-.713.142.57.142 1.282-.143 1.852-.427.854-.142 3.418.427 3.418.712 0 2.421-5.84 2.136-7.263-.57-3.133-1.85-6.409-3.417-8.972-.997-1.567-1.994-3.418-2.137-4.273-.427-1.709-1.424-1.566-1.424.285 0 1.71-.854.997-4.13-3.56-3.56-5.127-4.272-6.694-2.563-7.263 1.282-.285 1.851.427 2.42 2.99.428 1.567 4.416 4.842 4.7 3.846.143-.428-.57-1.852-1.566-3.418-.854-1.424-1.709-3.133-1.709-3.703 0-1.282-2.706-3.845-3.987-3.845-.57 0-1.282-.712-1.567-1.71-.427-.854-1.282-1.85-1.851-2.135-.712-.285-1.282-.997-1.282-1.567 0-.997-2.99-5.411-4.415-6.55-.854-.713-1.282-6.694-.57-7.691 1.282-1.567-3.56-9.542-5.838-9.542-.428 0-1.14-.712-1.425-1.424-.854-1.709-2.278-1.566-2.563.143-.142.712.285 1.709 1.14 2.563.854.855 1.139 1.424.711 1.424-.427 0-.996.427-1.424.855-.427.427-.997.57-1.281.427-.285-.285-2.279-.427-4.273-.427l-3.702-.143 3.133 2.99c3.56 3.419 7.69 6.267 8.402 5.84.854-.427 1.566 2.563 1.424 5.839-.142 4.13.854 5.411 1.994 2.706 1.424-3.56 2.99-3.134 2.278.57-.427 2.42-1.424 3.132-2.99 2.278-.855-.427-1.14-.427-1.14.285 0 1.139.285 1.709.57 1.566.142-.142.57.427.855 1.282.427.712.427 1.282.142 1.282-.142 0-.285.854-.142 1.993.142 1.994 0 2.279-2.564 3.845-1.424.997-2.706 1.71-2.848 1.425-.143-.285-.427-1.567-.57-2.991-.285-1.424-.712-2.706-.854-2.706-.855 0-3.988 1.851-3.988 2.279 0 .142-.854 1.424-1.851 2.563-2.279 2.706-2.279 4.13.285 8.687 2.706 4.985 4.414 9.97 4.414 12.817 0 2.279.855 6.551 2.421 12.105.428 1.282-.57 3.133-1.424 2.564-.284-.143-.427.285-.427.997s-.285 1.566-.57 1.851c-.712.712.997 4.7 1.852 4.415 1.282-.57 1.851.712 2.42 5.696.998 6.836 1.14 7.69 1.995 7.69 1.566 0 3.702 2.706 3.987 4.843.143 1.566.712 2.705 2.99 4.984 1.567 1.566 3.134 2.706 3.276 2.563.712-.427 2.706.285 2.706 1.14 0 .284.57.997 1.14 1.566.569.57 1.139.855 1.139.712 0-.285.427-.142.997.143.57.427.996.997.712 1.566-.143 1.14 3.133 6.551 4.984 7.833 1.424.997 1.282 2.278-.427 1.994-1.424-.428-1.567-.285-2.421 6.693-.712 4.415-.427 5.27 2.848 12.247 1.14 2.28 1.994 4.415 1.994 4.842 0 .428.712 2.137 1.709 3.703.854 1.71 1.709 4.273 1.994 6.124.142 1.851.854 4.7 1.566 6.55 2.563 6.694 3.703 12.106 3.845 17.66.285 5.839.427 7.833 1.282 13.387.712 3.987.427 5.127-1.994 7.69l-1.709 1.851 1.424 1.14c.855.712 2.136 1.566 2.991 1.851.712.427 2.136 1.994 3.275 4.13.997 1.851 2.706 4.272 3.56 5.127 1.995 1.994 2.991 3.702 5.412 9.399.428.997.712 4.7.712 10.254 0 11.535 1.425 15.523 7.548 22.216 2.279 2.42 2.279 2.848 1.282 5.554-.427.997-.712 1.994-.57 2.136s0 .57-.427 1.14c-.57.427-1.14 2.278-1.282 4.272-.284 1.851-.57 3.845-.854 4.272-.427.997.427 3.845 1.709 5.27 1.282 1.566 2.563 5.126 3.845 9.826.997 4.13 1.851 5.554 2.848 4.842.285-.143.855.712 1.282 1.709.854 2.136 1.851 2.706 1.851.997m70.636-24.495c2.99-2.706 3.702-3.988 4.415-6.409.57-1.709 1.993-4.7 3.133-6.693 1.281-1.851 2.278-3.988 2.278-4.415 0-1.424 1.567-2.706 3.418-2.706 2.136 0 4.557-2.563 7.405-7.547 3.134-5.84 3.988-6.836 6.979-8.118s5.839-3.988 5.981-5.696c0-.855 0-4.415-.142-5.127 0-.285-.712-.428-1.567-.428-2.279 0-6.55 2.991-7.548 5.127-.427 1.14-.997 2.136-1.281 2.279-.428.142-.428.57-.285.854.712 1.14-2.564 4.842-5.412 6.124-1.424.57-1.851.427-3.275-.712-2.421-1.709-3.418-.997-3.418 2.706 0 2.136-.285 3.133-1.282 4.13-.712.712-1.282 1.709-1.282 2.278 0 .855-.285 1.14-2.848 1.71-.997.142-1.424.569-1.14 1.139.428 1.139-.284 3.275-1.708 4.984-.712.855-1.567 2.421-1.71 3.276-.284.854-.996 1.993-1.566 2.563-.997.712-.997.997-.427 2.279.855 1.993.855 2.278-.712 2.99-.997.427-1.282.855-.997 1.567.142.854-.142 1.281-.997 1.424-.712.142-1.14.712-1.14 1.709 0 1.424.998 4.13 1.425 4.13.142 0 1.851-1.424 3.703-3.418m46.853-53.69c1.852-1.281 3.703-3.845 3.703-5.126 0-.57 1.424-2.421 3.276-4.273 2.136-2.136 3.275-3.845 3.275-4.7 0-2.135 1.282-4.841 2.848-6.693.855-.854 1.71-2.278 1.852-3.275.284-.855.712-1.852.996-2.279 1.282-1.566-.854-1.994-4.272-.712-1.566.57-1.994 1.14-2.136 3.56-.142 1.14-.285 2.137-.427 2.137-2.136 1.566-3.56 2.848-4.7 4.557s-1.282 2.563-1.14 4.557l.286 2.563-2.564 1.14c-2.563 1.139-2.706 1.139-2.99 4.13-.143 1.566-.428 3.56-.713 4.13-.427 1.566.57 1.709 2.706.284m20.792-37.739c0-1.139-.712-1.424-1.708-.854-.57.285-.57.57 0 1.282.712.996 1.708.712 1.708-.428m.997-2.706c.855-.854-.284-1.993-1.566-1.708-1.282.427-1.424.854-.427 1.708.854.855 1.139.855 1.993 0m-5.839-5.98c-.284-1.14-2.563-1.425-3.133-.428-.712.997.712 1.994 2.137 1.709.996-.143 1.139-.427.996-1.282m23.214-10.824c.427-.427 1.139-1.852 1.709-3.276s1.139-2.848 1.424-3.133.427-1.139.427-1.994c0-.712.712-2.563 1.424-3.987 1.567-2.848 1.14-3.56-1.282-2.421-.997.427-1.566 1.282-1.851 2.563-.427 2.279-1.709 5.84-2.279 6.409-.142.285-.427.997-.427 1.566 0 1.282-1.14 2.706-2.848 3.276-.855.285-.997.57-.427 1.14.712.854 2.848.854 4.13-.143m8.402-22.074c.427-.285.427-.712-.427-1.709-.997-1.282-.997-1.282-1.994-.427-.712.712-.712 1.139-.142 1.851.712.855 1.566.997 2.563.285m3.845-8.972c.285-.57-1.282-2.563-1.851-1.994-.427.427.285 2.706.997 2.706.142 0 .57-.285.854-.712m-1.14-.285c-.142-.142-.284-.57-.284-.854 0-.428.142-.428.57 0 .427.427.57.854.427.997-.143.142-.427.142-.712-.143m2.991-7.548c0-1.993-.712-3.418-1.566-2.848-.712.427-.855 4.842-.285 5.412.712.712 1.851-.855 1.851-2.564m.713-12.105c.142-.427-.143-1.139-.713-1.709-1.85-1.709-3.417-.57-1.566 1.282 1.282 1.424 1.851 1.567 2.279.427m-3.276-8.117c-.427-.285-1.14-.427-1.851-.143l-1.282.428 1.282.712c1.566.712 2.848.142 1.851-.997m21.79-2.564c0-.712-1.567-1.566-2.564-1.566-.428.142-.712.285-.712.57v1.424c0 .57.427 1.139.996 1.281.997.143 2.28-.854 2.28-1.709m-11.251-9.541c.142-.143-.57-.427-1.71-.427-1.566 0-1.85.284-1.281.712.57.712 2.42.57 2.99-.285m0-8.26c.284-.997.854-2.421 1.281-2.99 1.567-2.849.143-4.558-2.278-2.707-.712.57-.997 1.424-.997 4.415 0 3.988.997 4.7 1.994 1.282m-3.846-4.273c.285-1.281 0-2.278-.854-2.278-.712 0-2.706 2.278-2.421 2.848.57.997 2.848.427 3.275-.57m19.226-3.417c.712-1.14-1.14-2.279-2.99-1.852-1.567.285-2.137 1.282-1.282 2.136.57.57 3.987.428 4.272-.284m-9.826-6.694c.854-.997.284-1.851-1.567-2.278-1.14-.285-1.424-.143-1.851.854-.57 1.851 1.851 2.848 3.418 1.424m-9.684-2.848c0-1.14-2.279-1.994-3.418-1.282-1.567.712-.57 2.136 1.566 2.136 1.282 0 1.852-.284 1.852-.854m11.393-5.412c.854-1.424.854-1.709 0-4.272-.713-1.851-.997-3.418-.713-4.7.428-2.278-.142-2.99-2.563-2.99-1.709 0-1.709.142-.997 1.709.427.57.427 1.281.285 1.709-.712 1.139-.854 8.117-.285 9.256.855 1.567 3.133 1.282 4.273-.712m-13.672-10.538c0-.427-.427-1.282-.854-1.994-.855-.997-1.14-1.14-1.71-.427-.57.57-.427.997.143 1.994.997 1.281 2.421 1.566 2.421.427m16.093-16.235c2.136.142 3.275-.285 3.133-1.282-.143-.854 1.139-3.275 3.418-6.693 1.993-2.848 2.136-4.273 1.139-8.687-.712-2.991-.712-3.276.142-3.988.997-.57.997-.854-.57-3.987-.996-1.852-2.42-3.703-3.132-4.273-1.425-.854-1.425-.854-1.71 0-.284.57-.712 1.994-1.139 3.133-.57 1.567-.57 2.564-.142 3.56.997 2.564.854 7.406-.143 8.545-.57.57-1.281.855-1.566.712-.285-.142-1.71 1.14-3.133 2.991s-2.848 3.275-3.133 3.275c-.712 0 .285 1.567 1.281 1.852.57.142 1.14.997 1.425 2.136.57 2.706 1.281 3.988 1.85 3.275.286-.427 1.283-.712 2.28-.57m-9.4-3.418c0-1.282-.142-1.282-1.993-.427-.997.57-1.14.854-.712 1.139 1.424.854 2.705.427 2.705-.712m3.703-22.359c.285-1.709-1.424-2.99-3.133-2.706-2.136.57-2.99 1.71-2.279 2.991.712 1.424 5.127 1.282 5.412-.285m17.232-1.566c1.282-1.567 1.424-2.279 1.14-4.557-.286-2.849-.855-3.988-2.137-3.988-.997.142-3.56 1.709-2.563 1.709.284 0-.143.427-.855.854-.997.855-1.14 1.282-.997 3.133.285 1.71.855 2.706 1.852 3.56.854.713 1.709 1.282 1.851 1.282s.997-.996 1.709-1.993" style="stroke-width:1"/>
</svg>
