<?xml version="1.0" encoding="UTF-8" standalone="no"?>
<svg
   width="640"
   height="480"
   viewBox="0 0 480 360"
   version="1.1"
   id="svg16324"
   sodipodi:docname="ru-tdn.svg"
   inkscape:version="1.2.2 (b0a84865, 2022-12-01)"
   xmlns:inkscape="http://www.inkscape.org/namespaces/inkscape"
   xmlns:sodipodi="http://sodipodi.sourceforge.net/DTD/sodipodi-0.dtd"
   xmlns="http://www.w3.org/2000/svg"
   xmlns:svg="http://www.w3.org/2000/svg">
  <defs
     id="defs16328" />
  <sodipodi:namedview
     id="namedview16326"
     pagecolor="#ffffff"
     bordercolor="#666666"
     borderopacity="1.0"
     inkscape:showpageshadow="2"
     inkscape:pageopacity="0.0"
     inkscape:pagecheckerboard="0"
     inkscape:deskcolor="#d1d1d1"
     showgrid="false"
     inkscape:zoom="1.2479167"
     inkscape:cx="320.13356"
     inkscape:cy="240"
     inkscape:window-width="1440"
     inkscape:window-height="819"
     inkscape:window-x="0"
     inkscape:window-y="25"
     inkscape:window-maximized="0"
     inkscape:current-layer="svg16324" />
  <rect
     fill="#0081c4"
     width="480"
     height="360"
     id="rect16189"
     x="0"
     y="0"
     style="stroke-width:1" />
  <g
     id="g16514"
     transform="matrix(0.6,0,0,0.6,-30,0)"
     style="stroke-width:1.66667">
    <circle
       fill="#ffffff"
       cx="450"
       cy="300"
       r="150"
       id="circle16191"
       style="stroke-width:2.77778" />
    <path
       fill="#ffffff"
       d="m 450,15 5,130 c -3,0 -7,0 -11,0 z m 155,280 130,5 -130,6 c 0,-4 0,-8 0,-11 z m -150,160 -5,130 -6,-130 c 4,0 8,0 11,0 z M 295,306 165,300 295,295 c 0,3 0,7 0,11 z"
       id="path16193"
       style="stroke-width:2.77778" />
    <g
       id="goose"
       style="stroke-width:1.66667">
      <path
         fill="#ffffff"
         stroke="#000000"
         stroke-width="5"
         d="m 441,320 c 3,-4 57,-76 68,-83 11,-7 25,-17 34,-18 9,-1 10,1 8,5 -2,3 -20,28 -22,34 -3,7 -7,29 -19,38 -6,5 -29,25 -27,41 -10,2 -33,0 -33,0 z"
         id="path16195" />
      <path
         d="m 483,336 c -1,-15 19,-34 26,-39 -17,-3 -46,13 -60,29 -1,1 -1,2 0,3 8,10 24,7 34,7 z"
         id="path16197"
         style="stroke-width:1.66667" />
      <path
         fill="#ffffff"
         stroke="#000000"
         stroke-width="5"
         d="m 406,360 c -1,3 -7,9 -17,13 -11,3 -22,5 -39,22 -3,2 0,4 9,5 9,0 56,0 64,0 7,-1 43,-7 54,-18 10,-10 12,-39 46,-41 11,-1 15,-1 17,-2 1,0 2,-1 1,-2 -1,-1 -2,-2 -6,-5 -4,-4 1,-9 -12,-5 -12,4 -17,7 -24,8 -6,0 -15,2 -26,1 -12,-1 -25,-1 -28,-15 -1,-7 2,-24 1,-33 0,-14 -8,-24 -30,-35 -11,-5 -19,-12 -26,-17 -15,-10 -23,-19 -31,-28 -4,-5 -4,-6 -4,-6 -1,-1 -5,-6 -3,6 -1,0 -6,1 0,12 -1,0 -7,0 -1,10 -2,1 -6,3 1,11 0,1 -4,6 4,12 0,4 -1,11 9,17 0,4 1,12 13,15 0,5 0,7 9,15 1,2 5,3 3,16 -1,8 3,21 5,26 3,6 9,15 11,18 z"
         id="path16199" />
      <path
         d="m 535,332 c -4,-4 1,-9 -12,-5 -1,0 -2,0 -2,0 1,4 1,11 1,14 0,0 1,0 1,0 11,-1 15,-2 17,-2 1,0 2,-2 1,-2 -1,-1 -2,-2 -6,-5 z"
         id="path16201"
         style="stroke-width:1.66667" />
      <circle
         fill="#ffffff"
         cx="530"
         cy="332"
         r="2"
         id="circle16203"
         style="stroke-width:2.77778" />
      <path
         d="m 401,368 c 2,-1 4,-4 5,-6 0,-1 0,-2 -1,-2 -1,3 -7,9 -17,12 -10,4 -21,6 -38,23 -3,2 -1,3 5,4 0,-1 0,-3 2,-6 3,-5 18,-13 23,-15 6,-3 20,-9 21,-10 z"
         id="path16205"
         style="stroke-width:1.66667" />
      <path
         d="m 392,386 c -5,3 -13,5 -18,4 -4,-1 -7,-1 -10,2 -1,2 1,4 3,3 2,-3 11,-1 15,-2 4,-1 8,-2 12,-5 1,-1 0,-4 -2,-2 z"
         id="path16207"
         style="stroke-width:1.66667" />
      <path
         d="m 484,336 c -11,5 -27,6 -34,3 -8,-3 -10,-13 -11,-16 -1,-2 -1,-24 0,-35 1,-11 -21,-29 -23,-31 -1,0 -1,-2 0,-4 -2,-1 -4,-1 -5,-2 0,0 0,0 0,1 0,4 2,18 11,23 9,5 9,18 8,23 0,4 -1,20 1,27 1,7 5,10 8,16 3,5 1,8 0,9 0,0 3,-3 -4,4 -6,7 -12,7 -16,7 -3,1 -10,0 -14,-1 0,1 0,1 -1,2 7,3 17,4 28,-2 6,-3 15,-13 15,-15 0,-2 2,-2 5,-1 2,2 2,13 1,15 -1,3 -9,7 -10,7 -2,0 -10,0 -14,1 -4,0 -2,4 -4,6 -3,-1 -7,-1 -16,0 -10,1 -8,12 -6,12 2,1 11,2 21,0 10,-3 9,7 6,8 -1,1 -6,4 -10,7 1,0 2,0 2,0 8,-1 44,-7 54,-18 3,-2 5,-5 6,-9 -2,-1 -9,2 -8,5 0,4 -1,4 -4,5 -4,0 -10,-6 -6,-14 4,-8 0,-17 -1,-20 0,-2 0,-3 2,-4 2,0 21,-5 23,-6 2,-1 3,-2 3,-3 -2,0 -5,0 -7,0 z"
         id="path16209"
         style="stroke-width:1.66667" />
      <path
         fill="#ed1c24"
         d="m 523,341 c 5,-5 4,-13 0,-14 0,0 0,0 0,0 -12,3 -17,7 -24,8 -3,0 -7,1 -11,1 -5,2 -12,5 -15,6 -7,2 -8,3 -4,5 4,2 3,11 3,14 0,2 -3,12 -1,16 1,3 4,3 7,4 9,-11 12,-38 45,-40 z"
         id="path16211"
         style="stroke-width:2.77778" />
      <path
         d="m 544,223 c -7,6 -11,14 -16,21 -3,6 -7,13 -6,20 0,2 2,1 2,0 2,-8 4,-14 9,-22 3,-6 9,-11 12,-18 0,-1 -1,-1 -1,-1 z"
         id="path16213"
         style="stroke-width:1.66667" />
      <path
         d="m 532,228 c -11,7 -16,25 -16,37 0,2 3,2 3,0 1,-6 2,-12 4,-18 2,-7 7,-12 10,-18 1,-1 0,-2 -1,-1 z"
         id="path16215"
         style="stroke-width:1.66667" />
      <path
         d="m 523,231 c -5,3 -8,11 -10,16 -2,6 -5,13 -2,20 1,2 4,1 4,-1 -2,-7 -1,-13 2,-20 1,-5 5,-9 7,-14 0,-1 -1,-1 -1,-1 z"
         id="path16217"
         style="stroke-width:1.66667" />
      <path
         d="m 511,238 c -7,7 -8,21 -7,30 1,2 4,2 4,0 1,-10 1,-20 5,-29 1,-1 -1,-2 -2,-1 z"
         id="path16219"
         style="stroke-width:1.66667" />
      <path
         d="m 497,256 c 0,-3 -3,-3 -3,-2 -2,5 -1,12 0,17 0,3 4,2 4,0 -1,-6 -2,-9 -1,-15 z"
         id="path16221"
         style="stroke-width:1.66667" />
      <path
         d="m 492,273 c -1,-2 -1,-5 -1,-7 0,-2 0,-5 -2,-5 -1,1 -1,4 -1,6 0,3 -1,5 0,8 1,2 5,0 4,-2 z"
         id="path16223"
         style="stroke-width:1.66667" />
      <path
         d="m 486,276 c -1,-1 -1,-3 -1,-4 0,-2 1,-3 0,-4 -1,-1 -2,-1 -2,0 -1,1 -1,3 -1,5 -1,1 -1,3 0,5 1,3 5,1 4,-2 z"
         id="path16225"
         style="stroke-width:1.66667" />
      <path
         d="m 481,280 c -1,-1 -1,-2 -1,-2 0,-1 0,-2 0,-3 0,-1 -2,-1 -3,0 -1,2 -1,5 0,6 1,3 5,1 4,-1 z"
         id="path16227"
         style="stroke-width:1.66667" />
      <path
         d="m 475,284 c 0,0 0,-2 0,-3 0,-1 -1,-1 -2,0 0,0 0,1 0,2 0,0 0,1 0,1 1,2 2,2 2,0 z"
         id="path16229"
         style="stroke-width:1.66667" />
      <path
         d="m 471,288 c 0,0 0,-1 0,-1 0,-1 0,-2 0,-2 0,-1 -2,0 -2,0 0,2 0,2 0,4 0,2 3,2 2,-1 z"
         id="path16231"
         style="stroke-width:1.66667" />
      <path
         d="m 510,271 c -1,0 -1,0 -1,0 -4,1 -3,4 -5,8 0,3 -1,8 0,11 0,3 3,1 4,-2 0,-3 0,-7 1,-9 1,-2 2,-6 1,-8 z"
         id="path16233"
         style="stroke-width:1.66667" />
      <path
         d="m 502,280 c 0,-1 0,-6 -2,-6 -3,-1 -3,4 -3,6 1,3 -1,8 1,11 1,1 2,0 2,-1 1,-1 1,-3 1,-5 1,-2 1,-3 1,-5 z"
         id="path16235"
         style="stroke-width:1.66667" />
      <path
         d="m 493,279 c 0,-1 0,-2 0,-2 -3,0 -4,2 -4,4 0,5 1,8 2,12 1,2 3,2 3,0 1,-3 0,-5 0,-8 -1,-3 0,-4 -1,-6 z"
         id="path16237"
         style="stroke-width:1.66667" />
      <path
         d="m 483,283 c -2,6 0,7 0,13 0,2 3,3 3,1 1,-2 0,-4 0,-5 0,-4 0,-6 0,-9 0,-2 -2,-2 -3,0 z"
         id="path16239"
         style="stroke-width:1.66667" />
      <path
         d="m 476,287 c -2,5 -2,9 -1,15 0,2 4,1 4,-1 -1,-6 -1,-9 -1,-14 1,-1 -2,-2 -2,0 z"
         id="path16241"
         style="stroke-width:1.66667" />
      <path
         d="m 471,304 c 0,-3 -1,-7 0,-10 1,-2 -1,-3 -3,-2 -2,3 -1,10 -1,14 1,3 6,1 4,-2 z"
         id="path16243"
         style="stroke-width:1.66667" />
      <path
         d="m 465,307 c 0,0 0,0 0,0 0,-1 -1,-1 -1,-2 0,-1 0,-2 0,-3 0,-1 1,-2 0,-2 0,-1 0,-1 0,-2 0,0 0,0 0,0 -3,0 -3,2 -4,4 0,2 0,8 3,8 2,1 3,-1 2,-3 z"
         id="path16245"
         style="stroke-width:1.66667" />
      <path
         d="m 459,312 c -1,-2 0,-5 -1,-8 0,-1 -2,-1 -2,0 -1,1 -1,4 -1,5 0,2 0,4 2,5 1,2 4,-1 2,-2 z"
         id="path16247"
         style="stroke-width:1.66667" />
      <path
         d="m 516,270 c -2,3 -3,7 -4,11 -1,0 -2,5 -2,6 -1,1 1,3 2,3 1,0 2,-1 2,-2 0,0 0,0 0,-1 0,0 0,0 0,0 1,-3 1,-5 3,-8 1,-2 0,-4 1,-7 1,-2 -1,-3 -2,-2 z"
         id="path16249"
         style="stroke-width:1.66667" />
      <path
         d="m 503,268 c -3,-10 1,-20 0,-22 -2,-3 -4,4 -4,6 -1,5 -1,13 0,17 1,3 5,2 4,-1 z"
         id="path16251"
         style="stroke-width:1.66667" />
      <path
         d="m 384,236 c -12,-6 -20,-16 -28,-27 -1,-1 -2,0 -2,1 2,11 8,13 13,19 4,5 10,9 16,11 3,1 4,-3 1,-4 z"
         id="path16253"
         style="stroke-width:1.66667" />
      <path
         d="m 384,246 c -4,-4 -10,-8 -15,-11 -4,-4 -8,-11 -13,-13 -1,0 -1,1 -1,1 1,5 7,10 10,14 5,4 11,10 18,11 1,0 2,-1 1,-2 z"
         id="path16255"
         style="stroke-width:1.66667" />
      <path
         d="m 389,256 c -6,-4 -12,-7 -18,-12 -5,-4 -10,-10 -16,-14 -1,0 -2,1 -2,2 3,5 10,11 15,15 6,4 13,9 19,12 2,1 4,-2 2,-3 z"
         id="path16257"
         style="stroke-width:1.66667" />
      <path
         d="m 390,263 c -3,-4 -11,-5 -16,-10 -5,-4 -10,-8 -16,-11 -2,-1 -4,1 -2,2 4,5 11,8 16,13 4,3 11,8 17,9 1,0 2,-2 1,-3 z"
         id="path16259"
         style="stroke-width:1.66667" />
      <path
         d="m 391,270 c -10,-6 -20,-9 -29,-17 -1,0 -2,0 -2,0 0,0 -1,0 -1,0 0,0 0,1 0,1 -1,1 0,1 0,2 8,8 20,14 30,17 2,1 4,-2 2,-3 z"
         id="path16261"
         style="stroke-width:1.66667" />
      <path
         d="m 365,265 c 0,0 0,1 0,0 0,1 0,0 0,0 z"
         id="path16263"
         style="stroke-width:1.66667" />
      <path
         d="m 393,277 c -9,-3 -17,-7 -25,-12 -3,-2 -5,2 -3,3 8,6 18,10 27,13 3,1 4,-3 1,-4 z"
         id="path16265"
         style="stroke-width:1.66667" />
      <path
         d="m 399,286 c -5,-1 -8,-3 -12,-4 -4,-2 -8,-4 -12,-5 -1,0 -2,1 -1,2 2,3 6,5 10,6 4,3 9,4 13,5 3,1 4,-3 2,-4 z"
         id="path16267"
         style="stroke-width:1.66667" />
      <path
         d="m 405,295 c -3,-2 -6,-2 -9,-2 -4,-1 -7,-2 -11,-3 -1,0 -2,2 -1,2 2,3 6,3 9,4 3,1 7,2 11,2 2,1 3,-3 1,-3 z"
         id="path16269"
         style="stroke-width:1.66667" />
      <path
         d="m 407,304 c 0,-1 -1,-1 -2,-2 -3,0 -6,0 -8,0 -2,-1 -4,-2 -6,-2 0,0 -1,1 0,1 1,2 3,2 5,3 2,1 5,2 8,3 1,0 2,0 3,-1 0,-1 0,-1 0,-2 z"
         id="path16271"
         style="stroke-width:1.66667" />
      <path
         d="m 405,250 c -4,-4 -9,-6 -14,-8 -1,0 -2,0 -1,1 1,2 3,3 5,5 2,1 5,4 8,5 1,0 3,-2 2,-3 z"
         id="path16273"
         style="stroke-width:1.66667" />
      <path
         d="m 407,255 c -6,-1 -9,-3 -13,-5 -2,-1 -4,2 -2,3 4,2 8,4 13,6 3,1 4,-4 2,-4 z"
         id="path16275"
         style="stroke-width:1.66667" />
      <path
         d="m 409,261 c -2,0 -5,-1 -8,-1 -3,0 -5,-2 -8,-3 -1,-1 -2,1 -1,2 2,2 5,4 7,5 4,1 7,1 10,1 3,1 3,-4 0,-4 z"
         id="path16277"
         style="stroke-width:1.66667" />
      <path
         d="m 411,268 c -5,0 -10,-1 -15,-2 -1,-1 -2,1 -1,2 1,2 4,2 7,3 2,2 6,2 9,2 3,0 3,-5 0,-5 z"
         id="path16279"
         style="stroke-width:1.66667" />
      <path
         d="m 419,276 c -3,-1 -5,-1 -8,-1 -3,0 -7,0 -10,0 -1,0 -1,0 -2,0 0,0 0,1 0,1 0,0 0,0 0,0 0,1 0,1 1,2 3,1 6,1 9,2 3,0 7,1 10,-1 0,-1 0,-2 0,-3 z"
         id="path16281"
         style="stroke-width:1.66667" />
      <path
         d="m 421,283 c -3,-2 -6,-1 -9,-1 -2,0 -4,0 -7,0 -1,-1 -2,-1 -3,0 0,0 -1,0 0,1 1,2 5,3 7,4 4,0 7,0 11,0 2,-1 2,-3 1,-4 z"
         id="path16283"
         style="stroke-width:1.66667" />
      <path
         d="m 424,289 c -3,-1 -7,0 -10,0 -3,-1 -6,-2 -9,0 0,0 0,0 0,1 2,2 5,2 7,3 4,0 8,0 12,1 3,0 3,-5 0,-5 z"
         id="path16285"
         style="stroke-width:1.66667" />
      <path
         d="m 425,295 c -2,0 -5,0 -7,0 -2,0 -4,0 -6,1 -1,0 -2,2 -1,2 4,3 9,2 14,2 3,0 3,-4 0,-5 z"
         id="path16287"
         style="stroke-width:1.66667" />
      <path
         d="m 426,302 c -2,0 -4,0 -6,0 -2,0 -3,1 -4,1 -1,0 -2,-1 -3,-1 -2,0 -3,2 -1,3 1,2 4,2 6,2 3,0 6,0 8,-1 2,-1 2,-3 0,-4 z"
         id="path16289"
         style="stroke-width:1.66667" />
      <path
         d="m 426,310 c -5,0 -9,-1 -13,-1 -2,0 -2,3 -1,3 4,2 9,2 13,3 3,0 4,-5 1,-5 z"
         id="path16291"
         style="stroke-width:1.66667" />
      <path
         d="m 424,317 c -3,1 -7,-1 -10,-1 -2,0 -2,2 -1,3 4,1 8,3 12,3 3,-1 2,-5 -1,-5 z"
         id="path16293"
         style="stroke-width:1.66667" />
      <path
         d="m 424,323 c -3,0 -6,0 -10,0 -1,0 -2,2 0,3 2,1 4,1 6,1 2,0 4,1 6,0 1,-2 0,-4 -2,-4 z"
         id="path16295"
         style="stroke-width:1.66667" />
      <path
         d="m 424,328 c -2,0 -4,0 -5,0 -2,0 -3,0 -5,0 -1,0 -1,2 -1,3 2,1 3,1 5,1 2,1 3,0 5,1 3,0 3,-4 1,-5 z"
         id="path16297"
         style="stroke-width:1.66667" />
      <path
         d="m 427,335 c -2,0 -3,0 -5,0 -2,1 -4,0 -6,0 -1,0 -1,2 0,2 3,3 8,3 11,2 2,0 2,-3 0,-4 z"
         id="path16299"
         style="stroke-width:1.66667" />
      <path
         d="m 427,340 c -1,0 -3,0 -4,0 -2,1 -4,1 -5,1 -1,0 -2,1 -1,2 1,1 2,1 4,2 3,0 5,0 7,-1 3,-1 2,-5 -1,-4 z"
         id="path16301"
         style="stroke-width:1.66667" />
      <path
         d="m 428,345 c -3,1 -6,1 -9,2 -1,0 -1,1 -1,1 3,3 8,2 11,1 4,-1 2,-5 -1,-4 z"
         id="path16303"
         style="stroke-width:1.66667" />
      <path
         d="m 431,350 c -2,0 -3,1 -5,2 -2,0 -4,0 -5,1 0,0 -1,0 0,0 0,2 2,2 4,2 2,1 4,-1 6,-1 2,0 3,-4 0,-4 z"
         id="path16305"
         style="stroke-width:1.66667" />
      <path
         d="m 407,309 c -2,-2 -4,-2 -6,-2 -2,0 -5,0 -6,1 -1,0 -1,0 -1,1 1,1 3,2 5,2 2,0 5,2 7,1 2,0 2,-2 1,-3 z"
         id="path16307"
         style="stroke-width:1.66667" />
      <path
         d="m 406,314 c -4,0 -7,0 -12,1 0,0 0,0 0,0 4,3 8,3 12,3 3,1 3,-4 0,-4 z"
         id="path16309"
         style="stroke-width:1.66667" />
      <path
         d="m 408,320 c -3,0 -6,-1 -9,0 0,0 -4,0 -3,2 0,1 2,1 3,1 3,1 6,1 8,2 3,0 3,-5 1,-5 z"
         id="path16311"
         style="stroke-width:1.66667" />
      <path
         d="m 410,328 c -2,0 -4,-1 -6,-1 -2,-1 -4,0 -6,0 -2,-1 -2,1 -1,2 1,1 3,1 5,1 2,0 5,1 7,2 2,0 4,-4 1,-4 z"
         id="path16313"
         style="stroke-width:1.66667" />
      <path
         d="m 409,334 c -1,0 -12,0 -12,1 1,2 2,2 4,2 3,1 5,1 8,1 3,1 3,-3 0,-4 z"
         id="path16315"
         style="stroke-width:1.66667" />
      <path
         d="m 411,341 c 0,-1 0,-1 0,0 0,0 0,-1 0,-1 0,0 -1,0 -1,0 0,0 0,0 0,0 -2,0 -3,0 -5,0 -2,0 -3,0 -5,0 -1,0 -2,2 -1,2 4,2 7,2 10,2 2,1 3,-1 3,-2 0,0 0,0 0,0 0,0 -1,-1 -1,-1 z"
         id="path16317"
         style="stroke-width:1.66667" />
      <path
         d="m 413,347 c -1,-2 -4,-1 -6,-1 -2,0 -4,0 -5,1 -1,0 -1,0 -1,0 1,2 4,2 6,3 2,0 5,1 6,-1 1,-1 1,-1 0,-2 z"
         id="path16319"
         style="stroke-width:1.66667" />
      <path
         d="m 417,355 c -1,-2 -4,-2 -5,-3 -3,0 -5,0 -7,1 -1,0 -1,1 -1,1 2,2 4,2 6,2 2,1 4,2 6,1 1,-1 1,-2 1,-2 z"
         id="path16321"
         style="stroke-width:1.66667" />
    </g>
  </g>
</svg>
