<?xml version="1.0" encoding="UTF-8" standalone="no"?>
<svg
   height="480"
   width="640"
   version="1.1"
   viewBox="0 0 640 480"
   id="svg131712"
   sodipodi:docname="ru-tve-4x3.svg"
   inkscape:version="1.2.2 (b0a84865, 2022-12-01)"
   xmlns:inkscape="http://www.inkscape.org/namespaces/inkscape"
   xmlns:sodipodi="http://sodipodi.sourceforge.net/DTD/sodipodi-0.dtd"
   xmlns="http://www.w3.org/2000/svg"
   xmlns:svg="http://www.w3.org/2000/svg">
  <defs
     id="defs131716" />
  <sodipodi:namedview
     id="namedview131714"
     pagecolor="#ffffff"
     bordercolor="#666666"
     borderopacity="1.0"
     inkscape:showpageshadow="2"
     inkscape:pageopacity="0.0"
     inkscape:pagecheckerboard="0"
     inkscape:deskcolor="#d1d1d1"
     showgrid="false"
     inkscape:zoom="1.2479167"
     inkscape:cx="320.13356"
     inkscape:cy="240"
     inkscape:window-width="1440"
     inkscape:window-height="819"
     inkscape:window-x="0"
     inkscape:window-y="25"
     inkscape:window-maximized="0"
     inkscape:current-layer="svg131712" />
  <title
     id="title131690">Flag_of_Tver_Oblast</title>
  <g
     id="g133725"
     transform="scale(0.23703704,0.26666667)"
     style="stroke-width:3.97747">
    <rect
       width="2700"
       fill="#d20000"
       height="1800"
       id="rect131692"
       x="0"
       y="0"
       style="stroke-width:3.97747" />
    <rect
       width="675"
       fill="#ffd700"
       height="1800"
       id="rect131694"
       x="0"
       y="0"
       style="stroke-width:3.97747" />
    <rect
       x="2025"
       height="1800"
       fill="#ffd700"
       width="675"
       id="rect131696"
       y="0"
       style="stroke-width:3.97747" />
  </g>
  <g
     transform="matrix(0.58758723,0,0,0.58758723,202.14763,113.48659)"
     id="g131710"
     style="stroke-width:1.68757">
    <path
       d="m 163.9,306.1 0.13,19 3.86,4.79 h 65.42 l 3.86,-4.79 0.13,-19 h -20.7 v 4.15 h -11.7 l -4.34,5.14 -4.32,-5.15 h -11.7 v -4.2 h -20.6 z m 120.1,0 v 29.17 c 0.54,2.74 1.6,5.14 4.48,6.24 v 2 l 25.74,18.21 v 4.3 l 22.34,16.5 0.16,18.24 H 64.42 l 0.16,-18.24 22.34,-16.5 v -4.32 l 25.74,-18.21 v -2 c 2.89,-1.1 3.94,-3.49 4.48,-6.24 v -29.2 h -2.81 v -32.1 h 1.7 a 17.35,17.35 0 0 1 -5.23,-6.21 l -0.38,1.85 a 34.31,34.31 0 0 0 0.72,12.93 c 0.88,3.94 0,6.64 -4.48,6.59 -2.89,2.86 -5.63,2.31 -8,0.24 a 4.79,4.79 0 0 1 -5.39,-3.77 c -2.2,-0.91 -2.52,-3.88 0.72,-6.88 3.24,-3 3,-7 2.81,-10.88 a 4.05,4.05 0 0 1 1.5,-4.79 7,7 0 0 1 10,-9.1 h 1.52 a 16.47,16.47 0 0 1 13.12,-11.25 v -0.24 h 0.13 c -3.06,-7.07 0.16,-16.07 10.23,-19.85 h 4.79 l 2.82,-4.13 V 47.26 h 3.51 l 10.37,-9.41 10.44,9.33 h 3.7 v 7.55 h 5.27 v -7.34 h 8.33 V 35.96 h 11 l 7.09,-6.1 7,6.18 h 11 v 11.35 h 8.33 v 7.32 h 5.25 v -7.48 h 3.7 l 10.44,-9.33 10.44,9.33 h 3.51 v 171 l 2.92,4.28 h 4.66 c 10.08,3.78 13.31,12.77 10.23,19.85 h 0.16 v 0.24 a 16.47,16.47 0 0 1 13.12,11.25 h 1.52 a 7,7 0 0 1 10,9.16 4.05,4.05 0 0 1 1.5,4.79 c -0.21,3.88 -0.32,7.72 2.81,10.88 3.13,3.16 2.9,6 0.72,6.88 a 4.79,4.79 0 0 1 -5.39,3.77 c -2.43,2.09 -5.17,2.63 -8,-0.24 -4.53,0 -5.35,-2.65 -4.48,-6.59 a 34.32,34.32 0 0 0 0.72,-12.93 l -0.38,-1.85 a 17.36,17.36 0 0 1 -5.23,6.21 h 1.63 v 31.91 h -2.81 z"
       id="path131698"
       style="stroke-width:1.68757" />
    <path
       d="m 141.7,233.1 5.63,-1.6 a 7.82,7.82 0 0 1 7.55,-0.19 h 2.46 c 1.05,-0.67 2.55,-0.81 3.61,-1.48 1.06,-0.67 1.6,-1.37 2.54,-0.56 v 2.43 a 2.79,2.79 0 0 0 2.81,-0.1 5.82,5.82 0 0 0 4.23,-2.74 2.12,2.12 0 0 1 3,-0.2 l 0.2,0.2 -0.37,2.3 c 2.82,0.73 5.3,1.09 5.28,-1.26 1.76,-1.6 3.46,-2.57 4.79,0 1.05,1.13 2.22,1.87 4.21,0 a 1.48,1.48 0 0 1 2.1,0 q 0.61,1.91 3.34,0 c 0.78,1.48 1.77,2.47 4.21,0 a 4.44,4.44 0 0 1 3.86,0 c 1.84,1.18 4.31,3.54 3.65,0 0.27,-1.34 1.44,-2.23 2.55,0 1,1.13 2.06,2.06 3.08,0.22 a 1.69,1.69 0 0 1 2.73,0.24 c 0.91,1.6 2,2 2.71,0.24 q 1.34,-3.41 2.66,0.24 a 5.82,5.82 0 0 0 2.84,0.26 c 1.29,-0.83 2.57,-1.36 3.86,0.18 l 2,-0.24 -0.18,-1.74 h 2.2 l 1.31,2.12 q 1.28,1.1 1.48,0.1 1.23,-1.52 2.47,0.16 3.19,1 2.9,-1.6 l 2.47,-0.48 3.51,1.82 a 1.71,1.71 0 0 0 3,0.13 l 0.45,-2 c 1.05,-0.8 2.11,-1.23 3.19,0.83 l 1.6,1.1 q 1.68,1.47 2.65,0.1 l 0.62,-1.12 h 2.47 l 2,2 3.19,0.16 3.38,-0.34 1.4,3.54 -1,1.07 -4.28,-0.7 q -2.46,4.79 -4.91,-0.81 H 255 l -1.34,2.71 -1.28,-2.46 -1.79,-0.11 -0.59,1.91 -1.29,-1.5 -1.6,0.48 -1,2.23 -1.44,-2.39 -2,-0.56 -0.53,2.2 -1.32,-1.77 h -2.2 l -0.61,3 -1.71,-3 -1.8,-0.14 q -0.32,1.6 -2.39,0.1 c -1.6,-1.44 -2.38,-0.61 -3,0.54 -2.44,1.85 -3.3,0.24 -4.5,-0.69 q -1.34,1.37 -2.33,0 l -0.91,0.37 q -1.82,-1.6 -2.22,0.72 a 2,2 0 0 1 -2.73,-0.32 q -1,-1.71 -2,-0.22 -0.38,1.6 -2.87,0.37 l -0.89,1.6 -2.22,-2.09 -1.9,-0.19 -1.18,1.5 -2.11,-1.16 q -0.62,3.81 -4.05,-0.49 -1.09,-1.6 -2.19,-0.21 l -0.46,2 -1.31,-1.6 -1.5,-0.13 -1,1.84 -0.78,0.19 -1.16,-1.76 c -1.74,-1.6 -2.36,-0.83 -2.46,0.91 l 1.84,4 q -2.71,-0.62 -3.67,-4.42 h -1.24 c -2.06,1.42 -3.1,0.37 -4,-1.05 -0.9,-1.42 -1.6,-0.85 -2.54,-0.19 q -1.5,3.46 -6.16,-0.48 c -0.8,-1.6 -1.6,-1 -2.41,-0.19 l -0.62,1.6 c -3.08,0.69 -5.15,0.3 -5.89,-1.6 a 1.2,1.2 0 0 0 -1.68,0.24 l -1,1.52 q -0.7,1.6 -2.81,0.53 l -2.17,-2.39 a 0.94,0.94 0 0 0 -1.6,-0.11 q -2.41,1.16 -3.06,-1.6 a 1.6,1.6 0 0 0 -2.84,-0.22 l -5.93,2.06 q -2.15,-0.41 -0.8,-1.9"
       fill="#a15a41"
       id="path131700"
       style="stroke-width:0.562522" />
    <path
       d="m 171.6,189.2 c 1.29,-1.93 3.38,-2.81 4.64,-1.95 1.26,0.86 1.24,3.19 0,5 -1.24,1.81 -3.38,2.81 -4.64,1.95 -1.26,-0.86 -1.32,-3.11 0,-5 m 57.9,0 c -1.29,-1.93 -3.37,-2.81 -4.64,-1.95 -1.27,0.86 -1.24,3.11 0,5 1.24,1.89 3.37,2.81 4.64,1.95 1.27,-0.86 1.24,-3.11 0,-5"
       fill="#009aff"
       id="path131702"
       style="stroke-width:0.562522" />
    <path
       d="m 200.6,159.7 a 3.43,3.43 0 0 0 3.19,-2.19 h -6.38 a 3.43,3.43 0 0 0 3.2,2.2 m 0,-16.7 a 3.43,3.43 0 0 1 3.19,2.19 h -6.38 a 3.43,3.43 0 0 1 3.2,-2.2 m 3.79,50.51 c -0.49,-1.52 -1.73,-6.17 -3.83,-6.27 -2.1,0.1 -3.34,4.75 -3.83,6.27 -0.65,2.13 -0.76,4.73 1.05,6.32 a 4.12,4.12 0 0 0 5.55,0 c 1.81,-1.59 1.71,-4.19 1.06,-6.32"
       fill="#d20000"
       id="path131704"
       style="stroke-width:0.562522" />
    <path
       d="m 208.2,266.6 a 47.94,47.94 0 0 1 -1.43,6.46 v 0.13 h 68.2 a 13.52,13.52 0 0 0 11.62,-6.59 h -78.4 M 126,273.2 h 68.2 l 0.06,-0.08 a 26.54,26.54 0 0 0 3.37,-6.51 h -83.28 a 13.52,13.52 0 0 0 11.6,6.6 m 161.3,-19.2 a 13.56,13.56 0 0 0 -11.63,-7.85 17.06,17.06 0 0 1 -7.95,5 h -60.4 c 0.27,0.94 0.51,1.9 0.72,2.89 h 79.36 m -90.7,-0.1 a 20.1,20.1 0 0 0 -1.84,-2.89 h -61.7 a 17.06,17.06 0 0 1 -7.95,-5 13.59,13.59 0 0 0 -11.6,7.85 h 83 z"
       fill="#008e1f"
       id="path131706"
       style="stroke-width:0.562522" />
    <path
       d="m 245.1,46.78 h -3 l 3,-2.82 z m 2.33,-0.022 h 3 l -3,-2.82 z m 2.5,41.27 -3.74,-10.77 -3.73,10.77 h 7.47 m -7.5,-28.79 3.73,10.77 3.74,-10.77 h -7.47 m 8.8,19.87 v -10.95 l -3.08,5.47 3.08,5.48 m -10.1,-10.95 v 10.95 l 3.08,-5.48 -3.08,-5.47 m 11.4,-12.1 h -12.7 a 1.42,1.42 0 0 0 -1.4,1.44 v 32.27 a 1.42,1.42 0 0 0 1.4,1.44 h 12.72 a 1.43,1.43 0 0 0 1.4,-1.44 v -32.27 a 1.43,1.43 0 0 0 -1.4,-1.44 z m -17.3,43.89 v 84.94 l 0.18,0.21 a 4,4 0 0 1 5.55,0.7 4.63,4.63 0 0 1 0.3,0.46 v -74.33 a 1.7,1.7 0 0 1 1.6,-1.76 h 5.13 a 1.71,1.71 0 0 1 1.6,1.76 v 88.44 a 4,4 0 0 1 3,7.18 c 1.48,2.07 3,4.18 4.44,6.3 v -113.9 h -21.8 m 9.4,96.67 1.59,2.09 v -85.21 h -1.59 z m -9.4,-146.2 h 21.91 v 46.53 h -21.91 z m -127.3,209.5 a 3.35,3.35 0 0 1 -3.35,3.35 3.35,3.35 0 0 1 -3.35,-3.35 3.35,3.35 0 0 1 3.35,-3.35 3.35,3.35 0 0 1 3.35,3.35 m 192.1,0 a 3.35,3.35 0 0 1 -3.35,3.35 3.35,3.35 0 0 1 -3.35,-3.35 3.35,3.35 0 0 1 3.35,-3.35 3.35,3.35 0 0 1 3.35,3.35 m -96.39,-126.4 a 2.89,2.89 0 0 1 -2.89,2.89 2.89,2.89 0 0 1 -2.89,-2.89 2.89,2.89 0 0 1 2.89,-2.89 2.89,2.89 0 0 1 2.89,2.89 m -44.99,-45.5 -3.73,-10.77 -3.73,10.77 h 7.46 m -7.4,-28.79 3.73,10.77 3.73,-10.77 h -7.46 m 8.7,19.87 v -10.95 l -3.08,5.47 3.08,5.48 m -10,-10.95 v 10.95 l 3.08,-5.48 -3.08,-5.47 m 119.1,220 5.06,-4.68 h -10.12 l 5.06,4.68 m 0,3.6 -5.06,4.68 h 10.12 l -5.06,-4.68 m 3.3,-1.8 4.68,5.06 v -10.12 l -4.68,5.06 m -6.6,0 -4.68,5.06 v -10.12 l 4.68,5.06 m -133.6,-1.8 -5.06,-4.67 h 10.12 l -5.06,4.67 m 0,3.6 5.06,4.68 h -10.12 l 5.06,-4.68 m -3.3,-1.8 -4.68,5.06 v -10.12 l 4.68,5.06 m 6.6,0 4.67,5.06 v -10.12 l -4.67,5.06 m 67,-16.1 h -4.32 a 20.09,20.09 0 0 0 1.17,-22.8 h 4.09 c 0.28,0.57 5.67,12.5 -0.94,22.8 m 2.8,-102.2 h -9.26 c -11.62,13.53 -20.55,30.73 -28.2,50.87 h 20.09 l 3.43,-3 c 0.91,-0.72 1.21,-1.32 0.93,-1.82 l -3.06,-4.42 a 1.9,1.9 0 0 1 -0.38,-2.63 c 1.26,-1.58 3.88,-2.23 6.56,-2.23 -2.27,-1.4 -1.87,-4.36 1.84,-3.51 l 1.72,-0.56 a 8.76,8.76 0 0 1 -5.33,-4 c -1.84,-3.22 -1.1,-6.32 0.3,-10.12 a 21.17,21.17 0 0 1 3.3,-5.7 6.62,6.62 0 1 1 6.73,0.22 20.67,20.67 0 0 1 3.19,5.47 c 1.4,3.73 2.12,6.93 0.3,10.12 a 8.76,8.76 0 0 1 -5.33,4 l 1.72,0.56 c 3.7,-0.85 4.1,2.09 1.84,3.51 2.68,0.08 5.3,0.64 6.56,2.23 a 1.9,1.9 0 0 1 -0.38,2.63 l -3,4.45 c -0.29,0.49 0,1.1 0.93,1.82 l 3.54,3 h 20.15 c -7.64,-20.16 -16.59,-37.36 -28.19,-50.89 m 88.3,93.8 c -0.29,2.92 -0.38,5.71 1.48,8.15 0.36,-3.37 0.5,-6.37 -1.48,-8.15 m -0.3,12.8 c -0.29,2.9 -0.35,5.7 1.48,8.17 0.35,-3.39 0.5,-6.39 -1.48,-8.17 m 7.5,0 c -0.27,2.9 -0.34,5.7 1.48,8.17 0.36,-3.39 0.5,-6.39 -1.48,-8.17 m -3.7,-5.9 c -0.29,2.86 -0.35,5.65 1.48,8.17 0.4,-3.38 0.52,-6.38 -1.48,-8.17 m 2.2,-6.7 c -0.29,2.92 -0.34,5.66 1.48,8.17 0.37,-3.38 0.5,-6.38 -1.48,-8.17 m -90.7,-8.1 h 0.03 v -0.07 l -0.03,0.07 m 0.1,0 a 34.43,34.43 0 0 1 0,5.44 h 81.06 v -5.44 h -81.1 m -10.46,0 h -86.84 v 5.44 h 87.18 a 14.87,14.87 0 0 0 -0.34,-5.44 m -90.3,20.7 c -2,1.79 -1.84,4.79 -1.48,8.17 1.81,-2.49 1.67,-5.27 1.48,-8.17 m -3.8,-5.9 c -2,1.79 -1.84,4.79 -1.48,8.17 1.84,-2.52 1.78,-5.31 1.48,-8.17 m 3.5,-6.9 v 0.08 l 1e-4,-0.02 -1e-4,-0.06 m 0,0.1 c -2,1.79 -1.82,4.79 -1.47,8.15 1.8,-2.5 1.75,-5.26 1.47,-8.15 m -5.6,0 v 0.08 l 0.02,-0.02 -0.02,-0.06 m 0,0.1 c -2,1.79 -1.82,4.79 -1.47,8.15 1.81,-2.5 1.76,-5.25 1.47,-8.15 m -1.6,12.6 c -2,1.79 -1.84,4.79 -1.48,8.17 1.82,-2.49 1.77,-5.27 1.48,-8.17 m 99.5,27 -2.94,2.81 3.67,3.83 2.99,-2.74 -3.72,-3.9 m -0.8,-15.9 v -11.04 H 186.9 l 3.39,3.97 h 5.92 v 5.57 l -8.95,7.31 v 12.19 h 7.98 l 2.9,-3.33 -2.65,-2.49 -1.1,1.59 h -2.71 v -7.38 l 7.37,-6.39 m -22.4,-3 -1.37,1.37 2.23,2.26 1.37,-1.37 -2.23,-2.26 m -1.7,9 -7.57,-6.95 -1.86,1.5 7.32,6.64 h 10.39 v -4.07 l -8.28,2.88 m 7.3,-17.1 h -11.28 v 6.27 l 7.89,-3.92 8.76,8.69 3.02,-2.17 -8.39,-8.87 m -16,4.7 0.11,-4.69 h -11.53 l -0.11,-0.08 v 6.1 l 1.5,0.1 v -4.2 h 7.71 c 1,0.32 1.1,1.07 0.45,2.33 l -9.57,9.57 v 4.47 h 9.77 l -4.79,-4.15 0.1,-3.19 m -8.24,11.84 v -24.02 h -2.73 v 26.06 h 35.59 v -2.04 h -32.86 m 50.4,-22.8 v 11.04 l 2.91,-1.42 v -5.57 h 5.91 l 3.36,-4.05 h -12.18 m 8.8,20.7 0.11,4.15 h -2.52 l -8.78,-8.21 -2.25,1.78 10.89,10.92 6.95,-0.45 v -12.89 l -4.4,4.7 m 13.5,-12.5 -2.24,2.25 1.38,1.38 2.23,-2.25 -1.37,-1.38 m 9.4,2 -7.62,6.88 -8.29,-2.88 v 4.07 h 10.39 l 7.39,-6.57 -1.87,-1.5 m -13.1,-10.2 -15.78,16.38 1.86,1.46 15.55,-15.49 7.89,3.92 v -6.27 h -9.52 m 25.9,6 v -6.1 l -0.21,0.08 H 234.8 l 0.11,4.69 6.38,6.26 0.1,3.19 -4.79,4.15 h 9.86 v -4.47 l -9.57,-9.57 c -0.65,-1.26 -0.53,-2 0.45,-2.33 h 7.73 v 4.2 m 4.48,-7.3 v 24.02 h -32.88 v 2.04 h 35.59 v -26.06 h -2.71 m 2.7,-0.1 v 0.06 h 1e-4 v -0.06 m -95.7,48.9 v -18.72 h -3.11 v 23.94 h 5.55 a 6.18,6.18 0 0 1 -2.44,-5.22 m -1.7,8.1 4.07,4.32 h 3.43 v -4.32 h -7.5 m -4.3,-1.1 v -27.5 h -1.6 l 0.18,28 a 10.56,10.56 0 0 0 5.73,7.42 v 7.9 h 1.6 v -8.43 a 10.93,10.93 0 0 1 -5.91,-7.39 m -5.1,0.2 v -28.18 h -24.91 v 28.63 a 12.06,12.06 0 0 1 -2.12,7.15 h 29.94 a 15.92,15.92 0 0 1 -2.91,-7.6 m -29.7,10.9 h 34.8 v 7.2 h -34.8 z m 128.9,-36.8 v 18.71 a 6.18,6.18 0 0 1 -2.44,5.22 h 5.55 v -23.93 h -3.11 m -5.9,26.8 v 4.33 h 3.43 l 4.15,-4.33 h -7.58 m 11.9,-28.6 v 27.48 a 11,11 0 0 1 -5.9,7.42 v 8.43 h 1.69 v -7.9 a 10.56,10.56 0 0 0 5.73,-7.42 l 0.08,-28 h -1.6 m 30.1,28.09 v -28.6 h -24.91 v 28.16 a 16.08,16.08 0 0 1 -2.9,7.6 h 29.94 a 12.06,12.06 0 0 1 -2.13,-7.16 m -30.1,10.5 h 34.85 v 7.2 h -34.85 z m 38,3.2 v 6.82 h -42.19 l -4.61,-4.58 -0.46,-8.07 c -6.22,0.3 -9.57,-2.23 -8.78,-9 h -63.94 c 0.81,6.7 -2.57,9.26 -8.78,8.94 l -0.46,8.07 -4.6,4.58 h -42.25 v -6.85 l -18.83,13.79 h 213.7 m -239.8,23.9 h 266 v 13.18 h -266 z m 246.8,-14.8 v 7.02 h -227.7 v -7.02 l -15.81,11.78 h 259.3 l -15.81,-11.78 m -224.5,-6.5 h 221.4 v 10.72 h -221.4 z m 113.7,-266 a 2.89,2.89 0 0 1 -2.89,2.89 2.89,2.89 0 0 1 -2.89,-2.89 2.89,2.89 0 0 1 2.89,-2.89 2.89,2.89 0 0 1 2.89,2.89 m 15.8,17.46 a 2.89,2.89 0 0 1 -2.89,2.89 2.89,2.89 0 0 1 -2.89,-2.89 2.89,2.89 0 0 1 2.89,-2.89 2.89,2.89 0 0 1 2.89,2.89 m -32.3,0 a 2.89,2.89 0 0 1 -2.89,2.89 2.89,2.89 0 0 1 -2.89,-2.89 2.89,2.89 0 0 1 2.89,-2.89 2.89,2.89 0 0 1 2.89,2.89 m 14.31,-0.7 v -11.17 h -1.39 v 11.17 h -10.4 v 1.39 h 10.4 v 11.17 h 1.39 v -11.17 h 9.94 v -1.39 h -9.94 m -0.9,-28.12 c -14,0 -26.11,6.38 -31.58,15.37 v 79.79 q 2.18,-2.42 4.4,-4.79 a 4,4 0 0 1 5.12,-5 c 0.83,-0.78 1.68,-1.55 2.52,-2.3 a 4.22,4.22 0 0 1 1.2,-4 c -0.57,-1 -0.18,-2.81 0.69,-3 v -2.81 a 8.59,8.59 0 0 1 -1.23,-12.1 8.31,8.31 0 0 1 2,-1.77 c -1.24,-5.15 5.43,-9.57 10.61,-7.34 l 2.52,-0.53 a 5.78,5.78 0 0 1 -0.1,-8.19 4.3,4.3 0 0 1 0.81,-0.7 v -10.8 h -8.4 a 5.82,5.82 0 1 1 0,-6.51 h 8.41 v -9.34 a 5.81,5.81 0 1 1 8.07,-1.55 6,6 0 0 1 -1.55,1.55 v 9.34 h 7.84 a 5.81,5.81 0 1 1 1.55,8.06 6,6 0 0 1 -1.55,-1.55 h -7.7 v 10.68 h 0.06 a 5.8,5.8 0 0 1 1.55,8 5.68,5.68 0 0 1 -0.91,1.05 l 2.23,0.46 c 5.19,-2.17 11.86,2.19 10.61,7.34 a 8.62,8.62 0 0 1 2.51,11.9 9,9 0 0 1 -1.77,2 v 2.81 c 0.86,0.21 1.26,2 0.69,3 a 4.24,4.24 0 0 1 1.21,3.91 q 1.32,1.15 2.59,2.35 a 4,4 0 0 1 5,2.52 3.91,3.91 0 0 1 0,2.49 c 1.45,1.5 2.89,3 4.31,4.61 v -79.7 c -5.4,-9.02 -17.5,-15.32 -31.5,-15.32 z m -15.7,74.52 h 31.63 v 1.99 h -31.63 z m 11.2,-18.7 a 6.46,6.46 0 0 1 9.16,0 c -0.1,-3.8 -9.2,-3.7 -9.2,0 m -9.06,2.5 5.71,-3.06 c -1.72,-1.89 -6.3,-0.23 -5.71,3.06 m -2.2,11.5 v -6.49 c -2.47,0.62 -3.19,5.44 0,6.49 m 7.9,1.3 v -8.65 c -3.28,0.85 -4.23,7.26 0,8.65 m 15.9,-8.7 v 8.65 c 4.23,-1.39 3.29,-7.8 0,-8.65 m 7.9,1 v 6.49 c 3.19,-1.05 2.47,-5.87 0,-6.49 m -7.9,-8.2 5.71,3.06 c 0.57,-3.28 -3.99,-4.94 -5.71,-3.06 m -52.6,-97.46 v 2.82 h 3 l -3,-2.82 m -5.4,2.82 h 3 v -2.82 l -3,2.82 m 4.3,66.74 v 85.34 l 1.59,-2.09 v -83.25 h -1.59 m 84.3,73.5 a 1.83,1.83 0 0 0 -1.28,-0.54 1.86,1.86 0 0 0 -1.05,0.32 l 2.35,2.84 a 1.86,1.86 0 0 0 -0.1,-2.6 z m -75.8,-0.6 a 1.83,1.83 0 0 0 -1.31,0.54 1.86,1.86 0 0 0 0,2.62 l 2.35,-2.84 a 1.89,1.89 0 0 0 -1.1,-0.4 z m -3.5,3.7 v 2.3 l 0.91,-1.13 a 4,4 0 0 1 -0.91,-1.17 m -15.8,-90.15 v 114 c 1.52,-2.12 3,-4.26 4.53,-6.38 a 4,4 0 0 1 2.19,-7.26 2.7,2.7 0 0 1 0.72,0 v -88.4 a 1.7,1.7 0 0 1 1.6,-1.76 h 5.12 a 1.71,1.71 0 0 1 1.6,1.76 v 74.52 a 3.87,3.87 0 0 1 0.4,-0.64 4,4 0 0 1 5.55,-0.7 l 0.08,-0.1 v -85 h 0.13 -21.8 z m 96.5,91.25 0.81,1 v -2 a 4.41,4.41 0 0 1 -0.81,1 m -89.9,11.6 a 1.5,1.5 0 0 0 -0.75,2.79 l 1.74,-2.41 a 1.43,1.43 0 0 0 -0.9,-0.4 m 101,0.72 a 1.5,1.5 0 0 0 -1.28,-0.73 1.43,1.43 0 0 0 -1,0.38 l 1.74,2.41 a 1.5,1.5 0 0 0 0.6,-2.1 z m -49.2,-167.9 v 4.36 l 3.19,-2.48 -3.19,-1.88 m -7,1.88 3.19,2.48 v -4.36 l -3.19,1.88 m 23.7,36.59 4.1,2 v -6.39 l -4.1,4.39 m -41.5,-4.39 v 6.39 l 4.1,-2 -4.1,-4.39 m -8.1,19.36 v 1.6 a 45.05,45.05 0 0 1 23.6,-10.6 l -3.64,-3.46 v -3.72 l -15,-15.45 h -5.9 v 28.36 a 66,66 0 0 1 14,-6.81 l 0.13,-1.74 -5.66,2.46 c -1.53,0.78 -2.36,0.34 -2.49,-1.36 v -13 c 0.35,-1.09 1,-1.39 2.43,-0.93 l 10.4,10.07 v 5 a 77.41,77.41 0 0 0 -17.87,9.58 m 42.8,-32.55 -2.28,2.15 4.34,4.49 2.15,-2.3 -4.21,-4.34 m 5.4,-5.83 -2.7,2.8 5.72,5.02 2.69,-2.76 v -5.06 h -5.71 m -34.5,0 h -5.71 v 5.06 l 2.69,2.76 5.71,-5.02 -2.69,-2.8 m 9.5,1.04 -10.16,9.14 3.28,3.42 10.25,-9.03 -3.37,-3.53 m 1,-12.37 h -8.43 v 8.55 l 2.38,2.78 2.89,-2.23 -1.47,-1.9 c 0,-1.2 0.29,-2.19 2.09,-1.72 l 8.73,9 4.29,-3.77 m 33.42,150 h 0.06 a 1.6,1.6 0 1 0 1.6,1.6 1.67,1.67 0 0 0 -1.66,-1.6 m -74.2,0 h -0.06 a 1.66,1.66 0 0 0 -1.53,1.63 1.6,1.6 0 1 0 1.59,-1.63 m 38.6,7.6 a 1.5,1.5 0 0 1 -1.5,1.5 1.5,1.5 0 0 1 -1.5,-1.5 1.5,1.5 0 0 1 1.5,-1.5 1.5,1.5 0 0 1 1.5,1.5 z m 7.2,5.2 a 1.5,1.5 0 0 1 -1.5,1.5 1.5,1.5 0 0 1 -1.5,-1.5 1.5,1.5 0 0 1 1.5,-1.5 1.5,1.5 0 0 1 1.5,1.5 m -16,-1.5 h -0.06 a 1.53,1.53 0 1 0 0.06,0 m -10.3,-34.4 a 1.67,1.67 0 0 0 -1.6,1.6 1.6,1.6 0 1 0 1.6,-1.6 m 35.1,-0.2 v -0.06 a 1.6,1.6 0 1 0 1.6,1.6 1.67,1.67 0 0 0 -1.6,-1.54 m -17.3,0.8 a 1.59,1.59 0 1 0 1.63,1.58 1.59,1.59 0 0 0 -1.63,-1.58 m -29.2,22 a 4.37,4.37 0 0 1 1.88,1.47 l 1.31,-2.51 a 8.35,8.35 0 0 1 -3.2,1 m -14.29,23.14 h 6.19 l 1.6,-3.7 a 13.13,13.13 0 0 1 -7.79,3.7 m -5.3,-11.9 v -0.37 q -4.33,6.1 -8.31,12.29 h 7.09 c -1.76,-3.51 -2.38,-7 2.07,-10.05 0.77,-1.84 -0.7,-1.31 -0.85,-1.87 m 18,-2.9 a 4.33,4.33 0 0 1 -4,-2.66 4.35,4.35 0 0 1 -6,-0.93 4.29,4.29 0 0 1 -0.69,-3.69 c -2,2.54 -3.86,5.09 -5.73,7.68 a 3.41,3.41 0 0 1 3,1.6 c 0.48,0.81 1.29,0.4 1.77,-0.1 l 1.6,-1.84 c 1.26,-1.37 2.9,-1.16 4.16,0.53 0.18,1.1 -0.3,2.38 1.6,2.73 a 4.4,4.4 0 0 1 3.19,-0.62 l 1.28,-2.7 h -0.3 z m -1.5,-9 c -2.06,-1.39 -2.63,-4.34 -1.77,-7.53 q -2.78,3.28 -5.43,6.62 a 4.32,4.32 0 0 1 5.89,1.63 3.35,3.35 0 0 1 0.24,0.48 4.31,4.31 0 0 1 1.9,-0.77 4.09,4.09 0 0 1 -0.83,-0.43 m 10.2,-20.6 v 0.02 l 0.02,-0.02 h -0.02 m 0.1,1.3 a 4.22,4.22 0 0 1 -0.11,-1 1.29,1.29 0 0 1 0,-0.35 c -1.34,1.36 -2.65,2.73 -4,4.12 a 4.77,4.77 0 0 1 6.29,2.49 4.72,4.72 0 0 1 0.4,2 c 0.85,-1.37 1.71,-2.73 2.6,-4.09 a 4.33,4.33 0 0 1 -5.2,-3.2 z m 5.8,-7.7 c -0.65,0.62 -1.31,1.84 -2,2.46 h 0.37 a 4.33,4.33 0 0 1 4.29,3.72 c 1.29,-1.9 2.68,-4.34 4.09,-6.18 h -6.78 m 6.83,0 h 0.06 m 16.34,50.8 a 14.22,14.22 0 0 0 -14.62,0 h 14.65 m 27.77,-4.8 2.06,4.79 h 6.19 a 14.31,14.31 0 0 1 -8.25,-4.79 m 21.8,4.8 q -4,-6.2 -8.31,-12.29 v 0.37 c -0.11,0.56 -1.58,0 -0.8,1.87 4.45,3.1 3.83,6.54 2.07,10.05 h 7.09 m -15.65,-22.1 a 4.32,4.32 0 0 1 -6.67,4.68 4.35,4.35 0 0 1 -4.07,2.6 h -0.1 l 1.28,2.7 a 4.42,4.42 0 0 1 3.19,0.62 c 1.9,-0.35 1.42,-1.63 1.6,-2.73 1.26,-1.69 2.9,-1.9 4.16,-0.53 l 1.6,1.84 c 0.48,0.49 1.29,0.91 1.77,0.1 a 3.41,3.41 0 0 1 3,-1.6 c -2,-2.5 -3.9,-5.1 -5.9,-7.6 m -15.36,-2.08 1.31,2.51 a 4.19,4.19 0 0 1 1.85,-1.47 8.2,8.2 0 0 1 -3.16,-1.04 m 8.1,-7.2 c 0.86,3.18 0.27,6.11 -1.79,7.5 a 4.1,4.1 0 0 1 -0.83,0.43 4.31,4.31 0 0 1 1.9,0.77 4.33,4.33 0 0 1 6.13,-2.11 q -2.64,-3.33 -5.41,-6.59 m -12,-13.1 0.02,1e-4 v -1e-4 h -0.02 v 0.08 a 4.81,4.81 0 0 1 -0.18,1.26 4.34,4.34 0 0 1 -5.38,2.92 c 1,1.45 1.88,2.9 2.79,4.37 a 5,5 0 0 1 0.38,-2 4.79,4.79 0 0 1 6.3,-2.49 c -1.26,-1.42 -2.57,-2.78 -3.91,-4.14 m -12.7,-6.5 v 0.06 h 0.08 m 6.72,0.04 h -6.81 c 1.42,1.76 2.76,4.24 4.21,6.16 a 4.33,4.33 0 0 1 4.31,-3.93 c -0.56,-0.53 -1.13,-1.68 -1.71,-2.23 m 7.5,-92.15 -5.66,-2.46 0.13,1.74 a 65.73,65.73 0 0 1 13.91,6.8 v -28.34 h -5.82 l -15,15.45 v 3.76 l -3.64,3.46 a 45.05,45.05 0 0 1 23.6,10.55 v -1.61 a 77.73,77.73 0 0 0 -17.87,-9.57 v -5 l 10.35,-10.08 c 1.42,-0.46 2.07,-0.16 2.43,0.93 v 13 c -0.11,1.72 -0.94,2.15 -2.43,1.37 m -9.8,-40.36 h -7.35 l -5,3.67 3.75,3.94 1.85,-1.6 3,3.19 -8.45,7.4 v 18.94 a 1.85,1.85 0 0 1 -3.61,0 v -16.91 l -5.78,4.88 v 11.36 l 7.87,6.91 6.18,-6.26 -0.18,-18.35 7.72,-6.8 v -10.37 m -70.3,11.08 h 21.91 v 46.53 h -21.91 z m -26.8,226.8 -0.03,-0.06 v 25.98 h 28.93 v -25.92 h -28.9 m 138,-0.1 v 26 h 28.9 v -25.98 l 0.03,-0.02 h -28.93 m -40.4,-79.5 c -2,0.38 -4,-1.6 -4.55,-4.24 -0.55,-2.64 0.69,-5.25 2.7,-5.63 2,-0.37 4,1.6 4.55,4.24 0.55,2.64 -0.7,5.24 -2.7,5.63 m -23.6,-4.2 c -0.51,2.65 -2.55,4.63 -4.55,4.24 -2,-0.39 -3.22,-3 -2.71,-5.6 0.51,-2.6 2.55,-4.61 4.55,-4.24 h -0.06 c 1.99,0.35 3.28,2.95 2.77,5.6 m -29.9,-137.3 h -12.7 a 1.42,1.42 0 0 0 -1.4,1.44 v 32.27 a 1.42,1.42 0 0 0 1.4,1.44 h 12.72 a 1.43,1.43 0 0 0 1.4,-1.44 v -32.27 a 1.43,1.43 0 0 0 -1.4,-1.44 z m 119.2,243.3 h -21.7 v -18.73 h 21.7 z m -159.7,-18.7 h 21.7 v 18.73 h -21.7 z m 185.4,84.8 h -211.1 a 5.13,5.13 0 0 0 0,6.67 h 211.1 a 5.13,5.13 0 0 0 0,-6.67 m 21.5,30 h -254 a 7.52,7.52 0 0 1 0,-8.25 h 254 c 1.21,2.6 1.47,5.79 -0.02,8.25"
       fill-rule="evenodd"
       fill="#ffd700"
       id="path131708"
       style="stroke-width:0.562522" />
  </g>
</svg>
