<svg id="flag-icons-ua-09" class="fi fi-ua-09" viewBox="0 0 640 480" xmlns="http://www.w3.org/2000/svg" width="640" height="480">
  <metadata id="flag-icons">
    <name>Luhansk Oblast</name>
    <code>ua-09</code>
    <iso>true</iso>
    <type>Place</type>
    <capital>Luhansk</capital>
    <continent>Europe</continent>
  </metadata>
  <path d="M0 0h640v480H0z" style="fill:#2f2f92;fill-opacity:1;fill-rule:evenodd;stroke-width:1"/>
  <g style="stroke-width:3.74999">
    <g style="display:inline;stroke-width:.833332">
      <g style="fill-rule:evenodd;stroke-width:.833332">
        <g style="stroke-width:.833332">
          <path d="m162.069 245.861 1.272 3.917h4.119l-3.332 2.421 1.273 3.917-3.332-2.421-3.333 2.421 1.273-3.917-3.332-2.421h4.119zm-12.201 1.241 2.035 3.58 4.035-.829-2.777 3.042 2.035 3.581-3.751-1.7-2.777 3.042.458-4.093-3.751-1.701 4.035-.829zm-11.701 3.671 2.714 3.098 3.785-1.624-2.107 3.538 2.714 3.098-4.017-.911-2.107 3.539-.375-4.102-4.017-.91 3.785-1.624zm-10.722 5.951 3.282 2.488 3.38-2.352-1.352 3.89 3.282 2.488-4.117-.083-1.352 3.89-1.193-3.942-4.118-.083 3.38-2.353zm-9.305 7.989 3.715 1.776 2.838-2.985-.541 4.083 3.716 1.776-4.05.747-.542 4.083-1.962-3.621-4.05.747 2.838-2.985zm-7.507 9.697 3.997.992 2.179-3.495.292 4.108 3.997.992-3.817 1.547.292 4.109-2.651-3.152-3.817 1.547 2.179-3.495zm-5.4 11.01 4.115.167 1.431-3.863 1.112 3.966 4.115.167-3.427 2.284 1.113 3.965-3.231-2.554-3.428 2.284 1.431-3.862zm-3.074 11.872 4.064-.665.624-4.071 1.888 3.66 4.065-.665-2.897 2.927 1.888 3.66-3.679-1.851-2.898 2.927.624-4.071zm-.621 12.248 3.847-1.47-.209-4.114 2.587 3.206 3.847-1.47-2.249 3.451 2.587 3.205-3.976-1.073-2.249 3.451-.209-4.114zm1.857 12.122 3.473-2.214-1.033-3.988 3.179 2.619 3.473-2.214-1.508 3.833 3.178 2.619-4.111-.25-1.508 3.832-1.032-3.987zm4.259 11.5 2.956-2.868-1.814-3.698 3.641 1.926 2.956-2.868-.706 4.058 3.641 1.925-4.077.583-.706 4.057-1.814-3.698zm6.487 10.407 2.318-3.404-2.521-3.257 3.954 1.153 2.318-3.404.126 4.117 3.954 1.153-3.877 1.391.125 4.117-2.521-3.257zm8.449 8.889 1.585-3.802-3.125-2.682 4.106.333 1.585-3.801.952 4.007 4.105.334-3.517 2.143.951 4.007-3.125-2.682zm10.065 7.005.788-4.042-3.601-1.999 4.088-.5.789-4.042 1.738 3.733 4.088-.499-3.013 2.807 1.738 3.734-3.601-1.999zm11.27 4.836-.042-4.118-3.93-1.233 3.904-1.312-.042-4.119 2.455 3.308 3.904-1.313-2.387 3.357 2.455 3.307-3.93-1.233zm12.012 2.469-.87-4.026-4.097-.416 3.56-2.072-.87-4.025 3.07 2.745 3.56-2.071-1.663 3.768 3.071 2.745L157.6 363Zm12.263 0 .87-4.026 4.097-.416-3.559-2.072.869-4.025-3.07 2.745-3.56-2.071 1.663 3.768-3.07 2.745 4.097-.416z" style="fill:#c09f60;stroke:none;stroke-width:.833332" transform="translate(-59.428 -301.597)scale(1.5394)"/>
        </g>
        <g style="stroke-width:.833332">
          <path d="m174.269 247.102-2.035 3.58-4.034-.829 2.776 3.042-2.035 3.581 3.751-1.7 2.777 3.042-.458-4.093 3.751-1.701-4.035-.829zm11.701 3.671-2.714 3.098-3.785-1.624 2.107 3.538-2.714 3.098 4.017-.911 2.107 3.539.375-4.102 4.017-.91-3.785-1.624zm10.723 5.951-3.283 2.488-3.38-2.352 1.352 3.89-3.282 2.488 4.117-.083 1.352 3.89 1.193-3.942 4.118-.083-3.38-2.353zm9.305 7.989-3.716 1.776-2.838-2.985.541 4.083-3.716 1.776 4.051.747.541 4.083 1.962-3.621 4.05.747-2.837-2.985zm7.506 9.697-3.997.992-2.179-3.495-.292 4.108-3.997.992 3.817 1.547-.292 4.109 2.651-3.152 3.817 1.547-2.179-3.495zm5.401 11.01-4.116.167-1.43-3.863-1.113 3.966-4.115.167 3.427 2.284-1.113 3.965 3.231-2.554 3.428 2.284-1.431-3.862zm3.074 11.872-4.065-.665-.624-4.071-1.888 3.66-4.065-.665 2.898 2.927-1.889 3.66 3.68-1.851 2.897 2.927-.624-4.071zm-1.236 24.37-3.473-2.214 1.032-3.988-3.179 2.619-3.473-2.214 1.509 3.833-3.179 2.619 4.111-.25 1.508 3.832 1.033-3.987zm-4.259 11.5-2.957-2.868 1.814-3.698-3.641 1.926-2.956-2.868.706 4.058-3.641 1.925 4.078.583.705 4.057 1.814-3.698zm-6.487 10.407-2.319-3.404 2.521-3.257-3.954 1.153-2.318-3.404-.125 4.117-3.954 1.153 3.876 1.391-.125 4.117 2.521-3.257zm-8.449 8.889-1.586-3.802 3.125-2.682-4.105.333-1.586-3.801-.951 4.007-4.106.334 3.517 2.143-.951 4.007 3.125-2.682zm-10.066 7.005-.788-4.042 3.601-1.999-4.088-.5-.788-4.042-1.739 3.733-4.088-.499 3.014 2.807-1.739 3.734 3.601-1.999zm-11.27 4.836.042-4.118 3.93-1.233-3.904-1.312.042-4.119-2.455 3.308-3.904-1.313 2.387 3.357-2.455 3.307 3.93-1.233zM222.6 309.54l-3.848-1.47.209-4.114-2.587 3.206-3.847-1.47 2.249 3.451-2.587 3.205 3.977-1.073 2.249 3.451.208-4.114z" style="fill:#fff;stroke:none;stroke-width:.833332" transform="translate(-59.428 -301.597)scale(1.5394)"/>
        </g>
      </g>
    </g>
    <g style="stroke-width:.833332">
      <path d="M224.181 154.836V96.57h-92v58.266c0 25.401 20.6 46.001 46 46.001s46-20.6 46-46" style="fill:#fff;fill-rule:evenodd;stroke:none;stroke-width:.833332" transform="translate(-23.758)scale(1.2)"/>
      <g style="stroke-width:.833332">
        <g style="display:inline;stroke-width:.833332">
          <path d="M250.095 85.226c2.187 62.232 45.004 114.138 102.735 130.01 23.077-24.962 37.186-58.338 37.186-95.006V85.226Z" style="fill:#00923d;fill-rule:evenodd;stroke:#000;stroke-width:0" transform="translate(98.07 141.565)scale(.36796)"/>
          <path d="M344.766 223.285C319.827 246.23 286.55 260.248 250 260.248s-69.826-14.019-94.763-36.963c43.513-13.755 78.452-46.816 94.765-89.127 16.315 42.31 51.25 75.372 94.764 89.127z" style="fill:#005bb9;fill-rule:evenodd;stroke:#000;stroke-width:0" transform="translate(98.07 141.565)scale(.36796)"/>
          <path d="M249.905 85.226c-2.187 62.232-45.004 114.138-102.735 130.01-23.077-24.962-37.186-58.338-37.186-95.006V85.226Zm140.111-10.001V-59.79H255V75.225Z" style="fill:#da231d;fill-rule:evenodd;stroke:#000;stroke-width:0" transform="translate(98.07 141.565)scale(.36796)"/>
          <path d="M245-59.79H109.984V75.225H245z" style="fill:#00923d;fill-rule:evenodd;stroke:#000;stroke-width:0" transform="translate(98.07 141.565)scale(.36796)"/>
        </g>
        <g style="display:inline;stroke-width:.833332">
          <path d="M215.752 17.615q.17.123.372.229.326.17.725.302l.002.002v-.002c1.413.48 3.34.618 4.667.618q.034 0 .07.006c.398.03.739.171 1.01.397.343.285.568.698.657 1.17.085.44.054.939-.103 1.433-.211.67-.659 1.348-1.368 1.874a192 192 0 0 0-3.584 2.968c-1.123.95-2.216 1.884-3.177 2.711q.2.275.424.5c.933.445.64 1.297.292 2.307-.077.225-.16.464-.218.674l-2.376 11.599a.5.5 0 0 1-.06.159c-.29.586-.186 1.427-.079 2.27.248 1.965.498 3.938-2.873 4.49a.5.5 0 0 1-.284-.035l-.767-.287-.718.646c.014.204.043.397.071.583.132.843.247 1.58-.64 2.371a.5.5 0 0 1-.338.13v.002h-.008l-.051-.002a3 3 0 0 1-.47-.063c-.214.295-.616.632-.858.744a.5.5 0 0 1-.135.044l-.024.006a16 16 0 0 1-1.903.285c-1.726.167-3.641.11-5.085-.306a.51.51 0 0 1-.347-.63.5.5 0 0 1 .088-.167l-.002-.002a50 50 0 0 1 1.62-2.012c.575-.669 1.182-1.307 1.752-1.77.603-1.144 1.922-1.714 3.204-2.27l.042-.014c.737-.316 1.455-.632 1.943-1.03.327-.656.55-1.184.696-1.701a7 7 0 0 0 .234-1.556l-.28-.3-.003-.005-.002.001-.473-.52-.003-.003c-.853-.947-1.843-2.088-2.381-2.83l-.018-.026c-.21-.29-.45-.6-.694-.918-1.517-1.958-3.292-4.254-1.653-6.311q.026-.035.059-.062l.012-.011.002-.002c1.27-1.137 1.813-1.497 2.38-1.871.307-.205.624-.415 1.083-.772a35 35 0 0 0-1.676-1.515c-1.592-1.358-3.295-2.611-4.652-3.582-2.208-1.548-3.035-3.033-3.814-4.435-.79-1.415-1.527-2.74-3.804-3.933-.71.248-1.438.472-2.173.685-.82.238-1.607.45-2.39.654l-.013.004-.015.003-.009.003c-3.656.862-7.17 1.186-10.805 1.178-3.63-.006-7.365-.34-11.478-.792h-.01l-.023-.003h-.002c-.363-.035-1.131.093-1.939.226-.827.138-1.692.285-2.353.282-.008 2.564-.27 6.21-.446 8.62-.048.685-.09 1.27-.116 1.665.109 1.09.234 2.24.358 3.38.11 1.015.223 2.022.33 3.094a.5.5 0 0 1-.015.183c-.126.569-.268 1.159-.408 1.745-.134.563-.268 1.127-.397 1.709-.022 1.666-.043 3.334-.07 4.987a555 555 0 0 1-.104 5.046.5.5 0 0 1-.166.365 3 3 0 0 0-.216.229l-.018.021c-.071.086-.147.175-.216.27-.41.543-.791 1.218-1 1.61a.51.51 0 0 1-.447.269v.001h-1.059a5.3 5.3 0 0 1-.868.605 7 7 0 0 1-.642.322c.16.311.53.615.88.901.163.133.323.266.479.411a.51.51 0 0 1 .023.719q-.025.025-.052.048a7.2 7.2 0 0 1-1.324.92 11 11 0 0 1-1.612.72l-.038.013c-2.933 1.034-6.762 1.18-9.104.113a.506.506 0 0 1-.147-.824l.01-.01h.001a219 219 0 0 1 3.398-3.24c.748-.705 1.497-1.409 2.177-2.06a.5.5 0 0 1 .322-.14l1.116-.07c3.67-3.395 3.608-5.687 3.505-9.448-.017-.63-.035-1.3-.038-2.03-.354-.418-.458-1.05-.558-1.665a17 17 0 0 0-.08-.463c-.059-.295-.134-.549-.207-.797l-.008-.033c-.125-.43-.248-.848-.293-1.426-.16-1.946-.3-3.93-.437-5.912l-.012-.167c-.791-1.8-1.352-3.625-1.895-5.392-.708-2.307-1.385-4.513-2.509-6.396-2.29.076-3.418-.728-4.654-1.633a2.7 2.7 0 0 1-.61.277 4 4 0 0 1-1.082.163c-1.835.037-4.174-.95-5.284-1.654h-.002c-1.868-1.14-5.169-3.015-8.172-4.719-1.98-1.125-3.833-2.174-5.085-2.91q-.936-.088-1.515-.147a36 36 0 0 1-.87-.097c-.716.792-.857 2.192-.987 3.494-.083.832-.161 1.629-.382 2.28-.046.374-.029.769-.01 1.162.005.155.014.314.019.458l.02.026q.053.067.095.136l.021.036c.17.292.254.655.254.986 0 .17-.083.325-.215.417-.446.37-.828.489-1.135.584-.157.05-.272.086-.294.153a.64.64 0 0 0-.031.33l.003.01a.8.8 0 0 0 .16.319c.28.37.786.438 1.288.505.495.065.99.131 1.438.422a.8.8 0 0 1 .268-.05c.14 0 .267.056.36.15a9.8 9.8 0 0 1 1.819 2.16l.02.038c1.276 2.09 1.685 4.624.55 6.968a.51.51 0 0 1-.665.242l-.013-.005-.022-.012c-.723-.342-1.437-.873-2.163-1.41-.95-.702-1.924-1.424-2.859-1.661h-.01a1.2 1.2 0 0 1-.356-.145 2 2 0 0 1-.284-.21l-.002-.002-.002.002c-.393-.347-.762-.933-.871-1.248-.419-.848-.992-1.689-1.56-2.525-.693-1.018-1.384-2.032-1.848-3.125-.699-1.57.042-3.303.715-4.877.259-.606.508-1.187.64-1.686l.003-.016.003-.006h-.003c.27-1.056.325-2.213.378-3.357.063-1.369.127-2.725.54-3.951a.5.5 0 0 1 .276-.303h-.002l.04-.016-.003-.002c.434-.2.927-.626 1.422-1.05.792-.684 1.593-1.374 2.45-1.443l.027-.005c2.3-.319 4.784.053 7.294.428 1.93.287 3.878.58 5.729.549-.665-1.113-1.03-2.764.464-6.723l.01-.02.002-.007.006-.013.118-.256.006-.01.185-.376.002-.001h-.002c.366-.74.969-1.905 1.551-2.958l.128-.233c.586-1.066 1.145-2.083 2.114-2.913l.008-.006h-.002l.002-.002.006-.004.003-.003.359-.303.003-.001v-.002c.766-.642 1.518-1.273 1.92-2.177.446-1.006.715-2.188.883-3.396.17-1.23.236-2.481.278-3.605.03-.777.064-1.563.136-2.329.076-.783.192-1.54.392-2.233.073-.26.174-.55.275-.84-1.297.399-2.643.069-3.969-.253-.649-.157-1.291-.313-1.9-.366l-4.22 1.253c-.766 1.165-1.422 1.751-2.11 2.04-.738.31-1.429.262-2.303.2q-.214-.017-.428-.042h-.002a25 25 0 0 1-.552-.073h-.002c-.42-.059-.842-.118-1.216-.121h-.002c-.113 0-.241.003-.364.004-.804.014-1.554-.013-1.957-1.041a.5.5 0 0 1-.033-.185h-.002c0-.376.064-.69.12-.972.084-.413.146-.726-.295-1.12a.5.5 0 0 1-.168-.377h-.003v-.01l.002-.032c-.005-.112-.03-.313-.053-.533-.14-1.302-.275-3.476 2.315-3.836 1.802-1.8 2.581-2.643 3.457-3.588a145 145 0 0 1 2.523-2.67 4 4 0 0 1-.168-.877c-.022-.413.06-.765.288-1.07l.01-.013.012-.015.006-.006.005-.006.008-.006.017-.02c.25-.275.656-.41 1.104-.555.397-.13.84-.275 1.05-.486l.014-.013a49 49 0 0 0 1.255-1.23l.227-.226c-1.28.118-2.882-.276-3.284-2.065 1.039.874 2.149 1.098 3.528.502a.6.6 0 0 1-.1-.047c-.41-.215-.64-.697-.723-1.108.28.118.56.122.84-.032-.27-.09-.52-.361-.722-.58q-.366.082-.73.228c.781-1.186 1.294-2.042 2.493-2.566a5.3 5.3 0 0 1 1.36-.386c.048-.426.125-.853.2-1.272.105-.571.208-1.13.208-1.619a.51.51 0 0 1 .629-.494h.005q.086.017.2.062l.025.01q.09.04.201.11h.003c.358.232.777.737.777 1.809v.023a.9.9 0 0 0 .129.35l.02.035c.03-.198.069-.39.108-.577.149-.704.282-1.334-.588-2.128-.35-.317-.1-.892.352-.881v-.002l.07.002.009.001v-.001c1.763.125 3.857 1.598 5.158 3.385 1.379.098 2.691.765 3.931 1.556l.003.003c.795.514 1.574 1.096 2.245 1.768a72 72 0 0 1 2.985 1.669c.818.485 1.599 1.027 2.383 1.565.375.258.717.395 1.298.225.316.715.267 1.456-.437 1.863.437.508.85.97 1.173 1.524.237.407.327.855.676 1.184.656.616 1.497 1.003 2.16 1.623 0 .57.06 1.103.24 1.65.124.383.284.739.444 1.092v.002c.348.776.693 1.544.738 2.558.308.267.638.372.918.462.674.216 1.175.378 1.211 1.318.78.687 1.089 2.973 1.316 4.648a13.6 13.6 0 0 0 .609 2.696c.45 1.363.977 1.186 1.54.649a13 13 0 0 0 1.638-1.926c.374 1.428.525 2.262-.435 3.665.946.086 1.476-.469 2.052-1.06.523 1.432.181 2.275-1.004 2.936.822.661 1.742.929 2.8.09.476 3.02-1.904 2.649-3.79 1.693-.161.314-.37.727-.447 1.039-.49.35-.642.656-.115 1.49.381.601.965 1.275 1.25 1.904.603.38 1.253.716 1.959 1.001v-.001c2.396.942 5.347 1.302 8.452 1.308 3.138.007 6.434-.345 9.49-.818l1.334-.209c5.18-.813 10.102-1.59 15.45-.718 1.246.202 2.481.626 3.674 1.152.986.433 1.95.942 2.864 1.452q.079-.2.17-.41V-9.9c.394-.933.945-2.1 1.303-2.753v-.002l.002-.001.005-.01h-.002c.373-.678.798-1.356 1.272-2.012a18 18 0 0 1 1.55-1.882c2.913-3.088 6.985-5.169 11.78-4.137 1.114.239 2.073.541 2.915 1.043.858.51 1.577 1.219 2.193 2.259l.005.006.005.008.01.018c.714 1.215 1.342 2.73 1.966 4.234.92 2.22 1.834 4.418 2.923 5.42a.509.509 0 0 1-.404.88c-.901-.025-1.48-.228-1.895-.484.114.98.135 2.16.158 3.394.042 2.257.087 4.696.707 6.145a.51.51 0 0 1-.642.675c-.63-.205-1.007-.399-1.326-.71l-.084-.085c-.2 1.552-.403 3.357-.492 5.149-.117 2.316-.047 4.613.444 6.284a.5.5 0 0 1 .021.137c.19 1.974.719 3.883 1.807 5.529 1.09 1.645 2.754 3.034 5.218 3.964a.51.51 0 0 1-.054.97l-.05.018-.044.013c-1.74.536-4.03-.396-5.972-1.736-1.925-1.324-3.55-3.08-3.947-4.187l-.003-.01h-.002l-.015-.042c.032.576.175 1.758.316 2.913l.017.127a.508.508 0 0 1-.914.365 13 13 0 0 1-1.938-2.834c-.522-1.024-.932-2.117-1.27-3.25l-.003-.017a29 29 0 0 1-.826-3.481c-.2-1.18-.313-2.38-.304-3.599v-.004l.006-.456v-.004c.014-.705.047-1.385.08-2.064.079-1.629.16-3.253-.022-4.796-.2-.332-.363-.59-.403-.598-.002.01-.06.29-.21 1.053a.509.509 0 0 1-.995.01h-.002l-.008-.033c-.376-1.709-.125-3.432.073-4.793v-.002q.061-.399.107-.777c.068-.56.029-1.004-.127-1.391-.159-.398-.449-.768-.875-1.175a5 5 0 0 0-.436-.375c-1.18-.912-2.806-1.435-4.436-1.42-1.615.015-3.231.566-4.412 1.801l-.077.085q.38.338.728.724.51.566.935 1.189c1.453 2.129 2.277 4.823 2.422 7.232l.003.05.002.02c.04.704.033 1.424-.015 2.15a19 19 0 0 1-.281 2.206c-.688 3.704-2.47 7.38-5.158 9.893v.671zm-17.016.374-.024-.129" style="fill:#000;fill-rule:evenodd;stroke:none;stroke-width:.833332" transform="translate(98.07 141.565)scale(.36796)"/>
          <path d="M221.514 19.782c-1.402 0-3.449-.153-4.988-.673a6 6 0 0 1-.871-.366 3.7 3.7 0 0 1-.73-.49.51.51 0 0 1-.19-.397v-1.134h.002a.5.5 0 0 1 .166-.375c2.612-2.362 4.343-5.9 5.008-9.48.129-.694.218-1.395.265-2.09a16 16 0 0 0 .015-2.037l-.002-.005q0-.025-.003-.05c-.135-2.24-.898-4.745-2.247-6.72a10 10 0 0 0-.847-1.08 8.4 8.4 0 0 0-.97-.917l.002-.001-.018-.014-.016-.012a.506.506 0 0 1-.092-.71q.224-.29.458-.536c1.387-1.452 3.27-2.097 5.14-2.115 1.855-.019 3.709.585 5.065 1.631q.279.213.517.442c.53.506.899.987 1.118 1.533.222.556.283 1.157.193 1.891-.028.236-.07.511-.111.803-.117.806-.253 1.748-.253 2.719a.73.73 0 0 1 .419-.116h.025c.5.027.893.548 1.271 1.182q.056.09.068.2c.21 1.669.127 3.37.046 5.074a82 82 0 0 0-.082 2.035l-.005.422-.002.024v.005a20 20 0 0 0 .292 3.425 29 29 0 0 0 .803 3.375c.319 1.076.709 2.11 1.202 3.08.222.434.467.857.733 1.26-.094-1.067-.101-1.986.168-2.402a.5.5 0 0 1 .147-.16c.403-.281.881-.106 1.457.723h-.002q.043.058.065.13l.018.053c.338.931 1.804 2.476 3.567 3.69 1.006.693 2.098 1.27 3.11 1.543-1.589-.921-2.768-2.076-3.63-3.377-1.187-1.793-1.763-3.858-1.969-5.983-.515-1.792-.59-4.18-.471-6.576.12-2.39.43-4.787.685-6.592h.002a.506.506 0 0 1 .944-.177c.258.464.432.772.62.976-.343-1.539-.379-3.485-.412-5.316-.036-1.89-.07-3.656-.43-4.577l-.002-.003a.508.508 0 0 1 .7-.643c.235.118.394.285.574.472.164.173.358.374.67.532-.814-1.233-1.516-2.92-2.22-4.617-.614-1.48-1.233-2.972-1.913-4.125l-.008-.012-.005-.008c-.522-.882-1.124-1.477-1.836-1.9-.726-.433-1.587-.7-2.605-.919-4.385-.943-8.135.985-10.828 3.84a17 17 0 0 0-1.467 1.778 19 19 0 0 0-1.202 1.906l-.008.011c-.34.622-.872 1.753-1.26 2.666h-.001q-.115.269-.204.496a9 9 0 0 0-.147.391l-.003.005q0 .005-.003.008a.507.507 0 0 1-.733.284c-1.035-.585-2.142-1.189-3.286-1.692-1.125-.496-2.282-.894-3.428-1.08-5.19-.845-10.034-.083-15.133.718l-1.333.21c-3.102.478-6.45.837-9.644.83-3.227-.007-6.303-.385-8.823-1.375v-.002l-.003-.001a13.3 13.3 0 0 1-3.474-2.046c-3.116-1.024-5.612-7.257-8.193-13.696-1.443-3.602-2.914-7.272-4.485-10.054h-.002l-.04-.07c-.82-1.444-1.616-2.213-2.748-3.308l-.199-.192-.002-.002c-.85-.825-1.512-1.634-2.132-2.398-1.268-1.557-2.377-2.915-4.704-3.726-.093.569-.27 1.101-.482 1.65l-.292-.12c-1.205-2.434-1.18-2.998-1.18-4.576 0-1.16-1.168-2.061-2.009-2.651 1.133.977 1.713 2.33 1.67 4.098-.022.798.027 1.804.555 2.156.234.156.866.782.866.984l-.346.11c-.086-.243-.36-.506-.587-.601-1.028-.431-1.66-1.506-1.397-2.62.475-2.022-.76-3.595-1.688-4.482.127.592-.033 1.176-.148 1.755.31.528.378.97.418 1.41.042.458.045 1.026.287 1.431l.002.002c.24.385.596.762.868 1.13-.458.235-.997.358-1.422.616-.638.389-.759.864-1.681 1.204.175-.389.296-.873.389-1.219-.238.177-.505.343-.775.513l-.008.004-.057.038-.07.042-.003.003-.008.003c-.484.307-.948.63-1.2 1.048-.215.357-.78 1.28-.45 2.913-.64-.294-.955-1.083-1.046-1.857l-.369.36c-.291.548-.53 1.256-.703 1.788-.112-.223-.181-.533-.217-.866a42 42 0 0 1-.852.822 2 2 0 0 1-.411.313q.009.092.009.218c.953.121 1.73-.364 2.424-.931-.953 1.783-8.351 7.29-7.917 9.314l2.378-2.105c-1.125 2.39-2.596 3.442-3.936 2.916-.218-.65.346-1.378.865-1.945 2.38-2.43 3.071-3.4 5.235-5.386.464-.402.162-1.105.042-1.704l-.143.045c-.31.102-.592.194-.658.26l-.002.002c-.074.098-.1.234-.09.407.013.242.09.544.206.905a.51.51 0 0 1-.116.52c-1.326 1.364-2.05 2.148-2.716 2.866a109 109 0 0 1-3.587 3.721.5.5 0 0 1-.328.165c-.483.05-.828.203-1.073.417.044.714.08 1.815-.534 2.15l.017.176c.039.375.056.426.275.712.446.582.348 1.065.227 1.665-.158.785-.02 1 .86.986.124-.003.246-.005.381-.005h.008c.762.005 1.508.185 2.264.236.742.053 1.329.094 1.837-.12.446-.187.898-.582 1.44-1.347.463-.654.553-.666 1.439-.928l3.654-1.087v.001a.5.5 0 0 1 .179-.02c.709.052 1.429.227 2.152.403 1.492.363 3.013.732 4.27-.15q0 .002.002.003a.506.506 0 0 1 .783.532c-.097.403-.228.782-.36 1.16-.086.251-.175.505-.262.81-.183.64-.29 1.336-.36 2.052a42 42 0 0 0-.131 2.269c-.044 1.156-.112 2.443-.287 3.709-.179 1.29-.47 2.563-.962 3.671-.496 1.114-1.328 1.817-2.179 2.53l-.009.009-.008.004-.337.285-.035.031-.006.005v-.002c-.82.708-1.337 1.644-1.875 2.624l-.128.233a80 80 0 0 0-1.53 2.918l-.003-.002q-.082.171-.166.339-.005.014-.012.027l-.11.24C134.186-1.844 134.28-.38 134.7.557c.35.783.7 1.385 1.034 2.186.153.365.323.738.506 1.109.95 1.923 2.343 3.952 4.191 5.569 1.497 1.228 2.194 2.685 3.065 4.187.457.786 1.139.91 1.84 1.416 1.004.73 2.005 1.361 3.865 1.283.252-.012.47-.052.623.226 1.288 2.05 2.016 4.414 2.775 6.891a63 63 0 0 0 1.973 5.572c.17 2.156.25 4.1.414 6.118q.023.242.058.456l.275-.214.81.106c.888-.516 1.807-.98 1.707-1.863.259-.029.354 0 .626.16-.875-1.444-1.061-3.34-1.144-4.827l-.65-.87c.034-1.38.362-2.731.304-4.11.44.28.774.748.724 1.696-.374.42-.439 1.363-.03 1.789.096-.018.352-.085.429-.145.511-1.26.417-2.964.17-4.266-.243-1.26-.516-2.46.213-3.317l.473.098c-.006 1.35.257 2.66.37 3.998.313 3.668-.606 3.358-.74 5.226-.07.97.15 1.94.385 2.956l.115.506c-.014.5-.157.948-.352 1.405.313.159.474-.038.683-.227.541 1.325.749 2.317.2 3.678-.518.077-.672-.335-.905-.758-.18-.327-.388-.706-.624-.87-.49.25-1.518.568-1.632 1.123.288.35.719 1.115.604 1.604-.047.195-.17.304-.386.286-.28-.023-.54-.297-.735-.478 0-.378-.196-.653-.416-.938a8 8 0 0 1 .132.908c.05.521.237.784.48 1.08l.003.296c.143-.303.3-.515.458-.534l.284-.032v.284c0 .899.11 1.786.215 2.67.22 1.826.413 3.577-.206 5.39a1.9 1.9 0 0 1 .959-.331c.64-.985.63-4.56.61-5.145a28 28 0 0 0-.144-1.956c-.112-1.007-.303-1.993-.511-2.983.105.104.694.765.787.675v-.001l.002-.002c.202-.204.322-.325.472.067h.002c.032.083.03.234.026.602-.002.189-.003.46-.003.99q.122.49.227.95l.005-.486q.004-.026.006-.053a74 74 0 0 1 .419-1.82c.131-.55.264-1.102.39-1.672-.096-.952-.209-1.981-.32-3.01-.122-1.11-.244-2.227-.36-3.402l-.004-.03q0-.023-.003-.044l.002-.036c.029-.469.071-1.043.12-1.71.181-2.516.46-6.378.444-8.882l-.008-.916c.289.087.596.216.9.236 1.774-1.125 4.347-2.766 3.74-4.958l-1.5-.18c2.837-.847 3.258-1.665 4.558-4.08-.399 2.061-.768 4.092-1.683 6.014l-.002.003a1.9 1.9 0 0 1-.334.456c-.15.165-.343.354-.562.552h-.002c-.796.721-1.968 1.604-2.766 2.063.28-.043.572-.093.859-.141.886-.147 1.725-.287 2.221-.234h.01l.023.003v.001c4.089.45 7.795.782 11.363.788 3.56.006 7.007-.313 10.599-1.161.804-.212 1.6-.424 2.352-.642a42 42 0 0 0 2.321-.742h.003c1.904-.66 4.06-1.616 6.145-2.64a91 91 0 0 0 2.383-1.214l.011-.003.009-.005.197-.097c1.433-3.087 1.252-5.721 1.075-8.307l-.186-5.079.712 1.024 1.252 5.85c.532.629.384 1.594.212 2.351 1.383-2.37 3.031-4.847 2.987-7.53-.062-3.748-1.935-5.517-4.75-7.283 2.525.485 4.71 1.354 6.098 4.21h.002l.005.011c.399.827.632 1.732.716 2.645.244 2.6-.609 4.875-1.944 7.03.053-.68.044-1.292-.213-1.859l-.31.144c.273.85.012 2.068-.589 2.652-2.287 2.223-4.707 5.339-6.22 8.986-.023.254-.015.498.035.729h-.002q.003.006.002.01l.005.019c.275 1.503 4.604 3.774 8.48 4.97.764.236 1.513.43 2.208.56.685.132 1.314.206 1.848.21v-.004h.215l.145.124c.355.303.535.643.535 1.04 0 .355-.155.719-.465 1.117l-.017.02c-1.385 1.593-3.086 3.203-4.435 4.393v-.001c-.251.22-.503.438-.742.643v.001c-.208.175-.42.354-.632.526l-.014.012c-.514.404-.863.635-1.202.86-.537.355-1.054.7-2.24 1.758-1.102 1.433.398 3.373 1.682 5.032.254.33.503.65.727.962q.004.002.006.006c.516.71 1.48 1.822 2.314 2.745l.471.52.409.444v-.002a26 26 0 0 0 1.61 1.532q.501-1.466.998-2.929l.04-.216c.152-.847.312-1.73.208-2.684-.109-.433-.717-.729-1.308-1.015-.736-.357-1.455-.706-1.689-1.397-.339-.009-.635-.04-.892-.14-.478-.188-.745-.539-.745-1.218v-.51h.51a.8.8 0 0 0 .224-.084 1.1 1.1 0 0 1-.128-.491q0-.003-.002-.005v-.228q.084-.078.17-.153l1.254-1.13c1.585-1.427 2.882-2.596 4.59-4.099l.004-.001a460 460 0 0 1 3.67-3.138 191 191 0 0 1 3.611-2.989c.467-.411.945-.803 1.105-1.74.099-.791-.195-1.268-.745-1.325zm-70.77 32.386c-.696.663-1.354 1.282-2.009 1.896a305 305 0 0 0-2.82 2.679c2.144.656 5.373.53 8.394-.723.766-.316 1.08-.53 1.282-.682-1-.536-1.774-1.17-2.47-1.743-.83-.684-1.548-1.275-2.378-1.427m-30.25-28.506c.84.402 1.606.97 2.36 1.529.527.39 1.05.778 1.552 1.072.697-1.863.307-3.847-.723-5.531a9 9 0 0 0-.756-1.045 9 9 0 0 0-.676-.715l-.055.437c-.144 1.224-.336 2.868-1.701 4.253m2.796-22.376a14 14 0 0 0-2.24.103c-.57.041-1.248.625-1.92 1.204-.421.364-.842.73-1.268.996h.125l-.037 1.134c.488-.004.975-.04 1.465-.04-.003.69.078.665.617 1.165-.84.29-2.444.73-2.704 1.706l-.172.646c-.055.87-.144 1.732-.354 2.557l-.003.009c-.154.59-.419 1.206-.693 1.846-.14.331-.284.671-.415 1.011.455-.018.889.132 1.292.51-.432.39-1.041.865-1.09 1.49-.048.607.38 1.28.657 1.785-.041.138-.273.408-.481.587.33.552.701 1.1 1.075 1.648.588.865 1.178 1.733 1.66 2.719.07.226.322.615.605.863l.04.021c1.414-1.2 1.6-2.793 1.737-3.954.025-.225.05-.435.083-.633a4 4 0 0 0-.744-.152c-.714-.093-1.432-.19-1.969-.902a1.84 1.84 0 0 1-.345-.722 1.64 1.64 0 0 1 .062-.864c.15-.456.443-.617.774-.738 1.463-.539.413-.354.39-1.216-.008-.6-.033-1.181.023-1.848.257-.74.366-1.48.384-2.218.167-1.58.34-3.29 1.49-4.308l.295-.083c.494-.024.754.04 1.196.085.479.05.996.1 1.618.157l.104.035c1.299.735 3.218 1.825 5.275 2.992 3.026 1.718 6.354 3.608 8.2 4.736l.005.003c1.01.64 3.112 1.536 4.73 1.503.298.021.555-.02.777-.103-.571-.484-.928-1.125-1.336-1.863-.504-.909-1.101-1.985-2.347-3.056l-.005-.003c-1.698-1.486-3.027-3.296-4.001-5.073-.724-.189-1.958-.963-2.217-1.164-.098 0-.211.003-.311.017.45.477.506.973.398 1.607.202.128.512.216.833.305.518.147 1.058.3 1.38.68l.006.007.038.048.212.27c-.954.518-3.23-.052-3.66-1.487-.057-.184.134-.493-.087-.618a.6.6 0 0 0-.186-.097c.085.927.077 1.483-.229 1.819-.64.708-2.555.189-3.455.074.973-.345 1.912-.307 2.34-.856.181-.233.127-.587.114-1.036-.41-.124-.687-.136-.967-.56.664-.707 1.436-.6 2.247-.932l-.156-.133c-1.316.033-2.805-.251-4.083-.14.053.147.093 1.079.06 1.162-.941-.525-4.556-1.39-6.617-1.104-.32-.289-.462-.785.207-.792h.008l.02.001 2.977.316a10.6 10.6 0 0 1-2.1-.672zm90.963 28.707a493 493 0 0 0-4.293 3.838l-.066.059c.28.789.413 1.745.393 2.954l-.006.277c.212.138.473.266.74.395.82.397 1.666.807 1.864 1.738q.009.04.012.08c.04.365.048.714.033 1.055l1.6-7.812h.002l.006-.035c.077-.275.16-.514.239-.744.189-.548.346-1.008.187-1.08a.5.5 0 0 1-.155-.099 5 5 0 0 1-.555-.626zm-1.997 13.686-.901 2.647a.508.508 0 0 1-.838.198l-.504-.449h-.002a29 29 0 0 1-.925-.846c-.045.307-.107.6-.189.89-.17.607-.428 1.207-.804 1.955l-.005.01-.003.005a.5.5 0 0 1-.123.158c-.603.529-1.433.893-2.282 1.26l-.04.019c-1.136.49-2.305.996-2.728 1.846a.5.5 0 0 1-.16.213c-.542.425-1.133 1.047-1.699 1.703-.387.45-.759.916-1.1 1.35 1.199.218 2.63.227 3.958.099.301-.03.614-.069.93-.115q.445-.069.847-.155c.127-.077.311-.248.42-.402l.023-.033a.51.51 0 0 1 .502-.439c.118 0 .274.035.455.07.058.01.118.024.174.033.315-.387.247-.824.17-1.312-.046-.301-.096-.62-.096-.956h.002a.5.5 0 0 1 .168-.378l1.123-1.011.003.003a.5.5 0 0 1 .515-.102l.954.359c2.266-.427 2.082-1.887 1.897-3.34-.124-.985-.246-1.968.164-2.818zm-5.288-13.67q.279-.242.611-.535v-.001c1.321-1.166 2.986-2.743 4.34-4.296l.012-.012q.132-.174.184-.304a9 9 0 0 0-.098-.305 10 10 0 0 1-.357-.021l-.009-.002-.216-.02h-.005l-.008-.001-.02-.002-.028-.004-.03-.003-.028-.003-.029-.003-.02-.003a13 13 0 0 1-1.034-.159 22 22 0 0 1-2.315-.588 28 28 0 0 1-2.09-.741c-1.815-.712-3.566-1.59-4.854-2.47-.592-.407-1.094-.817-1.466-1.215-.412-.44-.683-.881-.768-1.308h.002l-.003-.009-.027-.144-.008-.048-.002-.015a3.6 3.6 0 0 1-.018-.844l.006-.053.002-.013.006-.053.002-.012.008-.053.002-.014.006-.054.002-.011.009-.054.003-.012.009-.055.002-.01.01-.056.003-.011.01-.056.002-.01.014-.057.002-.009.012-.056.003-.01.013-.056.002-.01.014-.057.002-.009.017-.057.002-.01.015-.057.003-.007.015-.058.003-.009.016-.057.002-.008.019-.057.003-.008.016-.059.003-.006.02-.059.002-.006.02-.059.002-.008.02-.057.003-.006.02-.059.002-.006.022-.057.003-.006.02-.06.002-.007.023-.057.002-.005.023-.06.002-.005.024-.059.002-.004.024-.06.052-.126.002-.003c.131-.315.275-.617.418-.905h.002l.028-.057v-.002l.028-.055h.002l.026-.056-.231.116-.093.047-.015.007-.016.008-.015.01h-.005l-.011.007-.015.007-.017.008-.015.007-.016.008-.003.002-.046.022-.03.017h-.004l-.023.012-.025.012-.017.008a74 74 0 0 1-4.296 1.977l-.013.005v.001l-.018.006-.019.008-.018.008-.092.039-.018.008-.018.007-.014.005-.005.003-.018.007-.018.008-.018.007-.038.016-.292.118-.009.003-.018.007-.018.008-.42.166-.017.006-.002.002-.02.007-.02.008-.019.007-.035.014-.003.001-.028.011-.126.048-.013.005c1.943 1.208 2.668 2.513 3.438 3.895.724 1.3 1.492 2.68 3.511 4.096v.002h.003c1.375.984 3.1 2.254 4.725 3.64a35 35 0 0 1 1.803 1.637zm-48.847 21.053c.296-.51.623-.996 1.03-1.43q.026-1.039.048-2.078c-.25.251-.58.39-.945.333l-.452.202c.526.454.765 1.154.765 1.83-.337.256-.48.776-.854 1.022.154.044.29.071.408.121m-5.416.913c.287.203.571.43.864.672.259-.61.837-1.075 1.43-1.364H155a4.5 4.5 0 0 1 1.9-.45v.002l.074.002c.51-.377.468-.94.28-1.618h-.003l-.03-.094c-.434-.036-.705-.2-.836-.425l-.036-.07-.124.23c-.785 1.426-2.031 2.884-3.52 3.115m-5.887-99.187c2.7.891 3.913 2.38 5.31 4.097.602.738 1.24 1.52 2.05 2.307 4.077 3.939 5.59 8.678 7.714 13.978 2.36 5.892 4.65 11.603 7.102 12.92-.717-.682-1.001-2.29.186-2.738 0-.301.18-.724.277-1.01a2.93 2.93 0 0 1-.94-1.346c.616.411 1.489 1.556 2.45 1.093-.484-.269-1.202-.538-.836-1.235v-.002c.159-.297.507-.49.783-.662-.964.247-1.825.04-2.354-.591.588-.172 1.009-.64 1.148-1.406-.738.79-1.701 1.327-2.509.211-.812-1.122-1.093-2.75-1.274-4.099-.11-.822-.335-3.82-1.172-4.023.031-.546-.012-.906-.658-1.113-.662-.212-1.137-.496-1.618-1.001.079-1.024-.336-1.837-.74-2.757-.329-.74-.642-1.507-.686-2.516-.538-.422-1.148-.745-1.67-1.191-.6-.51-.692-.986-1.04-1.602-.542-.958-1.504-1.863-2.22-2.638.252.205 1.484.233 1.582-.357-.67-.114-2.104-1.02-3.314-1.72a94 94 0 0 0-3.174-1.776l-.056-.054-.003-.006c-1.161-1.193-3.28-2.615-4.91-3.014.333.699.637 1.462.572 2.251m-6.115-.11c-.664-.872-1.593-1.529-2.883-.928l.426.043-.697.543c.042.221.056.433.012.655.266.49.548.968.413 1.553.806-.732 1.861-1.23 2.73-1.866m.121-1.025v.934l.32-.24c-.122-.24-.23-.482-.32-.694m-1.157-1.468c-.146-.257-.264-.534-.287-.834-.066.36-.134.722-.187 1.085.152-.084.311-.174.474-.251" style="fill:#c09f60;fill-rule:evenodd;stroke:none;stroke-width:.833332" transform="translate(98.07 141.565)scale(.36796)"/>
          <path d="M159.888-10.059c-.858.4-1.828.381-2.724.663-.753.236-.655.55-1.124 1.076-.438.492-1.104 1.032-1.789 1.585-1.057.857-2.162 1.752-2.414 2.431 1.719-.139 3.248-1.424 4.713-2.653 1.81-1.521 2.68-2.287 5.067-2.677-1.813 1.101-2.852 2.019-4.07 3.377-1.51 1.805-3.092 2.534-5.136 3.106-2.16.604-2.272 1.115-2.356 1.447-.291 1.04-1.22 1.539-2.117 2.03-.34-.332-.51-.654-.417-1.15.2-1.066 1.483-2.385 2.233-3.152.645-1.566 1.962-2.983 3.377-4.164l1.907-1.488c.874-.515 4.676-1.953 4.85-.43m-16.443-18.723c-1.47-.447-3.418-1.703-3.418-3.403-.087.728-.087 1.822.303 2.47-1.039 0-2.769-.08-3.764.081a14.5 14.5 0 0 0-3.46 1.943c.528-.284 3.967-1.349 4.109-1.376 2.164 0 4.76 1.376 6.23.284M130.33-30.6c.016-.077.022-.147.03-.201h-.003c.021-.162.09-.386.292-.407.438-.047.686 1.118.699 1.403.048 1.062-.555 2.253-1.446 2.746-.936.517-2.1.24-2.802-.458.827.194 1.46.275 2.21-.134-.438.189-.902.14-1.49-.353-.398.044-.85-.033-1.08-.399-.204-.328-.168-.79-.033-1.169l.008-.018c.339-.757 1.061-1.241 1.878-1.358.585-.081 1.237.018 1.737.348m6.071-6.36c.404-.012 1.172-.468 1.56-.673.526.117 1.204.236 1.785.152.602-.088 1.092-.377 1.222-1.056l1.119.07-.982-.932c-.802-.491-1.983-1.356-2.968-1.884-.635.049-1.026.402-1.226.886-.21.516-.189 1.025.08 1.494-.304.142-.647.281-.91.492-.336.269-.339.55-.244.905.071.263.164.558.564.546m1.75-.423c1.427.526 1.786.355 3.417-.365-.777.688-2.248 1.499-3.33 1.499-.432-.608-.692-.77-.087-1.134m23.782 14.671.536.51 1.82 4.093c.13.535.264 1.07.433 1.594l-.07.106-.004.004c-.053.077-.12.168-.193.265l-.002.001q-.099.128-.235.292l-.002.002c-.376.452-1.83 2.163-2.563 1.858-.38-.159-.303-.844-.303-1.187-2.098 0-4.298.876-6.149 1.8l-.002.002h-.005l-.222-.455q.519-.277 1.05-.524c1.982-.897 4.11-1.643 6.323-1.665.469-.496.853-1.16.266-1.716a1.7 1.7 0 0 0-.284-.214c-.561-.335-1.235-.483-1.858-.662l1.462-4.104zm-10.338.605-.16-.81c1.992-.472 2.395-2.099 2.038-3.868-.581-2.87-2.353-5.434-3.918-7.663l.762-1.039.22.331c3.104 4.5 4.643 9.19 4.762 14.6l-.053.073-.003.005c-.772 1.116.062 2.309.882 3.127l-.43.118-.02.006-.293.081h-.002l-.288.08-3.611 1.072c1.374-2.234.617-3.85.113-6.113zm-10.836 9.854c2.385-1.26 2.773-7.179 2.855-9.393.083-2.163.132-4.049 1.072-5.981l1.181-.526-.523 1.155.842.978.643-.322-.276.64-.003.006c-.698 1.642-1.478 3.241-2.04 4.936a22.6 22.6 0 0 0-.926 3.908c-.362 2.532-.251 4.937.25 7.504l-.486-.01c-.756.05-.894 1.135-1.12 1.962-.35 1.273-.627 2.574-.77 3.883l-.507-.045c.099-1.396.342-2.776.445-4.172.127-1.739.375-3.138-.637-4.523M136.15 2.06c-1.538-2.079-1.486-2.815-.89-5.52.15 1.13.382 2.079.907 2.333l.012.269v.003c-.096.996-.168 1.976-.03 2.915m-.09.242 1.218 1.037c-.22-.635-.312-1.268-.346-1.905.428.981.887 1.911 1.44 2.702.094 1.385.739 2.77 1.4 4.154-1.502-1.865-2.738-3.758-3.713-5.988m8.562.892c.178.892.023 1.196 1.031 1.308-.964 1.842-.842 3.593.25 5.985l-.864.314c.165.632.394 1.231.625 1.84-.486-.312-.874-.598-1.44-.725-.048-.49.141-.888.17-1.375v-.001l.006-.109c-1.834-1.684-.475-5.31.222-7.237m5.374 12.138 1.16-.368.109 2.853zM166.28-1.754l1.314-.309.257.224c1.263-2.707 1.736-5.206.339-7.97 3.114 1.318 1.965 6.44-.248 8.049.426.369 1.114.892 1.132 1.509.02.673-.701 1.224-1.284 1.75 0-.88.099-1.847-.131-2.26-.22-.395-.71-.647-1.38-.993M155.33 29.629h1.116c0 .349.302 5.02.345 5.02v.123l-.762.57c-1.196-1.115-.699-4.245-.699-5.713M216.565.458l1.057.478c1.703 1.477 1.081 4.864-.26 6.07l-.246-.448-.253-3.136c-.51.651-1.005 1.667-1.379 2.77l-.422 1.537-.003.014-.022.115c-2.639 1.866-4.97 3.35-8.483 3.044 4.412-.932 9.02-4.854 10.011-10.444" style="fill:#000;fill-rule:evenodd;stroke:none;stroke-width:.833332" transform="translate(98.07 141.565)scale(.36796)"/>
          <path d="M130.518-29.741c-.53-.548-1.063-.815-1.855-.703-.717.101-1.473.61-1.555 1.382.132-.156.413-.14.65-.097.19.035.378.09.563.142h.002c.112.03.225.065.34.092.31.076.546-.01.838-.09.263-.076.515-.126.804-.07l.216-.258c.037.263.068.526.043.789.227-.522.378-1.136.196-1.698-.063.177-.158.345-.242.51zm9.263-9.023c-.55-.382-1.335-.609-1.973-.896.806-.357 1.737-.06 2.475.688 0 .432-.333.694-.63.845l-.357-.201c.131-.076.394-.284.485-.436m-.933-1.45c-.452.18-1.066.365-1.52.093.064-.454.384-.637.89-.333.199.12.41.172.63.24" style="fill:#c09f60;fill-rule:evenodd;stroke:none;stroke-width:.833332" transform="translate(98.07 141.565)scale(.36796)"/>
        </g>
        <g style="display:inline;stroke-width:.833332">
          <path d="M353.595 104.57c1.082-1.27 1.113-3.2.242-4.586-.876-1.393-2.466-1.88-3.997-1.34l-.859-.871.378-.06-1.666-1.667.28-.097-2.6-1.217.24-.248-2.961.174.15-.323-2.963.765-.397-.123.248-.384-2.438-.22.221-.515-2.481.495.044-.452c-1.127.555-2.58 1.049-3.437 1.94-1.136 1.18-1.715 2.49-2.197 3.94-5.13 2.515-4.388 10.392-.39 13.772l.065.057-.877 2.987.564-.14-.632 2.728.597-.193-.392 2.719.584-.286-.086 1.828.493-.13-.008.097c-.025.332-.046.636-.11.907a2 2 0 0 0-.167-.44c-.233-.427-.63-.606-1.07-.746a2 2 0 0 1-.394-.15h-.002a9 9 0 0 1-.292-.169h-.003c-.586-.35-1.323-.697-2.015-.43-.383.146-.726.542-.783.957-.634.296-1.015.948-.885 1.65-.493.388-.621 1.026-.425 1.604-.168.184-.27.403-.304.633-.12.809.646 1.496 1.294 1.807.215.103.524.135.707.281.177.142.184.513.234.732.175.767.64 1.364 1.175 1.917q.2.208.395.363l-.203.28-.086.015.045.04-1.955 2.7.623.002-2.477 3.02 1.181-.137-1.524 3.244.806-.24-1.2 2.996.645-.145-1.843 2.678.52-.009-2.572 2.165.706.153-2.295 1.627-.791.561.624.13c-.594.423-1.15.93-1.374 1.712a.4.4 0 0 1-.058.124c-.002.002-.204.267-.387.5-.223.288-.55.461-.75.734a1.5 1.5 0 0 0-.246.571c-.095.458-.033.926-.135 1.403-.068.318-.2.625-.26.938-.125.66.108 1.401.656 1.813.14.342.569 1.175 1.384.989.316.17.951.394 1.521-.132.345.168.874.266 1.372-.293h-.002c.391-.42.367-.94.346-1.417-.012-.259-.023-.494.032-.519.167-.074.332-.216.508-.39.18-.181.349-.37.532-.55.262-.088.541-.147.788-.274l.072.569 1.166-1.243.003.384.857-.715-.647 2.92-.177.8.394-.167-1.021 2.784-.277.754.266-.068-2.375 3.442.65-.034-2.581 3.706.862-.002-.802 4.747.787-.47.003-.002 1.107 4.994.458-.682 1.734 4.235.381-.83 2.465 2.999.25-.661 2.001 1.659a2.5 2.5 0 0 0-.396.051h-.003c-.25.07-.503.212-.638.375-.012.017-.098.04-.236.073-.736.17-1.609.1-2.209.683-.088.085-.112.116-.233.11-.207-.012-.432.065-.641.195-.494.309-.977.997-.752 1.603.13.351.478.55.806.682-.054.892 1.007 1.137 1.705 1.04.263.29.786.717 1.486.577h.006c.239-.053.364-.088.428-.11.097.144.246.323.462.476l.01.008.001.002v-.002l.047.028.003.002.052.029h.002c.765.375 1.947.026 2.37-.662v-.002c.25-.102.8-.176.88-.052.185.333.654.46.984.58l.01.004c.26.087.511.084.7.056.298.37.933.983 1.738.71l-.002-.001a.13.13 0 0 0 .072-.06c.537.57 1.302.816 2.08.765.442-.03.87-.194 1.301-.619a3.3 3.3 0 0 1 1.305-.133c.756.062 1.302.298 2.093.28.541-.012 1.395-.11 1.548-.741 1.239.28 2.492.484 3.75.652 4.143.551 8.372.713 12.544.496l.402-.354 2.479.275c.813.09 1.689.186 2.074 1.107a1.535 1.535 0 0 0 1.707-.126c.251-.193.533-.862.6-.842l.53.168c.017-.56.065-1.131-.062-1.682l.513.016-.66-1.218.56-.148-.992-1.04.375-.171c-.395-.361-.749-.702-1.074-1.133-.878-1.164-2.171-2.023-3.496-2.597l.386-2.88.582.403-.231-4.114.694.263-.908-3.873.617.235-1.057-3.452.338.189-.303-2.882.428.434-.281-3.463.366.31-.068-2.557.346.398.065-3.002.272.309.378-2.811.386.603.422-3.369.46.715.154-3.57.46.377-.08-3.957.62.567-.432-3.714.502.375-.593-3.778.595.25-1.07-4.26.572.242-1.135-4.311.706.291-1.456-3.46.64.093-1.675-3.151.708.016-2.306-3.061.452.008-1.813-2.937.455.056-1.427-2.785-.284-.935.464.185-.677-2.48.523.122-.873-2.706.607.1-1.03-2.25.688.115-1.418-2.533.63.002-1.81-2.56.749-.106-1.679-1.55.607-.313-.283-.162z" style="fill:#000;fill-rule:evenodd;stroke:none;stroke-width:.833332" transform="translate(98.807 140.38)scale(.36796)"/>
          <path d="M330.082 113.142c-2.105-1.416-2.948-3.628-3.12-6.133-.096-1.441.125-2.843.742-3.994 1.238-2.309 3.314-2.916 5.691-2.885-.73-.623-1.606-.78-2.755-.647.374-.904.78-1.825 1.406-2.54.542-.62 1.296-1.113 2.034-1.51l-.006.13 2.097-.663-.078.224 1.982.172-.142.328 1.247.142 1.633.525-.487-.491.856-.144v-.001l1.43-.192-.161.296 2.666-.097-.005.006.184-.007-.243.223 2.307 1.32-.274.076 1.311 1.698-.477-.001.952 1.232-.08.909c.573-.375 1.163-.844 1.84-1.007 1.131-.274 1.952.53 2.147 1.583.245 1.315-.434 1.96-1.388 2.605l1.674 1.707-.355.05 1.666 2.357-.441-.002 1.265 2.258-.518-.085 1.028 2.249-.407-.068.84 2.605-.447-.104.605 2.216-.523-.208.806 2.647.745 1.47-.62-.077 1.928 3.122-.636-.01 2.293 3.048-.41-.01 1.569 2.95-.466-.069 1.241 2.952-.384-.159 1.131 4.298-.55-.233 1.069 4.258-.428-.182.507 3.228-.415-.308.395 3.407-.398-.366.082 4.102-.353-.287-.111 2.597-.282-.438-.42 3.36-.366-.575-.438 3.268-.478-.54-.065 2.971-.457-.525.08 3.023-.48-.407.258 3.17-.488-.496.385 3.668-.75-.419 1.169 3.815-.493-.186.907 3.87-.423-.162.206 3.688-.295-.205-.657 4.906.313.12c1.695.648 2.639 1.49 3.717 2.807l-.34.156.822.862-.216.057.474.874-.262-.006c.151.407.34.826.402 1.257q.02.135.024.28c-.313.08-.46.379-.615.698-.15.305-.413.523-.773.484-.694-.986-1.53-1.19-2.576-1.307l-2.873-.317-.463.407c-4.105.202-8.493-.026-12.1-.505a41 41 0 0 1-3.814-.672h-.002l-.01-.002c-.424-.097-.435-.388-.583-.766l-.903.54.289.376.056.07h.002c.385.464.044.566-.38.568-.731 0-1.288-.227-2.005-.296a5.3 5.3 0 0 0-1.238.013v.002a2.2 2.2 0 0 0-.419.105c-.148.055-.277.13-.376.226h-.002l-.002.003-.005.005c-.268.265-.517.366-.767.381-.92.062-1.246-.6-1.864-.701-.436-.071-.713.098-1.006-.068-.284-.162-.447-.526-.612-.799-.262.105-.498.236-.79.14v.002c-.238-.087-.49-.099-.551-.356l-.146-.093c-.533-.348-1.584-.386-2.042.117-.301.33-.546.54-.962.56-.445.023-.623-.088-.798-.555l-.149-.074c-.002 0-.18-.115-1.043.074v.002a.56.56 0 0 1-.316-.036c-.336-.136-.519-.475-.71-.76-.032.019-.81.442-.78.206-.49-.086-.31-.419-.241-.768-.2-.062-.404-.074-.6-.15-.528-.204-.44-.523-.001-.842.196-.143.443-.048.671-.152.28-.126.431-.332.74-.442.503-.181.905-.17 1.436-.293.315-.074.554-.185.699-.362.118-.143.677-.193 1.035-.213.38-.02.761-.021 1.14-.03l-2.26-3.298.056 1.16-1.95-1.662-.16.42-2.396-2.915-.132.287-1.6-3.902-.24.36-.934-4.208-.221.131.676-4-.274.017 2.695-3.738-.696.035 2.684-3.889-.895.232 1.412-3.858-.677.288.738-3.332.267-1.208-1.388 1.159-.175-.468-1.211 1.23-.151-.353c-.401.406-.73.879-1.29 1.048-.514.156-.552.21-.932.613v.002l-.148.155c-.183.19-.667.484-.767.685-.133.262-.117.592-.1.94.01.265.06.85-.317.932-.274.058-.535-.311-.697-.475-.151.223-.33.604-.614.667-.264.058-.456-.12-.645-.266-.27.115-.422.182-.608-.125-.091-.147-.142-.307-.197-.47-.343-.212-.555-.54-.544-.93.012-.385.172-.776.278-1.156.132-.482.036-.886.133-1.342.077-.37.694-.814.897-1.115a2.2 2.2 0 0 0 .35-.38c.099-.141.144-.255.179-.37l.002-.005c.198-.695.883-1.152 1.509-1.57.085-.055.17-.113.35-.237h.001l.817-.562-.669-.138 3.07-2.176-.903-.195 3.079-2.593-1.258.024 2.13-3.095-1.05.234-.13.03 1.254-3.135-.673.2 1.367-2.905-.613.07 2.278-2.777-.75-.003.942-1.3 1.66 1.456-.506.077 1.93 2.174-.554-.056 2.102 2.76-.569-.035 1.865 2.484-.631.018 2.221 2.49-.65.194 2.26 1.66-.811.27 2.957 1.451-.647.442 3.107.703-.624.576 3.342.115-1.708 2.704.654.033-1.35 3.035.792-.15.025-.005-1.282 2.947.806-.176.065-.013-.511 1.95-3.12.08.614.684.019.02-4.652 1.84 1.003.33-3.376 3.261.675.215.026.008-2.344 4.237.611.068-1.932 4.084 1.017-.185-.278 4.25.666-.169.861 4.35.586-.468 1.631 4.123.439-.66 2.346 3.609.375-.926 2.705 1.292-.402-1.56-.585.15-2.165-1.034-.103.257-2.165-3.326-.253.38-1.457-3.683-.392.315-.765-3.859-.4.101.271-4.165-.465.084 1.737-3.673-.526-.057 2.225-4.027-.334-.106 3.368-3.252-.114-.036 3.611-1.43-.218-.241 1.641-.079.53-.494.56-1.355-.354.12.56-2.143-.604.131 1.262-2.898-.785.148-.017.005 1.195-2.685-.44-.023 1.299-2.058-.363-.694-1.972-.07.295-.272-2.785-.629.242-.165-2.41-1.182.406-.136-2.203-1.618.296-.09-1.896-2.124.445-.012-1.75-2.33.59.036-2.041-2.678.777.08-2.34-2.635.761-.118-2.38-2.087.715-.125-1.758-1.337h.002a4 4 0 0 1-.346-.316c-.42-.435-.817-.91-.956-1.513-.101-.45-.136-.89-.53-1.205-.268-.217-.575-.244-.87-.384-.233-.112-.879-.531-.82-.92.037-.25.362-.375.548-.487-.153-.273-.398-.614-.312-.948.079-.304.445-.405.694-.518-.128-.32-.343-.682-.122-1.018.2-.305.518-.336.842-.404-.009-.124-.073-.453-.01-.58.131-.27.362-.285.633-.24.316.05.585.21.87.38.1.06.2.121.32.186.187.105.37.162.549.218.446.14.6.25.698.717q.032.157.076.33c.12.45.154.495.532.71l1.822 2.445.121-.667 1.738 2.16.053-.787 2.33 2.217.003-.762 2.284 1.81-.03-.85 2.642 1.382-.065-.767-.002-.031 2.395.775-.145-.71-.008-.037 2.705.472-.236-.497 2.564.473-.205-.359 2.182.785-.105-.441 1.713.945.407-.741-3.387-1.87.186.783-2.874-1.033.441.768-2.395-.443.244.514-2.317-.404.11.545-2.228-.723.045.534-2.563-1.341.017.474-2.215-1.755-.002.54-2.217-2.11-.029.427-1.54-1.918-.103.575-.623-.835c.51-.824.44-2.09.556-3.062l-.565.152.1-2.104-.43.212.357-2.478-.467.15.606-2.61-.475.116.658-2.285z" style="fill:#c09f60;fill-rule:evenodd;stroke:none;stroke-width:.833332" transform="translate(98.807 140.38)scale(.36796)"/>
          <path d="M323.603 122.318c-.008.226.903.531 1.825.752.877.212.907-.417-.044-.764-.81-.292-1.775-.211-1.781.012m1.885 2.011c-.027.102-.124.183-.228.232-.664.296-1.155.015-1.763-.224-.715-.281-1.722-.392-1.754-.705-.03-.314 1.278-.571 2.292-.394.35.06 1.603.541 1.453 1.091m-.556 1.623c-.029.109-.14.201-.262.255-.813.357-1.327-.124-2.088-.373-.854-.278-1.565-.206-1.61-.535-.047-.328 1.164-.542 2.368-.386.416.054 1.75.44 1.592 1.039m-.408 1.467c-.015.105-.096.196-.192.257-.398.246-.782.208-1.177.107-.207-.051-.432-.304-.647-.36-.729-.187-1.418-.131-1.457-.48-.038-.347.982-.52 1.99-.472.347.016 1.56.387 1.483.948m2.197-2.761c.016-.206-.45-.7-.765-.775-.315-.074.01.386-.26.567-.236.19-.62.516-.034.55.552.026 1.042.003 1.059-.342m-1.343 1.323c-.04-.164-.195-.508.144-.39.31.074.65.347.729.672.077.328-.214.493-.472.546-.36.11-1.31-.038-.96-.266.337-.189.647-.27.56-.562m-1.514.107s.255.333.596.519c.342.186.915.59 1.437.524.503-.113.3-.419.574-.334.306.088.052.469.425.66.197.12.685.374.669.742-.056.245-.044.139-.13.013-.138-.198-.438-.282-.639-.36-.181-.072-.343-.113-.46-.104-.205.018-.589-.036-.72-.146-.15-.16-1.564-.84-2.045-.586zm2.562-.644c.516-.021.372-.359.624-.225.286.142-.033.471.3.727.17.151.605.491.521.85-.098.231-.068.128-.13-.011-.1-.22-.378-.357-.56-.47-.167-.103-.32-.253-.435-.263-.205-.022-.573-.144-.683-.276-.361-.57-1.182-.538-1.787-.414l.044-.72c.074.286.94.353 1.203.392.3.036.511.389.903.41m.685-1.346c.503.048.408-.298.636-.136.26.177-.095.455.196.747.146.172.523.56.396.898-.127.212-.084.117-.126-.027-.068-.227-.32-.398-.484-.532-.148-.123-.276-.29-.388-.315-.197-.048-.539-.215-.63-.358a.96.96 0 0 0-.506-.484c-.355-.16-.874-.112-1.246-.086l.265-.776c.035.289.81.478 1.061.552.288.076.446.446.826.517" style="fill:#000;fill-rule:evenodd;stroke:none;stroke-width:.833332" transform="translate(98.807 140.38)scale(.36796)"/>
          <path d="M317.544 158.014c.487-.203.909.66 1.004.996.06.206-.045.528.015.741.207.724.603 1.291.322 1.5s-.945-.587-1.412-1.479c-.162-.31-.452-1.542.071-1.758m-1.397.234c.432-.12.832.613.91.933.086.35.085.741.174 1.155.189.879.61 1.455.35 1.662s-1.055-.733-1.528-1.852c-.163-.384-.502-1.732.094-1.898m-1.226.033c.28-.075.6.315.718.52.2.347.224.754.292 1.197.118.759.53 1.686.275 1.87-.256.185-1.136-.815-1.496-1.78-.125-.332-.341-1.657.21-1.807m-.179 2.087c.198-.107.003-1.046-.272-1.955-.259-.865-.818-.573-.637.422.158.847.713 1.64.91 1.533" style="fill:#2c2c2b;fill-rule:evenodd;stroke:none;stroke-width:.833332" transform="translate(98.807 140.38)scale(.36796)"/>
          <path d="M315.982 154.358s-.872.626-.91 1.176c-.036.552.266.346.295.194.092-.466.462-.645.74-.971.206-.247.292-.58-.125-.4m-1.157 2.809c-.219.06-.258.785-.074.907.182.123.749-1.011.074-.907m.947.336c-.097.325-.048.488.275.565.372.092.511-.216.623-.51.142-.376-.024-.563-.419-.492-.28.051-.399.172-.48.437m1.465-2.711c-.24-.002-1.028.49-1.154.789-.083.198-.2.656.2.664a1.3 1.3 0 0 0 .544-.102c.24-.113.418-.482.53-.682.095-.169.323-.67-.12-.67m.998.683a4.5 4.5 0 0 0-.872.862c-.245.337-.208.82.276.939.307.075.49-.121.625-.26.146-.15.289-.647.535-.765s.658-1.58-.564-.776m-3.588 3.237s-.157-.406-.144-.635c.01-.198-.018-.505.186-.79a4 4 0 0 0 .167-.357c.17-.425.146-.746.122-1.2-.029-.565.216-.887.62-1.251-.593.226-.803.609-.835 1.221-.012.256-.008.516-.07.758-.033.122-.055.222-.152.261-.092.011-.302.025-.145.13.159.106.159.106.139.202-.266.388-.452 1.03.112 1.661m1.18.776c-.303-.277-.589-.937-.657-1.338-.045-.274.044-.452.124-.703.138-.431.136-.82.174-1.26.024-.269.08-.53.239-.748.134-.306.745-.6 1.027-.68-.333.3-.605.463-.793.81a1.55 1.55 0 0 0-.163.632c-.033.434-.045.874-.14 1.302-.05.222-.208.4-.221.627-.023.387.267.755.41 1.358m1.517-.189c-.228-.443-.278-.809-.2-1.057a2.1 2.1 0 0 0 .042-1.128 1.3 1.3 0 0 1-.01-.552c.1-.469.684-1.113 1.073-1.39-.787.135-1.323 1.083-1.36 1.27-.051.09-.304.134-.296.398.003.123.322.185.319.496.003.135.106.572-.029.806-.225.386.185.908.462 1.157" style="fill:#2c2c2b;fill-rule:evenodd;stroke:none;stroke-width:.833332" transform="translate(98.807 140.38)scale(.36796)"/>
          <path d="M333.32 191.128c.116-.192.616-.748.908-.55a.4.4 0 0 1 .114.125c.161.27.254 1.01-.046 1.222-.216.156-.367.154-.512.428-.171.32-.22 1.217-.439 1.23-.22.01-.393-1.726-.024-2.455m-1.998-.552c.115-.17.6-.652.851-.449q.055.042.097.123v.002c.132.26.174.95-.11 1.128-.204.13-.34.117-.489.362-.172.285-.223 1.12-.467 1.107-.243-.012-.257-1.62.118-2.272zm-1.713-.608c.127-.18.66-.68.939-.472a.5.5 0 0 1 .104.13c.147.273.195.992-.118 1.178-.227.133-.376.123-.537.375-.19.297-.304 1.156-.51 1.156-.21.002-.29-1.69.122-2.367m-3.495.123c.1-.188.546-.735.828-.566a.4.4 0 0 1 .111.114v.002c.164.245.282.937.01 1.152-.199.157-.34.165-.463.43-.148.31-.159 1.18-.362 1.179-.204-.002-.44-1.605-.124-2.31zm-2.006-.375c.1-.17.546-.666.826-.51q.06.036.111.1v.003c.164.222.283.845.008 1.04-.196.14-.335.148-.46.386-.147.281-.164 1.063-.36 1.064-.199 0-.44-1.447-.125-2.083m-1.72-.749c.123-.152.634-.58.89-.39q.055.042.097.117c.131.243.161.877-.135 1.03-.215.114-.355.102-.513.32-.184.257-.284.993-.505 1.004-.219.01-.234-1.493.167-2.08m-.997-.954c.131-.148.662-.552.908-.35q.055.047.093.122c.12.25.12.883-.183 1.025-.22.103-.36.083-.526.293-.194.248-.356.994-.55.98-.196-.013-.173-.692-.13-1.06a2.14 2.14 0 0 1 .388-1.01m6.706 1.285c.137-.15.692-.56.946-.349a.4.4 0 0 1 .093.129c.119.26.113.916-.203 1.058-.228.104-.375.082-.55.298-.208.256-.37 1.009-.584 1.009-.215 0-.15-1.56.298-2.145" style="fill:#000;fill-rule:evenodd;stroke:none;stroke-width:.833332" transform="translate(98.807 140.38)scale(.36796)"/>
          <path d="M325.995 190.47c-.133-.629-.02-1.412.538-1.677.083-.527.52-.736 1.21-.806-.708-.23-1.228-.031-1.523.555-.883.257-.9 1.2-.896 1.951zm5.165.422c.136-.862.513-1.529 1.198-1.622.346-.552.901-.667 1.507-.277-.322-.687-1.246-.644-1.757-.116-.966.016-1.302 1.052-1.472 1.847zm1.732.694c.089-.868.427-1.554 1.105-1.687.316-.569.844-.684 1.49-.359-.36-.666-1.278-.573-1.76-.02-.964.07-1.242 1.124-1.368 1.929zm-3.42-1.358c.169-.855.572-1.509 1.259-1.575.367-.537.958-.591 1.518-.218-.295-.697-1.22-.691-1.751-.184-.966-.022-1.343 1-1.544 1.79zm-7.115-1.344c.05-.497.405-.951.86-.972.167-.327.496-.37.959-.27-.413-.3-.794-.28-1.11.04-.643.002-.978.726-1.03 1.108zm1.683 1.057c-.056-.624.101-1.346.655-1.55.124-.496.558-.656 1.218-.665-.653-.278-1.164-.133-1.495.399-.873.201-.921 1.05-1.02 1.781zm4.41.555c-.291-.733-.187-1.497.401-1.878.085-.614.514-.897 1.2-.83-.548-.469-1.333-.07-1.57.587-.876.437-1.054 1.835-.59 2.402zm10.883-89.985-.366.32-.251-1.014c.564-.789 1.4-1.359 2.439-1.314.747.034 1.296.4 1.824.864.275.24.542.56.857.742l-.121.962c-.123-.038-.372-.19-.5-.275-.773 1.997-3.462 1.826-3.882-.285m8.041.691c1.098-.497 1.385-1.692 2.537-2.183l.428 1c-.712.305-.967.975-1.483 1.484 1.249.552 2.442 1.44 3.452 2.386.797.746.35 1.67-.35.965-1.52-1.527-3.545-3.215-5.842-2.58-1.074.295-.342-1.07 1.258-1.072m-2.028 26.504.055-.643-.327-1.73.502.16-.503-2.842.406.118-.845-3.053.52.183-1-3.166.403.128-1.078-2.431.457.029-1.712-3.121.346.018-2.356-2.823.356-.005-2.102-1.81.37-.104-2.192-1.363.27-.243c-.634-.278-1.348-.608-2.016-.793a3.94 3.94 0 0 0-1.875-.05c-.705.14-1.324.462-1.239.822.06.263.132.46-.284.824-.33.289-.829.585-1.107 1.002-.138.366-.029 1.21.115 1.552.227.536.647.987 1.15 1.085.84.164 1.838-.245 2.468-.765l.164 1.133a3.78 3.78 0 0 1-2.551.694c-.522-.049-.986-.244-1.441-.613-.658-.532-.614-.521-1.307-.08-.617.398-1.397.47-2.16.236v-1.011c.449.125 1.08.373 1.72-.203.694-.626.613-1.465.737-2.286-.34-.331-.83-.593-.932-1.072-.068-.32.029-.83-.419-.967-.483-.07-.955-.22-1.345-.219l.452-1.67c.419-.252 1.39-.023 1.814.155h.002c.867.354 1.17.413 1.945.198.762-.21 1.353-.263 1.947-.23 1.148.062 2.386.263 3.418.806q.102.053.202.112h.003c.693.41 1.242.724 2.08 1.093l-.407.366 2.874 1.786-.705.195 2.59 2.232-.808.012 2.461 2.949-.766-.041 1.723 3.145-.598-.04 1.274 2.876-.64-.205 1.018 3.224-.59-.21.817 2.959-.555-.164.508 2.873-.485-.154.088.463-.102 1.179zm-16.51-23.793c.331.359.58.874.575 1.373.17.168.369.313.544.477l.121-.121v-.002l.213-.206.005-.003c.118-.113.236-.224.365-.323-.133-.388.033-.83.337-1.083-.765.213-1.376.203-2.16-.112m34.288 40.008-.064 2.668-1.08-2.44zm-1.477 6.058-.315 1.785-.838-1.607zm1.393-3.336-.246 1.923-.901-1.716zm-.03 2.767-.104 2.676-1.042-2.469z" style="fill:#000;fill-rule:evenodd;stroke:none;stroke-width:.833332" transform="translate(98.807 140.38)scale(.36796)"/>
          <path d="m362.903 151.019-.286 1.464-.286 1.462-.594-2.922z" style="fill:#000;fill-rule:evenodd;stroke:none;stroke-width:.833332" transform="translate(98.807 140.38)scale(.36796)"/>
          <path d="m362.217 148.958-.362 2.636-.4-1.27-.4-1.268zm.205 3.367-.785 2.88-.378-2.961zm-1.862 1.741-.568 2.138-.598-2.13z" style="fill:#000;fill-rule:evenodd;stroke:none;stroke-width:.833332" transform="translate(98.807 140.38)scale(.36796)"/>
          <path d="m361.273 152.933-.693 2.459-.471-2.51zm-.207 3.8-.836 2.459-.324-2.577z" style="fill:#000;fill-rule:evenodd;stroke:none;stroke-width:.833332" transform="translate(98.807 140.38)scale(.36796)"/>
          <path d="m361.639 154.547-.684 3.564-.48-3.598zm-1.143 2.576-.998 3.22-.159-3.368zm-.796-2.9-.47 2.21-.694-2.151z" style="fill:#000;fill-rule:evenodd;stroke:none;stroke-width:.833332" transform="translate(98.807 140.38)scale(.36796)"/>
          <path d="m359.743 157.543-1.063 3.333-.09-3.497z" style="fill:#000;fill-rule:evenodd;stroke:none;stroke-width:.833332" transform="translate(98.807 140.38)scale(.36796)"/>
          <path d="m358.949 159.213-1.133 2.416-.003-1.334-.003-1.335z" style="fill:#000;fill-rule:evenodd;stroke:none;stroke-width:.833332" transform="translate(98.807 140.38)scale(.36796)"/>
          <path d="m358.758 156.887-.922 2.479-.233-2.634zm-.656 3.774-1.197 1.677.095-2.058z" style="fill:#000;fill-rule:evenodd;stroke:none;stroke-width:.833332" transform="translate(98.807 140.38)scale(.36796)"/>
          <path d="m357.077 161.774-1.293 1.422.235-1.907zm-8.52-55.828 1.115 3.452-2.153-2.92zm-2.314.58.543 2.542-1.6-2.049z" style="fill:#000;fill-rule:evenodd;stroke:none;stroke-width:.833332" transform="translate(98.807 140.38)scale(.36796)"/>
          <path d="m347.54 106.322.4 2.279-1.46-1.793zm-2.792-.007.766 2.723-1.8-2.184zm-.885.843.19.85.191.85-1.368-1.08zm-1.328.102.719 2.416-1.729-1.834zm7.417-1.001.64 2.667-1.69-2.162zm2.595-.486.372 2.244-1.435-1.764zm-1.261.103.614 2.75-1.676-2.266zm-13.479 26.734-1.36-2.276 2.205 1.471zm2.811.483-.55-1.468 1.41.682zm5.144.135-1.72-1.842 2.366.87zm1.23.115-1.024-2.252 1.941 1.534zm1.51 1.373-.452-2.265 1.5 1.755z" style="fill:#000;fill-rule:evenodd;stroke:none;stroke-width:.833332" transform="translate(98.807 140.38)scale(.36796)"/>
          <path d="m349.124 133.736-.229-1.515 1.228.916zm2.276 3.364-1.27-1.734 1.989.815zm-12.531-2.549-2.098-1.663 2.606.614zm2.236.245-2.192-1.833 2.741.805zm2.347-1.737-1.357-1.614 2.007.646zm.59 1.395-1.996-1.58 2.49.525zm1.818-.134-.633-.785-.635-.785 1.925.606zm1.324.28-.448-1.263 1.267.432zm2.498 2.213-1.328-1.74 2.034.812zm-2.392-.613-.581-1.62 1.48.878zm-1.809-.866-.428-1.075 1.145.157z" style="fill:#000;fill-rule:evenodd;stroke:none;stroke-width:.833332" transform="translate(98.807 140.38)scale(.36796)"/>
          <path d="m344.92 135.981-1.9-1.52 2.388.462zm-2.478.465-1.713-1.304 2.14.22zm2.737.786-1.184-1.291 1.732.261zm1.671.574-.252-.745-.252-.747.697.369.696.367zm2.257.804-1.238-1.818 1.992.931zm1.302-.249-1.044-1.333 1.66.345zm1.03 1.706-.753-.67-.753-.67.997.141.998.14zm-2.025-.256-.845-1.253 1.486.28zm-1.104.295-1.18-1.427 1.8.44zm3.216 1.159-2.074-1.275 2.43.165z" style="fill:#000;fill-rule:evenodd;stroke:none;stroke-width:.833332" transform="translate(98.807 140.38)scale(.36796)"/>
          <path d="m351.974 142.2-2.602-1.09 2.821-.054zm-19.07 29.91-1.59 3.495.468-3.812zm-.561-.158-1.029 3.653m.006-1.261-.689 3.75-.476-3.783zm3.356-4.917-1.51 2.427.415-2.83z" style="fill:#000;fill-rule:evenodd;stroke:none;stroke-width:.833332" transform="translate(98.807 140.38)scale(.36796)"/>
          <path d="m333.416 173.676-1.42 2.923.149-1.618.148-1.618zm.024 4.096-.62 3.261-.545-3.275zm3.472 8.419-.218 2-.928-1.784zm-1.184-1.893-.2 1.2-.204 1.201-.759-2.313zm-1.088-1.535-.557 2.35-.304-1.167-.305-1.17zm-1.257-.286-.484 2.169-.68-2.114zm-1.048-3.5-.404 2.796-.759-2.72zm2.975-12.175-1.78 1.775.787-2.388zm-1.127-.244-2.294 2.249 1.341-2.92z" style="fill:#000;fill-rule:evenodd;stroke:none;stroke-width:.833332" transform="translate(98.807 140.38)scale(.36796)"/>
          <path d="m333.378 168.609-1.63 2.73.268-1.567.268-1.567zm2.875-1.585-1.54 1.046.616-1.757zm2.592-4.792-2.087.276 1.62-1.343z" style="fill:#000;fill-rule:evenodd;stroke:none;stroke-width:.833332" transform="translate(98.807 140.38)scale(.36796)"/>
          <path d="m339.151 163.184-1.705.06 1.268-1.14zm-5.355-24.739-3.51-2.507 4.053 1.475zm.869 1.667-3.813-2.393 4.3 1.335z" style="fill:#000;fill-rule:evenodd;stroke:none;stroke-width:.833332" transform="translate(98.807 140.38)scale(.36796)"/>
          <path d="m335.66 141.434-3.748-2.144 4.185 1.063zm-1.498-6.079L331.209 134l3.241.227zm-2.684.77-2.444-2.188 3.055 1.195zm4.802 1.185-3.174-1.285 3.42.147zm-.015 5.504-3.454-1.878 3.853.782z" style="fill:#000;fill-rule:evenodd;stroke:none;stroke-width:.833332" transform="translate(98.807 140.38)scale(.36796)"/>
          <path d="m337.469 143.992-1.588-.663-1.59-.666 3.44.194z" style="fill:#000;fill-rule:evenodd;stroke:none;stroke-width:.833332" transform="translate(98.807 140.38)scale(.36796)"/>
          <path d="m339.008 144.857-3.879-.94 3.986-.221z" style="fill:#000;fill-rule:evenodd;stroke:none;stroke-width:.833332" transform="translate(98.807 140.38)scale(.36796)"/>
          <path d="m340.072 145.795-4.2-.669 4.223-.497zm1.254.908-4.369.038 4.203-1.191zm1.881.84-3.43.364 3.112-1.486zm1.309.679-2.83.474 2.408-1.56zm2.879-2.309-3.712.146 3.484-1.29zm-.656-1.385-5.463-.17 5.374-.993zm-2.238-.95-4.913-.484 4.889-.682zm-1.955-1.264-4.479-.897 4.56-.266zm-2.542-1.408-3.217-1.036 3.378-.119zm-1.412-1.473-3.085-1.404 3.378.276zm11.584-13.204-2.654 2.374 1.747-3.105zm-2.939 1.844-2.765 1.211 2.098-2.168z" style="fill:#000;fill-rule:evenodd;stroke:none;stroke-width:.833332" transform="translate(98.807 140.38)scale(.36796)"/>
          <path d="m345.626 129.906-2.63.85 2.045-1.859zm2.828-2.146-2.332 1.134 1.598-2.04zm-2.417.37-2.549 1.201 1.845-2.132zm-2.85 2.003-2.513.615 1.987-1.656z" style="fill:#000;fill-rule:evenodd;stroke:none;stroke-width:.833332" transform="translate(98.807 140.38)scale(.36796)"/>
          <path d="m346.698 130.137-2.339.88 1.686-1.844zm11.989 16.715-.425 2.058-.737-1.968zm-1.081-5.353.204 3.147-1.333-2.857z" style="fill:#000;fill-rule:evenodd;stroke:none;stroke-width:.833332" transform="translate(98.807 140.38)scale(.36796)"/>
          <path d="m358.326 148.241-.679 2.203-.485-2.254z" style="fill:#000;fill-rule:evenodd;stroke:none;stroke-width:.833332" transform="translate(98.807 140.38)scale(.36796)"/>
          <path d="m357.652 149.242-.737 2.867-.213-1.465-.215-1.465zm1.356-3.821-.377 1.913-.781-1.786z" style="fill:#000;fill-rule:evenodd;stroke:none;stroke-width:.833332" transform="translate(98.807 140.38)scale(.36796)"/>
          <path d="m359.436 143.581-.215 1.074-.215 1.072-.733-2.061z" style="fill:#000;fill-rule:evenodd;stroke:none;stroke-width:.833332" transform="translate(98.807 140.38)scale(.36796)"/>
          <path d="m359.802 142.508-.162.784-.16.785-.413-.685-.414-.686zm-3.076 8.266-.674 2.723-.492-2.762zm-.564-3.665-.086 2.646-1.058-2.427z" style="fill:#000;fill-rule:evenodd;stroke:none;stroke-width:.833332" transform="translate(98.807 140.38)scale(.36796)"/>
          <path d="m355.842 149.085-.365 1.485-.788-1.311zm3.148-12.859.29 3.103-1.41-2.78z" style="fill:#000;fill-rule:evenodd;stroke:none;stroke-width:.833332" transform="translate(98.807 140.38)scale(.36796)"/>
          <path d="m358.949 138.357-.024 2.785-1.118-2.55zm-.434 3.019-.12 3.068-1.032-2.89zm-.631 3.589-.441 1.91-.721-1.824zm-1.035 2.647-.295 2.276-.862-2.128zm-1.887 5.068-.587 1.328-.588 1.33.018-1.454.018-1.453z" style="fill:#000;fill-rule:evenodd;stroke:none;stroke-width:.833332" transform="translate(98.807 140.38)scale(.36796)"/>
          <path d="m354.142 153.518-1.285 2.964.15-3.227z" style="fill:#000;fill-rule:evenodd;stroke:none;stroke-width:.833332" transform="translate(98.807 140.38)scale(.36796)"/>
          <path d="m353.3 154.317-1.41 2.653.294-2.99z" style="fill:#000;fill-rule:evenodd;stroke:none;stroke-width:.833332" transform="translate(98.807 140.38)scale(.36796)"/>
          <path d="m352.139 156.089-1.222 1.442.144-1.885zm3.347-4.756-.647 2.132-.517-2.166z" style="fill:#000;fill-rule:evenodd;stroke:none;stroke-width:.833332" transform="translate(98.807 140.38)scale(.36796)"/>
          <path d="m356.144 151.863-.897 3.01-.263-3.13zm.123-32.923.108 1.878.108 1.877-1.355-3.508z" style="fill:#000;fill-rule:evenodd;stroke:none;stroke-width:.833332" transform="translate(98.807 140.38)scale(.36796)"/>
          <path d="m356.277 121.4-.056 1.437-.057 1.436-1.036-2.682z" style="fill:#000;fill-rule:evenodd;stroke:none;stroke-width:.833332" transform="translate(98.807 140.38)scale(.36796)"/>
          <path d="m355.973 123.179-.245 2.428-.455-1.132-.453-1.133z" style="fill:#000;fill-rule:evenodd;stroke:none;stroke-width:.833332" transform="translate(98.807 140.38)scale(.36796)"/>
          <path d="m355.725 124.586-.446 2.532-.717-2.468z" style="fill:#000;fill-rule:evenodd;stroke:none;stroke-width:.833332" transform="translate(98.807 140.38)scale(.36796)"/>
          <path d="m355.238 126.42-.538 2.14-.627-2.115zm-1.176.218-.644 2.566-.522-2.593z" style="fill:#000;fill-rule:evenodd;stroke:none;stroke-width:.833332" transform="translate(98.807 140.38)scale(.36796)"/>
          <path d="m354.68 125.026-.261 1.021-.262 1.02-.642-2.006zm.06 3.058-.634 1.526-.53-1.565zm1.95-12.258.12 2.127-1.222-1.746zm.044 2.053.09 1.565.09 1.563-.655-1.422-.656-1.423zm2.709 65.748-1.6 1.856.562-2.386z" style="fill:#000;fill-rule:evenodd;stroke:none;stroke-width:.833332" transform="translate(98.807 140.38)scale(.36796)"/>
          <path d="m358.892 185.402-1.671 2.14.62-2.644z" style="fill:#000;fill-rule:evenodd;stroke:none;stroke-width:.833332" transform="translate(98.807 140.38)scale(.36796)"/>
          <path d="m357.953 184.94-1.065 1.596-1.063 1.597 1.07-3.685zm-1.721 1.505-1.676 1.942.643-2.483zm1.144-2.911-1.29 1.98.187-2.356zm-1.483.274-1.26 1.567.179-2.002zm-.986 2.702-1.65 2.094.6-2.597zm-.23-1.966-1.602 2.745.505-3.138z" style="fill:#000;fill-rule:evenodd;stroke:none;stroke-width:.833332" transform="translate(98.807 140.38)scale(.36796)"/>
          <path d="m353.379 185.863-1.43 1.713.371-2.201zm-1.482.777-.58.513-.583.51.06-.77.06-.773zm-7.859 2.713 1.01 2.298-1.94-1.594zm1.592-.03.74 2.337-1.736-1.731zm-8.97-24.936-2.9 1.38 2.216-2.325zm.734.813-1.54 1.044.617-1.757z" style="fill:#000;fill-rule:evenodd;stroke:none;stroke-width:.833332" transform="translate(98.807 140.38)scale(.36796)"/>
        </g>
      </g>
      <path d="m199.649 148.703-.001-27.6h-42.933v27.6c0 11.853 9.613 21.467 21.467 21.467s21.467-9.614 21.467-21.467" style="fill:#fff;fill-rule:evenodd;stroke:none;stroke-width:.833332" transform="translate(-23.758)scale(1.2)"/>
      <path d="M196.581 148.703V124.17h-36.8v24.533c0 10.16 8.24 18.4 18.4 18.4s18.4-8.24 18.4-18.4" style="fill:#c09f60;fill-rule:evenodd;stroke:none;stroke-width:.833332" transform="translate(-23.758)scale(1.2)"/>
      <g style="fill-rule:evenodd;stroke-width:.833332">
        <path d="M156.49 311.837h9.563v9.562h-9.563zm.278-1.547c-.974-.731-1.416-2.006-.828-3.082.448-.823 1.621-1.211 1.927-1.989.321-.818-.127-1.643-.314-2.429-.202-.856.217-1.707.869-2.258.408-.344.96-.531 1.233-1.014.28-.493-.047-.942-.073-1.439-.039-.729.225-1.232.645-1.845-.024.629-.101 1.3.159 1.896.18.412.532.663.69 1.093.086.235.152.549.18 1.003 1.055-.691 1.303-.868 1.139-1.85-.128-.779-.379-1.125.098-2.042.073 1.1.627 1.324 1.237 2.208.424.615.446 1.276.173 1.976 1.373-.55 1.423-1.351 1.471-2.128.068-1.114.292-1.529 1.129-2.019-.318.987-.193 1.72.408 2.576.011-1.001.864-1.161 1.622-1.512.722-.334.724-.622.739-1.341.568 1.033.555 1.604-.156 2.432-.331.386-.679.792-.531 1.685.738-.708 1.767-.533 2.633-.93.919-.421 1.263-1.35 1.567-2.24.279 1.235.509 2.576-.271 3.702-.463.669-1.284 1.285-1.976 1.74-.326.214-.649.426-.91.693a1.88 1.88 0 0 0-.562 1.319c-.042 1.24-.562 1.955-1.43 2.544-.591.402-.932.625-.979 1.507-.036.674-.273 1.308-.817 1.72-3.024.024-6.048.024-9.072.024" style="fill:#000;stroke:none;stroke-width:.833332" transform="translate(-59.428 -301.597)scale(1.5394)"/>
        <path d="M162.384 303.936c.463-.383.715-.814.943-1.353.27.995.362 1.835-.173 2.765.487-.436 1.033-.6 1.613-.821.44-.169.793-.39.937-1.072.152-.918.525-1.267 1.271-1.77-.347.783-.462.977-.273 1.885.11.528.17 1.087.005 1.61h-.001a2.1 2.1 0 0 1-.804 1.083c-.344.246-.721.377-.979.747-.4.574-.204 1.261-.34 1.902-.091.427-.297.798-.556 1.145h1.702c.489-.408.663-.905.696-1.523.057-1.071.449-1.249 1.118-1.712.794-.549 1.245-1.198 1.291-2.361a2.08 2.08 0 0 1 .665-1.492c.267-.258.588-.469.911-.681v.001c.673-.442 1.482-1.047 1.924-1.701.534-.789.549-1.792.393-2.7-.391.934-.883 1.373-1.408 1.609-.855.384-1.917.224-2.614.925-.869.875-.979 1.937-.871 3.101l-.232.021c-.105-1.139-.028-2.228.789-3.111-.25-1.126.16-1.605.548-2.058.303-.352.59-.688.464-1.372-.156.371-.481.543-.839.677-.773.291-1.508.488-1.41 1.472q.009.087.025.181l.001.006c.089.434.141.904-.013 1.331-.195.539-.66.762-1.132.988-.68.326-1.377.66-1.106 2.209l-.229.04c-.302-1.722.476-2.095 1.235-2.458.434-.208.862-.413 1.023-.931.084-.271.096-.628-.002-1.116-.539-.728-.985-1.527-.826-2.478-.429.414-.489.914-.523 1.48-.044.714-.09 1.446-.993 2.019-.586.371-1.139.503-1.66 1.015-.652.641-.888 1.4-.57 2.498m-4.322 6.121c-.919-1.462-.442-2.042.165-2.779.454-.551.69-1.091.988-1.721.156.984.541 1.196.841 1.91.03-1.889.904-2.506 1.769-3.116q.183-.128.362-.26c-.489-1.592.07-2.584 1.411-3.449.383-.835.285-1.384.02-1.837-.327-.559-.874-.956-1.148-1.549-.037.379.086.687.15 1.049.208 1.17-.06 1.345-1.278 2.143-.412.269-.819.725-1.009 1.182-.282.679.105 1.126.308 1.756a1.95 1.95 0 0 1-.255 1.704l-.191-.134.007-.01a1.69 1.69 0 0 0 .22-1.481c-.219-.708-.621-1.162-.304-1.924.175-.422.514-.809.913-1.158-.02-.505-.086-.84-.174-1.08-.152-.413-.481-.627-.66-1.014-.115-.251-.195-.608-.203-1.221-.13.351-.196.688-.18 1 .031.577.41.919.044 1.565-.295.521-.851.711-1.285 1.076-.587.495-.975 1.256-.793 2.027.201.849.651 1.684.304 2.568-.364.923-1.462 1.137-1.94 2.015-.518.948-.126 2.081.702 2.738zm6.089-2.512c-.143-.25-.287-.5-.269-.853-.256.263-.545.45-.829.632-.734.474-1.429.923-1.286 2.733h1.988l-.013-.01c.288-.37.507-.741.607-1.172.119-.516.063-.874-.198-1.33m-1.967.137c.222-.217.481-.384.743-.554.559-.36.847-.683 1.255-1.115-.093.702-.083.93.261 1.577.055-.302.177-.566.353-.789.275-.351.632-.483.975-.73.855-.613.902-1.504.703-2.454-.084-.404-.166-.798-.023-1.242a2 2 0 0 0-.181.234 2.2 2.2 0 0 0-.337.888v.005c-.174.82-.594 1.061-1.115 1.254-.69.254-1.335.475-1.846 1.075-.126.149-.204.309-.301.476v.001c-.257.439-.361.89-.487 1.374m-.65 2.375c-.073-.943.069-1.542.325-1.966a5.9 5.9 0 0 1 .891-2.48c.379-.603.733-1.212.513-2.332-.332.577-.817.918-1.304 1.262-.924.651-1.858 1.311-1.639 3.715l-.23.034c-.088-.754-.707-1.334-.937-2.038a5.2 5.2 0 0 1-.746 1.173c-.563.684-1.002 1.217-.07 2.629l-.004.003z" style="fill:#da231d;stroke:none;stroke-width:.833332" transform="translate(-59.428 -301.597)scale(1.5394)"/>
        <path d="M166.05 309.682v2.231h-9.561v-2.231z" style="fill:#000;stroke:none;stroke-width:.833332" transform="translate(-59.428 -301.597)scale(1.5394)"/>
        <path d="M165.767 311.782v-1.817h-8.994v1.817z" style="fill:#da231d;stroke:none;stroke-width:.833332" transform="translate(-59.428 -301.597)scale(1.5394)"/>
        <path d="M169.594 305.202h4.995v2.788h-4.995zm2.884-.523.011.312h-.874l.011-.312a.67.67 0 0 1 .852 0m.118 3.523.19 5.674c-.227.652-1.241.652-1.468 0l.19-5.674zm-23.048-2.88h4.781v2.709h-4.781zm2.761-.509.01.303h-.836l.01-.303a.64.64 0 0 1 .816 0m.113 3.424.181 5.515c-.217.634-1.187.634-1.405 0l.182-5.515z" style="fill:#000;stroke:none;stroke-width:.833332" transform="translate(-59.428 -301.597)scale(1.5394)"/>
      </g>
      <path d="m155.633 191.374 7.464 1.316q.33-.472.689-.921l-7.364-2.698q.314-.755.678-1.484l7.836 2.87q.453-.468.936-.902l-7.307-4.498q.453-.682.952-1.326l7.687 4.732q.466-.348.955-.665l-6.67-6.32q.574-.577 1.186-1.114l6.942 6.579q.462-.245.937-.462l-5.462-7.972q.675-.452 1.381-.86l5.625 8.211q.493-.171.997-.318l-3.688-9.315a23 23 0 0 1 1.532-.554l3.757 9.488q.541-.104 1.094-.177l-1.423-10.138a24 24 0 0 1 1.61-.207l1.435 10.208q.383-.016.77-.018.22 0 .44.006l1.138-10.246q.815.053 1.616.164l-1.13 10.192q.495.055.984.137l3.4-9.652q.786.224 1.548.5l-3.345 9.493q.622.162 1.225.366l5.49-8.33q.713.393 1.394.833l-5.338 8.097q.582.258 1.142.553l6.941-6.577q.613.537 1.188 1.112l-6.67 6.32q.486.32.954.665l7.688-4.732q.497.646.95 1.327l-7.307 4.497q.485.436.937.905l7.835-2.871q.364.726.678 1.482l-7.364 2.698q.359.45.688.921l7.465-1.315a43 43 0 0 1-4.576 2.458l-1.95.344q.114.203.223.41a42.8 42.8 0 0 1-16.244 3.183 42.8 42.8 0 0 1-16.249-3.184q.11-.206.226-.409l-1.954-.345a43 43 0 0 1-4.572-2.458z" style="fill:#fff500;fill-rule:evenodd;stroke:none;stroke-width:.833332" transform="translate(-23.758)scale(1.2)"/>
    </g>
  </g>
</svg>
