<?xml version="1.0" encoding="UTF-8" standalone="no"?>
<!-- Created with Inkscape (http://www.inkscape.org/) -->

<svg
   version="1.0"
   width="640"
   height="480"
   id="svg9754"
   sodipodi:version="0.32"
   inkscape:version="1.2.2 (b0a84865, 2022-12-01)"
   sodipodi:docname="ua-18-4x3.svg"
   inkscape:output_extension="org.inkscape.output.svg.inkscape"
   xmlns:inkscape="http://www.inkscape.org/namespaces/inkscape"
   xmlns:sodipodi="http://sodipodi.sourceforge.net/DTD/sodipodi-0.dtd"
   xmlns="http://www.w3.org/2000/svg"
   xmlns:svg="http://www.w3.org/2000/svg"
   xmlns:rdf="http://www.w3.org/1999/02/22-rdf-syntax-ns#"
   xmlns:cc="http://creativecommons.org/ns#"
   xmlns:dc="http://purl.org/dc/elements/1.1/">
  <metadata
     id="metadata3004">
    <rdf:RDF>
      <cc:Work
         rdf:about="">
        <dc:format>image/svg+xml</dc:format>
        <dc:type
           rdf:resource="http://purl.org/dc/dcmitype/StillImage" />
      </cc:Work>
    </rdf:RDF>
  </metadata>
  <sodipodi:namedview
     inkscape:window-height="819"
     inkscape:window-width="1440"
     inkscape:pageshadow="2"
     inkscape:pageopacity="0.0"
     guidetolerance="10.0"
     gridtolerance="10.0"
     objecttolerance="10.0"
     borderopacity="1.0"
     bordercolor="#666666"
     pagecolor="#ffffff"
     id="base"
     inkscape:zoom="1.2479167"
     inkscape:cx="320.13356"
     inkscape:cy="240"
     inkscape:window-x="0"
     inkscape:window-y="25"
     inkscape:current-layer="svg9754"
     inkscape:showpageshadow="2"
     inkscape:pagecheckerboard="0"
     inkscape:deskcolor="#d1d1d1"
     showgrid="false"
     inkscape:window-maximized="0" />
  <defs
     id="defs9757" />
  <rect
     width="640"
     height="480"
     x="5e-07"
     y="5e-07"
     style="fill:#ee161f;fill-opacity:1;stroke:#ffffff;stroke-width:0;stroke-miterlimit:4;stroke-dasharray:none;stroke-opacity:1"
     id="rect2899" />
  <rect
     style="fill:#fff215;fill-opacity:1;fill-rule:evenodd;stroke-width:1"
     id="rect36261"
     width="640"
     height="40"
     x="5e-07"
     y="220" />
  <rect
     style="fill:#fff215;fill-opacity:1;fill-rule:evenodd;stroke-width:1"
     id="rect36261-6"
     width="40.000004"
     height="480"
     x="300"
     y="5e-07" />
  <g
     id="g28819"
     transform="matrix(0.24153522,0,0,0.24153522,-6.0725411,24.452831)"
     style="stroke-width:4.14019">
    <path
       d="M 1050,494.94716 V 989.8943 c 0,20.6978 2.0954,40.9409 6.0938,60.4623 3.9984,19.5214 9.75,38.3021 17.3437,56.244 7.5938,17.9419 16.8704,34.6603 27.6563,50.6196 10.7859,15.9592 23.4562,30.9529 37.0312,44.5265 13.575,13.5736 28.1014,25.7738 44.0625,36.5586 15.9611,10.7848 33.15,20.0603 51.0938,27.6533 17.9437,7.5929 36.7264,13.8125 56.25,17.8106 19.5235,3.998 39.7687,6.0931 60.4687,6.0931 20.7,0 40.9452,-2.0951 60.4688,-6.0931 19.5235,-3.9981 38.3062,-10.2177 56.25,-17.8106 17.9437,-7.593 35.1326,-16.8685 51.0937,-27.6533 15.9611,-10.7848 30.4875,-22.985 44.0625,-36.5586 13.575,-13.5736 26.2454,-28.5673 37.0313,-44.5265 10.7859,-15.9593 20.0625,-32.6777 27.6562,-50.6196 7.5938,-17.9419 13.3454,-36.7226 17.3438,-56.244 3.9984,-19.5214 6.0937,-39.7645 6.0937,-60.4623 V 494.94716 Z"
       style="fill:#00aef5;fill-opacity:1;stroke:#000000;stroke-width:0;stroke-miterlimit:4;stroke-dasharray:none;stroke-opacity:1"
       id="path5726" />
    <g
       transform="matrix(1.510185,0,0,1.5100237,1102.0605,-1828.5939)"
       id="g9386"
       style="stroke-width:1.22672">
      <g
         transform="translate(-208.7166,-195.8063)"
         style="opacity:1;stroke-width:1.22672"
         id="g4693">
        <g
           transform="matrix(-1,0,0,1,598.7373,1713.282)"
           id="g4675"
           style="stroke-width:1.22672">
          <g
             id="g4677"
             style="stroke-width:1.22672">
            <path
               d="m 79.075775,191.6425 h 18.63929 v 37.84125 h -18.63929 z m 18.525894,-0.002 h 38.975201 v 37.84341 H 97.601669 Z m 39.086441,0.11551 h 15.10584 v 37.61447 H 136.68811 Z M 79.075775,170.74185 h 38.737685 v 21.00771 H 79.075775 Z m 38.973015,-4e-5 h 33.64487 v 21.00555 H 118.04879 Z M 79.075775,135.80244 h 20.333771 v 34.93501 H 79.075775 Z m 20.272591,-0.0457 h 37.339744 v 34.8695 H 99.348366 Z m 37.339794,0.21808 h 14.92401 v 34.76704 H 136.68816 Z M 79.07576,99.680649 h 38.05731 V 135.81938 H 79.07576 Z m 38.06801,-0.0021 h 34.38671 v 36.280501 h -34.38671 z"
               style="opacity:1;fill:#ffffff;fill-opacity:1;stroke:#000000;stroke-width:1.15005;stroke-miterlimit:4;stroke-opacity:1"
               id="path4679" />
            <g
               id="g4681"
               style="stroke-width:1.22672">
              <rect
                 width="15.541368"
                 height="37.990013"
                 x="88.396423"
                 y="117.24005"
                 style="opacity:1;fill:#000000;fill-opacity:1;stroke:#000000;stroke-width:0;stroke-miterlimit:4;stroke-dasharray:none;stroke-opacity:1"
                 id="rect4683" />
              <rect
                 width="15.541368"
                 height="37.990013"
                 x="107.67923"
                 y="117.24005"
                 style="opacity:1;fill:#000000;fill-opacity:1;stroke:#000000;stroke-width:0;stroke-miterlimit:4;stroke-dasharray:none;stroke-opacity:1"
                 id="rect4685" />
              <rect
                 width="15.541368"
                 height="37.990013"
                 x="127.24985"
                 y="117.24005"
                 style="opacity:1;fill:#000000;fill-opacity:1;stroke:#000000;stroke-width:0;stroke-miterlimit:4;stroke-dasharray:none;stroke-opacity:1"
                 id="rect4687" />
            </g>
          </g>
          <rect
             width="77.014023"
             height="6.8697953"
             x="76.927841"
             y="95.689583"
             style="opacity:1;fill:#ffffff;fill-opacity:1;stroke:#000000;stroke-width:1.15005;stroke-linejoin:round;stroke-miterlimit:4;stroke-dasharray:none;stroke-opacity:1"
             id="rect4689" />
          <path
             d="m 72.32548,69.03125 v 31 h 86.21875 v -31 H 146.38798 V 83.875 H 135.35673 V 69.03125 h -13.875 V 83.875 H 110.45048 V 69.03125 h -13.875 V 83.875 H 85.54423 V 69.03125 Z"
             style="opacity:1;fill:#ffffff;fill-opacity:1;stroke:#000000;stroke-width:1.15005;stroke-linejoin:round;stroke-miterlimit:4;stroke-dasharray:none;stroke-opacity:1"
             id="path4691" />
        </g>
        <g
           transform="translate(147.0957,1712.516)"
           id="g34793"
           style="stroke-width:1.22672">
          <g
             id="g33001"
             style="stroke-width:1.22672">
            <path
               d="m 79.075775,191.6425 h 18.63929 v 37.84125 h -18.63929 z m 18.525894,-0.002 h 38.975201 v 37.84341 H 97.601669 Z m 39.086441,0.11551 h 15.10584 v 37.61447 H 136.68811 Z M 79.075775,170.74185 h 38.737685 v 21.00771 H 79.075775 Z m 38.973015,-4e-5 h 33.64487 v 21.00555 H 118.04879 Z M 79.075775,135.80244 h 20.333771 v 34.93501 H 79.075775 Z m 20.272591,-0.0457 h 37.339744 v 34.8695 H 99.348366 Z m 37.339794,0.21808 h 14.92401 v 34.76704 H 136.68816 Z M 79.07576,99.680649 h 38.05731 V 135.81938 H 79.07576 Z m 38.06801,-0.0021 h 34.38671 v 36.280501 h -34.38671 z"
               style="opacity:1;fill:#ffffff;fill-opacity:1;stroke:#000000;stroke-width:1.15005;stroke-miterlimit:4;stroke-opacity:1"
               id="rect30290" />
            <g
               id="g32996"
               style="stroke-width:1.22672">
              <rect
                 width="15.541368"
                 height="37.990013"
                 x="88.396423"
                 y="117.24005"
                 style="opacity:1;fill:#000000;fill-opacity:1;stroke:#000000;stroke-width:0;stroke-miterlimit:4;stroke-dasharray:none;stroke-opacity:1"
                 id="rect32095" />
              <rect
                 width="15.541368"
                 height="37.990013"
                 x="107.67923"
                 y="117.24005"
                 style="opacity:1;fill:#000000;fill-opacity:1;stroke:#000000;stroke-width:0;stroke-miterlimit:4;stroke-dasharray:none;stroke-opacity:1"
                 id="rect32982" />
              <rect
                 width="15.541368"
                 height="37.990013"
                 x="127.24985"
                 y="117.24005"
                 style="opacity:1;fill:#000000;fill-opacity:1;stroke:#000000;stroke-width:0;stroke-miterlimit:4;stroke-dasharray:none;stroke-opacity:1"
                 id="rect32986" />
            </g>
          </g>
          <rect
             width="77.014023"
             height="6.8697953"
             x="76.927841"
             y="95.689583"
             style="opacity:1;fill:#ffffff;fill-opacity:1;stroke:#000000;stroke-width:1.15005;stroke-linejoin:round;stroke-miterlimit:4;stroke-dasharray:none;stroke-opacity:1"
             id="rect34791" />
          <path
             d="m 72.32548,69.03125 v 31 h 86.21875 v -31 H 146.38798 V 83.875 H 135.35673 V 69.03125 h -13.875 V 83.875 H 110.45048 V 69.03125 h -13.875 V 83.875 H 85.54423 V 69.03125 Z"
             style="opacity:1;fill:#ffffff;fill-opacity:1;stroke:#000000;stroke-width:1.15005;stroke-linejoin:round;stroke-miterlimit:4;stroke-dasharray:none;stroke-opacity:1"
             id="rect33008" />
        </g>
        <g
           id="g4668"
           style="stroke-width:1.22672">
          <path
             d="m 330.96138,1897.4387 h 16.1349 v 47.9198 h -16.1349 z m 16.12696,-0.036 h 25.38699 v 47.9565 h -25.38699 z m 25.34213,-0.032 h 29.48907 v 47.9888 h -29.48907 z m 29.44449,-0.068 h 13.95747 v 48.0542 h -13.95747 z m -70.99494,-21.0592 h 26.80606 v 21.1137 h -26.80606 z m 26.63468,0.08 h 32.38006 v 21.1217 H 357.5147 Z m 32.42489,-5e-4 h 25.80294 v 21.1585 h -25.80294 z m -59.10983,-37.4905 h 13.03307 v 37.4044 h -13.03307 z m 13.05518,0.088 h 28.54546 v 37.2783 h -28.54546 z m 28.40307,-0.1754 h 31.93542 v 37.6567 h -31.93542 z m -41.6282,-59.9754 h 13.33471 v 60.0255 h -13.33471 z m 13.32394,0.038 h 28.1561 v 60.2834 h -28.1561 z m 28.22168,0 h 31.82014 v 60.0803 h -31.82014 z m 31.84787,0.042 h 11.65078 v 59.828 H 404.0533 Z m 0.0827,59.7809 h 11.65079 v 37.6567 H 404.136 Z"
             style="opacity:1;fill:#ffffff;fill-opacity:1;stroke:#000000;stroke-width:1.15005;stroke-linejoin:round;stroke-miterlimit:4;stroke-opacity:1"
             id="rect1947" />
          <path
             d="m 319.71875,1755.25 v 35.6562 h 107.0625 V 1755.25 H 411 v 14.4375 H 396.46875 V 1755.25 H 380.1875 v 14.4375 h -14.5 V 1755.25 H 349.375 v 14.4375 h -14.5 V 1755.25 Z"
             style="opacity:1;fill:#ffffff;fill-opacity:1;stroke:#000000;stroke-width:1.15005;stroke-linejoin:round;stroke-miterlimit:4;stroke-dasharray:none;stroke-opacity:1"
             id="rect2881" />
          <rect
             width="14.436218"
             height="47.590065"
             x="344.62769"
             y="1812.4061"
             style="opacity:1;fill:#000000;fill-opacity:1;stroke:#000000;stroke-width:0;stroke-linejoin:miter;stroke-miterlimit:4;stroke-dasharray:none;stroke-opacity:1"
             id="rect3777" />
          <rect
             width="14.436218"
             height="47.590065"
             x="366.22971"
             y="1812.4061"
             style="opacity:1;fill:#000000;fill-opacity:1;stroke:#000000;stroke-width:0;stroke-linejoin:miter;stroke-miterlimit:4;stroke-dasharray:none;stroke-opacity:1"
             id="rect4664" />
          <rect
             width="14.436218"
             height="47.590065"
             x="387.83173"
             y="1812.4061"
             style="opacity:1;fill:#000000;fill-opacity:1;stroke:#000000;stroke-width:0;stroke-linejoin:miter;stroke-miterlimit:4;stroke-dasharray:none;stroke-opacity:1"
             id="rect4666" />
        </g>
        <g
           transform="translate(144.0102,1706.681)"
           id="g30283"
           style="stroke-width:1.22672">
          <path
             d="m 371.13469,280.19159 v 21.84375 h 22.8125 v -22 h -0.0625 v 0.15625 z m 0,0 h 22.75 v -0.15625 h -22.75 z m -80.78125,21.6875 h 0.0312 v -21.65625 h -0.0312 z m 20.03125,-21.6875 v 0.0625 h 44.34375 v -0.0625 h -0.0625 -44.21875 z m -20.03125,0 v 0.0312 h 0.0312 v 21.65625 h -0.0312 v 0.125 h 80.71875 v -21.8125 h -16.34375 v 0.0625 h -44.34375 v -0.0625 z m -20.71875,0.0312 h 20.71875 v -0.0312 h -20.71875 z m -167.3125,-0.0312 v 0.0625 h 44.3125 v -0.0625 h -0.0312 -44.25 z m 64.375,0.0312 h 20.71875 v -0.0312 h -20.71875 z m 0,21.65625 v -21.65625 h -0.0312 v 21.65625 z m 0,0 h -0.0312 v -21.65625 h 0.0312 v -0.0312 h -20.0625 v 0.0625 h -44.3125 v -0.0625 H 85.947185 v 21.8125 h 80.750005 z m 47.09375,-21.625 h -26.375 v -0.0312 h -20.71875 v 21.65625 h 24.0625 c 0.94563,-2.05181 1.93201,-4.07964 3.1875,-5.9375 1.52126,-2.25114 3.27287,-4.33537 5.1875,-6.25 1.91463,-1.91463 3.99886,-3.63499 6.25,-5.15625 2.25114,-1.52126 4.6567,-2.83522 7.1875,-3.90625 0.38822,-0.16429 0.82485,-0.22199 1.21875,-0.375 z m 0.0937,-0.0312 h -26.46875 v 0.0312 h 26.375 c 0.0305,-0.0119 0.0632,-0.0195 0.0937,-0.0312 z m 30.40625,0.0312 h 25.34375 v -0.0312 h -25.4375 c 0.0306,0.0118 0.0632,0.0194 0.0937,0.0312 z m 23.0625,21.625 h 23 v -21.65625 h -20.71875 v 0.0312 h -25.34375 c 0.3939,0.15301 0.83053,0.21071 1.21875,0.375 2.5308,1.07103 4.93636,2.38499 7.1875,3.90625 2.25114,1.52126 4.33537,3.24162 6.25,5.15625 1.91463,1.91463 3.66624,3.99886 5.1875,6.25 1.25597,1.85857 2.26544,3.88484 3.21875,5.9375 z m 103.84375,73.4375 h -0.0312 v 25.25 h 0.0312 z m 0,0 v 25.25 h 22.75 v -25.25 z m -0.0312,-21.84375 h 22.78125 v -25.25 h -22.78125 z m -16.53125,0 v 21.78125 h 39.3125 v -21.78125 h -22.78125 z m 0.25,-51.40625 v 26.0625 h 39.0625 v -26.0625 z m -87.4375,-0.0312 c 0.17406,0.37912 0.43081,0.70873 0.59375,1.09375 1.07103,2.5308 1.90481,5.1839 2.46875,7.9375 0.2831,1.38229 0.85545,2.85358 1,4.28125 v 12.8125 h 83.375 v -0.0312 -26.0625 -0.0312 z m -165.28125,0.0312 v 26.0625 0.0312 h 84.40625 v -12.8125 c 0.14454,-1.42714 0.74826,-2.89946 1.03125,-4.28125 0.56394,-2.7536 1.39772,-5.4067 2.46875,-7.9375 0.16324,-0.38572 0.42058,-0.71395 0.59375,-1.09375 h -88.5 z m -38.906255,26.0625 h 38.906255 v -26.0625 H 63.259685 Z m 0,25.34375 h 22.59375 v -25.25 h -22.59375 z m 0,21.78125 h 39.125005 v -21.7812 H 85.853435 63.259685 Z m 22.5625,0.0625 v 25.25 h 0.03125 v -25.25 z m -22.5625,25.25 h 22.5625 v -25.25 h -22.5625 z m 123.312505,0 h -100.718755 -0.03125 -22.5625 v 42.03125 H 186.57219 Z m 0,-25.21875 h -84.15625 v -0.0625 H 85.822185 v 0.0312 h 0.03125 v 25.25 H 186.57219 Z m 0,-0.0625 h -84.15625 v 0.0625 h 84.15625 z m -84.15625,-21.84375 v 21.84375 h 84.15625 v -21.84375 z m 0,0 h 84.15625 v -0.0937 h -84.15625 z m 84.15625,-25.25 v -0.0312 h -84.40625 v -0.0312 H 63.259685 v 0.0937 h 22.59375 v 25.25 h 16.531255 v 21.78125 H 63.259685 v 0.0625 h 22.5625 v -0.0312 h 16.593755 v -21.8438 H 85.978435 v -25.25 z m 0,0 H 85.978435 v 25.25 h 16.437505 v -0.0937 h 84.15625 z m 84.9375,25.15625 h 83.125 v 0.0937 h 16.4375 v -25.25 h -99.5625 z m 0,0.0937 h 83.125 v -0.0937 h -83.125 z m 0,21.84375 h 83.125 v -0.0312 -21.78125 -0.0312 h -83.125 z m 0,0.0625 h 83.125 v -0.0625 h -83.125 z m 0,25.21875 h 99.65625 v -25.25 h 0.0312 v -0.0312 h -16.5625 v 0.0625 h -83.125 z m 122.375,-144.78125 v 24.25 h 0.0625 v 22 h -22.8125 v -21.84375 h -0.0625 v 21.8125 h -80.71875 v -0.125 h -23 c 0.0257,0.0553 0.0683,0.10079 0.0937,0.15625 h 87.4375 v 0.0312 h 39.0625 v 26.0625 h -39.0625 v 0.0312 h -83.375 v 0.0312 h 99.5625 v 25.25 h -16.4375 v 0.0312 h 16.53125 v -25.25 h 22.78125 v 25.25 21.78125 h -39.3125 v 0.0312 h 16.5625 v 0.0312 h 22.75 v 25.25 h -22.75 -0.0312 -99.65625 v 42.03125 h 122.53125 v -186.8125 z m -39.15625,0 v 24.40625 h 16.34375 0.0625 v -0.15625 h 22.75 v -24.25 z m -0.0625,0 v 24.40625 h 0.0625 v -24.40625 z m -44.21875,0 v 24.40625 h 44.21875 v -24.40625 z m -0.0625,0 v 24.40625 h 0.0625 v -24.40625 z m -40.75,0 v 24.40625 h 20.71875 20.03125 v -24.40625 z m -29.09375,0 v 23.3125 c 1.23114,0.35043 2.47326,0.66862 3.65625,1.125 h 25.4375 v -0.0312 -24.40625 z m -24.03125,0 v 23.625 c 1.33434,-0.4173 2.61178,-0.96569 4,-1.25 2.7536,-0.56394 5.61171,-0.875 8.53125,-0.875 2.91954,0 5.77765,0.31106 8.53125,0.875 1.03128,0.21121 1.96681,0.65231 2.96875,0.9375 v -23.3125 z m -29.09375,0 v 24.40625 0.0312 h 26.46875 c 0.84977,-0.32783 1.75008,-0.53888 2.625,-0.8125 v -23.625 z m -40.78125,0 v 24.40625 h 20.0625 20.71875 v -24.40625 z m -0.0312,0 v 24.40625 h 0.0312 v -24.40625 z m -44.25,0 v 24.40625 h 44.25 v -24.40625 z m -0.0312,0 v 24.40625 h 0.0312 v -24.40625 z m -16.406255,24.40625 h 0.03125 16.375005 V 255.78534 H 63.259685 v 24.25 h 22.65625 z m 0,0 v -0.15625 h -22.65625 v 0.15625 z m -22.65625,21.84375 v 0.0312 h 38.906255 v -0.0312 h 88.5 c 0.0253,-0.0556 0.0682,-0.10083 0.0937,-0.15625 h -24.0625 v 0.125 H 85.947185 v -21.8125 h -0.03125 v 21.84375 z m 0,0 h 22.65625 v -21.84375 h -22.65625 z"
             style="opacity:1;fill:#ffffff;fill-opacity:1;stroke:#000000;stroke-width:1.15005;stroke-miterlimit:4;stroke-opacity:1"
             id="path28412" />
          <rect
             width="339.25629"
             height="17.283564"
             x="59.773636"
             y="239.77562"
             style="opacity:1;fill:#ffffff;fill-opacity:1;stroke:#000000;stroke-width:1.15005;stroke-miterlimit:4;stroke-dasharray:none;stroke-opacity:1"
             id="rect28471" />
          <path
             d="m 53.1875,202.3125 v 44.71875 H 404.625 V 202.3125 h -21.65625 v 23.46875 h -12.9375 V 202.3125 h -18.4375 v 23.46875 h -12.9375 V 202.3125 H 318.25 v 23.46875 H 305.28125 V 202.3125 H 284.375 v 23.46875 H 271.4375 V 202.3125 H 252 v 23.46875 H 239.0625 V 202.3125 H 218.625 v 23.46875 H 205.6875 V 202.3125 H 187.25 v 23.46875 H 174.3125 V 202.3125 H 153.875 v 23.46875 H 140.9375 V 202.3125 h -20.40625 v 23.46875 H 107.5625 V 202.3125 H 89.15625 v 23.46875 H 76.1875 V 202.3125 Z"
             style="opacity:1;fill:#ffffff;fill-opacity:1;stroke:#000000;stroke-width:1.15005;stroke-miterlimit:4;stroke-dasharray:none;stroke-opacity:1"
             id="rect29358" />
        </g>
      </g>
      <g
         transform="translate(0.0870782,-0.00418417)"
         id="g9324"
         style="stroke-width:1.22672">
        <path
           d="m 58.875,1788.7188 v 52.75 44.4062 67.6875 h 51.59375 v -104.6563 c 0.009,-0.032 0.022,-0.062 0.0312,-0.094 v -23.0313 c -5.82113,-19.9509 -26.414955,-35.1136 -51.625,-37.0624 z"
           style="opacity:1;fill:#ffffff;fill-opacity:1;stroke:#000000;stroke-width:1.15005;stroke-linejoin:miter;stroke-miterlimit:4;stroke-dasharray:none;stroke-opacity:1"
           id="rect7510" />
        <path
           d="m 81.5625,1837.125 v 6.5938 l -10.0625,-4 -2.75,6.9062 12.8125,5.0938 v 8.5312 H 87.25 V 1854 l 5.875,2.3438 v 9.3437 h 5.6875 v -7.0937 l 12.90625,5.1562 2.75,-6.9062 -15.65625,-6.25 v -8.0313 H 93.125 v 5.7813 L 87.25,1846 v -8.875 z"
           style="opacity:1;fill:#000000;fill-opacity:1;stroke:#000000;stroke-width:0;stroke-linejoin:miter;stroke-miterlimit:4;stroke-dasharray:none;stroke-opacity:1"
           id="rect7521" />
        <path
           d="m 81.124067,1880.4181 v 6.5938 l -10.0625,-4 -2.75,6.9062 12.8125,5.0938 v 8.5312 h 5.6875 v -6.25 l 5.875,2.3438 v 9.3437 h 5.6875 v -7.0937 l 12.906243,5.1562 2.75,-6.9062 -15.656243,-6.25 v -8.0313 h -5.6875 v 5.7813 l -5.875,-2.3438 v -8.875 z"
           style="opacity:1;fill:#000000;fill-opacity:1;stroke:#000000;stroke-width:0;stroke-linejoin:miter;stroke-miterlimit:4;stroke-dasharray:none;stroke-opacity:1"
           id="path9322" />
      </g>
      <path
         d="m 151.65631,1779.8202 c -20.99465,4.6596 -37.35499,21.7714 -41.0625,43.2301 h -0.0625 v 130.5704 h 12.46875 v -130.5704 c 2.82593,-15.4253 14.01541,-27.9225 28.65625,-32.5404 z"
         style="opacity:1;fill:#ffffff;fill-opacity:1;stroke:#000000;stroke-width:1.15005;stroke-linejoin:miter;stroke-miterlimit:4;stroke-dasharray:none;stroke-opacity:1"
         id="path6576" />
      <g
         transform="matrix(-1,0,0,1,327.9502,-0.00418417)"
         id="g9329"
         style="stroke-width:1.22672">
        <path
           d="m 58.875,1788.7188 v 52.75 44.4062 67.6875 h 51.59375 v -104.6563 c 0.009,-0.032 0.022,-0.062 0.0312,-0.094 v -23.0313 c -5.82113,-19.9509 -26.414955,-35.1136 -51.625,-37.0624 z"
           style="opacity:1;fill:#ffffff;fill-opacity:1;stroke:#000000;stroke-width:1.15005;stroke-linejoin:miter;stroke-miterlimit:4;stroke-dasharray:none;stroke-opacity:1"
           id="path9331" />
        <path
           d="m 81.5625,1837.125 v 6.5938 l -10.0625,-4 -2.75,6.9062 12.8125,5.0938 v 8.5312 H 87.25 V 1854 l 5.875,2.3438 v 9.3437 h 5.6875 v -7.0937 l 12.90625,5.1562 2.75,-6.9062 -15.65625,-6.25 v -8.0313 H 93.125 v 5.7813 L 87.25,1846 v -8.875 z"
           style="opacity:1;fill:#000000;fill-opacity:1;stroke:#000000;stroke-width:0;stroke-linejoin:miter;stroke-miterlimit:4;stroke-dasharray:none;stroke-opacity:1"
           id="path9333" />
        <path
           d="m 81.124067,1880.4181 v 6.5938 l -10.0625,-4 -2.75,6.9062 12.8125,5.0938 v 8.5312 h 5.6875 v -6.25 l 5.875,2.3438 v 9.3437 h 5.6875 v -7.0937 l 12.906243,5.1562 2.75,-6.9062 -15.656243,-6.25 v -8.0313 h -5.6875 v 5.7813 l -5.875,-2.3438 v -8.875 z"
           style="opacity:1;fill:#000000;fill-opacity:1;stroke:#000000;stroke-width:0;stroke-linejoin:miter;stroke-miterlimit:4;stroke-dasharray:none;stroke-opacity:1"
           id="path9335" />
      </g>
      <path
         d="m 176.39599,1779.5846 c 20.99465,4.6644 37.35499,21.7939 41.0625,43.2749 h 0.0625 v 130.7059 h -12.46875 v -130.7059 c -2.82593,-15.4412 -14.01541,-27.9514 -28.65625,-32.5742 z"
         style="opacity:1;fill:#ffffff;fill-opacity:1;stroke:#000000;stroke-width:1.15005;stroke-linejoin:miter;stroke-miterlimit:4;stroke-dasharray:none;stroke-opacity:1"
         id="path7475" />
    </g>
  </g>
</svg>
