<?xml version="1.0" encoding="UTF-8" standalone="no"?>
<svg
   width="640"
   height="480"
   version="1.1"
   viewBox="0 0 640 480"
   id="svg44597"
   sodipodi:docname="ua-sv-4x3.svg"
   inkscape:version="1.2.2 (b0a84865, 2022-12-01)"
   xmlns:inkscape="http://www.inkscape.org/namespaces/inkscape"
   xmlns:sodipodi="http://sodipodi.sourceforge.net/DTD/sodipodi-0.dtd"
   xmlns:xlink="http://www.w3.org/1999/xlink"
   xmlns="http://www.w3.org/2000/svg"
   xmlns:svg="http://www.w3.org/2000/svg">
  <sodipodi:namedview
     id="namedview44599"
     pagecolor="#ffffff"
     bordercolor="#666666"
     borderopacity="1.0"
     inkscape:showpageshadow="2"
     inkscape:pageopacity="0.0"
     inkscape:pagecheckerboard="0"
     inkscape:deskcolor="#d1d1d1"
     showgrid="false"
     inkscape:zoom="1.2479167"
     inkscape:cx="320.13356"
     inkscape:cy="240"
     inkscape:window-width="1440"
     inkscape:window-height="819"
     inkscape:window-x="0"
     inkscape:window-y="25"
     inkscape:window-maximized="0"
     inkscape:current-layer="svg44597"
     inkscape:document-units="px" />
  <defs
     id="defs44479">
    <linearGradient
       id="c"
       x1="519.09003"
       x2="536.66998"
       y1="256.76999"
       y2="262.42999"
       gradientTransform="matrix(0.70537286,0,0,0.70542322,-156.3908,50.013622)"
       gradientUnits="userSpaceOnUse"
       xlink:href="#a" />
    <linearGradient
       id="d"
       x1="546.09998"
       x2="561.46002"
       y1="224.85001"
       y2="224.85001"
       gradientTransform="matrix(0.70537286,0,0,0.70542322,-156.3908,50.013622)"
       gradientUnits="userSpaceOnUse"
       xlink:href="#a" />
    <linearGradient
       id="e"
       x1="575.96997"
       x2="598.07001"
       y1="183.28999"
       y2="186.81"
       gradientTransform="matrix(0.70537286,0,0,0.70542322,-156.3908,50.013622)"
       gradientUnits="userSpaceOnUse">
      <stop
         stop-color="#a80"
         offset="0"
         id="stop44448" />
      <stop
         stop-color="#d4aa00"
         stop-opacity="0"
         offset="1"
         id="stop44450" />
    </linearGradient>
    <linearGradient
       id="f"
       x1="588"
       x2="599.48999"
       y1="222.87"
       y2="245.28999"
       gradientTransform="matrix(0.70537286,0,0,0.70542322,-156.3908,50.013622)"
       gradientUnits="userSpaceOnUse">
      <stop
         stop-color="#a80"
         offset="0"
         id="stop44453" />
      <stop
         stop-color="#d4aa00"
         stop-opacity="0"
         offset="1"
         id="stop44455" />
    </linearGradient>
    <linearGradient
       id="g"
       x1="529.02002"
       x2="526.48999"
       y1="307"
       y2="326.06"
       gradientTransform="matrix(0.70537286,0,0,0.70542322,-156.3908,50.013622)"
       gradientUnits="userSpaceOnUse"
       xlink:href="#a" />
    <linearGradient
       id="h"
       x1="556.88"
       x2="561.98999"
       y1="273.82001"
       y2="295.45999"
       gradientTransform="matrix(0.70537286,0,0,0.70542322,-156.3908,50.013622)"
       gradientUnits="userSpaceOnUse"
       xlink:href="#a" />
    <radialGradient
       id="b"
       cx="710.20001"
       cy="106.48"
       r="55.722"
       gradientTransform="matrix(0.88035769,0,0,0.83737339,-407.63427,35.742435)"
       gradientUnits="userSpaceOnUse">
      <stop
         stop-color="#a80"
         offset="0"
         id="stop44460" />
      <stop
         stop-color="#a80"
         stop-opacity="0"
         offset="1"
         id="stop44462" />
    </radialGradient>
    <linearGradient
       id="i"
       x1="517.58002"
       x2="517.58002"
       y1="10.213"
       y2="-27.381001"
       gradientTransform="matrix(0.70537286,0,0,0.70542322,-156.3908,50.013622)"
       gradientUnits="userSpaceOnUse">
      <stop
         stop-color="#a00"
         offset="0"
         id="stop44465" />
      <stop
         stop-color="#d40000"
         offset=".2465"
         id="stop44467" />
      <stop
         stop-color="#d40000"
         offset=".72148"
         id="stop44469" />
      <stop
         stop-color="#f00"
         offset="1"
         id="stop44471" />
    </linearGradient>
    <linearGradient
       id="a">
      <stop
         stop-color="#a80"
         offset="0"
         id="stop44474" />
      <stop
         stop-color="#a80"
         stop-opacity="0"
         offset="1"
         id="stop44476" />
    </linearGradient>
  </defs>
  <rect
     x="0"
     y="0"
     width="640"
     height="480"
     fill="#d40000"
     id="rect44481"
     style="stroke-width:1" />
  <g
     transform="matrix(0.71328056,0,0,0.71322965,187.3341,79.565699)"
     id="g44595"
     style="stroke-width:0.705664">
    <g
       fill-rule="evenodd"
       id="g44497"
       style="stroke-width:0.156815">
      <path
         d="m 370.79,375.66 c 0,24.688 -20.019,44.706 -44.707,44.706 h -107.86 c -16.871,0.3819 -30.786,12.726 -33.607,28.882 -2.8088,-16.157 -16.73,-28.501 -33.595,-28.882 H 45.911 C 21.223,420.366 1.198,400.347 1.198,375.66 V 0.75 h 369.58 v 374.91 z"
         fill="#ffd500"
         stroke="#d4a900"
         stroke-width="1.05808"
         id="path44483" />
      <path
         d="m 367.09,375.66 h -0.01 0.01 L 367.095,4.46 H 4.925 v 371.2 0.005 h -0.01 c 0,11.303 4.5951,21.553 12.024,28.981 7.4224,7.4223 17.672,12.024 28.981,12.024 v -0.0197 h 0.005 105.11 l 0.068,0.0197 c 13.41,0.30206 25.131,7.4285 31.821,18.035 0.6098,0.97323 1.1826,1.9711 1.7062,2.9997 4.0222,-7.8412 10.638,-14.13 18.719,-17.727 2.2606,-1.004 4.632,-1.7986 7.0959,-2.3591 2.4392,-0.56053 4.9831,-0.88083 7.601,-0.94858 h 0.0197 0.0986 l 0.0739,-0.0197 h 107.86 0.005 v 0.0197 c 11.303,-0.005 21.553,-4.6012 28.975,-12.024 7.4285,-7.4285 12.024,-17.678 12.024,-28.987 z"
         fill="#007ccc"
         id="path44485"
         style="stroke-width:0.0348476" />
      <path
         d="m 367.09,375.66 h -0.01 0.01 L 367.095,4.46 H 4.925 l 351.54,398.72 c 6.6031,-7.2807 10.625,-16.939 10.625,-27.521 z"
         fill="#ffffff"
         id="path44487"
         style="stroke-width:0.0348476" />
      <path
         d="m 81.702,141.86 c -3.394,0.0557 -9.5721,1.4722 -10.533,2.661 -0.51125,0.62828 -1.1334,0.68372 -2.2667,0.22766 -1.9834,-0.73916 -2.7164,-0.28334 -2.7164,1.5892 0,2.5439 1.2442,2.9997 6.6832,2.3222 2.7164,-0.34494 5.8886,-0.85003 6.9665,-1.0779 l 2.0388,-0.40063 v 3.2338 c 0,3.2276 -1.3613,7.7611 -2.3222,7.4778 -1.1888,-0.34495 -4.5889,0.78843 -4.5335,1.5276 0,0.4499 0.56669,1.5276 1.195,2.3776 0.67757,0.85002 1.2443,2.1559 1.2443,2.8888 0,0.73917 0.62212,2.1004 1.3551,3.0613 0.62828,0.90546 0.45582,2.0943 1.2504,2.5501 -1.1888,31.722 -1.0225,63.444 -0.96706,95.111 -0.85003,-0.11727 -0.85003,0.28335 -0.9609,0.90547 0,0.67756 -0.28334,1.2442 -0.62213,1.2442 -0.33902,0 -1.0779,1.5892 -1.6446,3.5172 -0.96091,3.2831 -3.4001,7.1328 -3.4001,5.3774 0,-0.90547 -4.6444,-1.0163 -6.3382,-0.11087 -1.6446,0.90547 -1.5338,3.1168 0.27694,6.5723 0.85002,1.583 1.3613,2.8888 1.0779,2.8888 -0.22766,0 -0.44989,0.733 -0.56668,1.583 -0.05518,0.90547 -0.85003,3.1722 -1.7001,5.0447 -1.0163,2.2051 -1.583,4.5889 -1.583,6.5723 0,2.5439 -0.17247,3.0552 -0.9609,2.7164 -0.51125,-0.17247 -1.5337,-1.4167 -2.2113,-2.7164 -0.90547,-1.8725 -1.4722,-2.3283 -2.4392,-2.0388 -0.73299,0.16607 -1.2997,0.56053 -1.2997,0.89931 0,0.34493 -0.51125,1.3058 -1.1888,2.1559 -0.68372,0.85003 -1.4167,2.661 -1.6446,3.9668 -0.22816,1.3551 -0.79459,2.6055 -1.2997,2.8273 -0.51125,0.17247 -0.91162,0.91163 -0.91162,1.5892 0,1.8109 -1.8664,7.0836 -2.8889,8.2724 -0.62213,0.73299 -0.90547,2.4885 -0.85003,6.0056 0.11728,6.2828 -1.0718,9.6829 -2.7718,7.989 -0.85619,-0.85003 -2.3222,-0.68372 -2.8334,0.33853 -0.33853,0.56669 -0.90547,3.1722 -1.3058,5.7777 -0.4499,2.6055 -1.1888,6.5662 -1.7001,8.7775 -0.50508,2.2667 -1.0718,6.6832 -1.2442,9.8 -0.11087,3.1168 -0.39421,6.2335 -0.56668,6.9111 -0.11088,0.67755 -0.05568,1.5892 0.17246,1.9218 0.62213,0.96705 2.661,0.85619 2.661,-0.16607 0,-1.3613 1.7001,-0.90546 2.2113,0.56669 0.22175,0.79459 0.50509,2.6055 0.56053,4.0222 0.11728,3.2276 1.3613,4.8723 3.2892,4.361 0.79459,-0.16607 1.583,-0.0557 1.8109,0.28334 0.22815,0.34493 0.90547,0.62212 1.5892,0.62212 0.79459,0 1.6385,1.1334 2.778,3.5726 1.4106,3.1168 1.8048,3.511 3.1661,3.2276 0.96706,-0.17247 2.1004,0.11087 2.8334,0.7946 1.0779,0.90546 1.7555,0.96089 4.5889,0.39421 4.2501,-0.78844 14.389,-1.0225 15.411,-0.28335 0.39421,0.33854 1.0163,0.45582 1.2997,0.28335 0.33853,-0.22766 2.2113,-0.56669 4.2501,-0.733 2.0388,-0.22815 4.361,-0.51125 5.1556,-0.62828 0.733,-0.11087 3.394,0.11678 5.8886,0.45582 2.8889,0.4499 4.5889,0.4499 4.8723,0.0557 0.39422,-0.62212 3.2276,-0.56669 15.806,0.17247 8.8945,0.44989 10.194,0.44989 12.633,0.0557 6.6278,-1.0779 6.9111,-1.0779 7.5332,0.56669 0.35135,0.94858 0.57285,1.3305 1.583,1.4167 h 1.2381 c 0.47404,-0.0246 1.0348,-0.0616 1.7124,-0.11728 2.7718,-0.22175 4.1886,-0.67756 4.7552,-1.4106 0.39421,-0.62213 0.79459,-0.85619 0.79459,-0.62213 0,0.27694 0.33903,0.22175 0.7946,-0.17246 0.4499,-0.33853 3.1106,-0.67757 5.8332,-0.73916 2.778,-0.0557 5.7777,-0.39422 6.6832,-0.78843 1.928,-0.79459 3.4556,-4.5335 2.7226,-6.6894 -0.22815,-0.79459 -0.45581,-3.1168 -0.51125,-5.1556 -0.11727,-4.1331 0.17247,-3.7943 -5.6114,-6.9111 -1.6384,-0.90546 -2.7718,-1.8664 -2.4885,-2.1497 0.22174,-0.28334 0.0552,-0.28334 -0.34494,-0.0552 -1.1272,0.62213 -5.1494,-0.90546 -5.4882,-2.1559 -0.40062,-1.2442 0,-5.0386 0.84386,-7.8166 0.34494,-1.0779 0.79459,-3.2831 1.0225,-4.8723 0.17246,-1.6446 0.62211,-3.1722 0.9609,-3.3385 0.28334,-0.17247 0.73915,-1.6446 0.96705,-3.1784 0.22767,-1.583 0.733,-2.7718 1.0779,-2.661 0.67755,0.22766 4.8661,-3.5664 4.8661,-4.4719 0,-0.85003 -2.9443,-2.6055 -4.3056,-2.6055 -0.62213,0 -1.3551,-0.17248 -1.583,-0.40013 -0.22766,-0.28335 -1.3613,-0.56053 -2.4946,-0.62213 -2.0388,-0.16606 -9.9663,-0.73299 -11.839,-0.79459 -0.51124,-0.0557 -1.3551,-0.78843 -1.8109,-1.7 -0.67755,-1.1888 -1.1888,-1.4722 -2.3222,-1.2442 -0.79459,0.22816 -1.4722,0.11728 -1.4722,-0.16606 0,-0.33854 -1.2504,-0.90546 -2.8334,-1.3058 -2.5501,-0.62212 -3.1722,-1.1888 -2.8889,-2.7718 0.0557,-0.28925 -0.17247,-0.34494 -0.45581,-0.17247 -0.73299,0.45581 -1.9834,-2.3776 -2.0388,-4.5335 0,-0.9609 -0.51125,-2.433 -1.1888,-3.2831 -0.67755,-0.8501 -1.2442,-1.9834 -1.2442,-2.5501 0,-0.51125 -0.34493,-1.2442 -0.68371,-1.583 -0.33854,-0.34494 -0.90547,-2.1559 -1.2442,-4.0284 -0.85003,-4.361 -1.4167,-5.0386 -4.1331,-4.5889 -1.7001,0.28334 -2.1559,0.11728 -2.1559,-0.67756 0,-0.51125 -0.56669,-1.1334 -1.2997,-1.3551 -0.73915,-0.22814 -1.6446,-1.3058 -2.1559,-2.4392 -1.1888,-2.8334 -2.2667,-6.1165 -2.661,-7.872 -0.22766,-0.85618 -1.3058,-2.4946 -2.4946,-3.7389 -1.1272,-1.2504 -2.2667,-2.8334 -2.433,-3.5726 -0.96089,-3.3385 -2.9997,-6.7386 -4.361,-7.3607 -1.2504,-0.56669 -1.4721,-1.0225 -1.195,-2.1559 0.23407,-0.90545 0.11729,-1.5276 -0.27743,-1.5276 -0.45581,0 -0.96706,-0.56669 -1.3613,-1.2442 0,-32.067 -0.45581,-63.9 -1.7001,-95.339 l 0.05568,-0.17247 c 0.40062,-0.51125 0.51125,-0.79459 0.79459,-0.9609 0.45581,-0.28334 0.85003,-1.1888 0.85003,-1.9834 0,-0.7946 0.56669,-2.0943 1.2442,-2.8889 1.5892,-1.8109 1.5892,-2.2668 0,-3.2831 -1.2997,-0.79459 -1.7001,-3.5171 -0.67756,-4.5951 0.9609,-1.0718 0.9609,-2.9997 -0.17248,-5.5498 -0.56669,-1.2997 -0.90546,-2.661 -0.733,-2.8889 0.33902,-0.56669 2.661,-0.16607 3.7943,0.56669 0.33903,0.22815 2.6055,0.40062 5.0447,0.40062 3.9052,-0.0616 4.4165,-0.17247 4.5273,-1.3058 0.11088,-0.90547 -0.4558,-1.583 -2.0943,-2.3776 -1.1888,-0.62212 -2.4946,-0.9609 -2.778,-0.79459 -0.28334,0.17247 -0.79459,-0.11087 -1.2442,-0.56669 -0.45581,-0.62212 -1.3613,-0.79459 -2.4946,-0.56668 -0.90547,0.17247 -3.3385,0 -5.4389,-0.4499 -2.0388,-0.40013 -4.3056,-0.68372 -4.9831,-0.62828 -1.9834,0.17246 -2.9443,0.11727 -5.5498,-0.28334 -0.34494,-0.0552 -0.73916,-0.11087 -1.2504,-0.11087 z m 7.0281,6.3998 1.2997,1.4722 c 0.73915,0.85003 1.3613,1.928 1.4167,2.3838 0,0.50508 0.11729,1.3551 0.11729,1.9772 0.05568,0.56669 -0.40063,1.195 -1.0225,1.3058 -1.0163,0.17247 -1.3613,-0.16607 -1.1334,-1.3613 0.05568,-0.28334 -0.22766,-0.9609 -0.56669,-1.4167 -0.4499,-0.4499 -0.51125,-0.90546 -0.11087,-1.1334 0.33853,-0.22175 0.44989,-1.0163 0.33853,-1.8109 l -0.33853,-1.4167 z"
         fill="#808080"
         id="path44489"
         style="stroke-width:0.0348476" />
      <path
         d="m 142.32,375.82 c 0.33853,0 0.62213,0.28335 0.62213,0.62213 0,0.34493 -0.28335,0.62212 -0.62213,0.62212 -0.33902,0 -0.62212,-0.27743 -0.62212,-0.62212 0,-0.33853 0.28335,-0.62213 0.62212,-0.62213 z m -62.939,-0.17246 c 0.22815,-0.0552 0.34494,0.22765 0.34494,0.79459 0,1.4167 -0.11728,1.5337 -0.68372,0.56668 -0.22765,-0.39421 -0.16606,-0.90546 0.17248,-1.2442 0.05568,-0.0557 0.11087,-0.11727 0.16606,-0.11727 z m 37.444,-1.7555 c 0.51125,0 0.96706,0.28334 0.96706,0.68372 0,0.33853 -0.33853,0.62212 -0.68371,0.62212 -0.33853,0 -0.50509,0.22766 -0.33853,0.51126 0.17246,0.28333 -0.11088,0.50508 -0.62213,0.50508 -0.56669,0 -0.79459,-0.33903 -0.56669,-0.90546 0.17248,-0.44991 0.28335,-1.0163 0.28335,-1.1334 0,-0.16606 0.4499,-0.28334 0.9609,-0.28334 z m 7.3669,-1.1888 c 0.45581,0 1.1334,0.17247 1.928,0.51125 1.0163,0.40062 1.0163,0.45581 -0.22765,1.2442 -0.73916,0.45582 -1.1334,0.51125 -0.90547,0.11729 0.22175,-0.34494 0,-0.68372 -0.56669,-0.68372 -0.51125,0 -0.96705,-0.27694 -0.96705,-0.62212 0,-0.33853 0.22765,-0.51126 0.73915,-0.56669 z m 18.522,-1.2997 c 0.11728,0 0.22766,0.39422 0.22766,0.9609 0,0.51125 -0.28335,0.90547 -0.56669,0.90547 -0.33853,0 -0.51125,-0.39422 -0.28334,-0.90547 0.16606,-0.56668 0.45581,-0.9609 0.62212,-0.9609 z m -44.805,0 c 0.50509,0 1.0718,0.28335 1.2997,0.62213 0.22815,0.33902 -0.16606,0.62212 -0.90546,0.62212 -0.73915,0 -1.3058,-0.28335 -1.3058,-0.62212 0,-0.33853 0.40013,-0.62213 0.91162,-0.62213 z m -42.772,0 c 0.11728,0 0.45581,0.28335 0.62212,0.62213 0.22766,0.33902 0.11729,0.62212 -0.22174,0.62212 -0.40063,0 -0.68372,-0.28335 -0.68372,-0.62212 0,-0.33853 0.11728,-0.62213 0.28334,-0.62213 z m 37.9,-0.17246 h 0.39422 c 0.62212,0 1.0779,0.17246 1.0779,0.56668 0,0.45581 -0.51125,0.85003 -1.1334,0.85003 -0.85003,0 -0.90547,0.17247 -0.22766,0.56668 0.62213,0.40062 0.51125,0.62213 -0.45581,0.85003 -1.4721,0.39421 -2.7718,-0.73915 -2.0943,-1.8109 0.40062,-0.56668 1.5337,-0.96705 2.4392,-1.0225 z M 86.52,371.06501 c 0.28334,0 0.68372,0.11088 1.0225,0.33902 0.50508,0.28335 0.78842,0.67757 0.62212,0.90547 -0.17246,0.17247 -0.73915,0.0557 -1.2504,-0.28334 -0.4499,-0.28334 -0.733,-0.73915 -0.56053,-0.90546 0.05568,0 0.11088,0 0.16607,-0.0557 z m -24.528,-0.11728 c 0.11088,0.0557 0.39422,0.33903 0.90547,0.90546 0.96706,1.1334 1.7001,1.3613 3.1168,1.0779 1.0225,-0.22766 2.0388,-0.11087 2.2667,0.17247 0.17248,0.33903 -0.45581,1.0163 -1.3613,1.583 -1.928,1.0779 -4.5335,0.51125 -4.5335,-1.0163 0,-0.51125 -0.16607,-1.4167 -0.39422,-2.0388 -0.11087,-0.51125 -0.16606,-0.73916 0,-0.68372 z m 13.65,-0.0552 c 0.62828,0.0552 1.2504,0.62212 1.2504,1.4722 0,1.1888 -0.91163,1.1888 -1.8725,0.0557 -0.51125,-0.62212 -0.51125,-1.0163 -0.05518,-1.2997 0.17246,-0.17248 0.45581,-0.22767 0.67756,-0.22767 z m 61.467,-0.11728 c -0.51126,0 -1.2443,0.40063 -1.7001,0.91163 -0.62211,0.79459 -0.62211,0.9609 0.16607,0.9609 0.51125,0 1.3058,-0.39422 1.7,-0.9609 0.62213,-0.73916 0.62213,-0.91163 -0.16605,-0.91163 z m -52.455,-0.56052 c 0.11087,0 0.22175,0.16606 0.4499,0.39421 0.45581,0.39422 0.62212,0.90547 0.45581,1.1334 -0.17248,0.16605 -0.56669,-0.17248 -0.79459,-0.7946 -0.22766,-0.56668 -0.22766,-0.78843 -0.11088,-0.73299 z m 14.839,-0.0557 c 0.33902,0 0.68372,0.27694 0.68372,0.61597 0,0.34494 -0.11728,0.62828 -0.28334,0.62828 -0.17248,0 -0.45582,-0.28334 -0.68372,-0.62828 -0.22766,-0.33903 -0.11087,-0.61597 0.28334,-0.61597 z m -40.844,0 c 0.22766,0 0.62828,0.39422 0.85003,0.90547 0.17246,0.56669 0,0.9609 -0.50509,0.9609 -0.45581,0 -0.79459,-0.39421 -0.79459,-0.9609 0,-0.51125 0.22766,-0.90547 0.4499,-0.90547 z m 100.89,-3.0613 c 0.0552,0 0.11087,0 0.16606,0.0557 0.17247,0.22765 0.22766,0.73915 0.0552,1.1888 -0.22175,0.51125 -0.33854,0.39421 -0.39421,-0.33853 0,-0.51125 0.0557,-0.85003 0.17246,-0.90546 z m -4.2501,-1.0779 c 1.7555,0.0557 3.3385,0.22816 3.1722,0.62213 -0.11088,0.33902 0.16605,1.928 0.62211,3.4001 0.67757,2.3222 0.62213,2.9443 -0.0552,3.628 -1.0225,1.0163 -0.96705,1.0163 -2.3838,0.16606 -0.61596,-0.33853 -1.1272,-1.1888 -1.1272,-1.8664 0,-0.68372 -0.22766,-1.1334 -0.51125,-1.0225 -0.73915,0.22815 -4.1393,-3.9052 -3.628,-4.4164 0.40062,-0.40062 2.2113,-0.51125 3.9114,-0.51125 z m -38.75,-1.5276 c -0.67755,0 -0.50509,0.39422 0.62213,1.5276 1.5892,1.583 3.1168,2.0388 3.1168,1.0225 0,-0.79459 -2.5501,-2.5501 -3.7389,-2.5501 z m -15.461,0 c -0.85004,0 -1.5337,0.22175 -1.5337,0.4499 0,0.28334 0.68371,0.56669 1.5337,0.68372 0.90547,0.0557 1.583,-0.17247 1.583,-0.51125 0,-0.33903 -0.67755,-0.62212 -1.583,-0.62212 z m 39.933,-1.3058 c -0.90546,0 -1.7555,2.7226 -1.4167,4.5335 0.33902,1.7 1.8171,2.1497 2.3838,0.62211 0.51124,-1.1888 -0.28335,-5.1556 -0.96707,-5.1556 z m -54.95,-1.8663 c -0.56053,0 -1.0163,0.44989 -1.0163,1.0163 0,1.0779 1.3613,0.90546 1.7555,-0.28335 0.11088,-0.39422 -0.22765,-0.73299 -0.73915,-0.73299 z m 1.7062,-0.51125 c -0.11729,0 -0.17248,0.28334 -0.17248,0.90546 0,0.68371 0.17248,1.4722 0.39422,1.7 0.73915,0.78844 0.85002,0 0.28334,-1.5276 -0.28334,-0.68372 -0.4499,-1.0225 -0.50509,-1.0779 z m 53.305,-0.11728 c -0.34494,0 -0.62829,0.28926 -0.62829,0.68372 0,0.33902 0.28335,0.44989 0.62829,0.28334 0.33853,-0.22766 0.62212,-0.51125 0.62212,-0.67756 0,-0.17247 -0.28334,-0.28925 -0.62212,-0.28925 z m -67.411,0 c -0.85002,0 -0.68371,1.7616 0.22175,2.1004 0.40013,0.11088 1.0225,0.11088 1.3058,0 0.56669,-0.33903 -0.73915,-2.1004 -1.5276,-2.1004 z m 25.489,-0.61596 c -1.1334,0 -2.5501,3.3385 -1.5276,3.6773 0.33853,0.11087 0.67757,0.68372 0.67757,1.2442 0,1.5892 0.9609,-0.28334 1.4167,-2.8889 0.33903,-1.583 0.17248,-2.0327 -0.56669,-2.0327 z m -33.878,-0.40062 c -0.50509,0 -0.78843,0.16606 -0.62213,0.45581 0.33902,0.62211 -3.2276,2.5439 -3.7389,1.9772 -0.22175,-0.16605 -0.39422,0.11728 -0.39422,0.68373 0,0.85002 0.28334,0.90546 1.583,0.39421 0.91163,-0.33853 1.928,-0.4499 2.2113,-0.28334 0.33853,0.22815 0.39422,-0.0552 0.22766,-0.62212 -0.28334,-0.62213 -0.11728,-0.90547 0.39421,-0.79459 0.45582,0.0616 0.90547,-0.28335 1.0779,-0.85003 0.11729,-0.56053 -0.22766,-0.9609 -0.73915,-0.9609 z m 16.489,-0.11088 c -0.28334,0.0557 -0.51125,0.39422 -0.51125,0.85003 0,0.56669 0.28334,0.90546 0.62212,0.78843 0.96707,-0.28334 1.0779,-1.2997 0.17248,-1.583 -0.05568,-0.0557 -0.11729,-0.0557 -0.17248,-0.0557 H 81.7611 Z m 14.272,-1.0779 c -0.62213,0.11088 -0.96091,0.67757 -0.50509,1.1888 0.56052,0.56667 1.3551,0.51125 1.7555,-0.17248 0.16606,-0.33853 -0.06158,-0.73299 -0.56669,-0.90546 -0.22766,-0.11088 -0.51125,-0.11088 -0.68371,-0.11088 z m 16.656,-2.2113 c -0.33903,0 -0.4499,0.28335 -0.28335,0.62212 0.22767,0.33903 0.51125,0.62829 0.68373,0.62829 0.16605,0 0.27742,-0.28926 0.27742,-0.62829 0,-0.33853 -0.27742,-0.62212 -0.67755,-0.62212 z m 17.734,-0.50509 c 0.22174,-0.0616 0.4499,0 0.67756,0.11087 0.51125,0.16607 0.39421,0.33854 -0.33903,0.33854 -0.68371,0.0557 -1.0779,-0.11087 -0.85002,-0.28335 0.11087,-0.11087 0.28334,-0.16606 0.51125,-0.16606 z m -55.178,-0.22766 c -0.28334,0 -0.62212,0.28334 -0.79459,0.73299 -0.11087,0.34495 0.28334,0.62213 0.85003,0.62213 0.56669,0 0.91162,-0.33853 0.79459,-0.78843 -0.17248,-0.40062 -0.51125,-0.62829 -0.85003,-0.56669 z m 45.261,-0.28334 c -0.16607,0 -0.33853,0.0557 -0.56669,0.0557 -0.67755,0.11086 -1.5276,0.28334 -1.8664,0.28334 -0.34495,0.0552 -0.17247,0.33853 0.33903,0.67755 1.1334,0.7946 1.928,0.7946 3.0552,0.11088 0.91162,-0.61597 0.34493,-1.1826 -0.96091,-1.1272 z m -60.161,-1.1334 c -1.0163,0 -1.9218,0.22816 -2.4885,0.733 -0.85003,0.73915 -1.3058,0.79459 -1.9834,0.28334 -0.45581,-0.39422 -1.0225,-0.56669 -1.2504,-0.33853 -0.39422,0.40013 -4.8723,1.4721 -7.022,1.7 -1.7001,0.17247 -2.9443,1.0225 -2.4946,1.7555 0.40062,0.62213 11.845,0.22766 12.917,-0.44989 0.34494,-0.17248 1.0779,0.11087 1.6446,0.67755 0.96091,0.9609 1.1334,0.9609 2.4947,-0.67755 0.85003,-0.91163 1.4721,-1.928 1.4721,-2.2113 0,-0.96706 -1.7001,-1.4722 -3.2892,-1.4722 z m 35.633,-0.96706 c -0.11088,0 -0.22766,0.40013 -0.22766,0.90547 0,0.56668 0.28334,0.96705 0.62828,0.96705 0.33853,0 0.4499,-0.40062 0.22175,-0.96705 -0.16607,-0.50509 -0.45581,-0.90547 -0.62213,-0.90547 z m 7.3669,-0.39422 c -0.51125,0.0557 -1.1334,0.0557 -1.8171,0.17247 -2.8889,0.33903 -3.2831,0.56669 -3.2831,1.8664 0,1.6446 0.9609,2.433 2.0388,1.7001 0.39422,-0.22767 1.5276,-0.56669 2.4885,-0.62213 1.8725,-0.22815 3.0613,1.1334 3.0613,3.511 0,1.6446 1.2442,1.7001 1.7,0.11088 0.17247,-0.67755 1.1334,-1.583 2.0943,-1.9772 1.0225,-0.40013 1.8725,-0.96707 1.8725,-1.195 0,-0.22174 -1.5276,-1.1888 -3.3447,-2.0943 -2.1497,-1.0779 -3.2276,-1.4722 -4.8107,-1.4722 z M 83.4,352.70897 c -0.05568,0.0552 -0.16606,0.0552 -0.22175,0.11087 -0.33853,0.22767 -0.62827,0.51125 -0.62827,0.68373 0,0.16605 0.28974,0.28334 0.62827,0.28334 0.33903,0 0.62213,-0.33902 0.62213,-0.68372 0,-0.28335 -0.17246,-0.39422 -0.40062,-0.39422 z m 10.028,-0.17246 c -1.928,0 -3.9668,1.2504 -3.9668,2.3776 0,0.45581 0.51125,0.51124 1.7555,0.0616 1.0225,-0.34494 2.2113,-0.56668 2.6671,-0.45581 0.4499,0.11087 0.9609,-0.28334 1.0718,-0.90547 0.17246,-0.85002 -0.16656,-1.0779 -1.5276,-1.0779 z m -13.366,-0.0557 c -0.11728,0 -0.28333,0.0557 -0.40062,0.22815 -0.22175,0.16607 -0.16606,0.67756 0.11729,1.1334 0.39421,0.67755 0.50508,0.62211 0.73299,0 0.22766,-0.68372 -0.05568,-1.3058 -0.4499,-1.3613 z m 51.15,-1.9834 c 0.22766,0.0557 0.45582,0.68372 0.56669,1.7555 0.39421,3.0613 0.17246,3.3447 -0.62213,1.0225 -0.39421,-1.0225 -0.45581,-2.2113 -0.16606,-2.6055 0.0552,-0.17247 0.16606,-0.17247 0.22175,-0.17247 z m 14.5,-2.7164 h 0.11728 c 0.22766,0.0552 0.33903,0.28334 0.51125,0.62212 0.16607,0.51125 0.0557,0.9609 -0.33853,0.9609 -0.34494,0 -0.51125,0.45581 -0.28975,0.96707 0.17247,0.50508 0.28975,0.90546 0.23407,0.85002 -1.9834,-0.68372 -2.3283,-1.8171 -0.85619,-3.0059 0.22766,-0.22767 0.45581,-0.33904 0.62212,-0.39422 z m -42.427,-0.90546 c -0.33902,0 -0.62212,0.27742 -0.62212,0.62211 0,0.33853 0.28335,0.62213 0.62212,0.62213 0.33853,0 0.62213,-0.28335 0.62213,-0.62213 0,-0.34493 -0.28335,-0.62211 -0.62213,-0.62211 z m -11.328,0 c -0.51125,0 -1.2442,1.5276 -1.2442,2.5439 0,0.68371 0.22175,0.68371 1.4722,0.22765 0.90546,-0.33853 0.73915,-2.7718 -0.22815,-2.7718 z m 53.533,-3.1784 c 0.33853,0 0.39421,0.45581 0.22174,0.96706 -0.22174,0.51124 -0.62212,0.90547 -0.8993,0.90547 -0.28926,0 -0.40013,-0.39423 -0.22766,-0.90547 0.22766,-0.51125 0.62212,-0.96706 0.90547,-0.96706 z m -97.661,-9.1162 c -0.22765,0.0557 -0.33902,0.28335 -0.33902,0.62213 0,0.51125 0.22816,0.9609 0.50509,0.9609 0.28925,0 0.56669,-0.28335 0.56669,-0.62212 0,-0.28334 -0.27744,-0.73299 -0.56669,-0.90547 -0.05568,-0.0557 -0.11088,-0.0557 -0.16607,-0.0557 z m 88.428,-1.3613 c -0.0557,0 -0.11729,0.0557 -0.22767,0.11728 -0.33902,0.16607 -0.62212,0.50509 -0.62212,0.67756 0,0.11087 0.28335,0.22766 0.62212,0.22766 0.33853,0 0.62213,-0.28334 0.62213,-0.62828 0,-0.27743 -0.17248,-0.4499 -0.39422,-0.39422 z m -63.222,-0.90543 c -1.2443,0 -2.1497,5.7777 -1.2997,8.2724 0.56669,1.6446 0.51125,1.8664 -0.56669,1.8664 -1.4721,0 -1.6446,0.96705 -0.28334,1.4721 0.51125,0.22767 0.9609,0.85003 0.9609,1.4167 0,0.68371 0.33902,0.85002 0.96707,0.62212 0.56052,-0.22175 1.2997,-0.39421 1.583,-0.39421 0.33853,0 0.56669,-0.73916 0.56669,-1.5892 0,-0.90547 0.45581,-2.433 1.0163,-3.511 0.51125,-1.0718 0.85003,-2.3222 0.62828,-2.8273 -0.17248,-0.51124 -0.11679,-0.79459 0.22175,-0.57284 0.28975,0.17246 0.85003,-0.11088 1.3058,-0.61597 0.51125,-0.62827 0.56669,-0.91162 0.05568,-0.91162 -0.39421,0 -0.67756,-0.56668 -0.67756,-1.1888 0,-0.79459 -0.56669,-1.2997 -1.7555,-1.5276 -0.96707,-0.11727 -2.1559,-0.40062 -2.6055,-0.51125 H 73.0349 Z m 55.005,-0.96089 c -0.39422,0.0557 -0.22766,1.0163 0.56668,1.9834 1.1334,1.2442 1.7555,1.1334 1.7555,-0.45581 0,-0.73299 -0.16607,-1.1888 -0.39422,-0.9609 -0.22766,0.22766 -0.79459,0.11087 -1.2442,-0.22815 -0.28335,-0.28335 -0.51125,-0.33853 -0.68372,-0.33853 z m -33.816,-0.67756 c 0.85002,-0.0616 2.1559,1.0163 2.1559,1.9218 -0.06158,0.39422 -0.45581,0.17247 -1.0225,-0.56669 -0.90546,-1.1888 -0.90546,-1.1888 -0.62212,0.51125 0.33853,1.928 0.28334,2.0388 -0.73916,0.96091 -0.9609,-0.90547 -1.0163,-2.2113 -0.11087,-2.7164 0.11087,-0.0557 0.22765,-0.11087 0.33902,-0.11087 z M 69.98,330.55848 c -0.17248,0 -0.40063,0.0552 -0.51126,0.17248 -0.17247,0.22175 0.17248,0.33902 0.85003,0.33902 0.733,-0.0557 0.85003,-0.17246 0.39422,-0.39421 -0.22175,-0.0616 -0.51125,-0.11729 -0.73299,-0.11729 z m -10.422,-1.0779 c -0.17246,0 -0.34494,0.0552 -0.51125,0.11087 -0.90547,0.34494 -0.90547,0.51125 -0.05568,1.8171 0.84387,1.2997 0.84387,1.4722 -0.34493,1.7555 -1.0163,0.28334 -1.2997,0.0552 -1.2997,-0.90546 0,-0.90547 -0.28334,-1.1334 -1.0225,-0.90547 -0.51125,0.22766 -1.3551,0.39422 -1.8664,0.39422 -0.5113,0 -0.90546,0.56668 -0.90546,1.2442 0,0.73915 -0.68372,2.4392 -1.5892,3.8559 -1.5276,2.3776 -1.7001,2.4885 -2.7164,1.583 -1.3058,-1.1888 -1.9834,-1.2997 -1.9834,-0.33854 0,0.33854 -0.39422,1.0779 -0.90547,1.6446 -0.56668,0.51124 -0.79459,1.1888 -0.56668,1.5276 0.17246,0.33854 -0.06158,1.1334 -0.56669,1.7 -0.51125,0.56669 -0.85003,1.928 -0.79459,2.9443 0.22766,2.9443 0.40062,3.2276 0.9609,1.7555 0.33902,-0.78843 1.3058,-1.7001 2.1559,-2.0388 2.3222,-0.90547 6.1165,-0.22815 7.139,1.2504 0.4499,0.67755 1.3613,1.2442 1.9772,1.2442 0.62828,0 1.5338,0.4499 1.9834,0.9609 0.45581,0.56668 0.96706,0.73915 1.1888,0.33903 0.22815,-0.39422 0.73915,-0.39422 1.3058,-0.0557 0.51125,0.33902 1.1334,0.62828 1.4167,0.62828 0.85002,0 0.45581,-2.9505 -0.51125,-3.745 -0.51126,-0.4499 -0.733,-1.1272 -0.4499,-1.5276 0.22766,-0.39421 0.50509,-1.1334 0.56669,-1.6446 0.73299,-6.4553 0.78842,-8.1553 0.22175,-8.4941 -0.33903,-0.22765 -0.62213,-1.1888 -0.62213,-2.1559 0,-1.8109 -1.0163,-3.0552 -2.2051,-2.9443 z m 59.477,-0.90547 c 0.33904,0 0.62213,0.28334 0.62213,0.62213 0,0.33853 -0.28334,0.73915 -0.62213,0.96705 -0.33853,0.22175 -0.62211,-0.0616 -0.62211,-0.57284 0,-0.56053 0.28334,-1.0163 0.62211,-1.0163 z m 30.644,-0.33853 c 0.11728,0 0.22766,0.0552 0.45581,0.11087 0.56669,0.22766 0.85003,0.68372 0.62213,1.0225 -0.22766,0.39421 0.0557,0.45581 0.85002,0.22175 0.73299,-0.22175 1.4722,-0.11088 1.7001,0.23406 0.22816,0.39421 0,0.67755 -0.51125,0.67755 -0.51124,0 -1.0718,0.39423 -1.2442,0.90547 -0.45582,1.1334 -1.5892,1.2442 -2.9443,0.33854 -0.79459,-0.56669 -0.79459,-0.733 0.22174,-1.5276 0.62829,-0.51125 1.0225,-1.1888 0.7946,-1.5892 -0.16656,-0.22175 -0.16656,-0.39422 0.0552,-0.39422 z m -1.8109,-0.0616 c 0.56669,0 0.56669,0.17247 0.0557,0.45581 -1.0718,0.73916 -1.6384,0.73916 -2.0388,0.11728 -0.17247,-0.22766 0.45581,-0.51124 1.3058,-0.57284 h 0.67755 z m -8.3278,-0.22175 h 1.4167 c 0.9609,0 1.2997,0.28335 1.0225,0.79459 -0.40063,0.62213 -0.28335,0.62213 0.39421,0 1.3058,-1.2504 2.2667,-0.91162 3.0613,1.0779 1.0163,2.3222 0.67756,5.3219 -0.40062,4.1331 -0.39421,-0.45581 -0.67756,-1.6446 -0.62212,-2.6055 0.11087,-1.4167 -0.11088,-1.7616 -0.96091,-1.6446 -0.62211,0.11729 -1.7555,-0.22765 -2.5501,-0.79459 l -1.3613,-0.9609 z m -63.9,-1.2442 c -0.78842,0 -1.3551,1.0163 -0.85002,1.466 0.68371,0.73915 1.4229,0.45581 1.4229,-0.50509 0,-0.51125 -0.23406,-0.9609 -0.57284,-0.9609 z m 57.272,-1.8725 c 0.34494,0 0.62212,0.56669 0.62212,1.2442 0,0.68372 -0.11087,1.2504 -0.27694,1.2504 -0.11727,0 -0.34494,-0.56669 -0.57284,-1.2504 -0.16656,-0.67756 -0.0557,-1.2442 0.22766,-1.2442 z m -5.7223,-0.62211 c -0.33902,0 -0.62213,0.56667 -0.62213,1.2442 0,0.68371 0.28335,1.2504 0.62213,1.2504 0.40013,0 0.68371,-0.56669 0.68371,-1.2504 0,-0.67757 -0.28334,-1.2442 -0.68371,-1.2442 z m -41.633,-1.8725 c -0.05568,0 -0.22766,0.17247 -0.51125,0.56669 -0.33902,0.56667 -0.62212,1.195 -0.62212,1.4783 0,0.27694 0.28333,0.33853 0.62212,0.11088 0.33853,-0.22766 0.62213,-0.85003 0.62213,-1.4722 0,-0.45581 0,-0.68371 -0.11088,-0.68371 z m -33.311,-0.0557 c 0.28334,0 0.51125,0.45582 0.51125,0.96707 0,1.0718 -0.05568,1.1334 -0.67756,0.50509 -0.56669,-0.56053 -0.51125,-1.4722 0.16606,-1.4722 z m 72.111,-0.51125 c 0.17246,0 0.51124,0.0616 1.0779,0.22816 4.7614,1.5276 5.8948,2.1004 5.7777,3.0613 -0.0552,0.56668 0.17248,1.0163 0.51125,1.0163 0.28334,0 0.51125,0.56668 0.51125,1.2504 0,1.4721 2.7718,3.4555 3.8498,2.7718 0.56669,-0.27694 0.68372,-0.0552 0.39422,0.91161 -0.16607,0.733 0.0616,1.6385 0.51125,1.9772 1.0225,0.85002 1.6446,3.1722 0.85003,3.1722 -0.28334,0 -0.56669,-0.28335 -0.56669,-0.62212 0,-0.39422 -0.28334,-0.67756 -0.67756,-0.67756 -0.33902,0 -0.45581,0.28334 -0.28334,0.56668 0.16606,0.33903 -0.0557,0.90547 -0.51125,1.2997 -0.56668,0.4558 -1.0163,0.51124 -1.1334,0.11727 -0.11088,-0.33902 -1.0718,-0.79459 -2.0943,-1.0779 -1.8725,-0.39422 -1.8725,-0.39422 -0.62213,0.79459 0.96091,0.90547 1.3058,1.928 1.2443,4.4719 0,1.8171 -0.22816,3.2892 -0.56669,3.2892 -0.28335,0 -0.39422,0.50509 -0.22175,1.1888 0.16606,0.62211 0,1.583 -0.40062,2.1497 -0.67756,0.90547 -0.85003,0.85003 -1.5276,-0.22175 -0.45582,-0.73915 -1.1888,-1.0779 -1.8725,-0.85002 -1.0163,0.33902 -1.0163,0.33902 0,-0.34494 0.62212,-0.39422 1.3613,-0.62213 1.5892,-0.4499 0.28335,0.16607 0.56668,-0.40062 0.62212,-1.1888 0.11088,-0.85003 0.22766,-2.2668 0.33902,-3.1168 0.0552,-0.85003 0.33853,-1.583 0.62213,-1.583 1.0225,0 0.39421,-1.0779 -2.0388,-3.628 -1.4167,-1.4721 -2.9997,-2.6671 -3.511,-2.6671 -0.4499,0 -0.90547,-0.16606 -0.96091,-0.4499 -0.22765,-2.0388 -0.11678,-4.5889 0.27744,-6.3444 0.40062,-1.4722 0.23406,-2.4946 -0.50509,-3.6219 -0.68372,-1.0225 -0.90547,-1.4229 -0.68372,-1.4229 z m -50.983,-1.1272 c -0.33853,0.0557 -0.85003,1.2442 -1.1272,3.2276 -0.33853,2.3222 -0.28334,2.4331 0.56669,1.2997 0.50508,-0.67756 0.90546,-2.0943 0.90546,-3.1106 0,-0.96705 -0.11728,-1.4167 -0.34494,-1.4167 z m 12.239,-2.1004 c -0.33902,0 -0.45581,0.28334 -0.22816,0.62211 0.17248,0.33903 0.51125,0.62829 0.62213,0.62829 0.17246,0 0.28925,-0.28926 0.28925,-0.62829 0,-0.33853 -0.28925,-0.62211 -0.68371,-0.62211 z m 18.584,-1.9218 c 0.22174,0 0.33853,0.16606 0.33853,0.56668 0,0.28335 -0.33853,0.89932 -0.85003,1.2997 -0.73915,0.62212 -0.85002,0.51124 -0.56668,-0.56669 0.16606,-0.79459 0.733,-1.2997 1.0779,-1.2997 z m -4.8784,-1.195 c 0.40013,0 0.96705,0.22765 1.1334,0.56668 0.22816,0.34494 0.11729,1.1334 -0.27694,1.7616 -0.62827,0.9609 -0.73915,0.9609 -0.4558,-0.28334 0.17246,-0.79459 0,-1.5338 -0.40013,-1.7 -0.50509,-0.22767 -0.50509,-0.28335 0,-0.34494 z m -34.95,-0.67756 c -0.78843,0 -0.73299,0.17247 0.17248,1.1888 0.733,0.85003 0.85002,1.3613 0.39421,1.6446 -0.51125,0.28334 -0.51125,0.67755 0.05568,1.3613 0.62828,0.733 0.85003,0.67757 1.6446,-0.4558 0.79459,-1.1334 0.79459,-1.4167 -0.16607,-2.5501 -0.62827,-0.62212 -1.5337,-1.1888 -2.1004,-1.1888 z m 2.778,-0.62213 c -0.33902,0 -0.11087,0.44991 0.51126,0.90546 0.67756,0.51126 1.2442,1.5276 1.2997,2.2113 0.05518,0.733 0.68372,1.7 1.3613,2.2052 1.4167,1.0225 1.5892,0.90547 2.4947,-1.7555 0.50508,-1.4721 1.1334,-2.0388 2.2051,-2.0388 2.5501,-0.11087 3.1168,-0.22765 3.1168,-0.85003 0,-0.78842 -7.022,-0.67756 -8.0445,0.11729 -0.56669,0.44989 -1.0779,0.44989 -1.583,-0.0557 -0.40062,-0.40013 -1.0225,-0.73916 -1.3613,-0.73916 z m 15.239,-0.28334 c -0.62212,0 -1.2504,0.22767 -1.5892,0.67756 -0.90547,1.2504 -0.45582,2.0388 0.62827,0.96706 0.56669,-0.56668 0.90547,-0.28334 1.5276,1.1334 0.56669,1.4106 1.0163,1.7555 2.0943,1.466 0.73915,-0.16607 1.1888,-0.67757 1.0779,-1.0718 -0.17247,-0.39422 0,-1.1888 0.28334,-1.8109 0.33853,-0.68372 0.33853,-1.0779 -0.05568,-1.0779 -0.34494,0 -0.90547,0.51125 -1.2504,1.0779 -0.56669,0.9609 -0.62212,1.0163 -0.67756,0.11087 0,-0.9609 -1.0225,-1.5276 -2.0388,-1.4722 z m 10.878,-0.33902 c -0.33902,0 -0.73915,0.28334 -0.96706,0.62211 -0.22175,0.33904 0.05568,0.62213 0.56669,0.62213 0.56669,0 1.0225,-0.28334 1.0225,-0.62213 0,-0.33902 -0.28334,-0.62211 -0.62213,-0.62211 z m -2.5501,-0.28335 -0.96706,1.4167 c -0.56669,0.73301 -0.85003,1.6446 -0.62213,2.0388 0.68372,1.0163 1.5892,0 1.5892,-1.8109 v -1.6446 z m 28.039,-2.2667 c 0.67756,0 0.90546,0.33902 0.67756,0.96089 -0.22175,0.56669 0,0.96706 0.62828,0.96706 0.90546,0 0.90546,0.11088 0.16606,1.0163 -0.79459,0.96707 -0.733,1.0225 0.28334,0.62213 0.67756,-0.22175 0.9609,-0.16607 0.73915,0.22765 -0.22765,0.33903 -0.96705,0.62213 -1.7,0.62213 -0.73915,0 -1.7001,0.51125 -2.2113,1.0779 -0.51124,0.62212 -0.73299,0.73915 -0.44989,0.28335 0.39421,-0.85003 0.62212,-1.9834 0.78843,-4.6444 0.0557,-0.62213 0.56668,-1.1334 1.0779,-1.1334 z m -10.478,-4.4165 c 0.33853,0 0.78843,0.33903 1.0163,0.67756 0.68373,1.0779 0.11088,1.1888 -0.79459,0.22766 -0.4494,-0.45581 -0.56052,-0.90547 -0.22174,-0.90547 z m -20.111,-2.2113 c -0.51125,-0.0557 -1.2504,0.0552 -2.3776,0.28334 -0.17246,0.0552 0.05568,0.4499 0.51125,0.9609 0.733,0.90547 2.0943,1.0225 2.3776,0.17247 0.33902,-0.9609 0.28334,-1.4167 -0.51125,-1.4167 z m -4.6444,-1.928 c -0.40062,0 -0.85003,0.17246 -1.3613,0.62212 -0.45581,0.45581 -0.39421,0.96706 0.28334,1.7001 1.5276,1.8171 3.4001,0.28334 2.1497,-1.7001 -0.27694,-0.4499 -0.67757,-0.67756 -1.0718,-0.62212 z m 3.7943,-0.22767 c -0.56668,0 -1.0163,0.28335 -1.0163,0.62829 0,0.33853 0.27744,0.62213 0.61597,0.62213 0.28975,0 0.73915,-0.28335 0.96706,-0.62213 0.22766,-0.34494 -0.05568,-0.62829 -0.56669,-0.62829 z m -29.061,-0.78841 c 0.33853,0 0.90546,0.33903 1.9834,1.1888 2.778,2.0943 5.211,2.3776 6.5723,0.62212 1.0718,-1.2442 2.5501,-1.0225 2.433,0.39422 0,0.56669 -0.11087,0.56669 -0.33902,0 -0.56669,-1.4167 -1.3613,-0.84387 -2.0943,1.4167 -0.73915,2.1559 -0.91162,2.2668 -5.1556,3.1168 -1.1334,0.17248 -2.0388,-1.2442 -1.4167,-2.2667 0.17246,-0.28334 -0.11729,-0.56669 -0.62213,-0.56669 -1.1888,0 -1.3058,0.73916 -0.22765,1.8171 0.56668,0.56053 0.56668,0.89931 0,1.4722 -0.45582,0.39421 -0.79459,0.56668 -0.79459,0.33902 0,-0.22766 -0.56669,0 -1.2443,0.62212 -0.68371,0.56668 -1.2442,1.583 -1.2442,2.2113 0,0.67755 -0.28925,1.7555 -0.68371,2.433 -0.79459,1.5276 -1.8664,1.5276 -1.8664,-0.0557 0,-0.67755 0.39422,-1.2442 0.78843,-1.2442 0.56669,-0.0557 0.51125,-0.22766 -0.11088,-0.62828 -0.56668,-0.33903 -0.67756,-0.67756 -0.33853,-0.67756 0.39422,0 0.733,-0.73299 0.79459,-1.6446 0.11088,-0.90546 0.56669,-2.5439 1.0718,-3.5664 0.56669,-1.0225 0.96707,-2.2667 0.96707,-2.7226 0,-0.4499 0.28333,-0.84387 0.62212,-0.84387 0.33902,0 0.62213,-0.45581 0.62213,-1.0225 0,-0.22766 0.11087,-0.39422 0.28334,-0.39422 z m 24.983,-6.1781 c -0.33902,0 -0.79459,0.28335 -1.0225,0.68372 -0.22175,0.33903 -0.11087,0.62212 0.22766,0.62212 0.33853,0 0.79459,-0.28334 1.0163,-0.62212 0.22765,-0.40061 0.11728,-0.68372 -0.22175,-0.68372 z m -14.05,-5.6607 c 0.33853,0 0.56668,1.2997 0.51125,2.8273 0,1.7616 -0.28334,2.8334 -0.73916,2.8334 -1.0163,0 -1.6385,2.6055 -0.85002,3.5726 0.45581,0.50508 0.45581,0.90546 0,1.1888 -0.39422,0.16656 -0.67757,-0.0552 -0.67757,-0.62828 0,-0.56052 -0.28334,-0.84386 -0.68371,-0.62212 -1.1888,0.73916 0.11728,-3.1106 1.3613,-4.0161 1.4721,-1.0779 1.5892,-2.1004 0.17246,-1.5337 -0.90546,0.33902 -0.90546,0.17247 -0.17246,-1.1334 0.45581,-0.85003 0.79459,-1.7555 0.73915,-1.9834 -0.11728,-0.28335 0.05568,-0.50509 0.33902,-0.50509 z m 27.872,-1.3058 c 0.28334,-0.0552 0.50509,0.56669 0.67756,1.928 0.17246,1.1334 -0.11088,1.6446 -0.90547,1.8109 -0.9609,0.16606 -1.0779,-0.0557 -0.68371,-1.583 0.34494,-1.4167 0.62828,-2.1559 0.91163,-2.1559 z m -0.06158,-1.8109 c 0.34494,0 0.62827,0.11088 0.62827,0.28334 0,0.11088 -0.28333,0.4499 -0.62827,0.67757 -0.33903,0.17246 -0.61597,0.0552 -0.61597,-0.28335 0,-0.39422 0.27694,-0.67756 0.61597,-0.67756 z m -24.355,-1.7555 c -0.33902,0.0557 -0.56669,0.90547 -1.0779,3.1722 -0.22175,1.0163 -0.11087,1.7 0.22766,1.7 0.39421,0 0.67756,-0.51125 0.67756,-1.1334 0,-0.62828 0.34494,-1.4722 0.73915,-1.8725 0.56669,-0.56669 0.56669,-0.90547 0,-1.4722 -0.22765,-0.22815 -0.39421,-0.39422 -0.56668,-0.39422 z m 24.133,-1.1334 h 0.11087 c 0.05568,0 0.05568,0 0.11088,0.0552 0.34494,0.22815 0.62827,0.78843 0.62827,1.2997 0,0.51127 -0.28333,0.91162 -0.62827,0.91162 -0.33903,0 -0.61597,-0.62828 -0.61597,-1.3058 0,-0.56668 0.16607,-0.90546 0.39422,-0.9609 z m -28.156,-5.8393 c 0.22765,0 0.45581,0.11727 0.62212,0.40013 0.73916,1.2442 6.3998,1.4167 8.3278,0.28334 2.3776,-1.3613 3.9668,-0.62213 3.3447,1.583 -0.68371,2.5501 -0.79459,6.4614 -0.22766,8.3894 0.28334,1.0718 0.16606,1.9834 -0.22815,2.4331 -0.51125,0.51125 -0.4499,0.67756 0.11728,0.67756 0.4499,0 0.62213,0.28334 0.39422,0.62212 -0.79459,1.2504 0.28333,3.0059 1.6385,2.6671 1.7062,-0.45581 2.5501,-2.8334 1.8171,-4.8723 -0.33853,-0.85002 -0.33853,-1.5892 -0.05518,-1.5892 1.1334,0 0.33853,-3.1722 -0.85003,-3.511 -1.1334,-0.40062 -1.1334,-0.45581 0.33853,-1.2442 0.79459,-0.45581 1.9834,-0.85003 2.6055,-0.85003 0.62213,-0.0557 1.0779,-0.33902 1.0779,-0.73915 0,-0.39421 0.39422,-0.50509 0.90547,-0.33853 0.51125,0.17246 1.0779,-0.0557 1.2442,-0.56669 0.51125,-1.2997 2.8889,-0.85003 3.2338,0.62213 0.84387,3.6834 1.2997,8.5003 0.84387,8.6727 -0.62213,0.22175 0.17247,3.511 0.90546,3.7943 0.28334,0.0557 0.73916,-0.22766 1.0225,-0.68372 0.39421,-0.62212 0.85002,-0.67755 1.7555,-0.16606 1.0779,0.56668 1.2504,1.2442 1.1888,4.5828 l -0.05518,3.9668 -1.8664,-0.16606 c -1.7616,-0.11728 -1.8171,-0.0616 -0.79459,0.733 1.7001,1.3058 1.2997,1.5892 -1.9834,1.3058 -2.3222,-0.17248 -3.1722,0 -3.4556,0.67755 -0.22766,0.62213 0.05568,0.90546 0.85003,0.90546 0.62213,0 1.3551,0.34494 1.6446,0.68373 0.22175,0.39421 0.9609,0.56668 1.6385,0.39421 0.73916,-0.22766 1.7001,0.0552 2.2113,0.56669 1.0225,1.0163 2.7164,1.1888 2.7164,0.28334 0,-0.40062 1.1334,-0.67756 2.4947,-0.67756 2.7164,0 4.3056,1.1272 5.9502,4.361 1.4106,2.7718 0.733,4.0222 -2.1004,3.5664 -3.511,-0.56669 -7.872,-0.85003 -8.6666,-0.56669 -0.4499,0.17247 -0.62212,1.8109 -0.39421,4.706 0.22765,3.7943 0.05518,4.5889 -0.90547,5.2665 -1.0225,0.78843 -0.96706,0.85002 0.79459,1.2997 1.0163,0.22815 2.0943,0.79459 2.3776,1.1334 0.33902,0.51125 0.67756,0.40062 1.2442,-0.22765 0.45581,-0.56669 1.5276,-0.85004 2.778,-0.733 1.8664,0.16606 2.0943,0 2.0943,-1.4167 0,-0.90546 -0.28335,-1.6446 -0.67756,-1.6446 -0.33853,0 -0.62828,0.28334 -0.62828,0.62213 0,0.40062 -0.50509,0.62211 -1.1888,0.62211 -1.1334,0 -1.1334,-0.11086 -0.28334,-1.8664 1.1334,-2.2113 1.0779,-2.2113 2.4392,-0.85003 0.79459,0.73916 1.1888,0.85003 1.8664,0.22767 0.51125,-0.39422 1.5892,-0.62213 2.4392,-0.51126 0.79459,0.11729 1.9834,-0.17247 2.5501,-0.67756 0.85003,-0.73915 1.0163,-0.68371 1.0163,0.11088 0,0.56668 -0.62212,1.1888 -1.2997,1.4167 -0.91161,0.28334 -1.2504,0.79459 -1.0225,1.5276 0.28334,1.2504 -0.56669,3.1722 -1.4722,3.1722 -0.33902,0 -1.7001,0.68371 -3.0613,1.5337 -1.7555,1.0779 -2.5439,2.0943 -2.8273,3.6219 -0.22766,1.1888 -0.62828,1.7555 -0.90547,1.4167 -0.22765,-0.39422 -1.195,-0.90547 -2.1004,-1.1334 -0.90546,-0.22766 -2.0943,-1.1334 -2.6609,-1.9834 -1.2504,-1.9218 -3.1168,-2.0388 -4.9277,-0.33854 -1.3058,1.1888 -1.3058,1.4783 -0.51125,3.628 0.45581,1.2997 0.79459,3.1722 0.79459,4.1885 -0.06158,1.0779 0.39421,2.2113 1.1334,2.8334 0.90547,0.73917 1.2442,1.928 1.3551,4.5889 0.11728,2.8334 0.40062,3.6834 1.2504,3.9114 0.62213,0.11088 1.2997,0 1.5276,-0.33902 0.17248,-0.28334 0.90547,-0.40062 1.583,-0.17247 0.62828,0.17247 1.195,0.11087 1.195,-0.22766 0,-0.33853 -0.73915,-0.79459 -1.5892,-1.0163 -1.3551,-0.34494 -1.5276,-0.68371 -1.4722,-3.2338 0.05568,-1.5276 0.28334,-2.9998 0.62213,-3.1722 0.28334,-0.16607 0.51125,0 0.51125,0.40013 0,0.33902 0.28334,0.51125 0.56669,0.33902 0.28334,-0.16606 0.39421,0.28334 0.28334,1.0779 -0.22766,1.1334 0,1.4167 1.0225,1.4167 0.73299,0 1.2997,-0.17247 1.2997,-0.45582 0,-0.79459 -1.5276,-3.9668 -2.0943,-4.361 -0.96707,-0.67755 -1.2442,-5.3835 -0.40062,-5.9502 0.56667,-0.33903 0.6837,-0.0557 0.4558,1.1888 -0.28334,1.5337 -0.17247,1.6446 1.0163,1.3058 0.73915,-0.22766 2.4392,-1.4722 3.7389,-2.8334 1.3058,-1.3613 3.0059,-2.6055 3.7389,-2.778 1.4783,-0.39421 3.8559,-3.7943 3.2892,-4.6998 -0.17247,-0.28333 0.11088,-0.67755 0.62212,-0.85002 0.51125,-0.22766 1.3613,-1.3613 1.8664,-2.6055 0.91163,-2.2113 1.8171,-2.7718 2.4947,-1.6446 0.22765,0.28334 0,0.68372 -0.51125,0.85619 -0.56053,0.22174 -0.733,1.0718 -0.56053,2.6055 0.22174,2.0943 0.11088,2.316 -1.6446,2.661 -2.2667,0.44989 -2.4392,1.583 -0.51125,3.511 l 1.4167,1.4167 0.16606,-2.3222 c 0.17247,-1.8171 0.40062,-2.2113 0.96706,-1.6446 0.90546,0.85003 0.56669,5.6668 -0.45581,6.3444 -0.51125,0.33853 -0.4499,0.4499 0.0616,0.4499 0.73299,0 0.67755,0.62828 -0.28926,3.1784 -0.733,1.9218 -0.67756,6.8495 0.11727,7.872 0.62213,0.90547 0.56669,1.3613 -0.68371,2.661 l -1.4106,1.5276 1.3551,1.8171 c 1.3058,1.8109 1.3613,1.8109 2.4946,0.56669 0.62212,-0.68373 1.2997,-1.2442 1.4722,-1.2442 0.73915,0 2.661,2.1497 2.3776,2.661 -0.16607,0.28335 0.56667,0.90547 1.6446,1.2997 1.0779,0.40063 1.928,1.1888 1.928,1.8171 0,1.1272 1.6384,1.9772 2.6055,1.4106 0.33853,-0.22174 0.39421,0.28335 0.16605,1.3058 -0.39421,1.5892 -0.33902,1.6446 0.90547,0.85003 0.73916,-0.45581 1.3613,-1.1888 1.3613,-1.6446 0,-0.39422 0.56668,-0.79459 1.2504,-0.79459 0.67756,0 1.2442,-0.22175 1.2442,-0.56669 0,-0.28334 0.85003,-0.22174 1.9218,0.17247 1.0225,0.39422 1.8725,1.1334 1.8725,1.6446 0.0557,0.85003 0.11088,0.85003 0.62213,0.0557 0.51125,-0.79459 0.62211,-0.79459 0.96705,0.11087 0.27694,0.68372 0.84388,0.91163 1.7555,0.73915 0.78844,-0.22765 1.8109,-0.40013 2.3222,-0.40013 0.50509,-0.0557 1.2997,-0.50509 1.7001,-1.0163 0.67756,-0.90546 0.84387,-0.90546 1.4167,-0.11087 0.33903,0.56669 0.67757,0.67756 0.67757,0.33903 0,-0.40062 0.16606,-0.40062 0.45581,0 0.61595,0.85003 5.3774,3.6834 4.9215,2.8889 -0.22175,-0.33902 0.11678,-0.51125 0.68371,-0.40062 0.62213,0.0616 1.1888,0.45581 1.2997,0.85003 0.11728,0.34493 0.62829,0.51125 1.0779,0.34493 0.51125,-0.17246 1.0225,-0.0616 1.2504,0.27694 0.16607,0.34494 -0.0616,0.79459 -0.57285,0.96707 -0.50509,0.22765 -1.0718,0.11086 -1.2442,-0.17248 -0.44991,-0.73299 -3.6835,-0.22175 -4.4164,0.73916 -0.33853,0.44989 -1.4722,0.78843 -2.4946,0.67756 -1.0163,-0.0557 -2.2113,0.16607 -2.661,0.51125 -1.0225,0.85003 -1.078,3.6834 -0.11087,3.6834 0.50509,0 0.50509,0.22175 0,0.85002 -0.40062,0.44991 -0.57285,1.0163 -0.40062,1.1888 0.22765,0.22765 -0.51126,0.73299 -1.5276,1.1888 -1.0779,0.51125 -1.928,1.1888 -1.928,1.583 0,1.0779 -1.928,1.6446 -2.8334,0.85003 -0.4499,-0.33904 -1.2442,-0.4499 -1.8664,-0.22175 -0.62212,0.22175 -1.3613,-0.0552 -1.928,-0.79459 -0.78844,-1.1334 -0.90547,-1.1334 -2.3222,0.22765 -1.8109,1.6939 -2.1497,1.7555 -2.6055,0.4499 -0.22816,-0.51124 -0.11088,-0.79459 0.17246,-0.62211 0.33902,0.22765 0.90547,-0.22767 1.2997,-0.90547 0.68372,-1.3058 0.56669,-1.3058 -3.2831,-1.1334 -2.9443,0.11088 -3.9668,0.45582 -3.9668,1.1334 0,0.62212 -0.73916,0.90547 -2.3776,0.9609 -1.2442,0.0552 -2.3222,-0.11087 -2.3222,-0.4499 0,-0.28334 0.28335,-0.56668 0.62213,-0.56668 0.33853,-0.0616 0.90546,-0.17248 1.2442,-0.28334 0.33853,-0.0557 0.90546,-0.17248 1.2504,-0.22767 0.33903,0 0.62213,-0.28334 0.62213,-0.56669 0,-0.28333 -2.1004,-0.56667 -4.706,-0.67755 -3.8498,-0.11728 -4.6998,0.0552 -4.6998,0.85003 0,0.50509 -0.79459,1.1272 -1.7,1.3551 -1.3613,0.33853 -1.928,0.11729 -2.9997,-1.2442 -0.73917,-0.90546 -1.8725,-1.6446 -2.5501,-1.6446 -0.62211,0 -1.6446,-0.44991 -2.2113,-0.96091 -0.62212,-0.56668 -2.2113,-1.0779 -3.511,-1.2504 -1.3613,-0.11087 -2.6055,-0.27694 -2.7718,-0.39422 -0.17247,-0.0557 -0.57284,-0.0557 -0.85002,0 -0.28975,0.0557 -2.6055,0.22766 -5.2172,0.39422 -4.0777,0.22766 -4.8107,0.4558 -6.1165,1.928 -1.1334,1.3613 -1.8109,1.6446 -3.0613,1.3058 -1.7555,-0.45582 -2.8889,-2.9505 -1.2997,-2.9505 0.50509,0 0.79459,-0.33902 0.62213,-0.78843 -0.17248,-0.40062 -0.67756,-0.62212 -1.1334,-0.51125 -0.51125,0.11088 -1.3613,0.22815 -1.9834,0.16607 -0.62213,0 -1.0718,0.40062 -1.1272,1.0225 0,0.85003 -0.11728,0.90546 -0.51125,0.22766 -0.40062,-0.62212 -0.68371,-0.62212 -1.0225,-0.17247 -0.28334,0.51125 -0.79459,0.51125 -1.6446,0.0557 -1.3551,-0.73299 -4.9831,-0.22175 -4.9831,0.68372 0,0.28335 0.51125,0.79459 1.0779,1.1888 0.9609,0.51124 0.85003,0.62212 -0.62213,0.62212 -1.1888,0.0616 -1.6446,-0.22815 -1.3613,-0.67756 0.28334,-0.40012 -0.05568,-1.1334 -0.67756,-1.5892 -1.0225,-0.73299 -1.0779,-1.0718 -0.45581,-2.0943 1.0779,-1.7555 0.9609,-2.0388 -0.45581,-1.2442 -0.733,0.33902 -1.2997,1.0163 -1.2997,1.4722 0,0.96089 -1.8725,1.6384 -4.5335,1.6384 -1.1888,0 -1.583,-0.22175 -1.3551,-0.84386 0.22175,-0.56669 -0.11729,-0.85003 -1.1334,-0.79459 -0.79459,0.0552 -1.6446,-0.11088 -1.8171,-0.40062 -0.22816,-0.27694 -1.6385,-0.67757 -3.1722,-0.78844 -6.1719,-0.57284 -6.9111,-0.73915 -7.6441,-1.4722 -0.40062,-0.45581 -0.51125,-0.73916 -0.17248,-0.68372 1.2997,0.22816 2.2667,-0.0552 1.9834,-0.56669 -0.17248,-0.28334 -0.9609,-0.44989 -1.8109,-0.39421 -0.79459,0.0557 -1.7555,-0.11088 -2.1559,-0.45581 -0.4499,-0.33903 -1.1334,-0.39422 -1.5276,-0.16606 -0.56669,0.39421 -0.67756,-0.90546 -0.33902,-5.439 0.39421,-6.289 1.2997,-10.256 2.8334,-12.067 0.50509,-0.56669 0.62212,-1.0779 0.33902,-1.0779 -0.85003,0 -0.62828,-4.1886 0.33853,-5.2665 0.45581,-0.56667 0.51125,-1.0779 0.16607,-1.3058 -1.1888,-0.67755 0,-2.7164 1.7616,-3.1106 2.7718,-0.51125 4.8661,-3.2338 4.4719,-5.6114 -0.05568,-0.28334 0.56668,-0.33902 1.3613,-0.11087 0.73916,0.22815 1.928,0.51125 2.4885,0.67756 0.62827,0.17246 1.1334,0.73915 1.1334,1.2442 0,0.56669 0.45582,0.91163 1.0779,0.79459 1.5892,-0.33902 4.0777,-6.0056 4.2501,-9.7445 0.16606,-3.2831 0.67756,-4.3056 3.4001,-6.7386 0.85002,-0.73915 2.3222,-2.0943 3.2831,-3.0059 3.0059,-2.8273 5.8886,-4.1885 9.0054,-4.244 3.0613,-0.0557 4.1393,-0.39422 4.1393,-1.3613 0,-0.28335 -1.1888,-0.39421 -2.6671,-0.17247 -5.7777,0.79459 -5.7161,0.85003 -5.8886,-2.5439 -0.11087,-1.6446 0.05518,-4.2502 0.33853,-5.7777 0.34494,-1.9834 0.28334,-3.1722 -0.33853,-4.1947 -0.45581,-0.85002 -1.0225,-1.9834 -1.2442,-2.5501 -0.22815,-0.62212 -0.62828,-0.9609 -0.85003,-0.85002 -0.28334,0.17247 -0.28334,-0.79459 -0.05568,-2.2052 0.27742,-1.3613 0.22175,-2.6671 -0.06158,-2.8334 -0.33902,-0.17246 -0.39421,-0.62211 -0.22175,-0.90546 0.22175,-0.34494 0.05568,-0.62828 -0.34494,-0.62828 -0.56669,0 -0.56669,-0.22175 0.06158,-0.9609 0.62213,-0.78843 0.56669,-1.0779 -0.40013,-1.8109 -0.67756,-0.51125 -0.9609,-1.1334 -0.67756,-1.3613 0.05568,-0.11087 0.17246,-0.17246 0.33902,-0.17246 z m 20.056,-8.8329 c 0.50509,-0.0557 0.78843,0.22767 0.78843,0.85003 0,0.56669 -0.39421,0.7946 -0.90547,0.62213 -0.44989,-0.22766 -1.0779,-0.0552 -1.2997,0.39421 -0.34494,0.56669 -0.05568,0.68373 1.1334,0.45581 0.9609,-0.17246 1.7001,-0.11087 1.7001,0.11088 0,0.62212 2.7164,0.62212 3.511,0 0.4499,-0.4499 1.0163,-0.28334 1.583,0.45581 0.62212,0.73915 0.62212,0.90547 0.11728,0.56669 -0.45581,-0.22816 -1.1888,-0.22816 -1.5892,0.0552 -0.4494,0.28334 -1.6385,0.56668 -2.661,0.62212 -1.0779,0.11728 -2.778,0.33902 -3.7943,0.45581 -1.0225,0.17247 -2.1004,0.28334 -2.3222,0.33902 -0.22765,0 -0.56669,0.67757 -0.68371,1.4722 -0.16607,0.73915 -0.33903,1.0163 -0.39422,0.56668 -0.05518,-0.44989 -0.33853,-0.67756 -0.62212,-0.44989 -0.33902,0.16605 -0.73915,-0.0616 -0.96707,-0.62829 -0.16606,-0.51125 -0.62212,-0.90547 -1.0163,-0.90547 -0.40062,0 -0.56668,0.22767 -0.40062,0.4499 0.17248,0.28927 -0.51125,0.62829 -1.5276,0.68373 -1.0163,0.0557 -1.8109,-0.17248 -1.8109,-0.51125 0,-0.733 2.7164,-1.5276 3.8498,-1.1334 0.45582,0.17247 1.1888,-0.11087 1.7555,-0.56668 0.56668,-0.50509 1.8171,-1.583 2.8334,-2.433 1.1334,-0.96091 2.0943,-1.4722 2.7225,-1.4722 z m 0.39422,-98.566 c 1.2997,31.722 1.5892,63.444 1.7001,95.111 -4.361,0.16606 -6.8002,0 -9.8,0 -0.45581,-31.667 -1.0225,-63.389 1.0225,-95.111 3.511,-0.17247 5.4328,-0.0557 7.0774,0 z m 4.1331,-7.8782 c 0.17248,0 0.34494,0 0.62213,0.11728 0.34494,0.11087 0.40062,0.56669 0.11728,1.0779 -0.39421,0.62211 -0.67756,0.62211 -1.0163,0.11086 -0.40062,-0.67755 -0.23406,-1.1888 0.27694,-1.3058 z m -5.6607,-3.4556 c 0.11087,0 0.22814,0.0616 0.33902,0.11728 0.51125,0.16607 0.79459,0.56669 0.56669,0.90547 -0.45582,0.73299 -0.67756,0.67755 -1.0779,-0.33853 -0.16607,-0.45582 -0.11088,-0.68373 0.17246,-0.68373 z m -3.9114,-0.9609 c 1.5892,0 1.5892,0.0557 0.45581,1.2442 -1.0225,1.1334 -1.0225,1.3058 -0.05568,1.3058 0.67756,0 0.9609,0.39421 0.78842,1.3613 -0.22815,1.6385 -1.5276,2.2606 -2.0388,0.90546 -0.17246,-0.51124 -0.85003,-0.85003 -1.4721,-0.73915 -0.62213,0.11728 -1.0779,-0.16607 -1.0779,-0.67755 0,-0.45582 0.28334,-0.85003 0.62213,-0.85003 0.34493,0 0.45581,-0.22767 0.22766,-0.45581 -0.73915,-0.733 0.91163,-2.0943 2.5501,-2.0943 z m 10.028,-13.2 c 0.39421,0 0.90546,0.28335 1.1334,0.62213 0.51125,0.79459 0.28334,0.79459 -0.90546,0 -0.56669,-0.33853 -0.68372,-0.62213 -0.22766,-0.62213 z m -7.8166,-0.28334 h 0.11088 c 0.22814,0 0.56668,0.17247 0.9609,0.39422 0.85619,0.57284 1.1334,1.2504 0.91162,2.1004 -0.56668,1.8664 -1.0779,2.2051 -2.1559,1.5276 -0.51125,-0.28335 -0.67757,-0.56669 -0.28334,-0.56669 0.33902,-0.0552 0.28334,-0.22175 -0.11088,-0.51125 -0.45581,-0.28334 -0.51125,-0.9609 -0.17246,-1.9218 0.28334,-0.68371 0.45581,-0.96705 0.73915,-1.0225 z m -7.139,0 c 0.45581,-0.0557 0.62212,0.17247 0.51125,0.51125 -0.28334,0.90547 -2.3222,1.3613 -2.3222,0.51124 0,-0.33902 0.56669,-0.73915 1.2442,-0.96705 0.22816,-0.0552 0.40062,-0.0552 0.56669,-0.0552 z m 12.295,-0.33902 c 0.50509,0 1.0163,0.22765 1.2442,0.56668 0.17248,0.28335 -0.05518,0.67756 -0.51125,0.90546 -0.9609,0.33903 -1.6385,-0.0552 -1.6385,-0.9609 0,-0.33853 0.44989,-0.51124 0.90546,-0.51124 z"
         fill="#ffffff"
         id="path44491"
         style="stroke-width:0.0348476" />
      <path
         d="m 269.05,270.25 c -3.2215,7.7919 -7.2376,15.504 -12.498,23.376 -7.5086,11.254 -8.3401,23.955 -10.878,36.274 -2.8581,13.865 -11.679,19.896 -20.555,24.99 38.387,-11.913 60.358,-44.072 43.93,-84.639 z"
         fill="#ffd500"
         id="path44493"
         style="stroke-width:0.0348476" />
      <path
         d="m 269.05,270.25 c -2.5932,31.679 -15.282,80.974 -43.93,84.639 38.387,-11.913 60.358,-44.072 43.93,-84.639 z"
         fill="url(#c)"
         id="path44495"
         style="fill:url(#c);stroke-width:0.0348476" />
    </g>
    <path
       d="m 269.05,270.25 c -3.2215,7.7919 -7.2376,15.504 -12.498,23.376 -7.5086,11.254 -8.3401,23.955 -10.878,36.274 -2.8581,13.865 -11.679,19.896 -20.555,24.99 38.387,-11.913 60.358,-44.072 43.93,-84.639 z"
       fill="none"
       stroke="#d4a900"
       stroke-width="1.05808"
       id="path44499" />
    <path
       d="m 290.41,231.96 c -2.5562,5.2418 -5.2665,10.41 -7.6626,15.719 -5.0201,11.13 -7.6133,21.99 -4.6382,36.791 2.6794,13.311 1.4537,23.678 -1.8048,36.964 18.707,-17.703 27.607,-39.348 18.134,-67.707 -2.4515,-7.3423 -3.4987,-14.512 -4.0284,-21.768 z"
       fill="#ffd500"
       fill-rule="evenodd"
       id="path44501"
       style="stroke-width:0.156815" />
    <path
       d="m 290.41,231.96 c -7.8042,34.783 6.406,58.319 -14.106,89.475 18.707,-17.703 27.607,-39.348 18.134,-67.707 -2.4515,-7.3423 -3.4987,-14.512 -4.0284,-21.768 z"
       fill="url(#d)"
       fill-rule="evenodd"
       id="path44503"
       style="fill:url(#d);stroke-width:0.156815" />
    <path
       d="m 290.41,231.96 c -2.5562,5.2418 -5.2665,10.41 -7.6626,15.719 -5.0201,11.13 -7.6133,21.99 -4.6382,36.791 2.6794,13.311 1.4537,23.678 -1.8048,36.964 18.707,-17.703 27.607,-39.348 18.134,-67.707 -2.4515,-7.3423 -3.4987,-14.512 -4.0284,-21.768 z"
       fill="none"
       stroke="#d4a900"
       stroke-width="1.05808"
       id="path44505" />
    <g
       fill-rule="evenodd"
       id="g44513"
       style="stroke-width:0.156815">
      <path
         d="m 176.76,376.25 c 2.9197,-7.2129 8.2416,-11.093 14.875,-12.898 5.8948,-1.6138 12.017,-2.4084 18.109,-3.1168 22.249,-2.5747 40.992,-9.954 57.599,-24.873 17.789,-15.978 31.513,-37.783 39.459,-58.221 l -1.9711,-0.75763 c -9.0608,23.29 -27.398,48.372 -50.022,63.721 -22.242,15.091 -49.351,16.539 -75.227,19.212 -3.086,5.7777 -5.1063,11.555 -6.0426,17.333 1.0718,-0.13551 2.1497,-0.27102 3.2215,-0.40062 z"
         fill="#ffd500"
         id="path44507"
         style="stroke-width:0.0348476" />
      <path
         d="m 329.5,191.25 c -6.6401,8.1369 -15.405,15.436 -20.869,24.398 -6.9973,11.494 -6.0426,24.183 -3.7142,38.473 1.6138,9.8985 -0.12319,19.883 -2.0142,29.825 5.864,-9.3565 12.073,-18.602 18.54,-26.197 11.284,-13.262 12.609,-28.778 8.0568,-45.945 -1.9095,-7.2191 -1.0718,-14.241 0,-20.555 z"
         fill="#ffd500"
         id="path44509"
         style="stroke-width:0.0348476" />
      <path
         d="m 329.5,191.25 c -17.093,26.998 -9.7445,61.744 -26.406,93.078 5.864,-9.3565 11.888,-18.984 18.35,-26.579 11.284,-13.262 12.609,-28.778 8.0568,-45.945 -1.9095,-7.2191 -1.0718,-14.241 0,-20.555 z"
         fill="url(#e)"
         id="path44511"
         style="fill:url(#e);stroke-width:0.0348476" />
    </g>
    <path
       d="m 329.5,191.25 c -6.6401,8.1369 -15.405,15.436 -20.869,24.398 -6.9973,11.494 -6.0426,24.183 -3.7142,38.473 0.93626,5.7531 0.74532,11.537 0.0493,17.321 -0.50509,4.207 -1.1087,7.5148 -2.8581,11.352 -9.7322,21.368 -26.751,44.109 -47.306,58.048 -22.236,15.091 -49.351,15.793 -75.227,18.467 -2.6363,4.4349 -4.6567,10.213 -6.0426,17.333 1.0718,-0.13551 2.1497,-0.27102 3.2215,-0.40062 2.9197,-7.2129 8.2416,-11.093 14.875,-12.898 5.8948,-1.6138 12.024,-2.4084 18.109,-3.1168 22.249,-2.5747 40.617,-11.069 57.223,-25.987 15.916,-14.29 28.95,-32.135 37.13,-50.601 1.6816,-3.7943 3.3693,-6.868 5.71,-10.33 3.7697,-5.5744 7.6564,-10.878 11.642,-15.559 11.284,-13.262 12.609,-28.778 8.0568,-45.945 -1.9095,-7.2191 -1.0718,-14.241 0,-20.555 z"
       fill="none"
       stroke="#d4a900"
       stroke-width="1.05808"
       id="path44515" />
    <path
       d="m 355.7,240.42 c -6.3013,7.9336 -13.619,14.173 -23.776,18.947 -6.6709,3.1291 -12.658,7.2068 -17.857,12.584 -10.052,10.404 -11.968,24.3 -24.46,36.182 9.9416,-6.0488 20.08,-9.0485 29.825,-11.691 22.926,-6.2089 36.175,-24.213 36.268,-56.022 z"
       fill="#ffd500"
       fill-rule="evenodd"
       id="path44517"
       style="stroke-width:0.156815" />
    <path
       d="m 355.7,240.42 c -2.316,7.1513 -8.0999,15.522 -15.516,23.998 -15.196,17.358 -36.835,27.349 -50.577,43.715 9.9416,-6.0488 20.08,-9.0485 29.825,-11.691 22.926,-6.2089 36.175,-24.213 36.268,-56.022 z"
       fill="url(#f)"
       fill-rule="evenodd"
       id="path44519"
       style="fill:url(#f);stroke-width:0.156815" />
    <path
       d="m 355.7,240.42 c -6.3013,7.9336 -13.619,14.173 -23.776,18.947 -6.6709,3.1291 -12.658,7.2068 -17.857,12.584 -10.052,10.404 -11.968,24.3 -24.46,36.182 9.9416,-6.0488 20.08,-9.0485 29.825,-11.691 22.926,-6.2089 36.175,-24.213 36.268,-56.022 z"
       fill="none"
       stroke="#d4a900"
       stroke-width="1.05808"
       id="path44521" />
    <path
       d="m 313.38,366.17 c -12.572,-13.761 -24.817,-18.91 -36.884,-19.945 -16.077,-1.3798 -39.84,3.3755 -54.199,9.8677 9.8862,1.8725 40.672,21.626 74.562,12.898 5.1002,-2.1497 11.013,-2.2852 16.52,-2.8211 z"
       fill="#ffd500"
       fill-rule="evenodd"
       id="path44523"
       style="stroke-width:0.156815" />
    <path
       d="m 313.38,366.17 c -24.207,-9.4427 -60.327,-9.8431 -91.082,-10.077 9.8862,1.8725 40.672,21.626 74.562,12.898 5.1002,-2.1497 11.013,-2.2852 16.52,-2.8211 z"
       fill="url(#g)"
       fill-rule="evenodd"
       id="path44525"
       style="fill:url(#g);stroke-width:0.156815" />
    <path
       d="m 313.38,366.17 c -12.572,-13.761 -24.817,-18.91 -36.884,-19.945 -16.077,-1.3798 -39.84,3.3755 -54.199,9.8677 9.8862,1.8725 40.672,21.626 74.562,12.898 5.1002,-2.1497 11.013,-2.2852 16.52,-2.8211 z"
       fill="none"
       stroke="#d4a900"
       stroke-width="1.05808"
       id="path44527" />
    <path
       d="m 333.54,303.7 c -22.692,16.594 -47.417,-1.9526 -78.997,39.496 11.907,-2.7965 21.386,-1.7555 33.133,-0.86235 18.208,1.3921 34.118,-7.4655 45.865,-38.633 z"
       fill="#ffd500"
       fill-rule="evenodd"
       id="path44529"
       style="stroke-width:0.156815" />
    <path
       d="m 333.54,303.7 c -26.573,34.106 -51.55,16.686 -78.997,39.496 11.907,-2.7965 21.386,-1.7555 33.133,-0.86235 18.208,1.3921 34.118,-7.4655 45.865,-38.633 z"
       fill="url(#h)"
       fill-rule="evenodd"
       id="path44531"
       style="fill:url(#h);stroke-width:0.156815" />
    <g
       fill="none"
       stroke="#d4a900"
       id="g44551"
       style="stroke-width:0.156815">
      <path
         d="m 333.54,303.7 c -22.692,16.594 -47.417,-1.9526 -78.997,39.496 11.907,-2.7965 21.386,-1.7555 33.133,-0.86235 18.208,1.3921 34.118,-7.4655 45.865,-38.633 z"
         stroke-width="1.05808"
         id="path44533" />
      <g
         stroke-width="0.705397"
         id="g44547">
        <path
           d="m 269.05,270.25 c -2.5932,31.679 -15.282,80.974 -43.93,84.639"
           id="path44535"
           style="stroke-width:0.705397" />
        <path
           d="m 290.41,231.96 c -7.8042,34.783 6.406,58.319 -14.106,89.475"
           id="path44537"
           style="stroke-width:0.705397" />
        <path
           d="m 329.5,191.25 c -17.093,26.998 -9.7445,61.744 -26.406,93.078"
           id="path44539"
           style="stroke-width:0.705397" />
        <path
           d="m 355.7,240.42 c -2.316,7.1513 -8.0999,15.522 -15.516,23.998 -15.196,17.358 -36.835,27.349 -50.577,43.715"
           id="path44541"
           style="stroke-width:0.705397" />
        <path
           d="m 313.38,366.17 c -24.207,-9.4427 -60.327,-9.8431 -91.082,-10.077"
           id="path44543"
           style="stroke-width:0.705397" />
        <path
           d="m 333.54,303.7 c -26.573,34.106 -51.55,16.686 -78.997,39.496"
           id="path44545"
           style="stroke-width:0.705397" />
      </g>
      <path
         d="m 367.09,375.66 h -0.01 0.01 L 367.095,4.46 H 4.925 v 371.2 0.005 h -0.01 c 0,11.303 4.5951,21.553 12.024,28.981 7.4224,7.4223 17.672,12.024 28.981,12.024 v -0.0197 h 0.005 105.11 l 0.068,0.0197 c 13.41,0.30206 25.131,7.4285 31.821,18.035 0.6098,0.97323 1.1826,1.9711 1.7062,2.9997 4.0222,-7.8412 10.638,-14.13 18.719,-17.727 2.2606,-1.004 4.632,-1.7986 7.0959,-2.3591 2.4392,-0.56053 4.9831,-0.88083 7.601,-0.94858 h 0.0197 0.0986 l 0.0739,-0.0197 h 107.86 0.005 v 0.0197 c 11.303,-0.005 21.553,-4.6012 28.975,-12.024 7.4285,-7.4285 12.024,-17.678 12.024,-28.987 z"
         stroke-width="1.05808"
         id="path44549" />
    </g>
    <path
       d="m 236.38,19.315 h 68.292 c 3.4124,0 6.2027,2.9012 6.2027,6.4491 v 4.2933 c 0,3.5479 -2.7903,6.4491 -6.2027,6.4491 H 236.38 c -3.4124,0 -6.2027,-2.9012 -6.2027,-6.4491 v -4.2933 c 0,-3.5479 2.7903,-6.4491 6.2027,-6.4491 z m 0,49.948 c -3.4124,0 -6.2027,-2.895 -6.2027,-6.443 v -4.2994 c 0,-3.5479 2.7903,-6.443 6.2027,-6.443 h 68.292 c 3.4124,0 6.2027,2.895 6.2027,6.443 V 62.82 c 0,3.5479 -2.7903,6.443 -6.2027,6.443 h -24.411 l -4.3241,6.6154 c -0.61596,0.94858 -1.7124,1.349 -2.8457,1.2196 h -5.131 c -1.1272,0.1296 -2.2236,-0.27102 -2.8458,-1.2196 l -4.3241,-6.6154 z m 31.211,0.94858 c 0,1.6261 1.312,2.9381 2.9381,2.9381 1.62,0 2.932,-1.312 2.932,-2.9381 0,-1.62 -1.312,-2.932 -2.932,-2.932 -1.6261,0 -2.9381,1.312 -2.9381,2.932 z"
       fill="#ffd500"
       stroke="#d4a900"
       stroke-width="1.05808"
       id="path44553" />
    <path
       d="m 236.49,25.801 h 68.082 V 62.777 H 236.49 Z"
       fill="url(#i)"
       stroke="#a90000"
       stroke-width="1.05808"
       id="path44555"
       style="fill:url(#i)" />
    <g
       fill="#ffd500"
       id="g44563"
       style="stroke-width:0.156815">
      <path
         d="m 270.53,81.866 c 5.1494,0 9.3257,4.1824 9.3257,9.3318 0,5.1494 -4.1762,9.3257 -9.3257,9.3257 -5.1494,0 -9.3318,-4.1762 -9.3318,-9.3257 0,-5.1494 4.1824,-9.3318 9.3318,-9.3318 z m -5.365,9.3318 c 0,2.9628 2.4022,5.365 5.365,5.365 2.9628,0 5.365,-2.4023 5.365,-5.365 0,-2.9627 -2.4022,-5.365 -5.365,-5.365 -2.9628,0 -5.365,2.4023 -5.365,5.365 z"
         stroke="#d4a900"
         stroke-width="1.05808"
         id="path44557" />
      <path
         d="m 270.53,70.193 c 1.1796,0 2.1405,1.004 2.1405,2.2236 v 14.041 c 0,1.2196 -0.96091,2.2236 -2.1405,2.2236 -1.1796,0 -2.1343,-0.99786 -2.1343,-2.2236 v -14.041 c 0,-1.2258 0.95474,-2.2236 2.1343,-2.2236 z"
         stroke="#d4a900"
         stroke-width="1.05808"
         id="path44559" />
      <path
         d="m 304.96,204.99 -34.426,-15.214 -34.426,15.208 3.8313,-37.438 -25.107,-28.039 36.791,-7.9274 18.91,-32.547 18.91,32.547 36.791,7.9274 -25.107,28.039 3.8313,37.444 z"
         id="path44561"
         style="stroke-width:0.705664" />
    </g>
    <path
       d="m 304.96,204.99 -34.426,-15.214 -34.426,15.208 3.8313,-37.438 -25.107,-28.039 36.791,-7.9274 18.91,-32.547 18.91,32.547 36.791,7.9274 -25.107,28.039 3.8313,37.444 z"
       fill="url(#b)"
       id="path44565"
       style="fill:url(#b);stroke-width:0.156815" />
    <g
       fill="#ffd500"
       fill-rule="evenodd"
       id="g44575"
       style="stroke-width:0.156815">
      <path
         d="m 236.11,204.98 3.8313,-37.438 30.589,-9.9416 -34.42,47.38 z"
         id="path44567"
         style="stroke-width:0.705664" />
      <path
         d="m 214.83,139.51 36.791,-7.9274 18.904,26.024 z"
         id="path44569"
         style="stroke-width:0.705664" />
      <path
         d="m 251.62,131.58 18.91,-32.547 v 58.572 l -18.91,-26.024 z"
         id="path44571"
         style="stroke-width:0.705664" />
      <path
         d="m 326.23,139.51 -36.791,-7.9274 -18.91,26.024 55.701,-18.097 z"
         id="path44573"
         style="stroke-width:0.705664" />
    </g>
    <g
       fill="none"
       stroke="#d4a900"
       id="g44591"
       style="stroke-width:0.156815">
      <g
         stroke-width="0.352833"
         id="g44587">
        <path
           d="m 326.23,139.51 -86.296,28.039"
           id="path44577"
           style="stroke-width:0.352833" />
        <path
           d="M 301.13,167.55 214.834,139.511"
           id="path44579"
           style="stroke-width:0.352833" />
        <path
           d="M 304.96,204.98 251.624,131.57"
           id="path44581"
           style="stroke-width:0.352833" />
        <path
           d="m 270.53,99.033 v 90.744"
           id="path44583"
           style="stroke-width:0.352833" />
        <path
           d="m 289.44,131.58 -53.336,73.404"
           id="path44585"
           style="stroke-width:0.352833" />
      </g>
      <path
         d="m 304.96,204.99 -34.426,-15.214 -34.426,15.208 3.8313,-37.438 -25.107,-28.039 36.791,-7.9274 18.91,-32.547 18.91,32.547 36.791,7.9274 -25.107,28.039 3.8313,37.444 z"
         stroke-width="1.41077"
         id="path44589" />
    </g>
    <path
       d="m 304.97,204.99 -34.422,-15.213 -0.003,-32.164 34.425,47.376 z"
       fill="#ffd500"
       fill-rule="evenodd"
       id="path44593"
       style="stroke-width:0.156815" />
  </g>
</svg>
