<?xml version="1.0" encoding="UTF-8" standalone="no"?>
<!-- Created with Inkscape (http://www.inkscape.org/) -->

<svg
   version="1.1"
   width="512"
   height="512"
   viewBox="0 0 256 255.99999"
   id="svg2"
   inkscape:version="1.2.2 (b0a84865, 2022-12-01)"
   sodipodi:docname="abz.svg"
   xmlns:inkscape="http://www.inkscape.org/namespaces/inkscape"
   xmlns:sodipodi="http://sodipodi.sourceforge.net/DTD/sodipodi-0.dtd"
   xmlns="http://www.w3.org/2000/svg"
   xmlns:svg="http://www.w3.org/2000/svg"
   xmlns:rdf="http://www.w3.org/1999/02/22-rdf-syntax-ns#"
   xmlns:cc="http://creativecommons.org/ns#"
   xmlns:dc="http://purl.org/dc/elements/1.1/">
  <sodipodi:namedview
     pagecolor="#ffffff"
     bordercolor="#666666"
     borderopacity="1"
     objecttolerance="10"
     gridtolerance="10"
     guidetolerance="10"
     inkscape:pageopacity="0"
     inkscape:pageshadow="2"
     inkscape:window-width="1440"
     inkscape:window-height="819"
     id="namedview33"
     showgrid="false"
     fit-margin-top="0"
     fit-margin-left="0"
     fit-margin-right="0"
     fit-margin-bottom="0"
     showguides="true"
     inkscape:guide-bbox="true"
     inkscape:zoom="1.1699219"
     inkscape:cx="256"
     inkscape:cy="256"
     inkscape:window-x="0"
     inkscape:window-y="25"
     inkscape:window-maximized="0"
     inkscape:current-layer="svg2"
     inkscape:showpageshadow="2"
     inkscape:pagecheckerboard="0"
     inkscape:deskcolor="#d1d1d1" />
  <metadata
     id="metadata393">
    <rdf:RDF>
      <cc:Work
         rdf:about="">
        <dc:format>image/svg+xml</dc:format>
        <dc:type
           rdf:resource="http://purl.org/dc/dcmitype/StillImage" />
        <dc:title />
      </cc:Work>
    </rdf:RDF>
  </metadata>
  <defs
     id="defs391" />
  <clipPath
     id="border">
    <rect
       width="60"
       height="30"
       x="0"
       y="0"
       id="rect5" />
  </clipPath>
  <path
     id="path4209"
     d="M 0,0 H 256 V 256 H 0 Z"
     style="fill:#c8312a;stroke:none;stroke-width:1"
     inkscape:connector-curvature="0"
     sodipodi:nodetypes="ccccc" />
  <g
     id="g2079"
     transform="matrix(0.96240602,0,0,0.96240602,0,58.579095)"
     style="stroke-width:1.03906">
    <path
       style="fill:#ffffff;stroke:none;stroke-width:1.03906"
       inkscape:connector-curvature="0"
       d="m 112.41105,83.79114 c 0,0 -2.293,0.96 -0.72199,19.26101 1.28199,15.06301 6.64899,19.97001 6.64899,19.97001 l 2.344,9.324 22.232,0.091 c 0,0 0.40301,-5.774 1.26401,-7.6 2.11499,-4.486 10.49899,-9.613 14.09199,-17.355 3.864,-4.71901 1.92801,-14.35001 9.685,-23.64601 3.85101,-4.61601 -4.512,-2.66201 -4.512,-2.66201 -4.58599,3.042 -6.827,6.61201 -7.98399,9.106 -0.778,4.80501 -4.375,8.82301 -4.715,5.334 0,0 -1.307,-6.034 -5.228,-17.764 -0.38801,-3.477 -2.07001,-15.5 -2.42901,-24.677 -0.256,-5.971 -5.48199,-6.33 -5.919,-0.269 l -0.631,24.028 -1.24899,-27.75 c -0.53101,-7.854 -6.47301,-6.69 -6.73101,-0.181 l -0.25499,28.895 -1.08301,-28.009 c -1.61,-5.35 -5.83999,-2.179 -5.918,3.617 l -0.721,27.253 c 0,0 -0.91099,-14.92499 -1.117,-21.227 -0.194,-3.791 -4.633,-3.511 -5.05199,1.909 -0.60401,7.834 -1.555,14.231 -2.00001,22.352 z"
       id="path4211" />
    <path
       inkscape:connector-curvature="0"
       id="path4213"
       d="M 178.80631,40.93149 161.10963,28.07411 h 21.8743 l -17.69668,12.85738 6.75952,-20.80369 z"
       style="fill:#ffffff;stroke:none;stroke-width:1.03906" />
    <path
       inkscape:connector-curvature="0"
       id="path4215"
       d="M 212.21171,65.65019 194.51503,52.79281 h 21.8743 l -17.69668,12.85738 6.75954,-20.80369 z"
       style="fill:#ffffff;stroke:none;stroke-width:1.03906" />
    <path
       sodipodi:nodetypes="cccccc"
       inkscape:connector-curvature="0"
       id="path4217"
       d="M 231.56485,100.56418 213.86816,87.70679 h 21.8742 l -17.69658,12.85739 6.75955,-20.80369 z"
       style="fill:#ffffff;stroke:none;stroke-width:1.03906" />
    <path
       inkscape:connector-curvature="0"
       id="path4219"
       d="m 126.24053,32.63186 17.69668,-12.85739 h -21.8743 l 17.69667,12.85739 -6.75952,-20.8037 z"
       style="fill:#ffffff;stroke:none;stroke-width:1.03906" />
    <path
       inkscape:connector-curvature="0"
       id="path4221"
       d="M 87.193811,40.93149 104.89049,28.07411 H 83.016186 L 100.71287,40.93149 93.953336,20.1278 Z"
       style="fill:#ffffff;stroke:none;stroke-width:1.03906" />
    <path
       inkscape:connector-curvature="0"
       id="path4223"
       d="M 53.788399,65.65019 71.485086,52.79281 H 49.610783 L 67.30747,65.65019 60.547928,44.8465 Z"
       style="fill:#ffffff;stroke:none;stroke-width:1.03906" />
    <path
       inkscape:connector-curvature="0"
       id="path4225"
       d="M 34.435262,100.56418 52.131946,87.70679 H 30.257645 l 17.696684,12.85739 -6.75954,-20.80369 z"
       style="fill:#ffffff;stroke:none;stroke-width:1.03906" />
  </g>
</svg>
