<svg id="flag-icons-au-eu" class="fi fi-au-eu" viewBox="0 0 512 512" xmlns="http://www.w3.org/2000/svg" xml:space="preserve" width="512" height="512" version="1.2">
  <metadata id="flag-icons">
    <name>Eureka Flag</name>
    <code>au-eu</code>
    <iso>false</iso>
    <type>Historic</type>
    <continent>Australia</continent>
  </metadata>
  <path fill="#225d87" d="M0 512h512V0H0Z" style="stroke-width:.120193"/>
  <g style="stroke-width:1.25">
    <path fill="#fff" d="M77.984 28.605v-7.089H22.938v7.089z" style="stroke-width:.0180578" transform="translate(-79.869 89.603)scale(6.656)"/>
    <path fill="#fff" d="M54.066 42.908V7.092h-7.091v35.816z" style="stroke-width:.0180578" transform="translate(-79.869 89.603)scale(6.656)"/>
    <path fill="#5b667c" d="m53.523 26.27 1.627 3.419-3.421-1.627-1.268 3.57-1.27-3.57-3.42 1.627 1.625-3.419L43.83 25l3.566-1.27-1.625-3.419 3.42 1.627 1.27-3.57 1.268 3.57 3.421-1.627-1.627 3.419 3.57 1.27zM26 26.27l1.626 3.419-3.421-1.627-1.267 3.57-1.27-3.57-3.42 1.627 1.625-3.419L16.306 25l3.567-1.27-1.625-3.419 3.42 1.627 1.27-3.57 1.267 3.57 3.421-1.627L26 23.73 29.568 25Zm55.048 0 1.626 3.419-3.42-1.627-1.27 3.57-1.268-3.57-3.42 1.627 1.625-3.419L71.354 25l3.567-1.27-1.625-3.419 3.42 1.627 1.268-3.57 1.27 3.57 3.42-1.627-1.626 3.419L84.616 25zM53.523 8.359l1.627 3.421-3.421-1.626-1.268 3.569-1.27-3.569-3.42 1.626 1.625-3.421-3.566-1.267 3.566-1.27-1.625-3.42 3.42 1.625L50.461.46l1.268 3.567 3.421-1.625-1.627 3.42 3.57 1.27zm0 35.818 1.627 3.421-3.421-1.625-1.268 3.566-1.27-3.566-3.42 1.625 1.625-3.421-3.566-1.269 3.566-1.267-1.625-3.422 3.42 1.626 1.27-3.568 1.268 3.568 3.421-1.626-1.627 3.422 3.57 1.267z" style="stroke-width:.0180578" transform="translate(-79.869 89.603)scale(6.656)"/>
    <path fill="#fff" d="m53.125 26.104 1.414 2.974-2.975-1.414-1.103 3.104-1.104-3.104-2.974 1.414 1.414-2.974L44.693 25l3.104-1.104-1.414-2.973 2.974 1.413 1.104-3.104 1.103 3.104 2.975-1.413-1.414 2.973L56.229 25zm-27.524 0 1.414 2.974-2.974-1.414-1.103 3.104-1.104-3.104-2.975 1.414 1.415-2.974L17.17 25l3.104-1.104-1.415-2.973 2.975 1.413 1.104-3.104 1.103 3.104 2.974-1.413-1.414 2.973L28.703 25zm55.047 0 1.414 2.974-2.973-1.414-1.105 3.104-1.102-3.104-2.976 1.414 1.414-2.974L72.218 25l3.102-1.104-1.414-2.973 2.976 1.413 1.102-3.104 1.105 3.104 2.973-1.413-1.414 2.973L83.751 25ZM53.125 8.195l1.414 2.974-2.975-1.414-1.103 3.102-1.104-3.102-2.974 1.414 1.414-2.974-3.104-1.103 3.104-1.104-1.414-2.974 2.974 1.414 1.104-3.104 1.103 3.104 2.975-1.414-1.414 2.974 3.104 1.104zm0 35.817 1.414 2.974-2.975-1.414-1.103 3.104-1.104-3.104-2.974 1.414 1.414-2.974-3.104-1.104 3.104-1.103-1.414-2.975 2.974 1.414 1.104-3.101 1.103 3.101 2.975-1.414-1.414 2.975 3.104 1.103z" style="stroke-width:.0180578" transform="translate(-79.869 89.603)scale(6.656)"/>
  </g>
</svg>
