<?xml version="1.0" encoding="UTF-8" standalone="no"?>
<svg
   version="1.1"
   width="512"
   height="512"
   style="clip-rule:evenodd;fill-rule:evenodd;image-rendering:optimizeQuality;shape-rendering:geometricPrecision;text-rendering:geometricPrecision"
   id="svg168"
   sodipodi:docname="chlm.svg"
   inkscape:version="1.2.2 (b0a84865, 2022-12-01)"
   xmlns:inkscape="http://www.inkscape.org/namespaces/inkscape"
   xmlns:sodipodi="http://sodipodi.sourceforge.net/DTD/sodipodi-0.dtd"
   xmlns="http://www.w3.org/2000/svg"
   xmlns:svg="http://www.w3.org/2000/svg">
  <defs
     id="defs172" />
  <sodipodi:namedview
     id="namedview170"
     pagecolor="#ffffff"
     bordercolor="#666666"
     borderopacity="1.0"
     inkscape:showpageshadow="2"
     inkscape:pageopacity="0.0"
     inkscape:pagecheckerboard="0"
     inkscape:deskcolor="#d1d1d1"
     showgrid="false"
     inkscape:zoom="1.1699219"
     inkscape:cx="256"
     inkscape:cy="256"
     inkscape:window-width="1440"
     inkscape:window-height="819"
     inkscape:window-x="0"
     inkscape:window-y="25"
     inkscape:window-maximized="0"
     inkscape:current-layer="svg168" />
  <g
     id="g10449"
     transform="matrix(1.0666667,0,0,1.0666667,8.5173336e-6,0)"
     style="stroke-width:0.9375">
    <g
       id="g3785"
       style="stroke-width:3.27287"
       transform="matrix(0.27350427,0,0,0.3,-176.27351,0.15)">
      <g
         id="g138"
         style="stroke-width:3.27287">
        <path
           style="opacity:1;stroke-width:10.9095"
           fill="#0093ff"
           d="m 644.5,-0.5 c 585,0 1170,0 1755,0 0,244.667 0,489.333 0,734 -585,0 -1170,0 -1755,0 0,-244.667 0,-489.333 0,-734 z"
           id="path136" />
      </g>
      <g
         id="g162"
         style="stroke-width:3.27287">
        <path
           style="opacity:1;stroke-width:10.9095"
           fill="#fefffe"
           d="m 644.5,733.5 c 585,0 1170,0 1755,0 0,43.333 0,86.667 0,130 -585,0 -1170,0 -1755,0 0,-43.333 0,-86.667 0,-130 z"
           id="path160" />
      </g>
      <g
         id="g166"
         style="stroke-width:3.27287">
        <path
           style="opacity:1;stroke-width:10.9095"
           fill="#00990e"
           d="m 644.5,863.5 c 585,0 1170,0 1755,0 0,245.33 0,490.67 0,736 -585,0 -1170,0 -1755,0 0,-245.33 0,-490.67 0,-736 z"
           id="path164" />
      </g>
    </g>
    <g
       id="g134"
       style="stroke-width:3.125"
       transform="matrix(0.3,0,0,0.3,0.15000398,0.15)">
      <path
         style="opacity:1;stroke-width:10.4167"
         fill="#e10000"
         d="m -0.5,-0.5 c 215,0 430,0 645,0 0,244.667 0,489.333 0,734 0,43.333 0,86.667 0,130 0,245.33 0,490.67 0,736 -215,0 -430,0 -645,0 0,-533.33 0,-1066.667 0,-1600 z"
         id="path132" />
    </g>
    <g
       id="g3808"
       style="stroke-width:3.125"
       transform="matrix(0.3,0,0,0.3,0.15000398,0.15)">
      <g
         id="g142"
         style="stroke-width:3.125">
        <path
           style="opacity:1;stroke-width:10.4167"
           fill="#fec80d"
           d="m 310.5,591.5 c 75.253,-1.459 135.419,27.541 180.5,87 40.388,60.52 48.388,125.186 24,194 C 489.014,935.911 443.181,977.411 377.5,997 296.945,1016.08 227.778,996.243 170,937.5 123.863,883.965 107.53,822.298 121,752.5 142.042,673.125 191.876,621.625 270.5,598 c 13.298,-3.303 26.631,-5.47 40,-6.5 z"
           id="path140" />
      </g>
      <g
         id="g146"
         style="stroke-width:3.125">
        <path
           style="opacity:1;stroke-width:10.4167"
           fill="#e10e00"
           d="m 322.5,618.5 c 8.919,10.314 17.252,21.147 25,32.5 67.27,14.936 108.103,56.103 122.5,123.5 7.058,65.036 -16.442,115.536 -70.5,151.5 -14.715,8.526 -30.382,14.526 -47,18 -9.47,13.104 -19.303,25.937 -29.5,38.5 C 313.116,970.284 303.616,957.784 294.5,945 230.996,929.496 191.496,889.996 176,826.5 166.419,759.517 189.585,707.35 245.5,670 c 16.561,-9.631 34.228,-16.298 53,-20 8.13,-10.44 16.13,-20.94 24,-31.5 z"
           id="path144" />
      </g>
      <g
         id="g150"
         style="stroke-width:3.125">
        <path
           style="opacity:1;stroke-width:10.4167"
           fill="#fec80d"
           d="m 289.5,662.5 c 1.967,-0.239 3.801,0.094 5.5,1 8.949,12.617 18.283,24.95 28,37 10.027,-12.762 20.027,-25.429 30,-38 45.191,11.093 77.524,37.76 97,80 18.163,46.355 14.163,90.688 -12,133 -22.033,31.183 -51.699,50.85 -89,59 -8.667,-11.333 -17.333,-22.667 -26,-34 -8.576,10.821 -16.91,21.821 -25,33 -0.725,0.559 -1.558,0.892 -2.5,1 -46.456,-10.959 -79.956,-37.959 -100.5,-81 -23.248,-62.836 -10.415,-117.002 38.5,-162.5 16.648,-13.491 35.315,-22.991 56,-28.5 z"
           id="path148" />
      </g>
      <g
         id="g154"
         style="stroke-width:3.125">
        <path
           style="opacity:1;stroke-width:10.4167"
           fill="#e10b00"
           d="m 312.5,710.5 c 43.143,-1.641 73.643,17.026 91.5,56 13.518,44.45 1.351,79.95 -36.5,106.5 -43.001,21.584 -80.834,14.75 -113.5,-20.5 -20.321,-28.238 -23.988,-58.571 -11,-91 14.596,-28.774 37.763,-45.774 69.5,-51 z"
           id="path152" />
      </g>
      <g
         id="g158"
         style="stroke-width:3.125">
        <path
           style="opacity:1;stroke-width:10.4167"
           fill="#fec80d"
           d="m 314.5,725.5 c 33.356,-1.083 57.856,12.917 73.5,42 12.547,32.636 6.38,61.136 -18.5,85.5 -36.537,25.719 -70.704,22.886 -102.5,-8.5 -21.964,-31.015 -21.964,-62.015 0,-93 12.951,-14.056 28.784,-22.723 47.5,-26 z"
           id="path156" />
      </g>
    </g>
  </g>
</svg>
