<?xml version="1.0" encoding="UTF-8" standalone="no"?>
<!-- Created with Inkscape (http://www.inkscape.org/) -->

<svg
   width="512"
   height="512"
   viewBox="0 0 135.46666 135.46667"
   version="1.1"
   id="svg1"
   xml:space="preserve"
   sodipodi:docname="haz.svg"
   inkscape:version="1.2.2 (b0a84865, 2022-12-01)"
   xmlns:inkscape="http://www.inkscape.org/namespaces/inkscape"
   xmlns:sodipodi="http://sodipodi.sourceforge.net/DTD/sodipodi-0.dtd"
   xmlns="http://www.w3.org/2000/svg"
   xmlns:svg="http://www.w3.org/2000/svg"><sodipodi:namedview
     id="namedview595"
     pagecolor="#ffffff"
     bordercolor="#666666"
     borderopacity="1.0"
     inkscape:showpageshadow="2"
     inkscape:pageopacity="0.0"
     inkscape:pagecheckerboard="0"
     inkscape:deskcolor="#d1d1d1"
     showgrid="false"
     inkscape:zoom="1.1699219"
     inkscape:cx="256"
     inkscape:cy="256"
     inkscape:window-width="1440"
     inkscape:window-height="819"
     inkscape:window-x="0"
     inkscape:window-y="25"
     inkscape:window-maximized="0"
     inkscape:current-layer="svg1" /><defs
     id="defs1" /><g
     id="g823"
     transform="scale(1.0666667)"
     style="stroke-width:0.9375"><g
       id="g749"
       transform="scale(0.67499993,1)"
       style="stroke-width:1.14109"><rect
         style="fill:#ffffff;fill-opacity:1;fill-rule:evenodd;stroke-width:1.02443"
         id="rect19-5-3"
         width="188.14816"
         height="126.99999"
         x="-4.8850409e-13"
         y="-2.526374e-14" /><rect
         style="fill:#3f6eb4;fill-opacity:1;fill-rule:evenodd;stroke-width:0.591454"
         id="rect19"
         width="188.14816"
         height="42.333332"
         x="-4.8850409e-13"
         y="-2.526374e-14" /><rect
         style="fill:#fef200;fill-opacity:1;fill-rule:evenodd;stroke-width:0.591454"
         id="rect19-5"
         width="188.14816"
         height="42.333332"
         x="-4.8850409e-13"
         y="84.666664" /></g><g
       id="g19"
       transform="matrix(1.7777777,0,0,1.7777777,-30.574044,0.35499755)"
       style="stroke-width:0.527344"><path
         id="path1"
         style="display:inline;fill:#fece00;fill-opacity:1;stroke:none;stroke-width:0.202928"
         d="m 50.251804,32.361022 v 3.940638 h 2.664849 2.664851 v -3.940638 h -0.5949 v 1.05792 H 53.90264 v 0.948366 h -0.985987 -0.985986 v -0.948366 h -1.083965 v -1.05792 z" /><path
         id="path2"
         style="display:inline;fill:#fece00;fill-opacity:1;stroke:none;stroke-width:0.202928"
         d="m 50.251804,36.67373 v 1.936833 l 2.664849,-0.912813 2.664851,0.912813 V 36.67373 h -2.664851 z" /><path
         style="display:inline;fill:#fece00;fill-opacity:1;stroke:none;stroke-width:0.202928"
         d="m 55.581416,40.874395 -9.1e-5,1.498834 -1.125188,-1.94157 0.166024,-0.392002 z"
         id="path3" /><path
         id="path4"
         style="display:inline;fill:#fece00;fill-opacity:1;stroke:none;stroke-width:0.202928"
         d="m 52.916653,41.390341 -2.664849,1.499443 2.664849,0.0186 2.664851,-0.0186 z" /><path
         id="path5"
         style="display:inline;fill:#fece00;fill-opacity:1;stroke:none;stroke-width:0.202928"
         d="m 50.251804,43.295755 v 0.410104 h 1.074456 v 1.545331 h 1.051718 v 1.029395 h 0.538675 0.538676 V 45.25119 h 1.051719 v -1.545331 h 1.074456 v -0.410104 h -2.664851 z" /><path
         id="path6"
         style="display:inline;fill:#fece00;fill-opacity:1;stroke:none;stroke-width:0.202928"
         d="m 57.592337,28.648587 -2.010833,2.932741 h 0.931416 v 12.005882 1.493242 l 1.932698,-1.493242 v 1.493242 l 1.932285,-1.493242 v 1.493242 l 1.795446,-1.493242 v 1.493242 l 1.810742,-1.493242 v 1.341106 l 1.104635,-1.341106 1.958331,-2.463933 h -2.038946 l 1.882263,-1.853737 h -1.458103 l -0.961181,1.014926 -0.70528,-1.100502 3.124564,-2.829801 h -1.500271 l -2.169996,1.978587 -0.635,-0.991361 4.350742,-3.935263 h -1.467197 l -3.394935,3.136553 -0.664766,-1.037663 5.448763,-4.590521 h -1.526315 l -4.467737,3.73848 -0.460541,-0.718509 4.732734,-4.234573 h -1.714416 l -3.631407,3.277939 -0.214973,-0.335691 v -1.742942 z m 0.47501,1.429577 v 1.04221 h -1.047171 z m 0,2.508994 5.875404,9.108281 v 0.788376 h -5.875404 z" /><circle
         style="fill:#fece00;fill-opacity:1;stroke:none;stroke-width:0.219682"
         id="path17"
         cx="52.916656"
         cy="39.978195"
         r="1.2581215" /><path
         id="path18"
         style="opacity:1;fill:#fece00;fill-opacity:1;stroke:none;stroke-width:0.202928"
         d="m 51.496999,26.822135 c -2.114237,1.826349 -0.655366,4.347022 1.419654,4.347022 2.075021,0 3.533891,-2.520673 1.419656,-4.347022 1.169346,2.025367 -0.08727,3.231638 -1.419656,3.231638 -1.332381,0 -2.589,-1.206271 -1.419654,-3.231638 z" /><path
         style="display:inline;fill:#fece00;fill-opacity:1;stroke:none;stroke-width:0.202928"
         d="m 50.251886,40.874395 9.1e-5,1.498834 1.125188,-1.94157 -0.166024,-0.392002 z"
         id="path3-9" /><path
         id="path6-1"
         style="display:inline;fill:#fece00;fill-opacity:1;stroke:none;stroke-width:0.202928"
         d="m 48.240965,28.648587 2.010833,2.932741 H 49.320382 V 43.58721 45.080452 L 47.387684,43.58721 v 1.493242 L 45.455398,43.58721 v 1.493242 L 43.659953,43.58721 v 1.493242 L 41.849211,43.58721 v 1.341106 l -1.104636,-1.341106 -1.95833,-2.463933 h 2.038946 L 38.942928,39.26954 h 1.458103 l 0.961181,1.014926 0.70528,-1.100502 -3.124564,-2.829801 h 1.500271 l 2.169996,1.978587 0.635,-0.991361 -4.350742,-3.935263 h 1.467197 l 3.394935,3.136553 0.664765,-1.037663 -5.448762,-4.590521 h 1.526315 l 4.467737,3.73848 0.460541,-0.718509 -4.732734,-4.234573 h 1.714416 l 3.631407,3.277939 0.214973,-0.335691 v -1.742942 z m -0.47501,1.429577 v 1.04221 h 1.047171 z m 0,2.508994 -5.875404,9.108281 v 0.788376 h 5.875404 z" /><path
         style="opacity:1;fill:#fece00;fill-opacity:1;stroke:none;stroke-width:0.253658"
         id="path19"
         d="m 66.145829,31.567776 -0.739787,0.03336 -0.231184,0.703527 -0.260338,-0.693268 -0.740534,-0.0025 0.578889,-0.461828 -0.226492,-0.705053 0.618111,0.407844 0.600555,-0.43328 -0.196875,0.713889 z"
         transform="matrix(1.0008491,0,0,1.0008491,-12.298582,-5.6849002)" /></g></g></svg>
