<?xml version="1.0" encoding="UTF-8" standalone="no"?>
<!-- Creator: CorelDRAW X8 -->

<svg
   xml:space="preserve"
   width="511.99994"
   height="511.99994"
   version="1.1"
   style="clip-rule:evenodd;fill-rule:evenodd;image-rendering:optimizeQuality;shape-rendering:geometricPrecision;text-rendering:geometricPrecision"
   viewBox="0 0 13546.965 13546.665"
   id="svg14180"
   sodipodi:docname="krch.svg"
   inkscape:version="1.2.2 (b0a84865, 2022-12-01)"
   xmlns:inkscape="http://www.inkscape.org/namespaces/inkscape"
   xmlns:sodipodi="http://sodipodi.sourceforge.net/DTD/sodipodi-0.dtd"
   xmlns="http://www.w3.org/2000/svg"
   xmlns:svg="http://www.w3.org/2000/svg"><sodipodi:namedview
   id="namedview14182"
   pagecolor="#ffffff"
   bordercolor="#666666"
   borderopacity="1.0"
   inkscape:showpageshadow="2"
   inkscape:pageopacity="0.0"
   inkscape:pagecheckerboard="0"
   inkscape:deskcolor="#d1d1d1"
   inkscape:document-units="px"
   showgrid="false"
   inkscape:zoom="1.169922"
   inkscape:cx="255.99997"
   inkscape:cy="255.99997"
   inkscape:window-width="1440"
   inkscape:window-height="819"
   inkscape:window-x="0"
   inkscape:window-y="25"
   inkscape:window-maximized="0"
   inkscape:current-layer="Слой_x0020_1" />
 <defs
   id="defs14165">
  <style
   type="text/css"
   id="style14163">
   <![CDATA[
    .str0 {stroke:#04864A;stroke-width:16.93}
    .fil0 {fill:#04864A}
    .fil1 {fill:white}
   ]]>
  </style>
 </defs>
 <g
   id="Слой_x0020_1"
   inkscape:label="Слой 1"
   inkscape:groupmode="layer"
   transform="translate(38.993516,47.858931)">
  <metadata
   id="CorelCorpID_0Corel-Layer" />
  
  <rect
   class="fil0 str0"
   x="-24.999994"
   y="-34.006237"
   width="13518.979"
   height="13518.979"
   id="rect14168" /><g
   id="_1372371809616"
   style="stroke-width:0.567532"
   transform="matrix(1.7616847,0,0,1.7623492,-5131.9213,25.920281)">
   <path
   class="fil1"
   d="m 5472,5187 c 337,-227 883,-294 1280,-294 243,1 456,29 691,78 124,27 469,147 549,240 -37,65 -164,161 -229,201 -546,339 -1560,353 -2075,-7 -64,-45 -187,-148 -216,-218 z M 8186,2452 c 96,84 133,119 208,230 358,528 374,1537 6,2087 -45,68 -144,188 -214,228 -97,-98 -196,-421 -230,-559 -108,-427 -95,-994 5,-1422 24,-103 59,-200 92,-301 18,-54 97,-225 133,-263 z m -2954,0 c 35,26 127,199 146,246 123,294 186,572 201,890 9,183 6,407 -24,587 -19,112 -38,202 -65,311 -37,148 -138,397 -233,515 -172,-145 -272,-301 -347,-517 -58,-165 -118,-458 -116,-640 0,-36 -4,-70 -4,-108 0,-239 41,-519 116,-743 65,-193 156,-366 296,-514 10,-10 19,-15 30,-27 z m 355,165 c 28,2 92,32 122,43 102,40 289,84 395,105 172,34 435,54 615,54 141,0 327,-9 468,-28 154,-20 400,-72 542,-128 29,-11 96,-42 122,-46 -3,22 -35,91 -46,119 -158,425 -180,869 -147,1318 l 15,150 c 9,47 14,94 24,142 22,112 65,278 108,387 13,35 38,90 46,123 l -244,-82 c -134,-43 -420,-98 -557,-100 l -154,-11 c -73,-9 -409,3 -479,11 -97,10 -197,17 -294,37 -92,18 -173,36 -264,62 l -247,83 82,-249 c 86,-303 116,-572 116,-887 0,-358 -63,-779 -223,-1103 z m -140,-356 c 27,-55 169,-170 225,-204 301,-186 686,-263 1035,-262 145,0 258,12 400,29 118,14 238,51 351,83 167,48 431,191 538,330 -25,38 -195,136 -242,158 -309,146 -681,197 -1018,197 -243,0 -490,-19 -725,-85 -104,-29 -206,-57 -305,-100 -60,-26 -216,-102 -259,-146 z m 1223,-694 c -324,12 -606,47 -901,190 -478,232 -859,636 -1068,1123 -137,320 -159,594 -155,939 4,305 55,620 200,891 127,240 275,436 476,618 451,408 977,620 1588,602 568,-17 1116,-270 1511,-674 417,-426 622,-992 604,-1585 C 8908,3121 8653,2536 8257,2153 7834,1743 7255,1547 6670,1567 Z"
   id="path14170"
   style="stroke-width:0.567532" />
   <path
   class="fil1"
   d="m 6095,3794 c -13,-168 52,-333 159,-461 92,-109 273,-200 416,-204 182,-5 324,35 461,158 110,99 199,267 204,416 11,358 -230,633 -577,663 -334,29 -636,-242 -663,-572 z m 558,-863 c -465,39 -792,444 -754,886 38,448 438,789 887,750 319,-27 586,-230 701,-530 120,-313 32,-683 -222,-904 -173,-149 -384,-221 -612,-202 z"
   id="path14172"
   style="stroke-width:0.567532" />
   <path
   class="fil1"
   d="m 6182,3807 h 843 c -5,-20 -76,-65 -96,-82 -60,-49 -160,-111 -205,-151 -21,-19 -81,-63 -105,-77 -28,11 -178,124 -219,151 -35,23 -204,137 -218,159 z"
   id="path14174"
   style="stroke-width:0.567532" />
   <path
   class="fil1"
   d="m 6743,3555 c 9,15 185,140 215,162 124,94 96,90 195,90 27,0 70,3 94,-2 -2,-15 -84,-68 -102,-81 l -327,-232 c -18,9 -65,46 -75,63 z"
   id="path14176"
   style="stroke-width:0.567532" />
  </g>
 </g>
</svg>
