<?xml version="1.0" encoding="UTF-8" standalone="no"?>
<svg
   width="512.00006"
   height="512.00006"
   viewBox="0 0 135.46668 135.46668"
   version="1.1"
   id="svg958"
   inkscape:version="1.2.2 (b0a84865, 2022-12-01)"
   sodipodi:docname="nog.svg"
   xmlns:inkscape="http://www.inkscape.org/namespaces/inkscape"
   xmlns:sodipodi="http://sodipodi.sourceforge.net/DTD/sodipodi-0.dtd"
   xmlns="http://www.w3.org/2000/svg"
   xmlns:svg="http://www.w3.org/2000/svg"
   xmlns:rdf="http://www.w3.org/1999/02/22-rdf-syntax-ns#"
   xmlns:cc="http://creativecommons.org/ns#"
   xmlns:dc="http://purl.org/dc/elements/1.1/">
  <defs
     id="defs952" />
  <sodipodi:namedview
     id="base"
     pagecolor="#ffffff"
     bordercolor="#666666"
     borderopacity="1.0"
     inkscape:pageopacity="0.0"
     inkscape:pageshadow="2"
     inkscape:zoom="1.1699217"
     inkscape:cx="256.00003"
     inkscape:cy="256.00003"
     inkscape:document-units="px"
     inkscape:current-layer="layer1"
     inkscape:document-rotation="0"
     showgrid="false"
     fit-margin-top="0"
     fit-margin-left="0"
     fit-margin-right="0"
     fit-margin-bottom="0"
     inkscape:window-width="1440"
     inkscape:window-height="819"
     inkscape:window-x="0"
     inkscape:window-y="25"
     inkscape:window-maximized="0"
     inkscape:showpageshadow="2"
     inkscape:pagecheckerboard="0"
     inkscape:deskcolor="#d1d1d1" />
  <metadata
     id="metadata955">
    <rdf:RDF>
      <cc:Work
         rdf:about="">
        <dc:format>image/svg+xml</dc:format>
        <dc:type
           rdf:resource="http://purl.org/dc/dcmitype/StillImage" />
      </cc:Work>
    </rdf:RDF>
  </metadata>
  <g
     inkscape:label="Layer 1"
     inkscape:groupmode="layer"
     id="layer1"
     transform="translate(-103.8802,-43.459591)">
    <rect
       y="43.459591"
       x="103.8802"
       height="135.46667"
       width="135.46667"
       id="rect1051-2"
       style="fill:#32ccfe;fill-opacity:1;stroke:none;stroke-width:1;stroke-linecap:round;stroke-linejoin:round;stroke-miterlimit:4;stroke-dasharray:none;stroke-opacity:1;paint-order:normal;stop-color:#000000" />
    <g
       transform="matrix(1.0406504,0,0,1.0406504,-299.03655,195.14794)"
       id="g1177"
       style="stroke-width:0.960938">
      <g
         id="g1085"
         transform="matrix(0.26458333,0,0,0.26458333,164.79762,-30.994048)"
         style="opacity:1;stroke-width:0.960938">
        <path
           style="color:#000000;font-style:normal;font-variant:normal;font-weight:normal;font-stretch:normal;font-size:medium;line-height:normal;font-family:sans-serif;font-variant-ligatures:normal;font-variant-position:normal;font-variant-caps:normal;font-variant-numeric:normal;font-variant-alternates:normal;font-variant-east-asian:normal;font-feature-settings:normal;font-variation-settings:normal;text-indent:0;text-align:start;text-decoration:none;text-decoration-line:none;text-decoration-style:solid;text-decoration-color:#000000;letter-spacing:normal;word-spacing:normal;text-transform:none;writing-mode:lr-tb;direction:ltr;text-orientation:mixed;dominant-baseline:auto;baseline-shift:baseline;text-anchor:start;white-space:normal;shape-padding:0;shape-margin:0;inline-size:0;clip-rule:nonzero;display:inline;overflow:visible;visibility:visible;isolation:auto;mix-blend-mode:normal;color-interpolation:sRGB;color-interpolation-filters:linearRGB;solid-color:#000000;solid-opacity:1;vector-effect:none;fill:#029901;fill-opacity:1;fill-rule:nonzero;stroke:none;stroke-width:3.63189;stroke-linecap:round;stroke-linejoin:round;stroke-miterlimit:4;stroke-dasharray:none;stroke-dashoffset:0;stroke-opacity:1;color-rendering:auto;image-rendering:auto;shape-rendering:auto;text-rendering:auto;enable-background:accumulate;stop-color:#000000;stop-opacity:1"
           d="m 1061.2221,-363.60332 c -5.4018,2.75026 -9.9886,9.69365 -7.1806,15.79349 0.8027,2.85745 3.4008,4.80018 4.5467,7.34926 -3.4866,1.89725 -7.8124,2.03833 -11.3693,4.01661 -6.9493,2.48733 -12.8715,9.66744 -11.2447,17.34358 1.4715,7.44707 7.7894,14.28736 15.461,15.30322 6.8069,0.21371 11.4003,-6.61156 12.6151,-12.61803 0.5425,-4.38906 -2.8013,-9.7047 -7.444,-9.87957 -3.1838,0.6025 -3.521,4.46164 -3.6341,6.98031 -2.1744,0.69783 -1.2352,-2.39069 -1.0822,-3.53356 0.4594,-2.94353 2.9819,-5.77799 6.2039,-4.88997 6.9185,1.6544 9.3825,11.02439 5.7108,16.61721 -2.2307,4.45556 -6.2901,9.36711 -11.867,8.48079 -8.0137,0.0464 -14.2565,-6.68263 -16.8109,-13.79001 -1.2035,-5.00435 -1.0518,-10.66596 2.4021,-14.75868 3.6474,-4.88023 9.7177,-6.88988 15.0378,-9.24625 0.8054,-1.72421 -2.2858,-1.57768 -3.3175,-1.89009 -19.4604,-2.486 -39.1457,-0.59948 -58.53854,1.19955 -19.88989,-0.026 -39.70387,-2.39219 -59.4816,-4.35806 -6.46731,-0.54369 -12.98068,-1.77475 -19.42769,-1.92876 -1.51739,1.61623 0.65488,4.03745 1.30708,5.64857 5.7684,8.90702 17.09511,11.40247 26.91676,12.80237 17.40391,2.46704 34.90212,-0.5319 52.33459,-0.23272 4.82006,0.35007 11.2103,0.0261 14.1177,4.73513 0.9209,2.70593 -3.0268,3.19377 -4.8223,3.60313 -15.09214,1.93483 -30.55423,0.71248 -45.77946,0.36762 -10.43839,-0.29383 -20.91423,-1.12423 -31.27977,-1.62293 -1.93889,0.92855 0.78642,2.83274 1.4521,3.75354 7.13183,7.53899 17.53532,10.8289 27.42423,12.91167 19.20968,3.70921 38.86011,1.35027 58.2178,1.78783 1.6181,-0.0746 4.8516,0.54125 3.1616,2.90123 -3.135,4.20693 -9.1965,3.87787 -13.9119,4.35182 -21.12604,0.78364 -42.13019,-3.86838 -63.28188,-3.17594 -1.66274,-0.29434 -2.3822,1.58772 -1.03876,2.54708 6.73859,6.83075 15.63988,11.41623 24.84438,13.81524 20.35828,0.51161 40.83916,-0.0736 61.10866,1.57147 1.8747,0.52674 5.6201,0.13315 5.9787,2.69049 -1.3379,3.12721 -5.7308,2.70508 -8.4182,3.17987 -20.78142,1.06035 -41.62476,-1.48453 -62.42266,-0.61503 -1.43715,0.49778 -4.3657,-0.33038 -4.79231,1.55567 2.21946,5.22757 7.77382,8.06293 12.39706,10.87394 3.92251,2.35019 8.46075,3.42982 13.00918,2.71163 18.81797,-0.82238 37.87553,-1.9394 56.55323,0.73216 1.9421,0.13115 5.317,1.60806 3.5484,3.94197 -3.2114,2.87983 -8.1565,1.99348 -12.1219,2.32473 -17.5899,-0.21414 -35.21607,-2.46088 -52.80904,-1.29485 -2.36119,0.55535 -2.85502,3.96428 -0.63036,5.12376 8.67264,6.99094 20.05444,9.29312 30.966,9.26952 12.3559,0.53733 24.8922,-0.46419 37.1295,0.74421 1.3683,0.20527 4.2679,1.14156 3.8128,2.91602 -5.1555,3.01415 -11.4722,2.35763 -17.2444,2.4728 -10.6054,0.093 -21.4163,-3.54135 -31.95224,-0.88555 -1.89999,0.63701 -5.41837,1.42318 -4.32965,4.21423 1.26044,5.4512 7.55023,7.31062 12.19879,8.88421 13.3613,3.01874 27.2139,1.88617 40.8026,2.25554 4.7707,0.32474 9.786,-0.49662 14.3789,0.70586 1.4115,2.15678 -2.0473,3.55364 -3.719,3.99819 -12.4349,1.26655 -25.0593,1.19256 -37.5815,1.57856 -2.4178,0.36589 -5.4527,-0.61056 -7.5577,0.83338 0.4665,2.65913 3.4222,4.32904 5.2096,6.19705 6.7017,4.9165 15.4979,5.82438 23.5758,5.99309 9.8266,-0.0675 19.8349,-3.47136 29.5194,-0.72728 1.7893,0.82812 1.4938,3.80856 -0.7143,3.87883 -8.8337,2.44962 -18.331,1.43327 -27.4782,1.79296 -4.2502,0.17246 -8.6088,-0.17435 -12.8006,0.44338 -0.3778,1.88594 2.3753,2.91374 3.4152,4.20339 2.438,2.26621 5.7221,4.1008 9.117,2.86176 9.5802,-1.8305 19.6872,-3.71457 29.2451,-0.96872 0.7842,0.24615 3.7295,1.5074 1.5054,1.93646 -6.8633,1.21717 -14.5243,-0.53136 -20.8492,2.9979 -3.2164,2.61049 0,6.63447 1.8348,9.01048 3.2544,4.3095 8.7034,6.50053 14.0366,5.70184 6.8195,-0.80763 11.895,-5.98909 17.6116,-9.20876 1.3129,1.39887 -1.9142,2.68892 -2.6349,3.62826 -6.8456,5.39462 -16.4838,9.77541 -24.8592,5.30232 -4.0884,-2.53505 -8.1509,-6.52307 -8.8527,-11.47865 -0.1237,-4.01907 4.591,-5.32693 7.2348,-7.00202 -1.31,-1.35031 -4.187,0.10869 -6.1033,0.0533 -4.5764,0.96446 -10.0933,0.8475 -13.1803,4.97677 -7.4484,6.73376 -17.8295,8.69581 -27.0835,11.94897 -13.85352,4.55201 -28.50876,8.08032 -40.63219,16.53101 -13.81588,10.59978 -19.58763,28.54096 -20.52173,45.35389 -0.70972,10.120368 1.27146,20.125086 3.57992,29.916889 0.41727,0.916122 -0.16435,1.773151 -0.94011,0.807925 -4.97736,-5.876381 -8.15967,-13.239494 -10.20905,-20.585808 -5.10029,-21.932656 3.24738,-45.184276 17.36298,-62.177656 6.77272,-8.16002 15.28131,-14.88853 25.16996,-18.82099 5.10286,-2.23356 10.47124,-3.82685 15.95726,-4.7854 1.07849,-4.58234 -2.35251,-9.86842 -7.10264,-10.96075 -10.05018,-2.51685 -20.28097,0.82732 -29.83698,3.79498 -5.60858,1.56647 -12.87214,1.2403 -16.1003,-4.43323 -2.30109,-3.97927 -3.40795,-9.79778 -0.40346,-13.66369 4.03324,-4.0601 11.55065,-3.71513 15.42751,0.3354 1.92784,2.80959 1.26532,7.24659 -1.17588,9.39521 -1.93952,-1.42369 1.31209,-3.40985 1.03679,-5.24412 -0.4197,-5.59563 -7.64373,-7.12623 -11.97879,-5.11291 -4.95713,2.57227 -4.10937,9.67509 -1.45308,13.67455 1.84682,2.94555 5.17127,4.68182 8.66717,4.11176 4.86678,0.26905 10.40481,-0.74481 13.15962,-5.23338 5.5338,-7.10583 9.1779,-17.73717 3.90288,-25.97835 -6.28399,-10.56076 -20.08595,-14.48552 -31.67419,-12.2654 -14.33701,2.3785 -24.96255,15.64828 -26.49578,29.74229 -0.58723,4.71144 -0.73581,9.59731 -0.32061,14.26347 5.17592,-1.5416 10.25907,-6.28629 16.06478,-5.09023 3.67253,1.5469 3.04947,6.40856 2.56879,9.60632 -3.74468,16.73054 -12.87974,31.5587 -21.86724,45.91854 -5.12972,8.41067 -8.42463,18.15839 -7.76627,28.10765 0.12022,4.99062 -0.78904,10.15695 1.63016,14.771423 3.65326,11.892244 10.38553,24.415807 22.58,29.206572 8.1475,3.355868 17.16226,1.43632 25.11738,-1.476576 2.08892,0.622285 3.34919,3.20725 5.1263,4.567723 5.95343,5.970709 14.08781,8.674004 21.71574,11.724932 1.78505,0.858857 -1.32438,1.188172 -1.92462,1.394879 -4.25277,1.060711 -9.91387,3.90424 -9.53627,9.028239 1.11947,5.009114 6.30144,8.397221 11.35626,7.747971 10.80078,0.6716 21.38857,-1.967419 31.51739,-5.45888 3.7364,-2.239927 7.5015,0.425951 11.3488,0.900021 15.3165,3.017376 30.9065,4.740409 46.4604,5.745409 2.2234,-0.549634 0.2583,-4.538716 2.987,-4.196471 6.7861,-0.388192 13.9818,-0.432063 19.8443,-4.40122 3.1469,-1.118875 -1.0517,-3.397042 -2.1388,-4.805978 -9.5627,-7.901039 -21.43,-14.880663 -34.2773,-14.005598 -15.9419,1.935023 -31.9392,6.357617 -48.0553,4.049489 -1.3881,-0.47814 0.9429,-1.36867 1.3574,-1.598091 12.9422,-4.050535 23.6034,-14.138782 29.1889,-26.383332 0.9491,-4.675268 1.8745,-9.619177 1.1098,-14.370992 -3.1204,-9.03632 -7.9168,-18.45675 -16.4365,-23.46388 -7.8275,-4.54713 -17.1213,-0.7596 -24.58912,2.6571 -7.16105,3.37041 -14.61129,9.87731 -13.90834,18.54182 0.5925,8.579435 9.53534,16.882561 18.30406,13.920183 4.4873,-1.723876 8.0763,-6.570952 7.8248,-11.427353 -0.3439,-3.28476 -3.9234,-5.05168 -6.8531,-3.81471 -1.3989,-0.004 -3.75792,2.46454 -4.56048,0.584 3.33258,-3.01903 10.43108,-3.72951 12.36948,1.36331 1.992,4.46909 -1.3838,9.460269 -4.5428,12.487812 -5.54612,5.065234 -14.4054,3.182284 -19.00593,-2.263469 -4.08201,-3.413957 -5.22351,-8.903273 -4.75433,-13.934483 0.039,-6.30814 5.38857,-11.04864 10.1114,-14.4006 7.10574,-4.25565 15.55606,-7.98635 24.12426,-7.11249 10.0616,1.45734 16.3576,10.5351 20.3856,19.07353 1.3583,2.53309 2.1258,5.42548 3.5079,7.87801 21.3701,-11.4665 42.4329,-23.75265 63.8852,-35.16495 4.8675,-2.76678 10.4854,-3.87765 15.7028,-5.67619 0.4998,-1.62776 -2.3616,-1.75818 -3.1173,-2.89729 -3.0871,-2.12823 -6.0946,-5.54714 -4.889,-9.57672 1.2357,-5.89211 7.3413,-8.6005 12.0863,-11.27937 3.9386,-0.89579 -0.5134,-2.83435 -2.0074,-3.89363 -8.0171,-5.21725 -11.4909,-15.54567 -9.3874,-24.71717 1.5374,-8.21466 7.9993,-15.39425 6.5868,-24.17461 -0.6809,-5.97889 -6.2614,-9.64211 -11.6405,-11.04459 -1.4583,-0.29085 -0.7722,-1.95354 0.5702,-1.2262 6.1995,1.24378 12.8945,6.33737 12.4267,13.22866 0.071,3.02545 -0.024,6.09733 -0.5949,9.01739 8.2192,0.39224 17.6738,-1.45073 24.8918,3.66081 5.0255,3.98906 3.6508,11.42418 1.6573,16.66555 -1.2559,3.39149 -4.8389,7.63781 -8.8694,5.74919 -2.4774,-1.25395 -5.5736,-3.00136 -6.4477,-5.70875 1.175,-1.58039 2.5826,1.59148 3.6461,1.99565 1.8826,2.21906 5.611,4.05421 7.9066,1.32089 2.8906,-3.80163 4.1886,-8.84915 4.1521,-13.58379 -0.8386,-5.71896 -7.1912,-8.13634 -12.3103,-8.316 -4.9697,-0.14519 -10.1847,-0.96474 -15.0329,0.37979 -2.9223,2.87115 -3.9707,7.23908 -5.181,11.06828 -2.3978,7.83965 -0.2554,16.88438 5.9356,22.38711 9.2745,8.47445 24.4536,9.49087 34.9677,2.77792 6.1447,-4.22163 9.9686,-11.49009 9.7831,-18.96934 0.8358,-18.22796 -2.5074,-38.08156 -15.2586,-51.95599 -10.677,-11.91393 -28.3971,-18.24309 -43.9292,-13.19355 -9.4081,2.98518 -15.8032,11.87746 -17.4972,21.36315 -0.829,5.63455 -2.5562,11.75145 0.2752,17.11735 2.0574,5.47264 5.8678,10.1853 10.8276,13.25924 0.4012,2.04532 -1.8563,0.37527 -2.6901,-0.0868 -7.4493,-4.6121 -10.0269,-13.71579 -12.6388,-21.55551 -4.4542,-14.99294 -3.2314,-30.90356 -2.3103,-46.28452 1.8571,-16.13601 3.8244,-33.04277 -0.9875,-48.88586 -2.1043,-7.17096 -7.1229,-12.95837 -12.8715,-17.52181 -5.9267,-6.53775 -6.4799,-16.06211 -4.8288,-24.33935 0.1183,-0.61683 -0.1178,-1.48158 -0.9105,-1.38402 z"
           id="path1087" />
        <path
           style="color:#000000;font-style:normal;font-variant:normal;font-weight:normal;font-stretch:normal;font-size:medium;line-height:normal;font-family:sans-serif;font-variant-ligatures:normal;font-variant-position:normal;font-variant-caps:normal;font-variant-numeric:normal;font-variant-alternates:normal;font-variant-east-asian:normal;font-feature-settings:normal;font-variation-settings:normal;text-indent:0;text-align:start;text-decoration:none;text-decoration-line:none;text-decoration-style:solid;text-decoration-color:#000000;letter-spacing:normal;word-spacing:normal;text-transform:none;writing-mode:lr-tb;direction:ltr;text-orientation:mixed;dominant-baseline:auto;baseline-shift:baseline;text-anchor:start;white-space:normal;shape-padding:0;shape-margin:0;inline-size:0;clip-rule:nonzero;display:inline;overflow:visible;visibility:visible;isolation:auto;mix-blend-mode:normal;color-interpolation:sRGB;color-interpolation-filters:linearRGB;solid-color:#000000;solid-opacity:1;vector-effect:none;fill:#f6a436;fill-opacity:1;fill-rule:nonzero;stroke:none;stroke-width:3.63189;stroke-linecap:round;stroke-linejoin:round;stroke-miterlimit:4;stroke-dasharray:none;stroke-dashoffset:0;stroke-opacity:1;color-rendering:auto;image-rendering:auto;shape-rendering:auto;text-rendering:auto;enable-background:accumulate;stop-color:#000000;stop-opacity:1"
           d="m 1061.1855,-365.49219 a 1.8899528,1.8899528 0 0 0 -0.1933,0.0137 1.8899528,1.8899528 0 0 0 -0.627,0.19141 c -3.0812,1.56875 -5.8195,4.22703 -7.4902,7.45508 -1.6492,3.18651 -2.1986,7.05762 -0.5957,10.66992 0.7634,2.56713 2.1796,4.24682 3.3359,5.73242 -0.3618,0.12317 -0.7255,0.26041 -1.1093,0.3711 -0.027,-0.57791 -0.1782,-1.14748 -0.5157,-1.55664 -0.6355,-0.77067 -1.3271,-0.96229 -1.8964,-1.11719 -1.1388,-0.3098 -2.3606,-0.41966 -2.2969,-0.40039 a 1.8899528,1.8899528 0 0 0 -0.3086,-0.0664 c -19.7016,-2.51681 -39.4894,-0.61408 -58.84377,1.18164 -19.7189,-0.0311 -39.44874,-2.37963 -59.22851,-4.3457 a 1.8899528,1.8899528 0 0 0 -0.0293,-0.004 c -6.33556,-0.53261 -12.88402,-1.77457 -19.54102,-1.93359 a 1.8899528,1.8899528 0 0 0 -1.42187,0.5957 c -0.69451,0.73975 -1.0399,1.76137 -1.03906,2.63281 8.3e-4,0.87144 0.24742,1.59875 0.52148,2.23438 0.54812,1.27127 1.27534,2.34886 1.45117,2.7832 a 1.8899528,1.8899528 0 0 0 0.16406,0.31836 c 6.29441,9.71923 18.30503,12.23096 28.23633,13.64649 a 1.8899528,1.8899528 0 0 0 0.002,0 c 17.77079,2.51904 35.33818,-0.50093 52.51562,-0.21289 2.49734,0.17894 5.18932,0.20042 7.46289,0.68945 2.15208,0.4629 3.75558,1.30309 4.87498,2.89844 -0.057,0.0493 -0.081,0.0918 -0.3281,0.20703 -0.6942,0.32381 -1.9447,0.5564 -2.961,0.78515 -14.79967,1.88468 -30.13166,0.69185 -45.39447,0.34571 h -0.0117 c -10.37002,-0.29231 -20.82929,-1.12068 -31.23047,-1.6211 a 1.8899528,1.8899528 0 0 0 -0.9082,0.18164 c -0.8672,0.41531 -1.73585,1.46204 -1.75782,2.51368 -0.022,1.05163 0.42993,1.68844 0.80274,2.19335 0.74562,1.00984 1.71358,1.89005 1.6914,1.85938 a 1.8899528,1.8899528 0 0 0 0.16016,0.19141 c 7.57372,8.0061 18.38618,11.35054 28.40625,13.46093 a 1.8899528,1.8899528 0 0 0 0.0312,0.008 c 19.59167,3.78297 39.35781,1.38687 58.53321,1.82031 a 1.8899528,1.8899528 0 0 0 0.1308,0 c 0.3324,-0.0153 0.7602,0.1047 1.1836,0.19726 -1.1885,1.35412 -2.7804,2.1231 -4.8457,2.53907 -2.2302,0.44918 -4.8251,0.49822 -7.2812,0.74023 -20.79137,0.76513 -41.78113,-3.87822 -63.23829,-3.17578 l 0.39258,0.0273 c -1.5582,-0.27583 -3.19693,0.61293 -3.73437,1.9668 -0.53745,1.35387 -0.01,3.06648 1.26757,3.97852 l -0.24804,-0.21094 c 7.02595,7.12205 16.22741,11.84416 25.71289,14.31641 a 1.8899528,1.8899528 0 0 0 0.42969,0.0605 c 20.42628,0.51332 40.87267,-0.0674 61.00387,1.56641 l -0.3594,-0.0645 c 1.3709,0.38517 2.7046,0.38378 3.6348,0.60351 0.2798,0.0661 0.374,0.13363 0.5313,0.20508 -0.4031,0.35005 -0.9229,0.61684 -1.7774,0.80078 -1.2739,0.27422 -2.8959,0.30368 -4.4453,0.55469 -20.55277,1.04482 -41.38,-1.49289 -62.37303,-0.61524 a 1.8899528,1.8899528 0 0 0 -0.53906,0.10157 c -0.0372,0.0129 -1.13,0.0487 -2.33399,0.16211 -0.60199,0.0567 -1.28822,0.15146 -2.02148,0.55273 -0.73326,0.40127 -1.44625,1.25466 -1.66211,2.20898 a 1.8899528,1.8899528 0 0 0 0.10351,1.15625 c 2.56664,6.04528 8.62512,8.99499 13.15625,11.75 a 1.8899528,1.8899528 0 0 0 0.01,0.006 c 4.25489,2.54934 9.24748,3.75093 14.27539,2.95703 l -0.21289,0.0215 c 18.83694,-0.82321 37.77681,-1.92075 56.20311,0.71484 a 1.8899528,1.8899528 0 0 0 0.1406,0.0156 c 0.5687,0.0384 1.7173,0.42589 2.1289,0.74804 0.064,0.0503 0.024,0.006 0.051,0.0352 -1.1491,0.92662 -2.61,1.35347 -4.4414,1.50781 -1.8876,0.15908 -4.0359,0.0409 -6.1621,0.20118 -17.4444,-0.21237 -35.1211,-2.47315 -52.95702,-1.29102 a 1.8899528,1.8899528 0 0 0 -0.30664,0.0449 c -3.98178,0.93651 -4.74481,6.72652 -1.07227,8.64063 l -0.3125,-0.20508 c 9.13638,7.36475 20.9567,9.70588 32.12883,9.68555 12.4694,0.53747 24.9266,-0.44101 36.8965,0.73242 0.2177,0.0341 0.5582,0.19279 0.8887,0.29492 -4.1228,1.46558 -9.0631,1.22934 -14.0801,1.32812 0,2e-5 0,-1e-5 -0.01,0 -10.1609,0.0877 -21.1655,-3.65815 -32.39258,-0.82812 a 1.8899528,1.8899528 0 0 0 -0.13867,0.041 c -0.83882,0.28123 -2.32743,0.62206 -3.69922,1.4961 -0.68589,0.43702 -1.40015,1.06061 -1.8125,2.01172 -0.40122,0.92542 -0.37138,2.07203 0.006,3.09765 0.81899,3.24885 3.13588,5.46512 5.65625,6.92969 2.56857,1.49259 5.42162,2.36825 7.71482,3.14453 a 1.8899528,1.8899528 0 0 0 0.1895,0.0527 c 13.7343,3.103 27.719,1.93716 41.168,2.30273 l -0.078,-0.004 c 4.2134,0.28681 8.2688,-0.13201 11.8594,0.30664 -0.5128,0.24809 -1.02,0.51816 -1.459,0.64258 -12.237,1.23221 -24.7498,1.17321 -37.2519,1.5586 a 1.8899528,1.8899528 0 0 0 -0.2246,0.0195 c -0.8474,0.12823 -2.1362,0.0118 -3.5879,-0.008 -1.4518,-0.0196 -3.1902,0.0783 -4.7559,1.15234 a 1.8899528,1.8899528 0 0 0 -0.793,1.88476 c 0.339,1.93231 1.5206,3.33175 2.6602,4.42969 1.1396,1.09795 2.3184,1.98675 3.0469,2.74805 a 1.8899528,1.8899528 0 0 0 0.2461,0.2168 c 7.2481,5.31736 16.4635,6.1883 24.6543,6.35937 a 1.8899528,1.8899528 0 0 0 0.053,0 c 10.1572,-0.0698 19.8404,-3.24315 28.7324,-0.83594 0.029,0.041 0.06,0.0757 0.047,0.16602 -0.019,0.1266 0.2109,0.0348 -0.047,0.043 a 1.8899528,1.8899528 0 0 0 -0.4453,0.0664 c -8.3679,2.32045 -17.7087,1.35937 -27.0469,1.72657 -4.0954,0.16617 -8.5204,-0.19726 -13,0.46289 a 1.8899528,1.8899528 0 0 0 -1.5781,1.49804 c -0.1878,0.93733 0.051,1.90687 0.4472,2.58985 0.3958,0.68297 0.8924,1.15082 1.3594,1.54687 0.934,0.79211 1.8278,1.42163 1.9902,1.62305 a 1.8899528,1.8899528 0 0 0 0.1856,0.19922 c 1.3427,1.24806 2.9449,2.41821 4.8164,3.12695 0.3858,0.14613 0.8297,0.15879 1.2402,0.25781 -0.7601,0.57269 -1.5562,1.07884 -2.1777,1.91016 l 0.2461,-0.27148 c -6.9359,6.27043 -16.9965,8.24739 -26.4434,11.56836 -13.74299,4.51333 -28.58984,8.05321 -41.08593,16.76367 a 1.8899528,1.8899528 0 0 0 -0.0703,0.0508 c -14.42369,11.0661 -20.2973,29.55925 -21.25586,46.7207 -1.4e-4,0.002 1.3e-4,0.004 0,0.006 -0.59319,8.47062 0.78462,16.714067 2.50586,24.79297 -2.83287,-4.590485 -4.89477,-9.767753 -6.35547,-14.99219 -4.91258,-21.19204 3.18221,-43.89022 16.98242,-60.5039 a 1.8899528,1.8899528 0 0 0 0,-0.002 c 6.602,-7.95433 14.86732,-14.47499 24.41406,-18.27148 a 1.8899528,1.8899528 0 0 0 0.0606,-0.0254 c 4.95927,-2.17071 10.18126,-3.72088 15.52344,-4.6543 a 1.8899528,1.8899528 0 0 0 1.51562,-1.42969 c 1.35696,-5.76582 -2.66286,-11.88334 -8.51367,-13.23242 -7.60506,-1.89647 -15.12403,-0.61785 -22.26563,1.31641 0.23214,-0.30273 0.54347,-0.48626 0.75196,-0.82227 2.88281,-3.73391 5.27692,-8.32956 6.2832,-13.21094 1.01473,-4.92237 0.57975,-10.19449 -2.3457,-14.78515 -6.80368,-11.40642 -21.36779,-15.47658 -33.6211,-13.13477 -15.28681,2.5521 -26.40724,16.49422 -28.0332,31.37891 -0.60082,4.82754 -0.75482,9.83505 -0.32617,14.65234 a 1.8899528,1.8899528 0 0 0 2.42187,1.64258 c 2.93409,-0.87389 5.54384,-2.50315 8.05274,-3.66992 2.43129,-1.13068 4.6384,-1.76928 6.87695,-1.37695 0.9994,0.48839 1.38219,1.22677 1.56445,2.58203 0.19102,1.42037 -0.0316,3.26376 -0.26562,4.83008 -3.66413,16.29389 -12.63443,30.92544 -21.60352,45.25585 a 1.8899528,1.8899528 0 0 0 -0.0117,0.0195 c -5.28038,8.6577 -8.73022,18.76994 -8.03906,29.21484 l -0.004,-0.0781 c 0.11393,4.72989 -0.93325,10.30284 1.8457,15.603511 l -0.13281,-0.322266 c 3.73328,12.15275 10.67177,25.28053 23.67578,30.400391 8.52432,3.507702 17.65218,1.637575 25.59179,-1.171875 0.42468,0.212849 0.89592,0.525644 1.50782,1.210937 0.72061,0.80706 1.51557,1.85859 2.65429,2.748047 5.33696,5.288854 12.06319,7.982375 18.54688,10.515625 -1.78522,0.612828 -3.6143,1.40375 -5.22266,2.660156 -2.21127,1.727386 -3.99351,4.388145 -3.75195,7.666016 a 1.8899528,1.8899528 0 0 0 0.0391,0.273437 c 1.35065,6.043532 7.40076,9.984856 13.44141,9.208985 l -0.35742,0.01172 c 11.18317,0.695378 22.01495,-2.030517 32.25003,-5.558593 a 1.8899528,1.8899528 0 0 0 0.3554,-0.164063 c 1.3446,-0.806035 2.5459,-0.746611 4.2286,-0.349609 1.6816,0.396756 3.6397,1.222937 5.914,1.503906 15.3793,3.022129 31.0066,4.749975 46.5742,5.755859 a 1.8899528,1.8899528 0 0 0 0.5742,-0.05273 c 1.1358,-0.28077 2.0209,-1.280541 2.3321,-2.091797 0.3112,-0.811255 0.3364,-1.476175 0.3945,-1.941406 0.014,-0.113861 -0.01,-0.03561 0.012,-0.117187 6.5657,-0.371543 13.9695,-0.422039 20.3106,-4.521485 0.5354,-0.193668 1.0306,-0.431036 1.4765,-0.847656 0.4572,-0.427113 0.8283,-1.112087 0.8829,-1.783203 0.109,-1.342232 -0.5766,-2.094527 -1.1036,-2.683594 -0.5269,-0.589067 -1.1029,-1.068922 -1.5957,-1.494141 -0.4927,-0.425218 -0.9098,-0.830661 -0.9726,-0.912109 a 1.8899528,1.8899528 0 0 0 -0.293,-0.300781 c -9.7332,-8.041951 -22.0036,-15.36227 -35.6094,-14.435547 a 1.8899528,1.8899528 0 0 0 -0.1,0.0098 c -14.1626,1.719059 -28.0829,5.262548 -41.8301,4.591796 11.637,-4.90695 21.0652,-14.458539 26.2676,-25.863281 A 1.8899528,1.8899528 0 0 0 1038.0859,-87.5 c 0.8133,-4.006336 1.5933,-8.355575 1.3067,-12.76953 a 1.8899528,1.8899528 0 0 0 0.8222,-0.22266 c 21.4099,-11.48781 42.4703,-23.77305 63.879,-35.16211 a 1.8899528,1.8899528 0 0 0 0.047,-0.0254 c 4.5134,-2.56547 9.9989,-3.67658 15.3848,-5.5332 a 1.8899528,1.8899528 0 0 0 1.1914,-1.23242 c 0.2755,-0.89739 0.012,-2.07858 -0.5098,-2.72266 -0.5218,-0.64408 -1.0734,-0.9166 -1.5312,-1.14844 -0.9156,-0.46366 -1.5198,-0.94335 -1.3086,-0.625 a 1.8899528,1.8899528 0 0 0 -0.502,-0.51171 c -1.3903,-0.95849 -2.7249,-2.2052 -3.5117,-3.5 -0.7867,-1.29481 -1.0777,-2.51775 -0.6406,-3.97852 a 1.8899528,1.8899528 0 0 0 0.039,-0.1543 c 0.5014,-2.39105 1.9592,-4.14273 4.0292,-5.73437 2.052,-1.57775 4.655,-2.88698 7.0743,-4.25 0.4017,-0.11326 0.8021,-0.21423 1.1601,-0.41407 0.4962,-0.2769 1.0548,-0.73271 1.3164,-1.48242 0.044,-0.12553 -0.051,-0.21323 -0.031,-0.33984 9.2705,3.88515 20.462,3.16746 28.9746,-2.26758 a 1.8899528,1.8899528 0 0 0 0.053,-0.0352 c 6.6678,-4.58098 10.7889,-12.39687 10.5996,-20.5371 0.8332,-18.49454 -2.5288,-38.83313 -15.7519,-53.22266 -11.1469,-12.42606 -29.5277,-19.03009 -45.8926,-13.7168 0,4.5e-4 0,0.002 0,0.002 -10.2016,3.23898 -16.9807,12.73669 -18.7832,22.83007 a 1.8899528,1.8899528 0 0 0 -0.01,0.0566 c -0.2956,2.00933 -0.6526,4.28373 -0.9472,6.53321 -3.6851,-14.00101 -2.7159,-28.9471 -1.834,-43.66992 1.8542,-16.10946 3.8887,-33.25688 -1.0625,-49.56641 -2.2303,-7.58964 -7.4509,-13.58956 -13.3008,-18.27734 -5.3303,-5.90449 -5.934,-14.7587 -4.3555,-22.67188 a 1.8899528,1.8899528 0 0 0 0,-0.0137 c 0.1337,-0.69725 0.1157,-1.38758 -0.2852,-2.17383 -0.2439,-0.47836 -0.8106,-0.87649 -1.4472,-1.14844 a 1.8899528,1.8899528 0 0 0 -1.0704,-0.30664 z m -1.1718,5.08985 c -1.2238,8.12862 -0.4227,17.20603 5.5468,23.79101 a 1.8899528,1.8899528 0 0 0 0.2266,0.21094 c 5.5587,4.41269 10.2794,9.91861 12.2324,16.57422 a 1.8899528,1.8899528 0 0 0 0.01,0.0176 c 4.6616,15.34833 2.7752,31.98343 0.918,48.12109 a 1.8899528,1.8899528 0 0 0 -0.01,0.10156 c -0.9198,15.35897 -2.2003,31.50224 2.3848,46.93555 a 1.8899528,1.8899528 0 0 0 0.019,0.0605 c 2.5911,7.77722 5.2078,17.46917 13.4375,22.56445 a 1.8899528,1.8899528 0 0 0 0.078,0.0469 c 0.2051,0.11365 1.0325,0.73518 2.0918,1.11133 0.5297,0.18808 1.4296,0.54566 2.5,-0.24219 0.5352,-0.39392 0.8307,-1.03464 0.9121,-1.52148 0.082,-0.48684 0.035,-0.88127 -0.043,-1.27734 a 1.8899528,1.8899528 0 0 0 -0.8594,-1.24414 c -4.5931,-2.84665 -8.142,-7.22868 -10.0547,-12.31641 a 1.8899528,1.8899528 0 0 0 -0.098,-0.21875 c -2.4003,-4.54899 -0.9383,-10.11704 -0.082,-15.91406 1.5885,-8.87202 7.5968,-17.15141 16.2051,-19.88282 a 1.8899528,1.8899528 0 0 0 0.012,-0.004 c 14.6886,-4.77533 31.7321,1.27045 41.9375,12.6582 a 1.8899528,1.8899528 0 0 0 0.018,0.0176 c 12.2548,13.33428 15.5841,32.65495 14.7617,50.58984 a 1.8899528,1.8899528 0 0 0 0,0.13477 c 0.1686,6.79567 -3.3435,13.48558 -8.9414,17.34375 -9.7453,6.20172 -24.0811,5.22901 -32.6445,-2.5957 a 1.8899528,1.8899528 0 0 0 -0.019,-0.0176 c -5.5813,-4.96081 -7.568,-13.2629 -5.3867,-20.41016 1.1816,-3.7391 2.2369,-7.51054 4.4082,-9.90039 4.2003,-1.00867 9.0019,-0.36752 13.9355,-0.22265 2.29,0.0804 4.9018,0.69075 6.8828,1.83007 1.9464,1.1194 3.2283,2.61497 3.5821,4.77149 0,4.3107 -1.2021,8.87909 -3.7129,12.21094 -0.6767,0.79086 -1.1935,0.82971 -2.1426,0.57226 -0.9614,-0.26078 -2.1422,-1.08176 -2.8516,-1.91797 a 1.8899528,1.8899528 0 0 0 -0.7695,-0.54297 c 0.372,0.14138 0.1194,0.0598 -0.127,-0.21093 -0.2464,-0.27074 -0.5693,-0.67155 -0.9746,-1.08594 -0.4052,-0.4144 -0.864,-0.92415 -1.8261,-1.17383 -0.9622,-0.24968 -2.3242,0.33031 -2.9063,1.11328 a 1.8899528,1.8899528 0 0 0 -0.2812,1.70899 c 1.2019,3.7228 4.85,5.52755 7.3925,6.81445 a 1.8899528,1.8899528 0 0 0 0.051,0.0254 c 2.7028,1.2665 5.5442,0.40577 7.4609,-1.13281 1.9151,-1.5372 3.2381,-3.66389 3.9805,-5.66602 1.0495,-2.76153 1.9634,-6.10989 1.9238,-9.48633 -0.04,-3.38018 -1.1495,-6.92011 -4.1757,-9.32226 a 1.8899528,1.8899528 0 0 0 -0.084,-0.0606 c -7.3941,-5.23624 -16.324,-3.95505 -23.8574,-4.00586 0.2924,-2.40211 0.4147,-4.8174 0.3593,-7.17578 v 0.17188 c 0.2773,-4.08481 -1.6023,-7.6483 -4.291,-10.22461 -2.6887,-2.57631 -6.1915,-4.29043 -9.6504,-4.98438 l 0.5293,0.19141 c -1.3201,-0.71525 -3.3373,-0.31328 -3.9687,1.13867 -0.3157,0.72597 -0.258,1.65579 0.1953,2.35742 0.4532,0.70163 1.2024,1.09832 1.9336,1.24414 l -0.1074,-0.0234 c 2.4552,0.64015 4.9556,1.81155 6.832,3.41407 1.8763,1.60251 3.1266,3.55976 3.4062,6.01562 a 1.8899528,1.8899528 0 0 0 0.014,0.0859 c 0.6217,3.86427 -0.4772,7.45488 -2.0664,11.27344 -1.5858,3.81042 -3.6639,7.75828 -4.5059,12.22656 -2.2501,9.89574 1.4532,20.96433 10.1895,26.66211 0.557,0.39087 0.9835,0.66196 1.5391,1.0039 -2.1921,1.21306 -4.7118,2.50091 -6.9942,4.25586 -2.4498,1.88365 -4.6297,4.40384 -5.3887,7.84375 -0.7484,2.5533 -0.1473,5.03953 1.0332,6.98243 1.1874,1.9541 2.899,3.47868 4.5958,4.64843 l -0.502,-0.50976 c 0.3443,0.51893 0.7184,0.73441 1.084,0.98828 -4.2772,1.29198 -8.7889,2.48726 -13.0274,4.89648 -20.8818,11.11031 -41.3626,23.00128 -62.0703,34.16407 -0.8379,-1.89513 -1.5481,-3.92074 -2.7109,-6.09766 -4.1336,-8.74336 -10.7646,-18.48271 -21.793,-20.08008 a 1.8899528,1.8899528 0 0 0 -0.08,-0.01 c -9.233,-0.94167 -18.03241,3.02625 -25.28707,7.37109 a 1.8899528,1.8899528 0 0 0 -0.12305,0.0801 c -4.84373,3.43776 -10.8149,8.53083 -10.89843,15.86328 -0.48394,5.40891 0.73688,11.522957 5.40625,15.443358 5.28503,6.018908 15.13146,8.05378 21.5098,2.228516 a 1.8899528,1.8899528 0 0 0 0.033,-0.03125 c 1.7112,-1.640048 3.4841,-3.786065 4.6172,-6.28711 1.1255,-2.484487 1.5942,-5.457984 0.3613,-8.277344 -1.2644,-3.25844 -4.3953,-4.79963 -7.3418,-4.89844 -2.9606,-0.0993 -5.93268,0.93944 -8.03908,2.84766 a 1.8899528,1.8899528 0 0 0 -0.4707,2.14258 c 0.39042,0.91481 1.46583,1.75327 2.41797,1.84179 0.95213,0.0885 1.59566,-0.20294 2.14062,-0.44336 0.54499,-0.24041 1.00439,-0.49567 1.35159,-0.6582 0.3472,-0.16253 0.5923,-0.17519 0.3847,-0.17578 a 1.8899528,1.8899528 0 0 0 0.7403,-0.15039 c 1.8125,-0.76529 3.9824,0.25666 4.2226,2.22852 0.1667,3.836714 -2.9109,8.063491 -6.5722,9.49023 -3.68029,1.227532 -7.37704,0.137526 -10.38089,-2.3125 -3.01403,-2.458322 -5.14237,-6.27549 -5.39649,-9.95508 a 1.8899528,1.8899528 0 0 0 0,-0.0215 c -0.30488,-3.75792 1.12266,-7.02212 3.5586,-9.87891 2.43537,-2.85613 5.8833,-5.20565 9.26757,-6.79883 7.9e-4,-3.6e-4 10e-4,-0.002 0.002,-0.002 3.69981,-1.69237 7.76281,-3.4174 11.70891,-4.16797 3.9522,-0.75172 7.6912,-0.56036 11.127,1.43555 7.8295,4.6059 12.464,13.46018 15.5215,22.24609 0.6493,4.20356 -0.1391,8.791782 -1.0547,13.324221 -5.3916,11.702039 -15.6312,21.355026 -27.9453,25.208984 a 1.8899528,1.8899528 0 0 0 -0.3496,0.150391 c 0.1,-0.05522 -0.1999,0.09119 -0.4883,0.230468 -0.2884,0.139283 -0.6348,0.310802 -1.0078,0.5625 -0.3731,0.251699 -0.9917,0.424962 -1.2344,1.681641 -0.1214,0.62834 0.175,1.484109 0.5723,1.894531 0.3972,0.410423 0.7637,0.554221 1.0996,0.669922 a 1.8899528,1.8899528 0 0 0 0.3476,0.08398 c 16.6022,2.37774 32.7549,-2.118881 48.4844,-4.035156 12.0766,-0.808904 23.5286,5.823199 32.9121,13.576172 l -0.291,-0.300781 c 0.4807,0.62302 0.9942,1.029724 1.4961,1.462891 0.3277,0.282786 0.5588,0.512029 0.8144,0.753906 -5.2365,3.40893 -11.8821,3.563277 -18.6289,3.949218 l 0.3438,0.01172 c -1.1042,-0.138489 -2.478,0.353741 -3.0879,1.22461 -0.61,0.870868 -0.6354,1.621724 -0.7051,2.179687 -0.047,0.374043 -0.08,0.518967 -0.1152,0.707031 -15.2268,-1.008459 -30.4633,-2.696072 -45.4102,-5.640625 a 1.8899528,1.8899528 0 0 0 -0.1328,-0.02148 c -1.5712,-0.193604 -3.4179,-0.937168 -5.5137,-1.431641 -2.0958,-0.494472 -4.6472,-0.646782 -7.039,0.78711 l 0.3574,-0.166016 c -10.02256,3.454846 -20.36674,6.007197 -30.78512,5.359375 a 1.8899528,1.8899528 0 0 0 -0.35742,0.01172 c -4.01514,0.515712 -8.23971,-2.248711 -9.20508,-6.140625 -0.0813,-1.770522 0.73722,-3.073567 2.2832,-4.28125 1.58807,-1.240556 3.86614,-2.164439 5.79883,-2.646484 a 1.8899528,1.8899528 0 0 0 0.15821,-0.04688 c -0.17882,0.06158 0.21391,-0.04391 0.58007,-0.121093 0.36617,-0.07719 0.80316,-0.169003 1.27344,-0.330078 0.23514,-0.08054 0.48017,-0.171699 0.7793,-0.355469 0.29913,-0.183771 0.76223,-0.469233 1.01172,-1.244141 0.24949,-0.774907 -0.1301,-1.723348 -0.49219,-2.115234 -0.36209,-0.391887 -0.68247,-0.554697 -1.02344,-0.71875 a 1.8899528,1.8899528 0 0 0 -0.11719,-0.05078 c -7.70066,-3.080021 -15.53298,-5.741493 -21.08007,-11.304688 a 1.8899528,1.8899528 0 0 0 -0.18946,-0.166016 c -0.60105,-0.460135 -1.32385,-1.355248 -2.18554,-2.320312 -0.8617,-0.965064 -1.91786,-2.072731 -3.54883,-2.558594 a 1.8899528,1.8899528 0 0 0 -1.18946,0.03711 c -7.77398,2.846569 -16.28906,4.576179 -23.74804,1.503906 a 1.8899528,1.8899528 0 0 0 -0.0293,-0.01172 c -11.37156,-4.467474 -17.8936,-16.378632 -21.46484,-28.003901 a 1.8899528,1.8899528 0 0 0 -0.13282,-0.32227 c -2.05945,-3.92828 -1.28756,-8.68811 -1.41406,-13.93945 a 1.8899528,1.8899528 0 0 0 -0.004,-0.0781 c -0.62507,-9.44612 2.51023,-18.82137 7.48242,-26.98047 l 0.01,-0.0156 c 7.6e-4,-0.001 10e-4,-0.003 0.002,-0.004 8.98862,-14.3618 18.26358,-29.3603 22.09765,-46.49023 a 1.8899528,1.8899528 0 0 0 0.0254,-0.13086 c 0.24343,-1.6194 0.57044,-3.7757 0.27735,-5.95508 -0.2931,-2.17938 -1.45823,-4.61062 -3.98242,-5.67383 a 1.8899528,1.8899528 0 0 0 -0.35157,-0.10937 c -3.49329,-0.71967 -6.66918,0.36429 -9.44726,1.65625 -1.91591,0.891 -3.53574,1.64456 -5.19922,2.39648 -0.15359,-3.68737 -0.0629,-7.45459 0.39648,-11.14062 a 1.8899528,1.8899528 0 0 0 0.004,-0.0293 c 1.4455,-13.2876 11.55958,-25.86654 24.92578,-28.08398 a 1.8899528,1.8899528 0 0 0 0.0469,-0.008 c 10.91166,-2.0905 23.92594,1.68435 29.69335,11.37696 a 1.8899528,1.8899528 0 0 0 0.0332,0.0508 c 2.33207,3.64341 2.71157,7.79643 1.84179,12.01562 -0.86977,4.2192 -3.03479,8.4321 -5.64453,11.78321 a 1.8899528,1.8899528 0 0 0 -0.11914,0.17382 c -2.23056,3.63439 -6.91868,4.58423 -11.44531,4.33399 a 1.8899528,1.8899528 0 0 0 -0.4082,0.0215 c -2.70652,0.44134 -5.27955,-0.88603 -6.76172,-3.25 a 1.8899528,1.8899528 0 0 0 -0.0273,-0.041 c -1.09416,-1.64743 -1.87466,-4.13984 -1.8125,-6.27344 0.0617,-2.11837 0.75558,-3.71124 2.53516,-4.65234 1.63841,-0.74447 4.10732,-0.8683 5.99609,-0.21485 1.90401,0.65872 3.10359,1.76142 3.25391,3.76563 a 1.8899528,1.8899528 0 0 0 0.0176,0.13867 c -0.0393,-0.26184 -0.27092,0.46996 -0.90039,1.53125 -0.31474,0.53065 -0.70602,1.16681 -0.77149,2.14453 -0.0655,0.97772 0.52788,2.18155 1.38477,2.81055 a 1.8899528,1.8899528 0 0 0 2.36719,-0.10352 c 3.28247,-2.88907 4.05163,-8.14134 1.48437,-11.88281 a 1.8899528,1.8899528 0 0 0 -0.1914,-0.23828 c -4.68356,-4.89337 -13.23638,-5.29234 -18.13477,-0.36133 a 1.8899528,1.8899528 0 0 0 -0.15039,0.17383 c -1.85313,2.38444 -2.39479,5.31901 -2.17969,8.09375 0.21511,2.77473 1.15483,5.45232 2.43946,7.67383 1.90842,3.34554 5.10735,5.16389 8.41601,5.83789 3.31239,0.67476 6.78753,0.31993 9.82813,-0.5293 a 1.8899528,1.8899528 0 0 0 0.0527,-0.0156 c 9.57518,-2.97362 19.44204,-6.11519 28.81641,-3.76758 a 1.8899528,1.8899528 0 0 0 0.0351,0.01 c 3.28231,0.75479 5.76314,4.41372 5.67188,7.61914 -5.08405,1.00041 -10.0763,2.46469 -14.83399,4.54492 -10.21582,4.07029 -18.9569,10.99717 -25.89258,19.35352 -14.42299,17.36344 -23.02006,41.14977 -17.75,63.812499 a 1.8899528,1.8899528 0 0 0 0.0215,0.08008 c 2.09337,7.504023 5.35131,15.10104 10.55664,21.261719 5.1e-4,6.4e-4 10e-4,0.0013 0.002,0.002 0.35146,0.436939 0.78926,0.860268 1.52539,1.052734 0.73722,0.192748 1.75766,-0.114874 2.25782,-0.662109 1.00032,-1.094471 0.78571,-2.206198 0.34765,-3.167969 l 0.11914,0.349609 c -2.2979,-9.747021 -4.22162,-19.560763 -3.53515,-29.349603 a 1.8899528,1.8899528 0 0 0 0.002,-0.0274 c 0.91344,-16.44111 6.5764,-33.79596 19.75,-43.92773 11.73406,-8.1675 26.1661,-11.68672 40.10737,-16.26758 a 1.8899528,1.8899528 0 0 0 0.037,-0.0117 c 9.0612,-3.18535 19.7637,-5.13299 27.7246,-12.33008 a 1.8899528,1.8899528 0 0 0 0.2461,-0.27148 c 1.2152,-1.62538 2.8721,-2.42548 4.9922,-2.97656 1.8125,-0.4711 3.9402,-0.71754 6.0391,-1.09571 -1.3086,1.22378 -2.4517,2.79916 -2.3848,4.97266 a 1.8899528,1.8899528 0 0 0 0.018,0.20508 c 0.824,5.8187 5.3603,10.11295 9.7266,12.82031 a 1.8899528,1.8899528 0 0 0 0.1054,0.0606 c 4.6796,2.49922 9.7565,2.50772 14.4043,1.20312 4.6478,-1.30459 8.9495,-3.87724 12.5156,-6.6875 a 1.8899528,1.8899528 0 0 0 0.3301,-0.33398 c -0.1072,0.1398 0.1455,-0.12524 0.502,-0.38086 0.3565,-0.25562 0.8219,-0.56771 1.2929,-0.96289 0.4711,-0.39518 1.0045,-0.84662 1.3458,-1.72461 0.3412,-0.878 0.065,-2.26683 -0.627,-3.00391 a 1.8899528,1.8899528 0 0 0 -2.3066,-0.35351 c -6.0553,3.41039 -10.9155,8.26902 -16.9063,8.97851 a 1.8899528,1.8899528 0 0 0 -0.057,0.008 c -4.6461,0.6958 -9.4194,-1.22492 -12.2481,-4.9707 a 1.8899528,1.8899528 0 0 0 -0.014,-0.0156 c -0.9285,-1.20234 -2.0697,-2.71892 -2.545,-3.94532 -0.2376,-0.61319 -0.2986,-1.107 -0.2461,-1.44336 0.047,-0.29819 0.2114,-0.55421 0.5782,-0.88671 5.5039,-2.94756 12.7367,-1.41956 20.0625,-2.71875 a 1.8899528,1.8899528 0 0 0 0.027,-0.004 c 0.4006,-0.0773 0.7675,-0.16815 1.1973,-0.41797 0.4297,-0.24981 1.0235,-0.83386 1.1308,-1.63672 0.1074,-0.80286 -0.2372,-1.38039 -0.4902,-1.70312 -0.253,-0.32273 -0.4889,-0.50615 -0.7168,-0.66992 -0.9118,-0.65509 -1.7909,-0.97115 -2.418,-1.16797 a 1.8899528,1.8899528 0 0 0 -0.045,-0.0137 c -10.1182,-2.90682 -20.535,-0.90194 -30.1211,0.92968 a 1.8899528,1.8899528 0 0 0 -0.293,0.0801 c -1.2309,0.44924 -2.3727,0.35792 -3.6015,-0.10742 -1.2288,-0.46534 -2.4867,-1.34513 -3.5821,-2.36328 l 0.1856,0.19922 c -0.5464,-0.67765 -1.0309,-0.95425 -1.5488,-1.33008 3.0584,-0.15794 6.2361,-0.10836 9.5371,-0.24219 8.9562,-0.35218 18.6087,0.71746 27.9082,-1.86133 l -0.4434,0.0684 c 1.9504,-0.0621 3.4303,-1.68131 3.6641,-3.26953 0.2338,-1.58822 -0.5019,-3.41922 -2.2168,-4.21289 a 1.8899528,1.8899528 0 0 0 -0.2793,-0.10352 c -10.3997,-2.94671 -20.6321,0.5846 -30.0254,0.6543 -7.9472,-0.16798 -16.2999,-1.116 -22.4453,-5.61328 -0.9988,-0.99816 -2.0908,-1.84593 -2.9277,-2.65234 -0.3136,-0.30214 -0.3206,-0.5405 -0.543,-0.82032 0.2915,-0.0239 0.4045,-0.1493 0.7578,-0.14453 1.1964,0.0162 2.6346,0.20446 4.2051,-0.0332 l -0.2246,0.0195 c 12.4756,-0.38457 25.1443,-0.30557 37.7148,-1.58594 a 1.8899528,1.8899528 0 0 0 0.293,-0.0547 c 0.9981,-0.26543 2.4075,-0.72595 3.666,-1.67188 0.6292,-0.47296 1.2707,-1.09761 1.6035,-2.06445 0.3329,-0.96684 0.1426,-2.20975 -0.4551,-3.12305 a 1.8899528,1.8899528 0 0 0 -1.1015,-0.79297 c -5.123,-1.34125 -10.2628,-0.45969 -14.7285,-0.76367 a 1.8899528,1.8899528 0 0 0 -0.078,-0.004 c -13.7039,-0.3725 -27.3994,0.71763 -40.3672,-2.19726 -2.3249,-0.78574 -4.88628,-1.61726 -6.90618,-2.79102 -2.05357,-1.19332 -3.45208,-2.58815 -3.9375,-4.6875 a 1.8899528,1.8899528 0 0 0 -0.0801,-0.26172 c -0.13603,-0.34873 -0.0786,-0.30544 -0.0781,-0.30664 5.2e-4,-0.001 0.0818,-0.14009 0.37695,-0.32812 0.57252,-0.36479 1.74533,-0.7205 2.7832,-1.06641 9.82803,-2.45573 20.42603,1.04594 31.45503,0.94922 a 1.8899528,1.8899528 0 0 0 0.021,0 c 5.6015,-0.11176 12.3208,0.68349 18.1602,-2.73047 a 1.8899528,1.8899528 0 0 0 0.8769,-1.16211 c 0.2437,-0.95012 -0.01,-2.00695 -0.4746,-2.70117 -0.4673,-0.69422 -1.059,-1.12045 -1.6387,-1.45312 -1.1593,-0.66536 -2.3426,-0.96349 -3.25,-1.09961 a 1.8899528,1.8899528 0 0 0 -0.096,-0.0117 c -12.4645,-1.23084 -25.0337,-0.22146 -37.2324,-0.75196 a 1.8899528,1.8899528 0 0 0 -0.086,-0.002 c -10.64291,0.023 -21.57388,-2.2404 -29.77539,-8.85156 a 1.8899528,1.8899528 0 0 0 -0.3125,-0.20508 c -0.75479,-0.39339 -0.5386,-1.35126 0.15234,-1.56641 17.26216,-1.1091 34.74735,1.0899 52.39055,1.30469 a 1.8899528,1.8899528 0 0 0 0.1797,-0.008 c 1.7785,-0.14856 4.0216,-0.0112 6.3457,-0.20703 2.3242,-0.19588 4.8445,-0.76762 6.8809,-2.59375 a 1.8899528,1.8899528 0 0 0 0.2441,-0.26563 c 0.6749,-0.89052 1.0287,-2.05709 0.8086,-3.10937 -0.2201,-1.05229 -0.8736,-1.80013 -1.5332,-2.31641 -1.3131,-1.02781 -2.8152,-1.44376 -4.1836,-1.53906 -18.8899,-2.68547 -38.02217,-1.55809 -56.78118,-0.73828 a 1.8899528,1.8899528 0 0 0 -0.21289,0.0215 c -4.06895,0.64248 -8.15401,-0.31575 -11.74414,-2.46679 -4.21215,-2.56053 -8.56389,-5.07345 -10.80274,-8.71094 0.71609,-0.0169 1.60728,0.1184 2.8457,-0.31055 l -0.53906,0.10156 c 20.5915,-0.86087 41.44013,1.68671 62.43941,0.61524 a 1.8899528,1.8899528 0 0 0 0.2324,-0.0274 c 1.0755,-0.19001 2.9134,-0.20645 4.7852,-0.60937 1.8718,-0.40292 4.0677,-1.40795 5.043,-3.6875 a 1.8899528,1.8899528 0 0 0 0.1328,-1.00586 c -0.1534,-1.09394 -0.7843,-2.08084 -1.541,-2.66211 -0.7568,-0.58127 -1.5661,-0.84424 -2.3164,-1.02148 -1.5008,-0.3545 -2.9767,-0.42289 -3.4805,-0.56446 a 1.8899528,1.8899528 0 0 0 -0.3594,-0.0645 c -20.3243,-1.64952 -40.75372,-1.0753 -60.96285,-1.57422 -8.51729,-2.24832 -16.68272,-6.47264 -22.99805,-12.56445 20.49304,-0.49894 41.15393,3.93668 62.2461,3.1543 a 1.8899528,1.8899528 0 0 0 0.1191,-0.01 c 2.2342,-0.22457 4.995,-0.2514 7.7324,-0.80273 2.7374,-0.55134 5.5756,-1.70852 7.5059,-4.29883 a 1.8899528,1.8899528 0 0 0 0.021,-0.0293 c 0.6112,-0.85355 0.9997,-1.92147 0.75,-2.99023 -0.2498,-1.06877 -1.0352,-1.75406 -1.7168,-2.12891 -1.3632,-0.7497 -2.7125,-0.82052 -3.8184,-0.76953 -19.49144,-0.42846 -38.97639,1.86926 -57.75777,-1.75391 -9.75278,-2.05531 -19.73942,-5.28933 -26.42578,-12.35742 l 0.16016,0.19141 c -0.22892,-0.31665 -0.3499,-0.39424 -0.57031,-0.62891 9.52343,0.50126 19.1493,1.22213 28.8125,1.49414 a 1.8899528,1.8899528 0 0 0 0.01,0 c 15.15312,0.34323 30.70931,1.58744 46.0625,-0.38086 a 1.8899528,1.8899528 0 0 0 0.1817,-0.0332 c 0.7637,-0.17412 2.3313,-0.3812 3.8086,-1.07031 0.7386,-0.34456 1.5291,-0.83378 2.0859,-1.73047 0.5568,-0.8967 0.6634,-2.17119 0.2949,-3.25391 a 1.8899528,1.8899528 0 0 0 -0.1797,-0.38281 c -1.789,-2.89761 -4.7154,-4.24713 -7.5527,-4.85742 -2.83735,-0.6103 -5.72929,-0.60192 -8.03714,-0.76953 a 1.8899528,1.8899528 0 0 0 -0.10351,-0.006 c -17.6708,-0.30327 -35.08263,2.66442 -52.10156,0.25195 -9.712,-1.38427 -20.35331,-3.86417 -25.59571,-11.95899 -0.45843,-0.99942 -1.03239,-1.87971 -1.31836,-2.54296 -0.0115,-0.0266 -0.005,-0.0271 -0.0156,-0.0527 5.73888,0.2899 11.6485,1.27429 17.68164,1.7832 19.75283,1.9634 39.62789,4.341 59.66601,4.36719 a 1.8899528,1.8899528 0 0 0 0.17579,-0.008 c 19.10364,-1.77221 38.34874,-3.55966 57.25194,-1.27344 -4.3392,1.8418 -8.8874,3.91121 -12.082,8.15625 -3.9538,4.7236 -4.0493,11.03517 -2.7656,16.37305 a 1.8899528,1.8899528 0 0 0 0.059,0.19726 c 2.7355,7.61151 9.4238,14.95648 18.3925,15.02149 3.3515,0.49763 6.3445,-0.76417 8.6016,-2.66211 2.2361,-1.88029 3.8769,-4.35631 5.0684,-6.70508 2.1785,-3.35566 2.4851,-7.60818 1.3125,-11.33594 -1.1745,-3.73351 -3.9792,-7.07238 -8.1504,-8.08789 -2.221,-0.6025 -4.4033,0.11842 -5.8692,1.41602 -1.4712,1.30232 -2.383,3.10473 -2.6797,5.00586 a 1.8899528,1.8899528 0 0 0 -0.01,0.0391 c -0.039,0.28929 -0.3753,1.47221 -0.3477,2.75 0.014,0.6389 0.064,1.50286 0.877,2.29297 0.813,0.79011 2.1098,0.82732 3.0019,0.54102 a 1.8899528,1.8899528 0 0 0 1.3106,-1.71485 c 0.055,-1.21846 0.1893,-2.65065 0.5527,-3.64258 0.3249,-0.88668 0.6566,-1.26704 1.3399,-1.46484 1.5302,0.13924 2.9442,1.03649 3.9804,2.49609 1.0746,1.51367 1.6192,3.50979 1.4375,5.13282 -0.5534,2.66462 -1.8807,5.57597 -3.7461,7.68359 -1.8574,2.09861 -4.1107,3.37729 -6.8183,3.33008 -6.6767,-0.92829 -12.4679,-7.14463 -13.7774,-13.77149 a 1.8899528,1.8899528 0 0 0 -0.01,-0.0254 c -0.6922,-3.26617 0.201,-6.42194 2.1054,-9.14258 1.9045,-2.72063 4.8359,-4.92265 7.9278,-6.02929 a 1.8899528,1.8899528 0 0 0 0.2812,-0.12891 c 3.0215,-1.68048 7.327,-1.8157 11.3555,-4.00781 a 1.8899528,1.8899528 0 0 0 0.8203,-2.43555 c -1.4367,-3.19587 -3.8753,-5.03397 -4.4512,-7.08398 a 1.8899528,1.8899528 0 0 0 -0.1035,-0.2793 c -1.1267,-2.44748 -0.7985,-5.03797 0.4727,-7.49414 0.8753,-1.69126 2.2743,-3.11282 3.7832,-4.30859 z m -13.4317,22.17968 c -0.01,0.004 -0.018,0.0121 -0.027,0.0156 -0.084,0.0449 -0.1699,0.0646 -0.2539,0.11133 z m -41.8925,14.37305 c 0.092,0.27024 0.051,0.0724 0.07,0.041 0,-0.003 -0.038,0.0254 -0.039,0.0254 z m 32.3085,66.04688 c 0,-0.006 0.049,0.0621 0.043,0.0312 -0.024,-0.11486 0.088,-0.2237 -0.1211,0.0527 z m 83.0489,37.96484 0.012,0.0859 c 0,-0.0144 -0.01,-0.0267 -0.01,-0.041 0,-0.0154 5e-4,-0.0296 0,-0.0449 z m -34.1836,3.69727 c 0.023,0.0622 0.06,0.11771 0.084,0.17968 0.01,0.0129 0.01,0.0262 0.014,0.0391 z m -124.86525,9.42968 0.0156,0.13867 c -0.003,-0.034 -0.0205,-0.0599 -0.0234,-0.0937 -0.003,-0.0186 0.0106,-0.0262 0.008,-0.0449 z m -16.90235,9.84571 c 0.005,0.008 0.0143,0.0132 0.0195,0.0215 0.004,0.006 0.004,0.0139 0.008,0.0195 z m 115.2734,7.74218 c -1.1938,0.0588 -2.3988,0.24717 -3.6015,0.42383 a 1.8899528,1.8899528 0 0 0 -0.01,-0.4043 c 1.2111,-0.0593 2.4113,-0.0474 3.6093,-0.0195 z m 6.2657,20.87696 c 0.01,-10e-4 0.019,0.001 0.029,0 l -0.057,0.008 c 0.01,-0.001 0.017,-0.007 0.027,-0.008 z m -63.9434,60.52148 c -0.119,-3.4e-4 -0.1535,0.0612 -0.2617,0.0703 -0.1573,0.0531 -0.3236,0.0147 -0.4785,0.0801 z m -25.96679,51.392579 c -0.0286,0.0071 -0.0611,0.02397 -0.0898,0.03125 -0.0295,0.0096 -0.0367,0.0047 -0.0684,0.01563 z"
           id="path1089" />
      </g>
      <g
         id="g1091"
         transform="matrix(0.26458333,0,0,0.26458333,164.79762,-30.994048)"
         style="opacity:1;stroke-width:0.960938">
        <path
           style="color:#000000;font-style:normal;font-variant:normal;font-weight:normal;font-stretch:normal;font-size:medium;line-height:normal;font-family:sans-serif;font-variant-ligatures:normal;font-variant-position:normal;font-variant-caps:normal;font-variant-numeric:normal;font-variant-alternates:normal;font-variant-east-asian:normal;font-feature-settings:normal;font-variation-settings:normal;text-indent:0;text-align:start;text-decoration:none;text-decoration-line:none;text-decoration-style:solid;text-decoration-color:#000000;letter-spacing:normal;word-spacing:normal;text-transform:none;writing-mode:lr-tb;direction:ltr;text-orientation:mixed;dominant-baseline:auto;baseline-shift:baseline;text-anchor:start;white-space:normal;shape-padding:0;shape-margin:0;inline-size:0;clip-rule:nonzero;display:inline;overflow:visible;visibility:visible;isolation:auto;mix-blend-mode:normal;color-interpolation:sRGB;color-interpolation-filters:linearRGB;solid-color:#000000;solid-opacity:1;vector-effect:none;fill:#029901;fill-opacity:1;fill-rule:nonzero;stroke:none;stroke-width:3.63189;stroke-linecap:round;stroke-linejoin:round;stroke-miterlimit:4;stroke-dasharray:none;stroke-dashoffset:0;stroke-opacity:1;color-rendering:auto;image-rendering:auto;shape-rendering:auto;text-rendering:auto;enable-background:accumulate;stop-color:#000000;stop-opacity:1"
           d="m 1055.3575,-108.9413 c -5.306,2.67463 -10.7095,5.49504 -15.6051,8.827 -1.0351,3.802139 -1.3458,7.896666 -1.4709,11.771629 3.5371,3.469907 6.8404,7.211662 10.5889,10.449752 1.7307,-0.475674 1.5304,-3.319645 2.4631,-4.68421 2.3483,-6.470958 4.7563,-12.953406 6.8867,-19.480531 -0.9946,-2.10809 -0.4792,-5.52384 -2.6329,-6.88265 l -0.1282,-0.008 z"
           id="path1093" />
        <path
           style="color:#000000;font-style:normal;font-variant:normal;font-weight:normal;font-stretch:normal;font-size:medium;line-height:normal;font-family:sans-serif;font-variant-ligatures:normal;font-variant-position:normal;font-variant-caps:normal;font-variant-numeric:normal;font-variant-alternates:normal;font-variant-east-asian:normal;font-feature-settings:normal;font-variation-settings:normal;text-indent:0;text-align:start;text-decoration:none;text-decoration-line:none;text-decoration-style:solid;text-decoration-color:#000000;letter-spacing:normal;word-spacing:normal;text-transform:none;writing-mode:lr-tb;direction:ltr;text-orientation:mixed;dominant-baseline:auto;baseline-shift:baseline;text-anchor:start;white-space:normal;shape-padding:0;shape-margin:0;inline-size:0;clip-rule:nonzero;display:inline;overflow:visible;visibility:visible;isolation:auto;mix-blend-mode:normal;color-interpolation:sRGB;color-interpolation-filters:linearRGB;solid-color:#000000;solid-opacity:1;vector-effect:none;fill:#f6a436;fill-opacity:1;fill-rule:nonzero;stroke:none;stroke-width:3.63189;stroke-linecap:round;stroke-linejoin:round;stroke-miterlimit:4;stroke-dasharray:none;stroke-dashoffset:0;stroke-opacity:1;color-rendering:auto;image-rendering:auto;shape-rendering:auto;text-rendering:auto;enable-background:accumulate;stop-color:#000000;stop-opacity:1"
           d="m 1055.4609,-110.83789 a 1.8899528,1.8899528 0 0 0 -0.1328,0.004 l -0.1015,0.008 a 1.8899528,1.8899528 0 0 0 -0.7188,0.19726 c -5.3223,2.68287 -10.7981,5.53634 -15.8183,8.95313 a 1.8899528,1.8899528 0 0 0 -0.7598,1.06445 c -1.1003,4.041455 -1.4102,8.274122 -1.5371,12.207033 a 1.8899528,1.8899528 0 0 0 0.5664,1.410156 c 3.4721,3.406201 6.7979,7.181403 10.6758,10.53125 a 1.8899528,1.8899528 0 0 0 1.7363,0.392579 c 0.9057,-0.248916 1.6314,-0.885638 2.0508,-1.507813 0.4193,-0.622175 0.6241,-1.230502 0.789,-1.779297 0.3299,-1.09759 0.598,-2.028977 0.6836,-2.154297 a 1.8899528,1.8899528 0 0 0 0.2149,-0.419922 c 2.345,-6.461977 4.762,-12.963486 6.9082,-19.539059 a 1.8899528,1.8899528 0 0 0 -0.088,-1.39258 c -0.2755,-0.5839 -0.4445,-1.85861 -0.7402,-3.29688 -0.2958,-1.43827 -0.855,-3.28189 -2.5938,-4.3789 a 1.8899528,1.8899528 0 0 0 -0.8906,-0.28711 l -0.1289,-0.008 a 1.8899528,1.8899528 0 0 0 -0.1153,-0.004 z m -0.5293,4.25195 c 0.1918,0.32295 0.4139,0.49303 0.5567,1.1875 0.1792,0.87141 0.4316,2.03707 0.7851,3.17969 -2.0803,6.336029 -4.4167,12.658197 -6.7168,18.996094 l 0.2168,-0.419922 c -0.7591,1.110664 -0.9129,2.127985 -1.1074,2.90039 -2.8457,-2.631145 -5.5752,-5.483621 -8.4433,-8.339843 0.1319,-3.334301 0.453,-6.718872 1.2285,-9.857422 4.2237,-2.813487 8.8401,-5.289437 13.4804,-7.646487 z"
           id="path1095" />
      </g>
      <g
         id="g1097"
         transform="matrix(0.26458333,0,0,0.26458333,164.79762,-30.994048)"
         style="opacity:1;stroke-width:0.960938">
        <path
           style="color:#000000;font-style:normal;font-variant:normal;font-weight:normal;font-stretch:normal;font-size:medium;line-height:normal;font-family:sans-serif;font-variant-ligatures:normal;font-variant-position:normal;font-variant-caps:normal;font-variant-numeric:normal;font-variant-alternates:normal;font-variant-east-asian:normal;font-feature-settings:normal;font-variation-settings:normal;text-indent:0;text-align:start;text-decoration:none;text-decoration-line:none;text-decoration-style:solid;text-decoration-color:#000000;letter-spacing:normal;word-spacing:normal;text-transform:none;writing-mode:lr-tb;direction:ltr;text-orientation:mixed;dominant-baseline:auto;baseline-shift:baseline;text-anchor:start;white-space:normal;shape-padding:0;shape-margin:0;inline-size:0;clip-rule:nonzero;display:inline;overflow:visible;visibility:visible;isolation:auto;mix-blend-mode:normal;color-interpolation:sRGB;color-interpolation-filters:linearRGB;solid-color:#000000;solid-opacity:1;vector-effect:none;fill:#029901;fill-opacity:1;fill-rule:nonzero;stroke:none;stroke-width:3.63189;stroke-linecap:round;stroke-linejoin:round;stroke-miterlimit:4;stroke-dasharray:none;stroke-dashoffset:0;stroke-opacity:1;color-rendering:auto;image-rendering:auto;shape-rendering:auto;text-rendering:auto;enable-background:accumulate;stop-color:#000000;stop-opacity:1"
           d="m 1078.6097,-121.7507 c -6.9374,3.52472 -13.9158,7.16597 -20.4783,11.31291 0.06,4.31477 1.4073,8.85514 4.3684,12.136702 2.8868,3.774295 5.4065,7.941331 8.7163,11.340472 1.839,-0.690441 1.6477,-3.718791 2.6011,-5.273801 2.5771,-7.796963 5.2161,-15.608333 7.5537,-23.461293 -0.9322,-1.65053 -0.6465,-5.35724 -2.7612,-6.05499 z"
           id="path1099" />
        <path
           style="color:#000000;font-style:normal;font-variant:normal;font-weight:normal;font-stretch:normal;font-size:medium;line-height:normal;font-family:sans-serif;font-variant-ligatures:normal;font-variant-position:normal;font-variant-caps:normal;font-variant-numeric:normal;font-variant-alternates:normal;font-variant-east-asian:normal;font-feature-settings:normal;font-variation-settings:normal;text-indent:0;text-align:start;text-decoration:none;text-decoration-line:none;text-decoration-style:solid;text-decoration-color:#000000;letter-spacing:normal;word-spacing:normal;text-transform:none;writing-mode:lr-tb;direction:ltr;text-orientation:mixed;dominant-baseline:auto;baseline-shift:baseline;text-anchor:start;white-space:normal;shape-padding:0;shape-margin:0;inline-size:0;clip-rule:nonzero;display:inline;overflow:visible;visibility:visible;isolation:auto;mix-blend-mode:normal;color-interpolation:sRGB;color-interpolation-filters:linearRGB;solid-color:#000000;solid-opacity:1;vector-effect:none;fill:#f6a436;fill-opacity:1;fill-rule:nonzero;stroke:none;stroke-width:3.63189;stroke-linecap:round;stroke-linejoin:round;stroke-miterlimit:4;stroke-dasharray:none;stroke-dashoffset:0;stroke-opacity:1;color-rendering:auto;image-rendering:auto;shape-rendering:auto;text-rendering:auto;enable-background:accumulate;stop-color:#000000;stop-opacity:1"
           d="m 1078.6348,-123.64062 a 1.8899528,1.8899528 0 0 0 -0.8809,0.20507 c -6.9497,3.53098 -13.9812,7.19713 -20.6328,11.40039 a 1.8899528,1.8899528 0 0 0 -0.8789,1.62305 c 0.065,4.68962 1.5045,9.66339 4.8555,13.376954 l -0.1,-0.117188 c 2.8014,3.66264 5.3494,7.901008 8.8633,11.509766 a 1.8899528,1.8899528 0 0 0 2.0196,0.451172 c 1.7908,-0.672359 2.4376,-2.364155 2.7832,-3.554688 0.3455,-1.190532 0.6021,-2.236543 0.7636,-2.5 a 1.8899528,1.8899528 0 0 0 0.1836,-0.394531 c 2.5745,-7.78906 5.2195,-15.618345 7.5703,-23.515625 a 1.8899528,1.8899528 0 0 0 -0.166,-1.46875 c -0.1275,-0.22584 -0.3981,-1.53232 -0.75,-2.91992 -0.1759,-0.6938 -0.3991,-1.43756 -0.8457,-2.17578 -0.4465,-0.73822 -1.2052,-1.48982 -2.2187,-1.82422 a 1.8899528,1.8899528 0 0 0 -0.5664,-0.0957 z m -0.3379,4.18359 c 0.1014,0.2278 0.2068,0.45598 0.3047,0.8418 0.2073,0.81777 0.3818,1.84967 0.7832,2.92773 -2.284,7.62557 -4.8419,15.23683 -7.3614,22.859375 l 0.1836,-0.394531 c -0.7322,1.194308 -0.8627,2.297137 -1.0859,3.164062 -2.4411,-2.882539 -4.6457,-6.154147 -7.1211,-9.390625 a 1.8899528,1.8899528 0 0 0 -0.098,-0.117187 c -2.3492,-2.603474 -3.4686,-6.270314 -3.7089,-9.886714 5.808,-3.60052 11.9355,-6.8586 18.1035,-10.00391 z"
           id="path1101" />
      </g>
      <g
         id="g1103"
         transform="matrix(0.26458333,0,0,0.26458333,164.79762,-30.994048)"
         style="opacity:1;stroke-width:0.960938">
        <path
           style="color:#000000;font-style:normal;font-variant:normal;font-weight:normal;font-stretch:normal;font-size:medium;line-height:normal;font-family:sans-serif;font-variant-ligatures:normal;font-variant-position:normal;font-variant-caps:normal;font-variant-numeric:normal;font-variant-alternates:normal;font-variant-east-asian:normal;font-feature-settings:normal;font-variation-settings:normal;text-indent:0;text-align:start;text-decoration:none;text-decoration-line:none;text-decoration-style:solid;text-decoration-color:#000000;letter-spacing:normal;word-spacing:normal;text-transform:none;writing-mode:lr-tb;direction:ltr;text-orientation:mixed;dominant-baseline:auto;baseline-shift:baseline;text-anchor:start;white-space:normal;shape-padding:0;shape-margin:0;inline-size:0;clip-rule:nonzero;display:inline;overflow:visible;visibility:visible;isolation:auto;mix-blend-mode:normal;color-interpolation:sRGB;color-interpolation-filters:linearRGB;solid-color:#000000;solid-opacity:1;vector-effect:none;fill:#029901;fill-opacity:1;fill-rule:nonzero;stroke:none;stroke-width:3.63189;stroke-linecap:round;stroke-linejoin:round;stroke-miterlimit:4;stroke-dasharray:none;stroke-dashoffset:0;stroke-opacity:1;color-rendering:auto;image-rendering:auto;shape-rendering:auto;text-rendering:auto;enable-background:accumulate;stop-color:#000000;stop-opacity:1"
           d="m 1104.1644,-136.26573 c -7.6987,4.44877 -15.7731,8.45416 -23.2345,13.19906 0.175,4.17566 3.0979,7.81462 4.8564,11.5008 2.4191,3.84096 4.5434,8.04931 7.7143,11.31346 1.78,-0.44616 1.6464,-3.42445 2.627,-4.77258 3.1024,-8.86566 6.7738,-17.61289 8.8378,-26.79173 -0.1286,-1.31063 0.6926,-4.17584 -0.801,-4.44901 z"
           id="path1105" />
        <path
           style="color:#000000;font-style:normal;font-variant:normal;font-weight:normal;font-stretch:normal;font-size:medium;line-height:normal;font-family:sans-serif;font-variant-ligatures:normal;font-variant-position:normal;font-variant-caps:normal;font-variant-numeric:normal;font-variant-alternates:normal;font-variant-east-asian:normal;font-feature-settings:normal;font-variation-settings:normal;text-indent:0;text-align:start;text-decoration:none;text-decoration-line:none;text-decoration-style:solid;text-decoration-color:#000000;letter-spacing:normal;word-spacing:normal;text-transform:none;writing-mode:lr-tb;direction:ltr;text-orientation:mixed;dominant-baseline:auto;baseline-shift:baseline;text-anchor:start;white-space:normal;shape-padding:0;shape-margin:0;inline-size:0;clip-rule:nonzero;display:inline;overflow:visible;visibility:visible;isolation:auto;mix-blend-mode:normal;color-interpolation:sRGB;color-interpolation-filters:linearRGB;solid-color:#000000;solid-opacity:1;vector-effect:none;fill:#f6a436;fill-opacity:1;fill-rule:nonzero;stroke:none;stroke-width:3.63189;stroke-linecap:round;stroke-linejoin:round;stroke-miterlimit:4;stroke-dasharray:none;stroke-dashoffset:0;stroke-opacity:1;color-rendering:auto;image-rendering:auto;shape-rendering:auto;text-rendering:auto;enable-background:accumulate;stop-color:#000000;stop-opacity:1"
           d="m 1104.1602,-138.15625 a 1.8899528,1.8899528 0 0 0 -0.9414,0.25391 c -7.6286,4.40823 -15.7268,8.42247 -23.3028,13.24023 a 1.8899528,1.8899528 0 0 0 -0.875,1.67383 c 0.21,5.00932 3.4229,8.8484 5.0391,12.23633 a 1.8899528,1.8899528 0 0 0 0.1074,0.19336 c 2.3532,3.73639 4.5144,8.07918 7.957,11.623043 a 1.8899528,1.8899528 0 0 0 1.8164,0.515625 c 0.9314,-0.233449 1.6768,-0.870087 2.1133,-1.496094 0.4365,-0.626004 0.6575,-1.245824 0.8379,-1.806644 0.3608,-1.12163 0.6673,-2.0857 0.7441,-2.1914 a 1.8899528,1.8899528 0 0 0 0.2559,-0.48633 c 3.0769,-8.79272 6.7836,-17.60585 8.8965,-27.00195 a 1.8899528,1.8899528 0 0 0 0.037,-0.59961 c -0.013,-0.13307 0.1179,-1.27493 0.1211,-2.42383 0,-0.57445 -0.016,-1.19956 -0.3184,-1.9336 -0.3027,-0.73403 -1.1658,-1.58663 -2.1445,-1.76562 a 1.8899528,1.8899528 0 0 0 -0.3437,-0.0312 z m -1.0059,4.61133 c -0.04,0.4136 -0.055,0.83938 -0.051,1.37109 -2.0177,8.94125 -5.6385,17.60588 -8.7597,26.52539 l 0.2558,-0.48828 c -0.7396,1.01686 -0.9416,1.95207 -1.1387,2.72461 -2.1595,-2.72173 -4.0166,-5.88337 -6.041,-9.10351 -1.6977,-3.51508 -3.8394,-6.6098 -4.3867,-9.58985 6.4412,-4.00662 13.3346,-7.60227 20.1211,-11.43945 z"
           id="path1107" />
      </g>
      <g
         id="g1109"
         transform="matrix(0.26458333,0,0,0.26458333,164.79762,-30.994048)"
         style="opacity:1;stroke-width:0.960938">
        <path
           style="color:#000000;font-style:normal;font-variant:normal;font-weight:normal;font-stretch:normal;font-size:medium;line-height:normal;font-family:sans-serif;font-variant-ligatures:normal;font-variant-position:normal;font-variant-caps:normal;font-variant-numeric:normal;font-variant-alternates:normal;font-variant-east-asian:normal;font-feature-settings:normal;font-variation-settings:normal;text-indent:0;text-align:start;text-decoration:none;text-decoration-line:none;text-decoration-style:solid;text-decoration-color:#000000;letter-spacing:normal;word-spacing:normal;text-transform:none;writing-mode:lr-tb;direction:ltr;text-orientation:mixed;dominant-baseline:auto;baseline-shift:baseline;text-anchor:start;white-space:normal;shape-padding:0;shape-margin:0;inline-size:0;clip-rule:nonzero;display:inline;overflow:visible;visibility:visible;isolation:auto;mix-blend-mode:normal;color-interpolation:sRGB;color-interpolation-filters:linearRGB;solid-color:#000000;solid-opacity:1;vector-effect:none;fill:#029901;fill-opacity:1;fill-rule:nonzero;stroke:none;stroke-width:3.63189;stroke-linecap:round;stroke-linejoin:round;stroke-miterlimit:4;stroke-dasharray:none;stroke-dashoffset:0;stroke-opacity:1;color-rendering:auto;image-rendering:auto;shape-rendering:auto;text-rendering:auto;enable-background:accumulate;stop-color:#000000;stop-opacity:1"
           d="m 1121.7592,-141.37568 c -5.1567,0.48603 -10.5368,1.77834 -15.0743,3.98635 -0.096,9.17702 2.925,18.03853 4.5164,27.004 2.5802,11.208938 4.7096,22.582079 7.6616,33.670266 1.7164,1.25761 2.2356,-2.054579 2.6763,-3.141933 5.5441,-17.57643 3.6939,-36.253043 4.6566,-54.385413 -0.5065,-2.37054 1.8527,-7.23847 -2.1322,-7.02476 -0.7591,-0.14016 -1.5358,-0.13875 -2.3044,-0.10851 z"
           id="path1111" />
        <path
           style="color:#000000;font-style:normal;font-variant:normal;font-weight:normal;font-stretch:normal;font-size:medium;line-height:normal;font-family:sans-serif;font-variant-ligatures:normal;font-variant-position:normal;font-variant-caps:normal;font-variant-numeric:normal;font-variant-alternates:normal;font-variant-east-asian:normal;font-feature-settings:normal;font-variation-settings:normal;text-indent:0;text-align:start;text-decoration:none;text-decoration-line:none;text-decoration-style:solid;text-decoration-color:#000000;letter-spacing:normal;word-spacing:normal;text-transform:none;writing-mode:lr-tb;direction:ltr;text-orientation:mixed;dominant-baseline:auto;baseline-shift:baseline;text-anchor:start;white-space:normal;shape-padding:0;shape-margin:0;inline-size:0;clip-rule:nonzero;display:inline;overflow:visible;visibility:visible;isolation:auto;mix-blend-mode:normal;color-interpolation:sRGB;color-interpolation-filters:linearRGB;solid-color:#000000;solid-opacity:1;vector-effect:none;fill:#f6a436;fill-opacity:1;fill-rule:nonzero;stroke:none;stroke-width:3.63189;stroke-linecap:round;stroke-linejoin:round;stroke-miterlimit:4;stroke-dasharray:none;stroke-dashoffset:0;stroke-opacity:1;color-rendering:auto;image-rendering:auto;shape-rendering:auto;text-rendering:auto;enable-background:accumulate;stop-color:#000000;stop-opacity:1"
           d="m 1121.6855,-143.26367 a 1.8899528,1.8899528 0 0 0 -0.1035,0.006 c -5.346,0.50387 -10.9195,1.83169 -15.7246,4.16992 a 1.8899528,1.8899528 0 0 0 -1.0625,1.67969 c -0.1004,9.6044 2.988,18.58227 4.5449,27.35351 a 1.8899528,1.8899528 0 0 0 0.02,0.0937 c 2.5685,11.158117 4.7012,22.552119 7.6777,33.732424 a 1.8899528,1.8899528 0 0 0 0.709,1.03711 c 0.7847,0.574988 2.1283,0.822563 3.0527,0.353515 0.9245,-0.469048 1.2898,-1.155915 1.5742,-1.730468 0.569,-1.149107 0.8515,-2.414071 0.918,-2.578125 a 1.8899528,1.8899528 0 0 0 0.051,-0.142578 c 5.6959,-18.057725 3.788,-36.917758 4.7402,-54.853518 a 1.8899528,1.8899528 0 0 0 -0.039,-0.49414 c -0.073,-0.34048 0.2459,-2.20114 0.2812,-4.05078 0.018,-0.92482 -0.038,-2.01564 -0.8047,-3.03906 -0.754,-1.00648 -2.142,-1.47223 -3.4902,-1.41797 -0.8336,-0.11362 -1.6406,-0.14681 -2.3438,-0.11914 z m 0.2051,3.77734 c 0.6943,-0.0253 1.3155,-0.0169 1.8301,0.0781 a 1.8899528,1.8899528 0 0 0 0.4434,0.0273 c 0.623,-0.0334 0.4025,0.0166 0.33,-0.0801 -0.072,-0.0967 0.062,0.13941 0.051,0.70117 -0.021,1.12353 -0.631,2.88206 -0.1972,4.91211 l -0.039,-0.49414 c -0.966,18.19424 0.7756,36.545385 -4.4727,53.535159 -2.4628,-9.842621 -4.4707,-19.894339 -6.7734,-29.908199 l -0.02,-0.0937 c -1.5506,-8.68392 -4.203,-16.9967 -4.3848,-25.29493 4.0357,-1.77644 8.6891,-2.95018 13.2324,-3.38281 z"
           id="path1113" />
      </g>
      <g
         id="g1115"
         transform="matrix(0.26458333,0,0,0.26458333,164.79762,-30.994048)"
         style="opacity:1;stroke-width:0.960938">
        <path
           style="color:#000000;font-style:normal;font-variant:normal;font-weight:normal;font-stretch:normal;font-size:medium;line-height:normal;font-family:sans-serif;font-variant-ligatures:normal;font-variant-position:normal;font-variant-caps:normal;font-variant-numeric:normal;font-variant-alternates:normal;font-variant-east-asian:normal;font-feature-settings:normal;font-variation-settings:normal;text-indent:0;text-align:start;text-decoration:none;text-decoration-line:none;text-decoration-style:solid;text-decoration-color:#000000;letter-spacing:normal;word-spacing:normal;text-transform:none;writing-mode:lr-tb;direction:ltr;text-orientation:mixed;dominant-baseline:auto;baseline-shift:baseline;text-anchor:start;white-space:normal;shape-padding:0;shape-margin:0;inline-size:0;clip-rule:nonzero;display:inline;overflow:visible;visibility:visible;isolation:auto;mix-blend-mode:normal;color-interpolation:sRGB;color-interpolation-filters:linearRGB;solid-color:#000000;solid-opacity:1;vector-effect:none;fill:#029901;fill-opacity:1;fill-rule:nonzero;stroke:none;stroke-width:3.63189;stroke-linecap:round;stroke-linejoin:round;stroke-miterlimit:4;stroke-dasharray:none;stroke-dashoffset:0;stroke-opacity:1;color-rendering:auto;image-rendering:auto;shape-rendering:auto;text-rendering:auto;enable-background:accumulate;stop-color:#000000;stop-opacity:1"
           d="m 1127.5232,-166.81988 c -5.4134,1.63641 -10.7044,4.79729 -14.2043,9.33503 -2.0528,2.3681 -1.6899,5.94915 0.7418,7.88195 3.2638,3.17176 7.3941,6.03921 11.9147,6.85207 2.4204,-1.12598 2.5623,-4.58999 3.0768,-6.89942 0.7027,-2.38093 -0.8398,-4.97982 -3.4359,-4.90871 -2.0307,-0.16613 -4.4255,1.60055 -6.2394,0.72605 -0.2141,-1.71066 2.7184,-1.36904 3.866,-1.81413 2.709,-0.53117 6.5075,-0.40199 7.2308,2.90714 1.2044,4.46213 -2.0588,8.37726 -2.7623,12.51822 -0.6424,17.11202 0.2197,34.44612 -2.3881,51.361108 -1.0596,6.67481 -3.8228,13.019169 -5.496,19.507283 0.2962,6.447885 0.302,12.954944 0.7748,19.366822 2.3813,3.552348 6.2612,6.934955 10.867,5.701836 3.7693,-0.427537 7.3464,-2.671843 10.8977,-3.041549 9.1039,5.060203 20.2149,6.822166 30.2749,3.83961 1.2922,-0.621678 4.7141,-1.395162 3.0946,-3.382632 -1.8342,-1.873409 -3.4926,-3.867445 -4.4885,-6.3026 -4.2966,-6.472688 -12.1784,-8.36278 -18.9739,-10.888737 -9.1952,-3.563581 -12.4412,-14.096457 -13.0185,-23.116114 -1.2466,-14.248147 4.4487,-27.758297 7.0015,-41.561657 1.2425,-10.42679 1.0454,-21.10716 -0.692,-31.46639 -0.7346,-2.108 -0.1436,-6.26788 -3.567,-5.27943 -4.8867,0.11198 -9.7277,-0.26168 -14.4747,-1.33575 z"
           id="path1117" />
        <path
           style="color:#000000;font-style:normal;font-variant:normal;font-weight:normal;font-stretch:normal;font-size:medium;line-height:normal;font-family:sans-serif;font-variant-ligatures:normal;font-variant-position:normal;font-variant-caps:normal;font-variant-numeric:normal;font-variant-alternates:normal;font-variant-east-asian:normal;font-feature-settings:normal;font-variation-settings:normal;text-indent:0;text-align:start;text-decoration:none;text-decoration-line:none;text-decoration-style:solid;text-decoration-color:#000000;letter-spacing:normal;word-spacing:normal;text-transform:none;writing-mode:lr-tb;direction:ltr;text-orientation:mixed;dominant-baseline:auto;baseline-shift:baseline;text-anchor:start;white-space:normal;shape-padding:0;shape-margin:0;inline-size:0;clip-rule:nonzero;display:inline;overflow:visible;visibility:visible;isolation:auto;mix-blend-mode:normal;color-interpolation:sRGB;color-interpolation-filters:linearRGB;solid-color:#000000;solid-opacity:1;vector-effect:none;fill:#f6a436;fill-opacity:1;fill-rule:nonzero;stroke:none;stroke-width:3.63189;stroke-linecap:round;stroke-linejoin:round;stroke-miterlimit:4;stroke-dasharray:none;stroke-dashoffset:0;stroke-opacity:1;color-rendering:auto;image-rendering:auto;shape-rendering:auto;text-rendering:auto;enable-background:accumulate;stop-color:#000000;stop-opacity:1"
           d="m 1127.4805,-168.70898 a 1.8899528,1.8899528 0 0 0 -0.5039,0.0801 c -5.7074,1.72529 -11.2973,5.03569 -15.0996,9.93164 -2.7083,3.15004 -2.2302,7.94752 0.9726,10.53321 3.4131,3.29598 7.7521,6.36738 12.791,7.27344 a 1.8899528,1.8899528 0 0 0 0.2989,0.0293 c -0.022,0.11341 -0.072,0.20733 -0.092,0.32227 a 1.8899528,1.8899528 0 0 0 -0.025,0.24609 c -0.6466,17.22317 0.2014,34.48368 -2.3672,51.144532 -1.0099,6.352856 -3.7333,12.640134 -5.4571,19.324219 a 1.8899528,1.8899528 0 0 0 -0.059,0.558594 c 0.2935,6.390794 0.2977,12.913707 0.7773,19.417969 a 1.8899528,1.8899528 0 0 0 0.3164,0.914062 c 1.3005,1.940035 3.0098,3.865666 5.1777,5.201172 2.1444,1.320972 4.8419,2.000149 7.6563,1.277344 4.1215,-0.520383 7.5397,-2.470356 10.3359,-2.886719 9.3728,4.984327 20.6262,6.736624 30.9766,3.667969 a 1.8899528,1.8899528 0 0 0 0.2812,-0.109375 c 0.3348,-0.161052 1.648,-0.531383 2.836,-1.289063 0.594,-0.37884 1.3017,-0.920605 1.625,-1.953125 0.3233,-1.032519 -0.072,-2.241071 -0.7207,-3.037109 a 1.8899528,1.8899528 0 0 0 -0.1153,-0.128906 c -1.7636,-1.801303 -3.2353,-3.605953 -4.0898,-5.695313 a 1.8899528,1.8899528 0 0 0 -0.1738,-0.330078 c -4.7865,-7.210613 -13.2338,-9.142459 -19.8672,-11.605469 -4.0816,-1.582367 -6.8366,-4.674224 -8.7207,-8.572265 -1.8844,-3.898574 -2.8166,-8.571032 -3.0938,-12.902344 a 1.8899528,1.8899528 0 0 0 0,-0.04492 c -1.194,-13.646965 4.3724,-26.971965 6.9765,-41.052735 a 1.8899528,1.8899528 0 0 0 0.018,-0.12109 c 1.2632,-10.60067 1.0635,-21.45676 -0.7051,-32.00196 a 1.8899528,1.8899528 0 0 0 -0.078,-0.30859 c -0.1884,-0.54053 -0.252,-2.14379 -0.7578,-3.74805 -0.2529,-0.80213 -0.6881,-1.74816 -1.666,-2.38281 -0.9779,-0.63465 -2.2699,-0.68289 -3.4512,-0.3418 l 0.4805,-0.0742 c -4.7619,0.10912 -9.4464,-0.2552 -14.0156,-1.28906 a 1.8899528,1.8899528 0 0 0 -0.459,-0.0469 z m 0.2422,3.82812 c 4.7261,1.01019 9.5148,1.39523 14.3183,1.28516 a 1.8899528,1.8899528 0 0 0 0.4805,-0.0723 c 0.5304,-0.15313 0.4486,-0.0523 0.3457,-0.11914 -0.1029,-0.0668 0,-0.0282 0.1211,0.34961 0.2382,0.75557 0.2467,2.28799 0.7929,3.85547 l -0.08,-0.31055 c 1.7025,10.15139 1.8986,20.63133 0.6855,30.86328 -2.5056,13.50234 -8.3036,27.17429 -7.0137,41.996097 0.3018,4.682056 1.2809,9.776882 3.459,14.283203 2.1818,4.513673 5.6471,8.469762 10.7598,10.451172 a 1.8899528,1.8899528 0 0 0 0.023,0.0098 c 6.9543,2.58496 14.2572,4.4354 18.0586,10.162109 l -0.1758,-0.330078 c 1.037,2.535493 2.6838,4.540911 4.4063,6.355469 -0.4589,0.225456 -1.1208,0.480909 -1.8555,0.8125 -9.4878,2.794293 -20.0845,1.134661 -28.7636,-3.689454 a 1.8899528,1.8899528 0 0 0 -1.1133,-0.226562 c -4.2047,0.43773 -7.7496,2.68381 -10.916,3.042969 a 1.8899528,1.8899528 0 0 0 -0.2754,0.05273 c -1.7579,0.470631 -3.2684,0.09576 -4.7871,-0.839844 -1.3982,-0.861308 -2.6852,-2.253881 -3.7286,-3.724609 -0.4205,-6.042337 -0.4602,-12.229696 -0.7363,-18.439453 1.6301,-6.215767 4.3641,-12.541966 5.461,-19.451172 a 1.8899528,1.8899528 0 0 0 0,-0.0078 c 2.6376,-17.108517 1.7789,-34.452777 2.4043,-51.396487 0.298,-1.67828 1.1949,-3.58168 1.9863,-5.74023 0.7962,-2.17147 1.4508,-4.71912 0.7188,-7.48243 -0.525,-2.29289 -2.3817,-3.76438 -4.1953,-4.26367 -1.8278,-0.50317 -3.68,-0.35011 -5.2266,-0.0469 a 1.8899528,1.8899528 0 0 0 -0.3203,0.0937 c 0.084,-0.0326 -1.0404,0.10512 -2.1602,0.34765 -0.5598,0.12127 -1.201,0.27787 -1.8672,0.82422 -0.6661,0.54636 -1.1478,1.69122 -1.0292,2.63867 a 1.8899528,1.8899528 0 0 0 1.0546,1.4668 c 1.6485,0.79472 3.22,0.35134 4.3829,0.0156 1.1628,-0.33572 2.1108,-0.59431 2.5234,-0.56055 a 1.8899528,1.8899528 0 0 0 0.2051,0.006 c 0.6579,-0.018 1.023,0.22939 1.3281,0.68945 0.3051,0.46006 0.4364,1.14354 0.2441,1.79492 a 1.8899528,1.8899528 0 0 0 -0.033,0.125 c -0.2928,1.31447 -0.4556,2.68943 -0.7832,3.74414 -0.2567,0.82662 -0.6018,1.14513 -0.9765,1.45118 -3.6515,-0.91146 -7.1972,-3.30164 -10.0703,-6.09375 a 1.8899528,1.8899528 0 0 0 -0.1407,-0.12305 c -1.6133,-1.28232 -1.8532,-3.59175 -0.4902,-5.16406 a 1.8899528,1.8899528 0 0 0 0.068,-0.084 c 3.1229,-4.04899 7.9376,-6.98083 12.9082,-8.55078 z m -2.1582,8.43359 0.205,0.004 c -0.052,-0.004 -0.088,0.0146 -0.1386,0.0117 -0.024,3.3e-4 -0.042,-0.0163 -0.066,-0.0156 z m 48.707,110.767582 c 0.04,0.04129 0.075,0.09174 0.1152,0.132813 l -0.1152,-0.128906 c 0,0.0016 0,-0.0054 0,-0.0039 z"
           id="path1119" />
      </g>
      <g
         id="g1121"
         transform="matrix(0.26458333,0,0,0.26458333,164.79762,-30.994048)"
         style="opacity:1;stroke-width:0.960938">
        <path
           style="color:#000000;font-style:normal;font-variant:normal;font-weight:normal;font-stretch:normal;font-size:medium;line-height:normal;font-family:sans-serif;font-variant-ligatures:normal;font-variant-position:normal;font-variant-caps:normal;font-variant-numeric:normal;font-variant-alternates:normal;font-variant-east-asian:normal;font-feature-settings:normal;font-variation-settings:normal;text-indent:0;text-align:start;text-decoration:none;text-decoration-line:none;text-decoration-style:solid;text-decoration-color:#000000;letter-spacing:normal;word-spacing:normal;text-transform:none;writing-mode:lr-tb;direction:ltr;text-orientation:mixed;dominant-baseline:auto;baseline-shift:baseline;text-anchor:start;white-space:normal;shape-padding:0;shape-margin:0;inline-size:0;clip-rule:nonzero;display:inline;overflow:visible;visibility:visible;isolation:auto;mix-blend-mode:normal;color-interpolation:sRGB;color-interpolation-filters:linearRGB;solid-color:#000000;solid-opacity:1;vector-effect:none;fill:#029901;fill-opacity:1;fill-rule:nonzero;stroke:none;stroke-width:3.63189;stroke-linecap:round;stroke-linejoin:round;stroke-miterlimit:4;stroke-dasharray:none;stroke-dashoffset:0;stroke-opacity:1;color-rendering:auto;image-rendering:auto;shape-rendering:auto;text-rendering:auto;enable-background:accumulate;stop-color:#000000;stop-opacity:1"
           d="m 1162.4928,-176.7981 c -2.982,2.93474 -5.6807,6.33149 -9.6,8.19624 -1.916,1.62366 -5.354,1.28136 -6.6571,3.52903 1.128,6.67971 2.3623,13.39914 2.0829,20.23657 0.2938,9.4764 -0.2471,18.9013 -3.2749,27.94069 -2.8704,9.03228 -4.7442,18.430311 -4.2101,27.951135 -0.5252,9.384418 3.588,20.193258 12.8549,23.893477 6.7579,2.429922 15.0226,4.391784 18.7855,11.181717 0.3636,3.396411 3.2438,2.930841 5.7719,2.462247 2.4499,-0.577196 5.9572,-0.209945 7.5712,-2.442519 -0.032,-3.671041 -3.6478,-6.155865 -5.838,-8.709545 -6.3137,-6.278604 -13.9271,-10.997642 -20.9853,-16.323298 -2.2417,-10.346776 -2.2469,-21.125854 -0.9248,-31.620144 1.9985,-12.12122 6.1485,-23.9959 6.0097,-36.44171 -0.015,-9.76129 -0.2926,-19.55118 -0.8293,-29.28765 -0.057,-0.35075 -0.3623,-0.69949 -0.7566,-0.56624 z"
           id="path1123" />
        <path
           style="color:#000000;font-style:normal;font-variant:normal;font-weight:normal;font-stretch:normal;font-size:medium;line-height:normal;font-family:sans-serif;font-variant-ligatures:normal;font-variant-position:normal;font-variant-caps:normal;font-variant-numeric:normal;font-variant-alternates:normal;font-variant-east-asian:normal;font-feature-settings:normal;font-variation-settings:normal;text-indent:0;text-align:start;text-decoration:none;text-decoration-line:none;text-decoration-style:solid;text-decoration-color:#000000;letter-spacing:normal;word-spacing:normal;text-transform:none;writing-mode:lr-tb;direction:ltr;text-orientation:mixed;dominant-baseline:auto;baseline-shift:baseline;text-anchor:start;white-space:normal;shape-padding:0;shape-margin:0;inline-size:0;clip-rule:nonzero;display:inline;overflow:visible;visibility:visible;isolation:auto;mix-blend-mode:normal;color-interpolation:sRGB;color-interpolation-filters:linearRGB;solid-color:#000000;solid-opacity:1;vector-effect:none;fill:#f6a436;fill-opacity:1;fill-rule:nonzero;stroke:none;stroke-width:3.63189;stroke-linecap:round;stroke-linejoin:round;stroke-miterlimit:4;stroke-dasharray:none;stroke-dashoffset:0;stroke-opacity:1;color-rendering:auto;image-rendering:auto;shape-rendering:auto;text-rendering:auto;enable-background:accumulate;stop-color:#000000;stop-opacity:1"
           d="m 1163.1641,-178.63281 c -0.418,-0.092 -0.8699,-0.0921 -1.2754,0.0449 a 1.8899528,1.8899528 0 0 0 -0.7207,0.44336 c -3.0953,3.04626 -5.6687,6.20911 -9.0879,7.83594 a 1.8899528,1.8899528 0 0 0 -0.4082,0.26562 c -0.4827,0.40906 -1.5559,0.74365 -2.9063,1.16992 -1.3503,0.42627 -3.1299,1.06785 -4.164,2.85157 a 1.8899528,1.8899528 0 0 0 -0.2286,1.26367 c 1.1311,6.69772 2.3248,13.28364 2.0567,19.84375 a 1.8899528,1.8899528 0 0 0 0,0.13672 c 0.2904,9.3658 -0.2541,18.5527 -3.1777,27.28125 a 1.8899528,1.8899528 0 0 0 -0.01,0.0273 c -2.892,9.10014 -4.807,18.65535 -4.2949,28.417969 -2e-4,0.0038 2e-4,0.0079 0,0.01172 -0.5566,10.01228 3.7798,21.644954 14.041,25.742187 a 1.8899528,1.8899528 0 0 0 0.061,0.02344 c 6.9148,2.48633 14.5025,4.42152 17.7715,10.320313 l -0.2246,-0.714844 c 0.1195,1.116211 0.4789,2.126445 1.1348,2.902344 0.6558,0.775899 1.5578,1.225336 2.3925,1.417969 1.6695,0.385264 3.1866,0.03612 4.4668,-0.201172 a 1.8899528,1.8899528 0 0 0 0.09,-0.01953 c 0.9419,-0.221922 2.4332,-0.28597 4.0137,-0.582032 1.5804,-0.296061 3.4377,-0.908942 4.6543,-2.591797 a 1.8899528,1.8899528 0 0 0 0.3593,-1.123046 c -0.021,-2.452176 -1.2434,-4.421591 -2.5566,-5.976563 -1.3132,-1.554972 -2.7786,-2.830593 -3.7363,-3.947265 a 1.8899528,1.8899528 0 0 0 -0.1016,-0.109376 c -6.3357,-6.300497 -13.7721,-10.976301 -20.582,-16.060546 -2.0398,-9.865732 -2.0589,-20.171321 -0.791,-30.263671 1.964,-11.89162 6.1714,-23.86913 6.0293,-36.73632 -0.015,-9.7913 -0.2937,-19.61063 -0.8321,-29.37696 a 1.8899528,1.8899528 0 0 0 -0.022,-0.19922 c -0.098,-0.60476 -0.3524,-1.13508 -0.8847,-1.59375 -0.2662,-0.22933 -0.6485,-0.4119 -1.0664,-0.5039 z m -1.7129,5.58789 c 0.4295,8.68741 0.7249,17.40334 0.7383,26.10351 a 1.8899528,1.8899528 0 0 0 0,0.0176 c 0.1339,12.0124 -3.9498,23.7732 -5.9844,36.11328 a 1.8899528,1.8899528 0 0 0 -0.012,0.0723 c -1.3423,10.65412 -1.346,21.644223 0.9531,32.255858 a 1.8899528,1.8899528 0 0 0 0.709,1.109375 c 7.1513,5.395912 14.6802,10.077457 20.791,16.154297 l -0.1016,-0.109375 c 1.2325,1.437008 2.6685,2.680208 3.7188,3.923828 0.7984,0.945435 1.2354,1.821649 1.4531,2.71875 -0.4209,0.333355 -0.8269,0.652881 -1.7207,0.820313 -1.1892,0.222755 -2.6756,0.263866 -4.1836,0.61914 l 0.09,-0.01953 c -1.2478,0.231299 -2.4361,0.350233 -2.9296,0.236328 -0.2468,-0.05695 -0.2901,-0.09838 -0.3555,-0.175781 -0.065,-0.0774 -0.2014,-0.283239 -0.2637,-0.865234 a 1.8899528,1.8899528 0 0 0 -0.2265,-0.714844 c -4.2474,-7.664068 -13.1553,-9.662705 -19.752,-12.029297 -8.2585,-3.307674 -12.1439,-13.274711 -11.6543,-22.023438 a 1.8899528,1.8899528 0 0 0 0,-0.21289 c -0.5158,-9.195238 1.2925,-18.35472 4.1152,-27.24414 l 0.01,-0.0273 c 3.1092,-9.29798 3.651,-18.904 3.3632,-28.4375 0.2758,-6.74965 -0.8679,-13.24738 -1.9453,-19.58593 0.3249,-0.33321 0.693,-0.6247 1.6406,-0.92383 1.1735,-0.37041 2.7796,-0.67603 4.2129,-1.89063 l -0.4101,0.26563 c 3.2504,-1.54651 5.5687,-3.88015 7.7461,-6.15039 z"
           id="path1125" />
      </g>
      <g
         id="g1127"
         transform="matrix(0.26458333,0,0,0.26458333,164.79762,-30.994048)"
         style="opacity:1;stroke-width:0.960938">
        <path
           style="color:#000000;font-style:normal;font-variant:normal;font-weight:normal;font-stretch:normal;font-size:medium;line-height:normal;font-family:sans-serif;font-variant-ligatures:normal;font-variant-position:normal;font-variant-caps:normal;font-variant-numeric:normal;font-variant-alternates:normal;font-variant-east-asian:normal;font-feature-settings:normal;font-variation-settings:normal;text-indent:0;text-align:start;text-decoration:none;text-decoration-line:none;text-decoration-style:solid;text-decoration-color:#000000;letter-spacing:normal;word-spacing:normal;text-transform:none;writing-mode:lr-tb;direction:ltr;text-orientation:mixed;dominant-baseline:auto;baseline-shift:baseline;text-anchor:start;white-space:normal;shape-padding:0;shape-margin:0;inline-size:0;clip-rule:nonzero;display:inline;overflow:visible;visibility:visible;isolation:auto;mix-blend-mode:normal;color-interpolation:sRGB;color-interpolation-filters:linearRGB;solid-color:#000000;solid-opacity:1;vector-effect:none;fill:#029901;fill-opacity:1;fill-rule:nonzero;stroke:none;stroke-width:3.63189;stroke-linecap:round;stroke-linejoin:round;stroke-miterlimit:4;stroke-dasharray:none;stroke-dashoffset:0;stroke-opacity:1;color-rendering:auto;image-rendering:auto;shape-rendering:auto;text-rendering:auto;enable-background:accumulate;stop-color:#000000;stop-opacity:1"
           d="m 1190.5107,-367.1576 c -3.7792,3.55199 -6.5264,8.31649 -9.8282,12.3761 -5.1795,6.78701 -9.9256,14.02566 -15.6604,20.32167 -2.8154,-0.58074 -5.2036,-3.4099 -8.1108,-3.06203 -1.5871,3.60933 -1.7049,7.73702 -3.0807,11.44708 -4.3809,-1.12362 -8.2493,-3.84812 -12.4888,-5.17407 -2.1259,4.6595 -2.8502,10.05073 -5.4572,14.51404 -3.7502,-0.28799 -7.669,-1.91698 -11.3869,-1.8309 -1.5974,3.54224 -0.8672,7.93329 -2.7207,11.30305 -2.8071,0.0861 -5.3017,-2.21656 -8.1276,-2.11599 -1.3877,3.72315 -0.7512,8.11024 -1.7027,12.0222 -3.1286,0.0418 -6.1921,-0.87295 -9.3054,-0.94406 -1.0469,1.70561 0.4067,4.18958 0.2969,6.13589 0.6952,3.13659 1.1564,6.23576 -1.0227,8.91292 -2.8611,5.25479 -5.0197,12.50446 -0.533,17.54933 6.0239,7.09788 16.1144,6.78053 24.4786,8.41248 18.3855,3.9738 32.4116,20.17244 36.7174,38.08841 3.8665,13.16885 3.118,26.95102 2.9925,40.52108 -0.1941,1.24158 0.01,4.59877 1.7782,2.7139 6.4645,-6.83239 9.244,-16.11786 10.4496,-25.24205 2.4167,-12.58789 3.9547,-25.40392 6.0628,-37.98966 3.0212,-10.68751 9.7417,-19.90838 16.5452,-28.5176 10.9329,-13.35878 25.0035,-24.95641 41.9048,-29.59724 6.6419,-2.10706 13.6641,-2.67479 20.5543,-2.94562 1.8605,-1.45589 0.9148,-4.54675 1.527,-6.58967 -0.3771,-2.27397 2.1627,-6.96494 -1.4215,-6.98898 -7.9612,-1.03648 -15.7619,1.87994 -23.5439,3.12185 -6.9979,1.24609 -13.8935,3.64222 -20.9018,4.32585 0.068,-3.62583 0.047,-7.51481 1.171,-10.98246 1.7693,-1.78219 4.0486,-3.82865 6.3282,-4.49932 1.5277,1.56273 1.4471,4.89824 3.6253,5.59925 2.1158,-1.43106 2.1542,-5.12232 4.4727,-6.0915 1.9361,1.03661 2.5608,4.31223 4.8041,4.51708 2.1551,-2.45018 2.6531,-6.21025 4.9433,-8.44819 1.9162,1.96926 2.15,5.12876 4.1471,6.9961 2.1521,-0.82904 2.9985,-3.79 4.525,-5.46805 0.8677,-0.7894 2.1744,-4.20879 3.2988,-2.06469 1.933,2.34216 2.8126,6.55903 6.5818,6.39138 1.5283,0.34973 3.5331,0.2708 3.6381,-1.75494 1.9913,-6.46647 4.1778,-12.99696 5.0892,-19.70291 -1.4985,-1.17254 -4.0012,0.25741 -5.8415,0.14388 -12.2526,1.67665 -24.4356,3.97618 -36.6924,5.50568 -0.6391,-2.00729 0.4292,-4.52217 -0.7182,-6.24144 h -20.713 c -0.1439,-7.46116 0.3227,-14.98023 -0.3927,-22.40783 -1.6253,-0.799 -2.8268,2.16043 -4.1875,2.86571 -3.7217,3.3329 -7.0167,7.58148 -11.1433,10.23766 -0.8188,-4.97508 0.8349,-10.24026 -0.3324,-15.12368 -0.15,-0.17629 -0.3888,-0.26948 -0.6186,-0.23971 z m 20.5918,36.78178 c 2.2806,-0.33187 -0.034,1.66435 -0.6472,2.24523 -5.9501,5.21037 -12.2037,10.08432 -18.5862,14.76756 -4.2038,-3.80623 -8.3102,-8.00342 -11.4471,-12.693 2.2831,-1.04185 5.7965,-0.79466 8.4795,-1.43031 7.3991,-0.99484 14.7733,-2.15751 22.201,-2.88948 z"
           id="path1129" />
        <path
           id="path1131"
           style="color:#000000;font-style:normal;font-variant:normal;font-weight:normal;font-stretch:normal;font-size:medium;line-height:normal;font-family:sans-serif;font-variant-ligatures:normal;font-variant-position:normal;font-variant-caps:normal;font-variant-numeric:normal;font-variant-alternates:normal;font-variant-east-asian:normal;font-feature-settings:normal;font-variation-settings:normal;text-indent:0;text-align:start;text-decoration:none;text-decoration-line:none;text-decoration-style:solid;text-decoration-color:#000000;letter-spacing:normal;word-spacing:normal;text-transform:none;writing-mode:lr-tb;direction:ltr;text-orientation:mixed;dominant-baseline:auto;baseline-shift:baseline;text-anchor:start;white-space:normal;shape-padding:0;shape-margin:0;inline-size:0;clip-rule:nonzero;display:inline;overflow:visible;visibility:visible;isolation:auto;mix-blend-mode:normal;color-interpolation:sRGB;color-interpolation-filters:linearRGB;solid-color:#000000;solid-opacity:1;vector-effect:none;fill:#f6a436;fill-opacity:1;fill-rule:nonzero;stroke:none;stroke-width:3.63189;stroke-linecap:round;stroke-linejoin:round;stroke-miterlimit:4;stroke-dasharray:none;stroke-dashoffset:0;stroke-opacity:1;color-rendering:auto;image-rendering:auto;shape-rendering:auto;text-rendering:auto;enable-background:accumulate;stop-color:#000000;stop-opacity:1"
           d="m 1190.9219,-369.03711 c -0.2124,-0.0248 -0.4309,-0.0231 -0.6543,0.006 a 1.8899528,1.8899528 0 0 0 -1.0508,0.49609 c -4.0607,3.81656 -6.8311,8.66438 -10,12.56055 a 1.8899528,1.8899528 0 0 0 -0.037,0.0469 c -4.9594,6.49862 -9.5023,13.23657 -14.7227,19.16015 -0.7658,-0.31893 -1.5196,-0.65109 -2.5312,-1.21875 -1.3904,-0.78017 -3.124,-1.6651 -5.2383,-1.41211 a 1.8899528,1.8899528 0 0 0 -1.5059,1.11524 c -1.4788,3.36305 -1.8904,6.69217 -2.6562,9.65625 -3.3337,-1.22951 -6.6812,-3.19414 -10.6192,-4.42578 a 1.8899528,1.8899528 0 0 0 -2.2832,1.01953 c -2.0802,4.55942 -2.9295,9.31697 -4.8242,13.17578 -3.0612,-0.47593 -6.5339,-1.68591 -10.3457,-1.59766 a 1.8899528,1.8899528 0 0 0 -1.6777,1.11328 c -0.9634,2.13625 -1.17,4.31393 -1.416,6.25391 -0.174,1.37149 -0.4253,2.55041 -0.7735,3.61719 -0.665,-0.15215 -1.271,-0.23789 -2.1406,-0.59961 -1.3298,-0.5532 -2.9183,-1.26649 -4.8633,-1.19727 a 1.8899528,1.8899528 0 0 0 -1.7031,1.22852 c -1.3965,3.74673 -1.1901,7.45707 -1.6035,10.625 -2.3443,-0.19872 -4.7527,-0.71054 -7.5918,-0.77539 a 1.8899528,1.8899528 0 0 0 -1.6524,0.90039 c -0.9412,1.53371 -0.6889,3.14213 -0.4453,4.34179 0.2437,1.19967 0.4908,2.21599 0.4649,2.67579 a 1.8899528,1.8899528 0 0 0 0.043,0.51562 c 0.6764,3.05223 1.0014,5.28841 -0.6446,7.31055 a 1.8899528,1.8899528 0 0 0 -0.1933,0.28906 c -1.5097,2.77265 -2.8641,6.08917 -3.2403,9.55469 -0.3755,3.45994 0.3138,7.17026 2.9453,10.13867 6.7097,7.88292 17.4829,7.46228 25.5118,9.02344 17.537,3.79629 31.1201,19.4227 35.2675,36.67968 a 1.8899528,1.8899528 0 0 0 0.025,0.0899 c 3.5157,11.97414 3.1148,24.67258 2.9473,37.44922 a 2.066721,2.1531172 0 0 0 -1.8145,2.13672 2.066721,2.1531172 0 0 0 1.7461,2.12695 c 0.045,0.44455 0.1238,0.90427 0.2832,1.39258 0.2107,0.64533 0.6216,1.64104 1.8926,1.97265 0.6355,0.16581 1.3045,0.0266 1.7735,-0.20508 0.4688,-0.23167 0.8098,-0.53265 1.1328,-0.87695 6.8625,-7.25629 9.7124,-16.95627 10.9453,-26.28711 2.4124,-12.59291 3.9508,-25.33797 6.0312,-37.78515 2.9053,-10.21887 9.4154,-19.22961 16.166,-27.77344 v -0.002 c 10.769,-13.15817 24.5595,-24.47 40.9434,-28.96875 a 1.8899528,1.8899528 0 0 0 0.07,-0.0215 c 6.3692,-2.02055 13.2197,-2.59064 20.0567,-2.85937 a 1.8899528,1.8899528 0 0 0 1.0917,-0.39844 c 1.5638,-1.2237 1.8705,-3.07496 1.9532,-4.45117 0.083,-1.37621 0.065,-2.57183 0.2187,-3.08594 a 1.8899528,1.8899528 0 0 0 0.055,-0.85156 c -0.042,-0.25458 0.3376,-2.06936 0.5078,-3.84766 0.085,-0.88915 0.1394,-1.90794 -0.4707,-2.98242 -0.6026,-1.06133 -1.9681,-1.70228 -3.2637,-1.72656 -8.4973,-1.04771 -16.4355,1.9412 -23.9023,3.13281 a 1.8899528,1.8899528 0 0 0 -0.033,0.006 c -6.437,1.14622 -12.5736,3.01912 -18.5977,3.90039 0.07,-2.72084 0.2409,-5.37987 0.9239,-7.70508 1.2226,-1.19284 2.5609,-2.21764 3.8261,-2.93555 0.1965,0.43738 0.343,0.64323 0.5899,1.26563 0.4877,1.22922 1.3048,2.95776 3.2324,3.57812 a 1.8899528,1.8899528 0 0 0 1.6387,-0.23437 c 1.6781,-1.135 2.2729,-2.80943 2.8183,-3.99219 0.2525,-0.54756 0.4101,-0.58148 0.6133,-0.88867 0.2545,0.32566 0.3951,0.41044 0.7188,0.875 0.7337,1.05327 1.8822,2.56411 3.8965,2.74805 a 1.8899528,1.8899528 0 0 0 1.5898,-0.63282 c 1.3465,-1.53084 2.0564,-3.27523 2.7285,-4.7832 0.2381,-0.5341 0.5125,-0.79984 0.75,-1.26172 0.1132,0.24943 0.2357,0.35967 0.3535,0.63281 0.5528,1.28145 1.1888,2.82011 2.5489,4.0918 a 1.8899528,1.8899528 0 0 0 1.9707,0.38281 c 1.7027,-0.65593 2.6721,-2.00585 3.4101,-3.16406 0.7381,-1.15821 1.3241,-2.23656 1.8321,-2.79492 0.4465,-0.43901 0.6583,-0.81789 0.9043,-1.19141 0.026,-0.0401 0.042,-0.0582 0.068,-0.0977 0.5715,0.89571 1.1198,1.94382 1.9863,3.17578 1.0487,1.49089 2.8542,3.01031 5.2754,3.04297 0.9323,0.20044 2.0061,0.31887 3.1856,-0.0645 1.1585,-0.37651 2.3092,-1.6343 2.541,-3.11523 1.974,-6.40373 4.1846,-12.99274 5.123,-19.89844 a 1.8899528,1.8899528 0 0 0 -0.7089,-1.74414 c -1.445,-1.13067 -3.1212,-0.91696 -4.3067,-0.69336 -1.1855,0.22361 -2.2011,0.46294 -2.582,0.43946 a 1.8899528,1.8899528 0 0 0 -0.3731,0.0137 c -11.6494,1.59411 -23.1658,3.69374 -34.6855,5.20703 0,-0.36243 -0.049,-0.5385 -0.031,-0.98242 0.047,-1.16585 0.095,-2.69796 -0.8652,-4.13672 a 1.8899528,1.8899528 0 0 0 -1.5723,-0.83985 h -18.8203 c -0.048,-6.77875 0.2694,-13.70488 -0.4043,-20.69921 a 1.8899528,1.8899528 0 0 0 -1.0468,-1.51563 c -0.9036,-0.44419 -2.0683,-0.35189 -2.8086,0.008 -0.7404,0.3597 -1.2032,0.83853 -1.6055,1.27344 -0.8047,0.86983 -1.5532,1.64325 -1.4766,1.60352 a 1.8899528,1.8899528 0 0 0 -0.3925,0.26953 c -2.9169,2.61211 -5.512,5.37693 -8.1797,7.7207 0.1265,-3.5542 0.7862,-7.52403 -0.1973,-11.63867 a 1.8899528,1.8899528 0 0 0 -0.3984,-0.78516 c -0.4339,-0.5099 -1.0094,-0.82021 -1.6465,-0.89453 z m -1.2949,5.83399 c 0.019,3.50844 -0.7225,7.50313 -0.029,11.71484 a 1.8899528,1.8899528 0 0 0 2.8867,1.2832 c 4.462,-2.87205 7.7661,-7.14821 11.2617,-10.30859 0.5498,-0.32912 0.9556,-0.70217 1.2793,-1.06445 0.3454,6.25426 0.1444,12.63923 0.2695,19.125 a 1.8899528,1.8899528 0 0 0 1.8906,1.85351 h 19.2442 c 0.051,0.32052 0.1535,0.47964 0.1308,1.04688 -0.041,1.02323 -0.2252,2.36586 0.2559,3.87695 a 1.8899528,1.8899528 0 0 0 2.0332,1.30273 c 12.3147,-1.5367 24.4851,-3.83072 36.6543,-5.49804 1.308,0.0168 2.37,-0.33701 3.2031,-0.49414 0.1306,-0.0246 0.078,0.009 0.1856,-0.006 -0.9986,5.86926 -2.8201,11.71998 -4.6367,17.61914 a 1.8899528,1.8899528 0 0 0 -0.082,0.45898 c 0,0.0396 0.01,0.0432 0.01,0.0684 -0.1673,0.051 -0.7842,0.0701 -1.3378,-0.0566 a 1.8899528,1.8899528 0 0 0 -0.504,-0.0469 c -1.1754,0.0523 -1.5835,-0.36115 -2.3515,-1.45313 -0.7201,-1.02379 -1.4281,-2.57156 -2.5215,-3.98828 -0.2174,-0.40277 -0.474,-0.79419 -0.9121,-1.12695 -0.4616,-0.35062 -1.172,-0.57282 -1.7813,-0.50782 -1.2184,0.13001 -1.7193,0.806 -2.125,1.28907 -0.4056,0.48307 -0.7063,0.96492 -0.9609,1.35156 -0.2546,0.38663 -0.5268,0.70038 -0.416,0.59961 a 1.8899528,1.8899528 0 0 0 -0.127,0.125 c -1.0185,1.11969 -1.6198,2.35955 -2.2246,3.30859 -0.1926,0.30228 -0.3268,0.30983 -0.5039,0.53125 -0.2459,-0.4512 -0.5166,-0.72687 -0.7676,-1.30859 -0.5424,-1.25746 -1.1402,-2.78634 -2.4238,-4.10547 a 1.8899528,1.8899528 0 0 0 -2.6758,-0.0332 c -1.4745,1.44086 -2.2395,3.18246 -2.9277,4.72656 -0.4297,0.96414 -0.8821,1.6301 -1.3203,2.38867 -0.1335,-0.16066 -0.1537,-0.0746 -0.3399,-0.3418 -0.6234,-0.8949 -1.3216,-2.2869 -2.9453,-3.15625 a 1.8899528,1.8899528 0 0 0 -1.6211,-0.0781 c -1.9435,0.81242 -2.7185,2.56128 -3.3007,3.82422 -0.2433,0.52746 -0.4145,0.64104 -0.627,1.02148 -0.048,-0.10979 -0.064,-0.0495 -0.1172,-0.18359 -0.3985,-1.00447 -0.7274,-2.47421 -1.9726,-3.74805 a 1.8899528,1.8899528 0 0 0 -1.8848,-0.49023 c -2.951,0.86819 -5.3053,3.13571 -7.1367,4.98047 a 1.8899528,1.8899528 0 0 0 -0.4571,0.74804 c -1.2539,3.86846 -1.1943,7.93609 -1.2617,11.5293 a 1.8899528,1.8899528 0 0 0 2.0723,1.91797 c 7.3012,-0.71221 14.2295,-3.12939 21.0156,-4.3418 l 0.035,-0.006 c 8.0295,-1.286 15.623,-4.06351 22.9668,-3.10742 a 1.8899528,1.8899528 0 0 0 0.2324,0.0156 c 0.051,3.5e-4 0.015,-0.009 0.049,-0.01 0,0.0454 0.039,0.14323 0,0.58984 -0.1013,1.05834 -0.6432,2.60439 -0.4648,4.42774 -0.2921,1.32 -0.2726,2.56771 -0.3282,3.49218 -0.051,0.84379 -0.2158,1.11526 -0.4121,1.375 -6.6202,0.28844 -13.4329,0.8664 -20.0058,2.94336 -17.4102,4.78602 -31.7548,16.66255 -42.8477,30.2168 a 1.8899528,1.8899528 0 0 0 -0.022,0.0254 c -6.8351,8.64925 -13.7375,18.05419 -16.8808,29.17383 a 1.8899528,1.8899528 0 0 0 -0.045,0.20312 c -2.1178,12.6442 -3.6547,25.44487 -6.0546,37.94532 a 1.8899528,1.8899528 0 0 0 -0.018,0.10742 c -1.0672,8.07699 -3.5291,16.01948 -8.4649,22.22461 0.1403,-13.31991 0.8562,-27.0803 -3.0566,-40.44922 -4.4742,-18.55522 -18.9301,-35.30212 -38.1445,-39.45508 a 1.8899528,1.8899528 0 0 0 -0.037,-0.008 c -8.6898,-1.69547 -18.0662,-1.49834 -23.3985,-7.78125 a 1.8899528,1.8899528 0 0 0 -0.029,-0.0332 c -1.8446,-2.07409 -2.3202,-4.5021 -2.0234,-7.23633 0.2935,-2.70526 1.4306,-5.60503 2.7637,-8.07031 2.4824,-3.23315 1.9641,-7.0196 1.2812,-10.14454 0,-1.32016 -0.3474,-2.41278 -0.5254,-3.28906 -0.062,-0.30647 0.01,-0.30261 -0.012,-0.51758 2.3443,0.26398 4.8498,0.78799 7.6934,0.75 a 1.8899528,1.8899528 0 0 0 1.8105,-1.44336 c 0.9122,-3.75031 0.7821,-7.26551 1.3809,-10.17968 0.5928,0.16163 1.0897,0.19984 1.83,0.50781 1.3257,0.55146 2.9032,1.26839 4.8399,1.20898 a 1.8899528,1.8899528 0 0 0 1.5996,-0.97851 c 1.1443,-2.08041 1.4222,-4.27622 1.6738,-6.25977 0.1875,-1.47851 0.4912,-2.67549 0.8301,-3.85937 2.8791,0.27508 6.1729,1.34039 9.8027,1.61914 a 1.8899528,1.8899528 0 0 0 1.7754,-0.92969 c 2.5111,-4.29912 3.4478,-8.92358 4.9453,-12.92773 3.3294,1.35825 6.754,3.40134 10.9004,4.46484 a 1.8899528,1.8899528 0 0 0 2.2403,-1.17383 c 1.3395,-3.61225 1.6973,-7.10583 2.6855,-10.06641 0.5245,0.15702 1.0989,0.4057 1.7891,0.79297 1.2343,0.69263 2.6656,1.69037 4.5644,2.08203 a 1.8899528,1.8899528 0 0 0 1.7793,-0.57812 c 5.8709,-6.44537 10.6415,-13.73281 15.7656,-20.44727 l -0.037,0.0449 c 2.6641,-3.27549 4.977,-6.65074 7.4786,-9.61328 z m 21.7949,30.90039 c -0.195,0.007 -0.3827,0.0284 -0.5781,0.0566 -7.4749,0.73952 -14.8473,1.899 -22.1934,2.88671 a 1.8899528,1.8899528 0 0 0 -0.1836,0.0332 c -2.2159,0.52499 -5.7781,0.15808 -8.8301,1.55078 a 1.8899528,1.8899528 0 0 0 -0.7851,2.76953 c 3.2709,4.88996 7.4877,9.18378 11.75,13.04297 a 1.8899528,1.8899528 0 0 0 2.3847,0.12305 c 6.412,-4.7049 12.7105,-9.61123 18.7149,-14.86914 a 1.8899528,1.8899528 0 0 0 0.055,-0.0488 c 0.2294,-0.21732 1.03,-0.85629 1.6582,-1.75586 0.157,-0.22489 0.3198,-0.47116 0.4492,-0.88086 0.1294,-0.4097 0.2237,-1.16269 -0.2149,-1.85938 -0.4385,-0.69668 -1.1467,-0.94056 -1.6035,-1.01171 -0.2258,-0.0352 -0.4281,-0.0437 -0.623,-0.0371 z m -4.1074,4.32421 c -4.9322,4.21822 -10.0482,8.24454 -15.2891,12.12305 -2.9996,-2.78604 -5.7756,-5.7849 -8.2051,-8.96094 1.6151,-0.19025 3.4646,-0.36313 5.3692,-0.80078 6.0823,-0.81791 12.1006,-1.65598 18.125,-2.36133 z" />
      </g>
    </g>
  </g>
</svg>
