<svg id="flag-icons-ru-ce" class="fi fi-ru-ce" viewBox="0 0 512 512" xmlns="http://www.w3.org/2000/svg" width="512" height="512">
  <metadata id="flag-icons">
    <name>Chechnya</name>
    <code>ru-ce</code>
    <iso>true</iso>
    <type>Place</type>
    <capital>Grozny</capital>
    <continent>Europe</continent>
  </metadata>
  <g style="stroke-width:.9375">
    <path fill="#fff" d="M0 0h480v480H0" style="display:inline;stroke-width:.659181" transform="scale(1.06667)"/>
    <path fill="#da251d" d="M67.2 326.775H480V480H67.2" style="display:inline;stroke-width:.937497" transform="scale(1.06667)"/>
    <path fill="#2b7338" d="M67.2 0H480v282.827H67.2" style="display:inline;stroke-width:.937497" transform="scale(1.06667)"/>
    <path d="M35.419 356.319c-7.97-.586-16.275 3.105-21.07 11.012l-.007.013-.006.01c-4.603 7.727-5.063 16.049-3.1 23.578s6.218 14.372 11.082 20.01l.084.098 17.014 16.756c4.379 5.085 8.128 11.195 9.767 17.412 1.643 6.234 1.309 12.458-2.452 18.654l-.01.016-.01.016c-5.573 9.414-17.323 10.55-24.129 4.259l-.003-.003c-6.108-5.714-8.219-14.128-3.895-20.127 4.297-5.96 12.096-6.208 15.482-.947 2.993 4.686.7 9.173-2.88 10.07a3.18 3.191 0 0 0-2.311 3.868 3.18 3.191 0 0 0 3.854 2.324c7.907-1.984 11.675-11.907 6.692-19.708l-.003-.003v-.003c-5.869-9.14-19.438-8.425-25.987.66-6.522 9.048-3.213 21.124 4.714 28.537l.006.006.007.006c9.777 9.058 26.391 6.996 33.903-5.65l.003-.01c4.689-7.73 5.154-16.066 3.169-23.597-1.986-7.533-6.283-14.37-11.141-20.001l-.084-.1-17.02-16.763c-4.37-5.077-8.078-11.178-9.7-17.397-1.624-6.233-1.284-12.477 2.4-18.672 5.727-9.433 17.459-10.452 24.466-3.952h.003c5.903 5.515 8.04 14.14 3.73 20.12-4.299 5.963-12.105 6.213-15.488.944l-.016-.022-.013-.022c-3.103-4.672-.682-9.12 2.91-10.02a3.18 3.191 0 0 0 2.315-3.871 3.18 3.191 0 0 0-3.857-2.32c-7.884 1.978-11.835 11.915-6.67 19.726 5.875 9.119 19.427 8.406 25.971-.672 6.535-9.066 3.253-21.249-4.558-28.54l-.003-.004-.007-.003c-3.712-3.444-8.371-5.336-13.153-5.687Zm-.288-118.453c-7.978-.585-16.29 3.108-21.086 11.015l-.01.013-.006.01c-4.602 7.728-5.059 16.045-3.096 23.573 1.962 7.528 6.214 14.372 11.078 20.012l.088.1 17.02 16.758c4.376 5.084 8.123 11.191 9.761 17.407 1.643 6.234 1.305 12.46-2.455 18.656l-.01.016-.006.016c-5.575 9.415-17.309 10.545-24.108 4.25l-.003-.003c-6.1-5.71-8.21-14.123-3.889-20.118 4.297-5.96 12.075-6.21 15.457-.944 2.985 4.682.687 9.169-2.873 10.062a3.196 3.196 0 0 0-2.324 3.877 3.196 3.196 0 0 0 3.879 2.321c7.923-1.988 11.685-11.904 6.701-19.706l-.003-.003-.003-.003c-5.87-9.141-19.467-8.43-26.018.657-6.524 9.05-3.213 21.119 4.717 28.535l.007.006.006.006c9.787 9.065 26.435 6.994 33.944-5.666 4.685-7.728 5.143-16.061 3.16-23.588-1.987-7.533-6.28-14.37-11.139-20.003l-.084-.1-17.02-16.758c-4.37-5.077-8.078-11.18-9.7-17.4-1.625-6.238-1.287-12.486 2.403-18.684l.003-.003c5.728-9.413 17.424-10.426 24.423-3.942 5.904 5.51 8.046 14.147 3.736 20.127-4.297 5.96-12.072 6.207-15.454.941l-.016-.019-.012-.022c-3.103-4.67-.675-9.12 2.9-10.018a3.196 3.196 0 0 0 2.321-3.876 3.196 3.196 0 0 0-3.875-2.325c-7.904 1.983-11.855 11.924-6.68 19.737 5.879 9.115 19.458 8.4 26.002-.679 6.537-9.068 3.254-21.243-4.56-28.537l-.004-.006-.003-.003c-3.714-3.446-8.381-5.336-13.169-5.687zm.288-117.75c-7.97-.586-16.275 3.104-21.07 11.011l-.007.013-.006.009c-4.603 7.727-5.063 16.05-3.1 23.578 1.963 7.53 6.218 14.372 11.082 20.01l.084.098 17.014 16.756c4.379 5.086 8.128 11.195 9.767 17.412 1.643 6.234 1.309 12.459-2.452 18.654l-.01.016-.01.016c-5.573 9.414-17.323 10.55-24.129 4.259l-.003-.003c-6.108-5.714-8.219-14.128-3.895-20.127 4.297-5.96 12.096-6.207 15.482-.947 2.993 4.686.7 9.173-2.88 10.071a3.18 3.191 0 0 0-2.311 3.868 3.18 3.191 0 0 0 3.854 2.323c7.907-1.984 11.675-11.907 6.692-19.708l-.003-.003v-.003c-5.869-9.139-19.438-8.425-25.987.66-6.522 9.048-3.213 21.124 4.714 28.537l.006.006.007.006c9.777 9.058 26.391 6.997 33.903-5.65l.003-.01c4.689-7.729 5.154-16.066 3.169-23.597-1.986-7.533-6.283-14.369-11.141-20.001l-.084-.1-17.02-16.762c-4.37-5.077-8.078-11.179-9.7-17.397-1.624-6.234-1.284-12.478 2.4-18.673 5.727-9.433 17.459-10.451 24.466-3.952h.003c5.903 5.515 8.04 14.14 3.73 20.12-4.299 5.964-12.105 6.213-15.488.945l-.016-.022-.013-.022c-3.103-4.673-.682-9.12 2.91-10.021a3.18 3.191 0 0 0 2.315-3.871 3.18 3.191 0 0 0-3.857-2.32c-7.884 1.978-11.835 11.916-6.67 19.726 5.875 9.12 19.427 8.406 25.971-.672 6.535-9.065 3.253-21.249-4.558-28.54l-.003-.004-.007-.003c-3.712-3.443-8.371-5.335-13.153-5.686ZM35.131 1.661c-7.978-.585-16.29 3.108-21.086 11.016l-.01.012-.006.01c-4.602 7.728-5.059 16.045-3.096 23.573 1.962 7.528 6.214 14.372 11.078 20.012l.088.1 17.02 16.758c4.376 5.083 8.123 11.19 9.761 17.406 1.643 6.234 1.305 12.46-2.455 18.656l-.01.016-.006.015c-5.575 9.416-17.309 10.545-24.108 4.25l-.003-.002c-6.1-5.71-8.21-14.123-3.889-20.118 4.297-5.96 12.075-6.21 15.457-.944 2.985 4.682.687 9.169-2.873 10.062a3.196 3.196 0 0 0-2.324 3.876 3.196 3.196 0 0 0 3.879 2.322c7.923-1.988 11.685-11.904 6.701-19.706l-.003-.004-.003-.003c-5.87-9.141-19.467-8.43-26.018.658-6.524 9.05-3.213 21.118 4.717 28.534l.007.006.006.006c9.787 9.066 26.435 6.995 33.944-5.665 4.685-7.728 5.143-16.062 3.16-23.589-1.986-7.532-6.28-14.37-11.139-20.002l-.084-.1-17.02-16.758c-4.37-5.077-8.077-11.18-9.699-17.4-1.626-6.238-1.288-12.486 2.402-18.684l.003-.003C25.25 6.559 36.946 5.546 43.945 12.03c5.904 5.51 8.046 14.147 3.736 20.127-4.297 5.96-12.072 6.207-15.453.94l-.016-.018-.013-.022c-3.103-4.67-.675-9.12 2.9-10.018a3.196 3.196 0 0 0 2.321-3.876 3.196 3.196 0 0 0-3.875-2.325c-7.904 1.983-11.854 11.924-6.68 19.737 5.88 9.115 19.458 8.4 26.002-.679 6.537-9.068 3.254-21.243-4.56-28.537l-.004-.006-.003-.003c-3.714-3.447-8.381-5.336-13.169-5.688" style="color:#000;fill:#fc0;stroke-width:1.87819;stroke-linecap:round;-inkscape-stroke:none" transform="scale(1.06667)"/>
  </g>
</svg>
