<?xml version="1.0" encoding="UTF-8" standalone="no"?>
<svg
   width="512pt"
   height="511.99997pt"
   version="1.1"
   viewBox="0 0 512 511.99997"
   id="svg31603"
   sodipodi:docname="ru-irk.svg"
   inkscape:version="1.2.2 (b0a84865, 2022-12-01)"
   xmlns:inkscape="http://www.inkscape.org/namespaces/inkscape"
   xmlns:sodipodi="http://sodipodi.sourceforge.net/DTD/sodipodi-0.dtd"
   xmlns="http://www.w3.org/2000/svg"
   xmlns:svg="http://www.w3.org/2000/svg">
  <defs
     id="defs31607" />
  <sodipodi:namedview
     id="namedview31605"
     pagecolor="#ffffff"
     bordercolor="#666666"
     borderopacity="1.0"
     inkscape:showpageshadow="2"
     inkscape:pageopacity="0.0"
     inkscape:pagecheckerboard="0"
     inkscape:deskcolor="#d1d1d1"
     inkscape:document-units="pt"
     showgrid="false"
     inkscape:zoom="0.87744146"
     inkscape:cx="341.33331"
     inkscape:cy="341.33331"
     inkscape:window-width="1440"
     inkscape:window-height="819"
     inkscape:window-x="0"
     inkscape:window-y="25"
     inkscape:window-maximized="0"
     inkscape:current-layer="svg31603" />
  <g
     id="g32245"
     transform="scale(0.80000003,1.21673)"
     style="stroke-width:1.01358">
    <path
       d="M 0,0 H 159.99999 V 420.8 H 0 Z"
       id="path31321"
       style="fill:#0099ff;stroke-width:1.01358" />
    <path
       d="M 480,0 H 640 V 420.8 H 480 Z"
       id="path31323"
       style="fill:#0099ff;stroke-width:1.01358" />
  </g>
  <g
     id="g32226"
     transform="matrix(0.64000002,0,0,0.64000002,-5.6928002,88.761603)"
     style="stroke-width:1.5625">
    <path
       d="m 302.96,128.94 c 5.39,-8.73 7.09,-21.06 17.31,-25.88 -1.44,3.92 -4.87,6.64 -6.5,10.47 3.95,-2.44 6.54,-6.9 11.32,-8 -4.66,6.83 -11.53,12.06 -14.89,19.79 6.8,-3.92 11.18,-11.05 18.22,-14.61 0.67,-0.11 2.01,-0.35 2.69,-0.46 -4.82,7.84 -13.89,11.56 -19.37,18.77 9.79,-2.75 17.36,-10.97 27.42,-12.91 -4.4,5.54 -11.65,7.19 -17.08,11.39 4.44,0.55 8.57,-1.63 12.94,-1.95 0.55,0.32 1.64,0.97 2.19,1.3 -4.92,2.38 -10.42,2.77 -15.64,4.11 3.6,2.17 8.51,1.03 11.54,4.37 -6.36,1.36 -12.5,-1.13 -18.73,-1.88 2.57,2.27 6.19,1.83 9.3,2.67 3.12,0.51 6.08,1.77 8.61,3.65 -6.53,0.38 -12.47,-2.97 -18.94,-3.24 3.91,2.41 8.32,3.77 12.43,5.77 1.24,0.42 1.81,1.63 2.5,2.64 -6.93,-1.64 -12.92,-5.74 -19.5,-8.33 1.29,3.39 4.54,5 7.41,6.83 -1.38,0.45 -2.73,0.95 -4.05,1.51 -4.63,1.85 -9.15,4.55 -14.24,4.74 2.93,-3.29 6.95,-5.17 10.79,-7.17 0.42,-1.68 -1.46,-1.93 -2.64,-2.29 -3.83,1.94 -6.58,5.36 -9.82,8.08 1.08,1.04 2.12,2.13 3.27,3.11 4.73,0.29 9.53,-0.84 14.24,0.27 -1.16,0.9 -2.28,2.02 -3.84,2.07 -6,0.95 -12.11,0.51 -18.15,0.77 6.72,2.12 14.04,-0.17 20.65,2.49 -7.41,1.25 -14.83,-0.7 -22.26,-0.14 l 0.84,0.56 c 5.47,3.91 12.96,2.88 18.62,6.56 -7.78,0.91 -14.86,-3.18 -22.44,-3.93 0.76,1.1 1.32,2.44 2.52,3.16 4.79,2.85 10.39,3.63 15.6,5.38 -4.72,2.86 -10.46,-2.83 -14.69,1.04 -3.46,2.95 -7.79,4.75 -10.97,8.04 4.99,-0.16 9.67,-2.96 14.73,-1.87 -0.48,0.49 -1.45,1.46 -1.93,1.95 -6.4,2.33 -13.65,1.77 -19.61,5.37 2.29,1.43 4.48,3.28 7.22,3.74 3.37,0.57 6.79,0.31 10.18,0.33 1.15,0.09 2.16,0.69 3.2,1.14 -7.6,0.57 -15.24,-0.42 -22.84,0.35 0.44,0.59 1.32,1.78 1.76,2.37 4.91,0.99 9.96,0.76 14.94,0.78 0.57,0.58 1.14,1.16 1.72,1.74 -4.31,0.98 -8.69,0.49 -12.98,-0.34 -2.22,3.5 -4.53,6.98 -5.88,10.93 4.65,-2.5 7.5,-8.11 13.06,-8.76 -3.23,7.24 -11.49,9.92 -15.53,16.46 5.79,-4.03 10.5,-10.07 17.6,-11.86 -2.31,4.04 -7.34,5.49 -9.29,9.81 3.62,-0.62 6.9,-2.36 10.42,-3.36 -0.64,1.27 -1.53,2.41 -2.82,3.08 -5.03,3.02 -10.41,5.38 -15.74,7.8 1.65,1.19 3.65,1.61 5.64,1.08 4.45,-1.19 8.24,-4.02 12.63,-5.38 -3.7,5.81 -10.99,6.88 -16.94,9.11 -2.36,4.37 -3.9,9.23 -5.3,14.01 3.14,-2.54 5.41,-5.95 8.44,-8.6 0.9,-0.04 1.81,-0.02 2.72,0.05 -2.1,5.62 -6.89,9.44 -11.37,13.13 -1.78,1.38 -3.19,3.2 -3.7,5.43 6.86,-4.1 9.76,-13.06 18.01,-15.18 -2.36,5.32 -7.73,8.2 -11.41,12.47 -1.3,1.66 -2.15,3.6 -3.01,5.5 -0.47,1.01 -0.97,2.02 -1.44,3.04 6.98,0.05 12.21,-5.05 18.3,-7.63 -4.54,6.32 -12.21,9.04 -19.24,11.58 0.28,5.89 -0.09,11.79 0.34,17.66 4.25,-4.72 2.07,-12.89 7.86,-16.45 0.24,8.54 -4.77,15.92 -7.18,23.84 0.5,-0.17 1.52,-0.51 2.02,-0.68 2.38,-7.17 4.79,-14.61 9.69,-20.52 0.7,6.92 -5.65,11.93 -5.54,18.74 3.87,-4.06 6.07,-9.63 10.88,-12.79 -2.5,8.61 -11.22,13.71 -13.49,22.48 7.66,-2.47 10.91,-10.28 16.31,-15.48 -1.76,6.47 -6.39,11.58 -10.8,16.4 -1.62,1.46 -0.62,3.78 -0.81,5.67 0.41,6.54 -1.93,13.31 0.39,19.66 1.48,-6.78 0.59,-13.82 2.1,-20.6 0.34,-0.91 0.9,-1.7 1.67,-2.35 0.08,0.85 0.23,2.54 0.3,3.38 -0.07,3.64 -0.71,7.22 -1.27,10.81 -0.33,2.63 -1.12,5.54 0.28,8.01 1.04,1.64 2.57,2.88 3.98,4.21 0.15,0.99 0.3,1.97 0.47,2.97 0.73,3.98 2.46,7.7 4.06,11.4 0.66,-5.23 -0.6,-10.71 1.47,-15.7 1.21,1.23 1.79,2.7 1.74,4.4 0.08,5.85 -0.56,11.71 -0.02,17.56 0.56,-1.11 1.1,-2.27 1.04,-3.54 0.02,-4.71 0.42,-9.41 1.17,-14.05 0.02,-1.4 0.99,-2.36 1.89,-3.29 0.04,0.56 0.13,1.67 0.18,2.23 0.24,5.92 -1.04,11.8 -0.55,17.72 1.28,-2.92 2.2,-5.99 2.93,-9.09 0.55,-2.38 1.69,-4.56 2.97,-6.62 1.26,6.62 -3.85,12.54 -3.56,19.16 0.26,0.1 0.78,0.29 1.03,0.39 2.27,-2.22 4.2,-4.89 5.03,-7.98 0.83,-2.34 1.03,-5.02 2.87,-6.86 -0.41,6.03 -2.96,11.63 -5.28,17.13 2.88,3.77 5.02,8.09 8.26,11.61 -0.85,-5.06 -2.52,-9.93 -3.41,-14.98 0.66,-0.02 1.98,-0.06 2.64,-0.08 0.4,1.33 0.81,2.67 1.11,4.04 1.18,6.13 1.92,12.35 3.57,18.38 1.78,-7.76 -1.95,-15.38 -1.72,-23.19 1.33,0.6 2.15,1.77 2.32,3.22 1.25,5.45 1.37,11.09 2.8,16.52 0.83,-5.58 0.54,-11.24 0.75,-16.86 0.54,-0.05 1.62,-0.15 2.15,-0.2 0.18,7.02 -1.37,14.05 -0.14,21.04 0.28,0.09 0.86,0.26 1.15,0.35 3.83,-5.6 2.79,-12.66 3.66,-19.02 2.34,4.83 0.21,10.12 0.63,15.16 4.06,5.34 7.63,11.04 11.56,16.47 -0.13,-5.24 -2.49,-10.22 -1.96,-15.49 1.19,1.3 2.96,2.4 3.11,4.34 1.22,6.04 1.71,12.29 4.14,18.03 1.03,-7.18 -2.54,-14.03 -1.98,-21.25 l -0.02,-1.14 c 1.02,1.34 2.34,2.65 2.5,4.44 0.84,5.33 1.38,10.71 2.5,16 0.89,-5.49 -0.29,-11.28 1.64,-16.58 l 1.6,-1.12 c 0.5,6.34 -1.24,12.72 0.44,19.01 4.84,-3.52 3.73,-10.04 3.68,-15.23 h 1.41 c 0.08,3.09 0.25,6.2 -0.06,9.28 -0.27,2.14 -0.65,4.26 -1.01,6.38 3.37,2.5 6.74,5.01 10.38,7.09 -2.53,-4.5 -5.81,-8.52 -8.8,-12.72 1.52,0.15 3.41,-0.38 4.43,1.12 4.53,4.63 6.46,11.23 11.44,15.5 -2.06,-7.45 -9.51,-12.25 -10.49,-20.03 5.15,3.99 6.77,10.77 11.36,15.27 -0.41,-5.72 -4.88,-10.58 -4.13,-16.38 3.1,4.6 4.55,10.04 7.34,14.82 0.71,0.05 2.12,0.14 2.83,0.19 -0.83,-4.03 -2.23,-7.91 -3.68,-11.74 0.34,-0.21 1.01,-0.63 1.35,-0.84 1.33,2.74 2.3,5.64 3.75,8.32 1.28,1.43 2.92,2.46 4.35,3.73 3.71,3.05 6.62,7.13 11.05,9.22 -2.88,-5.14 -7.37,-9.22 -9.75,-14.65 6.84,3.93 9.44,12.21 15.9,16.52 -0.51,-6.92 -6.06,-11.61 -9.21,-17.33 7.34,4.94 11.08,13.48 13.37,21.73 3.21,0.08 7.8,-1.05 9.39,2.71 0.11,1.81 -0.58,3.54 -0.98,5.29 -3.25,0.36 -6.26,-0.72 -8.85,-2.63 -3.92,4.98 -8.97,11.13 -15.98,10.55 -0.14,-0.58 -0.42,-1.73 -0.55,-2.3 -3.46,0.65 -6.98,1.66 -10.5,0.87 4.87,-4.07 12.44,-3.37 16.26,-9 -6.4,1.45 -12.76,3.09 -19.18,4.44 -2.89,0.58 -5.86,1.2 -8.79,0.64 0.33,-2.37 3.38,-2.34 5.15,-3.05 6.54,-2.11 13.46,-2.3 20.07,-4.01 -5.35,-1.35 -10.98,-0.95 -16.43,-0.61 -10.76,1.92 -22.5,6.57 -33.04,1.43 6.82,-1.43 13.73,1.59 20.56,-0.2 -6.59,-1.59 -13.36,-2.2 -20.03,-3.39 -1.31,-0.04 -2,-1.18 -2.78,-2.04 9.47,-0.91 18.86,2.12 28.3,0.69 -4.1,-2.62 -9.16,-2.18 -13.69,-3.48 -5.03,-1.51 -11.06,-1.52 -14.51,-6.08 -7.52,-0.02 -15.34,-0.42 -22.2,-3.82 -1.64,-0.6 -2.67,-2.08 -3.65,-3.42 3.03,0.27 5.99,1.09 9.02,1.43 -3.35,-3.15 -7.6,-5.04 -11.24,-7.8 0.37,-0.16 1.1,-0.49 1.46,-0.66 8.57,1.72 14.84,9.37 23.65,10.54 -0.84,-0.99 -1.7,-2 -2.85,-2.64 -6.99,-3.9 -12.73,-9.68 -19.89,-13.31 -9.58,-0.76 -19.65,0.76 -28.82,-2.95 -1.74,-0.57 -2.87,-2.03 -3.82,-3.5 5.8,0.57 11.14,4.07 17.11,3.07 -5.86,-2.7 -13.09,-3.12 -17.5,-8.35 9.08,1.14 17.38,5.74 26.53,6.56 -1.17,-1.26 -2.49,-2.4 -4.14,-2.96 -5.8,-2.28 -11.55,-4.8 -16.79,-8.18 -1.35,-0.66 -1.67,-2.15 -2,-3.46 9.75,2.12 17.54,8.99 26.93,12.11 -2.34,-3.54 -6,-5.8 -9.17,-8.49 -2.56,-2 -4.88,-4.38 -7.8,-5.85 -9.42,-1.96 -19.06,-3.61 -27.89,-7.57 -3.16,-1.61 -7.25,-3.35 -7.59,-7.41 0.41,0.23 1.24,0.68 1.65,0.9 4.93,2.92 9.82,6.15 15.48,7.46 -4.76,-3.6 -10.17,-6.34 -14.51,-10.49 -0.72,-0.83 -1.32,-1.74 -1.8,-2.73 8.54,3.11 15.3,10.24 24.36,12.07 -5.24,-5.57 -12.21,-9.12 -17.64,-14.49 -1.28,-0.98 -1.43,-2.66 -1.91,-4.07 9.49,3.33 15.16,12.35 23.52,17.5 -1.72,-5.14 -5.89,-8.82 -9.03,-13.07 -1.73,-1.96 -3.14,-4.65 -5.92,-5.21 -8.25,-1.98 -16.85,-3.4 -24.34,-7.62 -2.52,-1.36 -4.4,-3.61 -5.87,-6.02 6.37,1.75 11.29,6.65 17.7,8.4 -5.03,-4.89 -12.87,-6.86 -15.96,-13.66 4.67,1.45 8.41,4.7 12.66,6.98 3.88,2.13 7.69,4.39 11.74,6.19 -5.12,-6.63 -13.1,-10.22 -18.47,-16.59 -0.72,-1.12 -1.06,-2.36 -1.01,-3.72 9.36,4.52 15.45,13.5 24.15,18.95 -2.93,-6.16 -7.94,-10.98 -11.83,-16.52 -2.57,-3.84 -6.27,-6.96 -7.89,-11.38 1.45,0.5 2.96,0.98 4.18,1.96 4.57,5.27 8.32,11.17 12.89,16.43 -1.09,-4.14 -2.26,-8.31 -4.14,-12.17 -1.26,-2.79 -4.47,-3.63 -6.99,-4.91 -7.52,-4.53 -15.06,-9.43 -20.98,-16.02 -1.91,-1.93 -2.68,-4.59 -3.02,-7.21 4.61,3.58 7.13,9.42 12.6,11.94 -2.68,-6.03 -9.29,-10.09 -9.94,-17.03 8.05,6.77 13.18,16.6 21.92,22.58 -2.35,-5.84 -6.91,-10.38 -9.75,-15.96 -2.06,-4.11 -6.06,-7.82 -5.09,-12.83 1.13,0.75 2.43,1.37 3.24,2.53 4.15,5.38 7.15,11.49 10.6,17.31 1.45,2.78 2.82,5.68 5.26,7.76 -2.9,-11.93 -8.67,-22.98 -11.33,-34.99 -0.69,-3.08 -2.76,-5.56 -4.22,-8.29 -3.34,-5.89 -6.89,-12.38 -5.78,-19.41 4.08,4.4 2.78,11.71 7.42,15.99 0.2,-6.63 -4.6,-12.53 -3.07,-19.23 3.27,3.57 3.38,8.78 5.1,13.13 1.88,4.61 2.22,9.99 5.61,13.86 -0.61,-8.5 -3.48,-16.72 -3.83,-25.26 -0.27,-1.82 1.3,-2.98 2.29,-4.24 3.86,9.13 4,19.23 4.45,28.98 0.27,0 0.82,0.02 1.1,0.02 0.7,-7.91 1.13,-15.84 1.81,-23.75 -4.49,-9.51 -11.25,-19.35 -8.68,-30.42 3.25,4.41 0.28,10.86 4.36,15.05 -0.3,-7.29 -0.93,-15.02 2.09,-21.84 0.51,2.05 0.63,4.16 0.64,6.26 0.11,4.97 0.58,9.92 0.69,14.89 -0.03,2.38 0.82,4.63 1.86,6.72 0.87,-7.52 0.58,-15.13 1.14,-22.68 1.51,-9.41 0.02,-19.14 2.65,-28.39 0.27,3.6 0.75,7.17 1.22,10.75 0.54,-1.59 1.08,-3.18 1.57,-4.78 1.19,-5.42 2.94,-10.73 6.01,-15.4 0.42,0.22 1.25,0.65 1.67,0.87 -3.73,8.66 -5.51,17.98 -7.2,27.21 3.87,-3.49 5.09,-8.77 7.83,-13.04 1.89,-3.71 5.06,-6.83 5.91,-11.01 1.35,-7.07 3.66,-13.94 6.43,-20.57 1.14,-2.91 3.74,-4.81 6.51,-6.02 -1.53,4.14 -4.84,7.38 -5.97,11.7 4.77,-4.1 7.14,-10.64 13.09,-13.44 -3.18,8.14 -10.61,13.95 -13.17,22.45 6.39,-5.77 10.86,-13.31 16.99,-19.34 m -0.75,6.43 c -3.56,2.34 -5.83,6.05 -8.97,8.86 -2.19,1.98 -4.31,4.09 -5.77,6.7 5.98,-3.43 10.8,-8.45 16.37,-12.45 -0.4,-1.11 -0.18,-2.79 -1.63,-3.11 m -21.77,25.04 c -2.28,2.86 -3.76,6.24 -5.84,9.24 -1.86,2.71 -3.87,5.41 -4.7,8.66 3.07,-1.69 4.82,-4.81 6.71,-7.61 1.99,-3.17 4.4,-6.03 6.57,-9.08 -0.9,-0.43 -1.75,-1.01 -2.74,-1.21 m 4.12,4.1 c -2.39,2.23 -4.08,5.14 -5.01,8.26 4.09,-1.17 7.3,-4.18 9.72,-7.56 -1.54,-0.27 -3.14,-1.21 -4.71,-0.7 m -21.65,24.39 c 0.18,6.94 -2,13.72 -1.41,20.66 2.88,-4.77 2.56,-10.74 3.97,-16.03 1,-2.22 -1.13,-3.41 -2.56,-4.63 m 5.95,2.87 c -0.26,1.07 -0.48,2.14 -0.66,3.22 -1.51,2.57 -2.09,5.52 -2.19,8.47 0.94,-0.94 3.03,-1.44 2.52,-3.13 1.34,-1.95 2.94,-3.9 3.31,-6.31 -0.39,-1.28 -2.05,-1.48 -2.98,-2.25 m -9.07,29.8 c 0.02,5.53 -0.26,11.05 -0.54,16.56 2.23,-4.93 3.59,-10.2 5.28,-15.34 -1.12,-1.56 -3.09,-1.2 -4.74,-1.22 m -8.7,32.8 c 1.54,5.23 3.56,10.3 4.89,15.59 0.35,1.59 1.09,3.03 2.27,4.17 0.36,-5.87 0.17,-11.77 -0.44,-17.62 -2.27,-0.64 -4.5,-1.36 -6.72,-2.14 m 11.83,39.13 c 0.84,3.41 2.04,6.72 3.4,9.97 -0.1,0.54 -0.28,1.62 -0.37,2.16 0.5,0.06 1.49,0.18 1.98,0.24 0.15,-3.72 0.05,-7.44 -0.23,-11.14 0.05,-0.39 0.15,-1.17 0.2,-1.55 -1.67,0.09 -3.33,0.21 -4.98,0.32 m 9.33,31.28 c 2.18,3.1 4.42,6.17 6.85,9.09 0.08,-3.9 -1.97,-7.39 -3.46,-10.87 -1.14,0.58 -2.27,1.17 -3.39,1.78 m 19.3,24.78 c 2.52,3.19 5.79,5.77 9.26,7.89 -1.92,-3.64 -4.27,-7.01 -6.36,-10.55 -1.15,0.7 -4.24,0.72 -2.9,2.66 m 26.53,14.21 c -0.63,1.4 -1.3,2.8 -1.8,4.27 3.73,4.17 8.25,7.57 12.47,11.24 -2.58,-5.77 -6.53,-10.79 -10.67,-15.51 m -8.01,8.87 c 6.81,5.46 14.1,10.72 22.32,13.84 -3.95,-4.72 -9.23,-7.98 -13.86,-11.96 -1.48,-1.22 -2.92,-2.52 -4.63,-3.4 -1.35,0.32 -2.59,0.95 -3.83,1.52 m 34.99,13.53 c -0.44,1.25 -0.87,2.5 -1.29,3.77 4.4,1.43 8.84,2.78 13.37,3.72 -3.58,-3.16 -7.8,-5.45 -12.08,-7.49 m 27.89,1.76 c 0.69,1.85 1.72,3.58 3.31,4.8 3.5,2.96 6.57,6.65 10.96,8.34 -1.55,-3.39 -4.71,-5.5 -7.4,-7.91 -2.16,-1.91 -4.31,-3.86 -6.87,-5.23 m -36.35,4.51 c 2.89,1.89 6.35,2.37 9.62,3.24 4.93,1.21 9.87,2.54 14.96,2.91 -5.37,-3.26 -11.56,-4.62 -17.58,-6.11 -2.29,-0.64 -4.68,-0.32 -7,-0.04 m 32.91,-0.22 c -1.14,1.2 0.8,3.4 2.11,2.3 1.16,-1.21 -0.81,-3.42 -2.11,-2.3 m 4.56,6.32 c 1.71,-0.03 3.43,-0.05 5.15,-0.07 -1.38,-1.55 -2.86,-3.01 -4.43,-4.35 -0.29,1.46 -0.52,2.93 -0.72,4.42 m 0.11,1.6 c -0.41,0.83 -0.82,1.66 -1.22,2.5 2.42,0.04 4.84,0.04 7.26,-0.01 -1.99,-0.89 -4.01,-1.7 -6.04,-2.49 z"
       fill="#359435"
       id="path31329"
       style="stroke-width:1.95312" />
    <path
       d="m 495.71,102.91 c 7.65,3.33 10.69,11.75 13.9,18.8 1.33,3.08 2.33,6.47 4.98,8.72 5.5,5.2 9.2,12.1 15.26,16.72 -2.99,-8.22 -10.08,-14.11 -13.24,-22.21 6.18,3.01 8.88,9.56 13.45,14.24 -0.82,-4.56 -4.29,-7.87 -6.27,-11.9 3.77,0.68 6.09,4.13 7.5,7.41 2.42,5.95 3.96,12.2 5.54,18.41 1.07,4.4 4.14,7.88 6.28,11.77 2.58,4.11 4.12,8.94 7.64,12.41 -1.11,-9.58 -5.06,-18.55 -6.76,-28 1.38,1.18 2.89,2.37 3.58,4.11 2.16,5.13 3.61,10.52 5.35,15.8 -0.03,-3.9 -0.47,-7.81 -1.68,-11.53 -0.76,-2.93 -2.43,-5.8 -1.65,-8.91 1.47,1.83 2.93,3.76 3.6,6.06 2.55,7.8 2.53,16.12 2.57,24.24 0,4.05 1.58,7.9 1.68,11.94 0.26,6.18 0.22,12.39 1.18,18.52 1.82,-2.84 1.74,-6.3 1.91,-9.54 0.24,-5.81 -0.18,-11.63 0.19,-17.43 2.02,1.48 2.19,4.1 2.61,6.37 0.53,5.45 0.09,10.93 0.34,16.39 0.86,-1.86 1.69,-3.74 2.22,-5.72 0.78,-3.64 0.03,-7.59 1.79,-11 3.18,10.05 -2.91,19.4 -6.91,28.18 -1.44,2.46 -1.03,5.36 -0.61,8.03 0.99,6.11 -0.16,12.45 1.84,18.42 2.89,-9.53 -0.34,-20.39 4.99,-29.32 0.92,1.55 2.09,3.17 1.76,5.1 0.15,8.12 -2.07,15.97 -3.42,23.92 0.44,-0.18 1.31,-0.52 1.74,-0.69 1.85,-5.88 4.05,-11.65 5.47,-17.65 0.79,-3.07 1.23,-6.36 3.23,-8.95 1.87,7.78 -2.77,15 -3.62,22.58 3.44,-4.31 4.86,-9.74 6.24,-14.97 0.28,-1.43 1.22,-2.55 2.14,-3.62 1.6,9.7 -5.24,17.64 -9.27,25.76 -1.52,9.25 -5.46,17.82 -8.6,26.59 -1.4,3.31 -2.43,6.77 -2.89,10.34 2.86,-2.9 4.8,-6.52 6.43,-10.22 3.06,-6.5 7.28,-12.39 11.88,-17.88 0.34,1.97 0.98,4.15 -0.14,6 -2.71,5.23 -5.83,10.27 -9.47,14.92 -1.89,2.5 -3.4,5.27 -4.49,8.22 5.85,-3.96 10.38,-9.52 14.54,-15.14 2.21,-2.73 4.4,-5.62 7.48,-7.42 -1.15,5.2 -4.79,9.26 -7.71,13.54 -2.41,-2.73 -3.43,3.17 -0.33,1.7 4.91,-1.44 5.8,-8.08 10.9,-9.19 -3.24,9.64 -12.92,14.59 -20.73,20.07 -3.2,2.28 -7.03,3.63 -9.93,6.3 -2.24,3.72 -3.27,8.06 -4.2,12.28 5.07,-5.43 8.86,-11.9 13.98,-17.29 0.5,0.46 1.51,1.37 2.01,1.83 -6.21,8.45 -13.51,16.16 -18.8,25.25 4.34,-1.74 6.86,-5.92 10.46,-8.68 4.32,-3.38 8.14,-7.57 13.32,-9.69 -0.37,1.29 -0.45,2.73 -1.27,3.85 -5.33,6.09 -12.79,9.97 -17.95,16.21 8.84,-2.85 15.62,-9.91 24.33,-13.03 -3.26,6.8 -11.11,8.9 -16.15,13.98 6.14,-2.15 11.37,-6.13 17.26,-8.8 -0.53,1.14 -0.62,2.6 -1.62,3.47 -5.9,5.05 -13.57,7.08 -20.97,8.84 -3.72,1.01 -8.12,1.18 -10.79,4.35 -4.17,4.82 -8.13,9.91 -11.28,15.46 8.51,-4.96 14.33,-13.61 23.47,-17.65 -0.38,1.36 -0.43,2.94 -1.56,3.95 -4.86,5.67 -12.03,8.77 -16.73,14.57 8.66,-2.14 15.18,-9.04 23.53,-12 -1.13,2.15 -2.65,4.15 -4.76,5.42 -4.1,2.16 -8.62,4.08 -11.31,8.06 -1.66,2.57 -4.67,3.49 -7.44,4.33 -4.68,1.88 -10.43,0.74 -14.26,4.56 -4.63,4.12 -10.27,7.34 -13.83,12.51 9.33,-3.6 17.21,-10.59 27.17,-12.61 -0.54,3.82 -4.44,5.15 -7.4,6.71 -5.19,2.66 -10.79,4.54 -15.72,7.7 9.26,0.01 17.45,-5.6 26.59,-5.97 -5.02,5.14 -12.58,5.41 -18.57,8.78 6.44,0.25 12.17,-3.34 18.55,-3.54 -3.75,4.43 -9.9,4.95 -15.26,5.7 -5.89,0.88 -11.84,0.17 -17.74,0.77 -5.1,2.02 -8.97,6.1 -13.37,9.25 -0.89,0.83 -2.12,0.7 -3.22,0.76 4,-3.36 8.47,-6.1 12.46,-9.48 -0.27,-0.59 -0.81,-1.77 -1.08,-2.35 -0.26,-1.68 -2.29,-1.19 -2.76,0.06 -0.76,0.73 -1.53,1.43 -2.32,2.11 -1.68,1.39 -3.4,2.74 -5.09,4.12 -3.68,2.96 -7.39,5.94 -10.47,9.55 0.64,-0.07 1.93,-0.23 2.57,-0.3 l 0.69,-0.09 c 1.21,0.67 2.39,2.19 3.9,1.29 7.43,-2.95 13.51,-9.06 21.6,-10.32 -2.82,4.38 -8.7,5.27 -11.52,9.68 3.25,-0.74 6.41,-1.85 9.68,-2.54 -1.78,3.39 -5.63,4.56 -8.97,5.84 -5.23,1.94 -10.88,1.33 -16.29,2.16 -2.66,0.36 -4.08,3.16 -6.66,3.8 -6.3,1.81 -12.74,3.09 -19.19,4.22 -1.44,0.19 -2.63,1.05 -3.82,1.79 4.89,0.86 9.75,-0.39 14.63,-0.6 4.72,-0.28 9.45,-0.38 14.18,-0.41 -0.9,0.95 -1.78,2.08 -3.21,2.14 -6.4,1.37 -13,1.59 -19.33,3.29 -1.37,0.15 -2.73,0.3 -4.09,0.43 -8.21,-1.67 -16.6,-2.14 -24.94,-1.18 5.02,2.17 10.63,2.01 15.87,3.39 3.18,0.91 7.25,1.01 9.1,4.22 -9.2,0.07 -17.92,-3.19 -26.8,-5.08 0.34,0.93 0.75,1.84 1.22,2.73 4.11,2.46 9.21,2.7 13.06,5.66 -4.75,0.18 -9.4,-0.87 -13.96,-2.08 0.48,1.33 0.96,2.66 1.43,4 -0.42,-0.13 -1.28,-0.39 -1.71,-0.52 -5.26,-1.32 -8.54,-5.91 -11.69,-9.94 -2.74,1.63 -5.69,2.99 -8.97,2.65 -0.65,-2.41 -0.91,-4.89 -0.81,-7.38 2.89,-0.9 5.93,-0.82 8.92,-0.71 1.34,-6.58 4.59,-12.61 8.49,-18.02 1.12,-1.59 2.7,-2.74 4.28,-3.83 -2.48,6.16 -8.39,10.74 -8.74,17.79 6.35,-4.84 9.3,-12.84 15.69,-17.68 -1.36,5.66 -6.51,9.41 -8.19,14.99 4.01,-3.33 7.31,-7.43 11.54,-10.52 3.99,-2.47 3.73,-8.1 7.5,-10.8 -0.84,4.47 -2.91,8.6 -3.88,13.04 0.73,0 2.19,-0.01 2.92,-0.02 2.84,-4.5 4.49,-9.59 6.57,-14.46 0.32,0.32 0.96,0.95 1.28,1.26 -1.54,4.99 -3.5,9.84 -4.73,14.92 4.69,-4.57 6.1,-11.55 11.33,-15.65 0.37,2.44 -0.89,4.59 -1.97,6.66 2.16,-1.53 4.31,-3.09 6.59,-4.45 -0.24,5.35 -5.24,8.6 -6.95,13.44 3.08,-1.95 5.84,-4.35 8.75,-6.55 0.39,-5.69 -1.88,-11.8 0.7,-17.17 0.79,5.6 -1.23,13.25 4.6,16.73 0.96,-5.82 -0.75,-11.62 -0.33,-17.44 l 1.12,-2.24 c 0.54,1.78 1.08,3.57 1.33,5.42 0.33,3.56 0.5,7.17 1.56,10.61 1.28,-5.14 1.4,-10.46 2.04,-15.69 0.66,-0.77 1.36,-1.51 2.09,-2.21 1.72,5.52 -1.33,11 -0.19,16.5 1.54,-4.54 1.63,-9.37 2.67,-14.01 0.17,-1.55 1.96,-1.83 3.02,-2.56 -0.29,4.9 -1.25,9.74 -1.58,14.65 2.91,-3.43 4.7,-7.62 7.4,-11.2 1.18,-1.72 2.62,-3.27 3.49,-5.18 0.29,-5.09 -1.52,-10.4 0.66,-15.29 1.25,6.54 -0.53,14.74 4.94,19.7 1.11,-7.59 -0.68,-15.23 0.26,-22.82 0.74,1.1 1.75,2.16 1.72,3.59 0.29,5.01 0.33,10.05 1.34,15 1.08,-5.79 0.69,-11.78 2.2,-17.5 0.55,-1.14 1.39,-2.1 2.16,-3.08 1.68,7.66 -2.76,14.93 -1.41,22.61 1.94,-5.94 1.51,-12.36 3.5,-18.28 0.49,-1.74 1.83,-3 3.07,-4.22 0.51,5.25 -2.01,10.19 -1.9,15.43 2.61,-3.57 4.83,-7.4 7.2,-11.13 -2.52,-5.51 -5.33,-11.22 -5.31,-17.42 3.17,4.92 2.84,12.43 9.16,14.9 -0.74,-6.57 -3.62,-12.6 -4.86,-19.06 1.66,1.15 3.07,2.69 3.39,4.76 1.22,4.29 2.57,8.54 3.9,12.8 0.36,-1.75 0.71,-3.5 1.1,-5.24 0.99,1.49 1.96,3 2.97,4.49 -0.08,-6.38 -0.89,-12.73 -0.66,-19.11 0.25,-0.76 0.74,-2.3 0.98,-3.07 2.95,4.35 1.68,10.19 2.53,15.19 1.35,-3.76 3.54,-7.65 2.96,-11.74 -2.74,-6.66 -6.79,-13.27 -6.27,-20.75 3.05,6.02 3.04,14.01 9.42,17.9 -0.02,-7.63 -4.32,-14.38 -4.9,-21.91 4.7,4.21 4.15,11.28 6.84,16.67 0.35,-6.8 -1.54,-13.47 -1.16,-20.26 0.48,0.08 1.45,0.24 1.93,0.32 1.74,6.92 1.23,14.14 2.25,21.18 0.24,-0.01 0.71,-0.05 0.94,-0.07 0.21,-7.57 -1.96,-15.17 -0.08,-22.65 -5.23,-5.23 -10.84,-10.79 -12.44,-18.3 4.93,5.69 8.84,13.47 16.63,15.63 -3.61,-8.13 -10.9,-14.1 -14.06,-22.43 6.29,4.29 9.03,11.81 14.16,17.22 -1.83,-5.75 -4.85,-10.98 -7.42,-16.4 -1.13,-2.09 -1.2,-4.48 -1.22,-6.79 4.01,5.16 6.96,11.15 8.62,17.47 0.43,1.94 1.53,3.6 2.86,5.04 -0.92,-8.74 -7.38,-16.12 -6.84,-25.07 5.68,3.71 3.6,12.42 8.43,16.92 0.02,-5.42 -0.1,-10.85 -0.11,-16.27 0.22,-1.81 -1.87,-2.26 -3.12,-2.8 -6.06,-2.09 -12.15,-5.02 -16.27,-10.09 6.32,2.17 11.58,7.22 18.59,7.38 -3.07,-4.09 -7.94,-6.05 -12.02,-8.89 -2.34,-1.66 -5.43,-2.66 -6.59,-5.51 5.17,1.73 9.36,5.46 14.48,7.33 -3.44,-5.01 -8.88,-8.19 -12.09,-13.39 0.41,-0.14 1.23,-0.43 1.63,-0.57 0.24,0.23 0.72,0.7 0.96,0.94 5.13,4.61 9.29,10.41 15.44,13.78 -3.35,-6.62 -10.84,-9.7 -14.32,-16.26 l -0.45,-0.83 c 0.32,-0.51 0.96,-1.53 1.28,-2.05 3.53,3.28 6.31,7.31 10.17,10.24 -1.72,-4.86 -3.77,-9.61 -5.83,-14.32 -5.85,-2.79 -13.27,-3.34 -17.38,-9.02 4.23,0.99 7.87,3.58 12.09,4.61 1.87,0.32 4.19,1.48 5.6,-0.43 -5.92,-4.14 -13.6,-5.69 -18.64,-11.02 5.67,0.43 10.2,4.28 15.49,5.95 -4.02,-5.12 -10.59,-7.52 -14.26,-12.96 7.6,1.69 11.95,8.95 18.84,12.09 -3.45,-3.55 -7.37,-6.58 -11.16,-9.74 -2.32,-2.02 -4.49,-4.51 -4.57,-7.75 -2.27,-0.16 -4.54,-0.3 -6.79,-0.58 3.03,-0.17 6.08,-0.42 9.07,-1.04 3.43,-0.65 6.84,-1.59 10,-3.12 -7.36,-2.8 -15.25,0.34 -22.85,-0.77 0.43,-0.6 1.31,-1.81 1.74,-2.42 5.01,-0.19 10.06,0.54 15.02,-0.57 -6.09,-1.96 -12.97,-1.17 -18.58,-4.56 5.65,-2.78 11.21,2.39 16.93,0.51 -5.55,-2.06 -13.69,-0.08 -16.89,-6.26 4.9,-0.49 9.46,1.67 14.12,2.81 -0.09,-0.5 -0.27,-1.51 -0.36,-2.01 -4.65,-2.04 -8.23,-5.81 -12.46,-8.34 -4.1,0.74 -8.2,1.91 -12.4,1.19 5.56,-3.05 12.56,-2.88 17.55,-7.12 0.19,-0.74 0.36,-1.49 0.5,-2.25 -7.52,2.01 -15.07,4.91 -22.98,4.45 5.68,-4.45 14.03,-2.36 19.73,-6.67 -2.96,-0.3 -5.94,-0.13 -8.9,-0.17 -3.85,-0.16 -7.68,-0.55 -11.53,-0.71 6.15,-1.19 12.53,0.23 18.6,-1.31 -4.8,-0.66 -9.65,-1.01 -14.49,-1.06 -2.42,-0.19 -5.79,0.18 -6.53,-2.85 4.69,-0.57 9.41,0.07 14.11,-0.24 -3.55,-2.79 -7.99,-3.96 -12.12,-5.58 -4.04,-1.83 -7.7,2.3 -11.87,1.84 4.5,-2.55 8.97,-5.13 13.22,-8.11 -0.49,-0.24 -1.47,-0.7 -1.95,-0.94 -5.54,1.78 -10.42,5.2 -16,6.9 0.12,-0.54 0.35,-1.62 0.47,-2.17 4.6,-2.28 9.6,-3.65 14.06,-6.21 -6.48,-0.09 -12.37,3.31 -18.81,3.4 0.52,-0.42 1.56,-1.27 2.08,-1.69 5.82,-1.95 12.05,-2.36 17.77,-4.66 -1.74,-0.47 -3.56,-0.85 -5.34,-0.41 -4.68,0.94 -9.36,1.89 -14.1,2.52 0.23,-0.7 0.68,-2.09 0.9,-2.78 3.75,-0.22 7.43,-0.97 11.1,-1.74 -5.37,-1.26 -10.92,-1.86 -16.13,-3.69 -0.31,-0.53 -0.92,-1.59 -1.23,-2.12 5.64,-0.07 10.83,2.63 16.46,2.64 -5.07,-3.42 -10.86,-5.59 -15.89,-9.06 -1.26,-0.74 -1.91,-2.09 -2.63,-3.28 9.91,2.9 18.02,9.96 27.68,13.53 -2.46,-4.27 -6.96,-6.61 -10.63,-9.68 -3.34,-2.79 -6.76,-5.63 -9.11,-9.34 4.12,-0.04 6.99,3.15 9.95,5.54 3.69,3.03 6.96,6.53 10.69,9.52 -2.78,-7.96 -10.31,-12.94 -14.48,-20.08 6.48,1.8 9.18,8.62 14.26,12.36 -1.74,-5.62 -7.35,-8.84 -9.3,-14.37 m 16.72,32.58 c -0.13,1.15 -0.17,2.42 0.95,3.11 4.56,4.25 9.14,8.7 14.8,11.47 -3.11,-4.86 -7.8,-8.37 -11.62,-12.63 -1.21,-0.98 -2.36,-3.1 -4.13,-1.95 m -5.67,5.81 c 4.06,2.88 8.33,5.72 13.23,6.93 -3.08,-3.22 -6.54,-6.04 -9.9,-8.94 -1.12,0.67 -2.23,1.33 -3.33,2.01 m 26.27,19.96 c 4.78,5.36 7.94,12.05 13.21,16.96 -0.52,-2.11 -1.15,-4.24 -2.51,-5.96 -3.2,-4.13 -5.74,-8.69 -8.53,-13.09 -0.54,0.52 -1.63,1.57 -2.17,2.09 m -5.43,5.16 c 3.97,3.06 8.06,6 12.38,8.55 -2.85,-4.14 -6.05,-8.04 -9.1,-12.04 -1.06,1.11 -3.89,1.57 -3.28,3.49 m 23.48,22.84 c -0.78,2.87 0.78,5.69 1.17,8.52 1.07,3.89 0.41,8.5 3.3,11.69 0.05,-6.66 -0.98,-13.3 -2.2,-19.82 -0.57,-0.1 -1.7,-0.3 -2.27,-0.39 m -7,3.78 c 2.13,3.41 4.3,6.8 6.78,9.98 -0.8,-4.06 -2.01,-8.03 -3.59,-11.85 -1.08,0.62 -2.14,1.24 -3.19,1.87 m -9.26,0.66 c 4.22,3.56 8.43,7.14 12.29,11.1 -1.55,-4.12 -3.15,-8.51 -6.4,-11.59 -1.98,-0.15 -3.95,0.2 -5.89,0.49 m 17.13,27.52 c 1.56,5.03 3.73,9.85 5.01,14.97 0.39,0.17 1.16,0.52 1.55,0.69 -1.26,-5.39 -1.33,-10.94 -1.46,-16.44 -1.71,0.21 -3.41,0.48 -5.1,0.78 m 7.68,34.36 c -0.84,5.92 -1.12,11.96 -0.68,17.93 2.41,-2.7 2.85,-6.37 3.85,-9.71 0.89,-3.3 2.22,-6.47 3.27,-9.73 -2.18,0.37 -4.38,0.7 -6.44,1.51 m -9.83,36.15 c -0.58,4.79 0.28,9.56 0.68,14.32 1.2,-4.23 2.6,-8.4 4.36,-12.43 -1.67,-0.69 -3.35,-1.31 -5.04,-1.89 m -7.57,30.13 c -1.51,3.28 -2.78,6.69 -3.25,10.29 2.14,-2.19 4.38,-4.43 5.65,-7.25 0.13,-1.54 -1.51,-2.13 -2.4,-3.04 m -25.04,35.09 c 3.59,-2.52 7.26,-5.05 10.01,-8.52 -0.6,-0.56 -1.79,-1.68 -2.39,-2.24 -3.33,2.97 -5.48,6.9 -7.62,10.76 m -18.03,7.25 c -2.62,2.53 -4.24,5.87 -6.55,8.66 -1.16,1.69 -2.16,3.48 -2.98,5.36 1.69,-0.64 3.26,-1.57 4.59,-2.8 1.07,-1.4 2.23,-2.71 3.33,-4.09 1.44,1.36 4.43,-0.9 3.28,-2.62 l 0.94,-0.26 c -0.71,-1.49 -0.05,-5.03 -2.61,-4.25 M 454,393.22 c 4.84,-2.43 7.16,-7.79 9.03,-12.58 -4.5,2.84 -6.96,7.86 -9.03,12.58 m 16.24,-5.73 c -1.02,-1.45 -3.78,0.19 -2.9,1.77 -1.43,0.55 -2.51,1.69 -3.68,2.63 3.99,0.05 7.9,-0.95 11.43,-2.8 -1.04,-1.09 -2.09,-2.17 -3.13,-3.24 l -1.72,1.64 m -35.71,9.07 c -1.43,1.11 -2.24,2.75 -2.92,4.4 3.19,-1.82 5.9,-4.32 8.71,-6.64 1.99,-1.8 5,-3.44 4.15,-6.6 -3.32,2.94 -6.58,5.94 -9.94,8.84 m 12.1,-4.48 c -1.29,1.13 0.56,3.49 1.86,2.15 1.35,-1.15 -0.54,-3.51 -1.86,-2.15 m 10.9,6.3 c 7.89,-1.51 15.85,-2.96 23.43,-5.69 -1.42,-1.11 -3.16,-1.43 -4.85,-0.83 -6.36,1.61 -12.86,3.2 -18.58,6.52 m -15.08,-3.06 c -1.8,0.38 -1.65,3.74 0.47,2.84 1.85,-0.38 1.66,-3.77 -0.47,-2.84 m -5.61,7.42 c 2.68,-0.06 5.36,-0.12 8.04,-0.13 -0.06,-0.63 -0.2,-1.91 -0.26,-2.54 -2.62,0.83 -5.21,1.71 -7.78,2.67 z"
       fill="#359336"
       id="path31331"
       style="stroke-width:1.95312" />
    <path
       d="m 498.17,132.94 c 1.78,-0.44 3.6,-0.06 5.34,0.41 -5.72,2.3 -11.95,2.71 -17.77,4.66 -1.04,-1.4 -2.13,-2.77 -3.19,-4.14 0.61,-0.3 1.82,-0.9 2.42,-1.19 -0.22,0.69 -0.67,2.08 -0.9,2.78 4.74,-0.63 9.42,-1.58 14.1,-2.52 z"
       fill="#9fd692"
       id="path31333"
       style="stroke-width:1.95312" />
    <path
       d="m 302.21,135.37 c 1.45,0.32 1.23,2 1.63,3.11 -5.57,4 -10.39,9.02 -16.37,12.45 1.46,-2.61 3.58,-4.72 5.77,-6.7 3.14,-2.81 5.41,-6.52 8.97,-8.86 z"
       fill="#dbfeea"
       id="path31335"
       style="stroke-width:1.95312" />
    <path
       d="m 512.43,135.49 c 1.77,-1.15 2.92,0.97 4.13,1.95 3.82,4.26 8.51,7.77 11.62,12.63 -5.66,-2.77 -10.24,-7.22 -14.8,-11.47 -1.12,-0.69 -1.08,-1.96 -0.95,-3.11 z"
       fill="#defee3"
       id="path31337"
       style="stroke-width:1.95312" />
    <path
       d="m 506.76,141.3 c 1.1,-0.68 2.21,-1.34 3.33,-2.01 3.36,2.9 6.82,5.72 9.9,8.94 -4.9,-1.21 -9.17,-4.05 -13.23,-6.93 z"
       fill="#e6fff8"
       id="path31339"
       style="stroke-width:1.95312" />
    <path
       d="m 312.14,144.95 c 1.32,-0.56 2.67,-1.06 4.05,-1.51 2.78,0.86 5.93,1.72 7.45,4.47 -3.95,-0.54 -7.66,-2.01 -11.5,-2.96 z"
       fill="#86b0a8"
       id="path31341"
       style="stroke-width:1.95312" />
    <g
       fill="#4e8151"
       id="g31353"
       style="stroke-width:1.95312">
      <path
         d="m 262.07,159.56 c 0.15,-3.69 1.6,-7.24 4.25,-9.85 1.08,4.66 -1.9,8.93 -2.85,13.36 0.34,0.62 1.04,1.85 1.39,2.46 -0.49,1.6 -1.03,3.19 -1.57,4.78 -0.47,-3.58 -0.95,-7.15 -1.22,-10.75 z"
         id="path31343"
         style="stroke-width:1.5625" />
      <path
         d="m 502.69,157.48 c 0.68,-0.62 1.44,-1.11 2.28,-1.45 3.85,0.16 7.68,0.55 11.53,0.71 -4.44,1.46 -9.23,1.26 -13.81,0.74 z"
         id="path31345"
         style="stroke-width:1.5625" />
      <path
         d="m 278.21,298.37 c 0.17,-1.48 1.55,-2.05 2.66,-2.74 -0.84,6.62 -4.03,12.72 -4.55,19.41 l 1.24,-0.15 c 1.43,0.13 2.46,-1.11 2.75,-2.39 1.76,-4.22 2.89,-8.67 4.7,-12.87 0.53,7.6 -3.24,14.73 -6.65,21.29 -0.17,-1 -0.32,-1.98 -0.47,-2.97 -1.41,-1.33 -2.94,-2.57 -3.98,-4.21 -1.4,-2.47 -0.61,-5.38 -0.28,-8.01 0.09,1.69 0.23,3.38 0.42,5.07 1.94,-3.95 2.83,-8.27 4.16,-12.43 z"
         id="path31347"
         style="stroke-width:1.5625" />
      <path
         d="m 527.36,322.65 c -0.51,-2.21 0.41,-4.29 1.74,-5.99 0.3,1.44 0.58,2.9 0.83,4.36 0.67,4.11 1.32,8.46 -0.36,12.43 -1.13,-3.52 -1.79,-7.15 -2.21,-10.8 z"
         id="path31349"
         style="stroke-width:1.5625" />
      <path
         d="m 459.58,406.92 c 1.36,-0.13 2.72,-0.28 4.09,-0.43 3.64,0.44 7.31,0.22 10.96,0.2 2.68,0.21 5.36,0.55 8.04,0.83 -7.79,2.07 -16.27,1.81 -23.98,-0.5 z"
         id="path31351"
         style="stroke-width:1.5625" />
    </g>
    <path
       d="m 290.14,156.88 c 7.43,-0.56 14.85,1.39 22.26,0.14 l -0.34,1.24 c -7.03,0.57 -14.08,-0.29 -21.08,-0.82 z"
       fill="#789d9b"
       id="path31355"
       style="stroke-width:1.95312" />
    <g
       fill="#d1ffc3"
       id="g31371"
       style="stroke-width:1.95312">
      <path
         d="m 280.44,160.41 c 0.99,0.2 1.84,0.78 2.74,1.21 -2.17,3.05 -4.58,5.91 -6.57,9.08 -1.89,2.8 -3.64,5.92 -6.71,7.61 0.83,-3.25 2.84,-5.95 4.7,-8.66 2.08,-3 3.56,-6.38 5.84,-9.24 z"
         id="path31357"
         style="stroke-width:1.5625" />
      <path
         d="m 270.44,294.83 c 0.62,-0.24 1.87,-0.7 2.49,-0.94 -1.51,6.78 -0.62,13.82 -2.1,20.6 -2.32,-6.35 0.02,-13.12 -0.39,-19.66 z"
         id="path31359"
         style="stroke-width:1.5625" />
      <path
         d="m 372.95,387.93 c 2.56,1.37 4.71,3.32 6.87,5.23 2.69,2.41 5.85,4.52 7.4,7.91 -4.39,-1.69 -7.46,-5.38 -10.96,-8.34 -1.59,-1.22 -2.62,-2.95 -3.31,-4.8 z"
         id="path31361"
         style="stroke-width:1.5625" />
      <path
         d="m 434.53,396.56 c 3.36,-2.9 6.62,-5.9 9.94,-8.84 0.85,3.16 -2.16,4.8 -4.15,6.6 -2.81,2.32 -5.52,4.82 -8.71,6.64 0.68,-1.65 1.49,-3.29 2.92,-4.4 z"
         id="path31363"
         style="stroke-width:1.5625" />
      <path
         d="m 374.07,398.54 c 0.2,-1.49 0.43,-2.96 0.72,-4.42 1.57,1.34 3.05,2.8 4.43,4.35 -1.72,0.02 -3.44,0.04 -5.15,0.07 z"
         id="path31365"
         style="stroke-width:1.5625" />
      <path
         d="m 374.18,400.14 c 2.03,0.79 4.05,1.6 6.04,2.49 -2.42,0.05 -4.84,0.05 -7.26,0.01 0.4,-0.84 0.81,-1.67 1.22,-2.5 z"
         id="path31367"
         style="stroke-width:1.5625" />
      <path
         d="m 436.84,402.74 c 2.57,-0.96 5.16,-1.84 7.78,-2.67 0.06,0.63 0.2,1.91 0.26,2.54 -2.68,0.01 -5.36,0.07 -8.04,0.13 z"
         id="path31369"
         style="stroke-width:1.5625" />
    </g>
    <g
       fill="#d3fdd5"
       id="g31379"
       style="stroke-width:1.95312">
      <path
         d="m 533.03,161.26 c 0.54,-0.52 1.63,-1.57 2.17,-2.09 2.79,4.4 5.33,8.96 8.53,13.09 1.36,1.72 1.99,3.85 2.51,5.96 -5.27,-4.91 -8.43,-11.6 -13.21,-16.96 z"
         id="path31373"
         style="stroke-width:1.5625" />
      <path
         d="m 563.33,188.91 c 0.59,3.61 0.83,7.37 2.56,10.67 -0.53,1.98 -1.36,3.86 -2.22,5.72 -0.25,-5.46 0.19,-10.94 -0.34,-16.39 z"
         id="path31375"
         style="stroke-width:1.5625" />
      <path
         d="m 336.6,392.44 c 2.32,-0.28 4.71,-0.6 7,0.04 6.02,1.49 12.21,2.85 17.58,6.11 -5.09,-0.37 -10.03,-1.7 -14.96,-2.91 -3.27,-0.87 -6.73,-1.35 -9.62,-3.24 z"
         id="path31377"
         style="stroke-width:1.5625" />
    </g>
    <path
       d="m 527.6,166.42 c -0.61,-1.92 2.22,-2.38 3.28,-3.49 3.05,4 6.25,7.9 9.1,12.04 -4.32,-2.55 -8.41,-5.49 -12.38,-8.55 z"
       fill="#f6fef2"
       id="path31381"
       style="stroke-width:1.95312" />
    <path
       d="m 284.56,164.51 c 1.57,-0.51 3.17,0.43 4.71,0.7 -2.42,3.38 -5.63,6.39 -9.72,7.56 0.93,-3.12 2.62,-6.03 5.01,-8.26 z"
       fill="#eefef7"
       id="path31383"
       style="stroke-width:1.95312" />
    <g
       fill="#110a0b"
       id="g31393"
       style="stroke-width:1.95312">
      <path
         d="m 491.36,179.41 c 5.43,-2.32 11.42,-3.44 17.32,-2.84 -2.91,7.64 -5.26,15.53 -6.11,23.69 -1.55,8.96 0.82,18.6 -3.24,27.07 -2.52,4.91 -5.14,9.96 -9.25,13.74 -2.32,2.64 -5.72,3.88 -8.38,6.1 -0.96,2.57 1.49,4.61 2.19,6.93 3.44,9.44 0.89,19.99 4.48,29.43 1.01,3.32 3.81,5.56 6.17,7.93 2.57,2.55 6.56,3.25 8.81,6.16 0.43,2.99 0.58,6.07 0.24,9.09 -4.48,5.93 -6.48,13.25 -7.67,20.48 -3.8,-2.32 -6.85,-5.6 -9.72,-8.95 -4.79,1.53 -9.45,3.58 -13.13,7.09 0.11,-3.85 1.01,-7.66 0.73,-11.52 -3.43,-0.53 -6.72,0.67 -10.07,1.14 1.22,-5.02 7.17,-4.81 10.42,-7.87 3.18,-2.69 8.04,-3.06 10.19,-6.94 -7.37,-1.15 -14.74,-2.98 -21.22,-6.81 -0.9,1.94 -1.15,4.49 -3.25,5.57 -4.01,2.79 -9.06,1.42 -13.57,1.91 1.63,4.92 6.43,7.98 7.62,13.12 -3.44,1.94 -7.51,1.48 -11.14,2.82 -4.46,1.45 -8.33,4.34 -11.43,7.8 -4.64,0.2 -9.34,0.85 -13.44,3.19 0.42,-1.87 0.89,-3.72 1.3,-5.59 -4.84,-3.53 -9.84,0.45 -14.23,2.57 1.12,-3.96 3.38,-7.55 4,-11.64 -1.7,-2.11 -4.25,0.44 -6.31,0.69 1.09,-5.05 6.71,-5.51 10.62,-7.37 4.75,-0.52 9.33,2.7 14.11,0.93 1.95,-5.56 -4.17,-8.7 -5.63,-13.41 -0.87,-3.27 1.34,-6.24 2.13,-9.29 -11.11,4.23 -23.02,6.3 -34.9,6.54 -4.06,-0.15 -8.17,-0.37 -12.06,-1.63 -1.57,1.16 -2.97,3.06 -5.15,2.88 -5.6,0.27 -11.19,0.73 -16.8,0.9 -1.34,-1.77 -0.72,-4.42 -1.38,-6.52 -0.1,-2.17 -0.09,-4.36 0.23,-6.51 3.41,-2.79 1.52,-7.2 0.6,-10.7 -1.55,-4.64 -1.31,-9.64 -2.8,-14.28 -1.69,-3.88 -4.89,-7.08 -5.55,-11.4 -0.98,-5.37 -2.83,-10.6 -5.94,-15.11 -2.13,-3.33 -5.83,-6.12 -5.49,-10.48 1.75,-0.4 3.53,-0.67 5.31,-0.95 -1.76,-0.75 -3.49,-1.53 -5.23,-2.31 1.31,-0.58 2.61,-1.17 3.9,-1.79 -2.3,-0.13 -4.6,-0.19 -6.9,-0.27 1.09,-0.99 2.17,-1.99 3.24,-3.01 -3.01,0.4 -5.95,1.12 -8.89,1.86 0.31,2.03 0.81,4.08 2.3,5.61 -2.62,0.46 -5.26,0.77 -7.86,1.25 -0.71,-1.21 -1.41,-2.43 -2.1,-3.64 -2.21,1.47 -4.7,1.65 -7.14,0.62 0.05,-0.67 0.14,-2.02 0.19,-2.7 -0.88,0.27 -2.63,0.82 -3.51,1.09 1.45,-1.06 2.81,-2.24 3.75,-3.8 1.71,0.05 3.43,0.1 5.15,0.15 -0.14,-2.26 -0.24,-4.52 -0.3,-6.77 3.16,-0.82 6.5,-1.08 9.52,-2.4 2.18,-1.62 4.09,-3.7 6.71,-4.63 6.23,-2.82 13.69,-0.52 19.57,-4.25 3,-1.29 5.15,1.95 6.15,4.33 2.7,0.43 6.15,-0.23 7.86,2.44 0.27,1.95 -0.92,3.79 -1.27,5.69 5.55,7.08 9.74,15.04 14.33,22.75 5.65,3.06 12.17,4.09 17.76,7.27 4.74,2.39 10,5.18 15.47,3.91 8.76,-1.54 17.32,-4.54 26.3,-4.58 8.02,-0.89 16.06,0.31 24.02,1.18 2.24,-0.52 5.25,-1.11 5.76,-3.79 2.38,-7.92 3.53,-16.22 6.87,-23.84 2.27,-6.87 5.74,-13.26 7.97,-20.14 1.38,-3.61 4.16,-6.7 7.77,-8.19 m -0.98,3.78 c -1.35,2.35 -4.34,3.44 -4.91,6.27 -1.29,4.81 -3.04,9.6 -6.1,13.61 1.09,0.16 3.25,0.49 4.33,0.66 -0.06,-0.68 -0.2,-2.04 -0.27,-2.71 0.74,0.84 1.53,1.67 2.22,2.57 -0.83,0.8 -1.65,1.58 -2.48,2.36 1.08,0.77 2.18,1.54 3.26,2.33 0.6,-1.21 1.29,-2.39 2.04,-3.51 -0.22,-0.21 -0.65,-0.64 -0.86,-0.85 1.44,-2.4 3.04,-4.7 4.75,-6.92 -0.8,-0.82 -1.59,-1.65 -2.38,-2.47 1.2,-0.36 2.48,-0.15 3.72,-0.25 -0.27,-0.25 -0.82,-0.75 -1.1,-1 1.32,-1.51 2.5,-3.13 3.48,-4.89 l -0.95,0.33 c -0.27,-0.39 -0.8,-1.15 -1.07,-1.54 0.28,-1.44 0.59,-2.88 0.9,-4.32 -1.11,0.45 -2.21,0.92 -3.29,1.4 -0.44,-0.36 -0.87,-0.72 -1.29,-1.07 M 333.5,201.54 c -0.09,1.14 -0.17,2.28 -0.24,3.42 0.55,-0.07 1.67,-0.21 2.23,-0.28 0.05,-1.11 0.11,-2.23 0.16,-3.34 -0.54,0.05 -1.61,0.15 -2.15,0.2 m 143.03,9.33 c 0.9,0.74 1.81,1.48 2.72,2.23 -1.35,1.15 -2.69,2.33 -3.8,3.71 1.99,-0.63 3.92,-1.46 5.93,-2.07 -0.61,2.62 -3.62,2.95 -5.62,4.11 -0.14,0.52 -0.41,1.55 -0.55,2.07 2.69,-1.21 5.33,-2.56 8.09,-3.63 0.73,-2.29 1.82,-4.44 3.08,-6.48 -1.38,-2.11 -2.46,-4.74 -5.05,-5.58 -1.54,1.93 -3.12,3.83 -4.8,5.64 m -108.44,33.24 c 0.03,0.63 0.09,1.9 0.13,2.53 2.4,-0.78 4.83,-1.48 7.3,-2.07 0.04,-0.56 0.12,-1.69 0.17,-2.25 -2.55,0.54 -5.12,1 -7.6,1.79 m -2.77,7.06 c 3.42,-1.28 7.03,-2.24 10.16,-4.18 -3.62,0.5 -7.72,1.16 -10.16,4.18 m -0.1,3.02 c 2.72,-0.42 5.37,-1.53 7.33,-3.51 -2.89,-0.16 -5.26,1.74 -7.33,3.51 m 1.97,1.79 c -0.22,0.29 -0.65,0.87 -0.87,1.16 0.86,3.05 4.24,-1.88 0.87,-1.16 m 84.5,0.62 c 1.28,2.61 3.29,4.78 5.59,6.54 -1.02,-2.74 -2.73,-5.47 -5.59,-6.54 m -1.16,2.9 c 0.56,2.59 4.16,3.95 3.63,6.7 -2.66,-0.06 -3.58,-3.59 -5.97,-4.59 1.67,2.41 3.85,4.4 5.73,6.64 -3.19,2.11 -4.26,-3.09 -6.95,-3.91 2.23,3.15 4.67,6.15 6.91,9.3 0.23,-0.23 0.68,-0.7 0.9,-0.94 l -1.08,-2 c 1.22,-1.62 1.36,-3.76 2.56,-5.39 -1.88,-1.97 -3.6,-4.11 -5.73,-5.81 z"
         id="path31385"
         style="stroke-width:1.5625" />
      <path
         d="m 488.39,188.3 c 3.21,-0.73 -0.57,3.64 -2.05,2.19 -0.88,-1.26 1.08,-2.06 2.05,-2.19 z"
         id="path31387"
         style="stroke-width:1.5625" />
      <path
         d="m 478.88,210.92 c 1.29,-0.86 2.66,-1.61 3.96,-2.47 0.51,1 1.03,2 1.55,3.01 -0.63,-0.18 -1.9,-0.54 -2.54,-0.72 -0.17,0.66 -0.5,1.97 -0.67,2.62 -1.02,-0.64 -1.78,-1.45 -2.3,-2.44 z"
         id="path31389"
         style="stroke-width:1.5625" />
      <path
         d="m 340.01,281.48 0.8,-0.32 c -0.52,4.22 -0.42,8.51 0.1,12.73 -5.03,0.5 -10.08,0.42 -15.11,0.9 -4.47,2.18 -8.59,5.6 -13.78,5.93 -2.52,0.08 -3.89,2.54 -5.85,3.78 -0.07,-2.35 0.06,-4.69 0.03,-7.03 -2.62,1.12 -4.77,2.98 -6.98,4.72 -0.02,-3.72 1.58,-7.11 2.46,-10.64 -1.88,0.26 -3.76,0.6 -5.61,1.02 0.95,-3.65 3.11,-7.36 7.13,-8.08 7.68,-0.53 15.47,0.71 23.1,-0.74 2.2,-0.36 4.44,-0.46 6.66,-0.75 2.38,-0.32 4.76,-0.76 7.05,-1.52 z"
         id="path31391"
         style="stroke-width:1.5625" />
    </g>
    <path
       d="m 272.81,183.14 c 5.96,-3.6 13.21,-3.04 19.61,-5.37 -0.33,0.63 -0.66,1.26 -0.98,1.89 0.42,0.37 1.27,1.11 1.69,1.48 -5.34,-0.17 -10.65,0.84 -15.61,2.8 2.14,0.14 4.28,0.27 6.42,0.33 -1.26,0.69 -2.65,1.09 -3.99,1.59 3.45,-0.04 7.04,-0.11 10.26,1.35 -3.39,-0.02 -6.81,0.24 -10.18,-0.33 -2.74,-0.46 -4.93,-2.31 -7.22,-3.74 z"
       fill="#9cd490"
       id="path31395"
       style="stroke-width:1.95312" />
    <path
       d="m 277.52,183.94 c 4.96,-1.96 10.27,-2.97 15.61,-2.8 l 1.18,0.01 c -1.63,1.21 -3.53,2.02 -5.6,1.85 -1.41,-0.13 -2.75,0.34 -3.93,1.08 l -0.84,0.19 c -2.14,-0.06 -4.28,-0.19 -6.42,-0.33 z"
       fill="#4c8b51"
       id="path31397"
       style="stroke-width:1.95312" />
    <path
       d="m 284.78,184.08 c 1.18,-0.74 2.52,-1.21 3.93,-1.08 -0.05,1.69 -2.88,2.11 -3.93,1.08 z"
       fill="#72aebd"
       id="path31399"
       style="stroke-width:1.95312" />
    <g
       fill="#fbf9fa"
       id="g31411"
       style="stroke-width:1.95312">
      <path
         d="m 490.38,183.19 c 0.42,0.35 0.85,0.71 1.29,1.07 0.22,0.2 0.66,0.59 0.88,0.78 -0.68,1.15 -1.4,2.28 -2.07,3.44 1.19,-0.42 2.39,-0.86 3.58,-1.3 0.27,0.39 0.8,1.15 1.07,1.54 -2.75,0.91 -5.37,2.18 -7.86,3.65 1.77,0.29 3.57,0.49 5.33,0.91 0.28,0.25 0.83,0.75 1.1,1 -1.24,0.1 -2.52,-0.11 -3.72,0.25 -0.81,0.24 -1.61,0.49 -2.41,0.75 0.6,1.07 1.23,2.14 1.86,3.21 l -3.84,3.42 c 0.67,0.67 1.34,1.34 2.02,2.01 0.21,0.21 0.64,0.64 0.86,0.85 -0.75,1.12 -1.44,2.3 -2.04,3.51 -1.08,-0.79 -2.18,-1.56 -3.26,-2.33 0.83,-0.78 1.65,-1.56 2.48,-2.36 -0.69,-0.9 -1.48,-1.73 -2.22,-2.57 0.07,0.67 0.21,2.03 0.27,2.71 -1.08,-0.17 -3.24,-0.5 -4.33,-0.66 3.06,-4.01 4.81,-8.8 6.1,-13.61 0.57,-2.83 3.56,-3.92 4.91,-6.27 m -1.99,5.11 c -0.97,0.13 -2.93,0.93 -2.05,2.19 1.48,1.45 5.26,-2.92 2.05,-2.19 m -2.2,4.86 c 0.63,0.63 0.63,0.63 0,0 m -0.05,3.25 c -1.54,2.98 3.44,0.15 0,0 m -2.87,1.83 c 0.26,3.41 2.96,-1.62 0,0 z"
         id="path31401"
         style="stroke-width:1.5625" />
      <path
         d="m 333.5,201.54 c 0.54,-0.05 1.61,-0.15 2.15,-0.2 -0.05,1.11 -0.11,2.23 -0.16,3.34 -0.56,0.07 -1.68,0.21 -2.23,0.28 0.07,-1.14 0.15,-2.28 0.24,-3.42 z"
         id="path31403"
         style="stroke-width:1.5625" />
      <path
         d="m 365.22,254.19 c 2.07,-1.77 4.44,-3.67 7.33,-3.51 -1.96,1.98 -4.61,3.09 -7.33,3.51 z"
         id="path31405"
         style="stroke-width:1.5625" />
      <path
         d="m 451.69,256.6 c 2.86,1.07 4.57,3.8 5.59,6.54 -2.3,-1.76 -4.31,-3.93 -5.59,-6.54 z"
         id="path31407"
         style="stroke-width:1.5625" />
      <path
         d="m 450.53,259.5 c 2.13,1.7 3.85,3.84 5.73,5.81 -1.2,1.63 -1.34,3.77 -2.56,5.39 l 1.08,2 c -0.22,0.24 -0.67,0.71 -0.9,0.94 -2.24,-3.15 -4.68,-6.15 -6.91,-9.3 2.69,0.82 3.76,6.02 6.95,3.91 -1.88,-2.24 -4.06,-4.23 -5.73,-6.64 2.39,1 3.31,4.53 5.97,4.59 0.53,-2.75 -3.07,-4.11 -3.63,-6.7 z"
         id="path31409"
         style="stroke-width:1.5625" />
    </g>
    <path
       d="m 491.67,184.26 c 1.08,-0.48 2.18,-0.95 3.29,-1.4 -0.31,1.44 -0.62,2.88 -0.9,4.32 -1.19,0.44 -2.39,0.88 -3.58,1.3 0.67,-1.16 1.39,-2.29 2.07,-3.44 -0.22,-0.19 -0.66,-0.58 -0.88,-0.78 z"
       fill="#868188"
       id="path31413"
       style="stroke-width:1.95312" />
    <path
       d="m 255.73,189.02 c 1.23,-0.36 2.46,-0.72 3.69,-1.07 -0.56,7.55 -0.27,15.16 -1.14,22.68 -1.04,-2.09 -1.89,-4.34 -1.86,-6.72 -0.11,-4.97 -0.58,-9.92 -0.69,-14.89 z"
       fill="#f7fff1"
       id="path31415"
       style="stroke-width:1.95312" />
    <path
       d="m 262.91,188.9 c 1.43,1.22 3.56,2.41 2.56,4.63 -1.41,5.29 -1.09,11.26 -3.97,16.03 -0.59,-6.94 1.59,-13.72 1.41,-20.66 z"
       fill="#ebfdee"
       id="path31417"
       style="stroke-width:1.95312" />
    <path
       d="m 487.27,192.37 c 2.49,-1.47 5.11,-2.74 7.86,-3.65 l 0.95,-0.33 c -0.98,1.76 -2.16,3.38 -3.48,4.89 -1.76,-0.42 -3.56,-0.62 -5.33,-0.91 z"
       fill="#827e7f"
       id="path31419"
       style="stroke-width:1.95312" />
    <path
       d="m 551.08,189.26 c 0.57,0.09 1.7,0.29 2.27,0.39 1.22,6.52 2.25,13.16 2.2,19.82 -2.89,-3.19 -2.23,-7.8 -3.3,-11.69 -0.39,-2.83 -1.95,-5.65 -1.17,-8.52 z"
       fill="#d6ffe4"
       id="path31421"
       style="stroke-width:1.95312" />
    <g
       fill="#fbfcf4"
       id="g31427"
       style="stroke-width:1.95312">
      <path
         d="m 268.86,191.77 c 0.93,0.77 2.59,0.97 2.98,2.25 -0.37,2.41 -1.97,4.36 -3.31,6.31 -0.12,-1.78 -0.28,-3.56 -0.33,-5.34 0.18,-1.08 0.4,-2.15 0.66,-3.22 z"
         id="path31423"
         style="stroke-width:1.5625" />
      <path
         d="m 337.99,276.27 c 0.77,-0.97 1.56,-1.93 2.37,-2.88 -0.11,2.7 -0.22,5.39 -0.35,8.09 -0.61,-0.21 -1.82,-0.63 -2.43,-0.84 -0.12,-0.32 -0.36,-0.96 -0.48,-1.28 0.28,-1.04 0.58,-2.07 0.89,-3.09 z"
         id="path31425"
         style="stroke-width:1.5625" />
    </g>
    <path
       d="m 527.26,193.08 c 2.43,-2.45 6.06,-1.53 9.07,-1.04 -2.99,0.62 -6.04,0.87 -9.07,1.04 z"
       fill="#8fbd38"
       id="path31429"
       style="stroke-width:1.95312" />
    <path
       d="m 544.08,193.04 c 1.05,-0.63 2.11,-1.25 3.19,-1.87 1.58,3.82 2.79,7.79 3.59,11.85 -2.48,-3.18 -4.65,-6.57 -6.78,-9.98 z"
       fill="#eefff7"
       id="path31431"
       style="stroke-width:1.95312" />
    <path
       d="m 486.19,193.16 c 0.63,0.63 0.63,0.63 0,0 z"
       fill="#292627"
       id="path31433"
       style="stroke-width:1.95312" />
    <path
       d="m 534.82,193.7 c 1.94,-0.29 3.91,-0.64 5.89,-0.49 3.25,3.08 4.85,7.47 6.4,11.59 -3.86,-3.96 -8.07,-7.54 -12.29,-11.1 z"
       fill="#ecfdf9"
       id="path31435"
       style="stroke-width:1.95312" />
    <path
       d="m 266.01,203.46 c 0.1,-2.95 0.68,-5.9 2.19,-8.47 0.05,1.78 0.21,3.56 0.33,5.34 0.51,1.69 -1.58,2.19 -2.52,3.13 z"
       fill="#95c977"
       id="path31437"
       style="stroke-width:1.95312" />
    <path
       d="m 487.57,195.28 c 0.8,-0.26 1.6,-0.51 2.41,-0.75 0.79,0.82 1.58,1.65 2.38,2.47 -1.71,2.22 -3.31,4.52 -4.75,6.92 -0.68,-0.67 -1.35,-1.34 -2.02,-2.01 l 3.84,-3.42 c -0.63,-1.07 -1.26,-2.14 -1.86,-3.21 z"
       fill="#797675"
       id="path31439"
       style="stroke-width:1.95312" />
    <path
       d="m 486.14,196.41 c 3.44,0.15 -1.54,2.98 0,0 z"
       fill="#444041"
       id="path31441"
       style="stroke-width:1.95312" />
    <path
       d="m 483.27,198.24 c 2.96,-1.62 0.26,3.41 0,0 z"
       fill="#312b2d"
       id="path31443"
       style="stroke-width:1.95312" />
    <g
       fill="#c9c4c2"
       id="g31449"
       style="stroke-width:1.95312">
      <path
         d="m 476.53,210.87 c 1.68,-1.81 3.26,-3.71 4.8,-5.64 2.59,0.84 3.67,3.47 5.05,5.58 -1.26,2.04 -2.35,4.19 -3.08,6.48 -2.76,1.07 -5.4,2.42 -8.09,3.63 0.14,-0.52 0.41,-1.55 0.55,-2.07 2,-1.16 5.01,-1.49 5.62,-4.11 -2.01,0.61 -3.94,1.44 -5.93,2.07 1.11,-1.38 2.45,-2.56 3.8,-3.71 -0.91,-0.75 -1.82,-1.49 -2.72,-2.23 m 2.35,0.05 c 0.52,0.99 1.28,1.8 2.3,2.44 0.17,-0.65 0.5,-1.96 0.67,-2.62 0.64,0.18 1.91,0.54 2.54,0.72 -0.52,-1.01 -1.04,-2.01 -1.55,-3.01 -1.3,0.86 -2.67,1.61 -3.96,2.47 z"
         id="path31445"
         style="stroke-width:1.5625" />
      <path
         d="m 325.8,294.79 c 5.03,-0.48 10.08,-0.4 15.11,-0.9 0.52,3.46 1.05,6.93 1.8,10.36 -1.69,-2.8 -1.99,-6.07 -2.22,-9.25 -4.89,-0.37 -9.79,-0.36 -14.69,-0.21 z"
         id="path31447"
         style="stroke-width:1.5625" />
    </g>
    <g
       fill="#fcfcfd"
       id="g31455"
       style="stroke-width:1.95312">
      <path
         d="m 326.09,211.85 c 2.94,-0.74 5.88,-1.46 8.89,-1.86 -1.07,1.02 -2.15,2.02 -3.24,3.01 2.3,0.08 4.6,0.14 6.9,0.27 -1.29,0.62 -2.59,1.21 -3.9,1.79 1.74,0.78 3.47,1.56 5.23,2.31 -1.78,0.28 -3.56,0.55 -5.31,0.95 -1.35,0.32 -2.68,0.65 -4.03,0.94 -0.75,-0.6 -1.51,-1.19 -2.24,-1.8 -1.49,-1.53 -1.99,-3.58 -2.3,-5.61 z"
         id="path31451"
         style="stroke-width:1.5625" />
      <path
         d="m 368.09,244.11 c 2.48,-0.79 5.05,-1.25 7.6,-1.79 -0.05,0.56 -0.13,1.69 -0.17,2.25 -2.47,0.59 -4.9,1.29 -7.3,2.07 -0.04,-0.63 -0.1,-1.9 -0.13,-2.53 z"
         id="path31453"
         style="stroke-width:1.5625" />
    </g>
    <path
       d="m 328.39,217.46 c 0.73,0.61 1.49,1.2 2.24,1.8 3.46,4.64 7.03,9.25 9.84,14.34 3,5.28 2.85,11.73 6.1,16.9 1.91,3.08 3.5,6.41 3.93,10.05 0.92,6.62 3.43,12.99 3.34,19.74 -0.32,2.15 -0.33,4.34 -0.23,6.51 -0.86,9.21 2.05,19.61 -3.8,27.68 -4.13,-1.76 -5.86,-6.26 -7.1,-10.23 -0.75,-3.43 -1.28,-6.9 -1.8,-10.36 -0.52,-4.22 -0.62,-8.51 -0.1,-12.73 0.47,-2 0.93,-3.99 1.27,-6.02 0.7,-7.16 0.63,-14.38 0.35,-21.56 -0.69,0 -1.38,0 -2.06,0.01 -0.37,0.01 -1.09,0.03 -1.45,0.04 -1.72,7.47 0.64,15.14 -0.93,22.64 -0.31,1.02 -0.61,2.05 -0.89,3.09 -0.68,-1.85 -1.31,-3.72 -1.84,-5.61 -1.06,-4.16 -1.98,-8.37 -2.68,-12.6 -0.12,-3.4 0.48,-6.76 0.6,-10.14 -1.27,-4.32 -5.2,-7.59 -5.55,-12.25 -0.18,-3.71 0.31,-7.41 0.24,-11.11 -1.85,0.67 -4.22,0.86 -5.3,2.75 -1.02,5.49 0.43,10.92 2.1,16.11 1.55,3.88 -0.3,7.81 -1.81,11.37 -2.92,5.11 -2.64,11.09 -3.03,16.76 -0.34,0.43 -1.02,1.28 -1.36,1.71 -0.99,-4.71 -1.02,-9.54 -0.55,-14.3 0.3,-3.36 0.47,-6.87 -0.89,-10.04 -1.67,0.46 -1.74,2.32 -2.25,3.69 -0.51,1.8 -1.1,3.59 -2.01,5.23 -2.28,3.22 -3.45,7 -2.6,10.95 -0.71,0.3 -2.12,0.89 -2.83,1.19 0.08,-3.2 0.4,-6.38 0.4,-9.57 -0.58,-3.81 -4.3,-6.3 -6.35,-9.43 4.88,-9 4.39,-19.94 9.82,-28.69 1.97,-3.45 5.58,-5.63 9.32,-6.67 2.6,-0.48 5.24,-0.79 7.86,-1.25 z"
       fill="#fc0812"
       id="path31457"
       style="stroke-width:1.95312" />
    <path
       d="m 330.63,219.26 c 1.35,-0.29 2.68,-0.62 4.03,-0.94 -0.34,4.36 3.36,7.15 5.49,10.48 3.11,4.51 4.96,9.74 5.94,15.11 0.66,4.32 3.86,7.52 5.55,11.4 1.49,4.64 1.25,9.64 2.8,14.28 0.92,3.5 2.81,7.91 -0.6,10.7 0.09,-6.75 -2.42,-13.12 -3.34,-19.74 -0.43,-3.64 -2.02,-6.97 -3.93,-10.05 -3.25,-5.17 -3.1,-11.62 -6.1,-16.9 -2.81,-5.09 -6.38,-9.7 -9.84,-14.34 z"
       fill="#d6685f"
       id="path31459"
       style="stroke-width:1.95312" />
    <path
       d="m 551.95,221.22 c 1.69,-0.3 3.39,-0.57 5.1,-0.78 0.13,5.5 0.2,11.05 1.46,16.44 -0.39,-0.17 -1.16,-0.52 -1.55,-0.69 -1.28,-5.12 -3.45,-9.94 -5.01,-14.97 z"
       fill="#edfdee"
       id="path31461"
       style="stroke-width:1.95312" />
    <path
       d="m 259.79,221.57 c 1.65,0.02 3.62,-0.34 4.74,1.22 -1.69,5.14 -3.05,10.41 -5.28,15.34 0.28,-5.51 0.56,-11.03 0.54,-16.56 z"
       fill="#f9fef3"
       id="path31463"
       style="stroke-width:1.95312" />
    <path
       d="m 322.57,230.4 c 1.08,-1.89 3.45,-2.08 5.3,-2.75 0.07,3.7 -0.42,7.4 -0.24,11.11 0.35,4.66 4.28,7.93 5.55,12.25 -0.12,3.38 -0.72,6.74 -0.6,10.14 -3.28,0.39 -6.57,0.66 -9.84,1.12 -0.01,-1.47 0.01,-2.93 0.12,-4.39 1.51,-3.56 3.36,-7.49 1.81,-11.37 -1.67,-5.19 -3.12,-10.62 -2.1,-16.11 z"
       fill="#fcfdfb"
       id="path31465"
       style="stroke-width:1.95312" />
    <g
       fill="#e3ffd8"
       id="g31475"
       style="stroke-width:1.95312">
      <path
         d="m 542.87,228.89 c 3.48,6.56 10.97,9.64 14.32,16.26 -6.15,-3.37 -10.31,-9.17 -15.44,-13.78 0.28,-0.62 0.84,-1.86 1.12,-2.48 z"
         id="path31467"
         style="stroke-width:1.5625" />
      <path
         d="m 274.9,294.92 c 0.51,1.1 1.01,2.2 1.51,3.3 0.45,0.04 1.35,0.11 1.8,0.15 -1.33,4.16 -2.22,8.48 -4.16,12.43 -0.19,-1.69 -0.33,-3.38 -0.42,-5.07 0.56,-3.59 1.2,-7.17 1.27,-10.81 z"
         id="path31469"
         style="stroke-width:1.5625" />
      <path
         d="m 254.53,333.77 c 4.34,4.15 9.75,6.89 14.51,10.49 -5.66,-1.31 -10.55,-4.54 -15.48,-7.46 0.32,-1.01 0.65,-2.02 0.97,-3.03 z"
         id="path31471"
         style="stroke-width:1.5625" />
      <path
         d="m 457.53,398.38 c 5.72,-3.32 12.22,-4.91 18.58,-6.52 1.69,-0.6 3.43,-0.28 4.85,0.83 -7.58,2.73 -15.54,4.18 -23.43,5.69 z"
         id="path31473"
         style="stroke-width:1.5625" />
    </g>
    <g
       fill="#76ab7c"
       id="g31481"
       style="stroke-width:1.95312">
      <path
         d="m 266.55,243.47 c 5.21,-0.1 8.55,-5.28 13.79,-5.65 -0.9,1.55 -2.07,2.94 -3.65,3.83 -4.25,2.66 -8.28,5.86 -13.15,7.32 0.86,-1.9 1.71,-3.84 3.01,-5.5 z"
         id="path31477"
         style="stroke-width:1.5625" />
      <path
         d="m 549.17,343.58 c 2.69,-3.98 7.21,-5.9 11.31,-8.06 2.13,-0.03 4.26,0.08 6.4,0.21 -1.63,2.39 -3.53,4.69 -6.15,6.02 -5.9,3.16 -12.42,5.08 -19,6.16 2.77,-0.84 5.78,-1.76 7.44,-4.33 z"
         id="path31479"
         style="stroke-width:1.5625" />
    </g>
    <g
       fill="#f8fdf4"
       id="g31487"
       style="stroke-width:1.95312">
      <path
         d="m 365.32,251.17 c 2.44,-3.02 6.54,-3.68 10.16,-4.18 -3.13,1.94 -6.74,2.9 -10.16,4.18 z"
         id="path31483"
         style="stroke-width:1.5625" />
      <path
         d="m 547.81,325.77 c 2.67,-3.17 7.07,-3.34 10.79,-4.35 l 1.4,2.16 c -9.14,4.04 -14.96,12.69 -23.47,17.65 3.15,-5.55 7.11,-10.64 11.28,-15.46 z"
         id="path31485"
         style="stroke-width:1.5625" />
    </g>
    <path
       d="m 314.78,255.7 c 0.51,-1.37 0.58,-3.23 2.25,-3.69 1.36,3.17 1.19,6.68 0.89,10.04 l -0.96,0.24 c -0.09,-2.7 -0.14,-5.38 -0.16,-8.07 -0.68,0.49 -1.35,0.98 -2.02,1.48 z"
       fill="#ea816c"
       id="path31489"
       style="stroke-width:1.95312" />
    <path
       d="m 338.92,253.63 c 0.36,-0.01 1.08,-0.03 1.45,-0.04 -0.98,6.59 0.36,13.19 -0.01,19.8 -0.81,0.95 -1.6,1.91 -2.37,2.88 1.57,-7.5 -0.79,-15.17 0.93,-22.64 z"
       fill="#e67466"
       id="path31491"
       style="stroke-width:1.95312" />
    <path
       d="m 340.37,253.59 c 0.68,-0.01 1.37,-0.01 2.06,-0.01 0.28,7.18 0.35,14.4 -0.35,21.56 -0.43,-0.43 -1.29,-1.31 -1.72,-1.75 0.37,-6.61 -0.97,-13.21 0.01,-19.8 z"
       fill="#3e0200"
       id="path31493"
       style="stroke-width:1.95312" />
    <path
       d="m 251.09,254.37 c 2.22,0.78 4.45,1.5 6.72,2.14 0.61,5.85 0.8,11.75 0.44,17.62 -1.18,-1.14 -1.92,-2.58 -2.27,-4.17 -1.33,-5.29 -3.35,-10.36 -4.89,-15.59 z"
       fill="#f9fdf8"
       id="path31495"
       style="stroke-width:1.95312" />
    <path
       d="m 314.78,255.7 c 0.67,-0.5 1.34,-0.99 2.02,-1.48 0.02,2.69 0.07,5.37 0.16,8.07 -1.06,0.21 -2.11,0.4 -3.16,0.57 -0.26,-0.48 -0.77,-1.45 -1.03,-1.93 0.91,-1.64 1.5,-3.43 2.01,-5.23 z"
       fill="#ffe6f8"
       id="path31497"
       style="stroke-width:1.95312" />
    <path
       d="m 559.63,255.58 c 2.06,-0.81 4.26,-1.14 6.44,-1.51 -1.05,3.26 -2.38,6.43 -3.27,9.73 -1,3.34 -1.44,7.01 -3.85,9.71 -0.44,-5.97 -0.16,-12.01 0.68,-17.93 z"
       fill="#fcfef6"
       id="path31499"
       style="stroke-width:1.95312" />
    <path
       d="m 367.19,255.98 c 3.37,-0.72 -0.01,4.21 -0.87,1.16 0.22,-0.29 0.65,-0.87 0.87,-1.16 z"
       fill="#868083"
       id="path31501"
       style="stroke-width:1.95312" />
    <path
       d="m 319.83,274.64 c 0.39,-5.67 0.11,-11.65 3.03,-16.76 -0.11,1.46 -0.13,2.92 -0.12,4.39 0.08,4.57 -0.23,9.13 -0.86,13.66 -0.52,-0.33 -1.54,-0.97 -2.05,-1.29 z"
       fill="#df7167"
       id="path31503"
       style="stroke-width:1.95312" />
    <path
       d="m 310.17,271.88 c -0.85,-3.95 0.32,-7.73 2.6,-10.95 0.26,0.48 0.77,1.45 1.03,1.93 l 0.27,0.41 c -1.46,2.8 -2.41,5.83 -3.9,8.61 z"
       fill="#d76e63"
       id="path31505"
       style="stroke-width:1.95312" />
    <g
       fill="#120a0b"
       id="g31511"
       style="stroke-width:1.95312">
      <path
         d="m 322.74,262.27 c 3.27,-0.46 6.56,-0.73 9.84,-1.12 0.7,4.23 1.62,8.44 2.68,12.6 -1.84,0.33 -3.68,0.67 -5.52,1.03 -2.6,0.52 -5.24,0.77 -7.86,1.15 0.63,-4.53 0.94,-9.09 0.86,-13.66 z"
         id="path31507"
         style="stroke-width:1.5625" />
      <path
         d="m 297.38,269.39 c 1.45,-4.27 6.59,-4.94 10.36,-5.89 0,3.19 -0.32,6.37 -0.4,9.57 0.71,-0.3 2.12,-0.89 2.83,-1.19 1.49,-2.78 2.44,-5.81 3.9,-8.61 0.54,0.49 1.61,1.46 2.15,1.94 0.15,3.88 0.04,7.77 -0.17,11.64 -5.76,2.45 -12.23,2.78 -17.65,6.03 -0.02,-0.68 -0.05,-2.05 -0.07,-2.73 -1.08,0.16 -2.16,0.31 -3.23,0.46 1.1,-3.67 1.48,-7.49 2.28,-11.22 z"
         id="path31509"
         style="stroke-width:1.5625" />
    </g>
    <path
       d="m 313.8,262.86 c 1.05,-0.17 2.1,-0.36 3.16,-0.57 l 0.96,-0.24 c -0.47,4.76 -0.44,9.59 0.55,14.3 l 0.14,0.86 -2.56,-0.36 c 0.21,-3.87 0.32,-7.76 0.17,-11.64 -0.54,-0.48 -1.61,-1.45 -2.15,-1.94 z"
       fill="#871419"
       id="path31513"
       style="stroke-width:1.95312" />
    <g
       fill="#f0ffd1"
       id="g31523"
       style="stroke-width:1.95312">
      <path
         d="m 570,276.63 c 2.63,-3 4.92,-6.49 8.52,-8.43 -4.16,5.62 -8.69,11.18 -14.54,15.14 1.09,-2.95 2.6,-5.72 4.49,-8.22 0.38,0.38 1.14,1.13 1.53,1.51 z"
         id="path31515"
         style="stroke-width:1.5625" />
      <path
         d="m 277.56,314.89 c -0.9,-1.46 1.44,-3.48 2.75,-2.39 -0.29,1.28 -1.32,2.52 -2.75,2.39 z"
         id="path31517"
         style="stroke-width:1.5625" />
      <path
         d="m 289.89,319.93 c 0.96,2.82 1.9,5.67 2.38,8.63 -0.73,3.1 -1.65,6.17 -2.93,9.09 -0.49,-5.92 0.79,-11.8 0.55,-17.72 z"
         id="path31519"
         style="stroke-width:1.5625" />
      <path
         d="m 470.24,387.49 1.72,-1.64 c 1.04,1.07 2.09,2.15 3.13,3.24 -3.53,1.85 -7.44,2.85 -11.43,2.8 1.17,-0.94 2.25,-2.08 3.68,-2.63 1.1,-0.33 2.17,-0.85 2.9,-1.77 z"
         id="path31521"
         style="stroke-width:1.5625" />
    </g>
    <g
       fill="#defec7"
       id="g31529"
       style="stroke-width:1.95312">
      <path
         d="m 559.77,282.3 c 0.46,-3.57 1.49,-7.03 2.89,-10.34 0.13,0.64 0.38,1.91 0.5,2.55 1.01,-0.82 2.01,-1.63 3.04,-2.43 -1.63,3.7 -3.57,7.32 -6.43,10.22 z"
         id="path31525"
         style="stroke-width:1.5625" />
      <path
         d="m 479.82,369.6 c 0.59,-2.21 1.23,-4.41 1.98,-6.58 -0.64,5.23 -0.76,10.55 -2.04,15.69 -1.06,-3.44 -1.23,-7.05 -1.56,-10.61 0.54,0.5 1.07,1 1.62,1.5 z"
         id="path31527"
         style="stroke-width:1.5625" />
    </g>
    <path
       d="m 577.96,276.02 c -3.1,1.47 -2.08,-4.43 0.33,-1.7 -0.08,0.43 -0.25,1.28 -0.33,1.7 z"
       fill="#7ba6c7"
       id="path31531"
       style="stroke-width:1.95312" />
    <path
       d="m 329.74,274.78 c 1.84,-0.36 3.68,-0.7 5.52,-1.03 0.53,1.89 1.16,3.76 1.84,5.61 0.12,0.32 0.36,0.96 0.48,1.28 0.61,0.21 1.82,0.63 2.43,0.84 -2.29,0.76 -4.67,1.2 -7.05,1.52 0.87,-0.49 1.74,-0.96 2.61,-1.43 -0.22,-2.25 -0.37,-4.5 -0.48,-6.75 -1.79,-0.04 -3.57,-0.06 -5.35,-0.04 z"
       fill="#ad7e7a"
       id="path31533"
       style="stroke-width:1.95312" />
    <path
       d="m 340.36,273.39 c 0.43,0.44 1.29,1.32 1.72,1.75 -0.34,2.03 -0.8,4.02 -1.27,6.02 l -0.8,0.32 c 0.13,-2.7 0.24,-5.39 0.35,-8.09 z"
       fill="#fb818b"
       id="path31535"
       style="stroke-width:1.95312" />
    <path
       d="m 558.2,293.2 c 2.9,-2.67 6.73,-4.02 9.93,-6.3 0.92,1.23 1.78,2.5 2.62,3.81 l -0.76,-0.69 c -0.5,-0.46 -1.51,-1.37 -2.01,-1.83 -5.12,5.39 -8.91,11.86 -13.98,17.29 0.93,-4.22 1.96,-8.56 4.2,-12.28 z"
       fill="#effeef"
       id="path31537"
       style="stroke-width:1.95312" />
    <path
       d="m 250.55,289.97 c 0.6,0.03 1.79,0.09 2.38,0.12 2.52,1.28 5.73,2.12 6.99,4.91 1.88,3.86 3.05,8.03 4.14,12.17 -4.57,-5.26 -8.32,-11.16 -12.89,-16.43 z"
       fill="#f2fef1"
       id="path31539"
       style="stroke-width:1.95312" />
    <path
       d="m 549.8,291.73 c 1.69,0.58 3.37,1.2 5.04,1.89 -1.76,4.03 -3.16,8.2 -4.36,12.43 -0.4,-4.76 -1.26,-9.53 -0.68,-14.32 z"
       fill="#e1ffee"
       id="path31541"
       style="stroke-width:1.95312" />
    <path
       d="m 262.92,293.5 c 1.65,-0.11 3.31,-0.23 4.98,-0.32 -0.05,0.38 -0.15,1.16 -0.2,1.55 -0.4,2.92 -0.86,5.83 -1.38,8.74 -1.36,-3.25 -2.56,-6.56 -3.4,-9.97 z"
       fill="#f4fdf8"
       id="path31543"
       style="stroke-width:1.95312" />
    <path
       d="m 266.32,303.47 c 0.52,-2.91 0.98,-5.82 1.38,-8.74 0.28,3.7 0.38,7.42 0.23,11.14 -0.49,-0.06 -1.48,-0.18 -1.98,-0.24 0.09,-0.54 0.27,-1.62 0.37,-2.16 z"
       fill="#bfd59a"
       id="path31545"
       style="stroke-width:1.95312" />
    <g
       fill="#c2fec8"
       id="g31555"
       style="stroke-width:1.95312">
      <path
         d="m 529.93,321.02 c 0.73,-0.63 1.46,-1.26 2.2,-1.88 -0.23,6.38 0.58,12.73 0.66,19.11 -1.01,-1.49 -1.98,-3 -2.97,-4.49 -0.39,1.74 -0.74,3.49 -1.1,5.24 -1.33,-4.26 -2.68,-8.51 -3.9,-12.8 0.84,-1.19 1.69,-2.37 2.54,-3.55 0.42,3.65 1.08,7.28 2.21,10.8 1.68,-3.97 1.03,-8.32 0.36,-12.43 z"
         id="path31547"
         style="stroke-width:1.5625" />
      <path
         d="m 303.93,344.37 c 0.5,-1.65 1.19,-3.22 1.85,-4.81 -0.23,7.81 3.5,15.43 1.72,23.19 -1.65,-6.03 -2.39,-12.25 -3.57,-18.38 z"
         id="path31549"
         style="stroke-width:1.5625" />
      <path
         d="m 331.81,365.09 c 0.71,-1.08 1.43,-2.15 2.16,-3.22 -0.56,7.22 3.01,14.07 1.98,21.25 -2.43,-5.74 -2.92,-11.99 -4.14,-18.03 z"
         id="path31551"
         style="stroke-width:1.5625" />
      <path
         d="m 454,393.22 c 2.07,-4.72 4.53,-9.74 9.03,-12.58 -1.87,4.79 -4.19,10.15 -9.03,12.58 z"
         id="path31553"
         style="stroke-width:1.5625" />
    </g>
    <g
       fill="#edfee4"
       id="g31561"
       style="stroke-width:1.95312">
      <path
         d="m 542.23,321.86 c 0.89,0.91 2.53,1.5 2.4,3.04 -1.27,2.82 -3.51,5.06 -5.65,7.25 0.47,-3.6 1.74,-7.01 3.25,-10.29 z"
         id="path31557"
         style="stroke-width:1.5625" />
      <path
         d="m 517.19,356.95 c 2.14,-3.86 4.29,-7.79 7.62,-10.76 0.6,0.56 1.79,1.68 2.39,2.24 -2.75,3.47 -6.42,6 -10.01,8.52 z"
         id="path31559"
         style="stroke-width:1.5625" />
    </g>
    <g
       fill="#e2fedf"
       id="g31567"
       style="stroke-width:1.95312">
      <path
         d="m 272.25,324.78 c 1.12,-0.61 2.25,-1.2 3.39,-1.78 1.49,3.48 3.54,6.97 3.46,10.87 -2.43,-2.92 -4.67,-5.99 -6.85,-9.09 z"
         id="path31563"
         style="stroke-width:1.5625" />
      <path
         d="m 291.55,349.56 c -1.34,-1.94 1.75,-1.96 2.9,-2.66 2.09,3.54 4.44,6.91 6.36,10.55 -3.47,-2.12 -6.74,-4.7 -9.26,-7.89 z"
         id="path31565"
         style="stroke-width:1.5625" />
    </g>
    <path
       d="m 318.08,363.77 c 4.14,4.72 8.09,9.74 10.67,15.51 -4.22,-3.67 -8.74,-7.07 -12.47,-11.24 0.5,-1.47 1.17,-2.87 1.8,-4.27 z"
       fill="#f7fdf5"
       id="path31569"
       style="stroke-width:1.95312" />
    <path
       d="m 499.16,364.2 c 2.56,-0.78 1.9,2.76 2.61,4.25 l -0.94,0.26 c -1.52,0.19 -2.48,1.45 -3.28,2.62 -1.1,1.38 -2.26,2.69 -3.33,4.09 -0.4,-0.64 -1.21,-1.92 -1.61,-2.56 2.31,-2.79 3.93,-6.13 6.55,-8.66 z"
       fill="#f5fdfa"
       id="path31571"
       style="stroke-width:1.95312" />
    <path
       d="m 497.55,371.33 c 0.8,-1.17 1.76,-2.43 3.28,-2.62 1.15,1.72 -1.84,3.98 -3.28,2.62 z"
       fill="#95bb37"
       id="path31573"
       style="stroke-width:1.95312" />
    <path
       d="m 503.29,370.76 c 0.47,-1.25 2.5,-1.74 2.76,-0.06 -0.69,0.01 -2.07,0.05 -2.76,0.06 z"
       fill="#64aca7"
       id="path31575"
       style="stroke-width:1.95312" />
    <path
       d="m 310.07,372.64 c 1.24,-0.57 2.48,-1.2 3.83,-1.52 1.71,0.88 3.15,2.18 4.63,3.4 4.63,3.98 9.91,7.24 13.86,11.96 -8.22,-3.12 -15.51,-8.38 -22.32,-13.84 z"
       fill="#f3fef1"
       id="path31577"
       style="stroke-width:1.95312" />
    <path
       d="m 503.29,370.76 c 0.69,-0.01 2.07,-0.05 2.76,-0.06 0.27,0.58 0.81,1.76 1.08,2.35 -3.99,3.38 -8.46,6.12 -12.46,9.48 -2,1.58 -4.05,3.41 -6.69,3.71 -0.64,0.07 -1.93,0.23 -2.57,0.3 3.08,-3.61 6.79,-6.59 10.47,-9.55 1.71,-1.37 3.42,-2.71 5.09,-4.12 0.79,-0.68 1.56,-1.38 2.32,-2.11 z"
       fill="#ccedcd"
       id="path31579"
       style="stroke-width:1.95312" />
    <path
       d="m 489.63,378.22 c 0.82,-1.88 1.82,-3.67 2.98,-5.36 0.4,0.64 1.21,1.92 1.61,2.56 -1.33,1.23 -2.9,2.16 -4.59,2.8 z"
       fill="#9bdc89"
       id="path31581"
       style="stroke-width:1.95312" />
    <path
       d="m 495.88,376.99 c 1.69,-1.38 3.41,-2.73 5.09,-4.12 -1.67,1.41 -3.38,2.75 -5.09,4.12 z"
       fill="#6fa1a4"
       id="path31583"
       style="stroke-width:1.95312" />
    <path
       d="m 304.49,378.95 c -2.43,-1 1.86,-3.25 1.46,-0.66 -0.36,0.17 -1.09,0.5 -1.46,0.66 z"
       fill="#d3da78"
       id="path31585"
       style="stroke-width:1.95312" />
    <path
       d="m 347.66,376.53 0.57,0.75 c 2.99,4.2 6.27,8.22 8.8,12.72 -3.64,-2.08 -7.01,-4.59 -10.38,-7.09 0.36,-2.12 0.74,-4.24 1.01,-6.38 z"
       fill="#e9feed"
       id="path31587"
       style="stroke-width:1.95312" />
    <path
       d="m 345.06,386.17 c 4.28,2.04 8.5,4.33 12.08,7.49 -4.53,-0.94 -8.97,-2.29 -13.37,-3.72 0.42,-1.27 0.85,-2.52 1.29,-3.77 z"
       fill="#e5ffed"
       id="path31589"
       style="stroke-width:1.95312" />
    <path
       d="m 467.34,389.26 c -0.88,-1.58 1.88,-3.22 2.9,-1.77 -0.73,0.92 -1.8,1.44 -2.9,1.77 z"
       fill="#5fb5a4"
       id="path31591"
       style="stroke-width:1.95312" />
    <path
       d="m 369.51,392.22 c 1.3,-1.12 3.27,1.09 2.11,2.3 -1.31,1.1 -3.25,-1.1 -2.11,-2.3 z"
       fill="#7cdd73"
       id="path31593"
       style="stroke-width:1.95312" />
    <path
       d="m 446.63,392.08 c 1.32,-1.36 3.21,1 1.86,2.15 -1.3,1.34 -3.15,-1.02 -1.86,-2.15 z"
       fill="#76d66f"
       id="path31595"
       style="stroke-width:1.95312" />
    <path
       d="m 442.45,395.32 c 2.13,-0.93 2.32,2.46 0.47,2.84 -2.12,0.9 -2.27,-2.46 -0.47,-2.84 z"
       fill="#bcf2a5"
       id="path31597"
       style="stroke-width:1.95312" />
    <path
       d="m 474.63,406.69 c 2.93,-1.31 6.58,-1.33 9.07,0.93 l -1.03,-0.1 c -2.68,-0.28 -5.36,-0.62 -8.04,-0.83 z"
       fill="#b1c95a"
       id="path31599"
       style="stroke-width:1.95312" />
    <path
       d="m 433.13,414.58 c 4.56,1.21 9.21,2.26 13.96,2.08 l 1.18,0.03 c -2.84,2.07 -6.36,0.91 -9.53,0.56 -0.31,0.82 -0.63,1.64 -0.95,2.46 -1.67,-0.5 -3.32,-1.03 -4.94,-1.65 0.43,0.13 1.29,0.39 1.71,0.52 -0.47,-1.34 -0.95,-2.67 -1.43,-4 z"
       fill="#92c8ac"
       id="path31601"
       style="stroke-width:1.95312" />
  </g>
</svg>
