<?xml version="1.0" encoding="UTF-8" standalone="no"?>
<svg
   xml:space="preserve"
   width="512"
   height="512"
   viewBox="0 0 192 192"
   version="1.1"
   id="svg13881"
   sodipodi:docname="ru-kb.svg"
   inkscape:version="1.2.2 (b0a84865, 2022-12-01)"
   xmlns:inkscape="http://www.inkscape.org/namespaces/inkscape"
   xmlns:sodipodi="http://sodipodi.sourceforge.net/DTD/sodipodi-0.dtd"
   xmlns="http://www.w3.org/2000/svg"
   xmlns:svg="http://www.w3.org/2000/svg"><defs
   id="defs13885" /><sodipodi:namedview
   id="namedview13883"
   pagecolor="#ffffff"
   bordercolor="#666666"
   borderopacity="1.0"
   inkscape:showpageshadow="2"
   inkscape:pageopacity="0.0"
   inkscape:pagecheckerboard="0"
   inkscape:deskcolor="#d1d1d1"
   showgrid="false"
   inkscape:zoom="1.1699219"
   inkscape:cx="256"
   inkscape:cy="256"
   inkscape:window-width="1440"
   inkscape:window-height="819"
   inkscape:window-x="0"
   inkscape:window-y="25"
   inkscape:window-maximized="0"
   inkscape:current-layer="svg13881" />
<clipPath
   id="mid"><circle
     cx="225"
     cy="150"
     r="50"
     id="circle13866" /></clipPath>


<g
   id="g14629"
   transform="matrix(0.42666667,0,0,0.63999994,0,-0.11999998)"
   style="stroke-width:1.91366"><rect
     fill="#3399ff"
     width="450"
     height="100"
     id="rect13869"
     x="0"
     y="0.18749999"
     style="stroke-width:3.18944" /><rect
     fill="#ffffff"
     width="450"
     height="100"
     y="100.1875"
     id="rect13871"
     x="0"
     style="stroke-width:3.18944" /><rect
     fill="#00923f"
     width="450"
     height="100"
     y="200.18753"
     id="rect13873"
     x="0"
     style="stroke-width:3.18944" /></g>


<g
   id="g14634"
   transform="matrix(0.63999994,0,0,0.63999994,-47.999985,-0.11999998)"
   style="stroke-width:1.5625"><circle
     cx="225"
     cy="150.18753"
     r="50"
     fill="#3399ff"
     id="circle13875"
     style="stroke-width:2.60417" /><path
     clip-path="url(#mid)"
     fill="#ffffff"
     stroke="#3399ff"
     stroke-width="1.5625"
     stroke-linejoin="round"
     d="m 276,151 c 0,0 -25,-29 -36,-29 -9,0 -14,10 -14,10 l 3,3 c -5,-4 -10,-11 -18,-11 -12,0 -37,27 -37,27 z"
     id="path13877"
     transform="translate(0,0.1875)" /><rect
     clip-path="url(#mid)"
     fill="#00923f"
     x="175"
     y="150"
     width="100"
     height="50"
     id="rect13879"
     transform="translate(0,0.1875)"
     style="stroke-width:2.60417" /></g>
</svg>
