<?xml version="1.0" encoding="UTF-8" standalone="no"?>
<svg
   width="512"
   height="512"
   version="1.1"
   id="svg48079"
   sodipodi:docname="ru-kgd.svg"
   inkscape:version="1.2.2 (b0a84865, 2022-12-01)"
   xmlns:inkscape="http://www.inkscape.org/namespaces/inkscape"
   xmlns:sodipodi="http://sodipodi.sourceforge.net/DTD/sodipodi-0.dtd"
   xmlns="http://www.w3.org/2000/svg"
   xmlns:svg="http://www.w3.org/2000/svg">
  <defs
     id="defs48083" />
  <sodipodi:namedview
     id="namedview48081"
     pagecolor="#ffffff"
     bordercolor="#666666"
     borderopacity="1.0"
     inkscape:showpageshadow="2"
     inkscape:pageopacity="0.0"
     inkscape:pagecheckerboard="0"
     inkscape:deskcolor="#d1d1d1"
     showgrid="false"
     inkscape:zoom="1.1699219"
     inkscape:cx="255.57262"
     inkscape:cy="256"
     inkscape:window-width="1440"
     inkscape:window-height="819"
     inkscape:window-x="0"
     inkscape:window-y="25"
     inkscape:window-maximized="0"
     inkscape:current-layer="svg48079" />
  <g
     id="g48568"
     transform="scale(0.81269844,1.2190476)"
     style="stroke-width:1.00467">
    <path
       fill="#283595"
       d="M 0,0 H 630 V 420 H 0 Z"
       id="path48051"
       style="stroke-width:0.879089" />
    <path
       fill="#fdf100"
       d="M 0,0 H 630 V 240 H 0 Z"
       id="path48053"
       style="stroke-width:0.879089" />
    <path
       fill="#ec1a23"
       d="M 0,0 H 630 V 180 H 0 Z"
       id="path48055"
       style="stroke-width:0.879089" />
  </g>
  <g
     stroke="#000000"
     id="g48077"
     transform="scale(1.2190476)"
     style="stroke-width:0.820312">
    <path
       d="m 38.833,156.688 0.081,-47.902 h -1.938 l 0.08,-3.797 h 1.777 l 0.081,-17.933 2.181,-0.08 0.162,-19.468 -6.382,-8.482 -0.08,-18.176 h 8.724 l -0.081,9.129 4.443,0.08 0.08,-9.29 8.16,0.081 v 8.967 h 3.634 l -0.161,-9.128 9.37,0.08 v 17.853 l -6.624,9.451 0.162,18.903 15.368,0.02 0.06,11.713 4.969,0.02 -0.162,-11.592 h 15.894 l 0.02,11.632 5.473,0.061 -0.081,-11.774 16.418,0.04 V 98.81 h 5.291 V 87.077 l 15.328,-0.061 -0.121,-19.125 -6.624,-9.37 0.04,-17.57 h 8.704 l 0.081,9.007 4.443,0.02 -0.02,-9.067 8.078,0.02 0.06,8.987 3.737,0.04 -0.02,-9.027 8.845,0.04 0.02,17.994 -6.24,9.027 0.12,18.963 2.566,0.02 0.08,18.176 1.252,0.02 0.061,3.474 -1.414,0.04 0.081,0.02 -0.02,48.71 -48.81,-0.281 0.017,-34.159 -0.233,-3.273 -1.217,-3.7 -3.15,-2.868 -3.564,-2.66 -4.66,-1.01 -4.31,0.054 -4.464,1.075 -3.2,2.792 -2.754,3.35 -1.386,3.561 -0.079,2.294 v 34.376 z"
       fill="#ffffff"
       stroke-width="0.742383"
       id="path48057" />
    <path
       d="m 62.4,86.873 -0.972,0.057 0.057,12.053 -5.483,-0.057 V 86.816 L 41.094,86.93 m 99.888,0.093 0.957,-0.021 -0.029,11.81 h 5.084 l -0.057,-11.71 15.25,-0.058 m -39.521,69.967 -0.08,-3.07 h -6.705 l 7.432,-0.08 v -4.281 l -7.513,0.08 6.543,-0.08 v -4.443 l -6.3,-0.081 7.108,-0.121 -0.02,-3.696 h -7.27 6.442 v -4.443 l -6.402,-0.04 7.391,0.04 0.02,-4.523 -7.512,0.02 6.483,-0.02 -0.02,-4.585 h -6.483 l 7.452,-0.02 -0.06,-4.362 -7.352,-0.02 5.493,-0.02 0.061,-5.493 -5.634,2.14 6.825,-2.605 -2.827,-5.008 -5.654,4.019 4.402,-3.191 -3.332,-4.06 -4.16,3.858 5.452,-5.09 -5.13,-3.634 -3.19,6.32 2.686,-5.33 -6.099,-1.394 -1.454,5.675 1.898,-7.23 -3.897,0.02 m -21.067,54.425 0.08,-2.746 h 6.705 l -7.432,-0.081 v -4.281 l 7.513,0.08 -6.543,-0.08 v -4.443 l 6.3,-0.081 -7.108,-0.121 0.02,-3.696 h 7.27 -6.442 v -4.443 l 6.402,-0.04 -7.391,0.04 -0.02,-4.523 7.512,0.02 -6.483,-0.02 0.02,-4.585 h 6.483 l -7.452,-0.02 0.06,-4.362 7.352,-0.02 -5.493,-0.02 -0.061,-5.493 5.634,2.14 -6.825,-2.605 2.827,-5.008 5.654,4.019 -4.402,-3.191 3.332,-4.06 4.16,3.858 -5.452,-5.09 5.13,-3.634 3.19,6.32 -2.686,-5.33 6.099,-1.394 1.454,5.675 -1.898,-7.23 3.897,0.02 m 63.386,6.442 -49.275,0.121 m 49.033,-3.675 -51.74,0.162 m -74.17,3.473 h 48.59 m -48.428,-3.797 50.891,0.243"
       fill="none"
       stroke-width="0.742383"
       id="path48059" />
    <path
       d="m 95.298,99.092 0.081,5.251 M 83.02,99.254 v 5.735 m -12.279,-5.816 0.081,6.382 m -12.601,-6.3 -0.081,5.977 M 46.427,99.254 v 5.655 m 61.15,-5.817 -0.081,5.251 m 12.36,-5.089 v 5.735 m 12.278,-5.816 -0.081,6.382 m 12.602,-6.3 0.08,5.977 m 11.713,-5.978 v 5.655 m -79.102,48.79 0.08,3.555 m -13.247,-3.555 v 3.393 m 6.785,-9.613 0.162,6.22 m 5.977,-12.197 v 6.139 m -12.682,-5.978 -0.08,5.897 m -6.14,0.243 0.08,5.977 m -6.058,-0.08 0.081,3.392 m -5.978,-9.451 -0.08,5.897 m 5.977,-12.036 -0.08,6.22 m -5.897,-11.713 -0.162,5.654 m 12.036,-5.816 v 5.816 m 12.602,-5.816 0.161,5.897 m 6.301,-12.36 v 6.302 m -6.462,-12.037 v 5.655 m 6.3,-11.713 0.081,6.14 m -12.763,-6.14 0.08,6.22 m -12.278,-6.058 v 5.735 m -5.896,-12.036 -0.081,6.3 m 11.955,-6.22 -0.08,6.059 m 12.763,-6.14 v 6.22 m 6.3,-8.885 0.081,2.504 m -12.682,-2.423 0.08,2.423 m -12.44,-2.423 0.081,2.585 m 12.117,18.014 v 6.22 m -12.278,-6.301 v 6.462 m -5.574,-12.36 v 5.817 m 11.632,-5.655 0.08,5.897 m 67.31,24.153 -0.08,3.555 m 13.247,-3.555 v 3.393 m -6.786,-9.613 -0.161,6.22 m -5.978,-12.197 v 6.139 m 12.683,-5.978 0.08,5.897 m 6.14,0.243 -0.081,5.977 m 6.058,-0.08 -0.08,3.392 m 5.977,-9.451 0.081,5.897 m -5.978,-12.036 0.081,6.22 m 5.897,-11.713 0.162,5.654 m -12.037,-5.816 v 5.816 m -12.601,-5.816 -0.162,5.897 m -6.3,-12.36 v 6.302 m 6.462,-12.037 v 5.655 m -6.301,-11.713 -0.08,6.14 m 12.762,-6.14 -0.08,6.22 m 12.278,-6.058 v 5.735 m 5.897,-12.036 0.08,6.3 m -11.955,-6.22 0.081,6.059 m -12.763,-6.14 v 6.22 m -6.3,-8.885 -0.082,2.504 m 12.683,-2.423 -0.081,2.423 m 12.44,-2.423 -0.08,2.585 m -12.118,18.014 v 6.22 m 12.279,-6.301 v 6.462 m 5.574,-12.36 v 5.817 m -11.633,-5.655 -0.08,5.897 M 89.2,93.276 89.24,99.274 M 64.966,93.276 v 5.938 m -12.359,-6.018 -0.06,6.098 m 61.572,-6.018 -0.04,5.958 m 24.274,-5.958 v 6.018 m 12.36,-6.098 v 6.18 m 13.738,54.241 -40.947,0.242 m 41.11,-6.22 h -42.093 m 42.012,-5.896 h -41.439 m 41.357,-5.815 h -40.865 m 40.865,-6.381 -42.094,-0.081 m 42.094,-5.897 -41.193,0.162 m 41.11,-5.897 -42.666,-0.161 m 42.908,-6.139 -47.248,-0.161 m -78.449,42.246 40.39,0.242 m -40.551,-6.22 h 41.52 m -41.44,-5.897 h 40.875 m -40.794,-5.816 h 40.31 m -40.31,-6.382 41.52,-0.08 m -41.52,-5.897 40.632,0.161 m -40.551,-5.897 42.086,-0.161 m -42.005,-6.14 46.286,-0.161 m 22.425,-24.476 -0.08,6.462 m 24.689,-6.462 -0.081,6.462 m 24.599,-6.462 -0.081,6.462 m -61.522,-6.462 0.081,6.462 m -24.69,-6.462 0.081,6.462 m -24.599,-6.462 0.081,6.462 m -7.391,5.897 125.965,0.01 m -17.643,-5.93 17.477,-0.013 m -38.74,0.014 15.703,-0.014 m -37.15,0.1 15.701,-0.015 M 83.121,93.364 98.823,93.349 m -37.404,0.044 16.752,-0.244 m -39.314,0.358 16.752,-0.244 m 0.384,4.414 5.613,-0.073 m -5.784,-4.84 5.613,-0.072 m -5.613,-4.44 5.613,-0.073 m -4.322,-0.094 0.121,4.785 M 51.6,83.587 51.743,86.8 m -0.17,-12.692 0.116,4.682 m -0.078,-14.014 0.12,4.363 m 5.325,9.579 0.12,4.785 m -11.091,-4.697 0.12,4.785 m 10.77,-14.405 0.121,4.785 m -11.092,-4.697 0.12,4.785 m 10.932,-14.163 0.12,4.785 m -11.091,-4.696 0.12,4.785 m 16.15,-9.082 0.12,4.363 m -10.864,-4.605 0.12,4.363 m -11.106,-4.202 0.12,4.364 m 16.319,-9.049 0.12,4.363 m -11.107,-4.282 0.121,4.363 m 16.48,-9.048 0.12,4.363 m -11.147,-4.363 0.121,4.363 m -11.066,-4.363 0.12,4.363 m 0.442,33.047 21.126,-0.22 m -21.069,-4.464 21.126,-0.22 m -21.069,-4.75 21.126,-0.22 M 41.154,69.448 62.28,69.228 M 39.478,64.983 64.812,64.782 M 35.549,60.002 67.485,59.824 M 34.867,55.6 68.911,55.429 m -34.1,-4.541 34.043,-0.171 m -8.91,-4.399 5.824,-0.076 2.857,-0.038 m -21.044,0 8.682,-0.114 M 34.81,46.375 43.493,46.261 M 147.2,97.668 141.587,97.596 m 5.785,-4.84 -5.614,-0.072 m 5.614,-4.44 -5.614,-0.073 m 4.322,-0.094 -0.12,4.785 m 5.633,-9.284 -0.142,3.214 m 0.17,-12.692 -0.117,4.682 m 0.078,-14.014 -0.12,4.363 m -5.325,9.578 -0.12,4.785 m 11.091,-4.696 -0.12,4.785 m -10.77,-14.406 -0.12,4.785 m 11.091,-4.696 -0.12,4.785 m -10.932,-14.163 -0.12,4.785 m 11.091,-4.697 -0.12,4.785 m -16.15,-9.081 -0.12,4.363 m 10.864,-4.606 -0.12,4.364 m 11.107,-4.202 -0.121,4.363 m -16.318,-9.048 -0.121,4.363 m 11.107,-4.282 -0.12,4.363 m -16.48,-9.049 -0.121,4.364 m 11.147,-4.364 -0.12,4.364 m 11.066,-4.364 -0.121,4.364 m -0.442,33.046 -20.843,-0.22 m 20.786,-4.464 -20.782,-0.24 m 20.725,-4.73 -20.742,-0.158 m 20.97,-4.468 -21.125,-0.22 m 22.801,-4.245 -24.87,-0.18 m 28.8,-4.8 -32.28,-0.178 m 32.962,-4.224 -34.043,-0.171 m 34.1,-4.541 -34.043,-0.172 m 8.91,-4.398 -5.825,-0.077 -2.857,-0.037 m 21.044,0 -8.217,-0.034 m 20.988,0.205 -8.682,-0.114"
       fill="none"
       stroke-width="0.370781"
       id="path48061" />
    <path
       d="m 102.307,32.232 c 9.566,0.023 9.908,9.572 3.685,11.016 2.501,-3.357 2.63,-5.564 1.89,-7.35 0.153,2.083 -0.308,3.611 -2.234,3.818 1.482,-5.513 -3.418,-4.896 -3.856,-5.441 z"
       fill="#ffd211"
       stroke-width="0.141914"
       id="path48063" />
    <g
       fill="#ffd211"
       id="g48071"
       style="stroke-width:0.717773">
      <path
         d="m 100.612,22 h 0.529 v -1.25 l 0.728,-0.007 -0.004,-0.689 -0.739,-0.007 -0.003,-0.807 -0.532,-0.004 0.007,0.814 -0.8,-0.007 0.015,0.685 0.792,0.007 0.007,1.264 z m 3.411,10.167 2.221,-3.353 c 4.32,-4.725 -3.163,-8.472 -5.331,-4.281 -2.591,-4.095 -9.562,-0.742 -5.17,4.362 l 2.14,3.241 6.14,0.03 z"
         stroke-width="0.148477"
         id="path48065" />
      <path
         d="m 101.876,22.92 a 1.008,1.008 0 1 1 -2.015,0 1.008,1.008 0 0 1 2.015,0 z"
         stroke-width="0.167344"
         id="path48067" />
      <path
         d="m 95.823,28.976 10.26,-0.081 m -6.866,3.275 h 3.506 l 0.092,34.839 c -1.034,0.134 -2.686,0.11 -3.499,-0.085 0,-12.629 -0.054,-19.794 -0.099,-34.755 z"
         stroke-width="0.148477"
         id="path48069" />
    </g>
    <path
       d="m 107.996,54.702 c -3.489,0.375 -2.67,-4.814 1.604,-3.97 3.245,1.112 5.28,5.221 4.762,8.053 -5.333,29.13 -46.642,-5.706 -15.11,-13.094 l 0.039,1.451 c -11.54,2.572 -10.458,21.87 5.956,17.334 l -0.153,2.291 c 2.722,-0.068 11.57,-9.692 2.368,-14.203 -0.334,0.585 0.067,1.353 0.534,2.138 z"
       fill="#ffd211"
       stroke-width="0.141914"
       id="path48073" />
    <path
       d="m 99.31,57.193 c -1.971,3.067 -7.266,11.58 -11.015,5.603 -0.754,2.545 2.546,9.865 11.015,-4.209 -0.038,-0.032 0.014,-1.393 0,-1.394 z m 3.474,-10.509 c 3.039,-0.259 1.978,2.172 0.02,2.253 -10.23,1.752 -8.695,-8.731 -5.384,-10.844 l -2.062,-0.878 c 1.287,-0.932 2.663,-2.976 3.856,-2.787 l 0.01,-2.205 c -1.27,0.156 -2.49,1.248 -3.56,2.51 l 0.114,-2.825 c -2.954,4.191 -4.188,7.254 -3.926,9.437 2.3,19.157 24.748,4.166 10.904,4.117 l 0.029,1.222 z"
       fill="#ffd211"
       stroke-width="0.141914"
       id="path48075" />
  </g>
</svg>
