<?xml version="1.0" encoding="UTF-8" standalone="no"?>
<svg
   xml:space="preserve"
   width="512"
   height="512"
   x="0px"
   y="0px"
   viewBox="0 0 512 512"
   version="1.1"
   id="svg96457"
   sodipodi:docname="ru-mur.svg"
   inkscape:version="1.2.2 (b0a84865, 2022-12-01)"
   xmlns:inkscape="http://www.inkscape.org/namespaces/inkscape"
   xmlns:sodipodi="http://sodipodi.sourceforge.net/DTD/sodipodi-0.dtd"
   xmlns="http://www.w3.org/2000/svg"
   xmlns:svg="http://www.w3.org/2000/svg"><defs
     id="defs96461" /><sodipodi:namedview
     id="namedview96459"
     pagecolor="#ffffff"
     bordercolor="#666666"
     borderopacity="1.0"
     inkscape:showpageshadow="2"
     inkscape:pageopacity="0.0"
     inkscape:pagecheckerboard="0"
     inkscape:deskcolor="#d1d1d1"
     showgrid="false"
     inkscape:zoom="1.1699219"
     inkscape:cx="256"
     inkscape:cy="256"
     inkscape:window-width="1440"
     inkscape:window-height="819"
     inkscape:window-x="0"
     inkscape:window-y="25"
     inkscape:window-maximized="0"
     inkscape:current-layer="svg96457" /><g
     id="g96963"
     transform="matrix(0.54845293,0,0,0.82268027,-0.2330925,-0.34963911)"
     style="stroke-width:1.48873"><path
       fill="#395c98"
       fill-rule="evenodd"
       d="M 933.96,622.781 H 0.425 V 0.425 H 933.96 Z"
       clip-rule="evenodd"
       id="path96419"
       style="stroke-width:1.93355" /><path
       fill="#e30613"
       fill-rule="evenodd"
       d="M 933.96,622.781 H 0.425 V 498.31 H 933.96 Z"
       clip-rule="evenodd"
       id="path96455"
       style="stroke-width:1.93355" /></g><g
     id="g96959"
     transform="matrix(0.82133439,0,0,0.82122275,-127.71998,-0.34880581)"
     style="stroke-width:1.21762"><path
       fill="#312783"
       fill-rule="evenodd"
       stroke="#312783"
       stroke-miterlimit="22.9256"
       stroke-width="0.591517"
       d="m 220.98,264.52 61.3,85.561 c -4.324,4.138 -7.417,9.327 -9.278,15.57 z"
       clip-rule="evenodd"
       id="path96423" /><path
       fill="#312783"
       fill-rule="evenodd"
       stroke="#312783"
       stroke-miterlimit="22.9256"
       stroke-width="0.5724"
       d="m 241.313,247.856 57.412,88.683 c -5.636,3.726 -11.726,7.058 -15.064,12.371 z m 21.257,-12.216 54.433,94.406 c -5.419,0.806 -11.759,3.04 -17.16,5.951 z m 22.842,-8.378 48.68,100.078 c -5.19,0.446 -10.38,0.644 -15.573,2.148 z m 23.741,-5.675 45.24,105.414 -18.59,0.275 z m 20.14,-9.331 c 12.075,33.53 24.155,67.058 36.233,100.587 l -9.325,14.391 c -8.966,-38.329 -17.94,-76.65 -26.908,-114.978 z"
       clip-rule="evenodd"
       id="path96425" /><path
       fill="#312783"
       fill-rule="evenodd"
       stroke="#312783"
       stroke-miterlimit="22.9256"
       stroke-width="0.572278"
       d="m 343.654,194.846 c 10.702,34.837 21.403,69.678 32.106,104.513 -3.345,4.114 -6.69,8.23 -10.046,12.344 -7.356,-38.95 -14.706,-77.908 -22.06,-116.857 z m 16.393,-16.132 c 9.334,36.143 18.651,72.285 27.986,108.435 -3.589,3.431 -7.175,6.87 -10.764,10.3 -5.737,-39.58 -11.477,-79.159 -17.222,-118.735 z m 18.419,-14.481 c 7.957,37.448 15.9,74.905 23.85,112.354 -3.823,2.753 -7.654,5.511 -11.474,8.264 -4.13,-40.204 -8.252,-80.414 -12.376,-120.618 z m 20.372,-12.405 c 6.583,38.765 13.148,77.52 19.721,116.282 -4.064,2.071 -8.13,4.146 -12.195,6.217 z m 22.076,-9.885 c 5.197,40.07 10.396,80.14 15.596,120.21 l -12.922,4.181 c -0.89,-41.464 -1.776,-82.926 -2.674,-124.39 z m 23.374,-6.841 c 3.823,41.376 7.64,82.746 11.461,124.122 -4.543,0.716 -9.084,1.426 -13.635,2.144 0.73,-42.092 1.454,-84.18 2.174,-126.266 z"
       clip-rule="evenodd"
       id="path96427" /><path
       fill="#312783"
       fill-rule="evenodd"
       stroke="#312783"
       stroke-miterlimit="22.9256"
       stroke-width="0.585428"
       d="m 468.34,131.377 7.335,128.046 -14.35,0.097 z"
       clip-rule="evenodd"
       id="path96429" /><path
       fill="#312783"
       fill-rule="evenodd"
       stroke="#312783"
       stroke-miterlimit="22.9256"
       stroke-width="0.591517"
       d="m 715.832,264.52 -61.3,85.561 c 4.322,4.138 7.417,9.327 9.278,15.57 z"
       clip-rule="evenodd"
       id="path96431" /><path
       fill="#312783"
       fill-rule="evenodd"
       stroke="#312783"
       stroke-miterlimit="22.9256"
       stroke-width="0.5724"
       d="m 695.497,247.856 -57.41,88.683 c 5.636,3.726 11.725,7.058 15.063,12.371 z M 674.24,235.64 619.806,330.046 c 5.42,0.806 11.76,3.04 17.162,5.951 z m -22.843,-8.378 -48.679,100.078 c 5.19,0.446 10.381,0.644 15.573,2.148 z m -23.74,-5.675 -45.24,105.414 18.59,0.275 z m -20.137,-9.331 -36.236,100.587 c 3.111,4.798 6.217,9.592 9.327,14.391 8.966,-38.329 17.942,-76.65 26.908,-114.978 z"
       clip-rule="evenodd"
       id="path96433" /><path
       fill="#312783"
       fill-rule="evenodd"
       stroke="#312783"
       stroke-miterlimit="22.9256"
       stroke-width="0.572278"
       d="m 593.16,194.846 c -10.705,34.837 -21.405,69.678 -32.109,104.513 3.348,4.114 6.691,8.23 10.046,12.344 7.356,-38.95 14.705,-77.908 22.062,-116.857 z m -16.396,-16.132 c -9.336,36.143 -18.652,72.285 -27.987,108.435 3.59,3.431 7.178,6.87 10.767,10.3 5.737,-39.58 11.474,-79.159 17.22,-118.735 z m -18.418,-14.481 c -7.959,37.448 -15.902,74.905 -23.85,112.354 3.82,2.753 7.651,5.511 11.475,8.264 4.127,-40.204 8.248,-80.414 12.375,-120.618 z m -20.372,-12.405 c -6.583,38.765 -13.15,77.52 -19.724,116.282 l 12.195,6.217 7.53,-122.499 z m -22.078,-9.885 c -5.199,40.07 -10.396,80.14 -15.596,120.21 l 12.922,4.181 c 0.893,-41.464 1.776,-82.929 2.674,-124.39 z m -23.374,-6.841 c -3.823,41.376 -7.639,82.746 -11.46,124.122 4.542,0.716 9.083,1.426 13.634,2.144 -0.728,-42.094 -1.454,-84.18 -2.174,-126.266 z"
       clip-rule="evenodd"
       id="path96435" /><path
       fill="#312783"
       fill-rule="evenodd"
       stroke="#312783"
       stroke-miterlimit="22.9256"
       stroke-width="0.585428"
       d="m 468.471,131.377 -7.337,128.046 14.351,0.097 z"
       clip-rule="evenodd"
       id="path96437" /><path
       fill="#ffcc00"
       fill-rule="evenodd"
       stroke="#e1a000"
       stroke-miterlimit="22.9256"
       stroke-width="0.591517"
       d="m 218.55,260.603 61.3,85.563 c -4.325,4.134 -7.417,9.322 -9.277,15.57 z"
       clip-rule="evenodd"
       id="path96439" /><path
       fill="#ffcc00"
       fill-rule="evenodd"
       stroke="#e1a000"
       stroke-miterlimit="22.9256"
       stroke-width="0.5724"
       d="m 238.884,243.937 57.413,88.686 c -5.637,3.728 -11.726,7.055 -15.065,12.372 z m 21.256,-12.217 54.432,94.407 c -5.416,0.806 -11.756,3.044 -17.158,5.951 z m 22.842,-8.375 48.681,100.075 c -5.19,0.451 -10.382,0.644 -15.572,2.15 z m 23.743,-5.678 45.24,105.42 -18.589,0.274 z m 20.137,-9.327 c 12.08,33.527 24.155,67.055 36.234,100.583 -3.11,4.8 -6.214,9.592 -9.327,14.391 -8.966,-38.326 -17.94,-76.648 -26.907,-114.975 z"
       clip-rule="evenodd"
       id="path96441" /><path
       fill="#ffcc00"
       fill-rule="evenodd"
       stroke="#e1a000"
       stroke-miterlimit="22.9256"
       stroke-width="0.572278"
       d="m 341.223,190.93 c 10.703,34.834 21.405,69.675 32.107,104.512 -3.346,4.112 -6.69,8.23 -10.044,12.344 -7.359,-38.952 -14.706,-77.908 -22.063,-116.857 z m 16.393,-16.133 c 9.335,36.142 18.654,72.283 27.987,108.433 -3.587,3.433 -7.176,6.87 -10.765,10.3 -5.739,-39.58 -11.476,-79.159 -17.222,-118.733 z m 18.418,-14.483 c 7.96,37.45 15.901,74.905 23.854,112.354 -3.823,2.755 -7.655,5.511 -11.478,8.264 -4.128,-40.203 -8.247,-80.412 -12.376,-120.618 z m 20.373,-12.404 c 6.583,38.764 13.15,77.52 19.726,116.28 -4.064,2.071 -8.13,4.148 -12.198,6.22 z m 22.077,-9.886 c 5.2,40.07 10.397,80.142 15.595,120.21 l -12.92,4.181 c -0.893,-41.462 -1.777,-82.927 -2.675,-124.39 z m 23.376,-6.84 c 3.822,41.374 7.636,82.744 11.46,124.121 -4.543,0.716 -9.086,1.428 -13.635,2.144 0.727,-42.092 1.454,-84.18 2.174,-126.265 z"
       clip-rule="evenodd"
       id="path96443" /><path
       fill="#ffcc00"
       fill-rule="evenodd"
       stroke="#e1a000"
       stroke-miterlimit="22.9256"
       stroke-width="0.585428"
       d="m 465.91,127.457 7.336,128.047 -14.35,0.1 z"
       clip-rule="evenodd"
       id="path96445" /><path
       fill="#ffcc00"
       fill-rule="evenodd"
       stroke="#e1a000"
       stroke-miterlimit="22.9256"
       stroke-width="0.591517"
       d="m 713.402,260.603 -61.299,85.563 c 4.321,4.134 7.414,9.322 9.274,15.57 z"
       clip-rule="evenodd"
       id="path96447" /><path
       fill="#ffcc00"
       fill-rule="evenodd"
       stroke="#e1a000"
       stroke-miterlimit="22.9256"
       stroke-width="0.5724"
       d="m 693.068,243.937 -57.412,88.686 c 5.637,3.728 11.726,7.055 15.064,12.372 z m -21.257,-12.217 -54.435,94.407 c 5.42,0.806 11.76,3.044 17.16,5.951 z m -22.843,-8.375 -48.68,100.075 c 5.19,0.451 10.383,0.644 15.573,2.15 z m -23.741,-5.678 -45.24,105.42 18.592,0.274 z M 605.09,208.34 c -12.08,33.527 -24.158,67.055 -36.236,100.583 l 9.328,14.391 c 8.967,-38.326 17.942,-76.648 26.907,-114.975 z"
       clip-rule="evenodd"
       id="path96449" /><path
       fill="#ffcc00"
       fill-rule="evenodd"
       stroke="#e1a000"
       stroke-miterlimit="22.9256"
       stroke-width="0.572278"
       d="m 590.73,190.93 c -10.704,34.834 -21.405,69.675 -32.108,104.512 3.347,4.112 6.691,8.23 10.047,12.344 7.356,-38.952 14.704,-77.908 22.06,-116.857 z m -16.395,-16.133 c -9.334,36.142 -18.652,72.283 -27.985,108.433 3.587,3.433 7.176,6.87 10.763,10.3 5.738,-39.58 11.476,-79.159 17.222,-118.733 z m -18.419,-14.483 c -7.956,37.45 -15.9,74.905 -23.85,112.354 3.821,2.755 7.653,5.511 11.476,8.264 4.128,-40.203 8.248,-80.412 12.374,-120.618 z M 535.545,147.91 c -6.582,38.764 -13.15,77.52 -19.724,116.28 4.065,2.071 8.131,4.148 12.196,6.22 2.51,-40.834 5.017,-81.665 7.528,-122.5 z m -22.079,-9.884 c -5.199,40.068 -10.396,80.14 -15.596,120.208 l 12.922,4.181 c 0.893,-41.462 1.777,-82.927 2.674,-124.389 z m -23.374,-6.842 c -3.823,41.374 -7.637,82.744 -11.46,124.121 4.542,0.716 9.085,1.428 13.634,2.144 -0.725,-42.092 -1.453,-84.18 -2.174,-126.265 z"
       clip-rule="evenodd"
       id="path96451" /><path
       fill="#ffcc00"
       fill-rule="evenodd"
       stroke="#e1a000"
       stroke-miterlimit="22.9256"
       stroke-width="0.585428"
       d="m 466.042,127.457 -7.337,128.05 14.35,0.096 z"
       clip-rule="evenodd"
       id="path96453" /></g></svg>
