<?xml version="1.0" encoding="UTF-8" standalone="no"?>
<svg
   width="512"
   height="512"
   version="1.1"
   id="svg99916"
   sodipodi:docname="ru-ngr.svg"
   inkscape:version="1.2.2 (b0a84865, 2022-12-01)"
   xmlns:inkscape="http://www.inkscape.org/namespaces/inkscape"
   xmlns:sodipodi="http://sodipodi.sourceforge.net/DTD/sodipodi-0.dtd"
   xmlns="http://www.w3.org/2000/svg"
   xmlns:svg="http://www.w3.org/2000/svg">
  <defs
     id="defs99920" />
  <sodipodi:namedview
     id="namedview99918"
     pagecolor="#ffffff"
     bordercolor="#666666"
     borderopacity="1.0"
     inkscape:showpageshadow="2"
     inkscape:pageopacity="0.0"
     inkscape:pagecheckerboard="0"
     inkscape:deskcolor="#d1d1d1"
     showgrid="false"
     inkscape:zoom="1.1699219"
     inkscape:cx="256"
     inkscape:cy="256"
     inkscape:window-width="1440"
     inkscape:window-height="819"
     inkscape:window-x="0"
     inkscape:window-y="25"
     inkscape:window-maximized="0"
     inkscape:current-layer="svg99916" />
  <g
     id="g110296"
     transform="scale(0.37925926,0.56888889)"
     style="stroke-width:2.15287">
    <rect
       x="0"
       y="0"
       width="1350"
       height="900"
       fill="#ffffff"
       id="rect99740"
       style="stroke-width:2.15285" />
    <rect
       x="0"
       y="0"
       width="270"
       height="900"
       fill="#2f418c"
       id="rect99742"
       style="stroke-width:2.15285" />
    <rect
       x="1080"
       y="0"
       width="270"
       height="900"
       fill="#d03528"
       id="rect99744"
       style="stroke-width:2.15285" />
  </g>
  <g
     id="g101212"
     transform="matrix(0.48415843,0,0,0.48415843,-67.130463,36.373982)"
     style="stroke-width:2.06544">
    <g
       transform="translate(368.97,49.844)"
       id="g99908"
       style="stroke-width:2.06544">
      <path
         d="M 297.84,615 V 192.4 H 129.3 v 359.74 c 0,0 0.78117,11.836 11.345,20.427 10.564,8.5911 20.094,7.8571 20.094,7.8571 h 107.57 c 0,0 12.855,1.1737 21.212,12.248 8.3568,11.074 8.3215,22.329 8.3215,22.329"
         display="none"
         id="path99748"
         style="stroke-width:1.94152" />
      <path
         d="m 129.56,192.28 v 356.97 c 0,0 0.0591,14.553 10.469,23.094 10.901,8.9432 23.75,8.0938 23.75,8.0938 l 102.65,0.34625 c 0,0 15.124,0.024 22.604,11.122 6.2605,9.289 8.8725,19.741 9.3438,22.594 v 0.78125 c 0,0 0.0356,-0.22666 0.0625,-0.40625 0.0269,0.17959 0.0625,0.40625 0.0625,0.40625 v -0.78125 c 0.47129,-2.8531 2.2996,-13.074 9.3438,-22.594 8.9679,-12.119 23.296,-11.469 23.296,-11.469 h 101.95 c 0,0 13.662,0.82403 23.75,-8.0938 10.901,-9.6357 10.469,-23.094 10.469,-23.094 v -356.97 h -168.81 -0.125 z"
         id="path99750"
         style="stroke-width:2.06544" />
      <path
         d="m 132.38,195.19 v 318.56 h 24.802 c -0.49886,-2.7934 -2.0889,-9.2657 -7.1086,-19.625 -6.9107,-14.262 -10.381,-15.074 -10.365,-18.031 0.016,-2.9575 10.118,-11.741 6.451,-23.406 -2.5701,-8.1753 -9.9909,-5.7676 -11.117,-7.3125 -1.0539,-1.446 -2.0443,-16.565 2.3486,-39.281 4.393,-22.716 10.041,-41.601 17.881,-61.438 10.276,-26.002 32.413,-70.195 37.954,-74.812 1.2677,-1.0565 7.3278,6.25 7.3278,6.25 0,0 12.321,0.34825 15.031,1.25 2.7612,0.91859 7.1399,5.875 7.1399,5.875 0,0 5.4752,1.3338 8.0793,2.3438 3.0676,1.1896 4.7458,1.9569 6.2631,4.8125 -3.7323,9.2925 -4.8092,4.641 -10.585,12.5 -3.5919,1.6174 -8.0045,0.2402 -11.086,2.5 -4.9834,3.655 -6.451,18.219 -6.451,18.219 0,0 7.8886,0.91033 15.031,-2.875 6.4393,-3.4126 10.635,-8.3426 19.353,-14.625 10.343,-7.454 20.415,-8.8073 20.415,-8.8073 0,0 2.5602,5.1402 4.4496,8.6198 -5.6034,0.90593 -6.2666,0.50469 -14.499,9.6562 -8.2324,9.1516 -7.4515,12.578 -15.698,21.62 -8.2464,9.0415 -13.265,9.3112 -19.214,13.166 6.7336,1.0304 24.05,-2.7875 28.373,1.4694 3.747,3.6902 3.0412,7.0218 1.9871,10.145 -0.81474,2.4139 -6.4908,3.6095 -6.4908,3.6095 0,0 -3.6738,-0.84347 -10.024,-0.75467 -7.9068,0.11059 -7.3992,5.6288 -13.719,7.0103 -5.1887,1.1343 -13.001,-0.20325 -13.001,-0.20325 0,0 0.71231,2.9849 9.4885,2.6875 -4.7382,12.224 -20.23,34.469 -20.23,34.469 0,0 13.133,2.4065 20.042,10.156 8.2714,9.2781 3.0589,18.929 3.0689,24.281 0.0123,6.786 -2.0989,12.513 4.6347,19.844 6.7335,7.3308 16.66,5.5312 16.66,5.5312 l -0.18789,10.719 h -21.482 c 0,0 -9.5724,-9.6181 -19.666,-16.094 0.27515,-3.1484 2.8237,-10.972 -0.72025,-13.562 -7.2076,-5.2692 -16.472,-4.2812 -16.472,-4.2812 l 1.0647,14.281 c 0,0 -3.582,3.2539 -7.5157,8.75 -3.9336,5.4961 -5.3549,9.125 -5.3549,9.125 0,0 -1.5239,10.955 2.1294,21.406 1.8171,5.1982 5.3862,5.375 5.3862,5.375 0,0 10.448,-1.0448 14.656,2.125 2.5831,1.9459 2.9601,5.1386 2.8497,7.3125 h 205.3 c -0.17162,-2.1654 0.0433,-5.6205 2.7871,-7.6875 4.2078,-3.1698 14.687,-2.125 14.687,-2.125 0,0 3.5378,-0.17677 5.3549,-5.375 3.6533,-10.451 2.1608,-21.406 2.1608,-21.406 0,0 -1.4526,-3.6289 -5.3862,-9.125 -3.9337,-5.4961 -7.5157,-8.75 -7.5157,-8.75 l 1.096,-14.281 c 0,0 -9.2643,-0.9879 -16.472,4.2812 -3.5439,2.5908 -0.99539,10.414 -0.72025,13.562 -10.094,6.4757 -19.697,16.094 -19.697,16.094 h -21.451 l -0.18789,-10.719 c 0,0 9.8949,1.7996 16.628,-5.5312 6.7335,-7.3308 4.6537,-13.058 4.666,-19.844 0.01,-5.3519 -5.2338,-15.003 3.0376,-24.281 6.9088,-7.7497 20.042,-10.156 20.042,-10.156 0,0 -15.491,-22.245 -20.23,-34.469 8.7762,0.29738 9.4885,-2.6875 9.4885,-2.6875 0,0 -10.72,0.60305 -15.908,-0.53125 -6.3197,-1.3816 -10.006,-7.3894 -17.912,-7.5 -6.35,-0.0888 -6.5784,-0.003 -6.5784,-0.003 0,0 -3.4787,-0.36062 -5.1359,-2.9162 -1.4945,-2.3048 -1.1302,-8.6001 1.4553,-10.681 5.2209,-4.2026 24.765,0.69599 31.499,-0.33436 -5.9486,-3.855 -9.8698,-2.017 -19.19,-9.63 -9.32,-7.613 -8.6823,-11.524 -15.72,-21.622 -7.7427,-11.11 -8.5823,-9.2963 -14.186,-10.202 -6.6132,-2.9306 -3.2712,-10.349 -3.2712,-10.349 0,0 9.6984,-2.4338 20.042,5.0202 8.7177,6.2824 17.177,13.36 26.837,17.844 7.333,3.4037 15.031,2.875 15.031,2.875 0,0 -1.4675,-14.564 -6.451,-18.219 -3.0811,-2.2598 -7.4937,-0.88261 -11.086,-2.5 -5.7753,-7.859 -6.821,-3.2075 -10.553,-12.5 1.5173,-2.8556 3.1955,-3.6228 6.2631,-4.8125 2.6042,-1.0099 8.048,-2.3438 8.048,-2.3438 0,0 4.41,-4.9564 7.1712,-5.875 2.7106,-0.90175 15.031,-1.25 15.031,-1.25 0,0 6.06,-7.3065 7.3278,-6.25 5.5413,4.618 27.37,48.921 37.923,74.812 8.103,19.88 14.96,38.721 19.353,61.438 4.393,22.716 4.436,38.554 3.382,40 -1.126,1.5449 -11.021,-1.5816 -13.591,6.5938 -3.6674,11.666 6.4349,20.449 6.451,23.406 0.016,2.9575 -3.486,3.7694 -10.397,18.031 -5.2641,10.864 -6.7546,17.451 -7.1712,20 h 27.965 v -318.56 z"
         fill="#cccccc"
         id="path99752"
         style="stroke-width:1.94152" />
      <path
         d="m 242.32,370 h -12.731 c 0,0 -0.16173,-11.385 0.97933,-12.767 1.5942,-5.9821 12.766,-13.342 20.321,-20.566 7.5549,-7.2236 16.893,-19.342 16.893,-19.342 l -0.48966,13.955 c -13.879,14.321 -24.483,21.545 -24.483,21.545 z"
         fill="#ddb523"
         stroke="#8c5700"
         stroke-width="2.06544px"
         id="path99754" />
      <path
         d="m 347.41,370 h 12.731 c 0,0 0.16173,-11.385 -0.97933,-12.767 -1.5942,-5.9821 -12.766,-13.342 -20.321,-20.566 -7.5549,-7.2236 -16.893,-19.342 -16.893,-19.342 l 0.48966,13.955 c 13.879,14.321 24.483,21.545 24.483,21.545 z"
         fill="#ddb523"
         stroke="#8c5700"
         stroke-width="2.06544px"
         id="path99756" />
      <g
         id="g99768"
         style="stroke-width:2.06544">
        <rect
           x="323.60999"
           y="214.94"
           width="5.2379999"
           height="26.735001"
           fill="#ffffff"
           stroke="#767479"
           id="rect99758"
           style="stroke-width:1.94152" />
        <path
           d="m 325.55,200.03 c -0.0822,0 -0.42169,2.6575 -1.9402,6.0322 -1.7029,3.7843 1.2306,6.5588 3.0896,8.7846 0.0321,-1.9242 0.5385,-3.5718 1.2534,-6.4981 0.96533,-3.9517 -1.1909,-5.8949 -2.4027,-8.3186 z"
           fill="#d23225"
           stroke="#4a0000"
           id="path99760"
           style="stroke-width:1.94152" />
        <rect
           x="254.53"
           y="214.77"
           width="5.2379999"
           height="26.735001"
           fill="#ffffff"
           stroke="#767479"
           id="rect99762"
           style="stroke-width:1.94152" />
        <path
           d="m 256.47,199.86 c -0.0822,0 -0.42169,2.6575 -1.9402,6.0322 -1.7029,3.7843 1.2306,6.5588 3.0896,8.7846 0.0321,-1.9242 0.5385,-3.5718 1.2534,-6.4981 0.96533,-3.9517 -1.1909,-5.8949 -2.4027,-8.3186 z"
           fill="#d23225"
           stroke="#4a0000"
           id="path99764"
           style="stroke-width:1.94152" />
        <rect
           x="289.28"
           y="213.28999"
           width="5.2379999"
           height="26.735001"
           fill="#ffffff"
           stroke="#767479"
           id="rect99766"
           style="stroke-width:1.94152" />
      </g>
      <g
         fill="#ddb523"
         id="g99786"
         style="stroke-width:1.94152">
        <path
           d="m 286.67,237.05 c 0.34625,6.6628 3.0038,10.658 3.0038,10.658 0,0 -3.745,9.2694 -2.9031,20.601 h 10.267 c 0.0453,-13.935 -2.5569,-20.774 -2.5569,-20.774 0,0 2.4844,-4.2863 2.6575,-10.485 z"
           stroke="#8c5700"
           id="path99770"
           style="stroke-width:1.82505" />
        <path
           d="m 262.92,300.49 c 0,0 7.0019,-5.4645 6.4482,-19.217 14.604,-2.5143 12.872,-15.137 21.852,-15.235 9.2736,-0.10127 10.175,11.471 22.927,15.235 1.0772,13.702 8.9559,19.217 8.9559,19.217 z"
           stroke="#8c5700"
           id="path99772"
           style="stroke-width:1.82505" />
        <rect
           x="273.75"
           y="302.94"
           width="39.648998"
           height="70.275002"
           id="rect99774"
           style="stroke-width:2.06544" />
        <g
           stroke="#8c5700"
           id="g99784"
           style="stroke-width:1.82505">
          <rect
             transform="rotate(-90)"
             x="-373.09"
             y="267.54999"
             width="66.530998"
             height="6.1145"
             id="rect99776"
             style="stroke-width:2.06544" />
          <rect
             transform="rotate(-90)"
             x="-373.10001"
             y="312.48999"
             width="66.546997"
             height="6.1145"
             id="rect99778"
             style="stroke-width:2.06544" />
          <path
             d="m 293.88,322.49 c -10.865,0.0165 -20.164,1.8398 -27.346,5.3075 l 0.40875,7.255 c 6.1114,-3.2077 14.58,-5.7469 26.219,-5.7812 10.657,-0.0315 19.177,2.5905 25.875,6.1562 V 327.24 c -6.805,-2.8221 -15.115,-4.7652 -25.156,-4.75 z"
             id="path99780"
             style="stroke-width:2.06544" />
          <path
             d="m 293.65,343.71 c -10.865,0.0165 -19.818,1.1473 -27,4.615 l 0.0625,7.9475 c 6.1114,-3.2077 14.58,-5.7469 26.219,-5.7812 10.657,-0.0315 19.177,2.5905 25.875,6.1562 V 348.46 c -6.805,-2.8221 -15.115,-4.7652 -25.156,-4.75 z"
             id="path99782"
             style="stroke-width:2.06544" />
        </g>
      </g>
      <path
         d="M 236.02,402.77 H 353.3 c 0,0 -20.427,-39.778 -60.719,-39.418 -40.292,0.35963 -56.556,39.418 -56.556,39.418 z"
         fill="#d9251c"
         stroke="#8c5700"
         id="path99788"
         style="stroke-width:1.94152" />
      <g
         fill="#ddb523"
         id="g99822"
         style="stroke-width:1.94152">
        <path
           d="m 235.92,405.03 v 71.844 l 58.781,-67.562 58.812,67.562 V 405.03 l -58.812,0.3125 z"
           id="path99790"
           style="stroke-width:2.06544" />
        <g
           stroke="#8c5700"
           id="g99820"
           style="stroke-width:1.82505">
          <g
             id="g99816"
             style="stroke-width:2.06544">
            <g
               id="g99798"
               style="stroke-width:2.06544">
              <path
                 d="m 240.15,429.93 c 0,0 1.598,1.2971 2.9431,4.3281 1.3451,3.031 -1.3335,5.5892 1.5581,10.041 2.8916,4.4518 11.013,2.9929 12.638,-1.2119 1.625,-4.2048 0.43878,-7.4148 -2.9431,-7.9637 -3.38188,-0.5489 -5.4125,2.9266 -5.7131,4.3281 -0.8825,-0.0629 -0.0441,-4.5028 -2.4237,-6.6652 -2.3796,-2.1624 -6.0593,-2.8565 -6.0593,-2.8565 z"
                 id="path99792"
                 style="stroke-width:2.06544" />
              <path
                 d="m 245.81,478.43 h -10.283 c 0,0 5.2602,-15.117 9.7933,-21.545 5.5328,-7.8462 16.159,-12.242 16.159,-12.242 0,0 -0.63114,-7.9284 2.6932,-12.976 4.5347,-6.8857 12.836,-8.7208 18.362,-15.669 2.1221,-2.6681 1.9587,-10.038 1.9587,-10.038 h 10.283 v 5.3863 c 0,0 -0.87187,5.2182 -3.9173,8.5692 -4.9029,5.3948 -16.173,13.033 -19.097,18.607 -3.386,6.4545 -2.6932,13.466 -2.6932,13.466 0,0 -7.5385,-0.61133 -15.669,7.8347 -4.6457,4.8258 -7.5898,18.607 -7.5898,18.607 z"
                 id="path99794"
                 style="stroke-width:2.06544" />
              <path
                 d="m 343.75,478.43 h 10.283 c 0,0 -5.2602,-15.117 -9.7933,-21.545 -5.5328,-7.8462 -16.159,-12.242 -16.159,-12.242 0,0 0.63114,-7.9284 -2.6932,-12.976 -4.5347,-6.8857 -12.836,-8.7208 -18.362,-15.669 -2.1221,-2.6681 -1.9587,-10.038 -1.9587,-10.038 h -10.283 v 5.3863 c 0,0 0.87187,5.2182 3.9173,8.5692 4.9029,5.3948 16.173,13.033 19.097,18.607 3.386,6.4545 2.6932,13.466 2.6932,13.466 0,0 7.5385,-0.61133 15.669,7.8347 4.6457,4.8258 7.5898,18.607 7.5898,18.607 z"
                 id="path99796"
                 style="stroke-width:2.06544" />
            </g>
            <rect
               x="237.42"
               y="402.75"
               width="115.4"
               height="5.1608"
               id="rect99800"
               style="stroke-width:2.06544" />
            <rect
               x="232.49001"
               y="369.95001"
               width="6.7944002"
               height="108.23"
               stroke-width="2.08279"
               id="rect99802" />
            <g
               id="g99814"
               style="stroke-width:2.06544">
              <path
                 d="m 350.7,429.7 c 0,0 -1.598,1.2971 -2.9431,4.3281 -1.3451,3.031 1.3335,5.5892 -1.5581,10.041 -2.8916,4.4518 -11.013,2.9929 -12.638,-1.2119 -1.625,-4.2048 -0.43878,-7.4148 2.9431,-7.9637 3.38188,-0.5489 5.4125,2.9266 5.7131,4.3281 0.8825,-0.0629 0.0441,-4.5028 2.4237,-6.6652 2.3796,-2.1624 6.0593,-2.8565 6.0593,-2.8565 z"
                 id="path99804"
                 style="stroke-width:2.06544" />
              <rect
                 x="351.04999"
                 y="370.07001"
                 width="6.6213002"
                 height="108.11"
                 id="rect99806"
                 style="stroke-width:2.06544" />
              <path
                 d="m 265.94,411.92 c 0,0 3.7893,0.0461 4.5012,3.8087 0.71193,3.7626 -3.5069,5.1169 -5.8159,2.6461 -2.6432,-2.8284 -5.1349,-9.3937 -14.613,-8.3592 -9.4781,1.0345 -12.317,17.09 -0.69248,18.697 8.3426,1.1538 7.9637,-6.4056 7.9637,-6.4056 0,0 -3.5794,3.2347 -6.7518,1.9044 -3.1724,-1.3303 -3.0686,-8.5287 3.4625,-8.1368 6.5311,0.3919 7.7683,7.6664 14.542,7.7905 6.7741,0.12417 8.102,-6.1514 6.0593,-10.041 -2.0427,-3.8898 -8.6562,-1.9044 -8.6562,-1.9044 z"
                 id="path99808"
                 style="stroke-width:2.06544" />
              <path
                 d="m 324.89,412.26 c 0,0 -3.7893,0.0461 -4.5012,3.8087 -0.71193,3.7626 3.5069,5.1169 5.8159,2.6461 2.6432,-2.8284 5.1349,-9.3937 14.613,-8.3592 9.4781,1.0345 12.317,17.09 0.69248,18.697 -8.3426,1.1538 -7.9637,-6.4056 -7.9637,-6.4056 0,0 3.5794,3.2347 6.7518,1.9044 3.1724,-1.3303 3.0686,-8.5287 -3.4625,-8.1368 -6.5311,0.3919 -7.7683,7.6664 -14.542,7.7905 -6.7741,0.12417 -8.102,-6.1514 -6.0593,-10.041 2.0427,-3.8898 8.6562,-1.9044 8.6562,-1.9044 z"
                 id="path99810"
                 style="stroke-width:2.06544" />
              <rect
                 x="221.39"
                 y="478.20001"
                 width="154.85001"
                 height="16.868999"
                 id="rect99812"
                 style="stroke-width:2.06544" />
            </g>
          </g>
          <path
             transform="matrix(0.88624,0,0,0.93038,34.08,33.784)"
             d="m 304.08,485.28 a 4.77425,4.2846449 0 1 1 -9.5485,0 4.77425,4.2846449 0 1 1 9.5485,0 z"
             stroke-width="2.27468"
             id="path99818" />
        </g>
      </g>
      <path
         transform="translate(0.15302)"
         d="m 301.14,485.28 a 2.0199,1.8362 0 1 1 -4.0398,0 2.0199,1.8362 0 1 1 4.0398,0 z"
         fill="#8c5700"
         id="path99824"
         style="stroke-width:1.94152" />
      <g
         fill="#ddb523"
         stroke="#8c5700"
         id="g99846"
         style="stroke-width:1.94152">
        <g
           id="g99842"
           style="stroke-width:2.06544">
          <g
             id="g99838"
             style="stroke-width:2.06544">
            <path
               d="m 299.43,493.61 c 3.1836,-5.3051 11.465,-13.388 19.954,-12.976 5.2157,-0.0644 7.3378,3.4662 6.9777,6.9777 -0.36002,3.5116 -4.2295,6.8279 -8.2019,5.5088 -3.9724,-1.3192 -3.9173,-5.1415 -3.9173,-5.1415 0,0 2.4629,2.4336 5.1415,1.5914 2.6786,-0.8422 3.4958,-6.1573 -1.8362,-5.9984 -5.7426,0.1711 -13.098,6.5538 -18.118,10.038 z"
               id="path99826"
               style="stroke-width:2.06544" />
            <path
               d="m 345.93,494.35 c 3.1836,-5.3051 11.465,-13.388 19.954,-12.976 5.2157,-0.0644 7.3378,3.4662 6.9777,6.9777 -0.36002,3.5116 -4.2295,6.8279 -8.2019,5.5088 -3.9724,-1.3192 -3.9173,-5.1415 -3.9173,-5.1415 0,0 2.4629,2.4336 5.1415,1.5914 2.6786,-0.8422 3.4958,-6.1573 -1.8362,-5.9984 -5.7426,0.1711 -13.098,6.5538 -18.118,10.038 z"
               id="path99828"
               style="stroke-width:2.06544" />
            <path
               d="m 299.33,493.61 c -3.1836,-5.3051 -11.465,-13.388 -19.954,-12.976 -5.2157,-0.0644 -7.3378,3.4662 -6.9777,6.9777 0.36002,3.5116 4.2295,6.8279 8.2019,5.5088 3.9724,-1.3192 3.9173,-5.1415 3.9173,-5.1415 0,0 -2.4629,2.4336 -5.1415,1.5914 -2.6786,-0.8422 -3.4958,-6.1573 1.8362,-5.9984 5.7426,0.1711 13.098,6.5538 18.118,10.038 z"
               id="path99830"
               style="stroke-width:2.06544" />
            <path
               d="m 322.68,494.35 c 3.1836,-5.3051 11.465,-13.388 19.954,-12.976 5.2157,-0.0644 7.3378,3.4662 6.9777,6.9777 -0.36002,3.5116 -4.2295,6.8279 -8.2019,5.5088 -3.9724,-1.3192 -3.9173,-5.1415 -3.9173,-5.1415 0,0 2.4629,2.4336 5.1415,1.5914 2.6786,-0.8422 3.4958,-6.1573 -1.8362,-5.9984 -5.7426,0.1711 -13.098,6.5538 -18.118,10.038 z"
               id="path99832"
               style="stroke-width:2.06544" />
            <path
               d="m 276.19,494.35 c -3.1836,-5.3051 -11.465,-13.388 -19.954,-12.976 -5.2157,-0.0644 -7.3378,3.4662 -6.9777,6.9777 0.36002,3.5116 4.2295,6.8279 8.2019,5.5088 3.9724,-1.3192 3.9173,-5.1415 3.9173,-5.1415 0,0 -2.4629,2.4336 -5.1415,1.5914 -2.6786,-0.8422 -3.4958,-6.1573 1.8362,-5.9984 5.7426,0.1711 13.098,6.5538 18.118,10.038 z"
               id="path99834"
               style="stroke-width:2.06544" />
            <path
               d="m 252.56,494.35 c -3.1836,-5.3051 -11.465,-13.388 -19.954,-12.976 -5.2157,-0.0644 -7.3378,3.4662 -6.9777,6.9777 0.36002,3.5116 4.2295,6.8279 8.2019,5.5088 3.9724,-1.3192 3.9173,-5.1415 3.9173,-5.1415 0,0 -2.4629,2.4336 -5.1415,1.5914 -2.6786,-0.8422 -3.4958,-6.1573 1.8362,-5.9984 5.7426,0.1711 13.098,6.5538 18.118,10.038 z"
               id="path99836"
               style="stroke-width:2.06544" />
          </g>
          <rect
             x="203.14999"
             y="495.20999"
             width="191.12"
             height="16.398001"
             id="rect99840"
             style="stroke-width:2.06544" />
        </g>
        <path
           transform="matrix(0.88624,0,0,0.93038,34.08,50.31)"
           d="m 304.08,485.28 a 4.77425,4.2846449 0 1 1 -9.5485,0 4.77425,4.2846449 0 1 1 9.5485,0 z"
           stroke-width="2.27468"
           id="path99844" />
      </g>
      <path
         transform="translate(0.15302,16.526)"
         d="m 301.14,485.28 a 2.0199,1.8362 0 1 1 -4.0398,0 2.0199,1.8362 0 1 1 4.0398,0 z"
         fill="#8c5700"
         id="path99848"
         style="stroke-width:1.94152" />
      <g
         fill="#ddb523"
         stroke="#8c5700"
         id="g99870"
         style="stroke-width:1.94152">
        <g
           id="g99866"
           style="stroke-width:2.06544">
          <path
             d="m 299.23,508.31 c -3.0362,-4.5554 -10.934,-11.496 -19.031,-11.142 -4.9744,-0.0553 -6.9982,2.9763 -6.6548,5.9916 0.34336,3.0153 4.0338,5.863 7.8223,4.7302 3.7886,-1.1328 3.7361,-4.4149 3.7361,-4.4149 0,0 -2.3489,2.0897 -4.9036,1.3665 -2.5547,-0.7232 -3.334,-5.2871 1.7513,-5.1507 5.4769,0.14692 12.492,5.6276 17.279,8.6195 z"
             id="path99850"
             style="stroke-width:2.06544" />
          <path
             d="m 277.35,509.26 c -3.0374,-4.7174 -10.939,-11.905 -19.038,-11.539 -4.9762,-0.0573 -7.0008,3.0822 -6.6574,6.2047 0.34349,3.1225 4.0353,6.0715 7.8253,4.8984 3.79,-1.173 3.7375,-4.5719 3.7375,-4.5719 0,0 -2.3498,2.164 -4.9054,1.4151 -2.5556,-0.74889 -3.3353,-5.4752 1.7519,-5.3339 5.4789,0.15214 12.497,5.8277 17.286,8.926 z"
             id="path99852"
             style="stroke-width:2.06544" />
          <path
             d="m 254.94,509.71 c -3.0192,-5.0034 -10.873,-12.627 -18.923,-12.238 -4.9464,-0.0607 -6.9588,3.269 -6.6174,6.5809 0.34142,3.3118 4.0111,6.4396 7.7783,5.1954 3.7672,-1.2442 3.715,-4.849 3.715,-4.849 0,0 -2.3357,2.2952 -4.876,1.5009 -2.5403,-0.79428 -3.3152,-5.8071 1.7414,-5.6572 5.446,0.16137 12.422,6.181 17.182,9.4672 z"
             id="path99854"
             style="stroke-width:2.06544" />
          <path
             d="m 232.29,509.29 c -2.9726,-4.7414 -10.705,-11.966 -18.632,-11.598 -4.8701,-0.0576 -6.8515,3.0979 -6.5153,6.2364 0.33616,3.1385 3.9492,6.1025 7.6584,4.9235 3.7092,-1.179 3.6578,-4.5952 3.6578,-4.5952 0,0 -2.2997,2.175 -4.8008,1.4223 -2.5011,-0.7527 -3.2641,-5.5031 1.7146,-5.3611 5.3621,0.15291 12.23,5.8574 16.917,8.9716 z"
             id="path99856"
             style="stroke-width:2.06544" />
          <path
             d="m 299.89,508.31 c 3.0362,-4.5554 10.934,-11.496 19.031,-11.142 4.9744,-0.0553 6.9982,2.9763 6.6548,5.9916 -0.34336,3.0153 -4.0338,5.863 -7.8223,4.7302 -3.7886,-1.1328 -3.7361,-4.4149 -3.7361,-4.4149 0,0 2.3489,2.0897 4.9036,1.3665 2.5547,-0.7232 3.334,-5.2871 -1.7513,-5.1507 -5.4769,0.14692 -12.492,5.6276 -17.279,8.6195 z"
             id="path99858"
             style="stroke-width:2.06544" />
          <path
             d="m 321.77,509.26 c 3.0374,-4.7174 10.939,-11.905 19.038,-11.539 4.9762,-0.0573 7.0008,3.0822 6.6574,6.2047 -0.34349,3.1225 -4.0353,6.0715 -7.8253,4.8984 -3.79,-1.173 -3.7375,-4.5719 -3.7375,-4.5719 0,0 2.3498,2.164 4.9054,1.4151 2.5556,-0.74889 3.3353,-5.4752 -1.7519,-5.3339 -5.4789,0.15214 -12.497,5.8277 -17.286,8.926 z"
             id="path99860"
             style="stroke-width:2.06544" />
          <path
             d="m 344.19,509.71 c 3.0192,-5.0034 10.873,-12.627 18.923,-12.238 4.9464,-0.0607 6.9588,3.269 6.6174,6.5809 -0.34142,3.3118 -4.0111,6.4396 -7.7783,5.1954 -3.7672,-1.2442 -3.715,-4.849 -3.715,-4.849 0,0 2.3357,2.2952 4.876,1.5009 2.5403,-0.79428 3.3152,-5.8071 -1.7414,-5.6572 -5.446,0.16137 -12.422,6.181 -17.182,9.4672 z"
             id="path99862"
             style="stroke-width:2.06544" />
          <path
             d="m 366.83,509.29 c 2.9726,-4.7414 10.705,-11.966 18.632,-11.598 4.8701,-0.0576 6.8515,3.0979 6.5153,6.2364 -0.33616,3.1385 -3.9492,6.1025 -7.6584,4.9235 -3.7092,-1.179 -3.6578,-4.5952 -3.6578,-4.5952 0,0 2.2997,2.175 4.8008,1.4223 2.5011,-0.7527 3.2641,-5.5031 -1.7146,-5.3611 -5.3621,0.15291 -12.23,5.8574 -16.917,8.9716 z"
             id="path99864"
             style="stroke-width:2.06544" />
        </g>
        <path
           d="m 320.96,239.13 c 0.51937,4.7526 0.9465,8.7919 2.81,9.2806 -0.0111,2.2714 -0.59641,6.8167 -6.5938,7.0213 -7.3986,0.25233 -10.516,-5.153 -15.928,-5.2019 -5.4122,-0.0489 -8.0882,2.997 -8.4781,6.6081 -0.3899,3.6111 1.3669,7.343 6.75,7.25 5.3831,-0.093 6.3368,-6.7075 2.2594,-7.7912 -1.3586,-0.36111 1.1954,3.4061 -2.4156,3.8031 -3.7822,0.41585 -4.3044,-6.1937 1.8969,-6.06 6.2012,0.13367 10.907,5.7162 17.471,4.5044 7.1315,-1.3166 8.6202,-6.6922 9.4619,-10.134 1.8648,-0.48833 2.6681,-4.5274 3.0144,-9.2806 z"
           id="path99868"
           style="stroke-width:2.06544" />
      </g>
      <path
         d="m 291.21,198.38 c -0.0822,0 -0.42169,2.6575 -1.9402,6.0322 -1.7029,3.7843 1.2306,6.5588 3.0896,8.7846 0.0321,-1.9242 0.5385,-3.5718 1.2534,-6.4981 0.96533,-3.9517 -1.1909,-5.8949 -2.4027,-8.3186 z"
         fill="#d23225"
         stroke="#4a0000"
         id="path99872"
         style="stroke-width:1.94152" />
      <g
         fill="#ddb523"
         stroke="#8c5700"
         id="g99900"
         style="stroke-width:1.94152">
        <g
           id="g99882"
           style="stroke-width:2.06544">
          <path
             d="m 275.81,291.31 c 0,0 9.5907,7.3438 16.658,7.4443 7.0673,0.1005 17.016,-7.0981 17.016,-7.0981 0,0 -4.8772,-7.0223 -7.5229,-10.387 -3.1823,-4.0474 -4.773,-11.912 -10.031,-11.772 -5.0375,0.13369 -6.0324,7.805 -8.9559,11.772 -2.4404,3.3117 -7.1647,10.041 -7.1647,10.041 z"
             id="path99874"
             style="stroke-width:2.06544" />
          <path
             d="m 270.26,300.91 c 0,0 5.0183,-5.8321 5.0153,-16.1 3.1352,-0.0953 4.3181,-0.21492 6.9856,0 0.49494,10.211 -3.2241,16.1 -3.2241,16.1 z"
             id="path99876"
             style="stroke-width:2.06544" />
          <path
             d="m 314.43,300.91 c 0,0 -5.0183,-5.8321 -5.0153,-16.1 -3.1352,-0.0953 -4.3181,-0.21492 -6.9856,0 -0.49495,10.211 3.2241,16.1 3.2241,16.1 z"
             id="path99878"
             style="stroke-width:2.06544" />
          <path
             d="m 289.72,276.19 v 15.026 c 0.50663,2.8156 4.9936,2.7544 5.3102,0 l 0.12666,-15.026 c -0.75994,-2.2647 -4.6136,-2.3871 -5.4369,0 z"
             id="path99880"
             style="stroke-width:2.06544" />
        </g>
        <rect
           x="269.17999"
           y="281.19"
           width="45.284"
           height="4.7596998"
           stroke-width="2.0592"
           id="rect99884" />
        <rect
           x="262.29001"
           y="300.45001"
           width="61.494999"
           height="6.3418999"
           stroke-width="2.17595"
           id="rect99886" />
        <rect
           transform="rotate(-90)"
           x="-373.09"
           y="262.32001"
           width="71.793999"
           height="6.7090998"
           stroke-width="2.14559"
           id="rect99888" />
        <rect
           transform="rotate(-90)"
           x="-373.09"
           y="316.95001"
           width="72.093002"
           height="6.7090998"
           stroke-width="2.15013"
           id="rect99890" />
        <g
           id="g99898"
           style="stroke-width:2.06544">
          <path
             d="m 366.1,229.81 c -3.2052,0 -5.8125,2.6073 -5.8125,5.8125 0,1.1862 0.3579,2.2997 0.96875,3.2188 l -9.0938,12.938 -5.6875,-4.0938 c 0.11861,-0.46239 0.15625,-0.93812 0.15625,-1.4375 0,-3.2052 -2.576,-5.8125 -5.7812,-5.8125 -3.2052,0 -5.8125,2.6073 -5.8125,5.8125 0,3.2052 2.6073,5.8125 5.8125,5.8125 1.1096,0 2.1185,-0.33478 3,-0.875 l 5.8438,4.125 -87.781,125.03 2.9481,2.172 88.208,-124.83 6.5938,4.6562 c -0.11391,0.45372 -0.15625,0.9172 -0.15625,1.4062 0,3.2052 2.576,5.8125 5.7812,5.8125 3.2052,0 5.8125,-2.6073 5.8125,-5.8125 0,-3.2052 -2.6073,-5.8125 -5.8125,-5.8125 -1.1862,0 -2.2685,0.3579 -3.1875,0.96875 l -6.5625,-4.6875 9.3125,-12.938 c 0.40725,0.0905 0.81548,0.15625 1.25,0.15625 3.2052,0 5.8125,-2.6073 5.8125,-5.8125 0,-3.2052 -2.6073,-5.8125 -5.8125,-5.8125 z"
             id="path99892"
             style="stroke-width:2.06544" />
          <path
             d="m 218.79,225.53 c -2.2295,0 -4.0312,1.8018 -4.0312,4.0312 0,2.2295 1.8018,4.0312 4.0312,4.0312 0.0964,0 0.18652,-0.0247 0.28125,-0.0312 l 5.0312,7.25 -5.4062,3.6875 c -0.48971,-0.21109 -1.0266,-0.3125 -1.5938,-0.3125 -2.2295,0 -4.0625,1.8018 -4.0625,4.0312 0,2.2295 1.833,4.0312 4.0625,4.0312 2.2295,0 4.0312,-1.8018 4.0312,-4.0312 0,-0.107 -0.0231,-0.2076 -0.0312,-0.3125 l 5.375,-3.6875 7,10.094 c -0.40353,1.1402 -0.35565,2.5322 0.28125,3.8438 0.91591,1.8861 2.7351,2.9968 4.4375,2.9062 l 2.0312,2.9062 c -0.42081,1.8901 0.0622,4.5098 1.4688,7 1.8842,3.336 4.7908,5.358 7,5.0625 l 1.9688,2.8125 v 0.0312 c -0.28355,1.2109 -0.0205,2.7091 0.84375,4.0625 0.96997,1.5191 2.43,2.4268 3.7812,2.5312 l 15.875,22.688 c 0.35772,2.3396 2.0057,5.9482 4.5938,9.625 2.5667,3.6465 5.3732,6.4491 7.4688,7.625 l 1.7812,2.5312 c -0.0545,1.0485 0.0893,2.8078 0.96875,4.0625 1.0878,1.552 2.5927,2.7909 4.0938,3.1562 l 16.125,23.031 c 0.0128,0.0192 0.0184,0.0433 0.0312,0.0625 5.1839,7.7605 15.469,23.25 15.469,23.25 l 2.6485,-2.0261 c 0,0 -20.619,-31.374 -31.18,-46.255 0.17955,-1.5196 -0.0944,-3.176 -1.1562,-4.5625 -1.0085,-1.3171 -2.4316,-2.7876 -4.1562,-3.0312 l -1.5,-2.125 c -10e-4,-0.009 10e-4,-0.0221 0,-0.0312 -0.32312,-2.3322 -2.0298,-5.9874 -4.6562,-9.7188 -2.5556,-3.6307 -5.3704,-6.4089 -7.4688,-7.5938 l -15.969,-22.781 c 0.35162,-1.2416 0.0913,-2.8346 -0.8125,-4.25 -1.0181,-1.5945 -2.5614,-2.535 -3.9688,-2.5625 l -2.2188,-3.1562 c 0.4496,-1.892 -0.0141,-4.511 -1.4375,-7.0312 -1.8951,-3.3553 -4.8169,-5.3847 -7.0312,-5.0625 l -1.625,-2.3438 c 0.51059,-1.1812 0.46407,-2.6877 -0.21875,-4.0938 -0.84632,-1.7428 -2.4507,-2.8527 -4.0312,-2.9375 l -7.0312,-10.062 5.125,-3.5 c 0.47549,0.19691 0.98458,0.3125 1.5312,0.3125 2.2295,0 4.0625,-1.8018 4.0625,-4.0312 0,-2.2295 -1.833,-4.0625 -4.0625,-4.0625 -2.2295,0 -4.0312,1.833 -4.0312,4.0625 0,0.13873 0.0177,0.27111 0.0312,0.40625 l -5,3.4062 -5.0625,-7.25 c 0.22892,-0.50653 0.34375,-1.0643 0.34375,-1.6562 0,-2.2295 -1.8018,-4.0312 -4.0312,-4.0312 z"
             id="path99894"
             style="stroke-width:2.06544" />
          <path
             d="m 262.44,239.13 c -0.51937,4.7526 -0.9465,8.7919 -2.81,9.2806 0.0111,2.2714 0.59641,6.8167 6.5938,7.0213 7.3986,0.25233 10.516,-5.153 15.928,-5.2019 5.4122,-0.0489 8.0882,2.997 8.4781,6.6081 0.3899,3.6111 -1.3669,7.343 -6.75,7.25 -5.3831,-0.093 -6.3368,-6.7075 -2.2594,-7.7912 1.3586,-0.36111 -1.1954,3.4061 2.4156,3.8031 3.7822,0.41585 4.3044,-6.1937 -1.8969,-6.06 -6.2012,0.13367 -10.907,5.7162 -17.471,4.5044 -7.1315,-1.3166 -8.6202,-6.6922 -9.4619,-10.134 -1.8648,-0.48833 -2.6681,-4.5274 -3.0144,-9.2806 z"
             id="path99896"
             style="stroke-width:2.06544" />
        </g>
      </g>
      <path
         d="m 132.25,515.44 v 31.844 c 0,0 -0.68858,12.968 9.3438,21.906 10.032,8.9386 25.906,8.2188 25.906,8.2188 h 98.688 c 0,0 14.077,-0.1052 22.781,9.5625 6.8794,7.6411 8.6615,13.84 9.125,16.125 v 1 c 0,0 0.0449,-0.20215 0.0937,-0.5 0.0488,0.29785 0.0937,0.5 0.0937,0.5 v -1 c 0.46352,-2.2854 2.2769,-8.4839 9.1562,-16.125 8.704,-9.6677 22.781,-9.5625 22.781,-9.5625 h 98.688 c 0,0 15.874,0.71989 25.906,-8.2188 10.032,-8.93869 9.3438,-21.906 9.3438,-21.906 V 515.44 h -165.88 -0.1875 z m 106.22,4.8438 8.0025,9.6512 c 6.4608,-0.0866 11.717,0.38084 14.716,0.78625 11.577,1.565 12.524,4.3129 17.438,5.5 4.3833,1.059 8.5625,1.4688 8.5625,1.4688 0,0 -5.334,4.0598 -8.3125,5.375 -2.9785,1.3152 -9.3125,2.4375 -9.3125,2.4375 0,0 6.4259,0.18545 8.5625,1 2.1366,0.81455 4.1562,2.9375 4.1562,2.9375 0,0 -5.0823,0.52182 -7.5938,0.96875 -8.323,1.4811 -16.109,5.4059 -24.719,5.625 -3.6051,0.0917 -8.0465,0.20265 -12.719,0.28125 -0.96862,1.0512 -2.3154,2.4942 -2.5,3.9688 -0.1846,1.4746 1.75,4.6875 1.75,4.6875 0,0 -9.283,1.4419 -14.219,1.375 -4.936,-0.0669 -15.219,-1.9062 -15.219,-1.9062 l 4.3438,-8.125 c -0.85195,-0.0172 -1.7313,-0.009 -2.5625,-0.0312 -5.7268,-0.15374 -12.677,-0.65593 -19.562,-1.2188 l -3.9375,7.3438 -15.188,-2.2188 2.875,-6.4375 c -6.1346,-0.45575 -10.426,-0.82043 -13.406,-0.40625 -2.98,0.41418 -6.0013,2.4894 -8.8125,4.4062 -2.8112,1.9168 -8.3125,7.0938 -8.3125,7.0938 0,0 -0.57115,-6.7374 1.2188,-10.031 1.78995,-3.2936 6.125,-5.875 6.125,-5.875 0,0 -3.7129,-3.0385 -5.4062,-5.875 -1.6933,-2.8365 -4.4062,-11.25 -4.4062,-11.25 0,0 14.708,8.2459 22.531,8.3125 4.5056,0.0384 9.1079,-0.50533 13.75,-1.3438 l -5.4062,-5.75 18.594,-8.8125 6.7212,10.517 c 6.4745,-0.99449 12.105,-2.11 18.029,-2.5794 l -5.4062,-9.9063 z m 108.44,0 28.938,1.9688 -5.1081,9.56 c 4.0307,0.75634 13.694,2.6522 17.103,3.0987 l 6.9112,-10.69 18.156,8.8125 -5.2812,5.75 c 4.5343,0.83842 9.0365,1.3821 13.438,1.3438 7.6413,-0.0666 22,-8.3125 22,-8.3125 0,0 -2.6272,8.4135 -4.2812,11.25 -1.654,2.8365 -5.2812,5.875 -5.2812,5.875 0,0 4.2204,2.5812 5.9688,5.875 1.7484,3.2938 1.1875,10.031 1.1875,10.031 0,0 -5.1548,-5.0801 -8.125,-7.0938 -2.6751,-1.8136 -5.0162,-3.8972 -8.5938,-4.4062 -2.2442,-0.31932 -7.1015,-0.0495 -13.094,0.40625 l 2.8125,6.4375 -14.844,2.2188 -3.8438,-7.3438 c -6.7259,0.56282 -13.531,1.065 -19.125,1.2188 -0.81191,0.0223 -1.6678,0.014 -2.5,0.0312 l 4.25,8.125 c 0,0 -10.054,1.8394 -14.875,1.9062 -4.8212,0.0669 -13.875,-1.375 -13.875,-1.375 0,0 1.899,-3.2129 1.7188,-4.6875 -0.18029,-1.4746 -1.5226,-2.9175 -2.4688,-3.9688 -4.5638,-0.0786 -8.8848,-0.18953 -12.406,-0.28125 -8.4104,-0.21909 -16.026,-4.1439 -24.156,-5.625 -2.4532,-0.44693 -7.4062,-0.96875 -7.4062,-0.96875 0,0 1.9755,-2.123 4.0625,-2.9375 2.087,-0.81455 8.3438,-1 8.3438,-1 0,0 -6.1844,-1.1223 -9.0938,-2.4375 -2.9093,-1.3152 -8.0938,-5.375 -8.0938,-5.375 0,0 4.0622,-0.40974 8.3438,-1.4688 4.7993,-1.1871 5.754,-3.935 17.062,-5.5 2.9298,-0.40546 8.3766,-0.87282 14.688,-0.78619 z"
         fill="#056a9e"
         id="path99902"
         style="stroke-width:1.94152" />
      <path
         d="m 247.25,531.44 c -10.019,0.12679 -22.054,1.0743 -31.531,2.0312 -14.16,1.4298 -42.561,7.8825 -51.25,7.9375 -5.1218,0.0324 -9.9618,-1.4714 -13.344,-2.75 -3.0659,-1.1591 -8.8125,-4.3438 -8.8125,-4.3438 0,0 1.5896,5.396 3.625,8.5 2.0354,3.104 4.7635,4.5509 5.9375,6.2188 -1.5666,1.2385 -2.1303,0.90877 -5.2812,4.0312 -3.1509,3.12243 -2.9062,9.0938 -2.9062,9.0938 0,0 3.2452,-3.3757 6.4062,-5.5625 3.161,-2.1868 6.4549,-4.1808 9.875,-4.5938 3.4201,-0.413 39.892,2.8351 52.281,2.9375 12.389,0.1024 34.967,0.19646 40.156,-0.53125 6.8705,-0.96346 13.413,-3.7501 20.25,-5.0312 2.2302,-0.41791 6.75,-0.84375 6.75,-0.84375 0,0 -0.87053,-0.78328 -3.625,-1.4062 -2.75447,-0.62292 -9.2022,0.29018 -10.219,-1.2188 1.5438,-2.0661 7.1907,-2.1773 10.906,-3.4375 3.7153,-1.2602 7.2812,-3.8125 7.2812,-3.8125 0,0 -3.9395,-0.70231 -5.875,-1.2188 -5.3425,-1.4255 -6.2824,-3.4316 -15.781,-5.1875 -3.5621,-0.65848 -8.8321,-0.88857 -14.844,-0.8125 z m 10.918,0.36532 c 1.0462,0.94625 -7.4063,5.506 -7.742,12.51 -0.24685,5.1507 6.1602,9.1361 5.1124,9.8267 -1.0478,0.69064 -7.2414,-4.3777 -6.8923,-9.7264 0.47809,-7.3251 8.4757,-13.557 9.5219,-12.61 z m -7.9808,0.79093 c 0.94457,1.0205 -7.2944,5.0073 -8.0625,11.469 -0.76316,6.4197 5.1994,9.209 4.1875,10.156 -1.0119,0.947 -6.5944,-4.4468 -6.0938,-9.6562 0.6772,-7.0463 9.0242,-12.989 9.9688,-11.969 z m 14.094,3.8125 c 1.482,0 2.6875,1.053 2.6875,2.3438 0,1.2908 -1.2055,2.3125 -2.6875,2.3125 -1.482,0 -2.6875,-1.0217 -2.6875,-2.3125 0,-1.2908 1.2055,-2.3438 2.6875,-2.3438 z m -31.188,2.5 4.3125,7.5312 -8.625,0.25 z m -8.6562,0.75 3.7812,7 -7.5625,0.21875 z m -8.125,0.59375 3.4688,6.5938 -6.9375,0.0312 z m -8.1562,0.84375 3.5938,5.9688 -7.1562,0.1875 z m -7.9062,0.65625 3.25,5.5312 -6.75,0.0937 z m -8.2188,0.6875 2.9062,4.9688 -6,0.1875 z m -8.0938,0.75 2.875,4.4062 -5.7812,0.1875 z m -8.0938,0.625 2.8438,3.9688 -5.9062,0.21875 z m -7.75,0.71875 2.25,3.4688 -4.6562,0.15625 z"
         fill="#e6e6e6"
         id="path99904"
         style="stroke-width:1.94152" />
      <path
         d="m 338.51,531.38 c 9.7766,0.12679 21.52,1.0743 30.767,2.0312 13.817,1.4298 41.53,7.8825 50.008,7.9375 4.9976,0.0324 9.7204,-1.4714 13.02,-2.75 2.9916,-1.1591 8.5989,-4.3438 8.5989,-4.3438 0,0 -1.551,5.396 -3.5371,8.5 -1.9861,3.104 -4.648,4.5509 -5.7936,6.2188 1.5287,1.2385 2.0787,0.90877 5.1533,4.0312 3.0746,3.12243 2.8358,9.0938 2.8358,9.0938 0,0 -3.1665,-3.3757 -6.251,-5.5625 -3.0845,-2.1868 -6.2985,-4.1808 -9.6357,-4.5938 -3.3372,-0.41293 -38.925,2.8351 -51.014,2.9375 -12.089,0.10237 -34.12,0.19646 -39.183,-0.53125 -6.704,-0.96346 -13.088,-3.7501 -19.759,-5.0312 -2.1762,-0.41791 -6.5864,-0.84375 -6.5864,-0.84375 0,0 0.84944,-0.78328 3.5372,-1.4062 2.6877,-0.62297 8.9792,0.29018 9.9711,-1.2188 -1.5064,-2.0661 -7.0164,-2.1773 -10.642,-3.4375 -3.6255,-1.2602 -7.1048,-3.8125 -7.1048,-3.8125 0,0 3.844,-0.70231 5.7326,-1.2188 5.213,-1.4255 6.1302,-3.4316 15.399,-5.1875 3.4757,-0.65848 8.618,-0.88857 14.484,-0.8125 z m -10.654,0.36532 c -1.0208,0.94625 7.2268,5.506 7.5543,12.51 0.24087,5.1507 -6.011,9.1361 -4.9885,9.8267 1.0224,0.69064 7.0659,-4.3777 6.7253,-9.7264 -0.46651,-7.3251 -8.2703,-13.557 -9.2911,-12.61 z m 7.7874,0.79093 c -0.92168,1.0205 7.1176,5.0073 7.8671,11.469 0.74467,6.4197 -5.0734,9.209 -4.086,10.156 0.98732,0.94726 6.4346,-4.4468 5.9461,-9.6562 -0.66079,-7.0463 -8.8055,-12.989 -9.7272,-11.969 z m -13.752,3.8125 c -1.4461,0 -2.6224,1.053 -2.6224,2.3438 0,1.2908 1.1763,2.3125 2.6224,2.3125 1.4461,0 2.6224,-1.0217 2.6224,-2.3125 0,-1.2908 -1.1763,-2.3438 -2.6224,-2.3438 z m 30.432,2.5 -4.208,7.5312 8.416,0.25 z m 8.4465,0.75 -3.6896,7 7.3792,0.21875 z m 7.9281,0.59375 -3.3847,6.5938 6.7694,0.0312 z m 7.9586,0.84375 -3.5067,5.9688 6.9828,0.1875 z m 7.7146,0.65625 -3.1712,5.5312 6.5864,0.0937 z m 8.0196,0.6875 -2.8358,4.9688 5.8546,0.1875 z m 7.8976,0.75 -2.8053,4.4062 5.6412,0.1875 z m 7.8976,0.625 -2.7748,3.9688 5.7631,0.21875 z m 7.5622,0.71875 -2.1955,3.4688 4.5434,0.15625 z"
         fill="#e6e6e6"
         id="path99906"
         style="stroke-width:1.94152" />
    </g>
    <g
       transform="translate(0,7.2136)"
       id="g99914"
       style="stroke-width:2.06544">
      <path
         d="m 604.37,404.19 c -2.4846,-0.15593 -4.041,4.8565 -12.119,5.142 0,0 -0.87075,-9.965 -0.86561,-15.662 7.348,0.19318 20.177,-4.828 25.795,1.7054 2.6838,3.1207 2.9031,11.247 -1.0387,12.304 -8.2565,2.214 -9.2878,-3.3333 -11.772,-3.4892 z"
         id="path99910"
         style="stroke-width:2.06544" />
      <path
         d="m 723.11,403.39 c 2.4894,0.0251 3.3309,5.3106 11.713,6.0096 0,0 1.138,-10.776 1.5472,-16.459 -7.3426,-0.34163 -19.501,-5.77 -25.396,0.72628 -2.7036,2.9794 -3.7132,11.006 0.1413,12.347 8.0737,2.8085 9.5056,-2.6491 11.995,-2.624 z"
         id="path99912"
         style="stroke-width:2.06544" />
    </g>
  </g>
</svg>
