<?xml version="1.0" encoding="UTF-8" standalone="no"?>
<svg
   width="511.99997"
   height="512"
   viewBox="0 0 511.99999 512"
   version="1.1"
   id="svg119306"
   sodipodi:docname="ru-nvs.svg"
   inkscape:version="1.2.2 (b0a84865, 2022-12-01)"
   xmlns:inkscape="http://www.inkscape.org/namespaces/inkscape"
   xmlns:sodipodi="http://sodipodi.sourceforge.net/DTD/sodipodi-0.dtd"
   xmlns="http://www.w3.org/2000/svg"
   xmlns:svg="http://www.w3.org/2000/svg">
  <defs
     id="defs119310" />
  <sodipodi:namedview
     id="namedview119308"
     pagecolor="#ffffff"
     bordercolor="#666666"
     borderopacity="1.0"
     inkscape:showpageshadow="2"
     inkscape:pageopacity="0.0"
     inkscape:pagecheckerboard="0"
     inkscape:deskcolor="#d1d1d1"
     showgrid="false"
     inkscape:zoom="1.1699219"
     inkscape:cx="256"
     inkscape:cy="256"
     inkscape:window-width="1440"
     inkscape:window-height="819"
     inkscape:window-x="0"
     inkscape:window-y="25"
     inkscape:window-maximized="0"
     inkscape:current-layer="svg119306" />
  <title
     id="title119120">Flag of Novosibirsk oblast</title>
  <g
     id="g119886"
     transform="matrix(0.56894576,0,0,0.85307741,0,0.15355393)"
     style="stroke-width:1.4354">
    <path
       fill="#ffffff"
       d="M 0,0.4 H 899.12 V 599.8 H 0 Z"
       id="path119122"
       style="stroke-width:1.79479" />
    <path
       fill="#008e1f"
       d="M 651.77,0 H 899.91 V 600 H 651.77 Z"
       id="path119124"
       style="stroke-width:1.79479" />
    <path
       d="m 399.2,0 h 98.9 c 0,99.993 0.26,200.177 0.37,300 0.11,99.823 0.23,199.987 0.37,300 H 399.18 V -0.18"
       fill="#0039a6"
       id="path119126"
       style="stroke-width:1.79479" />
    <path
       fill="#d20000"
       d="M 0,0 H 248.14 V 600 H 0 Z"
       id="path119304"
       style="stroke-width:1.79479" />
  </g>
  <g
     id="g119880"
     transform="matrix(0.56894524,0,0,0.5689453,0.02844046,90.573901)"
     style="stroke-width:1.75764">
    <path
       d="m 249,427 h 150.15 v 6.45 H 249 V 427 m 249.13,-0.19 h 152.68 v 6.45 H 498.13 v -6.45"
       id="path119128"
       style="stroke-width:1.75764" />
    <path
       d="m 399.15,425.82 h 99.49 V 435 h -99.49 v -9.15"
       fill="#ffffff"
       id="path119130"
       style="stroke-width:2.19771" />
    <path
       d="m 392.42,231.72 h 113.91 v -8.32 c -8.15,-20.56 -22.38,-31.53 -37.66,-36.3 l -2.1,-0.6 v -5.94 h -34.51 v 6.11 l -1.25,0.34 a 59.64,59.64 0 0 0 -38.43,36.44 V 232"
       fill="#ffd700"
       id="path119132"
       style="stroke-width:2.19771" />
    <path
       d="m 311.64,419.85 c -1.51,-0.4 -3,-0.82 -4.52,-1.28 2,-1.59 3.89,-3.35 5.85,-5 l 4.91,1.16 c -2.12,1.71 -4.16,3.45 -6.24,5.12 z"
       fill="#d20000"
       id="path119134"
       style="stroke-width:2.19771" />
    <path
       d="m 311.64,419.85 c -1.51,-0.4 -3,-0.82 -4.52,-1.28 2,-1.59 3.89,-3.35 5.85,-5 l 4.91,1.16 c -2.12,1.71 -4.16,3.45 -6.24,5.12 z"
       fill="none"
       stroke="#000000"
       stroke-miterlimit="22.93"
       stroke-width="1.08973"
       id="path119136" />
    <path
       d="m 304.17,417.92 -4.52,-1.33 c 2,-1.62 3.89,-3.35 5.85,-5 1.59,0.45 3.24,0.82 4.86,1.22 -2.07,1.84 -4.11,3.44 -6.19,5.11 z"
       fill="#d20000"
       id="path119138"
       style="stroke-width:2.19771" />
    <path
       d="m 304.17,417.92 -4.52,-1.33 c 2,-1.62 3.89,-3.35 5.85,-5 1.59,0.45 3.24,0.82 4.86,1.22 -2.07,1.84 -4.11,3.44 -6.19,5.11 z"
       fill="none"
       stroke="#000000"
       stroke-miterlimit="22.93"
       stroke-width="1.08973"
       id="path119140" />
    <path
       d="m 280.37,200.88 a 6.13,6.13 0 0 1 8.72,-2.84 c 3.66,3.32 3.21,4.17 6,8.8 1.08,1.73 3.55,3.92 6,6.87 a 69.53,69.53 0 0 1 13,27.69 c 3.32,15 -1.87,28.4 -7.36,39.48 -3.81,6.48 -8,12.64 -11.36,19.45 -2.44,5.4 -5,9.83 -4.8,16.87 0.2,4.23 1.45,8.35 6.93,7.19 a 11.5,11.5 0 0 0 6.19,-5.14 24.94,24.94 0 0 0 1.82,-1.93 c -0.62,6.42 0.43,12.89 -1.9,17.84 a 13.83,13.83 0 0 1 -10.91,4.94 13.46,13.46 0 0 1 -14.51,-9.68 c -8.89,-24.6 3.86,-68 3.89,-85.77 0,-21.9 -8.09,-34.68 -1.65,-43.71 m 23.15,-46.27 a 10.54,10.54 0 0 0 0.62,6.48 c -0.43,-5.68 -0.54,-10.71 3.44,-13.8 3.64,-2.13 8.21,1 9.51,5.68 0,-2 1.51,-6.11 3,-5.51 2,0 1.33,4.37 2.84,6.36 a 60.89,60.89 0 0 1 17.61,9.57 c 2.3,1.79 4.12,2.19 4.43,4.63 0.62,6.28 -4.94,6.62 -12.18,5.34 -1.56,1.42 2.33,2.64 4,2.84 a 2.27,2.27 0 0 1 -1.36,2.7 45.44,45.44 0 0 1 -11,0.31 c -2.84,0.26 -3.66,5.4 1.65,7.84 a 103.24,103.24 0 0 1 39,27.66 l -32.86,20.16 c -5,-15.08 -14.2,-28.77 -28.4,-42.29 a 33.83,33.83 0 0 1 -9.34,-21.39 19,19 0 0 1 9.12,-16.56"
       id="path119142"
       style="stroke-width:1.75764" />
    <path
       d="m 328.29,160.18 a 3.66,3.66 0 0 1 2.84,3.72 c 0,1.7 -3.1,1.39 -5.14,0.51 a 3.15,3.15 0 0 1 -2.33,-3.78 c 0.48,-1.33 2.53,-1.31 4.6,-0.45"
       fill="#ffffff"
       id="path119144"
       style="stroke-width:2.19771" />
    <path
       d="m 327.89,160.78 a 1.51,1.51 0 1 1 -1.51,1.53 1.51,1.51 0 0 1 1.51,-1.53"
       id="path119146"
       style="stroke-width:1.75764" />
    <path
       d="m 341.95,164.3 a 8.52,8.52 0 0 1 4.86,1.93 c 1.48,3.07 -1.82,5.4 -2.13,4.69 a 4,4 0 0 0 -0.62,-2.84 c -0.77,-0.2 -1.11,0.77 -1.33,1.33 a 7.38,7.38 0 0 1 -0.78,-5.11 z"
       fill="#ffffff"
       id="path119148"
       style="stroke-width:2.19771" />
    <path
       d="m 341.95,164.3 a 8.52,8.52 0 0 1 4.86,1.93 c 1.48,3.07 -1.82,5.4 -2.13,4.69 a 4,4 0 0 0 -0.62,-2.84 c -0.77,-0.2 -1.11,0.77 -1.33,1.33 a 7.38,7.38 0 0 1 -0.78,-5.11 z"
       fill="none"
       id="path119150"
       style="stroke-width:2.19771" />
    <path
       d="m 337.06,175 c 2.64,-0.2 5.14,0.82 8.15,-0.82 a 6.56,6.56 0 0 1 9.2,0.2 c 1.82,1.08 4.8,-0.31 6.82,-0.51 a 5.08,5.08 0 0 1 -6.22,5.11 c -2.7,-0.26 -3,-2.13 -6,-2.24 -2.5,0 -2.84,2.39 -4.83,2.56 -4,-0.4 -4.12,-2.84 -7.27,-4.23"
       fill="#d20000"
       id="path119152"
       style="stroke-width:2.19771" />
    <path
       d="m 322.15,181.45 c 0.45,-2.13 1.87,-2.33 5,-2.07 a 2.19,2.19 0 0 0 -0.85,3.78 c 3.38,4.06 13,9.09 20.39,15.14 a 104.43,104.43 0 0 0 -21.81,-11.7 4.74,4.74 0 0 1 -2.73,-5.15 z"
       fill="#ffffff"
       id="path119154"
       style="stroke-width:2.19771" />
    <path
       d="m 322.15,181.45 c 0.45,-2.13 1.87,-2.33 5,-2.07 a 2.19,2.19 0 0 0 -0.85,3.78 c 3.38,4.06 13,9.09 20.39,15.14 a 104.43,104.43 0 0 0 -21.81,-11.7 4.74,4.74 0 0 1 -2.73,-5.15 z"
       fill="none"
       id="path119156"
       style="stroke-width:2.19771" />
    <path
       d="m 309.88,152.23 c 1.39,-1 3.46,0.65 3.46,3.15 -2.5,-0.45 -3.24,0.77 -3.64,4.43 -1.82,-1.73 -2,-6.31 0.14,-7.58"
       fill="#ffffff"
       id="path119158"
       style="stroke-width:2.19771" />
    <path
       d="m 397.25,180.49 c -2.41,-3.35 -13.15,2.84 -7.7,14 0.82,22.72 -14.65,21.47 -25.25,16.07 A 65.58,65.58 0 0 1 374.67,235 c 0,0.34 16.3,-8 20.51,-19.65 2.33,-10 9.66,-34.45 2.07,-34.88"
       id="path119160"
       style="stroke-width:1.75764" />
    <path
       d="m 401,180.37 a 2.84,2.84 0 0 0 -4.23,0.82 1.28,1.28 0 0 1 -0.6,-2.41 4.29,4.29 0 0 1 4.83,1.59 z"
       fill="#ffffff"
       id="path119162"
       style="stroke-width:2.19771" />
    <path
       d="m 401,180.37 a 2.84,2.84 0 0 0 -4.23,0.82 1.28,1.28 0 0 1 -0.6,-2.41 4.29,4.29 0 0 1 4.83,1.59 z"
       fill="none"
       stroke="#000000"
       stroke-miterlimit="22.93"
       stroke-width="1.08973"
       id="path119164" />
    <path
       d="m 402.53,183 a 2.84,2.84 0 0 0 -4.2,0.77 1.22,1.22 0 0 1 -0.62,-2.33 4.29,4.29 0 0 1 4.82,1.56 z"
       fill="#ffffff"
       id="path119166"
       style="stroke-width:2.19771" />
    <path
       d="m 402.53,183 a 2.84,2.84 0 0 0 -4.2,0.77 1.22,1.22 0 0 1 -0.62,-2.33 4.29,4.29 0 0 1 4.82,1.56 z"
       fill="none"
       stroke="#000000"
       stroke-miterlimit="22.93"
       stroke-width="1.08973"
       id="path119168" />
    <path
       d="m 402.67,185.83 a 2.47,2.47 0 0 0 -3.46,0.49 l -0.15,0.22 a 1.11,1.11 0 0 1 -0.54,-2.07 3.78,3.78 0 0 1 4.15,1.36 z"
       fill="#ffffff"
       id="path119170"
       style="stroke-width:2.19771" />
    <path
       d="m 402.67,185.83 a 2.47,2.47 0 0 0 -3.46,0.49 l -0.15,0.22 a 1.11,1.11 0 0 1 -0.54,-2.07 3.78,3.78 0 0 1 4.15,1.36 z"
       fill="none"
       stroke="#000000"
       stroke-miterlimit="22.93"
       stroke-width="1.08973"
       id="path119172" />
    <path
       d="m 341,344.28 c -2.84,-22.41 2.39,-31.24 10,-42.6 -1.82,8.86 -2.33,14.46 6.11,16.7 21.76,11.36 24.25,22.27 17,55.41 -2.33,5.14 3,13.8 9.2,18.8 7,0.77 15.54,-2 18,5.68 0.14,6.67 -5.37,11.81 -15,10.91 -15.08,-4.12 -15.39,-18.94 -25.56,-29.08 0.45,-6.73 3.81,-10.39 -0.91,-16.1 -4.43,-6.56 -15.82,-6.56 -18.8,-19.88"
       id="path119174"
       style="stroke-width:1.75764" />
    <path
       d="m 331.75,233.88 32.52,-20.42 c 8.15,10.54 11,19.71 15,30.5 2.84,6.11 5.06,5.25 8.83,-2 3.77,-7.25 5.06,-8 9.15,-10.28 h 14.54 a 7.67,7.67 0 0 1 0,2.56 c 0,4.43 0,11.56 -10.71,14.83 -4.06,0.31 -5.85,-0.82 -8,1.42 -3.81,4.69 -2.61,16.7 -10.17,16.76 -6.93,-0.57 -11.36,-7.07 -18.55,-16.56 1.68,4 2.41,7.33 6.31,10.34 -5.25,22.72 -11.36,25.93 -18.92,37.86 -5.85,9.83 -12.89,17.67 -13.12,34.34 -0.62,8.52 2.41,14.77 1.33,24.51 -0.51,4.88 -1.51,15.08 -9.83,20.79 -7.21,6.42 -18.77,2.84 -26.78,7.5 -2.84,2.39 -4.8,10.14 -3.32,17.47 a 3.69,3.69 0 0 0 3.55,3.72 c 7.9,-1.08 14.06,0.51 15.34,5.91 0.45,5 -13.29,10.54 -18.4,9.37 -5.68,-1.08 -9.32,-9.88 -10.37,-16 0,-6.82 0,-13.6 -0.14,-20.34 0.71,-12.7 17.24,-6 14.2,-27.41 -2.44,-9.23 -1.51,-13.75 1.56,-22.15 0,-11.87 -1,-22.72 6.19,-33.46 10.62,-22.15 25.56,-42.6 19.88,-69.18"
       id="path119176"
       style="stroke-width:1.75764" />
    <path
       d="m 389.49,407.27 c 0.65,-1 1.48,-1 2.61,-0.26 a 8.15,8.15 0 0 1 -0.94,6.73 c -0.36,-2.74 -2.07,-4.94 -1.67,-6.47 z"
       fill="#ffffff"
       id="path119178"
       style="stroke-width:2.19771" />
    <path
       d="m 389.49,407.27 c 0.65,-1 1.48,-1 2.61,-0.26 a 8.15,8.15 0 0 1 -0.94,6.73 c -0.36,-2.74 -2.07,-4.94 -1.67,-6.47 z"
       fill="none"
       stroke="#000000"
       stroke-miterlimit="22.93"
       stroke-width="1.08973"
       id="path119180" />
    <path
       d="m 393.21,407.07 a 1.62,1.62 0 0 1 3,-0.57 c 0.85,2.84 -0.77,4.43 -1.65,6.48 0.21,-3.61 -0.89,-3.15 -1.35,-5.91 z"
       fill="#ffffff"
       id="path119182"
       style="stroke-width:2.19771" />
    <path
       d="m 393.21,407.07 a 1.62,1.62 0 0 1 3,-0.57 c 0.85,2.84 -0.77,4.43 -1.65,6.48 0.21,-3.61 -0.89,-3.15 -1.35,-5.91 z"
       fill="none"
       stroke="#000000"
       stroke-miterlimit="22.93"
       stroke-width="1.08973"
       id="path119184" />
    <path
       d="m 396.85,404.57 c 0,-1 2.27,-1.79 2.84,-0.45 0.82,2.84 -1,4.17 -1.82,6.22 0.77,-3.52 -0.87,-3.27 -1.02,-5.77 z"
       fill="#ffffff"
       id="path119186"
       style="stroke-width:2.19771" />
    <path
       d="m 396.85,404.57 c 0,-1 2.27,-1.79 2.84,-0.45 0.82,2.84 -1,4.17 -1.82,6.22 0.77,-3.52 -0.87,-3.27 -1.02,-5.77 z"
       fill="none"
       stroke="#000000"
       stroke-miterlimit="22.93"
       stroke-width="1.08973"
       id="path119188" />
    <path
       d="m 399.66,401.62 c 0,-1 1.28,-2.3 2.19,-0.4 1,2.56 -0.94,3.92 -1.7,5.68 1.18,-3.9 -1,-3.61 -0.49,-5.28 z"
       fill="#ffffff"
       id="path119190"
       style="stroke-width:2.19771" />
    <path
       d="m 399.66,401.62 c 0,-1 1.28,-2.3 2.19,-0.4 1,2.56 -0.94,3.92 -1.7,5.68 1.18,-3.9 -1,-3.61 -0.49,-5.28 z"
       fill="none"
       stroke="#000000"
       stroke-miterlimit="22.93"
       stroke-width="1.08973"
       id="path119192" />
    <path
       d="m 307.13,420 a 1.85,1.85 0 0 1 2.56,-0.2 5.17,5.17 0 0 1 -0.94,5.25 c -0.34,-2.05 -2.02,-3.86 -1.62,-5.05 z"
       fill="#ffffff"
       id="path119194"
       style="stroke-width:2.19771" />
    <path
       d="m 307.13,420 a 1.85,1.85 0 0 1 2.56,-0.2 5.17,5.17 0 0 1 -0.94,5.25 c -0.34,-2.05 -2.02,-3.86 -1.62,-5.05 z"
       fill="none"
       stroke="#000000"
       stroke-miterlimit="22.93"
       stroke-width="1.08973"
       id="path119196" />
    <path
       d="m 310.82,419.85 a 1.73,1.73 0 0 1 3,-0.45 c 0.85,2.19 -0.77,3.41 -1.68,5.08 0.27,-2.9 -0.89,-2.48 -1.32,-4.63 z"
       fill="#ffffff"
       id="path119198"
       style="stroke-width:2.19771" />
    <path
       d="m 310.82,419.85 a 1.73,1.73 0 0 1 3,-0.45 c 0.85,2.19 -0.77,3.41 -1.68,5.08 0.27,-2.9 -0.89,-2.48 -1.32,-4.63 z"
       fill="none"
       stroke="#000000"
       stroke-miterlimit="22.93"
       stroke-width="1.08973"
       id="path119200" />
    <path
       d="m 314.46,417.86 c 0,-0.77 2.27,-1.48 2.7,-0.45 0.82,2.24 -1,3.35 -1.82,4.94 0.85,-2.7 -0.77,-2.5 -0.88,-4.49 z"
       fill="#ffffff"
       id="path119202"
       style="stroke-width:2.19771" />
    <path
       d="m 314.46,417.86 c 0,-0.77 2.27,-1.48 2.7,-0.45 0.82,2.24 -1,3.35 -1.82,4.94 0.85,-2.7 -0.77,-2.5 -0.88,-4.49 z"
       fill="none"
       stroke="#000000"
       stroke-miterlimit="22.93"
       stroke-width="1.08973"
       id="path119204" />
    <path
       d="m 317.21,415.48 a 1.14,1.14 0 0 1 2.19,-0.31 c 1,2 -0.94,3.15 -1.7,4.54 1.19,-3.07 -0.94,-2.95 -0.49,-4.23 z"
       fill="#ffffff"
       id="path119206"
       style="stroke-width:2.19771" />
    <path
       d="m 317.21,415.48 a 1.14,1.14 0 0 1 2.19,-0.31 c 1,2 -0.94,3.15 -1.7,4.54 1.19,-3.07 -0.94,-2.95 -0.49,-4.23 z"
       fill="none"
       stroke="#000000"
       stroke-miterlimit="22.93"
       stroke-width="1.08973"
       id="path119208" />
    <path
       d="m 412.18,229.91 a 4.91,4.91 0 0 1 -2.22,5.68 c -0.31,2 1.25,3.27 2.19,1.68 a 8.52,8.52 0 0 0 0.03,-7.36 z"
       fill="#ffffff"
       id="path119210"
       style="stroke-width:2.19771" />
    <path
       d="m 412.18,229.91 a 4.91,4.91 0 0 1 -2.22,5.68 c -0.31,2 1.25,3.27 2.19,1.68 a 8.52,8.52 0 0 0 0.03,-7.36 z"
       fill="none"
       stroke="#000000"
       stroke-miterlimit="22.93"
       stroke-width="1.08973"
       id="path119212" />
    <path
       d="m 410.37,230.67 a 4,4 0 0 1 -2.22,5.2 c -0.31,1.93 1.51,3 2.53,1.62 a 6.53,6.53 0 0 0 -0.31,-6.82 z"
       fill="#ffffff"
       id="path119214"
       style="stroke-width:2.19771" />
    <path
       d="m 410.37,230.67 a 4,4 0 0 1 -2.22,5.2 c -0.31,1.93 1.51,3 2.53,1.62 a 6.53,6.53 0 0 0 -0.31,-6.82 z"
       fill="none"
       stroke="#000000"
       stroke-miterlimit="22.93"
       stroke-width="1.08973"
       id="path119216" />
    <path
       d="m 586.74,419.45 c 1.51,-0.4 3,-0.82 4.54,-1.28 -2,-1.62 -4,-3.27 -5.91,-4.94 -1.65,0.45 -3.27,0.82 -4.86,1.22 z"
       fill="#d20000"
       id="path119218"
       style="stroke-width:2.19771" />
    <path
       d="m 586.74,419.45 c 1.51,-0.4 3,-0.82 4.54,-1.28 -2,-1.62 -4,-3.27 -5.91,-4.94 -1.65,0.45 -3.27,0.82 -4.86,1.22 z"
       fill="none"
       stroke="#000000"
       stroke-miterlimit="22.93"
       stroke-width="1.08973"
       id="path119220" />
    <path
       d="m 594.26,417.5 c 1.48,-0.4 3,-0.82 4.52,-1.28 l -5.88,-5 c -1.65,0.45 -3.27,0.82 -4.86,1.22 2.05,1.76 4.12,3.44 6.22,5.06 z"
       fill="#d20000"
       id="path119222"
       style="stroke-width:2.19771" />
    <path
       d="m 594.26,417.5 c 1.48,-0.4 3,-0.82 4.52,-1.28 l -5.88,-5 c -1.65,0.45 -3.27,0.82 -4.86,1.22 2.05,1.76 4.12,3.44 6.22,5.06 z"
       fill="none"
       stroke="#000000"
       stroke-miterlimit="22.93"
       stroke-width="1.08973"
       id="path119224" />
    <path
       d="m 618,200.77 a 6.16,6.16 0 0 0 -8.72,-2.84 c -3.69,3.35 -3.27,4.23 -6,8.8 -1.08,1.79 -3.58,3.92 -6,6.87 a 70,70 0 0 0 -13,27.66 c -3.35,14.88 1.82,28.4 7.36,39.34 3.86,6.48 8.07,12.64 11.36,19.45 2.44,5.45 5,9.83 4.8,17 -0.23,4.23 -1.45,8.29 -6.93,7.13 a 10.93,10.93 0 0 1 -6.16,-5 24.35,24.35 0 0 1 -1.82,-2 c 0.62,6.36 -0.45,12.84 1.9,17.78 a 15.19,15.19 0 0 0 25.39,-4.74 c 8.92,-24.6 -3.89,-68 -3.89,-85.69 0,-21.81 8.15,-34.54 1.65,-43.65 m -23.08,-46.41 a 10.54,10.54 0 0 1 -0.62,6.48 c 0.4,-5.68 0.51,-10.59 -3.46,-13.75 -3.66,-2.13 -8.21,1 -9.54,5.68 0,-1.93 -1.48,-6 -3,-5.45 -2,0 -1.28,4.29 -2.84,6.31 a 60.69,60.69 0 0 0 -17.55,9.57 c -2.3,1.79 -4.17,2.19 -4.49,4.69 -0.6,6.28 5,6.62 12.21,5.34 1.56,1.42 -2.33,2.64 -4,2.84 a 2.24,2.24 0 0 0 1.33,2.64 45.44,45.44 0 0 0 11,0.4 c 2.84,0.2 3.69,5.34 -1.59,7.84 a 103.18,103.18 0 0 0 -39,27.66 c 11,6.73 21.93,13.35 32.83,20 5,-15 14.2,-28.69 28.4,-42.23 a 33.8,33.8 0 0 0 9.32,-21.39 19.28,19.28 0 0 0 -9.06,-16.61"
       id="path119226"
       style="stroke-width:1.75764" />
    <path
       d="m 570.12,160 a 3.66,3.66 0 0 0 -2.84,3.72 c 0.14,1.7 3.07,1.42 5.11,0.51 a 3.15,3.15 0 0 0 2.33,-3.78 c -0.51,-1.33 -2.5,-1.31 -4.54,-0.45"
       fill="#ffffff"
       id="path119228"
       style="stroke-width:2.19771" />
    <path
       d="m 570.52,160.58 a 1.51,1.51 0 0 0 0,3 1.48,1.48 0 0 0 1.56,-1.39 v -0.09 a 1.51,1.51 0 0 0 -1.48,-1.53 h -0.09 z"
       id="path119230"
       style="stroke-width:1.75764" />
    <path
       d="m 570.52,160.58 a 1.51,1.51 0 0 0 0,3 1.48,1.48 0 0 0 1.56,-1.39 v -0.09 a 1.51,1.51 0 0 0 -1.48,-1.53 h -0.09 z"
       fill="none"
       stroke="#000000"
       stroke-miterlimit="22.93"
       stroke-width="1.08973"
       id="path119232" />
    <path
       d="m 556.46,164.1 a 9.06,9.06 0 0 0 -5,1.93 c -1.48,3.15 1.9,5.45 2.22,4.74 a 3.72,3.72 0 0 1 0.65,-2.84 c 0.74,-0.26 1.16,0.71 1.39,1.28 a 7.3,7.3 0 0 0 0.74,-5.11 z"
       fill="#ffffff"
       id="path119234"
       style="stroke-width:2.19771" />
    <path
       d="m 556.46,164.1 a 9.06,9.06 0 0 0 -5,1.93 c -1.48,3.15 1.9,5.45 2.22,4.74 a 3.72,3.72 0 0 1 0.65,-2.84 c 0.74,-0.26 1.16,0.71 1.39,1.28 a 7.3,7.3 0 0 0 0.74,-5.11 z"
       fill="none"
       id="path119236"
       style="stroke-width:2.19771" />
    <path
       d="m 561.29,174.84 c -2.61,-0.2 -5.11,0.82 -8.15,-0.82 a 6.39,6.39 0 0 0 -9,0.17 l -0.08,0.09 c -1.82,1 -4.83,-0.4 -6.9,-0.57 a 5.11,5.11 0 0 0 6.11,5.08 c 2.84,-0.26 3.07,-2.13 6,-2.24 2.93,-0.11 2.84,2.39 4.8,2.56 4,-0.4 4.12,-2.84 7.27,-4.23"
       fill="#d20000"
       id="path119238"
       style="stroke-width:2.19771" />
    <path
       d="m 576.23,181.34 c -0.51,-2.07 -1.87,-2.33 -5,-2 1.82,0 2,2.39 0.91,3.69 -3.38,4.06 -13,9.09 -20.36,15.19 a 100.51,100.51 0 0 1 21.76,-11.76 4.74,4.74 0 0 0 2.69,-5.12 z"
       fill="#ffffff"
       id="path119240"
       style="stroke-width:2.19771" />
    <path
       d="m 576.23,181.34 c -0.51,-2.07 -1.87,-2.33 -5,-2 1.82,0 2,2.39 0.91,3.69 -3.38,4.06 -13,9.09 -20.36,15.19 a 100.51,100.51 0 0 1 21.76,-11.76 4.74,4.74 0 0 0 2.69,-5.12 z"
       fill="none"
       id="path119242"
       style="stroke-width:2.19771" />
    <path
       d="m 588.47,152 c -1.36,-0.91 -3.44,0.71 -3.46,3.15 2.53,-0.45 3.27,0.77 3.61,4.43 1.87,-1.73 2,-6.28 -0.14,-7.58"
       fill="#ffffff"
       id="path119244"
       style="stroke-width:2.19771" />
    <path
       d="m 500.57,180.15 c 2.41,-3.35 13.18,2.84 7.81,13.92 -0.62,22.72 14.83,21.36 25.39,15.93 a 64.41,64.41 0 0 0 -10.17,24.4 c 0,0.34 -16.33,-7.87 -20.68,-19.43 -2.39,-10 -10,-34.37 -2.36,-34.85"
       id="path119246"
       style="stroke-width:1.75764" />
    <path
       d="m 495.74,180.94 a 2.84,2.84 0 0 1 4,0.6 l 0.15,0.22 a 1.28,1.28 0 0 0 0.6,-2.41 4.43,4.43 0 0 0 -4.75,1.59 z"
       fill="#ffffff"
       id="path119248"
       style="stroke-width:2.19771" />
    <path
       d="m 495.74,180.94 a 2.84,2.84 0 0 1 4,0.6 l 0.15,0.22 a 1.28,1.28 0 0 0 0.6,-2.41 4.43,4.43 0 0 0 -4.75,1.59 z"
       fill="none"
       stroke="#000000"
       stroke-miterlimit="22.93"
       stroke-width="1.08973"
       id="path119250" />
    <path
       d="m 495,183.16 a 2.44,2.44 0 0 1 3.42,0.47 l 0.13,0.19 a 1.05,1.05 0 0 0 0.48,-2 3.61,3.61 0 0 0 -4.03,1.34 z"
       fill="#ffffff"
       id="path119252"
       style="stroke-width:2.19771" />
    <path
       d="m 495,183.16 a 2.44,2.44 0 0 1 3.42,0.47 l 0.13,0.19 a 1.05,1.05 0 0 0 0.48,-2 3.61,3.61 0 0 0 -4.03,1.34 z"
       fill="none"
       stroke="#000000"
       stroke-miterlimit="22.93"
       stroke-width="1.08973"
       id="path119254" />
    <path
       d="m 498.3,178.78 a 2.53,2.53 0 0 1 3.44,1 l 0.11,0.21 a 1.11,1.11 0 0 0 0.77,-2 3.86,3.86 0 0 0 -4.32,0.79 z"
       fill="#ffffff"
       id="path119256"
       style="stroke-width:2.19771" />
    <path
       d="m 498.3,178.78 a 2.53,2.53 0 0 1 3.44,1 l 0.11,0.21 a 1.11,1.11 0 0 0 0.77,-2 3.86,3.86 0 0 0 -4.32,0.79 z"
       fill="none"
       stroke="#000000"
       stroke-miterlimit="22.93"
       stroke-width="1.08973"
       id="path119258" />
    <path
       d="m 557.34,344.11 c 2.7,-22.41 -2.39,-31.24 -9.94,-42.6 1.79,8.92 2.27,14.57 -6.16,16.76 -21.81,11.36 -24.25,22.21 -17,55.33 2.3,5.14 -3,13.86 -9.2,18.8 -7,0.77 -15.54,-1.93 -18,5.85 -0.14,6.56 5.37,11.67 15,10.79 15.11,-4.12 15.42,-18.94 25.56,-29.08 -0.45,-6.73 -3.86,-10.34 0.91,-16.1 4.4,-6.56 15.76,-6.56 18.8,-19.88"
       id="path119260"
       style="stroke-width:1.75764" />
    <path
       d="m 566.66,233.68 c -10.82,-6.82 -21.7,-13.55 -32.55,-20.34 -8.09,10.45 -11,19.65 -15,30.42 -2.84,6.11 -5.06,5.25 -8.8,-2 -3.74,-7.25 -5.06,-8 -9.15,-10.28 h -14.51 a 7.1,7.1 0 0 0 0,2.64 c 0,4.43 0,11.36 10.71,14.77 4.06,0.31 5.85,-0.82 8,1.48 3.86,4.54 2.64,16.56 10.2,16.61 6.9,-0.57 11.36,-7.07 18.49,-16.5 -1.68,4 -2.41,7.24 -6.31,10.28 5.25,22.72 11.36,26 18.92,37.86 5.85,9.88 12.89,17.72 13.12,34.34 0.6,8.52 -2.41,14.77 -1.33,24.51 0.45,4.88 1.48,15.08 9.83,20.79 7.21,6.42 18.72,2.84 26.84,7.58 2.84,2.24 4.74,10 3.32,17.32 a 3.72,3.72 0 0 1 -3.55,3.78 c -8,-1.16 -14.2,0.51 -15.42,5.85 -0.43,5 13.32,10.45 18.49,9.32 5.17,-1.13 9.26,-9.88 10.31,-16 V 385.8 c -0.71,-12.72 -17.21,-6 -14,-27.35 2.39,-9.32 1.45,-13.8 -1.59,-22.15 0,-11.93 1,-22.72 -6.19,-33.51 -10.68,-22.15 -25.56,-42.6 -19.88,-69.13"
       id="path119262"
       style="stroke-width:1.75764" />
    <path
       d="m 508.86,407 c -0.65,-1 -1.48,-1 -2.58,-0.26 a 8.12,8.12 0 0 0 0.94,6.73 c 0.36,-2.68 2.04,-4.92 1.64,-6.47 z"
       fill="#ffffff"
       id="path119264"
       style="stroke-width:2.19771" />
    <path
       d="m 508.86,407 c -0.65,-1 -1.48,-1 -2.58,-0.26 a 8.12,8.12 0 0 0 0.94,6.73 c 0.36,-2.68 2.04,-4.92 1.64,-6.47 z"
       fill="none"
       stroke="#000000"
       stroke-miterlimit="22.93"
       stroke-width="1.08973"
       id="path119266" />
    <path
       d="m 505.14,406.82 a 1.59,1.59 0 0 0 -2.84,-0.57 c -0.91,2.84 0.74,4.43 1.65,6.48 -0.4,-3.61 0.79,-3.16 1.19,-5.91 z"
       fill="#ffffff"
       id="path119268"
       style="stroke-width:2.19771" />
    <path
       d="m 505.14,406.82 a 1.59,1.59 0 0 0 -2.84,-0.57 c -0.91,2.84 0.74,4.43 1.65,6.48 -0.4,-3.61 0.79,-3.16 1.19,-5.91 z"
       fill="none"
       stroke="#000000"
       stroke-miterlimit="22.93"
       stroke-width="1.08973"
       id="path119270" />
    <path
       d="m 501.51,404.32 c 0,-1 -2.27,-1.79 -2.7,-0.45 -0.85,2.84 1,4.17 1.82,6.22 -0.77,-3.53 0.76,-3.22 0.88,-5.77 z"
       fill="#ffffff"
       id="path119272"
       style="stroke-width:2.19771" />
    <path
       d="m 501.51,404.32 c 0,-1 -2.27,-1.79 -2.7,-0.45 -0.85,2.84 1,4.17 1.82,6.22 -0.77,-3.53 0.76,-3.22 0.88,-5.77 z"
       fill="none"
       stroke="#000000"
       stroke-miterlimit="22.93"
       stroke-width="1.08973"
       id="path119274" />
    <path
       d="m 498.75,401.42 c 0,-1 -1.28,-2.3 -2.19,-0.4 -1.05,2.56 0.91,3.86 1.68,5.68 -1.24,-3.86 0.96,-3.7 0.51,-5.28 z"
       fill="#ffffff"
       id="path119276"
       style="stroke-width:2.19771" />
    <path
       d="m 498.75,401.42 c 0,-1 -1.28,-2.3 -2.19,-0.4 -1.05,2.56 0.91,3.86 1.68,5.68 -1.24,-3.86 0.96,-3.7 0.51,-5.28 z"
       fill="none"
       stroke="#000000"
       stroke-miterlimit="22.93"
       stroke-width="1.08973"
       id="path119278" />
    <path
       d="m 591.31,419.65 a 1.79,1.79 0 0 0 -2.51,-0.28 l -0.1,0.08 a 5.42,5.42 0 0 0 1,5.34 c 0.3,-2.18 1.95,-3.92 1.61,-5.14 z"
       fill="#ffffff"
       id="path119280"
       style="stroke-width:2.19771" />
    <path
       d="m 591.31,419.65 a 1.79,1.79 0 0 0 -2.51,-0.28 l -0.1,0.08 a 5.42,5.42 0 0 0 1,5.34 c 0.3,-2.18 1.95,-3.92 1.61,-5.14 z"
       fill="none"
       stroke="#000000"
       stroke-miterlimit="22.93"
       stroke-width="1.08973"
       id="path119282" />
    <path
       d="m 587.56,419.45 a 1.79,1.79 0 0 0 -3,-0.45 c -0.85,2.3 0.77,3.61 1.68,5.2 -0.3,-2.87 0.95,-2.5 1.32,-4.75 z"
       fill="#ffffff"
       id="path119284"
       style="stroke-width:2.19771" />
    <path
       d="m 587.56,419.45 a 1.79,1.79 0 0 0 -3,-0.45 c -0.85,2.3 0.77,3.61 1.68,5.2 -0.3,-2.87 0.95,-2.5 1.32,-4.75 z"
       fill="none"
       stroke="#000000"
       stroke-miterlimit="22.93"
       stroke-width="1.08973"
       id="path119286" />
    <path
       d="m 584,417.5 c 0,-0.77 -2.27,-1.42 -2.7,-0.4 -0.82,2.39 1,3.41 1.82,5 -0.9,-2.84 0.72,-2.65 0.88,-4.6 z"
       fill="#ffffff"
       id="path119288"
       style="stroke-width:2.19771" />
    <path
       d="m 584,417.5 c 0,-0.77 -2.27,-1.42 -2.7,-0.4 -0.82,2.39 1,3.41 1.82,5 -0.9,-2.84 0.72,-2.65 0.88,-4.6 z"
       fill="none"
       stroke="#000000"
       stroke-miterlimit="22.93"
       stroke-width="1.08973"
       id="path119290" />
    <path
       d="m 581.14,415.17 a 1.11,1.11 0 0 0 -2.13,-0.26 c -1,2 0.94,3 1.7,4.54 -1.33,-3.15 0.94,-3.01 0.43,-4.28 z"
       fill="#ffffff"
       id="path119292"
       style="stroke-width:2.19771" />
    <path
       d="m 581.14,415.17 a 1.11,1.11 0 0 0 -2.13,-0.26 c -1,2 0.94,3 1.7,4.54 -1.33,-3.15 0.94,-3.01 0.43,-4.28 z"
       fill="none"
       stroke="#000000"
       stroke-miterlimit="22.93"
       stroke-width="1.08973"
       id="path119294" />
    <path
       d="m 486.17,229.76 a 5,5 0 0 0 2.22,5.68 c 0.34,2 -1.22,3.21 -2.19,1.68 a 8.8,8.8 0 0 1 -0.03,-7.36 z"
       fill="#ffffff"
       id="path119296"
       style="stroke-width:2.19771" />
    <path
       d="m 486.17,229.76 a 5,5 0 0 0 2.22,5.68 c 0.34,2 -1.22,3.21 -2.19,1.68 a 8.8,8.8 0 0 1 -0.03,-7.36 z"
       fill="none"
       stroke="#000000"
       stroke-miterlimit="22.93"
       stroke-width="1.08973"
       id="path119298" />
    <path
       d="m 488,230.53 c -0.62,3.61 0.43,3.72 2.22,5.2 0.23,1.87 -1.56,3 -2.53,1.53 a 6.42,6.42 0 0 1 0.31,-6.73 z"
       fill="#ffffff"
       id="path119300"
       style="stroke-width:2.19771" />
    <path
       d="m 488,230.53 c -0.62,3.61 0.43,3.72 2.22,5.2 0.23,1.87 -1.56,3 -2.53,1.53 a 6.42,6.42 0 0 1 0.31,-6.73 z"
       fill="none"
       stroke="#000000"
       stroke-miterlimit="22.93"
       stroke-width="1.08973"
       id="path119302" />
  </g>
</svg>
