<?xml version="1.0" encoding="UTF-8" standalone="no"?>
<svg
   xml:space="preserve"
   width="512"
   height="512"
   version="1.1"
   style="clip-rule:evenodd;fill-rule:evenodd;image-rendering:optimizeQuality;shape-rendering:geometricPrecision;text-rendering:geometricPrecision"
   viewBox="0 0 12288 12288"
   id="svg192794"
   sodipodi:docname="ru-rya-1x1.svg"
   inkscape:version="1.2.2 (b0a84865, 2022-12-01)"
   xmlns:inkscape="http://www.inkscape.org/namespaces/inkscape"
   xmlns:sodipodi="http://sodipodi.sourceforge.net/DTD/sodipodi-0.dtd"
   xmlns="http://www.w3.org/2000/svg"
   xmlns:svg="http://www.w3.org/2000/svg"><sodipodi:namedview
   id="namedview192796"
   pagecolor="#ffffff"
   bordercolor="#666666"
   borderopacity="1.0"
   inkscape:showpageshadow="2"
   inkscape:pageopacity="0.0"
   inkscape:pagecheckerboard="0"
   inkscape:deskcolor="#d1d1d1"
   showgrid="false"
   inkscape:zoom="1.1699219"
   inkscape:cx="256"
   inkscape:cy="256"
   inkscape:window-width="1440"
   inkscape:window-height="819"
   inkscape:window-x="0"
   inkscape:window-y="25"
   inkscape:window-maximized="0"
   inkscape:current-layer="svg192794" />
 <defs
   id="defs192728">
  <style
   type="text/css"
   id="style192726">
   <![CDATA[
    .fil4 {fill:#00923F}
    .fil3 {fill:#4C4840}
    .fil7 {fill:#70614E}
    .fil5 {fill:#AA2C2A}
    .fil0 {fill:#DA251D}
    .fil6 {fill:#F5C491}
    .fil1 {fill:#F8C300}
    .fil2 {fill:white}
   ]]>
  </style>
 </defs>
  
  
  <g
   id="g196706"
   transform="scale(0.18962963,0.28444444)"
   style="stroke-width:4.30573"><rect
     class="fil0"
     width="64800"
     height="43200"
     id="rect192730"
     x="0"
     y="0"
     style="stroke-width:4.30573" /><rect
     class="fil1"
     width="64800"
     height="32400"
     id="rect192732"
     x="0"
     y="0"
     style="stroke-width:4.30573" /><rect
     class="fil2"
     width="64800"
     height="10800"
     id="rect192734"
     x="0"
     y="0"
     style="stroke-width:4.30573" /></g>
  <g
   id="g194818"
   transform="matrix(0.28444444,0,0,0.28444444,-3072,0)"
   style="stroke-width:3.51562"><rect
     class="fil2"
     width="21600"
     height="21600"
     id="rect192734-7"
     x="21600"
     y="10800"
     style="clip-rule:evenodd;fill:none;fill-rule:evenodd;stroke-width:3.51562;image-rendering:optimizeQuality;shape-rendering:geometricPrecision;text-rendering:geometricPrecision" /><g
     id="g192792"
     transform="matrix(1.8,0,0,1.8,0,8.1238847)"
     style="stroke-width:1.95313">
   <path
   class="fil3"
   d="m 17350,7266 1119,-5 c 81,0 121,70 121,149 v 0 c 0,79 -36,125 -148,112 -441,-51 -747,-35 -1092,32 -80,16 -148,-65 -148,-144 v 0 c 0,-79 66,-143 148,-144 z"
   id="path192736"
   style="stroke-width:1.95313" />
   <path
   class="fil4"
   d="m 17899,6611 c 316,0 574,278 574,618 0,11 0,21 -1,32 -1,0 -2,0 -3,0 l -1119,5 c -9,0 -17,1 -25,2 0,-13 -1,-26 -1,-39 0,-340 258,-618 575,-618 z"
   id="path192738"
   style="stroke-width:1.95313" />
   <path
   class="fil3"
   d="m 19015,11617 c 144,82 288,170 432,305 -5,135 -62,206 -172,211 -87,-132 -239,-212 -392,-290 44,-75 88,-150 132,-226 z"
   id="path192740"
   style="stroke-width:1.95313" />
   <path
   class="fil4"
   d="m 19248,14023 -121,552 c 11,260 86,592 -188,645 -130,-19 -116,-53 -226,5 -61,17 -125,51 -197,0 -89,-23 -113,-18 -151,23 -206,49 -315,-106 -282,-401 l -121,-725 c 429,-8 857,-39 1286,-99 z"
   id="path192742"
   style="stroke-width:1.95313" />
   <path
   class="fil4"
   d="m 16593,14076 178,800 c -32,249 24,390 208,397 86,-34 120,-53 231,4 60,18 100,18 172,-33 89,-23 138,-13 175,28 291,34 354,-122 263,-406 l 108,-743 c -445,7 -890,-10 -1335,-47 z"
   id="path192744"
   style="stroke-width:1.95313" />
   <path
   class="fil5"
   d="m 19857,14296 v 496 l 65,74 -1,-5 13,12 49,33 325,133 13,9 c -13,12 -27,22 -42,32 -85,54 -182,85 -280,108 -69,14 -137,24 -207,31 -49,15 -98,30 -146,46 -142,48 -281,105 -422,157 -57,22 -114,41 -172,58 13,-108 22,-219 25,-336 105,-125 58,-368 50,-569 l 118,-542 c 4,-4 8,-7 12,-11 120,-17 240,-36 359,-57 7,46 18,92 37,135 7,14 14,27 22,40 21,30 43,53 72,75 z m -1646,944 c 10,113 20,226 30,338 -81,1 -163,-1 -244,-4 l -10,1 v -2 c -26,1 -53,1 -80,1 -51,0 -102,0 -153,-1 l 30,-334 c 89,-60 95,-190 36,-373 l 108,-743 c 12,0 23,-1 34,-1 l 121,725 c -23,209 25,348 128,393 z m -1306,21 c 3,83 8,165 14,248 -12,-3 -25,-6 -37,-9 -197,-54 -383,-132 -564,-226 -27,-14 -54,-29 -81,-43 -166,-20 -334,-46 -490,-111 -55,-25 -104,-53 -151,-93 -3,-3 -6,-5 -9,-9 -5,-7 6,-26 10,-32 64,-32 129,-59 197,-82 80,-27 161,-50 242,-76 l 31,-17 25,-19 21,-24 16,-29 9,-32 v -8 l 6,12 v -446 l 194,-75 c 18,-16 36,-32 53,-49 23,-25 41,-49 58,-77 48,4 96,9 144,12 l 178,800 c -27,212 9,346 134,385 z m 2665,-1561 v 0 c 1,-1 2,-1 2,-1 0,0 -1,0 -2,1 z m 5,-1 c 1,0 1,0 1,0 0,0 0,0 -1,0 z m 6,-1 c 0,0 1,0 1,0 0,0 -1,0 -1,0 z m 2,0 c 11,-1 22,-3 33,-4 l 3,-597 -163,-109 z m 39,-1002 5,-928 -188,146 c 3,3 5,5 8,8 -4,113 -44,180 -121,203 l -16,44 64,357 z m -636,-2040 106,457 116,-285 -175,-133 c -15,-13 -31,-26 -47,-39 z m -2272,392 c 0,0 0,0 0,0 l -346,206 -45,25 74,1195 c 8,-38 17,-76 25,-114 99,-454 200,-906 345,-1291 0,0 0,0 0,0 -13,-1 -26,-4 -40,-7 -4,-5 -9,-10 -13,-14 z"
   id="path192746"
   style="stroke-width:1.95313" />
   <path
   class="fil0"
   d="m 19077,15144 c -12,432 -102,785 -188,1210 -26,80 1,217 3,298 65,60 116,120 165,179 34,48 107,85 167,130 114,45 204,109 233,194 58,126 57,186 -47,216 -278,57 -405,-2 -603,-104 -70,-33 -202,-94 -272,-127 -144,2 -176,-31 -161,-172 26,-96 -13,-318 1,-410 -90,-421 -124,-871 -164,-1318 42,19 94,22 154,8 38,-41 62,-46 151,-23 72,51 136,17 197,-1 110,-57 96,-23 226,-4 62,-12 107,-39 138,-76 z m -2172,117 c 18,488 90,970 203,1459 -65,60 -116,119 -166,179 -178,91 -342,184 -408,292 -96,96 -80,168 47,216 278,57 490,-16 688,-118 70,-33 140,-66 210,-99 144,2 238,-41 223,-181 -43,-79 -54,-179 -50,-289 l 132,-1481 c -49,33 -124,45 -227,33 -37,-41 -86,-51 -175,-28 -72,51 -112,51 -172,33 -111,-57 -145,-38 -231,-4 -27,-1 -52,-5 -74,-12 z"
   id="path192748"
   style="stroke-width:1.95313" />
   <path
   class="fil2"
   d="m 17313,10170 -75,29 -1237,-3272 -299,-363 9,454 1208,3301 h 11 l -100,38 c 0,-83 -53,-113 -159,-90 -92,55 -64,152 9,201 31,14 69,14 113,1 206,-78 411,-157 616,-235 48,76 119,90 184,10 28,-110 -45,-158 -136,-135 z"
   id="path192750"
   style="stroke-width:1.95313" />
   <path
   class="fil6"
   d="m 17327,10324 c -183,55 -360,115 -542,171 -36,191 33,399 159,420 0,2 0,5 -1,7 76,20 157,32 238,24 88,-42 176,-66 264,-108 45,-43 6,-78 3,-106 47,-56 41,-98 -6,-91 -34,-16 -37,-39 -8,-71 32,-69 17,-98 -45,-87 -27,-12 -29,-32 -9,-59 14,-89 -4,-122 -53,-100 z"
   id="path192752"
   style="stroke-width:1.95313" />
   <path
   class="fil1"
   d="m 18057,6987 c -16,0 -30,14 -30,31 0,17 14,31 30,31 17,0 31,-14 31,-31 0,-17 -14,-31 -31,-31 z m -147,-33 c 61,3 88,48 100,111 66,-2 111,38 125,85 -42,-4 -67,-5 -86,14 -15,19 -16,40 7,37 25,18 27,42 21,62 l -333,2 c -7,-21 -5,-46 20,-64 23,3 22,-18 7,-37 -18,-19 -43,-18 -85,-14 13,-47 59,-87 124,-85 12,-63 39,-108 100,-111 z m -147,33 c 17,0 31,14 31,31 0,17 -14,31 -31,31 -17,0 -31,-14 -31,-31 0,-17 14,-31 31,-31 z"
   id="path192754"
   style="stroke-width:1.95313" />
   <path
   class="fil0"
   d="m 16457,9057 c -379,449 -854,1319 -875,1556 -42,165 -47,392 -45,625 -73,1250 -49,2378 -70,3675 2,-3 4,-7 6,-10 l 20,-31 c 53,-28 106,-53 161,-75 95,-37 193,-66 290,-96 12,-3 26,-6 37,-13 l -253,-223 c -40,-69 -33,-120 1,-161 1,-812 1,-1624 2,-2437 1,-228 1,-456 1,-684 l -4,-88 2,-128 9,-101 c 5,-32 10,-64 17,-95 6,-30 14,-58 22,-87 l 17,-49 c 8,-20 16,-39 25,-58 l 10,-40 45,45 -10,15 -18,41 c -8,20 -15,40 -21,60 -10,34 -19,67 -26,101 -5,31 -10,61 -14,92 -3,33 -6,66 -8,98 -1,35 -1,70 -1,105 1,29 3,58 5,87 -1,1012 -3,2024 -4,3035 v 44 c 17,-12 36,-23 57,-34 l 428,-168 c 35,-32 75,-77 75,-127 l -198,-3186 c 3,-27 7,-52 12,-78 9,-38 21,-71 38,-106 11,-20 22,-37 35,-54 118,-137 255,-106 405,-92 -29,-49 -24,-109 41,-148 100,-22 153,4 159,77 26,-17 53,-33 79,-50 z m 728,1002 c 33,-34 64,-69 95,-106 57,-69 109,-140 158,-215 35,-55 68,-111 99,-168 44,-84 83,-169 119,-256 28,-71 54,-142 77,-214 -296,-4 -609,-17 -928,-46 z"
   id="path192756"
   style="stroke-width:1.95313" />
   <path
   class="fil2"
   d="m 17480,10864 c 8,20 13,42 13,65 0,90 -74,164 -164,164 -68,0 -126,-42 -151,-101 z"
   id="path192758"
   style="stroke-width:1.95313" />
   <polygon
   class="fil3"
   points="15794,6846 15829,6832 17079,10261 17045,10274 "
   id="polygon192760"
   style="stroke-width:1.95313" />
   <circle
   class="fil0"
   cx="17910"
   cy="7184"
   r="50"
   id="circle192762"
   style="stroke-width:1.95313" />
   <path
   class="fil7"
   d="m 17375,7549 c -8,13 -16,25 -23,37 3,49 -19,98 -64,147 -32,83 -10,129 66,138 -33,113 -9,183 54,223 -30,86 -25,183 17,293 18,33 36,66 54,99 -119,195 -47,212 52,213 17,49 40,96 106,59 69,-9 139,-18 208,-27 45,-38 84,-40 118,-6 103,41 195,40 275,-4 27,-7 54,-14 81,-21 44,8 38,-44 76,-51 29,-5 70,-13 71,-48 -50,-46 -89,-94 -42,-153 -4,-36 -8,-72 -13,-108 8,-12 16,-24 24,-36 44,-45 77,-92 24,-150 -54,-59 -55,-117 -1,-176 49,-34 85,-69 37,-114 -28,-12 -32,-42 -12,-91 63,-21 79,-60 46,-118 -32,-45 -63,-89 -95,-134 -56,-6 -109,-11 -161,-16 54,116 71,297 31,440 -25,88 -74,150 -173,154 l -85,-67 -63,-11 6,-30 20,-58 c -12,-79 -38,-160 -20,-227 l 65,7 h 2 c -2,4 -3,9 -3,14 0,24 20,44 44,44 25,0 44,-20 44,-44 0,-4 0,-8 -1,-12 v 0 l 60,-11 1,-16 c -36,-15 -84,-16 -134,-16 -24,-15 -14,-31 7,-39 45,-16 90,-17 135,-3 37,7 46,0 25,-22 -86,-18 -196,-44 -292,31 -11,89 -5,195 15,277 6,36 -4,55 -30,59 h -118 l 3,42 -205,90 c -132,-165 -167,-403 -64,-585 -56,7 -111,17 -168,27 z m 194,107 c -30,-2 -37,2 -23,-21 66,-41 133,-48 230,-29 23,15 45,37 33,66 -19,38 -19,45 -45,60 -2,0 -18,10 -20,10 -4,20 -22,35 -43,35 -24,0 -44,-20 -44,-44 -22,-1 -44,-1 -66,2 -14,-7 -14,-19 1,-34 43,-15 103,-15 161,-15 18,-13 18,-26 0,-39 -37,-13 -113,-25 -184,9 z m 466,507 c -66,-55 -181,-60 -275,5 -28,27 -15,49 10,64 100,20 182,13 255,-5 50,-15 53,-36 10,-64 z"
   id="path192764"
   style="stroke-width:1.95313" />
   <path
   class="fil6"
   d="m 17543,7522 c -103,182 -68,420 64,585 l 205,-90 -3,-42 h 118 c 26,-4 36,-23 30,-59 -20,-82 -26,-188 -15,-277 96,-75 206,-49 292,-31 21,22 12,29 -25,22 -45,-14 -90,-13 -135,3 -21,8 -31,24 -7,39 50,0 98,1 134,16 l -1,16 -59,11 h -1 c 1,4 1,8 1,12 0,24 -19,44 -44,44 -24,0 -44,-20 -44,-44 0,-5 1,-10 3,-14 h -2 l -65,-7 c -18,67 8,148 20,227 l -20,58 -6,30 63,11 85,67 c 99,-4 148,-66 173,-154 40,-143 23,-324 -31,-440 -276,-22 -502,-15 -730,17 z m 26,134 c -30,-2 -37,2 -23,-21 66,-41 133,-48 230,-29 23,15 45,37 33,66 -19,38 -19,45 -45,60 -2,0 -18,10 -20,10 -4,20 -22,35 -43,35 -24,0 -44,-20 -44,-44 -22,-1 -44,-1 -66,2 -14,-7 -14,-19 1,-34 43,-15 103,-15 161,-15 18,-13 18,-26 0,-40 -37,-12 -113,-24 -184,10 z m 466,507 c -66,-55 -181,-60 -275,5 -28,27 -15,49 10,64 100,20 182,13 255,-5 50,-15 53,-37 10,-64 z"
   id="path192766"
   style="stroke-width:1.95313" />
   <path
   class="fil3"
   d="m 21862,14229 -2651,-1814 c 0,2 -1,4 -2,6 -42,62 -93,114 -156,146 -36,55 -58,85 -77,101 l 2719,1811 c 92,45 159,51 204,33 98,-40 84,-194 -37,-283 z m -3154,-2159 -13,-9 -60,84 c -12,-16 -31,-27 -53,-27 -35,0 -64,29 -64,64 0,30 20,54 47,62 l -72,102 v 1 l 39,26 c 59,-95 117,-191 176,-286 0,-6 0,-11 0,-17 z m -72,372 37,25 c 12,-19 24,-39 36,-58 0,-32 -17,-38 -37,-18 -12,18 -24,34 -36,51 z m 118,79 33,21 c 11,-17 22,-34 35,-51 9,-35 2,-45 -30,-28 -13,19 -25,38 -38,58 z m 101,67 35,23 c 12,-20 24,-40 40,-61 -2,-27 -6,-34 -27,-20 -17,19 -32,38 -48,58 z"
   id="path192768"
   style="stroke-width:1.95313" />
   <path
   class="fil4"
   d="m 16820,10459 -31,18 c -1,6 -3,12 -4,18 0,0 0,0 0,0 182,-56 359,-116 542,-171 49,-22 67,12 53,100 -21,27 -18,47 9,59 62,-11 77,18 45,87 -29,32 -26,55 8,71 47,-7 53,35 6,91 3,28 42,63 -3,106 -88,42 -176,66 -264,108 -81,8 -162,-4 -238,-24 0,0 0,0 0,0 -3,79 -67,157 -176,147 -158,417 -262,914 -370,1406 l 81,1301 c 1023,78 2059,49 3105,-78 l -127,-710 -480,-320 c 19,-16 41,-46 77,-101 63,-32 114,-84 156,-146 1,-2 2,-4 2,-6 l 163,111 -64,-357 16,-44 c -15,4 -32,7 -51,8 -87,-132 -239,-212 -392,-290 44,-75 88,-150 132,-226 142,81 283,167 424,297 l 188,-146 3,-389 c -2,-44 -9,-85 -22,-128 l -9,-26 c -35,-88 -91,-156 -160,-219 l -27,-22 -204,-156 -117,285 -105,-457 c -35,-30 -70,-60 -105,-91 -48,-44 -94,-90 -140,-136 l -130,-143 -157,-200 -140,-209 c -44,-72 -86,-144 -127,-217 -69,-129 -133,-260 -194,-393 -24,-55 -48,-110 -71,-165 -11,0 -23,0 -34,0 -24,76 -49,152 -78,227 -37,93 -77,184 -122,274 -33,61 -67,121 -103,181 -51,81 -106,158 -165,233 -48,59 -98,116 -152,170 l 45,-17 144,-61 c 91,-23 164,25 136,135 -65,80 -136,66 -184,-10 -196,75 -393,150 -589,225 z m 1888,1611 -14,-9 -59,84 c -12,-16 -31,-27 -53,-27 -35,0 -64,29 -64,64 0,30 20,54 47,62 l -72,102 v 1 l 39,26 c 59,-95 117,-191 176,-286 0,-6 0,-11 0,-17 z m -72,372 37,25 c 12,-19 24,-39 36,-58 0,-32 -17,-38 -37,-18 -12,18 -24,34 -36,51 z m 118,79 33,21 c 11,-17 22,-34 35,-51 9,-35 2,-45 -30,-28 -13,19 -25,38 -38,58 z m 101,67 35,23 c 12,-20 24,-40 40,-61 -2,-27 -6,-34 -27,-20 -17,19 -33,39 -48,58 z m -1911,-1672 c 0,1 0,1 0,1 0,0 0,0 0,-1 z m 0,2 c 0,0 0,1 0,1 0,0 0,-1 0,-1 z m 0,1 c 0,0 0,1 0,1 0,0 0,-1 0,-1 z m 0,1 c 0,0 0,0 0,1 0,-1 0,-1 0,-1 z m -1,1 c 0,0 0,0 0,1 0,-1 0,-1 0,-1 z m -620,360 391,-233 c -142,-153 -177,-345 -127,-514 -73,-8 -150,-7 -214,36 -26,20 -43,42 -57,72 -6,14 -11,27 -15,41 -5,22 -9,43 -11,65 z"
   id="path192770"
   style="stroke-width:1.95313" />
   <path
   class="fil0"
   d="m 18084,9102 c 31,72 63,144 96,215 53,110 108,218 167,325 50,87 103,173 159,257 45,67 92,132 142,196 51,64 103,125 158,186 42,45 85,89 130,132 46,43 92,84 140,125 l 50,40 395,303 c 41,35 77,71 112,112 16,20 31,40 45,62 38,59 64,119 82,187 11,45 16,87 18,133 l -8,1422 325,223 c -29,-526 -59,-1052 -88,-1578 l -18,-316 -9,-81 -14,-81 -19,-82 -25,-81 -23,-61 -44,-102 c -10,-21 -21,-41 -31,-62 l -57,-99 -22,-23 58,-29 7,26 10,18 c 21,35 40,70 59,105 17,35 33,70 49,105 9,21 17,42 25,64 13,34 25,69 36,105 7,28 15,56 21,85 6,28 12,56 16,84 4,28 8,56 10,85 l 14,232 c 32,574 65,1147 97,1721 l 168,116 -25,-312 c -15,-730 -60,-1476 -136,-2237 -242,-714 -524,-1201 -854,-1633 -23,16 -63,27 -117,37 -252,25 -479,49 -731,74 -117,1 -240,2 -368,2 z m 1684,4094 -4,529 c -6,77 -9,153 1,229 9,53 23,106 68,139 l 337,249 c -17,-305 -34,-609 -51,-913 z m 402,268 c 17,308 35,616 52,924 l 1,5 56,62 12,26 4,25 v 23 l -11,41 c -8,18 -17,34 -29,50 l -26,30 c -31,31 -64,56 -100,80 l -65,48 317,130 c 23,17 46,32 69,51 l 15,17 -116,-1393 z"
   id="path192772"
   style="stroke-width:1.95313" />
   <path
   class="fil3"
   d="m 16478,13776 c 1034,79 2080,48 3138,-82 l 3,-597 149,99 -4,529 c -6,77 -9,153 1,229 9,53 23,106 68,139 l 337,249 c -17,-305 -34,-609 -51,-913 l 51,35 c 17,308 35,616 52,924 l 1,5 56,62 12,27 4,24 v 23 l -11,41 c -8,18 -17,34 -29,50 l -26,30 c -31,31 -64,56 -100,80 l -65,48 317,130 c 23,17 46,32 69,51 l 20,24 16,36 1,41 -15,42 -28,34 c -45,45 -94,78 -151,107 -69,34 -139,58 -213,78 -85,21 -171,36 -259,45 -123,37 -244,80 -364,126 -118,45 -235,92 -356,129 -24,6 -48,13 -71,19 8,-53 15,-106 22,-160 58,-17 115,-36 172,-58 141,-52 280,-109 422,-157 48,-16 97,-31 146,-46 70,-7 138,-17 207,-31 98,-23 195,-54 281,-108 14,-10 28,-20 41,-32 l -13,-9 -325,-133 -49,-33 -13,-12 1,5 -65,-73 v -497 l -110,-81 c -29,-22 -51,-45 -72,-75 -8,-13 -15,-26 -22,-40 -19,-43 -30,-89 -37,-135 -1055,187 -2111,195 -3167,99 -17,28 -35,52 -57,77 -18,17 -36,33 -54,49 l -194,75 v 446 l -6,-12 v 8 l -9,32 -16,29 -21,24 -25,19 -31,17 c -80,26 -162,49 -242,76 -68,24 -133,50 -197,82 -4,6 -15,25 -10,32 3,4 6,6 9,9 47,40 96,68 151,93 156,65 324,91 490,111 27,14 54,29 81,43 181,94 367,172 564,226 12,3 25,6 37,9 4,52 8,105 13,157 0,0 -1,-1 -1,-1 -260,-58 -507,-163 -740,-290 -178,-21 -359,-54 -524,-128 -20,-10 -40,-20 -60,-31 -47,-27 -92,-58 -130,-97 -16,-20 -25,-36 -34,-60 -4,-19 -6,-35 -6,-54 2,-19 6,-35 12,-53 7,-17 14,-33 24,-49 l 20,-31 c 40,-21 79,-40 120,-58 14,-5 27,-11 41,-17 95,-37 193,-66 290,-95 12,-4 26,-7 37,-14 l -253,-223 c -40,-69 -33,-120 1,-161 1,-812 1,-1624 3,-2437 0,-228 0,-456 0,-684 l -4,-88 2,-128 9,-101 c 5,-32 10,-64 17,-95 6,-30 14,-58 22,-87 l 17,-49 c 8,-20 16,-39 25,-58 l 10,-40 45,45 -10,15 -18,41 c -8,20 -15,40 -21,60 -10,34 -19,67 -26,101 -5,31 -10,61 -14,92 -3,33 -6,66 -8,99 -1,34 -1,69 -1,104 1,29 3,58 5,87 -1,1012 -3,2024 -4,3035 v 44 c 17,-12 36,-23 57,-34 l 428,-168 c 35,-32 75,-77 75,-127 l -198,-3186 c 3,-27 7,-52 12,-78 9,-38 21,-71 38,-106 11,-19 22,-37 35,-54 118,-137 255,-106 405,-91 12,20 29,38 50,52 31,13 68,14 111,2 -49,197 22,423 153,445 0,91 -80,183 -217,147 -153,-156 -192,-354 -140,-528 -73,-8 -150,-7 -214,36 -26,20 -42,42 -57,72 -6,14 -11,27 -15,41 -5,22 -9,43 -11,65 z m 3144,-1080 8,-1317 c -2,-44 -9,-85 -22,-128 l -9,-26 c -35,-88 -90,-156 -160,-219 l -27,-22 -379,-289 c -51,-42 -102,-85 -152,-130 -48,-44 -94,-90 -140,-136 l -130,-143 -157,-200 -140,-209 c -44,-72 -86,-144 -127,-217 -69,-129 -133,-260 -194,-393 -24,-55 -48,-110 -71,-165 -11,0 -23,0 -34,0 -24,76 -49,152 -78,227 -37,93 -77,184 -122,274 -33,61 -67,121 -103,181 -51,81 -106,158 -165,233 -48,59 -98,116 -152,170 l -30,12 -53,-140 c 33,-34 64,-69 95,-106 57,-69 109,-140 158,-215 35,-55 68,-111 99,-168 44,-84 83,-169 119,-256 28,-71 54,-142 77,-214 -296,-4 -609,-17 -928,-46 l -113,-299 c 228,-150 467,-278 723,-373 3,0 6,0 8,0 1,2 2,3 2,5 18,33 36,66 54,99 -119,195 -47,212 52,213 17,49 40,96 106,59 69,-9 139,-18 208,-27 45,-38 84,-40 118,-6 103,41 195,40 275,-4 27,-7 54,-14 81,-21 44,8 38,-44 76,-51 29,-5 70,-13 71,-48 -50,-46 -89,-94 -42,-153 -3,-22 -5,-44 -8,-66 3,0 6,0 9,0 336,106 592,301 849,487 92,93 52,132 -91,157 -252,25 -479,49 -731,74 -117,1 -240,2 -368,2 31,72 63,144 96,215 53,110 108,218 167,325 50,87 103,173 159,257 45,67 92,132 142,196 51,64 103,125 158,186 42,45 85,89 130,132 46,43 92,84 140,125 l 50,40 395,303 c 41,35 77,71 112,112 16,20 31,40 45,62 38,59 64,119 82,187 11,45 16,87 18,133 l -8,1422 z m 473,324 c -29,-526 -59,-1052 -88,-1578 l -18,-316 -9,-81 -14,-81 -19,-82 -25,-81 -23,-61 -44,-102 c -10,-21 -21,-41 -31,-62 l -57,-99 -22,-23 58,-29 7,27 10,17 c 21,35 40,70 59,105 17,35 34,70 49,105 9,21 17,42 25,64 13,34 25,69 36,105 7,28 15,56 21,85 6,28 12,56 16,84 4,28 8,56 10,85 l 14,232 c 32,574 65,1147 97,1721 z m -1840,2707 c -87,1 -174,-1 -261,-4 l -7,-3 v 2 c -70,1 -140,1 -210,0 -12,0 -24,0 -36,-1 l 13,-148 c 51,1 102,1 153,1 27,0 54,0 80,-1 v 2 l 10,-1 c 81,3 163,5 244,4 5,50 9,100 14,149 z"
   id="path192774"
   style="stroke-width:1.95313" />
   <path
   class="fil6"
   d="m 18938,11871 c -21,15 -41,32 -59,53 -105,-42 -178,-32 -222,28 38,35 54,80 51,135 -63,102 -126,205 -188,307 9,72 46,78 96,78 19,-28 37,-53 56,-81 20,-20 37,-14 37,18 -22,35 -43,69 -65,104 7,37 41,48 78,55 24,-35 47,-70 70,-105 32,-17 39,-7 30,28 -24,32 -43,65 -67,97 1,34 32,40 64,43 29,-34 54,-67 84,-101 21,-14 25,-7 27,20 -27,36 -42,68 -69,103 11,27 39,38 61,33 46,0 64,-16 131,-119 63,-32 114,-84 156,-146 26,-76 30,-141 4,-217 13,-35 25,-70 37,-105 -77,-97 -192,-165 -312,-228 z"
   id="path192776"
   style="stroke-width:1.95313" />
   <path
   class="fil1"
   d="m 18698,12056 -176,-126 -204,294 172,127 75,-107 c -27,-8 -47,-32 -47,-62 0,-35 29,-64 64,-64 22,0 41,11 53,27 z"
   id="path192778"
   style="stroke-width:1.95313" />
   <path
   class="fil1"
   d="m 21663,14123 c -12,13 -18,33 -13,67 53,82 55,131 -65,109 -41,-2 -69,5 -77,26 l 199,132 c 15,8 30,14 46,20 13,5 27,9 41,13 12,3 23,5 35,6 10,0 20,1 30,0 8,-1 16,-3 24,-5 l 6,-2 14,-7 10,-9 9,-9 7,-12 5,-13 4,-15 1,-15 -1,-17 -3,-18 -6,-19 -8,-18 -10,-19 -12,-18 -15,-18 -17,-17 -20,-16 z m -654,-448 -24,35 c -49,-14 -95,-7 -116,23 -20,30 -12,75 19,116 l -30,43 101,67 24,-36 c 59,26 117,21 141,-14 25,-35 8,-90 -36,-136 l 21,-29 z m -771,-528 -31,44 c -49,-14 -95,-6 -116,24 -20,30 -11,74 19,115 l -31,43 101,68 26,-36 c 58,25 116,21 141,-14 24,-36 8,-91 -36,-136 l 27,-39 z m -764,-523 -34,48 c -49,-14 -94,-7 -115,23 -21,30 -12,75 18,116 l -34,49 100,67 30,-42 c 58,26 117,21 141,-14 24,-35 8,-90 -36,-136 l 30,-42 z m 350,356 c 29,0 52,23 52,52 0,28 -23,51 -52,51 -28,0 -52,-23 -52,-51 0,-29 24,-52 52,-52 z m 788,529 c 28,0 52,23 52,52 0,28 -24,51 -52,51 -29,0 -52,-23 -52,-51 0,-29 23,-52 52,-52 z m 728,493 c 28,0 52,24 52,52 0,29 -24,52 -52,52 -28,0 -52,-23 -52,-52 0,-28 24,-52 52,-52 z"
   id="path192780"
   style="stroke-width:1.95313" />
   <path
   class="fil0"
   d="m 21766,14289 c 28,0 51,23 51,51 0,29 -23,52 -51,52 -29,0 -52,-23 -52,-52 0,-28 23,-51 52,-51 z m -772,-521 c 28,0 52,23 52,51 0,29 -24,52 -52,52 -29,0 -52,-23 -52,-52 0,-28 23,-51 52,-51 z m -780,-526 c 29,0 52,24 52,52 0,29 -23,52 -52,52 -28,0 -52,-23 -52,-52 0,-28 24,-52 52,-52 z m -756,-521 c 29,0 52,24 52,52 0,28 -23,52 -52,52 -28,0 -51,-24 -51,-52 0,-28 23,-52 51,-52 z"
   id="path192782"
   style="stroke-width:1.95313" />
   <path
   class="fil0"
   d="m 19875,14309 v 451 l 13,-7 2,-9 20,-32 23,-22 129,-94 c 29,-20 58,-42 79,-72 l -54,-59 z m -3749,323 v -359 l -228,88 c -12,7 -24,14 -35,24 -16,20 -12,36 -1,50 l 251,172 z"
   id="path192784"
   style="stroke-width:1.95313" />
   <ellipse
   class="fil1"
   cx="17911"
   cy="8934"
   rx="118"
   ry="143"
   id="ellipse192786"
   style="stroke-width:1.95313" />
   <polygon
   class="fil3"
   points="17920,9077 17914,9100 17914,13858 17920,13880 17869,13880 17874,13858 17874,9100 17869,9077 "
   id="polygon192788"
   style="stroke-width:1.95313" />
   <path
   class="fil1"
   d="m 18051,9446 h 26 c 21,42 42,84 63,125 h -89 c -33,0 -61,-28 -61,-62 v 0 c 0,-35 28,-63 61,-63 z m -291,2 c 26,8 44,32 44,61 v 0 c 0,34 -27,62 -60,62 h -41 c 20,-40 39,-81 57,-123 z m 291,379 h 191 c 23,39 46,78 70,117 -9,5 -19,8 -29,8 h -232 c -33,0 -61,-28 -61,-62 v 0 c 0,-35 28,-63 61,-63 z m -450,0 h 143 c 33,0 60,28 60,63 v 0 c 0,34 -27,62 -60,62 h -224 c 22,-32 44,-64 65,-98 6,-9 11,-18 16,-27 z m 296,-3 c 36,0 66,30 66,66 0,36 -30,65 -66,65 -36,0 -65,-29 -65,-65 0,-36 29,-66 65,-66 z m 0,-381 c 36,0 66,30 66,66 0,36 -30,65 -66,65 -36,0 -65,-29 -65,-65 0,-36 29,-66 65,-66 z m -605,835 c 3,21 19,38 38,44 15,-6 27,-6 36,-1 21,-8 35,-28 35,-51 0,-11 -3,-21 -9,-30 -33,13 -67,26 -100,38 z m -32,49 c 4,5 7,9 10,14 -19,6 -38,12 -56,18 13,-15 29,-25 46,-32 z m 1189,-112 c 30,0 55,24 55,55 0,30 -25,55 -55,55 -31,0 -55,-25 -55,-55 0,-31 24,-55 55,-55 z m 85,112 c -38,47 -45,113 -31,183 45,17 96,19 132,-26 -10,-83 -50,-137 -101,-157 z m -480,-82 h 232 c 33,0 60,29 60,63 v 0 c 0,34 -27,63 -60,63 h -232 c -33,0 -60,-29 -60,-63 v 0 c 0,-34 27,-63 60,-63 z m -463,0 h 156 c 33,0 61,29 61,63 v 0 c 0,34 -28,63 -61,63 h -232 c -33,0 -60,-29 -60,-63 v 0 c 0,-8 1,-16 4,-23 41,24 88,14 132,-40 z m 310,-2 c 36,0 65,29 65,65 0,36 -29,65 -65,65 -36,0 -66,-29 -66,-65 0,-36 30,-65 66,-65 z m -555,894 c -30,0 -55,25 -55,55 0,31 25,55 55,55 30,0 55,-24 55,-55 0,-30 -25,-55 -55,-55 z m -86,113 c 38,47 45,113 32,183 -45,17 -97,19 -132,-26 10,-83 50,-137 100,-157 z m 1189,-113 c 30,0 55,25 55,55 0,31 -25,55 -55,55 -31,0 -55,-24 -55,-55 0,-30 24,-55 55,-55 z m 85,113 c -38,47 -45,113 -31,183 45,17 96,19 132,-26 -10,-83 -50,-137 -101,-157 z m -1188,349 c -30,0 -55,25 -55,55 0,30 25,55 55,55 30,0 55,-25 55,-55 0,-30 -25,-55 -55,-55 z m -86,113 c 38,47 45,112 32,182 -45,18 -97,20 -132,-26 10,-83 50,-137 100,-156 z m 1189,-113 c 30,0 55,25 55,55 0,30 -25,55 -55,55 -31,0 -55,-25 -55,-55 0,-30 24,-55 55,-55 z m 85,113 c -38,47 -45,112 -31,182 45,18 96,20 132,-26 -10,-83 -50,-137 -101,-156 z m -480,-544 h 232 c 33,0 60,28 60,63 v 0 c 0,34 -27,62 -60,62 h -232 c -33,0 -60,-28 -60,-62 v 0 c 0,-35 27,-63 60,-63 z m -539,0 h 232 c 33,0 61,28 61,63 v 0 c 0,34 -28,62 -61,62 h -232 c -33,0 -60,-28 -60,-62 v 0 c 0,-35 27,-63 60,-63 z m -169,892 c -30,0 -55,25 -55,55 0,31 25,55 55,55 30,0 55,-24 55,-55 0,-30 -25,-55 -55,-55 z m -86,113 c 38,47 45,113 32,182 -45,18 -97,20 -132,-25 10,-83 50,-137 100,-157 z m 1189,-1497 c 30,0 55,25 55,55 0,30 -25,55 -55,55 -31,0 -55,-25 -55,-55 0,-30 24,-55 55,-55 z m 85,113 c -38,47 -45,112 -31,182 45,18 96,20 132,-26 -10,-83 -50,-137 -101,-156 z m -480,-82 h 232 c 33,0 60,28 60,62 v 0 c 0,35 -27,63 -60,63 h -232 c -33,0 -60,-28 -60,-63 v 0 c 0,-34 27,-62 60,-62 z m -539,0 h 232 c 33,0 61,28 61,62 v 0 c 0,35 -28,63 -61,63 h -232 c -33,0 -60,-28 -60,-63 v 0 c 0,-34 27,-62 60,-62 z m 539,923 h 232 c 33,0 60,28 60,62 v 0 c 0,35 -27,63 -60,63 h -232 c -33,0 -60,-28 -60,-63 v 0 c 0,-34 27,-62 60,-62 z m -539,0 h 232 c 33,0 61,28 61,62 v 0 c 0,35 -28,63 -61,63 h -232 c -33,0 -60,-28 -60,-63 v 0 c 0,-34 27,-62 60,-62 z m -169,892 c -30,0 -55,25 -55,55 0,30 25,55 55,55 30,0 55,-25 55,-55 0,-30 -25,-55 -55,-55 z m -86,113 c 38,47 45,112 32,182 -45,18 -97,20 -132,-26 10,-83 50,-137 100,-156 z m 1189,-113 c 30,0 55,25 55,55 0,30 -25,55 -55,55 -31,0 -55,-25 -55,-55 0,-30 24,-55 55,-55 z m 85,113 c -38,47 -45,112 -31,182 45,18 96,20 132,-26 -10,-83 -50,-137 -101,-156 z m -633,-1469 c 36,0 65,29 65,65 0,36 -29,65 -65,65 -36,0 -66,-29 -66,-65 0,-36 30,-65 66,-65 z m 0,-462 c 36,0 65,29 65,65 0,36 -29,66 -65,66 -36,0 -66,-30 -66,-66 0,-36 30,-65 66,-65 z m 153,1387 h 232 c 33,0 60,28 60,63 v 0 c 0,34 -27,62 -60,62 h -232 c -33,0 -60,-28 -60,-62 v 0 c 0,-35 27,-63 60,-63 z m -539,0 h 232 c 33,0 61,28 61,63 v 0 c 0,34 -28,62 -61,62 h -232 c -33,0 -60,-28 -60,-62 v 0 c 0,-35 27,-63 60,-63 z m -169,892 c -30,0 -55,25 -55,55 0,31 25,55 55,55 30,0 55,-24 55,-55 0,-30 -25,-55 -55,-55 z m -86,113 c 38,47 45,113 32,182 -45,18 -97,20 -132,-25 10,-83 50,-137 100,-157 z m 1189,-113 c 30,0 55,25 55,55 0,31 -25,55 -55,55 -31,0 -55,-24 -55,-55 0,-30 24,-55 55,-55 z m 85,113 c -38,47 -45,113 -31,182 45,18 96,20 132,-25 -10,-83 -50,-137 -101,-157 z m -633,-1469 c 36,0 65,29 65,65 0,36 -29,66 -65,66 -36,0 -66,-30 -66,-66 0,-36 30,-65 66,-65 z m 153,926 h 232 c 33,0 60,28 60,62 v 0 c 0,35 -27,63 -60,63 h -232 c -33,0 -60,-28 -60,-63 v 0 c 0,-34 27,-62 60,-62 z m -539,0 h 232 c 33,0 61,28 61,62 v 0 c 0,35 -28,63 -61,63 h -232 c -33,0 -60,-28 -60,-63 v 0 c 0,-34 27,-62 60,-62 z m 386,-465 c 36,0 65,30 65,66 0,36 -29,65 -65,65 -36,0 -66,-29 -66,-65 0,-36 30,-66 66,-66 z m 153,926 h 232 c 33,0 60,28 60,63 v 0 c 0,34 -27,62 -60,62 h -232 c -33,0 -60,-28 -60,-62 v 0 c 0,-35 27,-63 60,-63 z m -539,0 h 232 c 33,0 61,28 61,63 v 0 c 0,34 -28,62 -61,62 h -232 c -33,0 -60,-28 -60,-62 v 0 c 0,-35 27,-63 60,-63 z m 386,-464 c 36,0 65,29 65,65 0,36 -29,66 -65,66 -36,0 -66,-30 -66,-66 0,-36 30,-65 66,-65 z m 0,461 c 36,0 65,30 65,66 0,36 -29,65 -65,65 -36,0 -66,-29 -66,-65 0,-36 30,-66 66,-66 z"
   id="path192790"
   style="stroke-width:1.95313" />
  </g></g>
</svg>
