<?xml version="1.0" encoding="UTF-8" standalone="no"?>
<svg
   xml:space="preserve"
   width="512"
   height="512"
   viewBox="0 0 512 512"
   version="1.1"
   id="svg197477"
   sodipodi:docname="ru-sak-1x1.svg"
   inkscape:version="1.2.2 (b0a84865, 2022-12-01)"
   xmlns:inkscape="http://www.inkscape.org/namespaces/inkscape"
   xmlns:sodipodi="http://sodipodi.sourceforge.net/DTD/sodipodi-0.dtd"
   xmlns="http://www.w3.org/2000/svg"
   xmlns:svg="http://www.w3.org/2000/svg"><defs
   id="defs197481" /><sodipodi:namedview
   id="namedview197479"
   pagecolor="#ffffff"
   bordercolor="#666666"
   borderopacity="1.0"
   inkscape:showpageshadow="2"
   inkscape:pageopacity="0.0"
   inkscape:pagecheckerboard="0"
   inkscape:deskcolor="#d1d1d1"
   showgrid="false"
   inkscape:zoom="1.1699219"
   inkscape:cx="256"
   inkscape:cy="256"
   inkscape:window-width="1440"
   inkscape:window-height="819"
   inkscape:window-x="0"
   inkscape:window-y="25"
   inkscape:window-maximized="0"
   inkscape:current-layer="svg197477" />
<rect
   width="512"
   height="512"
   fill="#47a5ae"
   id="rect197473"
   x="0"
   y="0"
   style="stroke-width:0.999996" />
<path
   fill="#ffffff"
   d="m 249.43207,447.14552 c -0.51268,-1.19626 -1.87987,-1.36715 -1.87987,-0.34179 0,0.68358 0.51269,1.19626 1.02537,1.19626 0.68358,0 1.02536,-0.34179 0.8545,-0.85447 z m -2.22165,-1.19626 c 0.51268,-0.85447 -0.34182,-2.56341 -1.36719,-2.56341 -1.19623,0 -1.70891,0.85447 -1.19623,2.22162 0.51268,1.02537 1.87984,1.36716 2.56342,0.34179 z m 4.95593,-0.34179 c 0.68357,-0.85447 0.68357,-1.19626 0,-2.05076 -1.36716,-1.19623 -3.24696,-0.51268 -3.24696,1.0254 0,1.02536 0.68354,1.87984 2.05073,2.05073 0.17086,0 0.85444,-0.51268 1.19623,-1.02537 z m 2.05073,-4.44325 c 0,-1.53804 -1.02537,-2.39251 -2.56341,-2.05073 -0.85448,0.1709 -1.36716,0.85445 -1.36716,1.53805 0,1.02537 0.34179,1.36713 1.87984,1.36713 1.19626,0 2.05073,-0.34176 2.05073,-0.85445 z m -23.41254,-5.12682 c 0,-4.44328 0,-4.61415 3.0761,-8.03206 2.73431,-2.9052 3.07609,-3.7597 3.07609,-6.15219 0,-1.70897 0.51269,-3.24702 1.02537,-3.7597 0.68358,-0.34179 1.53805,-1.70894 2.05073,-2.9052 0.51268,-1.36716 1.19626,-2.22163 1.70894,-2.22163 0.51268,-0.17089 1.87987,-1.02539 3.0761,-2.05076 1.36718,-1.02536 2.73433,-2.05073 3.24702,-2.05073 0.51268,0 0.8545,-0.17086 0.8545,-0.51268 0,-0.34176 1.02536,-0.85444 2.22159,-1.02537 1.70894,-0.34176 2.39255,-0.85444 2.73431,-2.22162 0.68361,-2.56341 -0.51268,-3.0761 -3.75967,-1.87984 -3.24702,1.19629 -5.46862,1.36716 -7.00667,0.51268 -0.68357,-0.34176 -1.53807,-0.51268 -1.87986,-0.17089 -0.85444,0.51268 -2.90517,4.61417 -2.90517,5.63954 0,0.34179 -0.8545,2.39252 -1.70897,4.61414 -2.56339,5.98133 -2.73431,6.32309 -3.58878,9.74097 -0.51266,2.05076 -1.70895,4.10149 -3.24699,5.63954 -1.36719,1.36715 -2.73431,3.24702 -3.0761,4.27238 -0.17089,0.85445 -0.68358,1.87981 -1.02536,2.39249 -0.8545,1.02537 0,2.73434 1.36715,2.73434 0.68358,0 1.53805,0.51268 2.05073,1.02537 1.53805,1.8798 1.87986,1.02536 1.70894,-3.58878 z m 37.0841,-10.08279 c 0.8545,-0.85447 1.53808,-1.70897 1.53808,-2.22165 0,-0.51269 0.17087,-0.85445 0.51268,-0.85445 0.34176,0 0.85445,-0.8545 1.19623,-1.70897 0.68361,-1.19626 0.68361,-1.53804 -0.17086,-1.8798 -1.70897,-0.68361 -2.05073,-0.51269 -5.12686,2.22159 -1.70891,1.36718 -3.24699,2.56342 -3.75967,2.73431 -1.02539,0.34179 -0.17089,2.22165 1.53805,3.0761 1.53808,0.6836 2.05076,0.51268 4.27235,-1.36713 z m -85.78906,-1.70897 c 0,-0.68358 0.51268,-1.53805 1.02536,-2.05073 0.51268,-0.34176 1.19629,-2.22163 1.70897,-3.93057 0.68358,-3.07609 0.8545,-4.95593 0.68358,-15.5514 0,-3.24699 0.17092,-7.34845 0.6836,-9.22829 0.68355,-3.07612 1.02537,-3.58881 3.58878,-4.78504 l 2.73431,-1.36718 4.10146,2.22163 c 4.61414,2.22165 5.9813,2.39252 11.44991,0.51268 3.75971,-1.19626 4.44328,-0.85444 4.44328,2.56341 0,2.05073 1.87984,7.00669 2.73428,7.00669 0.17092,0 0.8545,1.02537 1.36718,2.22166 0.51269,1.19623 1.36716,3.07609 2.05073,4.44322 1.19629,1.87986 1.53805,2.05073 2.22166,1.02536 0.34176,-0.51268 0.68355,-2.7343 0.51268,-5.63951 -0.17092,-2.56341 0,-5.29772 0.34176,-5.8104 0.51268,-0.85447 0.17092,-2.39252 -0.85444,-5.12683 -0.8545,-2.22165 -2.05073,-5.29775 -2.73434,-7.00669 -1.53805,-4.27235 -4.61414,-6.66487 -7.34845,-5.98132 -2.73434,0.8545 -7.51937,-0.68355 -10.08279,-3.24697 -1.87983,-1.70894 -5.98132,-9.22831 -5.98132,-10.93728 -0.17087,-1.70892 -8.20293,-8.8865 -14.69694,-12.98796 -2.90517,-1.70895 -7.34845,-11.9626 -8.20292,-18.62753 -0.17089,-1.02536 -0.51268,-3.58878 -1.02536,-5.46859 -0.34179,-1.87986 -0.68358,-5.29775 -0.85447,-7.51937 -0.1709,-2.39252 -0.51269,-4.95596 -0.85448,-5.8104 -0.34178,-1.02537 -0.51268,-2.22166 -0.17089,-2.73434 0.34179,-0.51268 0.68358,-2.56341 1.02537,-4.44322 0.17089,-2.05073 0.85447,-4.6142 1.36715,-5.81043 1.19629,-2.73431 1.19629,-5.46865 0.17089,-12.30442 -0.68357,-5.46861 -0.68357,-5.6395 0.68358,-7.00666 0.68358,-0.8545 1.70894,-1.36718 2.05073,-1.36718 0.34182,0 1.70894,-0.85447 2.90523,-1.70894 1.19623,-0.85447 2.56341,-1.70894 2.90517,-1.70894 0.34182,0 0.8545,-0.1709 0.8545,-0.51269 0.17087,-0.17089 2.39252,-1.02536 4.95594,-1.87983 7.17758,-2.05073 12.13351,-1.36716 16.74766,2.9052 0.85447,0.68357 3.93057,2.73431 6.83577,4.27238 3.24699,1.87984 7.17758,4.78504 9.5701,7.17756 2.22163,2.39252 4.27236,3.93057 4.44328,3.7597 0.34176,-0.17092 -0.17092,-1.70897 -0.8545,-3.41791 -0.85447,-1.70894 -1.53805,-3.24699 -1.53805,-3.75968 0,-1.87983 -2.22159,-4.44325 -4.78506,-5.12685 -5.2977,-1.53805 -8.8865,-4.44325 -11.1081,-8.8865 -2.90523,-5.9813 -6.49401,-11.79173 -8.37387,-14.01335 -1.02537,-1.02537 -2.2216,-2.90521 -2.73428,-3.93057 -0.51268,-1.02537 -1.19626,-2.05074 -1.36718,-2.22163 -1.53805,-1.53806 -7.17756,-9.05741 -8.20293,-11.27904 -0.8545,-1.36716 -2.7343,-4.10147 -4.27235,-5.81042 -4.95596,-5.81041 -5.98133,-7.17757 -6.32312,-9.05741 -0.34176,-1.19626 -0.85444,-2.39252 -1.19626,-3.0761 -0.51268,-0.51268 -1.53804,-2.73431 -2.39252,-4.95594 -0.85447,-2.05073 -2.39251,-5.12684 -3.41788,-6.66489 -2.56341,-3.75968 -3.93057,-7.00667 -3.93057,-9.3992 0,-2.22162 -2.39254,-5.46862 -3.93059,-5.12683 -0.68358,0 -1.87981,-0.51269 -2.73428,-1.19626 l -1.70894,-1.19627 1.19623,-1.87983 c 1.53805,-1.87984 1.53805,-1.53806 -1.70892,-7.17757 -1.19628,-2.05074 -3.07609,-3.93058 -4.10146,-3.93058 -0.34181,0 -0.8545,0.85448 -1.02542,1.70895 -0.34176,3.24699 -1.87981,2.73431 -1.70891,-0.51269 0.17086,-3.93057 -1.53805,-7.51935 -4.61418,-9.57009 -1.70891,-1.19626 -2.73428,-2.73431 -3.41788,-4.44326 -1.36713,-4.10147 -1.87981,-7.69025 -1.19626,-7.86115 0.34182,0 -0.51268,-3.0761 -1.87984,-6.66488 -2.05073,-6.1522 -2.22162,-6.66489 -1.36715,-8.54473 0.85447,-1.53805 1.02537,-1.70895 1.36715,-0.85447 0.1709,0.68358 0.1709,1.53805 -0.17089,2.22163 -0.51268,1.02537 -0.17089,4.10147 0.51268,4.10147 0.8545,0 2.90523,-7.00668 2.56342,-8.71562 -0.68355,-3.75968 -2.2216,-7.69026 -4.10147,-10.76636 -1.19626,-1.87984 -2.39252,-4.10147 -2.56341,-5.12683 -0.51268,-2.05074 -1.70894,-1.87984 -1.70894,0.34178 0,2.05074 -1.02537,1.19627 -4.95595,-4.27236 -4.27235,-6.1522 -5.12683,-8.03204 -3.07609,-8.71562 1.53805,-0.34179 2.22163,0.51269 2.9052,3.58878 0.51269,1.87985 5.29773,5.81042 5.63952,4.61416 0.1709,-0.51269 -0.68358,-2.22163 -1.87984,-4.10147 -1.02536,-1.70895 -2.05073,-3.75968 -2.05073,-4.44326 0,-1.53805 -3.247,-4.61415 -4.78505,-4.61415 -0.68358,0 -1.53805,-0.85447 -1.87984,-2.05074 -0.51268,-1.02536 -1.53805,-2.22162 -2.22163,-2.56341 -0.85447,-0.34179 -1.53805,-1.19626 -1.53805,-1.87984 0,-1.196262 -3.58878,-6.493994 -5.29773,-7.861151 -1.02537,-0.854474 -1.53805,-8.03204 -0.68358,-9.228305 1.53805,-1.879839 -4.27236,-11.44993 -7.00667,-11.44993 -0.51269,0 -1.36716,-0.854474 -1.70895,-1.708947 -1.02536,-2.050734 -2.734311,-1.87984 -3.076096,0.170894 -0.170897,0.854474 0.341785,2.050736 1.367156,3.076101 1.02536,1.025369 1.36715,1.708945 0.85447,1.708945 -0.51268,0 -1.19626,0.512683 -1.708944,1.025366 -0.512682,0.512685 -1.196265,0.683579 -1.538053,0.512685 -0.341789,-0.341788 -2.734311,-0.512685 -5.126835,-0.512685 l -4.443256,-0.170892 3.759676,3.588785 c 4.272364,4.101469 9.228302,7.51936 10.082782,7.006677 1.02536,-0.512686 1.87984,3.076099 1.70894,7.006674 -0.17089,4.955938 1.02537,6.493993 2.39253,3.246996 1.70894,-4.272364 3.58878,-3.759681 2.73431,0.683577 -0.51269,2.90521 -1.70895,3.75968 -3.58879,2.73431 -1.02536,-0.512679 -1.36715,-0.512679 -1.36715,0.34179 0,1.36716 0.34179,2.05074 0.68357,1.87984 0.1709,-0.17089 0.68358,0.51268 1.02537,1.53805 0.51269,0.85447 0.51269,1.53805 0.1709,1.53805 -0.1709,0 -0.34179,1.02537 -0.1709,2.39253 0.1709,2.39252 0,2.73431 -3.0761,4.61415 -1.70894,1.19626 -3.246994,2.05073 -3.417891,1.70894 -0.170894,-0.34178 -0.512682,-1.87983 -0.683576,-3.58878 -0.341792,-1.70894 -0.854474,-3.247 -1.025369,-3.247 -1.025365,0 -4.785046,2.22163 -4.785046,2.73431 0,0.1709 -1.025366,1.70895 -2.221631,3.0761 -2.73431,3.247 -2.73431,4.95595 0.341791,10.42457 3.246996,5.98131 5.29773,11.96262 5.29773,15.38051 0,2.73431 1.025368,7.86115 2.905207,14.52603 0.512686,1.53806 -0.68358,3.75968 -1.708945,3.07611 -0.341788,-0.1709 -0.512685,0.34178 -0.512685,1.19626 0,0.85447 -0.341786,1.87984 -0.683577,2.22163 -0.854471,0.85447 1.196262,5.63952 2.221627,5.29773 1.538055,-0.68358 2.221635,0.85447 2.905205,6.83578 1.19627,8.20294 1.36716,9.2283 2.39253,9.2283 1.87984,0 4.44325,3.247 4.78504,5.81042 0.1709,1.87983 0.85448,3.24699 3.58879,5.9813 1.87984,1.87985 3.75968,3.247 3.93057,3.07611 0.85448,-0.51269 3.247,0.34178 3.247,1.36715 0,0.34179 0.68358,1.19626 1.36715,1.87984 0.68359,0.68358 1.36716,1.02537 1.36716,0.85448 0,-0.3418 0.51269,-0.1709 1.19626,0.17089 0.68358,0.51268 1.19627,1.19626 0.85448,1.87984 -0.1709,1.36716 3.75968,7.86115 5.98131,9.3992 1.70894,1.19626 1.53804,2.73431 -0.51269,2.39252 -1.70894,-0.51268 -1.87984,-0.34179 -2.90521,8.03204 -0.85447,5.29773 -0.51268,6.3231 3.4179,14.69693 1.36715,2.73431 2.39251,5.29773 2.39251,5.81042 0,0.51268 0.85448,2.56341 2.05074,4.44325 1.02536,2.05074 2.05075,5.12684 2.39251,7.34847 0.17093,2.22162 1.02537,5.63951 1.87987,7.86113 3.0761,8.03206 4.44322,14.52604 4.61414,21.19094 0.34179,7.0067 0.51269,9.39919 1.53805,16.06406 0.85444,4.78507 0.51268,6.15225 -2.39255,9.22834 l -2.05073,2.22163 1.70895,1.36715 c 1.02536,0.85445 2.56341,1.87981 3.58877,2.22163 0.8545,0.51268 2.56342,2.39252 3.9306,4.95593 1.19629,2.22163 3.24702,5.12686 4.27238,6.15222 2.39249,2.39249 3.58878,4.44322 6.49396,11.27902 0.51268,1.19626 0.85447,5.63954 0.85447,12.30441 0,13.84246 1.70894,18.62753 9.05742,26.65953 2.73431,2.90523 2.73431,3.41791 1.53805,6.6649 -0.51269,1.19626 -0.85447,2.39252 -0.68358,2.56341 0.17089,0.1709 0,0.68358 -0.51268,1.36716 -0.68358,0.51268 -1.36716,2.73431 -1.53805,5.12683 -0.34179,2.22162 -0.68358,4.61417 -1.02539,5.12685 -0.51269,1.19623 0.51271,4.61414 2.05075,6.32311 1.53805,1.87981 3.0761,6.1522 4.61415,11.79171 1.19629,4.95593 2.22165,6.6649 3.41788,5.8104 0.34182,-0.17087 1.0254,0.8545 1.53808,2.05073 1.02536,2.56344 2.2216,3.24699 2.2216,1.19626 z m 84.7637,-29.39383 c 3.58881,-3.24702 4.44328,-4.78507 5.29772,-7.69024 0.68361,-2.05076 2.39255,-5.63954 3.7597,-8.03206 1.53805,-2.22163 2.73431,-4.78504 2.73431,-5.29772 0,-1.70897 1.87984,-3.24702 4.10146,-3.24702 2.5634,0 5.46863,-3.0761 8.88649,-9.05742 3.7597,-7.00667 4.78507,-8.20293 8.37385,-9.74097 3.5888,-1.53805 7.00666,-4.78504 7.17758,-6.83577 0,-1.02537 0,-5.29772 -0.17092,-6.15222 0,-0.34179 -0.85444,-0.51269 -1.87981,-0.51269 -2.73431,0 -7.86116,3.58878 -9.05742,6.15223 -0.51268,1.36715 -1.19626,2.56341 -1.53805,2.73427 -0.51268,0.17093 -0.51268,0.68361 -0.34179,1.02537 0.85447,1.36718 -3.07612,5.81043 -6.49398,7.34851 -1.70897,0.68355 -2.22165,0.51268 -3.93058,-0.8545 -2.90521,-2.05073 -4.10147,-1.19626 -4.10147,3.24699 0,2.56341 -0.34178,3.7597 -1.53804,4.95596 -0.85448,0.85447 -1.53805,2.05073 -1.53805,2.73428 0,1.02536 -0.34179,1.36718 -3.41791,2.05079 -1.19624,0.17086 -1.70892,0.68354 -1.36716,1.36712 0.51268,1.36716 -0.34176,3.93057 -2.05073,5.98133 -0.85444,1.02536 -1.87984,2.9052 -2.05073,3.93056 -0.34179,1.02537 -1.19626,2.39252 -1.87984,3.0761 -1.19626,0.85447 -1.19626,1.19626 -0.51268,2.73431 1.02537,2.39255 1.02537,2.73431 -0.85447,3.58878 -1.19626,0.51268 -1.53805,1.02536 -1.19626,1.87986 0.17089,1.02537 -0.17089,1.53805 -1.19626,1.70892 -0.85447,0.17089 -1.36715,0.85449 -1.36715,2.05075 0,1.70892 1.19626,4.95594 1.70894,4.95594 0.17089,0 2.22162,-1.70897 4.44325,-4.10146 z m 56.2243,-64.42727 c 2.2216,-1.53805 4.44325,-4.61414 4.44325,-6.15219 0,-0.68358 1.70894,-2.9052 3.9306,-5.12683 2.56341,-2.56341 3.93054,-4.61417 3.93054,-5.63953 0,-2.56342 1.53804,-5.81041 3.41791,-8.032 1.02536,-1.02537 2.05073,-2.73434 2.22162,-3.9306 0.34179,-1.02536 0.85448,-2.22165 1.19626,-2.73434 1.53805,-1.8798 -1.02536,-2.39249 -5.12682,-0.85444 -1.87984,0.68358 -2.39252,1.36713 -2.56342,4.27236 -0.17092,1.36715 -0.34178,2.56341 -0.51268,2.56341 -2.56341,1.87984 -4.27238,3.41789 -5.63951,5.46864 -1.36718,2.05074 -1.53805,3.0761 -1.36718,5.46862 l 0.34182,3.0761 -3.07616,1.36715 c -3.07609,1.36715 -3.24696,1.36715 -3.58878,4.95593 -0.17086,1.87987 -0.51268,4.27236 -0.85444,4.95596 -0.51268,1.87981 0.68358,2.05073 3.24699,0.34176 z m 24.95059,-45.28702 c 0,-1.36716 -0.85447,-1.70894 -2.05073,-1.02537 -0.68355,0.34179 -0.68355,0.68358 0,1.53805 0.8545,1.19626 2.05073,0.85447 2.05073,-0.51268 z m 1.19626,-3.24699 c 1.02536,-1.02537 -0.34176,-2.39255 -1.87981,-2.05073 -1.53805,0.51268 -1.70897,1.02536 -0.51268,2.05073 1.02536,1.02536 1.36712,1.02536 2.39249,0 z m -7.00667,-7.17759 c -0.34178,-1.36715 -3.07609,-1.70894 -3.75967,-0.51268 -0.85447,1.19626 0.85447,2.39252 2.56341,2.05073 1.19626,-0.17089 1.36716,-0.51268 1.19626,-1.53805 z m 27.85579,-12.98799 c 0.51271,-0.51268 1.36718,-2.22162 2.05076,-3.93056 0.68358,-1.70895 1.36715,-3.41789 1.70894,-3.75968 0.34179,-0.34179 0.51268,-1.36715 0.51268,-2.39252 0,-0.85448 0.85447,-3.07611 1.70895,-4.78505 1.87986,-3.41789 1.36718,-4.27236 -1.53805,-2.90521 -1.19626,0.51269 -1.87984,1.53805 -2.22166,3.07611 -0.51268,2.73431 -2.05073,7.00667 -2.7343,7.69025 -0.17087,0.34179 -0.51269,1.19626 -0.51269,1.87984 0,1.53804 -1.36715,3.24699 -3.41788,3.93056 -1.02537,0.34179 -1.19626,0.68358 -0.51268,1.36716 0.85447,1.02536 3.41788,1.02536 4.95593,-0.1709 z m 10.08279,-26.48864 c 0.51268,-0.34179 0.51268,-0.85447 -0.51269,-2.05073 -1.19623,-1.53806 -1.19623,-1.53806 -2.39251,-0.51268 -0.85448,0.85447 -0.85448,1.36715 -0.1709,2.22162 0.8545,1.02537 1.87987,1.19627 3.0761,0.34179 z m 4.61417,-10.76635 c 0.34179,-0.68358 -1.53805,-3.07611 -2.22163,-2.39253 -0.51268,0.51269 0.34176,3.247 1.19626,3.247 0.17087,0 0.68355,-0.34179 1.02537,-0.85447 z m -1.36718,-0.34179 c -0.17087,-0.1709 -0.34176,-0.68358 -0.34176,-1.02537 0,-0.51268 0.17089,-0.51268 0.68357,0 0.51269,0.51268 0.68355,1.02537 0.51269,1.19626 -0.1709,0.1709 -0.51269,0.1709 -0.8545,-0.17089 z m 3.58878,-9.05741 c 0,-2.39252 -0.85445,-4.10147 -1.87981,-3.41789 -0.85447,0.51268 -1.02537,5.81041 -0.34179,6.49399 0.85447,0.85447 2.2216,-1.02537 2.2216,-3.0761 z m 0.8545,-14.52603 c 0.17086,-0.51269 -0.1709,-1.36716 -0.8545,-2.05074 -2.2216,-2.05073 -4.10147,-0.68358 -1.87981,1.53805 1.53805,1.70894 2.22162,1.87984 2.73431,0.51269 z m -3.9306,-9.74099 c -0.51268,-0.34179 -1.36713,-0.51269 -2.22162,-0.1709 l -1.53805,0.51268 1.53805,0.85448 c 1.87986,0.85447 3.41791,0.17089 2.22162,-1.19626 z m 26.1469,-3.07611 c 0,-0.85447 -1.87986,-1.87984 -3.07612,-1.87984 -0.51269,0.1709 -0.85447,0.34179 -0.85447,0.68358 0,0.1709 0,1.02537 0,1.70895 0,0.68358 0.51268,1.36716 1.19625,1.53805 1.19626,0.17089 2.73434,-1.02537 2.73434,-2.05074 z m -13.5007,-11.44993 c 0.17092,-0.17089 -0.68358,-0.51268 -2.05073,-0.51268 -1.87981,0 -2.22162,0.34179 -1.53805,0.85447 0.68361,0.85447 2.9052,0.68358 3.58878,-0.34179 z m 0,-9.91188 c 0.34182,-1.19626 1.02537,-2.90521 1.53805,-3.58879 1.87986,-3.41789 0.17092,-5.46862 -2.73431,-3.24699 -0.85447,0.68358 -1.19623,1.70894 -1.19623,5.29773 0,4.78504 1.19623,5.63952 2.39249,1.53805 z m -4.61414,-5.12684 c 0.34179,-1.53805 0,-2.73431 -1.02537,-2.73431 -0.85444,0 -3.24699,2.73431 -2.90523,3.41789 0.68361,1.19626 3.41791,0.51268 3.9306,-0.68358 z m 23.07074,-4.10147 c 0.8545,-1.36715 -1.36712,-2.73431 -3.58877,-2.22162 -1.87981,0.34179 -2.56342,1.53805 -1.53805,2.56341 0.6836,0.68358 4.78506,0.51269 5.12682,-0.34179 z m -11.7917,-8.03204 c 1.02537,-1.19626 0.34179,-2.22163 -1.87983,-2.73431 -1.36716,-0.34179 -1.70897,-0.17089 -2.22166,1.02537 -0.68354,2.22163 2.22166,3.41789 4.10149,1.70894 z m -11.6208,-3.41789 c 0,-1.36716 -2.73434,-2.39252 -4.10152,-1.53805 -1.87981,0.85447 -0.68355,2.56342 1.87986,2.56342 1.53805,0 2.22166,-0.34179 2.22166,-1.02537 z m 13.67153,-6.49399 c 1.02537,-1.70895 1.02537,-2.05073 0,-5.12684 -0.85447,-2.22163 -1.19626,-4.10146 -0.85447,-5.63952 0.51269,-2.73431 -0.17089,-3.58878 -3.07609,-3.58878 -2.05073,0 -2.05073,0.17089 -1.19629,2.05073 0.51268,0.68358 0.51268,1.53805 0.34182,2.05074 -0.8545,1.36715 -1.02537,9.74098 -0.34182,11.10814 1.02536,1.87984 3.7597,1.53805 5.12685,-0.85447 z M 388.88197,126.5474 c 0,-0.51269 -0.51268,-1.53806 -1.02536,-2.39253 -1.02537,-1.19626 -1.36719,-1.36715 -2.05074,-0.51268 -0.68357,0.68358 -0.51268,1.19626 0.17087,2.39252 1.19629,1.53805 2.90523,1.87984 2.90523,0.51269 z m 19.31108,-19.48198 c 2.56341,0.17089 3.93059,-0.34179 3.75967,-1.53805 -0.1709,-1.02537 1.36715,-3.93058 4.10146,-8.032044 2.39255,-3.41789 2.56341,-5.126835 1.36718,-10.424568 -0.8545,-3.588784 -0.8545,-3.930572 0.17087,-4.785043 1.19629,-0.68358 1.19629,-1.025371 -0.68355,-4.785047 -1.19626,-2.221631 -2.90523,-4.443258 -3.75967,-5.126838 -1.70897,-1.025365 -1.70897,-1.025365 -2.05073,0 -0.34182,0.68358 -0.8545,2.392525 -1.36719,3.759681 -0.68354,1.87984 -0.68354,3.076099 -0.17086,4.272364 1.19623,3.076099 1.02536,8.886514 -0.17092,10.253671 -0.68358,0.683576 -1.53805,1.025365 -1.87984,0.854474 -0.34179,-0.170898 -2.05073,1.367153 -3.75967,3.588784 -1.70895,2.221625 -3.41789,3.930573 -3.75968,3.930573 -0.8545,0 0.34179,1.879843 1.53805,2.221633 0.68355,0.17089 1.36716,1.19626 1.70894,2.56341 0.68358,3.247 1.53805,4.78505 2.22163,3.93058 0.34179,-0.51269 1.53805,-0.85448 2.73431,-0.68358 z m -11.27902,-4.10147 c 0,-1.53805 -0.1709,-1.53805 -2.39255,-0.51268 -1.19626,0.68357 -1.36713,1.02536 -0.85447,1.36715 1.70894,1.02537 3.24702,0.51269 3.24702,-0.85447 z m 4.44322,-26.830439 c 0.34179,-2.050733 -1.70894,-3.588784 -3.75967,-3.246998 -2.56342,0.683579 -3.58878,2.050733 -2.73431,3.588787 0.8545,1.708945 6.15222,1.538051 6.49398,-0.341789 z m 20.67826,-1.879842 c 1.53804,-1.879839 1.70894,-2.734313 1.36715,-5.468623 -0.34179,-3.41789 -1.02537,-4.785047 -2.56341,-4.785047 -1.19629,0.170894 -4.27239,2.050733 -3.0761,2.050733 0.34176,0 -0.17092,0.512683 -1.02536,1.025369 -1.19629,1.025365 -1.36716,1.538048 -1.19629,3.759678 0.34181,2.050734 1.02536,3.246999 2.22165,4.272364 1.02537,0.854474 2.05073,1.538051 2.22163,1.538051 0.17086,0 1.19623,-1.19626 2.05073,-2.392525 z"
   id="path197475"
   style="stroke-width:0.999999" />
</svg>
