<?xml version="1.0" encoding="UTF-8" standalone="no"?>
<svg
   xml:space="preserve"
   width="512"
   height="512"
   x="0px"
   y="0px"
   viewBox="0 0 512 512"
   version="1.1"
   id="svg145470"
   sodipodi:docname="ru-yar-1x1.svg"
   inkscape:version="1.2.2 (b0a84865, 2022-12-01)"
   xmlns:inkscape="http://www.inkscape.org/namespaces/inkscape"
   xmlns:sodipodi="http://sodipodi.sourceforge.net/DTD/sodipodi-0.dtd"
   xmlns="http://www.w3.org/2000/svg"
   xmlns:svg="http://www.w3.org/2000/svg"><defs
     id="defs145474" /><sodipodi:namedview
     id="namedview145472"
     pagecolor="#ffffff"
     bordercolor="#666666"
     borderopacity="1.0"
     inkscape:showpageshadow="2"
     inkscape:pageopacity="0.0"
     inkscape:pagecheckerboard="0"
     inkscape:deskcolor="#d1d1d1"
     showgrid="false"
     inkscape:zoom="1.1699219"
     inkscape:cx="256"
     inkscape:cy="256"
     inkscape:window-width="1440"
     inkscape:window-height="819"
     inkscape:window-x="0"
     inkscape:window-y="25"
     inkscape:window-maximized="0"
     inkscape:current-layer="svg145470" /><rect
     style="fill:#ffcb00;fill-opacity:1;fill-rule:evenodd;stroke-width:0.999996"
     id="rect147416"
     width="512"
     height="512"
     x="0"
     y="0" /><g
     id="g147414"
     transform="matrix(0.67955831,0,0,0.67955831,-52.018981,50.197476)"
     style="stroke-width:1.47154"><path
       fill="#1d1d1b"
       fill-rule="evenodd"
       d="m 394.806,489.828 v 0.004 l 3.314,-3.814 1.667,12.777 2.958,-4.082 2.789,12.615 2.659,-4.451 c 0.977,3.619 3.931,10.859 1.016,12.076 -9.133,2.963 -21.225,7.701 -23.622,11.627 -4.874,0.98 -10.909,3.793 -12.328,7.768 3.24,-1.529 6.023,-2.34 9.646,-2.645 l 0.361,0.91 c -4.393,1.139 -8.389,4.164 -9.754,7.434 2.705,-1.023 7.393,-3.023 10.892,-3.244 l 0.66,0.986 c -4.338,1.377 -7.727,4.654 -9.057,7.49 3.654,-1.025 7.615,-3.182 11.598,-3.807 l 0.9,0.717 c -4.094,1.723 -6.239,3.738 -7.965,6.631 3.951,-0.992 7.505,-2.303 11.494,-2.957 0.521,0.352 3.822,0.063 4.535,-0.021 l 44.022,-5.152 c 2.657,-0.313 7.731,0.064 8.453,-4.553 0.449,-2.869 0.807,-5.459 0.804,-7.93 l -0.02,-28.557 3.507,4.732 0.009,-37.717 2.76,-7.711 c 3.402,14.004 7.854,23.457 14.385,37.959 l 0.066,0.174 0.021,-0.051 c 0.01,0.018 0.02,0.033 0.031,0.049 l 0.047,-0.234 2.125,-5.09 6.494,12.619 1.543,-5.58 7.943,11.869 0.75,-5.113 c 2.324,3.729 6.887,12.729 4.488,13.65 -8.014,3.086 -18.861,5.965 -24.615,12.932 -4.471,0.965 -9.871,3.785 -10.977,7.787 3.219,-1.531 5.629,-2.299 9.717,-2.955 0.092,0.309 0.188,0.617 0.283,0.926 -4.33,1.365 -8.404,4.242 -9.578,7.639 2.637,-1.17 7.191,-2.928 11.189,-3.365 0.125,0.277 0.25,0.553 0.383,0.828 -4.254,1.605 -7.982,4.523 -9.369,7.492 3.623,-1.014 7.912,-2.877 12.105,-3.523 0.191,0.285 0.635,0.566 0.838,0.852 -3.881,1.77 -6.494,3.152 -7.965,6.172 4.201,-1.225 8.75,-2.301 12.109,-2.928 1.613,0.336 4.188,0.322 5.463,0.15 l 45.518,-6.057 c 2.67,-0.354 6.012,-1.207 6.518,-5.086 0.332,-2.553 0.264,-5.488 -0.018,-8.646 l -3.35,-27.854 4.408,4.094 -7.137,-40.752 0.043,-45.891 5.9,4.742 0.775,-64.02 0.066,-23.045 c 0.016,-5.723 -0.457,-11.75 -3.213,-24.066 -1.168,-5.217 -5.23,-23.824 -7.885,-26.901 l -1.1,-33.424 4.588,1.731 -1.252,-14.739 4.219,1.873 -2.559,-14.637 4.439,1.548 -3.102,-14.446 4.639,1.2 -4.135,-13.763 5.215,1.441 c -3.596,-14.992 -8.922,-28.986 -15.195,-41.269 l 43.186,-31.136 c 0.936,0.63 2.137,0.689 3.02,0.051 l 0.469,-0.336 c 0.641,-0.461 0.988,-1.194 1.016,-1.976 l 2.334,-1.811 a 45.96,45.96 0 0 1 2.701,6.13 31.83,31.83 0 0 1 1.227,4.806 c 0.24,1.548 0.357,3.07 0.373,4.634 a 33.903,33.903 0 0 1 -0.32,4.537 28.177,28.177 0 0 1 -1.488,5.546 37.193,37.193 0 0 1 -0.75,1.731 37.804,37.804 0 0 1 -2.236,3.936 c -2.127,3.187 -3.271,4.463 -5.73,7.383 1.822,0.13 2.803,-0.023 4.533,-0.417 0.668,-0.15 1.697,-0.484 2.355,-0.771 a 33.592,33.592 0 0 0 3.701,-2.039 45.087,45.087 0 0 0 3.357,-2.455 37.436,37.436 0 0 0 3.172,-2.962 35.683,35.683 0 0 0 2.637,-3.264 35.784,35.784 0 0 0 2.43,-4.148 42.046,42.046 0 0 0 1.33,-3.162 42.668,42.668 0 0 0 1.334,-4.665 c 0.377,-1.812 0.646,-3.611 0.82,-5.458 a 44.398,44.398 0 0 0 -0.029,-7.099 60.064,60.064 0 0 0 -0.291,-2.341 45.832,45.832 0 0 0 -1.232,-5.393 50.775,50.775 0 0 0 -1.359,-3.778 c -0.379,-0.892 -0.771,-1.778 -1.17,-2.662 l 2.557,-1.983 c 0.947,0.689 2.201,0.773 3.113,0.116 l 0.469,-0.338 c 0.965,-0.696 1.264,-2.013 0.807,-3.179 l 0.617,-0.48 a 7.786,7.786 0 0 0 7.014,-1.064 7.796,7.796 0 0 0 3.141,-7.482 l 2.406,-2.181 c 2.047,0.014 4.092,0.152 6.119,0.475 1.611,0.273 3.156,0.64 4.746,1.044 l 27.588,-33.152 -40.184,15.673 -0.166,2.221 c -0.273,2.644 -0.799,5.182 -1.551,7.726 -0.09,0.279 -0.182,0.557 -0.273,0.833 l -2.84,1.595 c -2.518,-1.279 -5.646,-1.146 -8.088,0.612 a 7.782,7.782 0 0 0 -3.23,6.287 l -0.641,0.426 c -0.967,-0.878 -2.371,-1.048 -3.371,-0.328 l -0.469,0.337 c -0.941,0.68 -1.248,1.951 -0.838,3.095 l -1.129,0.749 a 184.403,184.403 0 0 1 -1.959,-4.349 37.968,37.968 0 0 1 -1.77,-5.327 39.978,39.978 0 0 1 -0.895,-5.486 c -0.191,-2.487 -0.184,-4.946 0.088,-7.432 l 0.281,-1.743 c 0.252,-1.179 0.553,-2.314 0.914,-3.467 a 41.76,41.76 0 0 1 1.35,-3.388 44.318,44.318 0 0 1 1.736,-3.254 43.077,43.077 0 0 1 2.645,-3.783 53.027,53.027 0 0 1 1.805,-2.077 40.517,40.517 0 0 1 3.303,-3.06 c 2.447,-1.914 6.803,-4.782 9.459,-5.734 l -3.244,-1.417 a 58.792,58.792 0 0 0 -23.58,-4.908 c -32.563,0 -58.973,26.409 -58.973,58.973 0,2.968 0.309,5.816 0.73,8.744 3.047,-2.949 5.914,-5.794 9.629,-7.914 a 33.979,33.979 0 0 1 6.242,-2.682 34.77,34.77 0 0 1 5.682,-1.194 37.377,37.377 0 0 1 8.438,-0.014 l 1.57,0.233 c 1.572,0.29 3.084,0.665 4.609,1.142 1.004,0.34 1.98,0.711 2.955,1.126 a 39.36,39.36 0 0 1 3.518,1.802 35.322,35.322 0 0 1 4.475,3.233 38.332,38.332 0 0 1 2.049,1.96 c 0.502,0.529 0.986,1.068 1.461,1.614 l -2.705,1.795 c -0.758,-0.232 -1.578,-0.14 -2.227,0.327 l -0.469,0.337 c -0.895,0.644 -1.215,1.82 -0.896,2.917 l -42.184,30.413 a 149.36,149.36 0 0 0 -7.779,-11.961 l 4.361,0.147 -6.865,-9.809 4.238,-0.19 -7.59,-7.563 4.213,-0.533 -7.969,-7.492 4.154,-0.873 c -7.688,-10.333 -18.254,-21.193 -25.184,-25.983 0.018,-0.01 0.031,-0.022 0.047,-0.033 0,0 3.227,-1.557 3.33,-4.068 0.104,-2.511 -3.1,-6.677 -6.59,-9.185 -3.646,-2.618 -7.326,-2.953 -9.139,-1.98 -1,0.537 -2.012,1.758 -2.871,3.21 -1.969,-1.357 -3.922,-2.56 -6.127,-3.477 l -0.396,-0.244 c -0.453,-0.169 -0.902,-0.3 -1.348,-0.401 A 23.88,23.88 0 0 0 450,73.083 62.124,62.124 0 0 0 443.896,72.714 c -9.228,-0.126 -20.028,1.438 -29.737,3.849 -3.452,0.858 -9.657,6.429 -9.75,6.43 l -24.494,1.827 c -5.462,-0.205 -3.442,5.539 -2.865,9.568 0.399,2.772 0.891,6 0.891,6 9.946,3.147 15.33,5.132 18.403,8.115 0.427,1.078 0.318,3.259 0.051,3.888 -2.464,-1.191 -9.224,-4.19 -15.266,-4.075 -0.652,0.076 0.207,3.187 1.021,6.181 0.635,1.979 3.582,4.107 7.345,7.157 9.39,7.609 13.504,21.207 15.166,28.054 l -0.002,0.039 0.01,-0.01 0.001,0.002 10e-4,-0.004 2.742,-2.667 0.583,9.802 2.394,-3.005 1.814,9.649 1.967,-3.152 3.977,8.937 10e-4,12.469 c -3.34,0.105 -6.671,0.137 -9.743,0.072 -8.213,-0.174 -12.548,-0.232 -18.273,-5.976 l -31.452,-31.545 c -2.252,-2.26 -5.939,-6.972 -12.039,-10.004 l -21.718,-10.798 c -4.887,-2.431 -10.399,-4.505 -15.989,-3.635 -5.526,-1.674 -10.888,-2.92 -13.671,-0.205 3.38,0.716 6.507,1.648 9.614,2.773 -0.396,0.39 -0.766,0.799 -1.107,1.221 -5.368,-0.236 -11.409,-0.895 -13.313,2.239 3.917,-0.168 7.501,0.507 11.334,1.176 -0.212,0.563 -0.376,1.14 -0.488,1.726 -4.75,0.196 -9.524,0.492 -10.923,3.357 3.631,-0.492 7.044,-0.224 10.641,0.072 a 45.596,45.596 0 0 0 -0.036,1.888 c -4.555,0.618 -9.016,1.395 -10.11,4.278 3.473,-0.799 6.803,-0.862 10.302,-0.896 0.09,0.694 0.213,1.333 0.375,1.911 -3.643,0.941 -6.816,2.174 -7.509,4.661 3.081,-1.014 6.1,-1.408 9.24,-1.738 0.043,0.033 0.086,0.066 0.131,0.097 12.299,8.625 21.561,26.342 32.667,30.979 l 3.197,4.651 -6.935,0.917 11.021,10.729 -6.328,1.114 11.467,10.248 -6.273,1.382 11.893,9.751 -6.209,1.649 12.783,9.6 -6.358,1.994 24.104,16.48 -34.396,8.471 c -13.329,3.283 -18.222,7.626 -22.403,13.362 l -19.565,26.833 c -5.073,6.957 -7.138,11.317 -7.652,17.484 a 5.896,5.896 0 0 0 -0.104,2.131 c -0.75,1.916 -1.434,3.816 -1.751,5.523 l -29.948,21.592 -0.589,0.625 -0.361,0.883 -0.077,0.852 0.096,0.779 0.208,0.729 0.29,0.688 0.772,1.289 0.979,1.139 0.563,0.492 0.626,0.428 0.711,0.338 0.831,0.193 0.948,-0.063 0.78,-0.361 30.088,-21.693 c 0.228,0.443 0.523,0.836 0.903,1.16 0.084,-0.695 0.195,-1.375 0.325,-2.045 l 3.847,-2.775 c -0.026,2.605 0.413,4.797 1.988,5.918 0.084,-2.881 0.612,-5.547 1.259,-8.26 l 2.006,-1.445 0.387,-0.025 c -0.117,4.449 -0.002,8.754 2.583,10.26 -0.23,-3.701 0.299,-7.121 0.861,-10.732 0.6,-0.123 1.214,-0.282 1.802,-0.486 0.286,4.648 0.715,9.258 3.548,10.574 -0.673,-4.346 -0.246,-8.396 10e-4,-12.825 8.619,-7.166 18.526,-12.062 25.881,-20.653 l 5.367,-1.316 -2.405,5.834 14.619,-4.08 -2.194,5.953 14.434,-4.69 -1.941,6.041 14.027,-5.221 -0.342,1.496 -1.142,4.518 20.284,-3.924 0.319,0.058 c -2.093,20.366 -3.32,38.335 -4.034,59.505 l 0.001,-0.002 3.972,-1.666 -2.706,11.467 3.756,-1.877 -1.654,11.727 3.405,-2.154 c 0.201,1.65 0.372,9.766 1.141,15.746 l -13.677,29.102 c -5.295,11.268 -7.548,29.756 -6.148,43.936 2.529,13.95 3.1,16.011 5.843,27.059 z"
       clip-rule="evenodd"
       id="path145458"
       style="stroke-width:0.494075" /><path
       fill="#ffffff"
       fill-rule="evenodd"
       d="m 577.744,159.65 c -2.719,2.215 -5.779,4.152 -9.152,5.208 5.115,-6.225 8.273,-12.095 8.516,-20.178 0.188,-6.275 -1.271,-11.173 -4.094,-16.75 a 48.265,48.265 0 0 0 -0.539,-1.035 l 12.592,-9.76 0.367,0.798 c 3.506,7.599 4.391,15.654 2.76,23.819 -1.406,7.051 -4.642,13.173 -10.45,17.898 z m -62.45,-43.947 a 58.345,58.345 0 0 1 -0.221,-5.023 c 0,-31.591 25.619,-57.211 57.209,-57.211 8.135,0 15.869,1.7 22.875,4.761 -1.83,1.029 -3.594,2.044 -4.225,2.466 -8.15,5.445 -14.521,15.467 -15.07,25.404 -0.355,6.427 0.652,12.514 3.354,18.366 l 2.355,5.1 4.154,-2.758 -0.482,-0.664 c -0.27,-0.457 -0.412,-0.808 -0.193,-1.323 0.193,-0.275 0.494,-0.461 0.785,-0.626 0.445,-0.133 0.758,0.019 1.109,0.298 l 0.738,1.017 2.803,-1.86 a 6.081,6.081 0 0 1 2.461,-5.778 c 2.154,-1.552 5.002,-1.479 7.061,-0.023 l 4.283,-2.405 c 0.172,-0.498 0.336,-0.997 0.494,-1.498 0.91,-3.02 1.512,-6.094 1.711,-9.25 l 32.984,-12.865 -22.648,27.214 a 41.333,41.333 0 0 0 -4.395,-0.896 43.485,43.485 0 0 0 -4.006,-0.367 l 19.176,-17.398 -12.387,8.927 -9.283,8.423 -3.635,3.298 c 0.73,2.415 -0.102,5.139 -2.258,6.693 a 6.083,6.083 0 0 1 -6.279,0.495 l -2.631,2.039 0.463,0.639 c 0.271,0.458 0.414,0.813 0.195,1.325 -0.195,0.278 -0.498,0.463 -0.789,0.626 -0.447,0.133 -0.756,-0.022 -1.104,-0.299 l -0.621,-0.853 -4.469,3.465 h -0.002 l -13.17,10.216 -0.002,-0.001 -4.748,3.682 c 0.17,0.345 0.23,0.654 0.053,1.066 -0.193,0.277 -0.498,0.463 -0.785,0.626 -0.449,0.134 -0.758,-0.021 -1.105,-0.297 l -4.656,-6.407 c -0.27,-0.458 -0.412,-0.81 -0.193,-1.324 0.193,-0.275 0.492,-0.461 0.785,-0.625 0.447,-0.134 0.758,0.019 1.107,0.297 l 0.047,0.063 5.188,-3.442 a 45.59,45.59 0 0 0 -3.1,-3.512 c -6.264,-6.405 -15.123,-9.921 -24.031,-9.928 -5.682,-0.003 -10.889,1.107 -15.971,3.671 a 32.376,32.376 0 0 0 -6.41,4.264 c -0.357,0.302 -1.386,1.198 -2.521,2.192 z m -98.661,-30.697 -2.255,1.581 1.326,2.719 a 65.545,65.545 0 0 0 -3.684,-0.22 c 0.1,-3.718 2.292,-4.457 4.613,-4.08 z m 0.109,0.005 c 1.424,0.229 2.844,0.878 3.804,1.511 1.714,1.134 2.731,2.536 4.405,4.965 -3.365,-1.167 -5.512,-1.776 -8.289,-2.101 z"
       clip-rule="evenodd"
       id="path145460"
       style="stroke-width:0.494075" /><path
       fill="#e20613"
       d="m 267.557,343.901 30.412,-21.928 c -0.33,-2.086 0.131,-4.776 0.711,-7.523 a 27.73,27.73 0 0 1 -0.919,-0.389 l -2.694,1.941 a 32.718,32.718 0 0 0 -1.746,4.549 c -0.598,-0.715 -0.877,-1.607 -0.928,-2.621 l -28.664,20.666 c -1.768,1.275 2.06,6.58 3.828,5.305 z m 32.735,-23.602 3.379,-2.437 a 58.5,58.5 0 0 1 0.192,-1.919 c -0.688,-0.115 -1.37,-0.26 -2.05,-0.44 -0.556,1.605 -1.086,3.183 -1.521,4.796 z m 127.67,-92.051 135.111,-97.413 -3.846,-5.292 -150.067,108.2 z"
       id="path145462"
       style="stroke-width:0.494075" /><path
       fill="#f2987a"
       fill-rule="evenodd"
       d="m 560.747,127.635 -144.366,103.998 -4.932,1.441 148.289,-106.824 z m -262.513,189.111 -4.81,3.465 c 0.306,-0.99 0.66,-1.941 1.049,-2.865 l 4.087,-2.945 0.12,0.049 a 62.9,62.9 0 0 0 -0.446,2.296 z m -5.044,3.635 -27.697,19.953 -1.002,-1.389 28.007,-20.178 c 0.12,0.598 0.343,1.141 0.692,1.614 z"
       clip-rule="evenodd"
       id="path145464"
       style="stroke-width:0.494075" /><path
       fill="#868686"
       fill-rule="evenodd"
       d="m 434.804,151.536 2.071,-5.243 -1.96,0.801 z m -44.331,375.855 4.446,-1.074 -1.448,-0.926 z m -59.424,-264.954 3.237,-1.521 -1.254,-0.481 z m -12.941,14.055 3.26,-2.854 -1.622,-0.141 z m 3.331,4.092 3.629,-3.333 -1.848,-0.116 z m 102.182,121.205 -0.103,-4.346 -1.152,1.158 z m 2.653,-252.366 0.989,-4.475 -1.47,0.895 z m 13.67,-9.335 0.45,-4.561 -1.353,1.063 z m 3.111,-13.659 -1.046,-4.462 -0.938,1.442 z m 10.489,6.725 -1.047,-4.462 -0.937,1.444 z m 8.772,-27.555 -2.039,-4.106 -0.582,1.619 z m -2.844,16.081 -1.293,-4.398 -0.855,1.494 z m -10.14,22.688 0.499,-5.414 -1.596,1.272 z m -17.515,41.713 2.823,-5.179 -2.138,0.582 z m 9.615,-9.202 2.176,-4.035 -1.66,0.459 z m -8.955,1.791 2.175,-4.035 -1.66,0.46 z m -8.404,1.378 2.173,-4.036 -1.659,0.459 z m -100.125,88.284 3.258,-2.855 -1.621,-0.14 z m 135.219,38.451 3.539,-9.51 -3.496,1.516 z m 23.909,-14.694 2.301,-6.186 -2.275,0.985 z m -6.161,6.595 2.625,-7.054 -2.594,1.124 z m -102.414,-22.99 4.328,-0.816 -1.381,-0.738 z m 53.195,-32.183 4.376,-1.365 -1.509,-0.831 z m -42.954,38.368 4.375,-1.365 -1.509,-0.831 z m 21.925,1.402 4.376,-1.365 -1.509,-0.83 z m -36.709,-24.041 4.328,-0.817 -1.383,-0.736 z m 51.099,-5.258 4.376,-1.366 -1.509,-0.829 z m 8.863,8.715 4.375,-1.365 -1.509,-0.832 z m -15.706,2.354 4.375,-1.366 -1.508,-0.83 z m -7.679,-8.795 4.376,-1.365 -1.509,-0.83 z m -13.635,-0.631 4.376,-1.365 -1.509,-0.83 z m -31.699,12.175 4.329,-0.815 -1.382,-0.738 z m 25.453,1.015 4.376,-1.366 -1.509,-0.83 z m 15.224,3.38 4.376,-1.365 -1.509,-0.831 z m -23.946,-22.689 4.376,-1.365 -1.51,-0.83 z m 45.566,24.773 4.375,-1.365 -1.508,-0.831 z m -10.342,-31.528 4.375,-1.365 -1.507,-0.831 z m -13.138,3.336 4.375,-1.365 -1.509,-0.83 z m 35.7,32.112 4.376,-1.366 -1.51,-0.831 z m 40.658,-101.845 3.82,-2.536 -1.682,-0.375 z m -27.544,10.245 4.685,-6.426 -2.958,0.402 z m -23.099,4.942 3.603,-6.61 -2.727,0.744 z m -4.278,-1.409 3.258,-6.788 -2.685,0.883 z m 5.678,-7.219 2.823,-5.181 -2.137,0.583 z m 16.676,1.638 4.026,-6.361 -2.771,0.563 z m 32.778,-16.056 3.82,-2.535 -1.68,-0.375 z m 9.17,-6.877 4.148,-1.953 -1.609,-0.616 z m -23.49,9.417 2.889,-3.561 -1.717,0.144 z m 21.496,-1.671 4.146,-1.953 -1.609,-0.617 z m -13.23,-1.236 3.818,-2.535 -1.68,-0.377 z m -33.484,17.436 4.026,-6.361 -2.771,0.563 z m -3.157,9.3 4.025,-6.361 -2.769,0.564 z m 23.656,-17.072 3.217,-3.267 -1.723,-0.022 z m -2.57,10.816 3.158,-4.984 -2.172,0.441 z m 13.557,-13.567 3.215,-3.266 -1.723,-0.023 z m -0.336,6.747 3.822,-2.53 -1.68,-0.378 z m -18.206,-4.459 3.154,-4.984 -2.171,0.441 z m -26.069,39.918 3.602,-6.611 -2.727,0.744 z m 0.387,-8.637 4.854,-8.911 -3.676,1.003 z m 14.949,-15.893 4.027,-6.361 -2.772,0.563 z m 24.136,-60.283 -1.293,-4.397 -0.855,1.493 z m 23.051,-2.927 -1.82,-6.156 -1.193,2.094 z m -3.536,27.244 -0.32,-8.647 -2.258,2.337 z m -29.852,-7.407 1.344,-5.27 -1.777,1.006 z m 22.118,-49.651 -2.037,-4.105 -0.582,1.619 z m -7.428,25.832 -1.291,-4.397 -0.857,1.494 z m 7.577,33.509 -0.32,-8.647 -2.258,2.336 z m -13.809,4.354 1.309,-8.553 -2.656,1.87 z m 8.424,-47.172 -1.568,-4.307 -0.76,1.545 z m -60.251,187.93 1.966,-5.285 -1.943,0.841 z m 104.63,162.112 -0.051,-4.346 -1.162,1.146 z m -12.875,14.629 -0.049,-4.348 -1.164,1.146 z m -7.998,-14.826 -0.072,-6.445 -1.725,1.697 z m -22.473,1.551 -0.053,-4.705 -1.262,1.24 z m 25.609,8.73 0.057,-5.715 -1.563,1.473 z m -0.746,-28.902 0.869,-5.568 -1.736,1.213 z m -6.457,-52.096 2.574,-6.668 -2.477,1.039 z m 15.293,-0.105 1.652,-4.275 -1.588,0.664 z m -3.004,-16.415 1.652,-4.277 -1.588,0.664 z m -2.162,-238.269 -0.816,-4.51 -1.01,1.395 z m -16.896,-20.844 -1.637,-4.28 -0.732,1.557 z m 6.24,30.262 -0.891,-7.475 -1.793,2.186 z m -21.922,-9.293 -0.584,-5.405 -1.314,1.564 z m 4.588,-4.478 -0.688,-6.34 -1.537,1.834 z m 6.549,-23.437 -1.637,-4.28 -0.734,1.556 z m -23.633,46.395 1.861,-7.295 -2.461,1.393 z m -6.308,-0.371 1.883,-6.136 -2.151,1.085 z m -3.366,-6.27 1.345,-5.27 -1.777,1.006 z m 15.305,-9.997 -0.201,-5.435 -1.418,1.468 z m -40.557,16.295 1.981,-4.133 -1.636,0.538 z m 52.127,-51.072 -1.637,-4.282 -0.734,1.556 z m 11.695,1.582 -2.037,-4.105 -0.584,1.618 z m 6.45,11.928 -1.5,-4.33 -0.785,1.533 z m 4.904,9.555 -1.277,-4.401 -0.861,1.49 z m -18.729,-5.125 -1.465,-6.249 -1.311,2.022 z m 14.715,13.091 -1.439,-7.388 -1.625,2.312 z m 4.325,8.966 -0.607,-7.503 -1.873,2.117 z m -14.315,-12.416 -1.467,-6.249 -1.313,2.022 z m -4.598,11.97 -1.029,-8.592 -2.057,2.514 z m -7.023,16.936 0.377,-8.645 -2.439,2.148 z m -0.494,-12.162 -0.322,-8.646 -2.258,2.335 z m -6.807,1.49 0.375,-8.646 -2.438,2.147 z m -24.317,5.56 2.358,-5.97 -2.23,0.914 z m 0.018,10.128 2.766,-7.002 -2.615,1.07 z m -5.908,-1.464 2.072,-5.245 -1.959,0.804 z m -2.784,-6.77 2.073,-5.244 -1.96,0.804 z m -5.53,6.638 2.072,-5.244 -1.96,0.802 z m 24.362,1.047 1.863,-7.296 -2.462,1.394 z m 6.956,-0.424 2.096,-8.217 -2.77,1.569 z m 29.111,-22.641 -1.25,-7.422 -1.686,2.269 z m -40.3,17.668 1.586,-6.221 -2.096,1.187 z m 9.424,144.182 2.625,-7.057 -2.594,1.125 z m -15.055,-1.12 2.625,-7.057 -2.595,1.126 z m -14.646,-0.913 2.624,-7.055 -2.594,1.123 z m -7.795,0.65 2.624,-7.055 -2.594,1.123 z m -74.58,-48.883 5.709,-1 -1.806,-0.994 z m -5.581,7.374 6.393,-2.078 -2.226,-1.192 z m 1.437,8.206 6.394,-2.079 -2.226,-1.191 z m 94.083,32.347 2.625,-7.057 -2.594,1.126 z m 15.391,-0.578 2.626,-7.055 -2.596,1.125 z m 23.704,88.552 2.711,-7.021 -2.609,1.092 z m 27.711,-18.505 1.652,-4.277 -1.588,0.664 z m -53.557,-25.536 1.594,-7.357 -2.406,1.482 z m 12.356,0.53 1.594,-7.357 -2.406,1.482 z m -37.456,149.209 0.85,-4.264 -1.375,0.877 z m -7.52,-183.285 2.624,-7.055 -2.594,1.122 z m 2.349,32.255 1.966,-5.283 -1.943,0.842 z m 8.945,-6.474 3.54,-9.512 -3.497,1.516 z m 35.518,-17.758 2.625,-7.055 -2.594,1.123 z m -3.599,37.592 0.711,-5.695 -1.729,1.291 z m -7.767,6.726 0.712,-5.691 -1.729,1.289 z m 9.538,3.819 0.713,-5.693 -1.727,1.289 z m -129.683,-98.246 5.183,-3.476 -2.29,-0.5 z m -2.008,11.778 2.634,-2.418 -1.341,-0.084 z m 13.403,-6.586 3.237,-1.521 -1.254,-0.482 z m -7.895,-0.031 4.222,-2.542 -1.787,-0.482 z m -14.4,8.159 3.63,-3.333 -1.848,-0.117 z m -3.585,-4.026 3.369,-3.094 -1.715,-0.107 z m 43.392,-24.094 4.393,-1.309 -1.498,-0.85 z m 90.077,-57.243 2.175,-4.035 -1.659,0.459 z m 14.894,-11.064 2.965,-3.496 -1.719,0.104 z m -7.661,7.051 2.175,-4.036 -1.66,0.459 z m 8.271,-13.882 4.121,-4.222 -2.215,-0.018 z m -43.351,37.643 3.259,-6.786 -2.686,0.881 z m 1.014,-9.51 3.258,-6.787 -2.683,0.881 z m 12.305,-5.017 4.197,-9.24 -3.596,1.268 z m -3.22,-9.297 4.855,-8.91 -3.676,1.002 z m 5.891,14.293 3.113,-6.854 -2.666,0.939 z m 6.909,-5.897 3.113,-6.854 -2.666,0.939 z m 8.508,-10.658 3.156,-4.985 -2.173,0.441 z m -11.771,6.831 3.114,-6.854 -2.668,0.939 z m 5.77,-5.976 4.255,-6.718 -2.927,0.595 z m -22.841,5.023 3.258,-6.787 -2.683,0.882 z m 69.915,84.134 2.152,-5.79 -2.129,0.921 z m -5.764,14.863 2.154,-5.79 -2.129,0.921 z m -5.41,10.988 2.625,-7.057 -2.594,1.127 z m -1.893,14.621 2.623,-7.057 -2.594,1.125 z m -4.957,-6.459 2.625,-7.056 -2.594,1.126 z m -14.295,-4.163 2.625,-7.055 -2.596,1.124 z m 8.99,-10.87 2.313,-6.216 -2.285,0.992 z m 11.432,111.549 3.654,-9.467 -3.514,1.471 z m 6.762,62.027 -0.072,-6.445 -1.727,1.695 z m -5.006,1.482 -0.072,-6.447 -1.727,1.699 z m 1.113,-7.787 -0.074,-6.445 -1.725,1.695 z m -5.75,1.668 -0.072,-6.445 -1.727,1.697 z m 0.928,-7.603 -0.07,-6.445 -1.729,1.697 z m 9.562,1.133 -0.076,-6.445 -1.725,1.697 z m -9.158,-11.243 0.617,-7.502 -2.193,1.785 z m -5.748,2.227 0.615,-7.502 -2.191,1.783 z m 14.649,-32.195 2.711,-7.023 -2.607,1.094 z m -19.418,17.593 1.201,-7.43 -2.324,1.607 z m -5.563,-3.521 1.203,-7.432 -2.326,1.607 z m -5.623,-3.93 2.033,-5.262 -1.953,0.82 z m -0.183,-9.642 2.031,-5.26 -1.955,0.818 z m 11.568,-14.475 3.656,-9.467 -3.516,1.471 z m 1.851,7.602 3.658,-9.467 -3.514,1.473 z m -4.738,16.013 2.713,-7.023 -2.609,1.094 z m 5.854,1.602 3.656,-9.467 -3.516,1.473 z m -2.227,-7.047 3.658,-9.465 -3.518,1.471 z m 5.194,-7.045 3.656,-9.467 -3.516,1.473 z m 1.853,-12.238 3.656,-9.465 -3.516,1.471 z m -12.006,4.83 2.715,-7.023 -2.609,1.092 z m -41.363,-60.24 2.625,-7.055 -2.593,1.125 z m 30.896,-25.549 2.624,-7.055 -2.592,1.123 z m -4.476,-14.629 3.54,-9.51 -3.499,1.515 z m -5.945,7.267 3.538,-9.512 -3.497,1.518 z m -6.006,-1.287 3.539,-9.51 -3.498,1.516 z m -19.37,8.698 2.625,-7.059 -2.595,1.123 z m 29.907,8.355 2.623,-7.057 -2.593,1.123 z m -7.19,3.727 2.624,-7.057 -2.595,1.125 z m 33.539,-31.799 2.627,-7.056 -2.598,1.126 z m -6.964,3.216 2.625,-7.057 -2.592,1.126 z m -53.181,29.575 1.966,-5.285 -1.943,0.844 z m -5.222,-5.188 1.965,-5.285 -1.943,0.842 z m 25.494,11.391 3.135,-8.424 -3.096,1.344 z m 1.934,-17.535 3.54,-9.51 -3.496,1.518 z m -6.763,1.338 3.539,-9.51 -3.498,1.516 z m -5.105,-3.795 3.54,-9.512 -3.497,1.518 z m 5.9,-8.045 3.539,-9.51 -3.496,1.515 z m -8.527,1.111 3.538,-9.509 -3.496,1.515 z m 14.245,91.045 -1.489,-4.086 -0.72,1.467 z m 10.144,3.121 -1.488,-4.084 -0.72,1.465 z m 4.986,-12.281 -0.102,-4.346 -1.151,1.158 z m -19.666,-9.516 -0.103,-4.346 -1.152,1.158 z m -21.963,-42.859 1.21,-5.586 -1.826,1.127 z m 64.983,11.144 1.133,-5.227 -1.711,1.053 z m -36.25,30.073 0.712,-5.693 -1.729,1.289 z m 29.428,-16.737 0.713,-5.693 -1.729,1.289 z m -9.211,12.514 0.713,-5.693 -1.727,1.289 z m -9.557,3.268 0.712,-5.693 -1.729,1.287 z m -6.615,13.439 -0.559,-5.709 -1.402,1.637 z m -7.018,-20.558 0.712,-5.695 -1.727,1.288 z m 15.5,-7.754 0.712,-5.693 -1.729,1.287 z m -7.407,6.617 0.712,-5.693 -1.728,1.289 z m 35.271,-9.797 1.133,-5.227 -1.711,1.053 z m -13.121,-9.893 1.135,-5.227 -1.711,1.055 z m 0.242,-10.386 1.592,-7.354 -2.406,1.479 z m 1.625,-11.784 2.268,-6.094 -2.242,0.971 z m -13.122,-1.627 2.625,-7.055 -2.594,1.123 z m 15.351,-10.955 1.965,-5.285 -1.943,0.844 z m -8.209,6.995 2.625,-7.057 -2.596,1.127 z m 5.806,-12.897 2.625,-7.055 -2.594,1.125 z m 27.26,-17.733 1.596,-4.294 -1.578,0.684 z m -41.896,14.946 3.537,-9.512 -3.494,1.518 z m 47.802,14.715 1.598,-4.297 -1.578,0.686 z m 3.229,-15.348 1.6,-4.295 -1.58,0.686 z m -8.477,39.184 1.6,-4.297 -1.58,0.686 z m -72.889,17.099 0.711,-5.691 -1.727,1.287 z m 66.083,-45.757 1.596,-4.297 -1.58,0.686 z m 0.98,13.753 1.6,-4.297 -1.582,0.684 z m -14.885,-7.427 1.598,-4.297 -1.578,0.684 z m 8.571,20.537 1.598,-4.293 -1.578,0.684 z m -7.073,-8.83 1.596,-4.295 -1.578,0.684 z m -63.005,-13.973 2.625,-7.055 -2.595,1.121 z m 20.048,68.912 -0.104,-4.344 -1.15,1.156 z m -20.483,-43.707 1.209,-5.582 -1.826,1.123 z m 5.278,-3.285 1.21,-5.584 -1.826,1.123 z m 2.012,10.184 1.21,-5.584 -1.826,1.125 z m -6.265,5.773 1.17,-4.557 -1.539,0.869 z m 4.065,11.615 -0.111,-4.703 -1.245,1.254 z m 6.654,8.653 -0.11,-4.703 -1.246,1.254 z m 3.605,-8.153 -0.113,-4.703 -1.244,1.254 z m -0.025,-13.258 0.712,-5.693 -1.728,1.287 z m 10.477,4.594 1.676,-5.488 -1.923,0.975 z m -6.93,-36.095 2.624,-7.057 -2.595,1.127 z m -5.859,22.662 1.593,-7.355 -2.407,1.482 z m 9.726,6.601 1.36,-7.404 -2.358,1.559 z m 7.942,-5.861 1.595,-7.357 -2.406,1.482 z m 7.243,-7.809 1.594,-7.355 -2.406,1.482 z m -11.879,0.963 1.594,-7.357 -2.406,1.48 z m -7.067,2.77 1.594,-7.355 -2.406,1.479 z m -3.921,-9.821 2.623,-7.055 -2.592,1.125 z m -18.696,-23.382 1.965,-5.283 -1.943,0.842 z m 72.641,12.492 1.6,-4.295 -1.58,0.684 z m -61.487,-25.03 2.624,-7.055 -2.594,1.124 z m -4.291,10.125 2.624,-7.057 -2.594,1.125 z m 32.407,4.27 2.624,-7.057 -2.595,1.125 z m -5.773,3.973 2.625,-7.057 -2.594,1.127 z m -5.115,4.978 2.624,-7.057 -2.592,1.125 z m -17.821,0.637 2.624,-7.057 -2.594,1.125 z m 0.981,8.363 2.624,-7.055 -2.592,1.125 z m 67.136,-30.502 1.6,-4.295 -1.578,0.686 z m -52.582,-1.596 3.54,-9.512 -3.497,1.517 z m 7.916,-1.234 3.538,-9.511 -3.496,1.517 z m -15.574,3.192 3.539,-9.512 -3.496,1.517 z m 67.765,-21.409 1.6,-4.295 -1.582,0.684 z m -64.84,85.416 0.712,-5.693 -1.727,1.289 z m 85.438,137.151 -0.049,-4.348 -1.164,1.145 z m -8.512,-2.032 -0.049,-4.346 -1.166,1.143 z m 14.256,-5.13 -0.047,-4.346 -1.166,1.146 z m -52.172,-44.375 0.783,-5.686 -1.744,1.268 z m 40.422,-7.055 1.65,-4.275 -1.588,0.664 z m -2.183,15.314 -0.049,-4.348 -1.166,1.146 z m -21.721,14.311 -0.074,-6.445 -1.725,1.695 z m 17.082,2.057 -0.051,-4.346 -1.166,1.146 z m -11.276,-84.114 2.576,-6.67 -2.477,1.037 z m 10.485,61.84 1.279,-5.566 -1.84,1.102 z m 5.019,-19.959 0.744,-4.76 -1.484,1.037 z m -5.689,10.092 0.867,-5.572 -1.732,1.215 z m 17.476,33.824 -0.049,-4.346 -1.166,1.143 z m -5.322,-13.349 -0.051,-4.348 -1.164,1.146 z m -9.291,-52.305 1.65,-4.275 -1.588,0.666 z m 8.59,18.894 1.65,-4.275 -1.59,0.666 z m -10.242,-6.955 1.65,-4.275 -1.586,0.664 z m -24.77,-49.838 2.391,-6.189 -2.299,0.963 z m -17.174,44.543 2.711,-7.023 -2.607,1.092 z m 36.063,-4.662 1.652,-4.275 -1.588,0.664 z m 3.555,80.049 -0.051,-4.348 -1.162,1.145 z m 13.877,-4.318 -0.051,-4.346 -1.162,1.143 z m -5.161,-13.873 -0.049,-4.346 -1.164,1.145 z m -28.24,2.459 -0.049,-4.348 -1.164,1.145 z m 11.145,9.023 -0.051,-4.346 -1.164,1.143 z m 0.267,-8.586 -0.051,-4.348 -1.164,1.145 z m -32.798,-47.082 1.279,-5.566 -1.84,1.102 z m 4.861,4.078 1.279,-5.568 -1.84,1.102 z m 3.996,6.987 0.615,-7.502 -2.189,1.785 z m -6.525,1.406 1.223,-4.543 -1.547,0.852 z m 5.234,13.01 -0.055,-4.703 -1.258,1.236 z m 4.654,6.353 -0.053,-4.705 -1.26,1.238 z m 6.012,3.854 -0.053,-4.703 -1.26,1.236 z m 16.475,-24.817 0.873,-5.57 -1.738,1.215 z m -16.438,-27.689 2.711,-7.021 -2.609,1.094 z m -5.332,19.576 1.686,-7.338 -2.426,1.453 z m 9.793,14.584 1.453,-7.385 -2.379,1.527 z m 8.211,-14.305 1.686,-7.336 -2.426,1.453 z m 4.086,-8.463 1.684,-7.336 -2.424,1.451 z m -8.811,3.723 1.684,-7.338 -2.424,1.453 z m -7.129,2.219 1.684,-7.338 -2.426,1.453 z m -2.158,-8.557 2.711,-7.021 -2.607,1.09 z m 24.803,-35.224 1.65,-4.275 -1.586,0.662 z m 6.17,3.675 1.648,-4.277 -1.588,0.664 z m 3.01,8.625 1.648,-4.275 -1.588,0.666 z m -9.215,1.957 1.65,-4.275 -1.586,0.666 z m -2.649,16.569 1.65,-4.275 -1.588,0.666 z m 12.368,-4.551 1.652,-4.273 -1.59,0.664 z m -43.717,-32.848 1.65,-4.275 -1.586,0.666 z m -0.436,7.969 2.711,-7.02 -2.609,1.092 z m -5.306,8.316 2.713,-7.025 -2.609,1.094 z m 24.832,-5.507 2.711,-7.023 -2.607,1.092 z m 8.054,4.529 2.713,-7.021 -2.609,1.092 z m -0.597,10.555 2.342,-6.064 -2.254,0.943 z m -11.877,13.88 3.236,-8.385 -3.111,1.305 z m 6.357,-18.916 2.713,-7.023 -2.607,1.094 z m -4.664,6.77 2.707,-7.021 -2.605,1.09 z m -18.131,1.5 2.709,-7.025 -2.607,1.094 z m -4.652,-1.15 2.711,-7.021 -2.605,1.092 z m 28.75,10.431 2.709,-7.023 -2.607,1.094 z m 7.545,-37.23 2.576,-6.666 -2.479,1.037 z m -13.996,4.408 3.654,-9.467 -3.516,1.473 z m -3.981,-4.004 3.654,-9.467 -3.514,1.473 z m -4.928,6.322 3.656,-9.467 -3.516,1.473 z m 20.299,-17.935 2.572,-6.67 -2.475,1.037 z m 4.006,2.496 1.65,-4.277 -1.588,0.664 z m 17.113,3.359 1.65,-4.275 -1.588,0.666 z m -1.347,-16.949 1.65,-4.275 -1.588,0.664 z m -6.022,9.994 1.648,-4.275 -1.586,0.664 z m -15.367,-7.719 1.652,-4.279 -1.59,0.666 z m -5.482,14.241 3.656,-9.469 -3.516,1.473 z m -2.719,-7.5 2.68,-6.941 -2.574,1.082 z m 23.389,117.894 -0.051,-4.346 -1.166,1.143 z m -18.737,-42.795 -0.074,-6.445 -1.727,1.697 z m -4.92,-5.168 1.961,-6.141 -2.174,1.064 z m 8.862,20.432 -0.072,-6.447 -1.727,1.695 z m -1.661,8.498 -0.072,-6.447 -1.727,1.699 z m 4.434,5.541 -0.074,-6.449 -1.727,1.697 z m 3.865,11.977 -0.057,-5.107 -1.369,1.344 z m -151.969,-232.747 5.709,-0.999 -1.805,-0.996 z m 3.232,8.308 4.341,-0.759 -1.373,-0.755 z m 164.776,57.331 0.609,-4.541 -1.387,1.016 z m -5.121,-31.152 0.611,-4.542 -1.389,1.016 z m -1.478,52.691 0.609,-4.545 -1.387,1.016 z m -110.845,72.123 2.367,-5.969 -2.234,0.912 z m 14.576,20.573 1.23,-7.428 -2.331,1.598 z m -9.247,-1.01 3.742,-9.434 -3.528,1.441 z m 4.605,-22.869 3.743,-9.436 -3.53,1.441 z m -4.737,12.371 3.742,-9.434 -3.527,1.441 z m 5.593,7.103 3.742,-9.436 -3.53,1.443 z m -0.103,-9.64 3.742,-9.436 -3.529,1.443 z m 8.821,14.097 1.23,-7.428 -2.333,1.598 z m 4.756,-7.191 2.775,-6.996 -2.617,1.066 z m -2.477,-6.106 3.742,-9.434 -3.53,1.441 z m -20.958,2.815 2.367,-5.969 -2.233,0.912 z m 4.461,-12.168 2.367,-5.969 -2.233,0.91 z m -0.006,-6.721 2.366,-5.971 -2.233,0.912 z m -3.211,28.746 1.213,-6.33 -2.032,1.318 z m 3.717,6.811 1.212,-6.33 -2.031,1.318 z m -0.361,34.363 0.71,-4.289 -1.347,0.924 z m 8.276,-21.256 0.709,-4.287 -1.346,0.924 z m 2.879,-3.441 1.213,-6.332 -2.032,1.318 z m -0.772,-8.156 1.213,-6.33 -2.032,1.318 z m -13.308,8.13 0.769,-4.639 -1.457,0.998 z m 4.112,2.803 0.932,-4.064 -1.343,0.805 z m 6.666,9.594 0.71,-4.289 -1.347,0.922 z m 10.427,-24.291 1.23,-7.426 -2.331,1.6 z m -7.345,-13.299 2.775,-6.998 -2.617,1.068 z m 0.626,-8.582 3.742,-9.434 -3.53,1.439 z m -6.356,-17.594 2.367,-5.971 -2.233,0.914 z m 4.818,78.836 0.711,-4.289 -1.347,0.922 z m 6.675,-22.898 0.933,-4.064 -1.344,0.805 z m -24.708,-29.037 0.934,-4.064 -1.343,0.803 z m 4.883,34.496 0.934,-4.064 -1.344,0.807 z m -1.731,-17.514 0.934,-4.066 -1.343,0.807 z m 38.381,-3.517 0.71,-4.289 -1.347,0.922 z m -32.18,6.203 0.933,-4.063 -1.344,0.803 z m 3.877,-5.838 1.213,-6.33 -2.031,1.314 z m 17.267,1.541 2.1,-6.432 -2.289,1.102 z m 4.958,15.828 1.054,-5.615 -1.794,1.176 z m 0.399,-12.111 0.709,-4.289 -1.345,0.924 z m -7.074,17.199 0.709,-4.289 -1.347,0.924 z m 12.178,1.263 0.71,-4.287 -1.347,0.924 z m 1.825,-13.408 0.71,-4.289 -1.346,0.924 z m -8.66,31.817 0.244,-4.34 -1.239,1.063 z m 6.8,-6.084 0.71,-4.289 -1.346,0.924 z m -6.298,-6.596 0.711,-4.287 -1.347,0.922 z m -22.82,-0.836 0.71,-4.289 -1.347,0.922 z m 0.046,-10.412 0.71,-4.285 -1.347,0.922 z m 18.246,-6.15 1.053,-5.613 -1.794,1.174 z m -31.428,-15.387 0.769,-4.641 -1.457,1 z m 1.216,12.14 0.77,-4.641 -1.458,0.998 z m 28.014,26.332 0.709,-4.287 -1.347,0.922 z m -3.694,-27.404 1.229,-7.426 -2.33,1.596 z m -9.87,0.904 1.052,-6.359 -1.996,1.369 z m 5.967,10.069 1.053,-6.361 -1.997,1.367 z m 1.681,9.65 0.833,-5.037 -1.58,1.082 z m 13.492,-32.353 1.804,-4.551 -1.703,0.695 z m 9.189,-5.114 2.174,-5.482 -2.051,0.836 z m -12.186,-0.039 2.775,-6.998 -2.618,1.068 z m 5.746,-3.931 2.775,-6.998 -2.619,1.068 z m -16.155,-23.371 2.774,-6.998 -2.618,1.068 z m 3.759,5.324 2.774,-6.998 -2.617,1.07 z m 3.746,6.402 2.774,-7 -2.618,1.07 z m 3.385,5.481 2.775,-6.998 -2.619,1.068 z m -17.238,-29.034 2.367,-5.969 -2.234,0.91 z m 1.984,19.061 3.191,-8.047 -3.009,1.229 z m 0.989,-10.836 3.192,-8.049 -3.009,1.23 z m 27.872,-180.981 3.718,-4.24 -2.115,0.096 z m 71.629,-35.749 4.715,-5.376 -2.682,0.122 z m -6.515,-3.333 6.691,-7.63 -3.807,0.172 z m -50.606,79.648 3.695,-2.713 -1.697,-0.295 z m 14.949,-2.582 2.727,-3.686 -1.709,0.22 z m 27.678,-28.564 4.477,-6.052 -2.805,0.362 z m -10.806,8.787 4.479,-6.053 -2.803,0.361 z m -8.084,-2.286 4.477,-6.053 -2.805,0.363 z m 21.029,-27.746 4.477,-6.052 -2.803,0.361 z m -19.338,39.165 2.727,-3.685 -1.707,0.22 z m 23.789,-35.646 2.725,-3.685 -1.709,0.22 z m 11.584,-19.023 2.727,-3.685 -1.709,0.221 z m -2.416,12.146 2.725,-3.685 -1.709,0.221 z m -7.525,14.73 2.727,-3.685 -1.709,0.22 z m -20.436,40.098 2.725,-3.685 -1.707,0.22 z m 25.213,-89.836 3.023,-3.447 -1.719,0.078 z m -15.164,76.125 2.729,-3.686 -1.709,0.22 z m -25.608,-0.358 5.486,-5.154 -2.822,-0.145 z m 11.26,-21.11 6.689,-7.629 -3.807,0.171 z m -41.029,4.197 4.37,-1.382 -1.512,-0.826 z m 17.935,19.513 4.439,-1.138 -1.465,-0.908 z m -12.313,6.347 4.44,-1.138 -1.465,-0.908 z m -10.649,-17.185 6.227,-1.543 -2.037,-1.284 z m 18.798,-8.625 4.961,-5.661 -2.824,0.128 z m -6.25,7.438 7.307,-1.812 -2.392,-1.508 z m 21.959,-26.468 5.922,-6.754 -3.367,0.151 z m 12.577,-21.763 4.393,-5.011 -2.5,0.113 z m 6.459,37.257 4.477,-6.052 -2.805,0.362 z m 6.546,-5.775 4.477,-6.054 -2.805,0.363 z m 12.229,-21.371 4.479,-6.053 -2.805,0.362 z m -45.145,33.713 6.689,-7.629 -3.807,0.172 z m -13.104,-9.717 4.394,-5.01 -2.501,0.113 z m 5.337,17.617 7.307,-1.812 -2.391,-1.507 z m -11.284,5.18 5.745,-1.357 -1.864,-1.202 z m 24.217,-8.411 8.08,-6.141 -3.766,-0.592 z m 4.223,-9.186 6.693,-7.629 -3.807,0.172 z m 29.668,-53.272 4.715,-5.375 -2.682,0.121 z m 1.4,17.294 6.691,-7.63 -3.807,0.172 z m 11.395,25.761 2.725,-3.685 -1.707,0.22 z m -45.406,2.978 6.691,-7.629 -3.807,0.172 z m 8.978,-10.081 6.691,-7.629 -3.809,0.172 z m 11.522,4.421 6.689,-7.628 -3.807,0.17 z m -9.121,4.01 6.689,-7.629 -3.807,0.172 z m 6.466,-10.068 6.693,-7.628 -3.807,0.172 z m 5.563,-24.042 5.404,-6.158 -3.074,0.139 z m 12.67,49.185 2.727,-3.686 -1.709,0.221 z m -26.479,-34.456 5.926,-6.755 -3.371,0.152 z m 20.395,-16.48 4.715,-5.376 -2.68,0.123 z m -45.385,28.969 3.715,-4.238 -2.113,0.096 z m 18.426,-14.524 4.396,-5.01 -2.502,0.114 z m -8.324,9.562 4.396,-5.009 -2.502,0.113 z m -3.469,10.788 4.963,-5.66 -2.824,0.128 z m 26.719,-16.574 6.691,-7.629 -3.809,0.172 z m -1.575,-6.056 5.922,-6.756 -3.371,0.154 z m 9.887,7.07 6.691,-7.628 -3.809,0.171 z m -0.746,-9.098 6.691,-7.63 -3.807,0.171 z m -128.972,-39.423 1.146,3.387 0.619,-1.191 z m 1.707,13.123 1.147,3.387 0.62,-1.192 z m -8.511,-5.995 1.148,3.387 0.619,-1.191 z m 37.749,28.561 3.967,2.295 -0.412,-1.672 z m -21.056,3.495 3.171,3.31 0.071,-1.72 z m -26.33,-16.47 2.108,4.07 0.554,-1.631 z m -1.714,-7.971 2.109,4.07 0.553,-1.631 z m 42.471,46.82 5.146,3.841 -0.298,-2.395 z m -15.577,-47.298 1.146,3.387 0.621,-1.192 z m -17.077,0.415 2.109,4.07 0.553,-1.63 z m 5.778,37.028 6.033,4.503 -0.349,-2.803 z m -1.233,4.95 6.033,4.502 -0.349,-2.804 z m 46.37,-13.556 3.968,2.295 -0.411,-1.673 z m -52.004,-5.589 2.953,3.505 0.182,-1.713 z m 11.675,2.079 4.915,5.701 0.266,-2.813 z m 24.395,16.95 5.146,3.841 -0.298,-2.395 z m 17.7,-3.646 3.967,2.295 -0.411,-1.672 z m -9.322,-6.53 3.968,2.296 -0.41,-1.673 z m -5.275,4.851 3.968,2.294 -0.412,-1.673 z m 6.814,4.88 3.967,2.295 -0.411,-1.672 z m 6.721,6.448 3.968,2.294 -0.411,-1.672 z m -8.066,0.599 5.144,3.842 -0.297,-2.394 z m -31.21,-39.991 2.109,4.069 0.555,-1.631 z m -7.345,6.596 3.418,6.708 0.927,-2.669 z m -8.084,-8.744 3.417,6.708 0.927,-2.67 z m 8.911,2.321 2.108,4.07 0.554,-1.631 z m 22.747,2.541 2.108,4.07 0.555,-1.631 z m -15.551,5.842 2.108,4.07 0.554,-1.631 z m 23.144,9.759 3.17,3.31 0.073,-1.721 z m -11.678,1.588 3.17,3.309 0.071,-1.72 z m 7.192,2.551 3.171,3.31 0.07,-1.721 z m -11.33,-21.238 2.108,4.07 0.555,-1.631 z m 9.33,11.026 2.109,4.07 0.553,-1.63 z m -9.06,-2.538 2.108,4.07 0.554,-1.632 z m -27.669,-1.519 2.955,3.505 0.181,-1.712 z m 2.885,10.828 2.955,3.506 0.18,-1.713 z m 8.269,-4.659 4.917,5.701 0.266,-2.813 z m -6.495,-7.364 4.916,5.702 0.265,-2.813 z m 20.302,15.945 4.916,5.7 0.265,-2.813 z m -15.966,-2.076 4.917,5.702 0.265,-2.813 z m 7.577,1.169 7.596,6.729 -0.154,-3.808 z m 17.161,5.186 5.146,3.841 -0.298,-2.394 z m -3.365,9.9 8.133,6.071 -0.472,-3.782 z m -10.283,-7.998 8.131,6.072 -0.47,-3.783 z m -0.245,5.928 8.132,6.071 -0.472,-3.782 z m 10.203,-4.346 5.145,3.841 -0.298,-2.394 z m -8.49,12.113 8.132,6.072 -0.471,-3.782 z m 12.567,5.204 6.031,4.502 -0.348,-2.806 z m 12.617,-3.772 5.146,3.84 -0.299,-2.394 z m -18.464,-2.325 6.938,5.177 -0.402,-3.227 z m 10.204,3.779 6.938,5.18 -0.402,-3.226 z m 96.281,299.171 6.264,-0.535 -1.775,-1.559 z m 20.458,-3.575 4.234,-0.92 -1.35,-0.906 z m -5.356,-3.625 4.234,-0.92 -1.352,-0.908 z m -16.92,13.979 3.477,-0.84 -1.133,-0.725 z m 26.555,-7.369 3.57,0.238 -0.865,-1.029 z m -7.963,1.918 3.568,0.236 -0.863,-1.027 z m -10.727,2.343 4.908,-0.418 -1.389,-1.221 z m 4.944,-4.795 4.926,-0.18 -1.33,-1.287 z m -4.149,-3.994 6.264,-0.533 -1.775,-1.559 z m 1.926,-4.875 3.564,-0.307 -1.01,-0.887 z m -10.744,5.664 6.064,-1.467 -1.977,-1.26 z m -6.047,7.307 4.791,-1.156 -1.561,-0.996 z m -1.055,-4.525 4.447,-1.072 -1.449,-0.924 z m -75.783,-1.424 6.263,-0.533 -1.772,-1.559 z m 20.459,-3.574 4.233,-0.918 -1.35,-0.906 z m -5.357,-3.623 4.233,-0.92 -1.351,-0.908 z m -16.918,13.978 3.474,-0.84 -1.131,-0.723 z m 26.554,-7.369 3.567,0.238 -0.865,-1.027 z m -7.963,1.918 3.567,0.238 -0.864,-1.029 z m -10.729,2.344 4.91,-0.418 -1.392,-1.223 z m 4.945,-4.795 4.925,-0.18 -1.33,-1.287 z m -4.15,-3.992 6.263,-0.535 -1.773,-1.559 z m 1.927,-4.879 3.563,-0.305 -1.01,-0.887 z m -10.747,5.666 6.068,-1.467 -1.976,-1.262 z m -6.043,7.308 4.789,-1.158 -1.56,-0.996 z"
       clip-rule="evenodd"
       id="path145466"
       style="stroke-width:0.494075" /><path
       fill="#ececec"
       fill-rule="evenodd"
       d="m 604.785,93.944 a 55.875,55.875 0 0 1 -0.494,1.499 l 10.943,-6.145 12.375,-8.915 -22.566,12.672 c -0.085,0.298 -0.171,0.594 -0.258,0.889 z m -21.592,30.058 -0.018,0.013 a 37.6,37.6 0 0 0 -1.074,-3.008 82.1,82.1 0 0 0 -0.512,-1.178 l -9.113,7.065 0.002,10e-4 3.441,-2.671 a 54.86,54.86 0 0 1 1.953,3.904 l -0.01,0.006 c 0.824,1.809 1.516,3.591 2.061,5.397 0.73,2.476 1.199,5 1.393,7.547 0.086,1.207 0.107,2.447 0.07,3.729 a 35.253,35.253 0 0 1 -0.316,3.795 l -0.012,0.069 -0.008,0.07 -0.01,0.061 v 0.009 l -0.004,0.013 -0.018,0.124 -0.01,0.068 -0.01,0.059 -0.002,0.01 -0.043,0.264 v -0.002 l -0.002,0.012 c 1.256,-2.223 2.166,-4.648 2.785,-7.257 V 142.1 l 0.014,-0.048 0.031,-0.142 0.016,-0.07 0.018,-0.071 0.031,-0.142 0.012,-0.049 0.02,-0.092 0.031,-0.143 c 0.125,-0.589 0.238,-1.183 0.332,-1.779 l 0.016,-0.097 0.01,-0.067 c 0.824,-5.246 0.478,-10.41 -1.074,-15.398 z m -62.602,-17.657 c 2.203,-26.618 24.508,-47.542 51.691,-47.542 4.219,0 8.318,0.509 12.246,1.459 -1.082,0.965 -2.115,2 -3.094,3.092 a 48.514,48.514 0 0 0 -9.152,-0.872 c -24.486,0 -44.711,18.271 -47.789,41.918 -0.734,0.316 -1.467,0.656 -2.195,1.024 -0.578,0.293 -1.146,0.6 -1.707,0.921 z m 5.819,-2.703 c 3.391,-22.287 22.639,-39.369 45.873,-39.369 2.662,0 5.27,0.228 7.809,0.659 -4.85,5.993 -8.092,13.462 -8.504,20.933 -0.393,7.107 0.752,13.916 3.742,20.395 l 1.904,4.126 3.611,-2.395 0.727,1.575 -3.633,2.41 v 0.001 l -7.037,4.668 -3.572,2.371 a 44.714,44.714 0 0 0 -1.098,-1.329 l 3.592,-2.383 a 50.433,50.433 0 0 0 -2.533,-2.794 c -7.064,-7.22 -17.021,-11.207 -27.09,-11.214 -4.829,-0.003 -9.387,0.732 -13.791,2.346 z m 70.084,-6.912 c 3.342,0 6.068,2.729 6.068,6.07 0,3.343 -2.727,6.071 -6.068,6.071 -0.98,0 -1.908,-0.235 -2.729,-0.65 l -1.271,0.986 -0.193,0.148 -1.166,0.904 -3.451,-4.75 1.258,-0.835 0.193,-0.128 1.348,-0.894 a 6.46,6.46 0 0 1 -0.059,-0.852 c -10e-4,-3.341 2.726,-6.07 6.07,-6.07 z m -3.172,11.242 -0.063,-0.038 -0.035,-0.023 v -0.001 a 6.122,6.122 0 0 1 -2.32,-2.741 c 0.174,0.409 0.395,0.805 0.664,1.179 a 5.974,5.974 0 0 0 1.656,1.563 z m 2.843,-10.05 a 4.223,4.223 0 0 1 4.213,4.214 4.224,4.224 0 0 1 -4.213,4.215 4.225,4.225 0 0 1 -4.217,-4.215 4.224,4.224 0 0 1 4.217,-4.214 z m -2.843,10.05 -0.063,-0.038 z m -9.026,-0.215 2.818,3.915 -19.902,14.839 -3.545,-4.918 a 4.17,4.17 0 0 0 -0.074,-0.098 l -1.453,0.964 4.607,6.341 c 0.053,0.09 0.102,0.175 0.141,0.259 l 0.83,-0.642 0.002,0.001 20.182,-15.653 1.377,-1.067 -3.553,-4.891 z"
       clip-rule="evenodd"
       id="path145468"
       style="stroke-width:0.494075" /></g></svg>
