<?xml version="1.0" encoding="UTF-8" standalone="no"?>
<svg
   width="512"
   height="512"
   version="1.1"
   id="svg49874"
   sodipodi:docname="ua-21-1x1.svg"
   inkscape:version="1.2.2 (b0a84865, 2022-12-01)"
   xmlns:inkscape="http://www.inkscape.org/namespaces/inkscape"
   xmlns:sodipodi="http://sodipodi.sourceforge.net/DTD/sodipodi-0.dtd"
   xmlns="http://www.w3.org/2000/svg"
   xmlns:svg="http://www.w3.org/2000/svg">
  <defs
     id="defs49878" />
  <sodipodi:namedview
     id="namedview49876"
     pagecolor="#ffffff"
     bordercolor="#666666"
     borderopacity="1.0"
     inkscape:showpageshadow="2"
     inkscape:pageopacity="0.0"
     inkscape:pagecheckerboard="0"
     inkscape:deskcolor="#d1d1d1"
     showgrid="false"
     inkscape:zoom="1.1699219"
     inkscape:cx="255.57262"
     inkscape:cy="256"
     inkscape:window-width="1440"
     inkscape:window-height="819"
     inkscape:window-x="0"
     inkscape:window-y="25"
     inkscape:window-maximized="0"
     inkscape:current-layer="svg49874" />
  <path
     fill="#2475b1"
     d="M 0,0 H 511.99999 V 511.99999 H 0 Z"
     id="path49794"
     style="stroke-width:0.999996" />
  <path
     fill="#fdcc00"
     d="M 0,256 H 511.99999 V 511.99999 H 0 Z"
     id="path49796"
     style="stroke-width:0.999996" />
  <switch
     transform="matrix(0.14286427,0,0,0.14303541,57.088122,85.532806)"
     id="switch49872"
     style="stroke-width:4.08045">
    <g
       id="g49870"
       style="stroke-width:4.08045">
      <path
         d="m 244.15,1.25 -0.1,2.3 V 1.25 H 1.25 v 527.8 c 0.8,28.5 20.2,42.6 58.4,42.4 h 147.8 c 16.6,0.6 28.8,7.6 36.6,21.1 7.9,-13.5 20.1,-20.5 36.7,-21.1 h 147.8 c 38.1,0.2 57.6,-13.9 58.3,-42.4 V 1.25 h -242.7"
         fill="#ffffff"
         id="path49798"
         style="stroke-width:1.81354" />
      <path
         d="m 142.45,346.95 c 0.4,-1.2 0.7,-2.1 0.9,-2.5 0.3,-0.5 0.7,-0.7 1.1,-0.7 0.4,0 0.6,0.3 0.6,0.9 0.1,1.2 0.7,1.8 1.7,1.8 0.6,0 1,-0.2 1.3,-0.5 0.4,-0.4 0.6,-0.8 0.6,-1.3 0,-0.8 -0.3,-1.4 -0.8,-1.9 -0.6,-0.5 -1.3,-0.7 -2.1,-0.7 -0.9,0 -1.7,0.2 -2.2,0.6 -0.6,0.4 -1.1,0.9 -1.4,1.6 -0.4,0.7 -0.7,1.8 -1,3.1 -0.3,1.2 -0.6,2 -1,2.4 -0.3,0.5 -0.7,0.7 -1.1,0.8 -0.3,0.1 -1.2,0.1 -2.4,0.1 v -5.5 c 0,-1 0.1,-1.6 0.4,-1.9 0.3,-0.4 0.9,-0.5 1.8,-0.5 h 0.4 v -0.5 h -9.7 v 0.5 h 0.4 c 0.9,0 1.6,0.2 1.8,0.6 0.3,0.3 0.4,1.1 0.4,2.1 v 12.4 c 0,1 -0.2,1.7 -0.5,2 -0.3,0.2 -1.1,0.4 -2.1,0.4 v 0.5 h 9.7 v -0.5 c -1,0 -1.7,-0.1 -2.1,-0.3 -0.3,-0.3 -0.5,-0.9 -0.5,-1.8 v -6.2 c 0.6,0 1,0.1 1.2,0.3 0.2,0.1 0.5,0.6 1,1.4 l 3.8,7.1 h 6.2 v -0.5 c -0.6,0 -1.1,-0.1 -1.5,-0.3 -0.4,-0.3 -0.7,-0.7 -1,-1.2 l -1.9,-3.3 c -0.9,-1.6 -1.4,-2.5 -1.7,-2.9 -0.2,-0.4 -0.5,-0.7 -0.8,-0.9 -0.3,-0.3 -0.8,-0.4 -1.4,-0.6 0.5,-0.4 0.8,-0.9 1.1,-1.5 0.2,-0.6 0.5,-1.5 0.8,-2.6 m -28.5,-3.9 c 1.4,0 2.6,0.4 3.7,1.3 1.1,0.9 1.9,2.2 2.3,3.9 h 0.5 v -6.4 h -0.5 c -0.1,0.4 -0.2,0.8 -0.4,1 -0.3,0.2 -0.5,0.3 -0.8,0.3 -0.2,0 -0.7,-0.1 -1.6,-0.5 -1.4,-0.5 -2.8,-0.8 -4.1,-0.8 -1.8,0 -3.5,0.4 -5,1.3 -1.6,0.8 -2.8,2.1 -3.8,3.7 -0.9,1.5 -1.4,3.2 -1.4,5 0,1.7 0.4,3.3 1.3,4.7 0.8,1.5 2,2.7 3.5,3.5 1.6,0.7 3.3,1.1 5.3,1.1 1.5,0 2.8,-0.2 4,-0.7 1.1,-0.5 2.2,-1.3 3.2,-2.3 v -1.6 c -1.1,1.2 -2.1,2.1 -3.1,2.6 -0.9,0.5 -2,0.8 -3.2,0.8 -1.4,0 -2.6,-0.4 -3.4,-1.1 -0.9,-0.7 -1.6,-1.7 -2,-3.1 -0.4,-1.3 -0.6,-2.9 -0.6,-4.5 0,-1.7 0.3,-3.2 0.8,-4.6 0.5,-1.1 1.2,-2 2.1,-2.6 1,-0.7 2.1,-1 3.2,-1 m -11.9,17.7 v -0.5 c -0.6,0 -1.1,-0.1 -1.5,-0.3 -0.4,-0.3 -0.7,-0.7 -1,-1.2 l -1.9,-3.3 c -0.9,-1.6 -1.4,-2.5 -1.7,-2.9 -0.2,-0.4 -0.5,-0.7 -0.8,-0.9 -0.3,-0.3 -0.8,-0.4 -1.4,-0.6 0.5,-0.4 0.8,-0.9 1.1,-1.5 0.2,-0.6 0.5,-1.5 0.8,-2.6 0.4,-1.2 0.7,-2.1 0.9,-2.5 0.3,-0.5 0.7,-0.7 1.1,-0.7 0.4,0 0.6,0.3 0.6,0.9 0.1,1.2 0.7,1.8 1.7,1.8 0.6,0 1,-0.2 1.3,-0.5 0.4,-0.4 0.6,-0.8 0.6,-1.3 0,-0.8 -0.3,-1.4 -0.8,-1.9 -0.6,-0.5 -1.3,-0.7 -2.1,-0.7 -0.9,0 -1.7,0.2 -2.2,0.6 -0.6,0.4 -1.1,0.9 -1.4,1.6 -0.4,0.7 -0.7,1.8 -1,3.1 -0.3,1.2 -0.6,2 -1,2.4 -0.3,0.5 -0.7,0.7 -1.1,0.8 -0.3,0.1 -1.2,0.1 -2.4,0.1 v -5.5 c 0,-1 0.1,-1.6 0.4,-1.9 0.3,-0.4 0.9,-0.5 1.8,-0.5 h 0.4 v -0.5 h -9.7 v 0.5 h 0.4 c 0.9,0 1.6,0.2 1.8,0.6 0.3,0.3 0.4,1.1 0.4,2.1 v 12.4 c 0,1 -0.2,1.7 -0.5,2 -0.3,0.2 -1.1,0.4 -2.1,0.4 v 0.5 h 9.7 v -0.5 c -1,0 -1.7,-0.1 -2.1,-0.3 -0.3,-0.3 -0.5,-0.9 -0.5,-1.8 v -6.2 c 0.6,0 1,0.1 1.2,0.3 0.2,0.1 0.5,0.6 1,1.4 l 3.8,7.1 h 6.2 m -26.5,-14.3 h -0.5 c -0.2,1.5 -0.5,2.5 -1,3.3 -0.6,0.7 -1.4,1.1 -2.6,1.1 h -0.3 v -7.5 h 1.9 c 1.4,0 2.3,0 2.8,0.2 0.9,0.3 1.6,0.7 2.1,1.3 0.4,0.6 0.8,1.5 1.1,2.9 h 0.5 v -5.5 h -15.5 v 0.5 h 0.6 c 0.6,0 1.1,0.1 1.4,0.4 0.3,0.1 0.4,0.4 0.5,0.7 0.1,0.2 0.1,0.7 0.1,1.6 v 12.2 c 0,0.9 -0.1,1.4 -0.2,1.7 -0.1,0.3 -0.3,0.5 -0.5,0.6 -0.3,0.2 -0.7,0.3 -1.3,0.3 h -0.6 v 0.5 h 16 l 0.8,-5.9 h -0.5 c -0.4,1.7 -1.2,2.9 -2.2,3.7 -1.1,0.8 -2.4,1.2 -4.2,1.2 h -1.1 c -0.5,0 -0.9,-0.1 -1.1,-0.2 -0.3,-0.2 -0.4,-0.3 -0.5,-0.6 -0.1,-0.2 -0.1,-0.8 -0.1,-1.9 v -5.2 c 0.8,0 1.5,0.1 2,0.4 0.4,0.2 0.9,0.7 1.2,1.3 0.4,0.7 0.6,1.6 0.7,2.6 h 0.5 v -9.7 m -12.9,-3.7 v -0.5 h -15 v 0.5 c 0.9,0 1.5,0.1 1.9,0.3 0.3,0.1 0.5,0.3 0.7,0.7 0.1,0.3 0.1,1 0.1,2 v 3.5 c 0,2.5 -0.1,4.5 -0.3,5.8 -0.2,1.4 -0.6,2.4 -1.3,3.2 -0.6,0.8 -1.2,1.2 -1.8,1.2 -0.4,0 -0.6,-0.3 -0.7,-0.9 -0.1,-1.3 -0.7,-2 -1.7,-2 -0.6,0 -1,0.2 -1.3,0.6 -0.3,0.3 -0.5,0.8 -0.5,1.4 0,0.7 0.3,1.3 0.8,1.7 0.5,0.5 1.2,0.7 2.1,0.7 0.9,0 1.8,-0.2 2.6,-0.8 0.9,-0.5 1.5,-1.3 2,-2.4 0.6,-1.1 0.9,-2.3 1,-3.5 0.1,-1.2 0.2,-3 0.2,-5.3 v -5.5 h 4.4 v 14.5 c 0,0.8 0,1.3 -0.2,1.5 -0.1,0.3 -0.4,0.5 -0.7,0.6 -0.3,0.2 -0.8,0.2 -1.5,0.2 v 0.5 h 9.3 v -0.5 c -1,0 -1.7,-0.2 -2,-0.4 -0.3,-0.3 -0.4,-1 -0.4,-2 v -12.9 c 0,-0.8 0.1,-1.4 0.4,-1.7 0.3,-0.4 0.9,-0.5 1.9,-0.5 m -29.9,-0.9 h -0.2 l -6.7,14.8 c -0.6,1.4 -1.1,2.3 -1.6,2.8 -0.4,0.4 -1,0.7 -1.6,0.8 v 0.5 h 6.2 v -0.5 c -1,0 -1.6,-0.2 -1.9,-0.3 -0.4,-0.3 -0.6,-0.6 -0.6,-1.2 0,-0.3 0.1,-0.8 0.4,-1.4 l 0.8,-1.9 h 6.5 l -0.4,-1 h -5.6 l 2.8,-6.3 2.8,6.3 0.4,1 1,2.4 c 0.3,0.6 0.4,0.9 0.4,1 0.1,0.1 0.1,0.3 0.1,0.5 0,0.2 -0.1,0.5 -0.3,0.6 -0.3,0.2 -0.8,0.3 -1.5,0.3 h -0.4 v 0.5 h 9 v -0.5 c -0.6,0 -1,-0.2 -1.3,-0.5 -0.4,-0.3 -1,-1.2 -1.6,-2.7 l -6.7,-15.2 m 41.5,-32.1 c -0.9,-0.6 -2,-0.9 -3.1,-0.9 l -0.3,0.9 c 0.3,0 0.6,0.1 0.9,0.3 0.4,0.4 0.7,1 0.9,1.8 0.4,1.4 0.6,3 0.6,4.6 0,0.8 0,1.7 -0.1,2.7 -0.6,0.3 -1.1,0.4 -1.4,0.4 -0.7,0 -1.2,-0.3 -1.6,-0.9 -0.6,-0.9 -0.9,-2.7 -0.9,-5.2 0,-1.5 0.2,-2.5 0.5,-3.1 0.3,-0.4 0.6,-0.6 1.1,-0.6 l 0.3,-0.9 c -1,0 -1.9,0.3 -2.9,0.9 -0.9,0.5 -1.7,1.3 -2.2,2.3 -0.5,1 -0.7,2.1 -0.7,3.4 0,1.7 0.4,3.1 1.4,4.1 0.9,1 2.1,1.5 3.5,1.5 0.4,0 0.8,0 1.2,-0.1 0.4,-0.2 0.9,-0.4 1.5,-0.6 -0.3,1.3 -0.7,2.4 -1.3,3.4 -0.6,1 -1.5,1.8 -2.5,2.5 -1.1,0.7 -2.3,1.2 -3.9,1.5 v 0.4 c 2.6,-0.1 4.7,-0.7 6.6,-1.7 1.8,-1.1 3.2,-2.6 4.2,-4.3 0.9,-1.8 1.4,-3.7 1.4,-5.7 0,-1.5 -0.3,-2.8 -0.9,-4 -0.5,-1.1 -1.3,-2 -2.3,-2.7 m -13.6,0.3 c -0.8,-0.8 -1.9,-1.2 -3.1,-1.2 -1.3,0 -2.4,0.4 -3.5,1.2 -1,0.7 -1.8,1.9 -2.5,3.4 l 0.5,0.2 c 0.9,-1.4 2,-2.1 3.3,-2.1 0.8,0 1.5,0.3 2,0.9 0.6,0.5 0.9,1.1 0.9,1.9 0,0.5 -0.2,1.1 -0.5,1.6 -0.3,0.6 -0.6,1 -1,1.2 -0.4,0.3 -1.1,0.5 -2.2,0.8 v 0.5 c 1.7,0.4 3,1.2 3.9,2.2 0.8,1.1 1.3,2.2 1.3,3.5 0,0.8 -0.3,1.4 -0.8,2 -0.4,0.5 -1,0.8 -1.7,0.8 -0.8,0 -1.6,-0.4 -2.5,-1.1 -0.9,-0.7 -1.4,-1.1 -1.5,-1.2 -0.3,-0.1 -0.6,-0.2 -0.9,-0.2 -0.4,0 -0.7,0.2 -1,0.5 -0.3,0.3 -0.5,0.6 -0.5,1 0,0.6 0.3,1.1 0.8,1.4 0.7,0.6 1.9,0.8 3.4,0.8 2.4,0 4.3,-0.7 5.7,-2 1.4,-1.4 2.1,-3 2.1,-4.9 0,-1.2 -0.3,-2.1 -0.9,-2.9 -0.5,-0.7 -1.4,-1.4 -2.4,-1.9 0.8,-0.5 1.4,-1 1.8,-1.7 0.4,-0.6 0.6,-1.3 0.6,-2 0,-1 -0.4,-1.9 -1.3,-2.7 m -14.4,-0.3 c -0.9,-0.6 -2,-0.9 -3.1,-0.9 l -0.3,0.9 c 0.3,0 0.6,0.1 0.9,0.3 0.4,0.4 0.7,1 0.9,1.8 0.4,1.4 0.6,3 0.6,4.6 0,0.8 0,1.7 -0.1,2.7 -0.6,0.3 -1.1,0.4 -1.4,0.4 -0.7,0 -1.2,-0.3 -1.6,-0.9 -0.6,-0.9 -0.9,-2.7 -0.9,-5.2 0,-1.5 0.2,-2.5 0.5,-3.1 0.3,-0.4 0.6,-0.6 1.1,-0.6 l 0.3,-0.9 c -1,0 -1.9,0.3 -2.9,0.9 -0.9,0.5 -1.7,1.3 -2.2,2.3 -0.5,1 -0.7,2.1 -0.7,3.4 0,1.7 0.4,3.1 1.4,4.1 0.9,1 2.1,1.5 3.5,1.5 0.4,0 0.8,0 1.2,-0.1 0.4,-0.2 0.9,-0.4 1.5,-0.6 -0.3,1.3 -0.7,2.4 -1.3,3.4 -0.6,1 -1.5,1.8 -2.5,2.5 -1.1,0.7 -2.3,1.2 -3.9,1.5 v 0.4 c 2.6,-0.1 4.7,-0.7 6.6,-1.7 1.8,-1.1 3.2,-2.6 4.2,-4.3 0.9,-1.8 1.4,-3.7 1.4,-5.7 0,-1.5 -0.3,-2.8 -0.9,-4 -0.5,-1.1 -1.3,-2 -2.3,-2.7 m -14.7,-0.9 h -0.5 l -6.8,3.1 0.3,0.5 c 0.6,-0.3 1.2,-0.4 1.7,-0.4 0.2,0 0.5,0.1 0.7,0.2 0.3,0.2 0.4,0.3 0.5,0.6 0.1,0.2 0.1,0.7 0.1,1.6 v 9.6 c 0,1.1 0,1.9 -0.2,2.2 -0.1,0.3 -0.3,0.6 -0.6,0.7 -0.4,0.2 -1,0.3 -1.7,0.3 h -0.5 v 0.5 h 9.7 v -0.5 h -0.4 c -0.7,0 -1.2,-0.1 -1.5,-0.3 -0.4,-0.2 -0.6,-0.4 -0.7,-0.7 -0.1,-0.4 -0.1,-1.1 -0.1,-2.2 v -15.2 m 116.7,-29.5 c 0,-1.1 0.2,-1.8 0.5,-2.1 0.2,-0.4 0.8,-0.5 1.7,-0.5 h 0.6 v -0.5 h -9.9 v 0.5 h 0.6 c 0.9,0 1.5,0.2 1.7,0.5 0.3,0.4 0.4,1 0.4,2 l -6.5,10.3 v -10.2 c 0,-1 0.1,-1.7 0.4,-2.1 0.3,-0.3 0.8,-0.5 1.7,-0.5 h 0.6 v -0.5 h -9.9 v 0.5 h 0.6 c 0.9,0 1.5,0.1 1.8,0.5 0.2,0.3 0.3,1 0.3,2.1 v 12.2 c 0,1.1 -0.2,1.9 -0.4,2.2 -0.3,0.4 -0.9,0.5 -1.7,0.5 h -0.6 v 0.5 h 9.9 v -0.5 h -0.6 c -1,0 -1.6,-0.2 -1.8,-0.6 -0.2,-0.3 -0.3,-1 -0.3,-1.9 l 6.5,-10.2 v 10 c 0,1.1 -0.2,1.9 -0.4,2.2 -0.3,0.4 -0.9,0.5 -1.7,0.5 h -0.6 v 0.5 h 9.9 v -0.5 h -0.6 c -0.9,0 -1.5,-0.1 -1.7,-0.5 -0.3,-0.3 -0.5,-1 -0.5,-2.2 v -12.2 m -37.3,-1.7 c 0.1,0.2 0.1,0.8 0.1,1.8 v 12.2 c 0,0.9 0,1.4 -0.1,1.7 -0.2,0.3 -0.3,0.5 -0.6,0.6 -0.3,0.2 -0.7,0.3 -1.3,0.3 h -0.6 v 0.5 h 9.7 v -0.5 h -0.6 c -0.5,0 -0.9,-0.1 -1.2,-0.2 -0.4,-0.2 -0.6,-0.4 -0.7,-0.7 -0.1,-0.2 -0.1,-0.8 -0.1,-1.7 v -5.8 h 6.5 v 5.8 c 0,0.9 0,1.4 -0.1,1.7 -0.2,0.3 -0.3,0.5 -0.6,0.6 -0.3,0.2 -0.7,0.3 -1.3,0.3 h -0.6 v 0.5 h 9.7 v -0.5 h -0.6 c -0.5,0 -0.9,-0.1 -1.2,-0.2 -0.4,-0.2 -0.6,-0.4 -0.7,-0.7 -0.1,-0.2 -0.1,-0.8 -0.1,-1.7 v -12.2 c 0,-1 0,-1.5 0.1,-1.8 0.2,-0.3 0.3,-0.5 0.6,-0.6 0.3,-0.2 0.7,-0.3 1.3,-0.3 h 0.6 v -0.5 h -9.7 v 0.5 h 0.6 c 0.5,0 0.9,0.1 1.3,0.3 0.3,0.1 0.5,0.3 0.6,0.6 0.1,0.2 0.1,0.8 0.1,1.8 v 5.2 h -6.5 v -5.2 c 0,-1 0,-1.5 0.1,-1.8 0.2,-0.3 0.3,-0.5 0.6,-0.6 0.3,-0.2 0.7,-0.3 1.3,-0.3 h 0.6 v -0.5 h -9.7 v 0.5 h 0.6 c 0.6,0 1,0.1 1.3,0.3 0.3,0.1 0.5,0.3 0.6,0.6 m -11.1,-6.9 c -0.5,0 -0.9,0.2 -1.3,0.6 -0.3,0.3 -0.5,0.8 -0.5,1.3 0,0.5 0.2,0.9 0.5,1.2 0.4,0.4 0.8,0.6 1.3,0.6 0.5,0 0.9,-0.2 1.3,-0.6 0.3,-0.3 0.5,-0.7 0.5,-1.2 0,-0.5 -0.1,-1 -0.5,-1.3 -0.3,-0.4 -0.8,-0.6 -1.3,-0.6 m -2.3,5.5 v 0.5 h 0.6 c 0.5,0 0.9,0.1 1.2,0.3 0.3,0.1 0.5,0.3 0.6,0.6 0.1,0.2 0.2,0.8 0.2,1.8 v 12.2 c 0,0.9 -0.1,1.4 -0.2,1.7 -0.1,0.3 -0.3,0.5 -0.5,0.6 -0.3,0.2 -0.7,0.3 -1.3,0.3 h -0.6 v 0.5 h 9.7 v -0.5 h -0.6 c -0.6,0 -1,-0.1 -1.3,-0.2 -0.3,-0.2 -0.5,-0.4 -0.6,-0.7 -0.1,-0.2 -0.1,-0.8 -0.1,-1.7 v -12.2 c 0,-1 0,-1.5 0.1,-1.8 0.2,-0.3 0.3,-0.5 0.6,-0.6 0.3,-0.2 0.7,-0.3 1.3,-0.3 h 0.6 v -0.5 h -9.7 m 7.4,-5.5 c -0.5,0 -0.9,0.2 -1.3,0.6 -0.3,0.3 -0.5,0.8 -0.5,1.3 0,0.5 0.2,0.9 0.5,1.2 0.4,0.4 0.8,0.6 1.3,0.6 0.5,0 1,-0.2 1.3,-0.6 0.4,-0.3 0.5,-0.7 0.5,-1.2 0,-0.5 -0.1,-1 -0.5,-1.3 -0.3,-0.4 -0.8,-0.6 -1.3,-0.6 m -17.8,5.1 h -0.3 l -6.6,14.8 c -0.7,1.4 -1.2,2.3 -1.6,2.8 -0.5,0.4 -1,0.7 -1.7,0.8 v 0.5 h 6.2 v -0.5 c -0.9,0 -1.6,-0.2 -1.8,-0.3 -0.4,-0.3 -0.6,-0.6 -0.6,-1.2 0,-0.3 0.1,-0.8 0.3,-1.4 l 0.8,-1.9 h 6.6 l -0.5,-1 h -5.6 l 2.8,-6.3 2.8,6.3 0.5,1 1,2.4 c 0.2,0.6 0.3,0.9 0.4,1 0,0.1 0.1,0.3 0.1,0.5 0,0.2 -0.1,0.5 -0.4,0.6 -0.2,0.2 -0.7,0.3 -1.5,0.3 h -0.3 v 0.5 h 8.9 v -0.5 c -0.5,0 -1,-0.2 -1.3,-0.5 -0.4,-0.3 -0.9,-1.2 -1.6,-2.7 l -6.6,-15.2 m -20.8,1.8 c 0.2,0.2 0.2,0.8 0.2,1.8 v 12.1 c 0,1 0,1.6 -0.2,1.9 -0.1,0.2 -0.3,0.4 -0.6,0.6 -0.3,0.1 -0.9,0.2 -1.8,0.2 v 0.5 h 9.5 v -0.5 c -0.9,0 -1.5,-0.1 -1.8,-0.2 -0.3,-0.2 -0.5,-0.4 -0.6,-0.6 -0.2,-0.3 -0.2,-0.9 -0.2,-1.9 v -14.2 h 0.5 c 1.2,0 2.1,0.3 2.7,0.9 0.6,0.7 0.9,1.7 0.9,3 0,1.4 -0.3,2.5 -0.9,3.1 -0.6,0.7 -1.4,1 -2.5,1 h -0.7 v 1 c 2.1,0 3.6,-0.1 4.5,-0.3 1.3,-0.3 2.3,-0.9 3.1,-1.7 0.7,-0.9 1.1,-1.9 1.1,-3.1 0,-1.5 -0.6,-2.6 -1.8,-3.6 -1.1,-0.9 -3,-1.4 -5.7,-1.4 h -8.1 v 0.5 c 0.9,0 1.5,0.1 1.8,0.2 0.3,0.2 0.5,0.4 0.6,0.7 m -4.3,2.3 c 0.4,-0.4 0.6,-0.8 0.6,-1.3 0,-0.8 -0.3,-1.4 -0.8,-1.9 -0.6,-0.5 -1.3,-0.7 -2.1,-0.7 -0.9,0 -1.7,0.2 -2.2,0.6 -0.6,0.4 -1.1,0.9 -1.4,1.6 -0.4,0.7 -0.7,1.8 -1,3.1 -0.3,1.2 -0.6,2 -1,2.4 -0.3,0.5 -0.7,0.7 -1.1,0.8 -0.3,0.1 -1.2,0.1 -2.4,0.1 v -5.5 c 0,-1 0.1,-1.6 0.4,-1.9 0.3,-0.4 0.9,-0.5 1.8,-0.5 h 0.4 v -0.5 h -9.7 v 0.5 h 0.4 c 0.9,0 1.6,0.2 1.8,0.6 0.3,0.3 0.4,1.1 0.4,2.1 v 12.4 c 0,1 -0.2,1.7 -0.5,2 -0.3,0.2 -1.1,0.4 -2.1,0.4 v 0.5 h 9.7 v -0.5 c -1,0 -1.7,-0.1 -2.1,-0.3 -0.3,-0.3 -0.5,-0.9 -0.5,-1.8 v -6.2 c 0.6,0 1,0.1 1.2,0.3 0.2,0.1 0.5,0.6 1,1.4 l 3.8,7.1 h 6.2 v -0.5 c -0.6,0 -1.1,-0.1 -1.5,-0.3 -0.4,-0.3 -0.7,-0.7 -1,-1.2 l -1.9,-3.3 c -0.9,-1.6 -1.4,-2.5 -1.7,-2.9 -0.2,-0.4 -0.5,-0.7 -0.8,-0.9 -0.3,-0.3 -0.8,-0.4 -1.4,-0.6 0.5,-0.4 0.8,-0.9 1.1,-1.5 0.2,-0.6 0.5,-1.5 0.8,-2.6 0.4,-1.2 0.7,-2.1 0.9,-2.5 0.3,-0.5 0.7,-0.7 1.1,-0.7 0.4,0 0.6,0.3 0.6,0.9 0.1,1.2 0.7,1.8 1.7,1.8 0.6,0 1,-0.2 1.3,-0.5 m -31.8,-1.6 c -0.2,-0.4 -0.3,-0.7 -0.3,-0.8 0,-0.6 0.5,-0.8 1.6,-0.8 h 0.4 v -0.5 h -9.3 v 0.5 c 0.8,0 1.4,0.2 1.8,0.5 0.5,0.3 1,1 1.5,2 l 6.6,12 -0.2,0.6 c -0.6,1.2 -1.2,1.8 -1.9,1.8 -0.5,0 -0.8,-0.4 -0.9,-1.2 -0.1,-0.6 -0.3,-1.1 -0.5,-1.3 -0.2,-0.3 -0.6,-0.4 -1.1,-0.4 -0.5,0 -1,0.2 -1.3,0.5 -0.4,0.4 -0.5,0.8 -0.5,1.3 0,0.7 0.2,1.3 0.7,1.8 0.5,0.6 1.3,0.8 2.3,0.8 0.9,0 1.7,-0.2 2.3,-0.6 0.7,-0.4 1.5,-1.5 2.4,-3.3 l 5.7,-11.3 c 0.7,-1.2 1.2,-2.1 1.6,-2.5 0.4,-0.4 0.9,-0.7 1.6,-0.7 v -0.5 h -6.2 v 0.5 c 1.1,0 1.9,0.1 2.1,0.3 0.3,0.2 0.5,0.5 0.5,0.8 0,0.4 -0.3,1.1 -0.8,2 l -3.5,7 -4.6,-8.5 m 196.1,-40.6 c -0.5,0 -1,0.2 -1.3,0.6 -0.4,0.3 -0.5,0.8 -0.5,1.3 0,0.5 0.1,0.9 0.5,1.2 0.3,0.4 0.8,0.6 1.3,0.6 0.5,0 0.9,-0.2 1.3,-0.6 0.3,-0.3 0.5,-0.7 0.5,-1.2 0,-0.5 -0.2,-1 -0.5,-1.3 -0.4,-0.4 -0.8,-0.6 -1.3,-0.6 m 0.3,6.3 c 0.4,-0.2 0.8,-0.3 1.3,-0.3 h 0.6 v -0.5 h -9.7 v 0.5 h 0.7 c 0.5,0 0.9,0.1 1.2,0.3 0.3,0.1 0.5,0.3 0.6,0.6 0.1,0.2 0.1,0.8 0.1,1.8 v 12.2 c 0,0.9 0,1.4 -0.1,1.7 -0.1,0.3 -0.3,0.5 -0.6,0.6 -0.3,0.2 -0.7,0.3 -1.2,0.3 h -0.7 v 0.5 h 9.7 v -0.5 h -0.6 c -0.5,0 -0.9,-0.1 -1.2,-0.2 -0.3,-0.2 -0.5,-0.4 -0.6,-0.7 -0.1,-0.2 -0.2,-0.8 -0.2,-1.7 v -12.2 c 0,-1 0.1,-1.5 0.2,-1.8 0.1,-0.3 0.3,-0.5 0.5,-0.6 m -5.4,-6.3 c -0.5,0 -1,0.2 -1.3,0.6 -0.4,0.3 -0.6,0.8 -0.6,1.3 0,0.5 0.2,0.9 0.6,1.2 0.3,0.4 0.8,0.6 1.3,0.6 0.5,0 0.9,-0.2 1.2,-0.6 0.4,-0.3 0.6,-0.7 0.6,-1.2 0,-0.5 -0.2,-1 -0.5,-1.3 -0.4,-0.4 -0.8,-0.6 -1.3,-0.6 m -6,20.9 c 1.4,-1.8 2.1,-3.9 2.1,-6.2 0,-2.8 -1,-5 -2.8,-6.9 -1.9,-1.8 -4.3,-2.7 -7.2,-2.6 l 0.2,0.9 c 0.9,0 1.7,0.3 2.4,0.8 0.7,0.5 1.3,1.3 1.7,2.5 0.5,1.3 0.7,3.1 0.7,5.5 0,2.1 -0.2,3.8 -0.6,5.1 -0.5,1.2 -1.1,2.2 -1.9,2.7 -0.7,0.5 -1.4,0.7 -2.4,0.7 -1.4,0 -2.5,-0.5 -3.2,-1.6 -1.1,-1.5 -1.7,-3.8 -1.7,-7 0,-2.6 0.4,-4.7 1.1,-6.1 0.9,-1.7 2.2,-2.6 3.9,-2.6 l -0.2,-0.9 c -2.8,-0.1 -5.1,0.8 -6.9,2.6 -1.9,1.9 -2.8,4.2 -2.8,6.9 0,2.5 0.7,4.6 2.1,6.4 1.9,2.2 4.4,3.3 7.8,3.3 3.3,0 5.9,-1.2 7.7,-3.5 m -19.5,-14.9 c -0.5,-0.5 -1.2,-0.7 -2.1,-0.7 -0.9,0 -1.6,0.2 -2.2,0.6 -0.6,0.4 -1,0.9 -1.4,1.6 -0.3,0.7 -0.6,1.8 -1,3.1 -0.3,1.2 -0.6,2 -0.9,2.4 -0.4,0.5 -0.7,0.7 -1.1,0.8 -0.4,0.1 -1.2,0.1 -2.5,0.1 v -5.5 c 0,-1 0.2,-1.6 0.5,-1.9 0.3,-0.4 0.9,-0.5 1.8,-0.5 h 0.3 v -0.5 h -9.7 v 0.5 h 0.4 c 1,0 1.6,0.2 1.9,0.6 0.2,0.3 0.3,1.1 0.3,2.1 v 12.4 c 0,1 -0.1,1.7 -0.4,2 -0.4,0.2 -1.1,0.4 -2.2,0.4 v 0.5 h 9.7 v -0.5 c -1,0 -1.7,-0.1 -2,-0.3 -0.4,-0.3 -0.6,-0.9 -0.6,-1.8 v -6.2 c 0.6,0 1,0.1 1.3,0.3 0.2,0.1 0.5,0.6 0.9,1.4 l 3.8,7.1 h 6.2 v -0.5 c -0.5,0 -1,-0.1 -1.4,-0.3 -0.4,-0.3 -0.8,-0.7 -1.1,-1.2 l -1.9,-3.3 c -0.8,-1.6 -1.4,-2.5 -1.6,-2.9 -0.3,-0.4 -0.5,-0.7 -0.9,-0.9 -0.3,-0.3 -0.7,-0.4 -1.3,-0.6 0.4,-0.4 0.8,-0.9 1,-1.5 0.3,-0.6 0.5,-1.5 0.9,-2.6 0.3,-1.2 0.6,-2.1 0.9,-2.5 0.3,-0.5 0.6,-0.7 1.1,-0.7 0.3,0 0.5,0.3 0.6,0.9 0.1,1.2 0.6,1.8 1.7,1.8 0.5,0 0.9,-0.2 1.3,-0.5 0.3,-0.4 0.5,-0.8 0.5,-1.3 0,-0.8 -0.2,-1.4 -0.8,-1.9 m -29.7,2.5 c 0,-0.9 0.1,-1.4 0.2,-1.7 l 0.6,-0.6 c 0.3,-0.1 0.9,-0.2 1.8,-0.2 v -0.5 h -9.6 v 0.5 c 1.2,0 1.9,0.2 2.2,0.5 0.2,0.2 0.4,1 0.4,2.4 v 12.3 c 0,0.9 -0.2,1.6 -0.5,1.9 -0.3,0.2 -1.1,0.4 -2.2,0.4 v 0.5 h 9.9 c 1.8,0 3.1,-0.2 4,-0.5 1,-0.4 1.7,-1 2.3,-1.7 0.6,-0.8 0.9,-1.7 0.9,-2.8 0,-1.5 -0.6,-2.8 -1.8,-3.7 -1.1,-0.9 -3.1,-1.4 -5.7,-1.4 h -2.5 v 1.2 c 1.2,0 2,0.1 2.6,0.3 0.6,0.2 1.2,0.6 1.7,1.3 0.5,0.7 0.7,1.6 0.7,2.6 0,1.1 -0.3,2 -0.8,2.7 -0.6,0.8 -1.4,1.1 -2.4,1.1 -0.7,0 -1.1,-0.2 -1.4,-0.5 -0.2,-0.4 -0.4,-1 -0.4,-1.9 v -12.2 m -10.8,-2.1 c -0.2,0 -0.7,-0.1 -1.6,-0.5 -1.4,-0.5 -2.8,-0.8 -4.1,-0.8 -1.8,0 -3.5,0.4 -5,1.3 -1.6,0.8 -2.8,2.1 -3.8,3.7 -0.9,1.5 -1.4,3.2 -1.4,5 0,1.7 0.4,3.3 1.3,4.7 0.8,1.5 2,2.7 3.5,3.5 1.6,0.7 3.3,1.1 5.3,1.1 1.5,0 2.8,-0.2 4,-0.7 1.1,-0.5 2.2,-1.3 3.2,-2.3 v -1.6 c -1.1,1.2 -2.1,2.1 -3.1,2.6 -0.9,0.5 -2,0.8 -3.2,0.8 -1.4,0 -2.6,-0.4 -3.4,-1.1 -0.9,-0.7 -1.6,-1.7 -2,-3.1 -0.4,-1.3 -0.6,-2.9 -0.6,-4.5 0,-1.7 0.3,-3.2 0.8,-4.6 0.5,-1.1 1.2,-2 2.1,-2.6 1,-0.7 2.1,-1 3.2,-1 1.4,0 2.6,0.4 3.7,1.3 1.1,0.9 1.9,2.2 2.3,3.9 h 0.5 v -6.4 h -0.5 c -0.1,0.4 -0.2,0.8 -0.4,1 -0.3,0.2 -0.5,0.3 -0.8,0.3 m -20.9,0.4 c 0.6,0.3 1.1,0.7 1.4,1.2 0.4,0.5 0.7,1.4 1,2.5 h 0.5 v -5 h -16.7 v 5 h 0.6 c 0.2,-1.3 0.7,-2.4 1.5,-3.2 0.5,-0.5 1.4,-0.7 2.7,-0.7 h 1.3 v 14.3 c 0,0.9 0,1.4 -0.1,1.7 -0.2,0.3 -0.3,0.5 -0.6,0.6 -0.3,0.2 -0.7,0.3 -1.3,0.3 h -0.6 v 0.5 h 9.7 v -0.5 h -0.6 c -0.6,0 -1,-0.1 -1.3,-0.2 -0.3,-0.2 -0.5,-0.4 -0.6,-0.7 -0.1,-0.2 -0.1,-0.8 -0.1,-1.7 v -14.3 h 1.3 c 0.9,0 1.5,0 1.9,0.2 m -22.2,-1.7 h -0.2 l -6.7,14.8 c -0.6,1.4 -1.1,2.3 -1.6,2.8 -0.4,0.4 -1,0.7 -1.6,0.8 v 0.5 h 6.2 v -0.5 c -1,0 -1.6,-0.2 -1.9,-0.3 -0.4,-0.3 -0.6,-0.6 -0.6,-1.2 0,-0.3 0.1,-0.8 0.4,-1.4 l 0.8,-1.9 h 6.5 l -0.4,-1 h -5.6 l 2.8,-6.3 2.8,6.3 0.4,1 1,2.4 c 0.3,0.6 0.4,0.9 0.4,1 0.1,0.1 0.1,0.3 0.1,0.5 0,0.2 -0.1,0.5 -0.3,0.6 -0.3,0.2 -0.8,0.3 -1.5,0.3 h -0.4 v 0.5 h 9 v -0.5 c -0.6,0 -1,-0.2 -1.3,-0.5 -0.4,-0.3 -1,-1.2 -1.6,-2.7 l -6.7,-15.2 m -13.5,3.6 c 0,-1.1 0.1,-1.8 0.4,-2.2 0.3,-0.3 0.9,-0.5 1.7,-0.5 h 0.5 v -0.5 h -20.7 v 0.5 h 0.6 c 0.9,0 1.4,0.1 1.7,0.5 0.2,0.3 0.3,1.1 0.3,2.2 v 12.1 c 0,1.2 -0.1,1.9 -0.4,2.3 -0.2,0.3 -0.8,0.4 -1.6,0.4 h -0.6 v 0.5 h 9.7 v -0.5 h -0.5 c -0.8,0 -1.4,-0.1 -1.7,-0.4 -0.3,-0.3 -0.4,-1.1 -0.4,-2.3 v -14.1 h 6.5 v 14.1 c 0,1.1 -0.1,1.8 -0.3,2.1 -0.2,0.4 -0.8,0.6 -1.7,0.6 h -0.6 v 0.5 h 9.7 v -0.5 h -0.4 c -0.9,0 -1.4,-0.1 -1.7,-0.4 -0.4,-0.3 -0.5,-1.1 -0.5,-2.3 v -12.1 m -21.2,-1.8 c -1.2,-0.9 -3.1,-1.4 -5.7,-1.4 h -8.1 v 0.5 c 0.8,0 1.4,0.1 1.7,0.2 0.3,0.2 0.5,0.4 0.7,0.7 0.1,0.2 0.2,0.8 0.2,1.8 v 12.1 c 0,1 -0.1,1.6 -0.2,1.9 -0.2,0.2 -0.4,0.4 -0.7,0.6 -0.3,0.1 -0.9,0.2 -1.7,0.2 v 0.5 h 9.4 v -0.5 c -0.8,0 -1.4,-0.1 -1.7,-0.2 -0.3,-0.2 -0.5,-0.4 -0.7,-0.6 -0.1,-0.3 -0.2,-0.9 -0.2,-1.9 v -14.2 h 0.6 c 1.2,0 2.1,0.3 2.7,0.9 0.6,0.7 0.9,1.7 0.9,3 0,1.4 -0.3,2.5 -0.9,3.1 -0.6,0.7 -1.5,1 -2.6,1 h -0.7 v 1 c 2.1,0 3.6,-0.1 4.5,-0.3 1.3,-0.3 2.4,-0.9 3.1,-1.7 0.8,-0.9 1.1,-1.9 1.1,-3.1 0,-1.5 -0.6,-2.6 -1.7,-3.6 m -14.8,17.1 v -0.5 c -0.6,0 -1,-0.2 -1.3,-0.5 -0.4,-0.3 -1,-1.2 -1.6,-2.7 l -6.7,-15.2 h -0.2 l -6.7,14.8 c -0.6,1.4 -1.1,2.3 -1.6,2.8 -0.4,0.4 -1,0.7 -1.6,0.8 v 0.5 h 6.2 v -0.5 c -1,0 -1.6,-0.2 -1.9,-0.3 -0.4,-0.3 -0.6,-0.6 -0.6,-1.2 0,-0.3 0.1,-0.8 0.4,-1.4 l 0.8,-1.9 h 6.5 l -0.4,-1 h -5.6 l 2.8,-6.3 2.8,6.3 0.4,1 1,2.4 c 0.3,0.6 0.4,0.9 0.4,1 0.1,0.1 0.1,0.3 0.1,0.5 0,0.2 -0.1,0.5 -0.3,0.6 -0.3,0.2 -0.8,0.3 -1.5,0.3 h -0.4 v 0.5 h 9 m -20.6,-16.1 c 0,-0.8 -0.2,-1.4 -0.8,-1.9 -0.5,-0.5 -1.2,-0.7 -2.1,-0.7 -0.9,0 -1.6,0.2 -2.2,0.6 -0.6,0.4 -1,0.9 -1.4,1.6 -0.3,0.7 -0.6,1.8 -1,3.1 -0.3,1.2 -0.6,2 -0.9,2.4 -0.4,0.5 -0.7,0.7 -1.1,0.8 -0.4,0.1 -1.2,0.1 -2.5,0.1 v -5.5 c 0,-1 0.2,-1.6 0.5,-1.9 0.3,-0.4 0.9,-0.5 1.8,-0.5 h 0.3 v -0.5 h -9.7 v 0.5 h 0.4 c 1,0 1.6,0.2 1.9,0.6 0.2,0.3 0.3,1.1 0.3,2.1 v 12.4 c 0,1 -0.1,1.7 -0.4,2 -0.4,0.2 -1.1,0.4 -2.2,0.4 v 0.5 h 9.7 v -0.5 c -1,0 -1.7,-0.1 -2,-0.3 -0.4,-0.3 -0.6,-0.9 -0.6,-1.8 v -6.2 c 0.6,0 1,0.1 1.3,0.3 0.2,0.1 0.5,0.6 0.9,1.4 l 3.8,7.1 h 6.2 v -0.5 c -0.5,0 -1,-0.1 -1.4,-0.3 -0.4,-0.3 -0.8,-0.7 -1.1,-1.2 l -1.9,-3.3 c -0.8,-1.6 -1.4,-2.5 -1.6,-2.9 -0.3,-0.4 -0.5,-0.7 -0.9,-0.9 -0.3,-0.3 -0.7,-0.4 -1.3,-0.6 0.4,-0.4 0.8,-0.9 1,-1.5 0.3,-0.6 0.5,-1.5 0.9,-2.6 0.3,-1.2 0.6,-2.1 0.9,-2.5 0.3,-0.5 0.6,-0.7 1.1,-0.7 0.3,0 0.5,0.3 0.6,0.9 0.1,1.2 0.6,1.8 1.7,1.8 0.5,0 0.9,-0.2 1.3,-0.5 0.3,-0.4 0.5,-0.8 0.5,-1.3 m 34.4,-35.4 v 0.5 c 1.2,0 1.9,0.1 2.2,0.5 0.4,0.3 0.5,0.9 0.5,2 v 12.7 c 0,0.9 -0.1,1.6 -0.4,1.9 -0.4,0.2 -1.1,0.4 -2.3,0.4 v 0.5 h 10 c 1.7,0 3.1,-0.2 4,-0.5 0.9,-0.4 1.7,-1 2.3,-1.7 0.6,-0.8 0.9,-1.7 0.9,-2.8 0,-1.5 -0.6,-2.8 -1.8,-3.7 -1.2,-0.9 -3.1,-1.4 -5.8,-1.4 h -2.4 v 1.2 c 1.1,0 2,0.1 2.6,0.3 0.6,0.2 1.1,0.6 1.6,1.3 0.5,0.7 0.8,1.6 0.8,2.6 0,1.1 -0.3,2 -0.9,2.7 -0.5,0.8 -1.3,1.1 -2.4,1.1 -0.6,0 -1.1,-0.2 -1.3,-0.5 -0.3,-0.4 -0.4,-1 -0.4,-1.9 v -14 h 3.4 c 1.1,0 2,0.1 2.6,0.3 0.5,0.3 1,0.7 1.4,1.2 0.5,0.6 0.8,1.4 0.9,2.3 h 0.5 v -5 h -16 m -16.8,0 v 0.5 c 0.8,0 1.4,0.1 1.7,0.2 0.3,0.2 0.5,0.4 0.7,0.7 0.1,0.2 0.2,0.8 0.2,1.8 v 12.1 c 0,1 -0.1,1.6 -0.2,1.9 -0.2,0.2 -0.4,0.4 -0.7,0.6 -0.3,0.1 -0.9,0.2 -1.7,0.2 v 0.5 h 9.4 v -0.5 c -0.8,0 -1.4,-0.1 -1.7,-0.2 -0.3,-0.2 -0.5,-0.4 -0.7,-0.6 -0.1,-0.3 -0.2,-0.9 -0.2,-1.9 v -14.2 h 0.6 c 1.2,0 2.1,0.3 2.7,0.9 0.6,0.7 0.9,1.7 0.9,3 0,1.4 -0.3,2.5 -0.9,3.1 -0.6,0.7 -1.5,1 -2.6,1 h -0.7 v 1 c 2.1,0 3.6,-0.1 4.5,-0.3 1.3,-0.3 2.4,-0.9 3.1,-1.7 0.8,-0.9 1.1,-1.9 1.1,-3.1 0,-1.5 -0.6,-2.6 -1.7,-3.6 -1.2,-0.9 -3.1,-1.4 -5.7,-1.4 h -8.1 m -3.3,0 h -15.6 v 0.5 h 0.7 c 0.6,0 1,0.1 1.4,0.4 0.2,0.1 0.4,0.4 0.5,0.7 v 13.8 c 0,0.9 0,1.4 -0.1,1.7 -0.1,0.3 -0.3,0.5 -0.6,0.6 -0.3,0.2 -0.7,0.3 -1.2,0.3 h -0.7 v 0.5 h 16.1 l 0.8,-5.9 h -0.5 c -0.5,1.7 -1.2,2.9 -2.3,3.7 -1,0.8 -2.4,1.2 -4.1,1.2 h -1.1 c -0.6,0 -0.9,-0.1 -1.2,-0.2 -0.2,-0.2 -0.4,-0.3 -0.5,-0.6 0,-0.2 -0.1,-0.8 -0.1,-1.9 v -5.2 c 0.9,0 1.6,0.1 2,0.4 0.5,0.2 0.9,0.7 1.3,1.3 0.3,0.7 0.5,1.6 0.6,2.6 h 0.6 v -9.7 h -0.6 c -0.1,1.5 -0.4,2.5 -1,3.3 -0.5,0.7 -1.4,1.1 -2.5,1.1 h -0.4 v -7.5 h 1.9 c 1.4,0 2.4,0 2.9,0.2 0.9,0.3 1.6,0.7 2,1.3 0.5,0.6 0.9,1.5 1.1,2.9 h 0.6 v -5.5 m -17,0 h -16.4 v 0.5 h 0.6 c 0.9,0 1.4,0.2 1.7,0.5 0.2,0.4 0.3,1 0.3,1.8 v 12.8 c 0,1 -0.1,1.7 -0.4,2 -0.3,0.3 -0.8,0.4 -1.6,0.4 h -0.6 v 0.5 h 9.7 v -0.5 h -0.5 c -0.8,0 -1.3,-0.1 -1.6,-0.4 -0.4,-0.3 -0.5,-1 -0.5,-2 v -14.4 h 3.8 c 1.4,0 2.4,0.1 2.9,0.2 0.5,0.2 0.9,0.5 1.2,1 0.4,0.5 0.7,1.4 0.9,2.6 h 0.5 v -5"
         id="path49800"
         style="stroke-width:4.08045" />
      <path
         d="m 1.25,529.05 c 0.8,28.5 20.2,42.6 58.4,42.4 h 147.8 c 16.6,0.6 28.8,7.6 36.6,21.1 V 1.25 H 1.25 v 527.8"
         fill="#2475b1"
         id="path49802"
         style="stroke-width:1.81354" />
      <g
         fill="#fdcc00"
         id="g49806"
         style="stroke-width:1.81354">
        <path
           d="m 244.05,327.25 v -81.5 H 1.25 v 81.5 h 242.8 m 0,-163 V 82.75 H 1.25 v 81.5 h 242.8 M 1.25,408.65 v 81.2 h 242.8 v -81.2 H 1.25"
           id="path49804"
           style="stroke-width:4.08045" />
      </g>
      <path
         d="m 440.75,33.45 c -4,0 -7.9,-0.1 -11.8,-0.3 -2.5,-0.2 -4.8,-0.1 -7.1,0.4 0.3,-4.6 -0.9,-8 -3.6,-10.2 -5.2,1.2 -9,3.4 -11.5,6.8 -1.5,-0.8 -3,-1.5 -4.5,-2 -1.2,-0.5 -2.5,-0.9 -3.8,-1.2 -5.5,-1.1 -10.7,-1.2 -15.7,-0.1 l -1.6,8.2 c -2.1,4.1 -1.7,7.4 1.3,10 0.6,0.6 1.5,0.8 2.6,0.5 3.2,-1.1 4.7,-2.6 4.5,-4.6 1.8,1 3.9,1.6 6.3,1.8 0.8,0.4 0.2,2 -1.7,4.8 -1.5,2.1 -3.2,3.3 -5.2,3.6 -5.5,1 -10.5,-0.7 -15,-5.1 2.1,-2.5 3.1,-5.8 2.9,-10 1.5,-0.2 2.9,-0.6 4.3,-1 l 1.6,-8.2 c -5,1.1 -10,1.4 -15.2,0.9 -0.7,1.7 -1.1,3.2 -1.1,4.4 -2.2,-0.3 -4.5,-0.5 -6.6,-0.6 -3.6,-0.1 -7.1,0 -10.5,0.5 -4.1,0.5 -8.5,0.6 -13.3,0.4 0.6,3.6 1.5,7 2.6,10.2 -1,4.8 -0.9,9.1 0.4,12.9 1.1,3.3 3.5,6 7.3,8 -0.1,6.1 2.1,10.6 6.5,13.5 0.9,0.5 1.9,0.8 3.2,0.9 -0.9,-3.9 -0.5,-7.5 1.1,-10.8 0.9,0.1 1.6,0.1 2.3,0 0.9,1.9 2.1,3.7 3.8,5.2 1.6,1.5 3.6,2.8 5.9,3.8 0.2,0 0.4,0.1 0.6,0.2 4.5,1.9 8.4,4.5 11.7,7.9 0.4,0.4 0.7,0.8 1.1,1.2 -2.5,-0.5 -5,-1.1 -7.5,-1.8 -2.2,-0.6 -4.5,-1 -6.7,-1.1 -3.1,-0.3 -6.2,-0.1 -9.3,0.3 -5,0.7 -9.8,1.5 -14.5,2.3 -5.6,1.1 -10.9,0.8 -15.9,-0.7 -5.3,-1.7 -8.8,-4.6 -10.6,-8.8 0.8,5.4 3.2,9.8 7.2,13.1 4.3,3.4 9,5.4 14.2,5.8 6,0.5 10.9,-0.2 14.8,-2.2 l 5.9,-1.4 c 4.2,-0.6 8.3,-0.4 12.1,0.6 3.8,1 7.5,3 11.2,6.2 -0.9,1.3 -2.4,1.8 -4.5,1.5 -4.5,-0.6 -8.8,-1.3 -13,-2 -2.8,-1.6 -4.7,-3.7 -5.8,-6.3 l -5.9,1.4 c -0.8,1.9 -1.4,4.1 -1.6,6.8 0.4,4.8 3.1,6.8 8,5.9 4.6,0.3 9.1,1.7 13.6,4.2 2.6,1.4 5.4,2.4 8.3,3 -2.7,3.5 -5,7.6 -6.8,12.4 -2,5.1 -4,10.2 -6.1,15.2 -1.6,3.8 -3.1,7.1 -4.5,10 -1.8,2.5 -3.7,5.5 -5.7,8.9 -1.8,3 -3.6,6.3 -5.3,9.7 -1.7,3.4 -3.4,6.7 -5,10 -1.8,3.3 -3.5,6.6 -5.1,10.1 -1.5,3.2 -3.3,6.4 -5.4,9.5 -1.8,2.8 -4,5.5 -6.4,8 -2.6,2.5 -5.4,4.8 -8.4,6.7 -2.9,1.9 -6.1,3.5 -9.6,4.7 -1.4,0.5 -2.9,0.8 -4.6,0.8 h -24.7 c -4.2,-0.2 -8.2,-0.4 -11.8,-0.5 -4,-0.2 -7,0.9 -8.9,3.3 l -0.3,0.3 c -4.3,-0.1 -7.2,1.4 -8.8,4.6 -0.5,0.9 -0.9,1.8 -1.1,2.7 1.3,-1.3 3.4,-1.5 6.4,-0.6 -0.5,0.4 -1,0.8 -1.4,1.2 -2.6,2.4 -4.5,5.1 -5.6,8.2 -2.7,2.1 -3.9,5.4 -3.6,9.9 v 2 c 2,-2.4 4.4,-4.5 7.3,-6.1 0.3,-0.2 0.7,-0.4 0.9,-0.6 -0.2,2.3 0.9,3.6 3.2,3.9 1,1.1 1.4,2.3 1.4,3.9 -1.5,1.1 -3,3.4 -4.3,7 -0.4,1 -0.6,2.1 -0.6,3.4 v 2.6 c 2.5,-1.4 4.9,-3.3 7.3,-5.8 1.9,0.2 3.5,0.7 5,1.4 0.1,0.1 0.2,0.1 0.3,0.2 0.2,0.1 0.4,0.2 0.7,0.4 -0.4,0.3 -0.7,0.7 -1,1.2 -1.8,2.6 -2.5,5.4 -1.9,8.4 1.7,-2.7 3.9,-4.9 6.5,-6.6 0.1,0 0.2,-0.1 0.2,-0.1 3.6,0.6 7.1,0.6 10.7,0 1.9,-0.4 3.2,-1.7 3.9,-4 0.3,-1.6 1.6,-2.1 3.9,-1.5 2.1,-1.8 4.5,-3.2 7.1,-4.1 0.7,-0.3 1.4,-0.5 2.1,-0.7 l -0.1,1 c 2.8,0.5 5.7,0.6 8.6,0.6 3.7,-0.1 7,0.6 9.9,1.9 2.9,1.5 6.2,2.4 10,2.9 2,0.3 4,0.4 6,0.5 -0.4,4.3 -1.8,7.6 -4.3,9.8 -2.3,2.1 -4.8,4 -7.5,6 -2.7,2 -5.3,4.5 -7.7,7.3 -1.7,2 -2.9,4.3 -3.5,7 -0.2,0.9 -0.3,1.9 -0.4,3 -0.4,2.9 -0.4,6.7 -0.1,11.2 2,-2.9 4.3,-5.1 7,-6.8 l -0.2,-0.3 h 0.6 c -0.4,1.9 -0.5,3.5 -0.5,4.9 -0.5,3.3 -0.7,7 -0.5,11.2 0,0.8 0.1,1.6 0.4,2.3 2,-2.5 4.1,-4.5 6.4,-6.3 0.4,0 0.8,-0.1 1.1,-0.3 0.1,3.4 0.5,6.3 1.2,8.6 2,-3.5 4.2,-6.3 6.6,-8.5 0.3,0 0.5,-0.1 0.8,-0.2 0.3,-0.2 0.6,-0.3 1,-0.5 0.1,-0.1 0.2,-0.1 0.3,-0.2 1.1,-0.6 1.8,-1.5 2.2,-2.7 0.5,1.5 1.2,2.5 2.3,3.3 -1,3.5 -0.1,6.2 2.5,8 0.5,-2.5 1,-4.8 1.2,-6.8 0.7,0 1.5,-0.1 2.3,-0.2 3.7,-0.4 5.3,-3.1 4.7,-8 -0.5,-4.5 0.5,-7.6 3.2,-9.5 1.5,-1 2.7,-1.9 3.7,-2.6 l -5.5,-8.3 h -0.1 v -0.2 c 0,0.1 0,0.1 0.1,0.2 l 5.5,8.3 c 0.9,1.6 1.8,3.3 2.5,5.1 1.3,3.3 1.8,7.1 1.6,11.3 -0.1,3.9 -0.3,7.7 -0.5,11.5 -0.2,4.1 -0.6,8 -1,11.8 -0.6,3.9 -0.8,7.9 -0.7,11.9 v 11.8 c 0,0.9 0,2.9 0.1,6.1 h 0.3 c -0.1,0.2 -0.2,0.4 -0.3,0.7 -1.4,3 -3,6.1 -4.8,9.1 -1.9,3.1 -3.8,6.2 -5.6,9.2 -1.9,3.2 -3.6,6.5 -5,9.8 a 81.4,81.4 0 0 0 -3.9,10.5 c -1.2,3.4 -2.2,6.9 -3.2,10.4 -1.2,3.8 -2.3,7.6 -3.4,11.3 -1.2,3.8 -2,7.6 -2.5,11.5 -0.5,3.9 -1.1,7.8 -1.5,11.5 -0.6,3.7 -1,7.7 -1.1,11.7 -0.2,4 -0.4,8 -0.4,12 -0.1,4 -0.3,7.9 -0.6,11.8 -0.3,3.9 -0.4,7.9 -0.4,11.9 v 2.7 c -0.1,1 -0.1,1.9 -0.1,2.9 -4.9,1.1 -8.2,1.7 -9.8,1.7 -0.5,-0.1 -1,0 -1.6,0 -1.2,-2.3 -2.7,-4.2 -4.6,-5.7 -1.7,-1.4 -3.3,-2.8 -5,-4.2 -0.8,-0.7 -1.7,-1.4 -2.5,-2.1 -2.9,-2.3 -6.2,-3.4 -9.9,-3 -0.8,0 -1.7,0.1 -2.5,0.1 2,1 3.7,2.5 4.9,4.6 -1.6,2 -2,4.7 -1.3,8.2 v 0.1 -0.1 c -0.2,-0.1 -0.4,-0.2 -0.7,-0.2 -3.3,-1.1 -6.7,-0.8 -10.3,0.7 -2.6,1.1 -4.6,2.4 -6.1,3.8 3.3,-0.2 6.6,0 9.9,0.4 0.2,0 0.5,0.1 0.8,0.1 l -0.8,-0.1 c -0.7,5.1 0.1,8.8 2.1,11 -0.1,0.2 -0.3,0.3 -0.5,0.4 -0.5,0.4 -1.1,0.8 -1.6,1.3 -2.1,1.8 -4,3.8 -5.5,6.1 -1.4,2.3 -2.5,4.3 -3.4,6.1 1.5,-2.1 4.5,-3 8.8,-2.6 -0.4,3.8 1.2,5.6 4.9,5.3 -0.3,0.3 -0.6,0.7 -0.9,1 -2.6,3 -4.3,6 -5.2,9 1.2,-2.2 3.3,-3.4 6.4,-3.6 1.3,3.2 4,4.7 8.3,4.4 2.5,-0.1 4.7,-0.9 6.5,-2.3 0.3,-0.2 0.5,-0.5 0.8,-0.7 3,0.4 6,0.9 9,1.4 0.5,0.1 1.1,0.2 1.6,0.4 1.9,0.4 3.6,0.8 5.2,1.4 1.5,0.4 3.1,0.6 4.7,0.7 3.4,0.1 6.8,0 10.5,-0.3 3.4,-0.3 6.6,-0.8 9.4,-1.5 2.9,-0.6 5.4,-2.1 7.7,-4.2 2.2,-2.2 4.5,-5.4 6.6,-9.5 2.1,-4.1 3.5,-8 4.2,-11.6 0.5,-3.6 0.8,-7.3 0.8,-11 -0.1,-3.7 -0.1,-7.4 -0.1,-11.1 v -11.9 c 0,-2.1 0,-3.9 0.1,-5.5 2.8,-1.6 5.6,-3.1 8.4,-4.6 3.1,-1.8 6.2,-3.5 9,-5.4 2.7,-1.7 5.5,-3.5 8.4,-5.3 2.8,-1.9 5.4,-4 7.8,-6.3 2.4,-2.2 4.3,-4.5 5.9,-6.9 0.5,3.4 1.2,6.2 2.2,8.4 1.4,3.3 2.7,6.6 4,10 1.3,3.1 3,6.3 4.9,9.5 1.6,2.5 3.4,5.4 5.6,8.5 1.9,3.1 4.2,5.8 6.7,8.2 2,2 3.2,4.5 3.5,7.5 0.3,3 0.3,5.9 0,8.6 -2,-0.6 -3.9,-1.4 -5.6,-2.2 -1.5,-0.8 -1.8,-1.4 -0.9,-2.1 -1.2,-2.3 -2.8,-4.2 -4.6,-5.7 -1.7,-1.4 -3.4,-2.8 -5,-4.1 -0.9,-0.8 -1.7,-1.5 -2.5,-2.2 -2.9,-2.3 -6.2,-3.4 -9.9,-3 -0.9,0.1 -1.7,0.1 -2.5,0.1 2,1 3.7,2.5 4.8,4.6 -1.5,2 -2,4.7 -1.2,8.2 v 0.1 -0.1 c -0.3,-0.1 -0.5,-0.2 -0.7,-0.2 -3.4,-1.1 -6.8,-0.8 -10.3,0.7 -2.6,1.2 -4.7,2.4 -6.2,3.9 3.4,-0.2 6.7,-0.1 10,0.3 0.2,0 0.5,0.1 0.8,0.1 h -0.8 c -0.7,5.1 0,8.7 2.1,11 -0.1,0.1 -0.3,0.2 -0.5,0.4 -0.5,0.4 -1.1,0.8 -1.6,1.2 -2.2,1.8 -4,3.8 -5.5,6.1 -1.4,2.3 -2.5,4.3 -3.5,6.1 1.6,-2.1 4.5,-3 8.8,-2.6 -0.4,3.8 1.3,5.6 5,5.3 -0.4,0.3 -0.7,0.7 -0.9,1 -2.7,3 -4.4,6 -5.2,9 1.1,-2.2 3.3,-3.4 6.3,-3.6 1.4,3.2 4.1,4.7 8.3,4.4 2.5,-0.1 4.7,-0.9 6.6,-2.3 l 0.7,-0.7 c -0.1,0.2 -0.3,0.4 -0.5,0.5 5.6,-0.4 9.6,-0.4 12,0.1 3.3,0.8 6.8,1.1 10.6,0.9 l 10.8,-0.3 c 3.4,-0.1 6.6,-0.9 9.8,-2.3 2.7,-1.4 4.6,-3.7 5.7,-6.9 1.1,-3.3 1.7,-7.1 1.7,-11.4 0,-3.9 -0.3,-7.8 -0.9,-11.4 -0.6,-3.8 -1,-7.7 -1.2,-11.5 -0.2,-4 -0.8,-7.9 -1.8,-11.7 -1.1,-3.4 -2.2,-7 -3.5,-10.5 -1.4,-3.5 -2.6,-7.2 -3.5,-10.9 -0.8,-3.7 -1.3,-7.5 -1.3,-11.3 0.1,-3.7 0.2,-7.4 0.3,-11.2 0.1,-3.9 0.3,-7.6 0.7,-11.3 0.2,-0.6 0.4,-1.3 0.6,-1.9 1,-3.7 1.5,-7.6 1.4,-11.6 -0.1,-4.1 -0.4,-8.2 -0.7,-12.5 0.4,0.1 0.9,0.1 1.4,0.1 2.2,-0.1 4,-1.1 5.6,-3 2.3,-2.7 2.8,-6.1 1.6,-10 -0.3,-1.2 -0.6,-2.3 -1.1,-3.6 -1.3,-3.3 -2.4,-6.8 -3.3,-10.3 -0.8,-3 -1.1,-6.2 -1,-9.4 2.4,-12.8 3.9,-25.7 4.7,-38.6 1.8,-34.8 -2.5,-70.2 -13,-106.3 0,-0.3 0,-0.5 0.1,-0.8 0.6,-7.4 1.1,-14.6 1.5,-21.6 0.4,-9.9 0.7,-19.8 0.8,-29.8 0,-9.9 -2.2,-20.9 -6.7,-32.9 -4.6,-12 -7.2,-21.1 -8.1,-27.3 -0.8,-6.2 -2.6,-13.5 -5.6,-22 -2.9,-8.4 -4.4,-18 -4.4,-28.6 0.5,-0.5 1,-1 1.4,-1.5 2,-2.1 3.3,-4.7 3.9,-7.5 1.3,-5.6 1.4,-11.1 0.2,-16.5"
         fill="#d90000"
         id="path49808"
         style="stroke-width:1.81354" />
      <g
         fill="none"
         stroke="#ffffff"
         stroke-linecap="round"
         stroke-linejoin="round"
         id="g49812"
         style="stroke-width:1.81354">
        <path
           d="m 437.35,369.85 c 1.3,2.8 2,6.1 2,10 -0.1,4.2 -0.7,8 -1.8,11.6 -1,3.3 -2.1,6.7 -3,10.3 0.2,-1.4 0,-2.2 -0.6,-2.6 -2.6,-2.4 -5.3,-4.3 -8.2,-5.8 0.4,0.9 0.6,1.9 0.7,3 0.3,4 0.1,7.8 -0.7,11.6 -0.6,4 -2,6.8 -4.2,8.7 -2.7,2.3 -4.9,4.7 -6.5,7.3 -1.6,2.6 -3.1,5.6 -4.6,8.7 0,-0.7 -0.2,-1.4 -0.5,-2 -1.5,-2.3 -3,-5.3 -4.4,-9 0.1,0.9 0.2,1.8 0.3,2.6 0.2,2.1 0,3.9 -0.4,5.7 -1.3,4 -3,6.6 -5.4,8.1 -3.2,1.7 -5.6,4.2 -7.3,7.3 0,-1.9 -0.2,-3.8 -0.6,-5.6 -0.6,-3.4 -1.9,-6.6 -4,-9.6 0,1.5 0.1,3 0.3,4.5 0.6,4.6 -0.6,7.9 -3.7,10 -2.7,1.8 -5.6,3.7 -8.4,5.6 -2.9,1.9 -4.5,4.6 -4.9,8.2 m 63.1,-409.4 c -3.1,3.4 -6.4,6.9 -9.9,10.2 m -44.2,181.9 c -2.9,2 -5.6,4.2 -8.3,6.7 -2.5,2.2 -5.7,3.2 -9.5,3 -3.7,-0.3 -7.2,-0.4 -10.6,-0.4 1.9,-2.3 2.8,-5.4 2.9,-9.5 -1.4,2.8 -3.3,5 -5.8,6.4 -1.4,0.7 -2.7,1.1 -4.1,1.4 -3.5,0.6 -7,1 -10.6,1.4 0.7,-1.1 1.5,-1.9 2.4,-2.5 3,-2.4 4.2,-5.8 3.5,-10.2 -0.7,2.9 -2.3,5 -5,6.2 -1.5,0.8 -3.1,1.8 -4.8,2.8 -2.4,1.5 -5.5,2.3 -9.3,2.4 0.8,-0.2 1.5,-0.9 2,-2 1.4,-3 2.2,-6.5 2.2,-10.5 m 46,-45.2 c -1.6,1.2 -3.9,1.6 -6.7,1.4 -3.4,-0.4 -6.8,-0.6 -10.3,-0.6 2.3,-0.1 4.1,-1 5.6,-2.6 2.4,-3.1 4.8,-5.8 7.2,-8.1 -0.7,0.6 -1.6,0.9 -2.8,0.9 -3,-0.1 -6.1,-0.2 -9.1,-0.2 0.3,-0.1 0.7,-0.2 1,-0.4 1.6,-0.9 2.9,-2 3.9,-3.4 2.3,-2.8 4.4,-5.8 6.3,-9.2 2,-3.4 3.8,-6.7 5.6,-10.1 1.5,-2.9 3.4,-6.2 5.5,-9.8 0.8,-1.2 1.5,-2.5 2.2,-3.6 m 19.6,-38.5 c 3.1,2.1 4.5,5.8 3.9,10.8 5,-1.3 7.7,-5.2 7.9,-11.7 0.3,-6.2 -0.8,-11.3 -3.2,-15.3 4.8,2.4 7.8,6.4 9.1,12.2 1.7,-2.4 2.8,-5 3.5,-7.8 1.1,-5.2 0.3,-9 -2.5,-11.3 -4.1,-3.5 -7,-7.7 -8.5,-12.5 0.8,0.7 1.6,1.4 2.5,1.9 4.3,2.4 8,5.8 10.8,10.2 0.9,-1.4 1.5,-3 1.6,-4.7 0.3,-6.7 -1.8,-11.3 -6,-13.9 -4.4,-2.8 -6.3,-7.5 -5.7,-14.1 m 26.9,428.6 c 0.1,-2 -0.2,-3.8 -1.1,-5.3 -1.9,-2.8 -4,-5.8 -6.2,-9.2 -2.1,-3.2 -3.7,-6.3 -4.9,-9.2 -1.9,1.3 -3,3.2 -3.2,5.8 -1.7,-2.6 -3.4,-5.5 -4.8,-8.5 -1.8,-3.5 -2.5,-7.6 -2.3,-12.1 m 45.2,83.4 c -2.5,0.3 -4.8,-0.1 -6.8,-1.1 -3.1,-1.4 -5.5,-3.8 -7,-7.3 -0.1,2.9 -0.5,5.6 -1.1,7.8 -0.7,-1.8 -1.8,-3.3 -3.1,-4.6 -2.6,-2.9 -3.7,-6.6 -3.3,-10.9 m -101.8,-41.3 c -0.1,-3.2 -0.1,-6.3 0.2,-9.2 0.2,-3.2 0.7,-6.2 1.5,-9.1 1,-3.5 2.7,-6.3 5,-8.5 -3,0 -5.2,1.2 -6.7,3.8 0.5,-1.2 0.7,-2.7 0.7,-4.3 -0.2,-2.1 0,-4.1 0.7,-6.1 1.2,-3.7 2.5,-7.1 3.9,-10.3 m -20.9,87.8 c 0,-2.4 0.2,-4.8 0.4,-7.4 0.4,-3.7 2.1,-6.4 5.1,-8.3 0.2,3.1 1.2,5.9 3,8.3 1.3,1.7 2.5,3.2 3.6,4.6"
           id="path49810"
           style="stroke-width:4.08045" />
      </g>
      <path
         d="m 385.15,45.55 c 3.1,-1 4.6,-2.6 4.4,-4.6 -2.4,-1.5 -4.3,-3.8 -5.7,-7 -0.9,0.4 -1.7,0.7 -2.6,1 -2.2,4.2 -1.8,7.5 1.2,10.1 0.7,0.6 1.5,0.8 2.7,0.5"
         id="path49814"
         style="stroke-width:4.08045" />
      <g
         fill="none"
         stroke="#ffffff"
         stroke-linecap="round"
         stroke-linejoin="round"
         id="g49866"
         style="stroke-width:1.81354">
        <path
           d="m 326.55,290.25 c -0.4,3.9 -2.3,6 -5.7,6.1 m 63,-262.4 c -0.9,0.4 -1.8,0.7 -2.7,1.1 -1.4,0.4 -2.8,0.8 -4.3,1 m 0,0 c -0.7,0.2 -1.5,0.3 -2.2,0.4 -5.6,0.7 -8.3,-0.7 -8.2,-4.3 m 40.3,-2 c -1.5,-0.8 -3,-1.5 -4.5,-2 -1.2,-0.5 -2.5,-0.9 -3.8,-1.2 -5.5,-1.1 -10.7,-1.2 -15.7,-0.1 -5,1.1 -10,1.4 -15.2,0.9 -0.7,1.7 -1.1,3.2 -1.1,4.4 m 0,0 c -2.2,-0.3 -4.5,-0.5 -6.6,-0.6 -3.6,-0.1 -7.1,0 -10.5,0.5 -4.1,0.5 -8.5,0.6 -13.3,0.4 0.6,3.6 1.5,7 2.6,10.2 m 83.2,-9.1 c -2.8,0.5 -5.5,1.6 -7.9,3.3 -0.5,-1.7 -1.5,-3.1 -3.1,-4.2 -1.3,-1 -2.7,-1.8 -4.1,-2.5"
           id="path49816"
           style="stroke-width:4.08045" />
        <path
           d="m 421.85,33.55 c 0.3,-4.6 -0.9,-8 -3.6,-10.2 -5.2,1.2 -9,3.4 -11.5,6.8 m -17.9,1 c -1.6,1.1 -3.3,2 -5,2.8 m 17.5,9 -5.5,-0.2 c -2.4,-0.2 -4.5,-0.8 -6.3,-1.8 -2.5,-1.5 -4.4,-3.8 -5.7,-7 m 53,4.5 c -1.1,0.1 -2.1,0.3 -3.1,0.5 -4.7,1.3 -7.5,5.1 -8.5,11.5 -0.5,2.9 -0.6,5.9 -0.6,8.9 0.1,2.6 0.4,5.3 0.9,7.9 3.6,-2.5 6.9,-5.3 9.7,-8.3 m -63.4,-10.8 c 0.8,-0.7 1.5,-1.4 2.1,-2.1 2.1,-2.5 3.1,-5.8 2.9,-10 m -19.7,31.1 c -2.3,-0.2 -5.3,-1.1 -8.9,-2.7 -0.6,-0.3 -1.3,-0.6 -1.9,-0.9"
           id="path49818"
           style="stroke-width:4.08045" />
        <path
           d="m 346.35,63.55 c -0.1,6.1 2.1,10.6 6.5,13.5 0.9,0.5 1.9,0.8 3.2,0.9 -0.9,-3.9 -0.5,-7.5 1.1,-10.8"
           id="path49820"
           style="stroke-width:4.08045" />
        <path
           d="m 357.15,67.15 c 0.9,0.1 1.6,0.1 2.3,0 0.9,1.9 2.1,3.7 3.8,5.2 1.6,1.5 3.6,2.8 5.9,3.8 0.2,0 0.4,0.1 0.6,0.2 4.5,1.9 8.4,4.5 11.7,7.9 0.4,0.4 0.7,0.8 1.1,1.2"
           id="path49822"
           style="stroke-width:4.08045" />
        <path
           d="m 382.55,85.45 c -2.5,-0.5 -5,-1.1 -7.5,-1.8 -2.2,-0.6 -4.5,-1 -6.7,-1.1 -3.1,-0.3 -6.2,-0.1 -9.3,0.3 -5,0.7 -9.8,1.5 -14.5,2.3 -5.6,1.1 -10.9,0.8 -15.9,-0.7 -5.3,-1.7 -8.8,-4.6 -10.6,-8.8 0.8,5.4 3.2,9.8 7.2,13.1 4.3,3.4 9,5.4 14.2,5.8 6,0.5 10.9,-0.2 14.8,-2.2"
           id="path49824"
           style="stroke-width:4.08045" />
        <path
           d="m 383.45,97.75 c -3.7,-3.2 -7.4,-5.2 -11.2,-6.2 -3.8,-1 -7.9,-1.2 -12.1,-0.6 m 5.8,6.3 c 4.2,0.7 8.5,1.4 13,2 2.1,0.3 3.6,-0.2 4.5,-1.5 m -30.8,1.4 c 0.4,4.8 3.1,6.8 8,5.9 4.6,0.3 9.1,1.7 13.6,4.2 2.6,1.4 5.4,2.4 8.3,3 m -28.3,-19.9 c -0.8,1.9 -1.4,4.1 -1.6,6.8 m 0,0 c 2.3,-2.7 5.9,-3.5 10.8,-2.5 0.8,0.2 1.7,0.4 2.5,0.6 m -0.8,52.6 c 1.2,-1.6 2.8,-4 4.7,-7.2 1.9,-3.1 3.8,-5.4 5.8,-6.7 1.9,-1.3 4.6,-2.2 7.9,-2.7"
           id="path49826"
           style="stroke-width:4.08045" />
        <path
           d="m 382.55,112.25 c -2.7,3.5 -5,7.6 -6.8,12.4 -2,5.1 -4,10.2 -6.1,15.2 -1.6,3.8 -3.1,7.1 -4.5,10 m 0.8,-52.6 c -2.8,-1.6 -4.7,-3.7 -5.8,-6.3 m 39.3,16 c -1.8,3.6 -5.1,5.6 -9.9,5.8 -2.5,0 -4.8,-0.2 -7,-0.5 m -22.4,-21.3 c -0.5,-1.1 -0.9,-2.3 -1,-3.6 -2.1,0.9 -3.7,2.6 -4.9,5 m 29.2,5.4 c 1.6,-5.6 1.3,-9.7 -0.9,-12.3 m 75.1,136.5 c 0,-0.3 0,-0.5 0.1,-0.8 0.6,-7.4 1.1,-14.6 1.5,-21.6 0.4,-9.9 0.7,-19.8 0.8,-29.8 0,-9.9 -2.2,-20.9 -6.7,-32.9 -4.6,-12 -7.2,-21.1 -8.1,-27.3 -0.8,-6.2 -2.6,-13.5 -5.6,-22 -2.9,-8.4 -4.4,-18 -4.4,-28.6 m -96.6,-16.3 c -1,4.8 -0.9,9.1 0.4,12.9 1.1,3.3 3.5,6 7.3,8 m 18.8,86.3 c -1.8,2.5 -3.7,5.5 -5.7,8.9 -1.8,3 -3.6,6.3 -5.3,9.7 -1.7,3.4 -3.4,6.7 -5,10 -1.8,3.3 -3.5,6.6 -5.1,10.1 -1.5,3.2 -3.3,6.4 -5.4,9.5 -1.8,2.8 -4,5.5 -6.4,8 -2.6,2.5 -5.4,4.8 -8.4,6.7 -2.9,1.9 -6.1,3.5 -9.6,4.7 -1.4,0.5 -2.9,0.8 -4.6,0.8 h -24.7 c -4.2,-0.2 -8.2,-0.4 -11.8,-0.5 -4,-0.2 -7,0.9 -8.9,3.3 l -0.3,0.3 m -3.5,6.7 0.1,-0.1 m 3.4,-6.6 c -4.3,-0.1 -7.2,1.4 -8.8,4.6 -0.5,0.9 -0.9,1.8 -1.1,2.7 1.3,-1.3 3.4,-1.5 6.4,-0.6 m 0,0 c -0.5,0.4 -1,0.8 -1.4,1.2 -2.6,2.4 -4.5,5.1 -5.6,8.2 m 7.8,9.1 c 0.8,-2.1 1.5,-3.7 2.1,-4.9 1.6,-3 4.1,-5.2 7.4,-6.5 m -17.3,2.3 c -2.7,2.1 -3.9,5.4 -3.6,9.9 v 2 c 2,-2.4 4.4,-4.5 7.3,-6.1 0.3,-0.2 0.7,-0.4 0.9,-0.6 m 0,0 c -0.2,2.3 0.9,3.6 3.2,3.9"
           id="path49828"
           style="stroke-width:4.08045" />
        <path
           d="m 253.45,237.45 c 1.5,-0.5 2.9,0 4.2,1.3 1.5,1.5 1.6,2.8 0.4,3.9 m 4.6,7.8 c -1.5,1.1 -3,3.4 -4.3,7 -0.4,1 -0.6,2.1 -0.6,3.4 v 2.6 c 2.5,-1.4 4.9,-3.3 7.3,-5.8"
           id="path49830"
           style="stroke-width:4.08045" />
        <path
           d="m 261.25,246.55 c 1,1.1 1.4,2.3 1.4,3.9 m 37.8,2.5 c 0.7,0.1 1.3,0.2 2,0.3 2.8,0.5 5.7,0.6 8.6,0.6 3.7,-0.1 7,0.6 9.9,1.9 2.9,1.5 6.2,2.4 10,2.9 2,0.3 4,0.4 6,0.5 m 12.6,3.2 h -1.7 c 1.2,-2 2.3,-4.1 3.2,-6.2 -2.6,1.8 -5.7,2.8 -9.3,3 -1.6,0.1 -3.2,0.1 -4.8,0 m -11.5,-22.8 c -1.1,1.2 -2.2,2.6 -3.4,4.3 -1.9,2.8 -4.7,5 -8.2,6.6 -2.9,1.2 -5.7,2.5 -8.5,3.9 -1,0.5 -1.9,0.9 -2.8,1.1 -0.7,0.2 -1.4,0.4 -2.1,0.7 m 38.1,30 c 0,-0.7 0,-1.4 0.1,-2.2 1.3,-0.4 2.6,-0.1 4,0.9 1.4,1 2.3,2.4 2.8,4.3"
           id="path49832"
           style="stroke-width:4.08045" />
        <path
           d="m 340.05,265.45 c 0,0.8 -0.2,1.5 -0.4,2.1 -0.8,2.2 -1.6,4.1 -2.5,5.9 -2.1,3.5 -1.6,6.7 1.4,9.5 m -1.6,-23.8 c -0.4,4.3 -1.8,7.6 -4.3,9.8 -2.3,2.1 -4.8,4 -7.5,6 -2.7,2 -5.3,4.5 -7.7,7.3 -1.7,2 -2.9,4.3 -3.5,7 m -39.1,-26.7 c 3.6,0.6 7.1,0.6 10.7,0 1.9,-0.4 3.2,-1.7 3.9,-4 0.3,-1.6 1.6,-2.1 3.9,-1.5 2.1,-1.8 4.5,-3.2 7.1,-4.1 m -30.1,6.3 c 0.2,0.1 0.4,0.2 0.7,0.4 -0.4,0.3 -0.7,0.7 -1,1.2"
           id="path49834"
           style="stroke-width:4.08045" />
        <path
           d="m 274.85,262.55 c 3.3,-2.1 3.1,-3.7 -0.7,-4.8 -2.1,-0.5 -3.3,-0.1 -3.8,1.5 m 0,0 c -0.1,-0.1 -0.2,-0.1 -0.3,-0.2 m 0,0 c 0.2,-3.4 1.1,-6.3 2.7,-8.5 1.2,-1.7 1.7,-2.7 1.5,-2.7 m -11.6,2.6 c 1.8,0.3 2.9,1.2 3.4,2.9 0.4,1.7 0.1,3.1 -1,4.3 m 0,0 c 1.9,0.2 3.5,0.7 5,1.4"
           id="path49836"
           style="stroke-width:4.08045" />
        <path
           d="m 270.05,260.85 c -1.8,2.6 -2.5,5.4 -1.9,8.4 1.7,-2.7 3.9,-4.9 6.5,-6.6 0.1,0 0.2,-0.1 0.2,-0.1 m -4.8,-1.7 c 0,-0.7 0.1,-1.2 0.3,-1.6 m -0.3,-0.2 v 1.8 m 59.6,45.9 c -0.4,0.4 -0.8,0.8 -1.3,1.1 l -0.6,0.3 m -1.1,0.3 c 0.4,0 0.8,-0.1 1.1,-0.3 m 1.9,-1.4 c 0.4,-0.7 0.7,-1.5 0.9,-2.4 0.7,-3.1 1.4,-6 2.4,-8.7 m 8.5,1.2 c -1.3,0.4 -1.8,1.6 -1.5,3.8 0.2,1.5 0.2,2.9 -0.1,4 m -3.5,3.4 c -0.3,0.1 -0.5,0.2 -0.8,0.2 -2.3,0.7 -4.2,0.1 -5.9,-1.5"
           id="path49838"
           style="stroke-width:4.08045" />
        <path
           d="m 327.75,308.15 c 0.1,3.4 0.5,6.3 1.2,8.6 2,-3.5 4.2,-6.3 6.6,-8.5 0.3,0 0.6,-0.1 0.8,-0.2 m 0,0 c 0.3,-0.2 0.6,-0.3 1,-0.5 0.1,-0.1 0.2,-0.1 0.3,-0.2 1.1,-0.6 1.8,-1.5 2.2,-2.7 m 0,0 c 0.5,1.5 1.2,2.5 2.3,3.3 m -15.5,0.5 c -1.2,0.2 -2.4,-0.3 -3.6,-1.2 -1.7,-1.3 -2.5,-3.3 -2.7,-6 m 0.5,-4.9 h -0.6 c -3.8,-0.1 -5.9,-2.5 -6.3,-7.1"
           id="path49840"
           style="stroke-width:4.08045" />
        <path
           d="m 313.95,289.25 c -0.2,0.9 -0.3,1.9 -0.4,3 -0.4,2.9 -0.4,6.7 -0.1,11.2 2,-2.9 4.3,-5.1 7,-6.8 0.1,-0.1 0.2,-0.2 0.4,-0.3 m 0,0 c -0.4,1.9 -0.5,3.5 -0.5,4.9 m 0,0 c -0.5,3.3 -0.7,7 -0.5,11.2 0,0.8 0.1,1.6 0.4,2.3 2,-2.5 4.1,-4.5 6.4,-6.3 m 108.6,-249.5 c 0.5,-0.5 1,-1 1.4,-1.5 2,-2.1 3.3,-4.7 3.9,-7.5 1.3,-5.6 1.4,-11.1 0.2,-16.5 -4,0 -7.9,-0.1 -11.8,-0.3 -2.5,-0.2 -4.8,-0.1 -7.1,0.4 m -83.3,249.4 c 0.1,3.4 1.2,6.1 3.4,8.1 0.9,0.6 2,1.1 3.4,1.5 0.4,-2.6 0.5,-4.8 0.1,-6.6 m -84.9,-58 c 0.9,-2.8 2,-5.1 3.4,-6.6 m -3.4,6.6 c 2.1,-1.7 4.3,-2.9 6.7,-3.6 m 190.4,-2.4 c -0.2,2 -0.4,4.1 -0.6,6.1 -0.1,0.3 -0.1,0.6 -0.2,1 -0.5,4.5 -1.4,8.4 -2.5,11.9 m -56.2,-5.4 c -0.1,0.7 -0.3,1.3 -0.8,1.7 -2.2,2.4 -4.2,5.3 -5.7,8.4 -1.8,3.3 -4.2,6.1 -7,8.3 -2.6,2.1 -5.3,3.8 -8.2,5.2 -2.5,1.4 -5.1,2.2 -7.7,2.5 -3.5,0.5 -7,0.7 -10.6,0.7 h -8.6 m 4.6,18 c -0.5,-0.9 -1,-1.9 -1.3,-3 -0.4,-0.9 -0.7,-1.8 -0.9,-2.7 -1.2,-3.8 -2,-7.9 -2.4,-12.3 m 4.6,18 c 0,0.1 0,0.1 0.1,0.2 0.7,1.4 1.6,2.8 2.7,4.2 1,1.3 1.9,2.7 2.8,4.1"
           id="path49842"
           style="stroke-width:4.08045" />
        <path
           d="m 345.45,285.95 c 3.4,-0.3 6.3,-2.1 8.7,-5.4 v -0.2 m 5.6,8.5 c 0.9,1.6 1.8,3.3 2.5,5.1 1.3,3.3 1.8,7.1 1.6,11.3 -0.1,3.9 -0.3,7.7 -0.5,11.5 -0.2,4.1 -0.6,8 -1,11.8 -0.6,3.9 -0.8,7.9 -0.7,11.9 v 11.8 c 0,0.9 0,2.9 0.1,6.1 v 0.7 m -15.9,-49.9 c 0.7,0 1.5,-0.1 2.3,-0.2 3.7,-0.4 5.3,-3.1 4.7,-8 -0.5,-4.5 0.5,-7.6 3.2,-9.5 1.5,-1 2.7,-1.9 3.7,-2.6 m -17.6,19.1 c -1,3.5 -0.1,6.2 2.5,8 0.5,-2.5 1,-4.8 1.2,-6.8 m 116.9,93.9 c 0.4,0.1 0.9,0.1 1.4,0.1 2.2,-0.1 4,-1.1 5.6,-3 2.3,-2.7 2.8,-6.1 1.6,-10 -0.3,-1.2 -0.6,-2.3 -1.1,-3.6 -1.3,-3.3 -2.4,-6.8 -3.3,-10.3 -0.8,-3 -1.1,-6.2 -1,-9.4 2.4,-12.8 3.9,-25.7 4.7,-38.6 1.8,-34.8 -2.5,-70.2 -13,-106.3"
           id="path49844"
           style="stroke-width:4.08045" />
        <path
           d="m 345.85,309.15 c -1.5,-0.1 -2.7,-0.5 -3.7,-1.2 m 7.6,-269.1 c -4.4,-1 -8,0.3 -11.1,3.8 m 114,352.3 c 0.8,-2.4 1.2,-4.8 1.2,-7.5 -0.1,-3.8 -0.2,-7.8 -0.2,-11.7 m 9.1,27.3 c -0.7,0 -1.3,-0.2 -2,-0.4 -3.1,-1 -5.9,-3.6 -8.1,-7.7"
           id="path49846"
           style="stroke-width:4.08045" />
        <path
           d="m 409.65,443.85 c 0.2,-0.5 0.5,-1 0.8,-1.5 2.4,-0.1 4.7,-0.6 6.8,-1.6 0.9,-0.4 1.8,-0.9 2.7,-1.5 2.8,-1.9 5.5,-4.1 8.1,-6.4 2.7,-2.5 5.2,-5.1 7.5,-7.8 2,-2.6 3.8,-5.4 5.6,-8.4 1.5,-2.8 3.2,-5.8 4.8,-8.9 l 5.4,-9.9 c 0.5,-0.9 0.9,-1.9 1.3,-2.9 m 8.8,34.1 c 0.2,-0.6 0.4,-1.3 0.6,-1.9 1,-3.7 1.5,-7.6 1.4,-11.6 -0.1,-4.1 -0.4,-8.2 -0.7,-12.5 m -101,-44 c 0.1,-0.3 0.2,-0.5 0.3,-0.7 1.7,-3.5 10.3,-12.7 25.9,-27.4 m -26.2,28.1 c -1.4,3 -3,6.1 -4.8,9.1 -1.9,3.1 -3.8,6.2 -5.6,9.2 -1.9,3.2 -3.6,6.5 -5,9.8 a 81.4,81.4 0 0 0 -3.9,10.5 c -1.2,3.4 -2.2,6.9 -3.2,10.4 -1.2,3.8 -2.3,7.6 -3.4,11.3 -1.2,3.8 -2,7.6 -2.5,11.5 -0.5,3.9 -1.1,7.8 -1.5,11.5 -0.6,3.7 -1,7.7 -1.1,11.7 -0.2,4 -0.4,8 -0.4,12 -0.1,4 -0.3,7.9 -0.6,11.8 -0.3,3.9 -0.4,7.9 -0.4,11.9 v 2.7 c -0.1,1 -0.1,1.9 -0.1,2.9 -4.9,1.1 -8.2,1.7 -9.8,1.7 -0.5,-0.1 -1,0 -1.6,0 m 91.8,-53.2 c 0.5,3.4 1.2,6.2 2.2,8.4 1.4,3.3 2.7,6.6 4,10 1.3,3.1 3,6.3 4.9,9.5 1.6,2.5 3.4,5.4 5.6,8.5 1.9,3.1 4.2,5.8 6.7,8.2 2,2 3.2,4.5 3.5,7.5 0.3,3 0.3,5.9 0,8.6 m -66.4,-32.2 c 2.8,-1.6 5.6,-3.1 8.4,-4.6 3.1,-1.8 6.2,-3.5 9,-5.4 2.7,-1.7 5.5,-3.5 8.4,-5.3 2.8,-1.9 5.4,-4 7.8,-6.3 2.4,-2.2 4.3,-4.5 5.9,-6.9 m -43.8,30.2 c 1,-0.2 2.1,-0.6 3.2,-1.1 0.4,-0.2 0.7,-0.4 1.1,-0.6"
           id="path49848"
           style="stroke-width:4.08045" />
        <path
           d="m 310.45,535.05 c 3,0.4 6,0.9 9,1.4 0.5,0.1 1.1,0.2 1.6,0.4 1.9,0.4 3.6,0.8 5.2,1.4 1.5,0.4 3.1,0.6 4.7,0.7 3.4,0.1 6.8,0 10.5,-0.3 3.4,-0.3 6.6,-0.8 9.4,-1.5 2.9,-0.6 5.4,-2.1 7.7,-4.2 2.2,-2.2 4.5,-5.4 6.6,-9.5 2.1,-4.1 3.5,-8 4.2,-11.6 0.5,-3.6 0.8,-7.3 0.8,-11 -0.1,-3.7 -0.1,-7.4 -0.1,-11.1 v -11.9 c 0,-2.1 0,-3.9 0.1,-5.5 m 50.3,18.1 c -0.9,-0.8 -1.7,-1.5 -2.5,-2.2 -2.9,-2.3 -6.2,-3.4 -9.9,-3 -0.9,0.1 -1.7,0.1 -2.5,0.1 2,1 3.7,2.5 4.8,4.6 m 26.2,14.6 c -2,-0.6 -3.9,-1.4 -5.6,-2.2 -1.5,-0.8 -1.8,-1.4 -0.9,-2.1 -1.2,-2.3 -2.8,-4.2 -4.6,-5.7 -1.7,-1.4 -3.4,-2.8 -5,-4.1"
           id="path49850"
           style="stroke-width:4.08045" />
        <path
           d="m 420.45,490.45 c -1.9,2.2 -4.9,2.8 -8.9,1.8 -0.4,-0.8 -0.7,-1.6 -1.2,-2.3 m -8.4,12.9 c 0.2,0 0.5,0.1 0.8,0.1 3.6,0.6 5.8,-1 6.4,-4.7 v -0.1 m 0,0 c 2.9,0.9 5.5,2.1 7.9,3.6 0.5,2.4 2.4,3.4 5.6,2.8 m -13.5,-6.4 c -0.3,-0.1 -0.5,-0.2 -0.7,-0.2 -3.4,-1.1 -6.8,-0.8 -10.3,0.7 -2.6,1.2 -4.7,2.4 -6.2,3.9 3.4,-0.2 6.7,-0.1 10,0.3 m 8.4,-12.9 c -1.5,2 -2,4.7 -1.2,8.2 m -7.2,4.7 v 0.1 c -0.7,5.1 0,8.7 2.1,11 m -2.3,11.2 c 0.9,0 1.7,-0.5 2.4,-1.5 2,-3.2 1.3,-5.9 -2.2,-8.1"
           id="path49852"
           style="stroke-width:4.08045" />
        <path
           d="m 401.95,515.55 c -2.2,1.8 -4,3.8 -5.5,6.1 -1.4,2.3 -2.5,4.3 -3.5,6.1 1.6,-2.1 4.5,-3 8.8,-2.6 m 2.3,-11.2 c -0.1,0.1 -0.3,0.2 -0.5,0.4 -0.5,0.4 -1.1,0.8 -1.6,1.2 m 2.1,-1.6 c 2.4,-1.5 5.3,-2.3 8.9,-2.3 1.8,1.4 4.2,1.9 7.2,1.6 m -0.3,12.2 c -1.9,0.4 -3.7,0.7 -5.3,0.8 -2.3,0.4 -4.4,1.4 -6.2,2.8 m 0,0 c -0.6,0.4 -1.1,0.9 -1.6,1.4 m 0,0 c -0.4,0.3 -0.7,0.7 -0.9,1 -2.7,3 -4.4,6 -5.2,9 1.1,-2.2 3.3,-3.4 6.3,-3.6 m -5.2,-11.7 c -0.4,3.8 1.3,5.6 5,5.3 m 50.1,-91.6 c 0.5,-0.8 0.9,-1.4 1.1,-2 1.3,-2.4 2.5,-5 3.5,-7.8"
           id="path49854"
           style="stroke-width:4.08045" />
        <path
           d="m 422.05,538.75 c 5.6,-0.4 9.6,-0.4 12,0.1 3.3,0.8 6.8,1.1 10.6,0.9 l 10.8,-0.3 c 3.4,-0.1 6.6,-0.9 9.8,-2.3 2.7,-1.4 4.6,-3.7 5.7,-6.9 1.1,-3.3 1.7,-7.1 1.7,-11.4 0,-3.9 -0.3,-7.8 -0.9,-11.4 -0.6,-3.8 -1,-7.7 -1.2,-11.5 -0.2,-4 -0.8,-7.9 -1.8,-11.7 -1.1,-3.4 -2.2,-7 -3.5,-10.5 -1.4,-3.5 -2.6,-7.2 -3.5,-10.9 -0.8,-3.7 -1.3,-7.5 -1.3,-11.3 0.1,-3.7 0.2,-7.4 0.3,-11.2 0.1,-3.9 0.3,-7.6 0.7,-11.3"
           id="path49856"
           style="stroke-width:4.08045" />
        <path
           d="m 436.55,504.55 c 0,0.8 -0.2,1.6 -0.3,2.4 m -128,-19.8 c -0.8,-0.7 -1.7,-1.4 -2.5,-2.1 -2.9,-2.3 -6.2,-3.4 -9.9,-3 -0.8,0 -1.7,0.1 -2.5,0.1 2,1 3.7,2.5 4.9,4.6 m -1.3,8.2 c -0.2,-0.1 -0.4,-0.2 -0.7,-0.2 -3.3,-1.1 -6.7,-0.8 -10.3,0.7 -2.6,1.1 -4.6,2.4 -6.1,3.8 3.3,-0.2 6.6,0 9.9,0.4 m 8.5,-12.9 c -1.6,2 -2,4.7 -1.3,8.2 m 0,0 v 0.1 c -0.6,3.7 -2.7,5.3 -6.4,4.7 -0.3,0 -0.6,-0.1 -0.8,-0.1 m 20.7,1.7 c -3.2,0.5 -5.1,-0.4 -5.5,-2.8 -2.4,-1.6 -5.1,-2.8 -8,-3.6"
           id="path49858"
           style="stroke-width:4.08045" />
        <path
           d="m 308.25,487.15 c -1.8,2.3 -4.8,2.9 -8.9,1.9 -0.3,-0.9 -0.7,-1.6 -1.1,-2.3 m -8.5,12.9 c -0.7,5.1 0.1,8.8 2.1,11 m 0,0 c -0.1,0.2 -0.3,0.3 -0.5,0.4 -0.5,0.4 -1.1,0.8 -1.6,1.3 m 0,0 c -2.1,1.8 -4,3.8 -5.5,6.1 -1.4,2.3 -2.5,4.3 -3.4,6.1 1.5,-2.1 4.5,-3 8.8,-2.6"
           id="path49860"
           style="stroke-width:4.08045" />
        <path
           d="m 289.75,512.35 c 3.5,2.2 4.2,4.9 2.2,8.1 -0.6,1 -1.4,1.5 -2.3,1.5 m 6.5,3.8 c 1.8,-1.3 3.9,-2.3 6.3,-2.7 1.5,-0.1 3.3,-0.4 5.3,-0.8 m -11.6,3.5 c 2.6,0.1 3.8,1.7 3.6,4.6 -0.2,2.2 -1.2,3.2 -2.9,3.3 -0.7,-0.1 -1.4,-0.1 -2,0"
           id="path49862"
           style="stroke-width:4.08045" />
        <path
           d="m 294.55,527.25 c 0.5,-0.5 1.1,-1 1.6,-1.5 m 11.9,-15.7 c -3,0.3 -5.5,-0.2 -7.3,-1.6 -3.6,0 -6.5,0.8 -8.9,2.2 m -2.2,11.3 c -0.4,3.8 1.2,5.6 4.9,5.3 m 0,0 c -0.3,0.3 -0.6,0.7 -0.9,1 -2.6,3 -4.3,6 -5.2,9 1.2,-2.2 3.3,-3.4 6.4,-3.6 m 23,-36.6 c -1.2,-2.3 -2.7,-4.2 -4.6,-5.7 -1.7,-1.4 -3.3,-2.8 -5,-4.2 m 9.6,9.9 c 0.4,0.6 0.7,1.3 1,2 m -24,34.6 c 1.3,3.2 4,4.7 8.3,4.4 2.5,-0.1 4.7,-0.9 6.5,-2.3 0.3,-0.2 0.5,-0.5 0.8,-0.7 m 115.3,-1.4 c -0.8,1.8 -1.8,3.4 -3.2,4.6 -0.1,0.2 -0.3,0.4 -0.5,0.5 m -13.7,-9.7 c 2.6,0.1 3.7,1.6 3.6,4.6 -0.2,2.1 -1.2,3.2 -2.9,3.2 -0.8,-0.1 -1.4,-0.1 -2.1,0 m 0,0 c 1.4,3.2 4.1,4.7 8.3,4.4 2.5,-0.1 4.7,-0.9 6.6,-2.3 l 0.2,-0.2 m -108.5,-8.4 c -0.7,1.9 -1.8,3.5 -3.1,4.7"
           id="path49864"
           style="stroke-width:4.08045" />
      </g>
      <path
         d="m 244.15,1.25 h 242.7 v 527.8 c -0.7,28.5 -20.2,42.6 -58.3,42.4 h -147.8 c -16.6,0.6 -28.8,7.6 -36.7,21.1 -7.8,-13.5 -20,-20.5 -36.6,-21.1 H 59.65 c -38.2,0.2 -57.6,-13.9 -58.4,-42.4 V 1.25 h 242.8 v 2.3 l 0.1,-2.3"
         fill="none"
         stroke="#ffffff"
         stroke-linecap="round"
         stroke-linejoin="round"
         stroke-width="18.5946"
         id="path49868" />
    </g>
  </switch>
</svg>
