<svg id="flag-icons-ru-irk" class="fi fi-ru-irk" viewBox="0 0 512 512" xmlns="http://www.w3.org/2000/svg" width="512" height="512">
  <metadata id="flag-icons">
    <name>Irkutsk Oblast</name>
    <code>ru-irk</code>
    <iso>true</iso>
    <type>Place</type>
    <capital>Irkutsk</capital>
    <continent>Asia</continent>
  </metadata>
  <g style="stroke-width:1.01358">
    <path d="M0 0h160v420.8H0Zm480 0h160v420.8H480Z" style="fill:#09f;stroke-width:1.01358" transform="scale(.8 1.21673)"/>
  </g>
  <g style="stroke-width:1.56249">
    <path fill="#359435" d="M302.96 128.94c5.39-8.73 7.09-21.06 17.31-25.88-1.44 3.92-4.87 6.64-6.5 10.47 3.95-2.44 6.54-6.9 11.32-8-4.66 6.83-11.53 12.06-14.89 19.79 6.8-3.92 11.18-11.05 18.22-14.61.67-.11 2.01-.35 2.69-.46-4.82 7.84-13.89 11.56-19.37 18.77 9.79-2.75 17.36-10.97 27.42-12.91-4.4 5.54-11.65 7.19-17.08 11.39 4.44.55 8.57-1.63 12.94-1.95.55.32 1.64.97 2.19 1.3-4.92 2.38-10.42 2.77-15.64 4.11 3.6 2.17 8.51 1.03 11.54 4.37-6.36 1.36-12.5-1.13-18.73-1.88 2.57 2.27 6.19 1.83 9.3 2.67 3.12.51 6.08 1.77 8.61 3.65-6.53.38-12.47-2.97-18.94-3.24 3.91 2.41 8.32 3.77 12.43 5.77 1.24.42 1.81 1.63 2.5 2.64-6.93-1.64-12.92-5.74-19.5-8.33 1.29 3.39 4.54 5 7.41 6.83-1.38.45-2.73.95-4.05 1.51-4.63 1.85-9.15 4.55-14.24 4.74 2.93-3.29 6.95-5.17 10.79-7.17.42-1.68-1.46-1.93-2.64-2.29-3.83 1.94-6.58 5.36-9.82 8.08 1.08 1.04 2.12 2.13 3.27 3.11 4.73.29 9.53-.84 14.24.27-1.16.9-2.28 2.02-3.84 2.07-6 .95-12.11.51-18.15.77 6.72 2.12 14.04-.17 20.65 2.49-7.41 1.25-14.83-.7-22.26-.14l.84.56c5.47 3.91 12.96 2.88 18.62 6.56-7.78.91-14.86-3.18-22.44-3.93.76 1.1 1.32 2.44 2.52 3.16 4.79 2.85 10.39 3.63 15.6 5.38-4.72 2.86-10.46-2.83-14.69 1.04-3.46 2.95-7.79 4.75-10.97 8.04 4.99-.16 9.67-2.96 14.73-1.87-.48.49-1.45 1.46-1.93 1.95-6.4 2.33-13.65 1.77-19.61 5.37 2.29 1.43 4.48 3.28 7.22 3.74 3.37.57 6.79.31 10.18.33 1.15.09 2.16.69 3.2 1.14-7.6.57-15.24-.42-22.84.35.44.59 1.32 1.78 1.76 2.37 4.91.99 9.96.76 14.94.78.57.58 1.14 1.16 1.72 1.74-4.31.98-8.69.49-12.98-.34-2.22 3.5-4.53 6.98-5.88 10.93 4.65-2.5 7.5-8.11 13.06-8.76-3.23 7.24-11.49 9.92-15.53 16.46 5.79-4.03 10.5-10.07 17.6-11.86-2.31 4.04-7.34 5.49-9.29 9.81 3.62-.62 6.9-2.36 10.42-3.36-.64 1.27-1.53 2.41-2.82 3.08-5.03 3.02-10.41 5.38-15.74 7.8 1.65 1.19 3.65 1.61 5.64 1.08 4.45-1.19 8.24-4.02 12.63-5.38-3.7 5.81-10.99 6.88-16.94 9.11-2.36 4.37-3.9 9.23-5.3 14.01 3.14-2.54 5.41-5.95 8.44-8.6.9-.04 1.81-.02 2.72.05-2.1 5.62-6.89 9.44-11.37 13.13-1.78 1.38-3.19 3.2-3.7 5.43 6.86-4.1 9.76-13.06 18.01-15.18-2.36 5.32-7.73 8.2-11.41 12.47-1.3 1.66-2.15 3.6-3.01 5.5-.47 1.01-.97 2.02-1.44 3.04 6.98.05 12.21-5.05 18.3-7.63-4.54 6.32-12.21 9.04-19.24 11.58.28 5.89-.09 11.79.34 17.66 4.25-4.72 2.07-12.89 7.86-16.45.24 8.54-4.77 15.92-7.18 23.84.5-.17 1.52-.51 2.02-.68 2.38-7.17 4.79-14.61 9.69-20.52.7 6.92-5.65 11.93-5.54 18.74 3.87-4.06 6.07-9.63 10.88-12.79-2.5 8.61-11.22 13.71-13.49 22.48 7.66-2.47 10.91-10.28 16.31-15.48-1.76 6.47-6.39 11.58-10.8 16.4-1.62 1.46-.62 3.78-.81 5.67.41 6.54-1.93 13.31.39 19.66 1.48-6.78.59-13.82 2.1-20.6.34-.91.9-1.7 1.67-2.35.08.85.23 2.54.3 3.38-.07 3.64-.71 7.22-1.27 10.81-.33 2.63-1.12 5.54.28 8.01 1.04 1.64 2.57 2.88 3.98 4.21.15.99.3 1.97.47 2.97.73 3.98 2.46 7.7 4.06 11.4.66-5.23-.6-10.71 1.47-15.7 1.21 1.23 1.79 2.7 1.74 4.4.08 5.85-.56 11.71-.02 17.56.56-1.11 1.1-2.27 1.04-3.54.02-4.71.42-9.41 1.17-14.05.02-1.4.99-2.36 1.89-3.29.04.56.13 1.67.18 2.23.24 5.92-1.04 11.8-.55 17.72 1.28-2.92 2.2-5.99 2.93-9.09.55-2.38 1.69-4.56 2.97-6.62 1.26 6.62-3.85 12.54-3.56 19.16.26.1.78.29 1.03.39 2.27-2.22 4.2-4.89 5.03-7.98.83-2.34 1.03-5.02 2.87-6.86-.41 6.03-2.96 11.63-5.28 17.13 2.88 3.77 5.02 8.09 8.26 11.61-.85-5.06-2.52-9.93-3.41-14.98l2.64-.08c.4 1.33.81 2.67 1.11 4.04 1.18 6.13 1.92 12.35 3.57 18.38 1.78-7.76-1.95-15.38-1.72-23.19 1.33.6 2.15 1.77 2.32 3.22 1.25 5.45 1.37 11.09 2.8 16.52.83-5.58.54-11.24.75-16.86l2.15-.2c.18 7.02-1.37 14.05-.14 21.04.28.09.86.26 1.15.35 3.83-5.6 2.79-12.66 3.66-19.02 2.34 4.83.21 10.12.63 15.16 4.06 5.34 7.63 11.04 11.56 16.47-.13-5.24-2.49-10.22-1.96-15.49 1.19 1.3 2.96 2.4 3.11 4.34 1.22 6.04 1.71 12.29 4.14 18.03 1.03-7.18-2.54-14.03-1.98-21.25l-.02-1.14c1.02 1.34 2.34 2.65 2.5 4.44.84 5.33 1.38 10.71 2.5 16 .89-5.49-.29-11.28 1.64-16.58l1.6-1.12c.5 6.34-1.24 12.72.44 19.01 4.84-3.52 3.73-10.04 3.68-15.23h1.41c.08 3.09.25 6.2-.06 9.28-.27 2.14-.65 4.26-1.01 6.38 3.37 2.5 6.74 5.01 10.38 7.09-2.53-4.5-5.81-8.52-8.8-12.72 1.52.15 3.41-.38 4.43 1.12 4.53 4.63 6.46 11.23 11.44 15.5-2.06-7.45-9.51-12.25-10.49-20.03 5.15 3.99 6.77 10.77 11.36 15.27-.41-5.72-4.88-10.58-4.13-16.38 3.1 4.6 4.55 10.04 7.34 14.82.71.05 2.12.14 2.83.19-.83-4.03-2.23-7.91-3.68-11.74.34-.21 1.01-.63 1.35-.84 1.33 2.74 2.3 5.64 3.75 8.32 1.28 1.43 2.92 2.46 4.35 3.73 3.71 3.05 6.62 7.13 11.05 9.22-2.88-5.14-7.37-9.22-9.75-14.65 6.84 3.93 9.44 12.21 15.9 16.52-.51-6.92-6.06-11.61-9.21-17.33 7.34 4.94 11.08 13.48 13.37 21.73 3.21.08 7.8-1.05 9.39 2.71.11 1.81-.58 3.54-.98 5.29-3.25.36-6.26-.72-8.85-2.63-3.92 4.98-8.97 11.13-15.98 10.55-.14-.58-.42-1.73-.55-2.3-3.46.65-6.98 1.66-10.5.87 4.87-4.07 12.44-3.37 16.26-9-6.4 1.45-12.76 3.09-19.18 4.44-2.89.58-5.86 1.2-8.79.64.33-2.37 3.38-2.34 5.15-3.05 6.54-2.11 13.46-2.3 20.07-4.01-5.35-1.35-10.98-.95-16.43-.61-10.76 1.92-22.5 6.57-33.04 1.43 6.82-1.43 13.73 1.59 20.56-.2-6.59-1.59-13.36-2.2-20.03-3.39-1.31-.04-2-1.18-2.78-2.04 9.47-.91 18.86 2.12 28.3.69-4.1-2.62-9.16-2.18-13.69-3.48-5.03-1.51-11.06-1.52-14.51-6.08-7.52-.02-15.34-.42-22.2-3.82-1.64-.6-2.67-2.08-3.65-3.42 3.03.27 5.99 1.09 9.02 1.43-3.35-3.15-7.6-5.04-11.24-7.8.37-.16 1.1-.49 1.46-.66 8.57 1.72 14.84 9.37 23.65 10.54-.84-.99-1.7-2-2.85-2.64-6.99-3.9-12.73-9.68-19.89-13.31-9.58-.76-19.65.76-28.82-2.95-1.74-.57-2.87-2.03-3.82-3.5 5.8.57 11.14 4.07 17.11 3.07-5.86-2.7-13.09-3.12-17.5-8.35 9.08 1.14 17.38 5.74 26.53 6.56-1.17-1.26-2.49-2.4-4.14-2.96-5.8-2.28-11.55-4.8-16.79-8.18-1.35-.66-1.67-2.15-2-3.46 9.75 2.12 17.54 8.99 26.93 12.11-2.34-3.54-6-5.8-9.17-8.49-2.56-2-4.88-4.38-7.8-5.85-9.42-1.96-19.06-3.61-27.89-7.57-3.16-1.61-7.25-3.35-7.59-7.41.41.23 1.24.68 1.65.9 4.93 2.92 9.82 6.15 15.48 7.46-4.76-3.6-10.17-6.34-14.51-10.49q-1.08-1.245-1.8-2.73c8.54 3.11 15.3 10.24 24.36 12.07-5.24-5.57-12.21-9.12-17.64-14.49-1.28-.98-1.43-2.66-1.91-4.07 9.49 3.33 15.16 12.35 23.52 17.5-1.72-5.14-5.89-8.82-9.03-13.07-1.73-1.96-3.14-4.65-5.92-5.21-8.25-1.98-16.85-3.4-24.34-7.62-2.52-1.36-4.4-3.61-5.87-6.02 6.37 1.75 11.29 6.65 17.7 8.4-5.03-4.89-12.87-6.86-15.96-13.66 4.67 1.45 8.41 4.7 12.66 6.98 3.88 2.13 7.69 4.39 11.74 6.19-5.12-6.63-13.1-10.22-18.47-16.59a6.3 6.3 0 0 1-1.01-3.72c9.36 4.52 15.45 13.5 24.15 18.95-2.93-6.16-7.94-10.98-11.83-16.52-2.57-3.84-6.27-6.96-7.89-11.38 1.45.5 2.96.98 4.18 1.96 4.57 5.27 8.32 11.17 12.89 16.43-1.09-4.14-2.26-8.31-4.14-12.17-1.26-2.79-4.47-3.63-6.99-4.91-7.52-4.53-15.06-9.43-20.98-16.02-1.91-1.93-2.68-4.59-3.02-7.21 4.61 3.58 7.13 9.42 12.6 11.94-2.68-6.03-9.29-10.09-9.94-17.03 8.05 6.77 13.18 16.6 21.92 22.58-2.35-5.84-6.91-10.38-9.75-15.96-2.06-4.11-6.06-7.82-5.09-12.83 1.13.75 2.43 1.37 3.24 2.53 4.15 5.38 7.15 11.49 10.6 17.31 1.45 2.78 2.82 5.68 5.26 7.76-2.9-11.93-8.67-22.98-11.33-34.99-.69-3.08-2.76-5.56-4.22-8.29-3.34-5.89-6.89-12.38-5.78-19.41 4.08 4.4 2.78 11.71 7.42 15.99.2-6.63-4.6-12.53-3.07-19.23 3.27 3.57 3.38 8.78 5.1 13.13 1.88 4.61 2.22 9.99 5.61 13.86-.61-8.5-3.48-16.72-3.83-25.26-.27-1.82 1.3-2.98 2.29-4.24 3.86 9.13 4 19.23 4.45 28.98.27 0 .82.02 1.1.02.7-7.91 1.13-15.84 1.81-23.75-4.49-9.51-11.25-19.35-8.68-30.42 3.25 4.41.28 10.86 4.36 15.05-.3-7.29-.93-15.02 2.09-21.84.51 2.05.63 4.16.64 6.26.11 4.97.58 9.92.69 14.89-.03 2.38.82 4.63 1.86 6.72.87-7.52.58-15.13 1.14-22.68 1.51-9.41.02-19.14 2.65-28.39.27 3.6.75 7.17 1.22 10.75.54-1.59 1.08-3.18 1.57-4.78 1.19-5.42 2.94-10.73 6.01-15.4.42.22 1.25.65 1.67.87-3.73 8.66-5.51 17.98-7.2 27.21 3.87-3.49 5.09-8.77 7.83-13.04 1.89-3.71 5.06-6.83 5.91-11.01 1.35-7.07 3.66-13.94 6.43-20.57 1.14-2.91 3.74-4.81 6.51-6.02-1.53 4.14-4.84 7.38-5.97 11.7 4.77-4.1 7.14-10.64 13.09-13.44-3.18 8.14-10.61 13.95-13.17 22.45 6.39-5.77 10.86-13.31 16.99-19.34m-.75 6.43c-3.56 2.34-5.83 6.05-8.97 8.86-2.19 1.98-4.31 4.09-5.77 6.7 5.98-3.43 10.8-8.45 16.37-12.45-.4-1.11-.18-2.79-1.63-3.11m-21.77 25.04c-2.28 2.86-3.76 6.24-5.84 9.24-1.86 2.71-3.87 5.41-4.7 8.66 3.07-1.69 4.82-4.81 6.71-7.61 1.99-3.17 4.4-6.03 6.57-9.08-.9-.43-1.75-1.01-2.74-1.21m4.12 4.1c-2.39 2.23-4.08 5.14-5.01 8.26 4.09-1.17 7.3-4.18 9.72-7.56-1.54-.27-3.14-1.21-4.71-.7m-21.65 24.39c.18 6.94-2 13.72-1.41 20.66 2.88-4.77 2.56-10.74 3.97-16.03 1-2.22-1.13-3.41-2.56-4.63m5.95 2.87a45 45 0 0 0-.66 3.22c-1.51 2.57-2.09 5.52-2.19 8.47.94-.94 3.03-1.44 2.52-3.13 1.34-1.95 2.94-3.9 3.31-6.31-.39-1.28-2.05-1.48-2.98-2.25m-9.07 29.8c.02 5.53-.26 11.05-.54 16.56 2.23-4.93 3.59-10.2 5.28-15.34-1.12-1.56-3.09-1.2-4.74-1.22m-8.7 32.8c1.54 5.23 3.56 10.3 4.89 15.59.35 1.59 1.09 3.03 2.27 4.17.36-5.87.17-11.77-.44-17.62-2.27-.64-4.5-1.36-6.72-2.14m11.83 39.13c.84 3.41 2.04 6.72 3.4 9.97-.1.54-.28 1.62-.37 2.16l1.98.24c.15-3.72.05-7.44-.23-11.14l.2-1.55c-1.67.09-3.33.21-4.98.32m9.33 31.28c2.18 3.1 4.42 6.17 6.85 9.09.08-3.9-1.97-7.39-3.46-10.87-1.14.58-2.27 1.17-3.39 1.78m19.3 24.78c2.52 3.19 5.79 5.77 9.26 7.89-1.92-3.64-4.27-7.01-6.36-10.55-1.15.7-4.24.72-2.9 2.66m26.53 14.21c-.63 1.4-1.3 2.8-1.8 4.27 3.73 4.17 8.25 7.57 12.47 11.24-2.58-5.77-6.53-10.79-10.67-15.51m-8.01 8.87c6.81 5.46 14.1 10.72 22.32 13.84-3.95-4.72-9.23-7.98-13.86-11.96-1.48-1.22-2.92-2.52-4.63-3.4-1.35.32-2.59.95-3.83 1.52m34.99 13.53c-.44 1.25-.87 2.5-1.29 3.77 4.4 1.43 8.84 2.78 13.37 3.72-3.58-3.16-7.8-5.45-12.08-7.49m27.89 1.76c.69 1.85 1.72 3.58 3.31 4.8 3.5 2.96 6.57 6.65 10.96 8.34-1.55-3.39-4.71-5.5-7.4-7.91-2.16-1.91-4.31-3.86-6.87-5.23m-36.35 4.51c2.89 1.89 6.35 2.37 9.62 3.24 4.93 1.21 9.87 2.54 14.96 2.91-5.37-3.26-11.56-4.62-17.58-6.11-2.29-.64-4.68-.32-7-.04m32.91-.22c-1.14 1.2.8 3.4 2.11 2.3 1.16-1.21-.81-3.42-2.11-2.3m4.56 6.32c1.71-.03 3.43-.05 5.15-.07a45.5 45.5 0 0 0-4.43-4.35c-.29 1.46-.52 2.93-.72 4.42m.11 1.6c-.41.83-.82 1.66-1.22 2.5 2.42.04 4.84.04 7.26-.01-1.99-.89-4.01-1.7-6.04-2.49" style="stroke-width:1.95312" transform="matrix(.64 0 0 .64 -5.693 88.762)"/>
    <path fill="#359336" d="M495.71 102.91c7.65 3.33 10.69 11.75 13.9 18.8 1.33 3.08 2.33 6.47 4.98 8.72 5.5 5.2 9.2 12.1 15.26 16.72-2.99-8.22-10.08-14.11-13.24-22.21 6.18 3.01 8.88 9.56 13.45 14.24-.82-4.56-4.29-7.87-6.27-11.9 3.77.68 6.09 4.13 7.5 7.41 2.42 5.95 3.96 12.2 5.54 18.41 1.07 4.4 4.14 7.88 6.28 11.77 2.58 4.11 4.12 8.94 7.64 12.41-1.11-9.58-5.06-18.55-6.76-28 1.38 1.18 2.89 2.37 3.58 4.11 2.16 5.13 3.61 10.52 5.35 15.8-.03-3.9-.47-7.81-1.68-11.53-.76-2.93-2.43-5.8-1.65-8.91 1.47 1.83 2.93 3.76 3.6 6.06 2.55 7.8 2.53 16.12 2.57 24.24 0 4.05 1.58 7.9 1.68 11.94.26 6.18.22 12.39 1.18 18.52 1.82-2.84 1.74-6.3 1.91-9.54.24-5.81-.18-11.63.19-17.43 2.02 1.48 2.19 4.1 2.61 6.37.53 5.45.09 10.93.34 16.39.86-1.86 1.69-3.74 2.22-5.72.78-3.64.03-7.59 1.79-11 3.18 10.05-2.91 19.4-6.91 28.18-1.44 2.46-1.03 5.36-.61 8.03.99 6.11-.16 12.45 1.84 18.42 2.89-9.53-.34-20.39 4.99-29.32.92 1.55 2.09 3.17 1.76 5.1.15 8.12-2.07 15.97-3.42 23.92.44-.18 1.31-.52 1.74-.69 1.85-5.88 4.05-11.65 5.47-17.65.79-3.07 1.23-6.36 3.23-8.95 1.87 7.78-2.77 15-3.62 22.58 3.44-4.31 4.86-9.74 6.24-14.97.28-1.43 1.22-2.55 2.14-3.62 1.6 9.7-5.24 17.64-9.27 25.76-1.52 9.25-5.46 17.82-8.6 26.59-1.4 3.31-2.43 6.77-2.89 10.34 2.86-2.9 4.8-6.52 6.43-10.22 3.06-6.5 7.28-12.39 11.88-17.88.34 1.97.98 4.15-.14 6-2.71 5.23-5.83 10.27-9.47 14.92-1.89 2.5-3.4 5.27-4.49 8.22 5.85-3.96 10.38-9.52 14.54-15.14 2.21-2.73 4.4-5.62 7.48-7.42-1.15 5.2-4.79 9.26-7.71 13.54-2.41-2.73-3.43 3.17-.33 1.7 4.91-1.44 5.8-8.08 10.9-9.19-3.24 9.64-12.92 14.59-20.73 20.07-3.2 2.28-7.03 3.63-9.93 6.3-2.24 3.72-3.27 8.06-4.2 12.28 5.07-5.43 8.86-11.9 13.98-17.29.5.46 1.51 1.37 2.01 1.83-6.21 8.45-13.51 16.16-18.8 25.25 4.34-1.74 6.86-5.92 10.46-8.68 4.32-3.38 8.14-7.57 13.32-9.69-.37 1.29-.45 2.73-1.27 3.85-5.33 6.09-12.79 9.97-17.95 16.21 8.84-2.85 15.62-9.91 24.33-13.03-3.26 6.8-11.11 8.9-16.15 13.98 6.14-2.15 11.37-6.13 17.26-8.8-.53 1.14-.62 2.6-1.62 3.47-5.9 5.05-13.57 7.08-20.97 8.84-3.72 1.01-8.12 1.18-10.79 4.35-4.17 4.82-8.13 9.91-11.28 15.46 8.51-4.96 14.33-13.61 23.47-17.65-.38 1.36-.43 2.94-1.56 3.95-4.86 5.67-12.03 8.77-16.73 14.57 8.66-2.14 15.18-9.04 23.53-12-1.13 2.15-2.65 4.15-4.76 5.42-4.1 2.16-8.62 4.08-11.31 8.06-1.66 2.57-4.67 3.49-7.44 4.33-4.68 1.88-10.43.74-14.26 4.56-4.63 4.12-10.27 7.34-13.83 12.51 9.33-3.6 17.21-10.59 27.17-12.61-.54 3.82-4.44 5.15-7.4 6.71-5.19 2.66-10.79 4.54-15.72 7.7 9.26.01 17.45-5.6 26.59-5.97-5.02 5.14-12.58 5.41-18.57 8.78 6.44.25 12.17-3.34 18.55-3.54-3.75 4.43-9.9 4.95-15.26 5.7-5.89.88-11.84.17-17.74.77-5.1 2.02-8.97 6.1-13.37 9.25-.89.83-2.12.7-3.22.76 4-3.36 8.47-6.1 12.46-9.48-.27-.59-.81-1.77-1.08-2.35-.26-1.68-2.29-1.19-2.76.06-.76.73-1.53 1.43-2.32 2.11-1.68 1.39-3.4 2.74-5.09 4.12-3.68 2.96-7.39 5.94-10.47 9.55.64-.07 1.93-.23 2.57-.3l.69-.09c1.21.67 2.39 2.19 3.9 1.29 7.43-2.95 13.51-9.06 21.6-10.32-2.82 4.38-8.7 5.27-11.52 9.68 3.25-.74 6.41-1.85 9.68-2.54-1.78 3.39-5.63 4.56-8.97 5.84-5.23 1.94-10.88 1.33-16.29 2.16-2.66.36-4.08 3.16-6.66 3.8-6.3 1.81-12.74 3.09-19.19 4.22-1.44.19-2.63 1.05-3.82 1.79 4.89.86 9.75-.39 14.63-.6 4.72-.28 9.45-.38 14.18-.41-.9.95-1.78 2.08-3.21 2.14-6.4 1.37-13 1.59-19.33 3.29-1.37.15-2.73.3-4.09.43-8.21-1.67-16.6-2.14-24.94-1.18 5.02 2.17 10.63 2.01 15.87 3.39 3.18.91 7.25 1.01 9.1 4.22-9.2.07-17.92-3.19-26.8-5.08.34.93.75 1.84 1.22 2.73 4.11 2.46 9.21 2.7 13.06 5.66-4.75.18-9.4-.87-13.96-2.08.48 1.33.96 2.66 1.43 4-.42-.13-1.28-.39-1.71-.52-5.26-1.32-8.54-5.91-11.69-9.94-2.74 1.63-5.69 2.99-8.97 2.65-.65-2.41-.91-4.89-.81-7.38 2.89-.9 5.93-.82 8.92-.71 1.34-6.58 4.59-12.61 8.49-18.02 1.12-1.59 2.7-2.74 4.28-3.83-2.48 6.16-8.39 10.74-8.74 17.79 6.35-4.84 9.3-12.84 15.69-17.68-1.36 5.66-6.51 9.41-8.19 14.99 4.01-3.33 7.31-7.43 11.54-10.52 3.99-2.47 3.73-8.1 7.5-10.8-.84 4.47-2.91 8.6-3.88 13.04.73 0 2.19-.01 2.92-.02 2.84-4.5 4.49-9.59 6.57-14.46.32.32.96.95 1.28 1.26-1.54 4.99-3.5 9.84-4.73 14.92 4.69-4.57 6.1-11.55 11.33-15.65.37 2.44-.89 4.59-1.97 6.66 2.16-1.53 4.31-3.09 6.59-4.45-.24 5.35-5.24 8.6-6.95 13.44 3.08-1.95 5.84-4.35 8.75-6.55.39-5.69-1.88-11.8.7-17.17.79 5.6-1.23 13.25 4.6 16.73.96-5.82-.75-11.62-.33-17.44l1.12-2.24c.54 1.78 1.08 3.57 1.33 5.42.33 3.56.5 7.17 1.56 10.61 1.28-5.14 1.4-10.46 2.04-15.69.66-.77 1.36-1.51 2.09-2.21 1.72 5.52-1.33 11-.19 16.5 1.54-4.54 1.63-9.37 2.67-14.01.17-1.55 1.96-1.83 3.02-2.56-.29 4.9-1.25 9.74-1.58 14.65 2.91-3.43 4.7-7.62 7.4-11.2 1.18-1.72 2.62-3.27 3.49-5.18.29-5.09-1.52-10.4.66-15.29 1.25 6.54-.53 14.74 4.94 19.7 1.11-7.59-.68-15.23.26-22.82.74 1.1 1.75 2.16 1.72 3.59.29 5.01.33 10.05 1.34 15 1.08-5.79.69-11.78 2.2-17.5.55-1.14 1.39-2.1 2.16-3.08 1.68 7.66-2.76 14.93-1.41 22.61 1.94-5.94 1.51-12.36 3.5-18.28.49-1.74 1.83-3 3.07-4.22.51 5.25-2.01 10.19-1.9 15.43 2.61-3.57 4.83-7.4 7.2-11.13-2.52-5.51-5.33-11.22-5.31-17.42 3.17 4.92 2.84 12.43 9.16 14.9-.74-6.57-3.62-12.6-4.86-19.06 1.66 1.15 3.07 2.69 3.39 4.76 1.22 4.29 2.57 8.54 3.9 12.8.36-1.75.71-3.5 1.1-5.24.99 1.49 1.96 3 2.97 4.49-.08-6.38-.89-12.73-.66-19.11.25-.76.74-2.3.98-3.07 2.95 4.35 1.68 10.19 2.53 15.19 1.35-3.76 3.54-7.65 2.96-11.74-2.74-6.66-6.79-13.27-6.27-20.75 3.05 6.02 3.04 14.01 9.42 17.9-.02-7.63-4.32-14.38-4.9-21.91 4.7 4.21 4.15 11.28 6.84 16.67.35-6.8-1.54-13.47-1.16-20.26l1.93.32c1.74 6.92 1.23 14.14 2.25 21.18.24-.01.71-.05.94-.07.21-7.57-1.96-15.17-.08-22.65-5.23-5.23-10.84-10.79-12.44-18.3 4.93 5.69 8.84 13.47 16.63 15.63-3.61-8.13-10.9-14.1-14.06-22.43 6.29 4.29 9.03 11.81 14.16 17.22-1.83-5.75-4.85-10.98-7.42-16.4-1.13-2.09-1.2-4.48-1.22-6.79a48.8 48.8 0 0 1 8.62 17.47c.43 1.94 1.53 3.6 2.86 5.04-.92-8.74-7.38-16.12-6.84-25.07 5.68 3.71 3.6 12.42 8.43 16.92.02-5.42-.1-10.85-.11-16.27.22-1.81-1.87-2.26-3.12-2.8-6.06-2.09-12.15-5.02-16.27-10.09 6.32 2.17 11.58 7.22 18.59 7.38-3.07-4.09-7.94-6.05-12.02-8.89-2.34-1.66-5.43-2.66-6.59-5.51 5.17 1.73 9.36 5.46 14.48 7.33-3.44-5.01-8.88-8.19-12.09-13.39.41-.14 1.23-.43 1.63-.57.24.23.72.7.96.94 5.13 4.61 9.29 10.41 15.44 13.78-3.35-6.62-10.84-9.7-14.32-16.26l-.45-.83c.32-.51.96-1.53 1.28-2.05 3.53 3.28 6.31 7.31 10.17 10.24-1.72-4.86-3.77-9.61-5.83-14.32-5.85-2.79-13.27-3.34-17.38-9.02 4.23.99 7.87 3.58 12.09 4.61 1.87.32 4.19 1.48 5.6-.43-5.92-4.14-13.6-5.69-18.64-11.02 5.67.43 10.2 4.28 15.49 5.95-4.02-5.12-10.59-7.52-14.26-12.96 7.6 1.69 11.95 8.95 18.84 12.09-3.45-3.55-7.37-6.58-11.16-9.74-2.32-2.02-4.49-4.51-4.57-7.75-2.27-.16-4.54-.3-6.79-.58 3.03-.17 6.08-.42 9.07-1.04 3.43-.65 6.84-1.59 10-3.12-7.36-2.8-15.25.34-22.85-.77.43-.6 1.31-1.81 1.74-2.42 5.01-.19 10.06.54 15.02-.57-6.09-1.96-12.97-1.17-18.58-4.56 5.65-2.78 11.21 2.39 16.93.51-5.55-2.06-13.69-.08-16.89-6.26 4.9-.49 9.46 1.67 14.12 2.81l-.36-2.01c-4.65-2.04-8.23-5.81-12.46-8.34-4.1.74-8.2 1.91-12.4 1.19 5.56-3.05 12.56-2.88 17.55-7.12.19-.74.36-1.49.5-2.25-7.52 2.01-15.07 4.91-22.98 4.45 5.68-4.45 14.03-2.36 19.73-6.67-2.96-.3-5.94-.13-8.9-.17-3.85-.16-7.68-.55-11.53-.71 6.15-1.19 12.53.23 18.6-1.31-4.8-.66-9.65-1.01-14.49-1.06-2.42-.19-5.79.18-6.53-2.85 4.69-.57 9.41.07 14.11-.24-3.55-2.79-7.99-3.96-12.12-5.58-4.04-1.83-7.7 2.3-11.87 1.84 4.5-2.55 8.97-5.13 13.22-8.11-.49-.24-1.47-.7-1.95-.94-5.54 1.78-10.42 5.2-16 6.9.12-.54.35-1.62.47-2.17 4.6-2.28 9.6-3.65 14.06-6.21-6.48-.09-12.37 3.31-18.81 3.4.52-.42 1.56-1.27 2.08-1.69 5.82-1.95 12.05-2.36 17.77-4.66-1.74-.47-3.56-.85-5.34-.41-4.68.94-9.36 1.89-14.1 2.52.23-.7.68-2.09.9-2.78 3.75-.22 7.43-.97 11.1-1.74-5.37-1.26-10.92-1.86-16.13-3.69-.31-.53-.92-1.59-1.23-2.12 5.64-.07 10.83 2.63 16.46 2.64-5.07-3.42-10.86-5.59-15.89-9.06-1.26-.74-1.91-2.09-2.63-3.28 9.91 2.9 18.02 9.96 27.68 13.53-2.46-4.27-6.96-6.61-10.63-9.68-3.34-2.79-6.76-5.63-9.11-9.34 4.12-.04 6.99 3.15 9.95 5.54 3.69 3.03 6.96 6.53 10.69 9.52-2.78-7.96-10.31-12.94-14.48-20.08 6.48 1.8 9.18 8.62 14.26 12.36-1.74-5.62-7.35-8.84-9.3-14.37m16.72 32.58c-.13 1.15-.17 2.42.95 3.11 4.56 4.25 9.14 8.7 14.8 11.47-3.11-4.86-7.8-8.37-11.62-12.63-1.21-.98-2.36-3.1-4.13-1.95m-5.67 5.81c4.06 2.88 8.33 5.72 13.23 6.93-3.08-3.22-6.54-6.04-9.9-8.94-1.12.67-2.23 1.33-3.33 2.01m26.27 19.96c4.78 5.36 7.94 12.05 13.21 16.96-.52-2.11-1.15-4.24-2.51-5.96-3.2-4.13-5.74-8.69-8.53-13.09zm-5.43 5.16c3.97 3.06 8.06 6 12.38 8.55-2.85-4.14-6.05-8.04-9.1-12.04-1.06 1.11-3.89 1.57-3.28 3.49m23.48 22.84c-.78 2.87.78 5.69 1.17 8.52 1.07 3.89.41 8.5 3.3 11.69.05-6.66-.98-13.3-2.2-19.82-.57-.1-1.7-.3-2.27-.39m-7 3.78c2.13 3.41 4.3 6.8 6.78 9.98-.8-4.06-2.01-8.03-3.59-11.85-1.08.62-2.14 1.24-3.19 1.87m-9.26.66c4.22 3.56 8.43 7.14 12.29 11.1-1.55-4.12-3.15-8.51-6.4-11.59-1.98-.15-3.95.2-5.89.49m17.13 27.52c1.56 5.03 3.73 9.85 5.01 14.97.39.17 1.16.52 1.55.69-1.26-5.39-1.33-10.94-1.46-16.44-1.71.21-3.41.48-5.1.78m7.68 34.36c-.84 5.92-1.12 11.96-.68 17.93 2.41-2.7 2.85-6.37 3.85-9.71.89-3.3 2.22-6.47 3.27-9.73-2.18.37-4.38.7-6.44 1.51m-9.83 36.15c-.58 4.79.28 9.56.68 14.32 1.2-4.23 2.6-8.4 4.36-12.43-1.67-.69-3.35-1.31-5.04-1.89m-7.57 30.13c-1.51 3.28-2.78 6.69-3.25 10.29 2.14-2.19 4.38-4.43 5.65-7.25.13-1.54-1.51-2.13-2.4-3.04m-25.04 35.09c3.59-2.52 7.26-5.05 10.01-8.52-.6-.56-1.79-1.68-2.39-2.24-3.33 2.97-5.48 6.9-7.62 10.76m-18.03 7.25c-2.62 2.53-4.24 5.87-6.55 8.66a32.3 32.3 0 0 0-2.98 5.36c1.69-.64 3.26-1.57 4.59-2.8 1.07-1.4 2.23-2.71 3.33-4.09 1.44 1.36 4.43-.9 3.28-2.62l.94-.26c-.71-1.49-.05-5.03-2.61-4.25M454 393.22c4.84-2.43 7.16-7.79 9.03-12.58-4.5 2.84-6.96 7.86-9.03 12.58m16.24-5.73c-1.02-1.45-3.78.19-2.9 1.77-1.43.55-2.51 1.69-3.68 2.63 3.99.05 7.9-.95 11.43-2.8-1.04-1.09-2.09-2.17-3.13-3.24zm-35.71 9.07c-1.43 1.11-2.24 2.75-2.92 4.4 3.19-1.82 5.9-4.32 8.71-6.64 1.99-1.8 5-3.44 4.15-6.6-3.32 2.94-6.58 5.94-9.94 8.84m12.1-4.48c-1.29 1.13.56 3.49 1.86 2.15 1.35-1.15-.54-3.51-1.86-2.15m10.9 6.3c7.89-1.51 15.85-2.96 23.43-5.69-1.42-1.11-3.16-1.43-4.85-.83-6.36 1.61-12.86 3.2-18.58 6.52m-15.08-3.06c-1.8.38-1.65 3.74.47 2.84 1.85-.38 1.66-3.77-.47-2.84m-5.61 7.42c2.68-.06 5.36-.12 8.04-.13-.06-.63-.2-1.91-.26-2.54-2.62.83-5.21 1.71-7.78 2.67" style="stroke-width:1.95312" transform="matrix(.64 0 0 .64 -5.693 88.762)"/>
    <path fill="#9fd692" d="M498.17 132.94c1.78-.44 3.6-.06 5.34.41-5.72 2.3-11.95 2.71-17.77 4.66-1.04-1.4-2.13-2.77-3.19-4.14.61-.3 1.82-.9 2.42-1.19-.22.69-.67 2.08-.9 2.78 4.74-.63 9.42-1.58 14.1-2.52" style="stroke-width:1.95312" transform="matrix(.64 0 0 .64 -5.693 88.762)"/>
    <path fill="#dbfeea" d="M302.21 135.37c1.45.32 1.23 2 1.63 3.11-5.57 4-10.39 9.02-16.37 12.45 1.46-2.61 3.58-4.72 5.77-6.7 3.14-2.81 5.41-6.52 8.97-8.86" style="stroke-width:1.95312" transform="matrix(.64 0 0 .64 -5.693 88.762)"/>
    <path fill="#defee3" d="M512.43 135.49c1.77-1.15 2.92.97 4.13 1.95 3.82 4.26 8.51 7.77 11.62 12.63-5.66-2.77-10.24-7.22-14.8-11.47-1.12-.69-1.08-1.96-.95-3.11" style="stroke-width:1.95312" transform="matrix(.64 0 0 .64 -5.693 88.762)"/>
    <path fill="#e6fff8" d="M506.76 141.3c1.1-.68 2.21-1.34 3.33-2.01 3.36 2.9 6.82 5.72 9.9 8.94-4.9-1.21-9.17-4.05-13.23-6.93" style="stroke-width:1.95312" transform="matrix(.64 0 0 .64 -5.693 88.762)"/>
    <path fill="#86b0a8" d="M312.14 144.95c1.32-.56 2.67-1.06 4.05-1.51 2.78.86 5.93 1.72 7.45 4.47-3.95-.54-7.66-2.01-11.5-2.96" style="stroke-width:1.95312" transform="matrix(.64 0 0 .64 -5.693 88.762)"/>
    <g style="stroke-width:1.95312">
      <path fill="#4e8151" d="M262.07 159.56c.15-3.69 1.6-7.24 4.25-9.85 1.08 4.66-1.9 8.93-2.85 13.36.34.62 1.04 1.85 1.39 2.46-.49 1.6-1.03 3.19-1.57 4.78-.47-3.58-.95-7.15-1.22-10.75m240.62-2.08c.68-.62 1.44-1.11 2.28-1.45 3.85.16 7.68.55 11.53.71-4.44 1.46-9.23 1.26-13.81.74M278.21 298.37c.17-1.48 1.55-2.05 2.66-2.74-.84 6.62-4.03 12.72-4.55 19.41l1.24-.15c1.43.13 2.46-1.11 2.75-2.39 1.76-4.22 2.89-8.67 4.7-12.87.53 7.6-3.24 14.73-6.65 21.29-.17-1-.32-1.98-.47-2.97-1.41-1.33-2.94-2.57-3.98-4.21-1.4-2.47-.61-5.38-.28-8.01q.135 2.535.42 5.07c1.94-3.95 2.83-8.27 4.16-12.43m249.15 24.28c-.51-2.21.41-4.29 1.74-5.99.3 1.44.58 2.9.83 4.36.67 4.11 1.32 8.46-.36 12.43-1.13-3.52-1.79-7.15-2.21-10.8m-67.78 84.27c1.36-.13 2.72-.28 4.09-.43 3.64.44 7.31.22 10.96.2 2.68.21 5.36.55 8.04.83-7.79 2.07-16.27 1.81-23.98-.5z" style="stroke-width:1.56249" transform="matrix(.64 0 0 .64 -5.693 88.762)"/>
    </g>
    <path fill="#789d9b" d="M290.14 156.88c7.43-.56 14.85 1.39 22.26.14l-.34 1.24c-7.03.57-14.08-.29-21.08-.82z" style="stroke-width:1.95312" transform="matrix(.64 0 0 .64 -5.693 88.762)"/>
    <g style="stroke-width:1.95312">
      <path fill="#d1ffc3" d="M280.44 160.41c.99.2 1.84.78 2.74 1.21-2.17 3.05-4.58 5.91-6.57 9.08-1.89 2.8-3.64 5.92-6.71 7.61.83-3.25 2.84-5.95 4.7-8.66 2.08-3 3.56-6.38 5.84-9.24m-10 134.42c.62-.24 1.87-.7 2.49-.94-1.51 6.78-.62 13.82-2.1 20.6-2.32-6.35.02-13.12-.39-19.66m102.51 93.1c2.56 1.37 4.71 3.32 6.87 5.23 2.69 2.41 5.85 4.52 7.4 7.91-4.39-1.69-7.46-5.38-10.96-8.34-1.59-1.22-2.62-2.95-3.31-4.8m61.58 8.63c3.36-2.9 6.62-5.9 9.94-8.84.85 3.16-2.16 4.8-4.15 6.6-2.81 2.32-5.52 4.82-8.71 6.64.68-1.65 1.49-3.29 2.92-4.4m-60.46 1.98c.2-1.49.43-2.96.72-4.42 1.57 1.34 3.05 2.8 4.43 4.35-1.72.02-3.44.04-5.15.07m.11 1.6c2.03.79 4.05 1.6 6.04 2.49-2.42.05-4.84.05-7.26.01.4-.84.81-1.67 1.22-2.5m62.66 2.6c2.57-.96 5.16-1.84 7.78-2.67.06.63.2 1.91.26 2.54-2.68.01-5.36.07-8.04.13" style="stroke-width:1.56249" transform="matrix(.64 0 0 .64 -5.693 88.762)"/>
    </g>
    <g style="stroke-width:1.95312">
      <path fill="#d3fdd5" d="m533.03 161.26 2.17-2.09c2.79 4.4 5.33 8.96 8.53 13.09 1.36 1.72 1.99 3.85 2.51 5.96-5.27-4.91-8.43-11.6-13.21-16.96m30.3 27.65c.59 3.61.83 7.37 2.56 10.67-.53 1.98-1.36 3.86-2.22 5.72-.25-5.46.19-10.94-.34-16.39M336.6 392.44c2.32-.28 4.71-.6 7 .04 6.02 1.49 12.21 2.85 17.58 6.11-5.09-.37-10.03-1.7-14.96-2.91-3.27-.87-6.73-1.35-9.62-3.24" style="stroke-width:1.56249" transform="matrix(.64 0 0 .64 -5.693 88.762)"/>
    </g>
    <path fill="#f6fef2" d="M527.6 166.42c-.61-1.92 2.22-2.38 3.28-3.49 3.05 4 6.25 7.9 9.1 12.04-4.32-2.55-8.41-5.49-12.38-8.55" style="stroke-width:1.95312" transform="matrix(.64 0 0 .64 -5.693 88.762)"/>
    <path fill="#eefef7" d="M284.56 164.51c1.57-.51 3.17.43 4.71.7-2.42 3.38-5.63 6.39-9.72 7.56.93-3.12 2.62-6.03 5.01-8.26" style="stroke-width:1.95312" transform="matrix(.64 0 0 .64 -5.693 88.762)"/>
    <g fill="#110a0b" style="stroke-width:1.95312">
      <path d="M491.36 179.41c5.43-2.32 11.42-3.44 17.32-2.84-2.91 7.64-5.26 15.53-6.11 23.69-1.55 8.96.82 18.6-3.24 27.07-2.52 4.91-5.14 9.96-9.25 13.74-2.32 2.64-5.72 3.88-8.38 6.1-.96 2.57 1.49 4.61 2.19 6.93 3.44 9.44.89 19.99 4.48 29.43 1.01 3.32 3.81 5.56 6.17 7.93 2.57 2.55 6.56 3.25 8.81 6.16.43 2.99.58 6.07.24 9.09-4.48 5.93-6.48 13.25-7.67 20.48-3.8-2.32-6.85-5.6-9.72-8.95-4.79 1.53-9.45 3.58-13.13 7.09.11-3.85 1.01-7.66.73-11.52-3.43-.53-6.72.67-10.07 1.14 1.22-5.02 7.17-4.81 10.42-7.87 3.18-2.69 8.04-3.06 10.19-6.94-7.37-1.15-14.74-2.98-21.22-6.81-.9 1.94-1.15 4.49-3.25 5.57-4.01 2.79-9.06 1.42-13.57 1.91 1.63 4.92 6.43 7.98 7.62 13.12-3.44 1.94-7.51 1.48-11.14 2.82-4.46 1.45-8.33 4.34-11.43 7.8-4.64.2-9.34.85-13.44 3.19.42-1.87.89-3.72 1.3-5.59-4.84-3.53-9.84.45-14.23 2.57 1.12-3.96 3.38-7.55 4-11.64-1.7-2.11-4.25.44-6.31.69 1.09-5.05 6.71-5.51 10.62-7.37 4.75-.52 9.33 2.7 14.11.93 1.95-5.56-4.17-8.7-5.63-13.41-.87-3.27 1.34-6.24 2.13-9.29-11.11 4.23-23.02 6.3-34.9 6.54-4.06-.15-8.17-.37-12.06-1.63-1.57 1.16-2.97 3.06-5.15 2.88-5.6.27-11.19.73-16.8.9-1.34-1.77-.72-4.42-1.38-6.52-.1-2.17-.09-4.36.23-6.51 3.41-2.79 1.52-7.2.6-10.7-1.55-4.64-1.31-9.64-2.8-14.28-1.69-3.88-4.89-7.08-5.55-11.4-.98-5.37-2.83-10.6-5.94-15.11-2.13-3.33-5.83-6.12-5.49-10.48 1.75-.4 3.53-.67 5.31-.95-1.76-.75-3.49-1.53-5.23-2.31 1.31-.58 2.61-1.17 3.9-1.79-2.3-.13-4.6-.19-6.9-.27 1.09-.99 2.17-1.99 3.24-3.01-3.01.4-5.95 1.12-8.89 1.86.31 2.03.81 4.08 2.3 5.61-2.62.46-5.26.77-7.86 1.25-.71-1.21-1.41-2.43-2.1-3.64-2.21 1.47-4.7 1.65-7.14.62.05-.67.14-2.02.19-2.7-.88.27-2.63.82-3.51 1.09 1.45-1.06 2.81-2.24 3.75-3.8l5.15.15c-.14-2.26-.24-4.52-.3-6.77 3.16-.82 6.5-1.08 9.52-2.4 2.18-1.62 4.09-3.7 6.71-4.63 6.23-2.82 13.69-.52 19.57-4.25 3-1.29 5.15 1.95 6.15 4.33 2.7.43 6.15-.23 7.86 2.44.27 1.95-.92 3.79-1.27 5.69 5.55 7.08 9.74 15.04 14.33 22.75 5.65 3.06 12.17 4.09 17.76 7.27 4.74 2.39 10 5.18 15.47 3.91 8.76-1.54 17.32-4.54 26.3-4.58 8.02-.89 16.06.31 24.02 1.18 2.24-.52 5.25-1.11 5.76-3.79 2.38-7.92 3.53-16.22 6.87-23.84 2.27-6.87 5.74-13.26 7.97-20.14 1.38-3.61 4.16-6.7 7.77-8.19m-.98 3.78c-1.35 2.35-4.34 3.44-4.91 6.27-1.29 4.81-3.04 9.6-6.1 13.61 1.09.16 3.25.49 4.33.66-.06-.68-.2-2.04-.27-2.71.74.84 1.53 1.67 2.22 2.57-.83.8-1.65 1.58-2.48 2.36 1.08.77 2.18 1.54 3.26 2.33.6-1.21 1.29-2.39 2.04-3.51-.22-.21-.65-.64-.86-.85 1.44-2.4 3.04-4.7 4.75-6.92-.8-.82-1.59-1.65-2.38-2.47 1.2-.36 2.48-.15 3.72-.25-.27-.25-.82-.75-1.1-1 1.32-1.51 2.5-3.13 3.48-4.89l-.95.33-1.07-1.54c.28-1.44.59-2.88.9-4.32-1.11.45-2.21.92-3.29 1.4-.44-.36-.87-.72-1.29-1.07M333.5 201.54q-.135 1.71-.24 3.42l2.23-.28c.05-1.11.11-2.23.16-3.34zm143.03 9.33c.9.74 1.81 1.48 2.72 2.23-1.35 1.15-2.69 2.33-3.8 3.71 1.99-.63 3.92-1.46 5.93-2.07-.61 2.62-3.62 2.95-5.62 4.11-.14.52-.41 1.55-.55 2.07 2.69-1.21 5.33-2.56 8.09-3.63.73-2.29 1.82-4.44 3.08-6.48-1.38-2.11-2.46-4.74-5.05-5.58-1.54 1.93-3.12 3.83-4.8 5.64m-108.44 33.24c.03.63.09 1.9.13 2.53 2.4-.78 4.83-1.48 7.3-2.07.04-.56.12-1.69.17-2.25-2.55.54-5.12 1-7.6 1.79m-2.77 7.06c3.42-1.28 7.03-2.24 10.16-4.18-3.62.5-7.72 1.16-10.16 4.18m-.1 3.02c2.72-.42 5.37-1.53 7.33-3.51-2.89-.16-5.26 1.74-7.33 3.51m1.97 1.79c-.22.29-.65.87-.87 1.16.86 3.05 4.24-1.88.87-1.16m84.5.62c1.28 2.61 3.29 4.78 5.59 6.54-1.02-2.74-2.73-5.47-5.59-6.54m-1.16 2.9c.56 2.59 4.16 3.95 3.63 6.7-2.66-.06-3.58-3.59-5.97-4.59 1.67 2.41 3.85 4.4 5.73 6.64-3.19 2.11-4.26-3.09-6.95-3.91 2.23 3.15 4.67 6.15 6.91 9.3.23-.23.68-.7.9-.94l-1.08-2c1.22-1.62 1.36-3.76 2.56-5.39-1.88-1.97-3.6-4.11-5.73-5.81" style="stroke-width:1.56249" transform="matrix(.64 0 0 .64 -5.693 88.762)"/>
      <path d="M488.39 188.3c3.21-.73-.57 3.64-2.05 2.19-.88-1.26 1.08-2.06 2.05-2.19m-9.51 22.62c1.29-.86 2.66-1.61 3.96-2.47.51 1 1.03 2 1.55 3.01-.63-.18-1.9-.54-2.54-.72-.17.66-.5 1.97-.67 2.62-1.02-.64-1.78-1.45-2.3-2.44m-138.87 70.56.8-.32c-.52 4.22-.42 8.51.1 12.73-5.03.5-10.08.42-15.11.9-4.47 2.18-8.59 5.6-13.78 5.93-2.52.08-3.89 2.54-5.85 3.78-.07-2.35.06-4.69.03-7.03-2.62 1.12-4.77 2.98-6.98 4.72-.02-3.72 1.58-7.11 2.46-10.64-1.88.26-3.76.6-5.61 1.02.95-3.65 3.11-7.36 7.13-8.08 7.68-.53 15.47.71 23.1-.74 2.2-.36 4.44-.46 6.66-.75 2.38-.32 4.76-.76 7.05-1.52" style="stroke-width:1.56249" transform="matrix(.64 0 0 .64 -5.693 88.762)"/>
    </g>
    <path fill="#9cd490" d="M272.81 183.14c5.96-3.6 13.21-3.04 19.61-5.37-.33.63-.66 1.26-.98 1.89.42.37 1.27 1.11 1.69 1.48-5.34-.17-10.65.84-15.61 2.8 2.14.14 4.28.27 6.42.33-1.26.69-2.65 1.09-3.99 1.59 3.45-.04 7.04-.11 10.26 1.35-3.39-.02-6.81.24-10.18-.33-2.74-.46-4.93-2.31-7.22-3.74" style="stroke-width:1.95312" transform="matrix(.64 0 0 .64 -5.693 88.762)"/>
    <path fill="#4c8b51" d="M277.52 183.94c4.96-1.96 10.27-2.97 15.61-2.8l1.18.01c-1.63 1.21-3.53 2.02-5.6 1.85-1.41-.13-2.75.34-3.93 1.08l-.84.19c-2.14-.06-4.28-.19-6.42-.33" style="stroke-width:1.95312" transform="matrix(.64 0 0 .64 -5.693 88.762)"/>
    <path fill="#72aebd" d="M284.78 184.08c1.18-.74 2.52-1.21 3.93-1.08-.05 1.69-2.88 2.11-3.93 1.08" style="stroke-width:1.95312" transform="matrix(.64 0 0 .64 -5.693 88.762)"/>
    <g style="stroke-width:1.95312">
      <path fill="#fbf9fa" d="M490.38 183.19c.42.35.85.71 1.29 1.07.22.2.66.59.88.78-.68 1.15-1.4 2.28-2.07 3.44 1.19-.42 2.39-.86 3.58-1.3l1.07 1.54c-2.75.91-5.37 2.18-7.86 3.65 1.77.29 3.57.49 5.33.91.28.25.83.75 1.1 1-1.24.1-2.52-.11-3.72.25-.81.24-1.61.49-2.41.75.6 1.07 1.23 2.14 1.86 3.21l-3.84 3.42c.67.67 1.34 1.34 2.02 2.01.21.21.64.64.86.85-.75 1.12-1.44 2.3-2.04 3.51-1.08-.79-2.18-1.56-3.26-2.33.83-.78 1.65-1.56 2.48-2.36-.69-.9-1.48-1.73-2.22-2.57.07.67.21 2.03.27 2.71-1.08-.17-3.24-.5-4.33-.66 3.06-4.01 4.81-8.8 6.1-13.61.57-2.83 3.56-3.92 4.91-6.27m-1.99 5.11c-.97.13-2.93.93-2.05 2.19 1.48 1.45 5.26-2.92 2.05-2.19m-2.2 4.86q.945.945 0 0m-.05 3.25c-1.54 2.98 3.44.15 0 0m-2.87 1.83c.26 3.41 2.96-1.62 0 0m-149.77 3.3 2.15-.2c-.05 1.11-.11 2.23-.16 3.34l-2.23.28q.105-1.71.24-3.42m31.72 52.65c2.07-1.77 4.44-3.67 7.33-3.51-1.96 1.98-4.61 3.09-7.33 3.51m86.47 2.41c2.86 1.07 4.57 3.8 5.59 6.54-2.3-1.76-4.31-3.93-5.59-6.54m-1.16 2.9c2.13 1.7 3.85 3.84 5.73 5.81-1.2 1.63-1.34 3.77-2.56 5.39l1.08 2c-.22.24-.67.71-.9.94-2.24-3.15-4.68-6.15-6.91-9.3 2.69.82 3.76 6.02 6.95 3.91-1.88-2.24-4.06-4.23-5.73-6.64 2.39 1 3.31 4.53 5.97 4.59.53-2.75-3.07-4.11-3.63-6.7" style="stroke-width:1.56249" transform="matrix(.64 0 0 .64 -5.693 88.762)"/>
    </g>
    <path fill="#868188" d="M491.67 184.26c1.08-.48 2.18-.95 3.29-1.4-.31 1.44-.62 2.88-.9 4.32-1.19.44-2.39.88-3.58 1.3.67-1.16 1.39-2.29 2.07-3.44-.22-.19-.66-.58-.88-.78" style="stroke-width:1.95312" transform="matrix(.64 0 0 .64 -5.693 88.762)"/>
    <path fill="#f7fff1" d="M255.73 189.02c1.23-.36 2.46-.72 3.69-1.07-.56 7.55-.27 15.16-1.14 22.68-1.04-2.09-1.89-4.34-1.86-6.72-.11-4.97-.58-9.92-.69-14.89" style="stroke-width:1.95312" transform="matrix(.64 0 0 .64 -5.693 88.762)"/>
    <path fill="#ebfdee" d="M262.91 188.9c1.43 1.22 3.56 2.41 2.56 4.63-1.41 5.29-1.09 11.26-3.97 16.03-.59-6.94 1.59-13.72 1.41-20.66" style="stroke-width:1.95312" transform="matrix(.64 0 0 .64 -5.693 88.762)"/>
    <path fill="#827e7f" d="M487.27 192.37c2.49-1.47 5.11-2.74 7.86-3.65l.95-.33c-.98 1.76-2.16 3.38-3.48 4.89-1.76-.42-3.56-.62-5.33-.91" style="stroke-width:1.95312" transform="matrix(.64 0 0 .64 -5.693 88.762)"/>
    <path fill="#d6ffe4" d="M551.08 189.26c.57.09 1.7.29 2.27.39 1.22 6.52 2.25 13.16 2.2 19.82-2.89-3.19-2.23-7.8-3.3-11.69-.39-2.83-1.95-5.65-1.17-8.52" style="stroke-width:1.95312" transform="matrix(.64 0 0 .64 -5.693 88.762)"/>
    <g style="stroke-width:1.95312">
      <path fill="#fbfcf4" d="M268.86 191.77c.93.77 2.59.97 2.98 2.25-.37 2.41-1.97 4.36-3.31 6.31-.12-1.78-.28-3.56-.33-5.34.18-1.08.4-2.15.66-3.22m69.13 84.5q1.155-1.455 2.37-2.88c-.11 2.7-.22 5.39-.35 8.09l-2.43-.84-.48-1.28c.28-1.04.58-2.07.89-3.09" style="stroke-width:1.56249" transform="matrix(.64 0 0 .64 -5.693 88.762)"/>
    </g>
    <path fill="#8fbd38" d="M527.26 193.08c2.43-2.45 6.06-1.53 9.07-1.04-2.99.62-6.04.87-9.07 1.04" style="stroke-width:1.95312" transform="matrix(.64 0 0 .64 -5.693 88.762)"/>
    <path fill="#eefff7" d="M544.08 193.04c1.05-.63 2.11-1.25 3.19-1.87 1.58 3.82 2.79 7.79 3.59 11.85-2.48-3.18-4.65-6.57-6.78-9.98" style="stroke-width:1.95312" transform="matrix(.64 0 0 .64 -5.693 88.762)"/>
    <path fill="#292627" d="M486.19 193.16q.945.945 0 0" style="stroke-width:1.95312" transform="matrix(.64 0 0 .64 -5.693 88.762)"/>
    <path fill="#ecfdf9" d="M534.82 193.7c1.94-.29 3.91-.64 5.89-.49 3.25 3.08 4.85 7.47 6.4 11.59-3.86-3.96-8.07-7.54-12.29-11.1" style="stroke-width:1.95312" transform="matrix(.64 0 0 .64 -5.693 88.762)"/>
    <path fill="#95c977" d="M266.01 203.46c.1-2.95.68-5.9 2.19-8.47.05 1.78.21 3.56.33 5.34.51 1.69-1.58 2.19-2.52 3.13" style="stroke-width:1.95312" transform="matrix(.64 0 0 .64 -5.693 88.762)"/>
    <path fill="#797675" d="M487.57 195.28c.8-.26 1.6-.51 2.41-.75.79.82 1.58 1.65 2.38 2.47-1.71 2.22-3.31 4.52-4.75 6.92-.68-.67-1.35-1.34-2.02-2.01l3.84-3.42c-.63-1.07-1.26-2.14-1.86-3.21" style="stroke-width:1.95312" transform="matrix(.64 0 0 .64 -5.693 88.762)"/>
    <path fill="#444041" d="M486.14 196.41c3.44.15-1.54 2.98 0 0" style="stroke-width:1.95312" transform="matrix(.64 0 0 .64 -5.693 88.762)"/>
    <path fill="#312b2d" d="M483.27 198.24c2.96-1.62.26 3.41 0 0" style="stroke-width:1.95312" transform="matrix(.64 0 0 .64 -5.693 88.762)"/>
    <g style="stroke-width:1.95312">
      <path fill="#c9c4c2" d="M476.53 210.87c1.68-1.81 3.26-3.71 4.8-5.64 2.59.84 3.67 3.47 5.05 5.58-1.26 2.04-2.35 4.19-3.08 6.48-2.76 1.07-5.4 2.42-8.09 3.63.14-.52.41-1.55.55-2.07 2-1.16 5.01-1.49 5.62-4.11-2.01.61-3.94 1.44-5.93 2.07 1.11-1.38 2.45-2.56 3.8-3.71-.91-.75-1.82-1.49-2.72-2.23m2.35.05c.52.99 1.28 1.8 2.3 2.44.17-.65.5-1.96.67-2.62.64.18 1.91.54 2.54.72-.52-1.01-1.04-2.01-1.55-3.01-1.3.86-2.67 1.61-3.96 2.47M325.8 294.79c5.03-.48 10.08-.4 15.11-.9.52 3.46 1.05 6.93 1.8 10.36-1.69-2.8-1.99-6.07-2.22-9.25-4.89-.37-9.79-.36-14.69-.21" style="stroke-width:1.56249" transform="matrix(.64 0 0 .64 -5.693 88.762)"/>
    </g>
    <g style="stroke-width:1.95312">
      <path fill="#fcfcfd" d="M326.09 211.85c2.94-.74 5.88-1.46 8.89-1.86-1.07 1.02-2.15 2.02-3.24 3.01 2.3.08 4.6.14 6.9.27-1.29.62-2.59 1.21-3.9 1.79 1.74.78 3.47 1.56 5.23 2.31-1.78.28-3.56.55-5.31.95-1.35.32-2.68.65-4.03.94-.75-.6-1.51-1.19-2.24-1.8-1.49-1.53-1.99-3.58-2.3-5.61m42 32.26c2.48-.79 5.05-1.25 7.6-1.79-.05.56-.13 1.69-.17 2.25-2.47.59-4.9 1.29-7.3 2.07-.04-.63-.1-1.9-.13-2.53" style="stroke-width:1.56249" transform="matrix(.64 0 0 .64 -5.693 88.762)"/>
    </g>
    <path fill="#fc0812" d="M328.39 217.46c.73.61 1.49 1.2 2.24 1.8 3.46 4.64 7.03 9.25 9.84 14.34 3 5.28 2.85 11.73 6.1 16.9 1.91 3.08 3.5 6.41 3.93 10.05.92 6.62 3.43 12.99 3.34 19.74-.32 2.15-.33 4.34-.23 6.51-.86 9.21 2.05 19.61-3.8 27.68-4.13-1.76-5.86-6.26-7.1-10.23-.75-3.43-1.28-6.9-1.8-10.36-.52-4.22-.62-8.51-.1-12.73.47-2 .93-3.99 1.27-6.02.7-7.16.63-14.38.35-21.56-.69 0-1.38 0-2.06.01l-1.45.04c-1.72 7.47.64 15.14-.93 22.64-.31 1.02-.61 2.05-.89 3.09-.68-1.85-1.31-3.72-1.84-5.61-1.06-4.16-1.98-8.37-2.68-12.6-.12-3.4.48-6.76.6-10.14-1.27-4.32-5.2-7.59-5.55-12.25-.18-3.71.31-7.41.24-11.11-1.85.67-4.22.86-5.3 2.75-1.02 5.49.43 10.92 2.1 16.11 1.55 3.88-.3 7.81-1.81 11.37-2.92 5.11-2.64 11.09-3.03 16.76-.34.43-1.02 1.28-1.36 1.71-.99-4.71-1.02-9.54-.55-14.3.3-3.36.47-6.87-.89-10.04-1.67.46-1.74 2.32-2.25 3.69-.51 1.8-1.1 3.59-2.01 5.23-2.28 3.22-3.45 7-2.6 10.95-.71.3-2.12.89-2.83 1.19.08-3.2.4-6.38.4-9.57-.58-3.81-4.3-6.3-6.35-9.43 4.88-9 4.39-19.94 9.82-28.69 1.97-3.45 5.58-5.63 9.32-6.67 2.6-.48 5.24-.79 7.86-1.25" style="stroke-width:1.95312" transform="matrix(.64 0 0 .64 -5.693 88.762)"/>
    <path fill="#d6685f" d="M330.63 219.26c1.35-.29 2.68-.62 4.03-.94-.34 4.36 3.36 7.15 5.49 10.48 3.11 4.51 4.96 9.74 5.94 15.11.66 4.32 3.86 7.52 5.55 11.4 1.49 4.64 1.25 9.64 2.8 14.28.92 3.5 2.81 7.91-.6 10.7.09-6.75-2.42-13.12-3.34-19.74-.43-3.64-2.02-6.97-3.93-10.05-3.25-5.17-3.1-11.62-6.1-16.9-2.81-5.09-6.38-9.7-9.84-14.34" style="stroke-width:1.95312" transform="matrix(.64 0 0 .64 -5.693 88.762)"/>
    <path fill="#edfdee" d="M551.95 221.22c1.69-.3 3.39-.57 5.1-.78.13 5.5.2 11.05 1.46 16.44-.39-.17-1.16-.52-1.55-.69-1.28-5.12-3.45-9.94-5.01-14.97" style="stroke-width:1.95312" transform="matrix(.64 0 0 .64 -5.693 88.762)"/>
    <path fill="#f9fef3" d="M259.79 221.57c1.65.02 3.62-.34 4.74 1.22-1.69 5.14-3.05 10.41-5.28 15.34.28-5.51.56-11.03.54-16.56" style="stroke-width:1.95312" transform="matrix(.64 0 0 .64 -5.693 88.762)"/>
    <path fill="#fcfdfb" d="M322.57 230.4c1.08-1.89 3.45-2.08 5.3-2.75.07 3.7-.42 7.4-.24 11.11.35 4.66 4.28 7.93 5.55 12.25-.12 3.38-.72 6.74-.6 10.14-3.28.39-6.57.66-9.84 1.12-.01-1.47.01-2.93.12-4.39 1.51-3.56 3.36-7.49 1.81-11.37-1.67-5.19-3.12-10.62-2.1-16.11" style="stroke-width:1.95312" transform="matrix(.64 0 0 .64 -5.693 88.762)"/>
    <g style="stroke-width:1.95312">
      <path fill="#e3ffd8" d="M542.87 228.89c3.48 6.56 10.97 9.64 14.32 16.26-6.15-3.37-10.31-9.17-15.44-13.78zM274.9 294.92c.51 1.1 1.01 2.2 1.51 3.3.45.04 1.35.11 1.8.15-1.33 4.16-2.22 8.48-4.16 12.43q-.285-2.535-.42-5.07c.56-3.59 1.2-7.17 1.27-10.81m-20.37 38.85c4.34 4.15 9.75 6.89 14.51 10.49-5.66-1.31-10.55-4.54-15.48-7.46.32-1.01.65-2.02.97-3.03m203 64.61c5.72-3.32 12.22-4.91 18.58-6.52 1.69-.6 3.43-.28 4.85.83-7.58 2.73-15.54 4.18-23.43 5.69" style="stroke-width:1.56249" transform="matrix(.64 0 0 .64 -5.693 88.762)"/>
    </g>
    <g style="stroke-width:1.95312">
      <path fill="#76ab7c" d="M266.55 243.47c5.21-.1 8.55-5.28 13.79-5.65-.9 1.55-2.07 2.94-3.65 3.83-4.25 2.66-8.28 5.86-13.15 7.32.86-1.9 1.71-3.84 3.01-5.5m282.62 100.11c2.69-3.98 7.21-5.9 11.31-8.06 2.13-.03 4.26.08 6.4.21-1.63 2.39-3.53 4.69-6.15 6.02-5.9 3.16-12.42 5.08-19 6.16 2.77-.84 5.78-1.76 7.44-4.33" style="stroke-width:1.56249" transform="matrix(.64 0 0 .64 -5.693 88.762)"/>
    </g>
    <g style="stroke-width:1.95312">
      <path fill="#f8fdf4" d="M365.32 251.17c2.44-3.02 6.54-3.68 10.16-4.18-3.13 1.94-6.74 2.9-10.16 4.18m182.49 74.6c2.67-3.17 7.07-3.34 10.79-4.35l1.4 2.16c-9.14 4.04-14.96 12.69-23.47 17.65 3.15-5.55 7.11-10.64 11.28-15.46" style="stroke-width:1.56249" transform="matrix(.64 0 0 .64 -5.693 88.762)"/>
    </g>
    <path fill="#ea816c" d="M314.78 255.7c.51-1.37.58-3.23 2.25-3.69 1.36 3.17 1.19 6.68.89 10.04l-.96.24c-.09-2.7-.14-5.38-.16-8.07-.68.49-1.35.98-2.02 1.48" style="stroke-width:1.95312" transform="matrix(.64 0 0 .64 -5.693 88.762)"/>
    <path fill="#e67466" d="m338.92 253.63 1.45-.04c-.98 6.59.36 13.19-.01 19.8q-1.215 1.425-2.37 2.88c1.57-7.5-.79-15.17.93-22.64" style="stroke-width:1.95312" transform="matrix(.64 0 0 .64 -5.693 88.762)"/>
    <path fill="#3e0200" d="M340.37 253.59c.68-.01 1.37-.01 2.06-.01.28 7.18.35 14.4-.35 21.56-.43-.43-1.29-1.31-1.72-1.75.37-6.61-.97-13.21.01-19.8" style="stroke-width:1.95312" transform="matrix(.64 0 0 .64 -5.693 88.762)"/>
    <path fill="#f9fdf8" d="M251.09 254.37c2.22.78 4.45 1.5 6.72 2.14.61 5.85.8 11.75.44 17.62-1.18-1.14-1.92-2.58-2.27-4.17-1.33-5.29-3.35-10.36-4.89-15.59" style="stroke-width:1.95312" transform="matrix(.64 0 0 .64 -5.693 88.762)"/>
    <path fill="#ffe6f8" d="M314.78 255.7c.67-.5 1.34-.99 2.02-1.48.02 2.69.07 5.37.16 8.07-1.06.21-2.11.4-3.16.57-.26-.48-.77-1.45-1.03-1.93.91-1.64 1.5-3.43 2.01-5.23" style="stroke-width:1.95312" transform="matrix(.64 0 0 .64 -5.693 88.762)"/>
    <path fill="#fcfef6" d="M559.63 255.58c2.06-.81 4.26-1.14 6.44-1.51-1.05 3.26-2.38 6.43-3.27 9.73-1 3.34-1.44 7.01-3.85 9.71-.44-5.97-.16-12.01.68-17.93" style="stroke-width:1.95312" transform="matrix(.64 0 0 .64 -5.693 88.762)"/>
    <path fill="#868083" d="M367.19 255.98c3.37-.72-.01 4.21-.87 1.16.22-.29.65-.87.87-1.16" style="stroke-width:1.95312" transform="matrix(.64 0 0 .64 -5.693 88.762)"/>
    <path fill="#df7167" d="M319.83 274.64c.39-5.67.11-11.65 3.03-16.76-.11 1.46-.13 2.92-.12 4.39.08 4.57-.23 9.13-.86 13.66-.52-.33-1.54-.97-2.05-1.29" style="stroke-width:1.95312" transform="matrix(.64 0 0 .64 -5.693 88.762)"/>
    <path fill="#d76e63" d="M310.17 271.88c-.85-3.95.32-7.73 2.6-10.95.26.48.77 1.45 1.03 1.93l.27.41c-1.46 2.8-2.41 5.83-3.9 8.61" style="stroke-width:1.95312" transform="matrix(.64 0 0 .64 -5.693 88.762)"/>
    <g style="stroke-width:1.95312">
      <path fill="#120a0b" d="M322.74 262.27c3.27-.46 6.56-.73 9.84-1.12.7 4.23 1.62 8.44 2.68 12.6-1.84.33-3.68.67-5.52 1.03-2.6.52-5.24.77-7.86 1.15.63-4.53.94-9.09.86-13.66m-25.36 7.12c1.45-4.27 6.59-4.94 10.36-5.89 0 3.19-.32 6.37-.4 9.57.71-.3 2.12-.89 2.83-1.19 1.49-2.78 2.44-5.81 3.9-8.61.54.49 1.61 1.46 2.15 1.94.15 3.88.04 7.77-.17 11.64-5.76 2.45-12.23 2.78-17.65 6.03-.02-.68-.05-2.05-.07-2.73-1.08.16-2.16.31-3.23.46 1.1-3.67 1.48-7.49 2.28-11.22" style="stroke-width:1.56249" transform="matrix(.64 0 0 .64 -5.693 88.762)"/>
    </g>
    <path fill="#871419" d="M313.8 262.86c1.05-.17 2.1-.36 3.16-.57l.96-.24c-.47 4.76-.44 9.59.55 14.3l.14.86-2.56-.36c.21-3.87.32-7.76.17-11.64-.54-.48-1.61-1.45-2.15-1.94z" style="stroke-width:1.95312" transform="matrix(.64 0 0 .64 -5.693 88.762)"/>
    <g style="stroke-width:1.95312">
      <path fill="#f0ffd1" d="M570 276.63c2.63-3 4.92-6.49 8.52-8.43-4.16 5.62-8.69 11.18-14.54 15.14 1.09-2.95 2.6-5.72 4.49-8.22.38.38 1.14 1.13 1.53 1.51m-292.44 38.26c-.9-1.46 1.44-3.48 2.75-2.39-.29 1.28-1.32 2.52-2.75 2.39m12.33 5.04c.96 2.82 1.9 5.67 2.38 8.63-.73 3.1-1.65 6.17-2.93 9.09-.49-5.92.79-11.8.55-17.72m180.35 67.56 1.72-1.64c1.04 1.07 2.09 2.15 3.13 3.24-3.53 1.85-7.44 2.85-11.43 2.8 1.17-.94 2.25-2.08 3.68-2.63 1.1-.33 2.17-.85 2.9-1.77" style="stroke-width:1.56249" transform="matrix(.64 0 0 .64 -5.693 88.762)"/>
    </g>
    <g style="stroke-width:1.95312">
      <path fill="#defec7" d="M559.77 282.3c.46-3.57 1.49-7.03 2.89-10.34.13.64.38 1.91.5 2.55 1.01-.82 2.01-1.63 3.04-2.43-1.63 3.7-3.57 7.32-6.43 10.22m-79.95 87.3c.59-2.21 1.23-4.41 1.98-6.58-.64 5.23-.76 10.55-2.04 15.69-1.06-3.44-1.23-7.05-1.56-10.61.54.5 1.07 1 1.62 1.5" style="stroke-width:1.56249" transform="matrix(.64 0 0 .64 -5.693 88.762)"/>
    </g>
    <path fill="#7ba6c7" d="M577.96 276.02c-3.1 1.47-2.08-4.43.33-1.7-.08.43-.25 1.28-.33 1.7" style="stroke-width:1.95312" transform="matrix(.64 0 0 .64 -5.693 88.762)"/>
    <path fill="#ad7e7a" d="M329.74 274.78c1.84-.36 3.68-.7 5.52-1.03.53 1.89 1.16 3.76 1.84 5.61l.48 1.28 2.43.84c-2.29.76-4.67 1.2-7.05 1.52.87-.49 1.74-.96 2.61-1.43-.22-2.25-.37-4.5-.48-6.75-1.79-.04-3.57-.06-5.35-.04" style="stroke-width:1.95312" transform="matrix(.64 0 0 .64 -5.693 88.762)"/>
    <path fill="#fb818b" d="M340.36 273.39c.43.44 1.29 1.32 1.72 1.75-.34 2.03-.8 4.02-1.27 6.02l-.8.32c.13-2.7.24-5.39.35-8.09" style="stroke-width:1.95312" transform="matrix(.64 0 0 .64 -5.693 88.762)"/>
    <path fill="#effeef" d="M558.2 293.2c2.9-2.67 6.73-4.02 9.93-6.3.92 1.23 1.78 2.5 2.62 3.81l-.76-.69c-.5-.46-1.51-1.37-2.01-1.83-5.12 5.39-8.91 11.86-13.98 17.29.93-4.22 1.96-8.56 4.2-12.28" style="stroke-width:1.95312" transform="matrix(.64 0 0 .64 -5.693 88.762)"/>
    <path fill="#f2fef1" d="m250.55 289.97 2.38.12c2.52 1.28 5.73 2.12 6.99 4.91 1.88 3.86 3.05 8.03 4.14 12.17-4.57-5.26-8.32-11.16-12.89-16.43z" style="stroke-width:1.95312" transform="matrix(.64 0 0 .64 -5.693 88.762)"/>
    <path fill="#e1ffee" d="M549.8 291.73c1.69.58 3.37 1.2 5.04 1.89-1.76 4.03-3.16 8.2-4.36 12.43-.4-4.76-1.26-9.53-.68-14.32" style="stroke-width:1.95312" transform="matrix(.64 0 0 .64 -5.693 88.762)"/>
    <path fill="#f4fdf8" d="M262.92 293.5c1.65-.11 3.31-.23 4.98-.32l-.2 1.55c-.4 2.92-.86 5.83-1.38 8.74-1.36-3.25-2.56-6.56-3.4-9.97" style="stroke-width:1.95312" transform="matrix(.64 0 0 .64 -5.693 88.762)"/>
    <path fill="#bfd59a" d="M266.32 303.47c.52-2.91.98-5.82 1.38-8.74.28 3.7.38 7.42.23 11.14l-1.98-.24c.09-.54.27-1.62.37-2.16" style="stroke-width:1.95312" transform="matrix(.64 0 0 .64 -5.693 88.762)"/>
    <g style="stroke-width:1.95312">
      <path fill="#c2fec8" d="M529.93 321.02c.73-.63 1.46-1.26 2.2-1.88-.23 6.38.58 12.73.66 19.11-1.01-1.49-1.98-3-2.97-4.49-.39 1.74-.74 3.49-1.1 5.24-1.33-4.26-2.68-8.51-3.9-12.8.84-1.19 1.69-2.37 2.54-3.55.42 3.65 1.08 7.28 2.21 10.8 1.68-3.97 1.03-8.32.36-12.43m-226 23.35c.5-1.65 1.19-3.22 1.85-4.81-.23 7.81 3.5 15.43 1.72 23.19-1.65-6.03-2.39-12.25-3.57-18.38m27.88 20.72c.71-1.08 1.43-2.15 2.16-3.22-.56 7.22 3.01 14.07 1.98 21.25-2.43-5.74-2.92-11.99-4.14-18.03M454 393.22c2.07-4.72 4.53-9.74 9.03-12.58-1.87 4.79-4.19 10.15-9.03 12.58" style="stroke-width:1.56249" transform="matrix(.64 0 0 .64 -5.693 88.762)"/>
    </g>
    <g style="stroke-width:1.95312">
      <path fill="#edfee4" d="M542.23 321.86c.89.91 2.53 1.5 2.4 3.04-1.27 2.82-3.51 5.06-5.65 7.25.47-3.6 1.74-7.01 3.25-10.29m-25.04 35.09c2.14-3.86 4.29-7.79 7.62-10.76.6.56 1.79 1.68 2.39 2.24-2.75 3.47-6.42 6-10.01 8.52" style="stroke-width:1.56249" transform="matrix(.64 0 0 .64 -5.693 88.762)"/>
    </g>
    <g style="stroke-width:1.95312">
      <path fill="#e2fedf" d="M272.25 324.78c1.12-.61 2.25-1.2 3.39-1.78 1.49 3.48 3.54 6.97 3.46 10.87-2.43-2.92-4.67-5.99-6.85-9.09m19.3 24.78c-1.34-1.94 1.75-1.96 2.9-2.66 2.09 3.54 4.44 6.91 6.36 10.55-3.47-2.12-6.74-4.7-9.26-7.89" style="stroke-width:1.56249" transform="matrix(.64 0 0 .64 -5.693 88.762)"/>
    </g>
    <path fill="#f7fdf5" d="M318.08 363.77c4.14 4.72 8.09 9.74 10.67 15.51-4.22-3.67-8.74-7.07-12.47-11.24.5-1.47 1.17-2.87 1.8-4.27" style="stroke-width:1.95312" transform="matrix(.64 0 0 .64 -5.693 88.762)"/>
    <path fill="#f5fdfa" d="M499.16 364.2c2.56-.78 1.9 2.76 2.61 4.25l-.94.26c-1.52.19-2.48 1.45-3.28 2.62-1.1 1.38-2.26 2.69-3.33 4.09-.4-.64-1.21-1.92-1.61-2.56 2.31-2.79 3.93-6.13 6.55-8.66" style="stroke-width:1.95312" transform="matrix(.64 0 0 .64 -5.693 88.762)"/>
    <path fill="#95bb37" d="M497.55 371.33c.8-1.17 1.76-2.43 3.28-2.62 1.15 1.72-1.84 3.98-3.28 2.62" style="stroke-width:1.95312" transform="matrix(.64 0 0 .64 -5.693 88.762)"/>
    <path fill="#64aca7" d="M503.29 370.76c.47-1.25 2.5-1.74 2.76-.06-.69.01-2.07.05-2.76.06" style="stroke-width:1.95312" transform="matrix(.64 0 0 .64 -5.693 88.762)"/>
    <path fill="#f3fef1" d="M310.07 372.64c1.24-.57 2.48-1.2 3.83-1.52 1.71.88 3.15 2.18 4.63 3.4 4.63 3.98 9.91 7.24 13.86 11.96-8.22-3.12-15.51-8.38-22.32-13.84" style="stroke-width:1.95312" transform="matrix(.64 0 0 .64 -5.693 88.762)"/>
    <path fill="#ccedcd" d="M503.29 370.76c.69-.01 2.07-.05 2.76-.06.27.58.81 1.76 1.08 2.35-3.99 3.38-8.46 6.12-12.46 9.48-2 1.58-4.05 3.41-6.69 3.71-.64.07-1.93.23-2.57.3 3.08-3.61 6.79-6.59 10.47-9.55 1.71-1.37 3.42-2.71 5.09-4.12.79-.68 1.56-1.38 2.32-2.11" style="stroke-width:1.95312" transform="matrix(.64 0 0 .64 -5.693 88.762)"/>
    <path fill="#9bdc89" d="M489.63 378.22a32.3 32.3 0 0 1 2.98-5.36c.4.64 1.21 1.92 1.61 2.56-1.33 1.23-2.9 2.16-4.59 2.8" style="stroke-width:1.95312" transform="matrix(.64 0 0 .64 -5.693 88.762)"/>
    <path fill="#6fa1a4" d="M495.88 376.99c1.69-1.38 3.41-2.73 5.09-4.12-1.67 1.41-3.38 2.75-5.09 4.12" style="stroke-width:1.95312" transform="matrix(.64 0 0 .64 -5.693 88.762)"/>
    <path fill="#d3da78" d="M304.49 378.95c-2.43-1 1.86-3.25 1.46-.66-.36.17-1.09.5-1.46.66" style="stroke-width:1.95312" transform="matrix(.64 0 0 .64 -5.693 88.762)"/>
    <path fill="#e9feed" d="m347.66 376.53.57.75c2.99 4.2 6.27 8.22 8.8 12.72-3.64-2.08-7.01-4.59-10.38-7.09.36-2.12.74-4.24 1.01-6.38" style="stroke-width:1.95312" transform="matrix(.64 0 0 .64 -5.693 88.762)"/>
    <path fill="#e5ffed" d="M345.06 386.17c4.28 2.04 8.5 4.33 12.08 7.49-4.53-.94-8.97-2.29-13.37-3.72.42-1.27.85-2.52 1.29-3.77" style="stroke-width:1.95312" transform="matrix(.64 0 0 .64 -5.693 88.762)"/>
    <path fill="#5fb5a4" d="M467.34 389.26c-.88-1.58 1.88-3.22 2.9-1.77-.73.92-1.8 1.44-2.9 1.77" style="stroke-width:1.95312" transform="matrix(.64 0 0 .64 -5.693 88.762)"/>
    <path fill="#7cdd73" d="M369.51 392.22c1.3-1.12 3.27 1.09 2.11 2.3-1.31 1.1-3.25-1.1-2.11-2.3" style="stroke-width:1.95312" transform="matrix(.64 0 0 .64 -5.693 88.762)"/>
    <path fill="#76d66f" d="M446.63 392.08c1.32-1.36 3.21 1 1.86 2.15-1.3 1.34-3.15-1.02-1.86-2.15" style="stroke-width:1.95312" transform="matrix(.64 0 0 .64 -5.693 88.762)"/>
    <path fill="#bcf2a5" d="M442.45 395.32c2.13-.93 2.32 2.46.47 2.84-2.12.9-2.27-2.46-.47-2.84" style="stroke-width:1.95312" transform="matrix(.64 0 0 .64 -5.693 88.762)"/>
    <path fill="#b1c95a" d="M474.63 406.69c2.93-1.31 6.58-1.33 9.07.93l-1.03-.1c-2.68-.28-5.36-.62-8.04-.83" style="stroke-width:1.95312" transform="matrix(.64 0 0 .64 -5.693 88.762)"/>
    <path fill="#92c8ac" d="M433.13 414.58c4.56 1.21 9.21 2.26 13.96 2.08l1.18.03c-2.84 2.07-6.36.91-9.53.56-.31.82-.63 1.64-.95 2.46-1.67-.5-3.32-1.03-4.94-1.65.43.13 1.29.39 1.71.52-.47-1.34-.95-2.67-1.43-4" style="stroke-width:1.95312" transform="matrix(.64 0 0 .64 -5.693 88.762)"/>
  </g>
</svg>
