<svg id="flag-icons-ru-kl" class="fi fi-ru-kl" viewBox="0 0 512 512" xmlns="http://www.w3.org/2000/svg" width="512" height="512">
  <metadata id="flag-icons">
    <name>Kalmykia</name>
    <code>ru-kl</code>
    <iso>true</iso>
    <type>Place</type>
    <capital>Elista</capital>
    <continent>Europe</continent>
  </metadata>
  <path fill="#ffc72c" d="M0 0h512v512H0Z" style="stroke-width:.666666"/>
  <g style="stroke-width:.625" transform="translate(-256)scale(1.6)">
    <circle cx="320" cy="160" r="92.8" fill="#009cdd" style="stroke-width:.416666"/>
    <g fill="#fff" stroke="#009cdd" stroke-linecap="round" stroke-linejoin="round" stroke-width="1.2">
      <path d="M291.3 154.7c-5-17.3-11.9-25.6-27.3-33-11.8 29.9 10 48.2 29.7 49.1-23.6-1.1-25.7-19.2-58.4-3.2 28.3 29.8 41 15.9 66 7.9-17.6 5.6-29 13.8-32.5 29.4 20.7 2.2 39.9 1.6 51.2-26 11.3 27.7 30.5 28.2 51.2 26-3.4-15.5-14.9-23.8-32.5-29.4 25 8 37.8 21.9 66-7.9-32.7-16-34.8 2-58.4 3.2 19.6-.9 41.5-19.2 29.7-49.1-15.4 7.4-22.3 15.7-27.3 33" style="stroke-width:1.2"/>
      <path d="M300.8 169c-17.5-14.7-23.8-37-10-55.8 11.2 8 16.6 18.1 21.2 37.3m27.4 18.5c17.5-14.7 23.8-37 10-55.8-11.2 8-16.6 18.1-21.2 37.3" style="stroke-width:1.2"/>
      <path d="M328.4 169.4c9.1-19.2 8.6-45.3-8.3-58.8-16.9 13.6-17.5 39.6-8.3 58.8" style="stroke-width:1.2"/>
    </g>
  </g>
</svg>
