<svg id="flag-icons-ru-kgd" class="fi fi-ru-kgd" viewBox="0 0 512 512" xmlns="http://www.w3.org/2000/svg" width="512" height="512">
  <metadata id="flag-icons">
    <name>Kaliningrad Oblast</name>
    <code>ru-kgd</code>
    <iso>true</iso>
    <type>Place</type>
    <capital>Kaliningrad</capital>
    <continent>Europe</continent>
  </metadata>
  <g style="stroke-width:1.00467">
    <path fill="#283595" d="M0 0h630v420H0Z" style="stroke-width:.879089" transform="scale(.8127 1.21905)"/>
    <path fill="#fdf100" d="M0 0h630v240H0Z" style="stroke-width:.879089" transform="scale(.8127 1.21905)"/>
    <path fill="#ec1a23" d="M0 0h630v180H0Z" style="stroke-width:.879089" transform="scale(.8127 1.21905)"/>
  </g>
  <g stroke="#000" style="stroke-width:.820312">
    <path fill="#fff" stroke-width=".905" d="m47.34 191.01.098-58.395h-2.362l.097-4.628h2.166l.099-21.862 2.659-.097.197-23.733-7.78-10.34-.097-22.157h10.635l-.099 11.129 5.416.097.098-11.325 9.947.1v10.93h4.43l-.196-11.127 11.422.097v21.764l-8.075 11.521.198 23.044 18.734.024.073 14.279 6.058.024-.198-14.13h19.376l.024 14.18 6.672.073-.099-14.353 20.015.05v14.28h6.45V106.15l18.685-.074-.147-23.315-8.075-11.422.049-21.419h10.61l.099 10.98 5.416.025-.024-11.054 9.847.025.073 10.955 4.556.05-.024-11.005 10.782.049.024 21.935-7.606 11.004.146 23.117 3.128.025.097 22.157 1.527.024.074 4.235-1.724.05.099.024-.024 59.38-59.502-.343.02-41.642-.283-3.99-1.484-4.51-3.84-3.496-4.345-3.243-5.68-1.231-5.255.066-5.441 1.31-3.901 3.404-3.358 4.084-1.69 4.34-.095 2.797v41.906z"/>
    <path fill="none" stroke-width=".905" d="m76.069 105.902-1.185.07.07 14.693-6.685-.07v-14.762l-18.173.139m121.768.113 1.166-.025-.035 14.397h6.198l-.07-14.276 18.59-.07m-48.177 85.293-.098-3.743h-8.174l9.06-.097v-5.219l-9.158.098 7.976-.098v-5.416l-7.68-.099 8.665-.147-.024-4.506h-8.863 7.853v-5.416l-7.804-.049 9.01.049.024-5.514-9.157.024 7.903-.024-.025-5.59h-7.903l9.085-.024-.073-5.317-8.963-.024 6.696-.025.075-6.696-6.868 2.609 8.32-3.176-3.447-6.105-6.892 4.9 5.366-3.89-4.062-4.95-5.071 4.703 6.646-6.205-6.253-4.43-3.89 7.705 3.275-6.498-7.435-1.7-1.772 6.919 2.313-8.814-4.75.024M97.759 191.01l.098-3.347h8.173l-9.06-.1v-5.218l9.16.098-7.977-.098v-5.416l7.68-.099-8.665-.147.024-4.506h8.863-7.853v-5.416l7.804-.049-9.01.049-.024-5.514 9.157.024-7.903-.024.024-5.59h7.903l-9.084-.024.073-5.317 8.963-.024-6.697-.025-.074-6.696 6.868 2.609-8.32-3.176 3.446-6.105 6.893 4.9-5.366-3.89 4.062-4.95 5.07 4.703-6.645-6.205 6.253-4.43 3.889 7.705-3.274-6.498 7.435-1.7 1.772 6.919-2.314-8.814 4.751.024m77.27 7.854-60.068.147m59.774-4.48-63.074.198m-90.417 4.233h59.234m-59.036-4.628 62.038.296"/>
    <path fill="none" stroke-width=".452" d="m116.173 120.798.099 6.401m-15.067-6.204v6.992m-14.968-7.09.098 7.78m-15.36-7.68-.1 7.286m-14.278-7.288v6.894m74.544-7.091-.098 6.401m15.067-6.204v6.992m14.968-7.09-.1 7.78m15.363-7.68.098 7.286m14.279-7.288v6.894m-96.43 59.477.098 4.334m-16.149-4.334v4.137m8.271-11.72.198 7.583m7.286-14.868v7.483m-15.46-7.287-.097 7.189m-7.485.296.097 7.286m-7.385-.097.1 4.135m-7.288-11.522-.098 7.19m7.286-14.673-.097 7.582m-7.189-14.279-.197 6.893m14.672-7.09v7.09m15.362-7.09.197 7.189m7.681-15.068v7.683m-7.878-14.674v6.894m7.68-14.279.1 7.485m-15.56-7.485.098 7.583m-14.967-7.385v6.99m-7.188-14.672-.099 7.68m14.574-7.582-.097 7.386m15.558-7.485v7.583m7.68-10.832.099 3.053m-15.46-2.954.098 2.954m-15.165-2.954.098 3.151m14.772 21.96v7.583m-14.968-7.682v7.878m-6.795-15.067v7.09m14.18-6.893.098 7.189m82.054 29.443-.098 4.334m16.149-4.334v4.137m-8.273-11.72-.196 7.583m-7.287-14.868v7.483m15.46-7.287.098 7.189m7.485.296-.098 7.286m7.385-.097-.098 4.135m7.286-11.522.099 7.19m-7.287-14.673.098 7.582m7.189-14.279.198 6.893m-14.674-7.09v7.09m-15.361-7.09-.198 7.189m-7.68-15.068v7.683m7.878-14.674v6.894m-7.682-14.279-.097 7.485m15.557-7.485-.097 7.583m14.967-7.385v6.99m7.189-14.672.098 7.68m-14.574-7.582.099 7.386m-15.56-7.485v7.583m-7.68-10.832-.1 3.053m15.462-2.954-.099 2.954m15.165-2.954-.097 3.151m-14.773 21.96v7.583m14.97-7.682v7.878m6.794-15.067v7.09m-14.181-6.893-.098 7.189m-67.602-44.215.049 7.312m-29.591-7.312v7.239M64.13 113.61l-.073 7.434m75.06-7.336-.05 7.263m29.592-7.263v7.336m15.067-7.434v7.534m16.748 66.122-49.917.295m50.115-7.582H149.36m51.215-7.188h-50.517m50.417-7.088h-49.817m49.817-7.779-51.315-.099m51.315-7.189-50.217.198m50.115-7.189-52.011-.196m52.306-7.484-57.597-.196m-95.633 51.5 49.237.295m-49.433-7.583h50.614m-50.517-7.188h49.829m-49.73-7.09h49.14m-49.14-7.78 50.615-.098m-50.615-7.189 49.532.197m-49.433-7.189 51.304-.196m-51.206-7.485 56.425-.196m27.337-29.838-.097 7.878m30.097-7.878-.099 7.878m29.987-7.878-.098 7.878m-74.999-7.878.1 7.878m-30.1-7.878.1 7.878M56.3 105.929l.099 7.878m-9.01 7.188 153.557.013m-21.507-7.23 21.305-.015m-47.226.017 19.143-.017m-45.288.122 19.14-.019m-45.184-.05 19.142-.02m-45.597.055 20.421-.298m-47.925.436 20.421-.297m.468 5.38 6.843-.088m-7.051-5.9 6.842-.088m-6.842-5.413 6.842-.089m-5.269-.114.148 5.833m-6.868-11.316.174 3.916m-.207-15.472.141 5.708m-.095-17.084.147 5.319m6.491 11.677.146 5.833m-13.52-5.726.146 5.833m13.13-17.56.147 5.833M56.08 84.448l.146 5.833m13.327-17.265.146 5.833m-13.52-5.724.146 5.833m19.688-11.072.146 5.319m-13.244-5.614.147 5.319m-13.54-5.122.147 5.32m19.894-11.032.146 5.319m-13.54-5.22.148 5.319m20.09-11.03.146 5.319m-13.589-5.32.148 5.32m-13.49-5.32.146 5.32m.539 40.285 25.753-.268m-25.684-5.442 25.754-.268M50.447 90.3l25.753-.268M50.17 84.66l25.753-.268m-27.796-5.175 30.883-.245m-35.673-5.827 38.931-.217M42.505 67.78l41.5-.208m-41.569-5.536 41.5-.209m-10.861-5.362 7.1-.093 3.482-.046m-25.653 0 10.583-.14m-26.152.348 10.585-.139m126.424 62.668-6.843-.088m7.052-5.9-6.843-.088m6.843-5.412-6.843-.09m5.268-.114-.146 5.833m6.867-11.317-.173 3.918m.207-15.473-.142 5.708m.095-17.084-.147 5.319m-6.491 11.676-.146 5.833m13.52-5.724-.146 5.833m-13.13-17.562-.146 5.833m13.52-5.724-.145 5.833m-13.327-17.266-.146 5.833m13.52-5.725-.146 5.833m-19.688-11.07-.146 5.318m13.244-5.615-.147 5.32m13.54-5.122-.147 5.319m-19.893-11.03-.147 5.318m13.54-5.22-.146 5.319m-20.09-11.031-.148 5.32m13.589-5.32-.146 5.32m13.49-5.32-.148 5.32m-.539 40.284-25.408-.268m25.339-5.442-25.334-.292m25.264-5.766-25.285-.193m25.563-5.447-25.752-.268m27.795-5.175-30.317-.219m35.108-5.851-39.35-.217m40.182-5.15-41.5-.208m41.57-5.536-41.5-.21m10.86-5.36-7.1-.095-3.483-.045m25.654 0-10.017-.041m25.585.25-10.584-.14"/>
    <path fill="#ffd211" stroke-width=".173" d="M124.717 39.292c11.662.028 12.078 11.67 4.492 13.43 3.05-4.093 3.206-6.783 2.304-8.96.187 2.539-.375 4.401-2.723 4.654 1.807-6.72-4.167-5.969-4.7-6.633z"/>
    <g fill="#ffd211" style="stroke-width:.717773">
      <path stroke-width=".18" d="M122.65 26.819h.646v-1.524l.887-.008-.005-.84-.9-.009-.004-.984-.649-.004.009.992-.975-.009.018.835.965.009.009 1.54zm4.159 12.394 2.707-4.087c5.267-5.76-3.855-10.328-6.498-5.22-3.159-4.991-11.657-.904-6.303 5.318l2.609 3.951z"/>
      <path stroke-width=".204" d="M124.192 27.94a1.229 1.229 0 1 1-2.457 0 1.229 1.229 0 0 1 2.457 0z"/>
      <path stroke-width=".18" d="m116.813 35.323 12.507-.099m-8.37 3.993h4.274l.112 42.47c-1.26.164-3.274.134-4.265-.103 0-15.396-.066-24.13-.12-42.368z"/>
    </g>
    <path fill="#ffd211" stroke-width=".173" d="M131.652 66.684c-4.253.457-3.255-5.868 1.956-4.84 3.955 1.356 6.436 6.365 5.805 9.818-6.501 35.51-56.86-6.956-18.42-15.962l.047 1.768c-14.067 3.136-12.748 26.66 7.261 21.131l-.186 2.793c3.318-.083 14.104-11.815 2.886-17.314-.407.713.082 1.65.651 2.606z"/>
    <path fill="#ffd211" stroke-width=".173" d="M121.064 69.721c-2.403 3.739-8.858 14.117-13.428 6.83-.92 3.103 3.104 12.026 13.428-5.13-.047-.04.017-1.699 0-1.7zm4.235-12.811c3.704-.316 2.41 2.648.024 2.747-12.47 2.135-10.6-10.644-6.563-13.22l-2.514-1.07c1.569-1.136 3.246-3.628 4.7-3.398l.013-2.688c-1.548.19-3.036 1.522-4.34 3.06l.139-3.444c-3.601 5.11-5.105 8.843-4.786 11.505 2.804 23.353 30.169 5.078 13.292 5.018z"/>
  </g>
</svg>
