<svg id="flag-icons-ru-kk" class="fi fi-ru-kk" viewBox="0 0 512 512" xmlns="http://www.w3.org/2000/svg" width="512" height="512">
  <metadata id="flag-icons">
    <name>Khakassia</name>
    <code>ru-kk</code>
    <iso>true</iso>
    <type>Place</type>
    <capital>Abakan</capital>
    <continent>Asia</continent>
  </metadata>
  <g style="stroke-width:.281252">
    <g style="stroke-width:.397749">
      <path fill="#d81e05" d="M0 0h288v144H0Z" style="stroke-width:.497188" transform="scale(1.77778 3.55559)"/>
      <path fill="#fff" d="M0 0h288v96H0Z" style="stroke-width:.497188" transform="scale(1.77778 3.55559)"/>
      <path fill="#0051ba" d="M0 0h288v48H0Z" style="stroke-width:.497188" transform="scale(1.77778 3.55559)"/>
    </g>
    <path fill="#009847" d="M0 0h48v144H0Z" style="stroke-width:.351567" transform="rotate(.045)scale(3.55559)"/>
    <g fill="gold" style="stroke-width:.439455" transform="rotate(45 85.334 256.002)scale(2.84445)">
      <path d="m30 120 21-30-21-30L9 90Z" style="stroke-width:.351567"/>
      <path d="m60 90-30 21L0 90l30-21Z" style="stroke-width:.351567"/>
      <circle cx="30" cy="90" r="24" style="stroke-width:.351567"/>
      <circle cx="30" cy="90" r="21" fill="#009847" style="stroke-width:.54932"/>
      <circle cx="30" cy="90" r="18" style="stroke-width:.351567"/>
      <circle cx="30" cy="90" r="12" fill="#009847" style="stroke-width:.54932"/>
      <circle cx="30" cy="90" r="10" style="stroke-width:.351567"/>
    </g>
  </g>
</svg>
