<svg id="flag-icons-ru-ngr" class="fi fi-ru-ngr" viewBox="0 0 512 512" xmlns="http://www.w3.org/2000/svg" width="512" height="512">
  <metadata id="flag-icons">
    <name>Novgorod Oblast</name>
    <code>ru-ngr</code>
    <iso>true</iso>
    <type>Place</type>
    <capital>Veliky Novgorod</capital>
    <continent>Europe</continent>
  </metadata>
  <g style="stroke-width:2.15287">
    <path fill="#fff" d="M0 0h1350v900H0z" style="stroke-width:2.15285" transform="scale(.37926 .56889)"/>
    <path fill="#2f418c" d="M0 0h270v900H0z" style="stroke-width:2.15285" transform="scale(.37926 .56889)"/>
    <path fill="#d03528" d="M1080 0h270v900h-270z" style="stroke-width:2.15285" transform="scale(.37926 .56889)"/>
  </g>
  <g style="stroke-width:2.06544">
    <g style="stroke-width:2.06544">
      <path d="M129.56 192.28v356.97s.06 14.553 10.469 23.094c10.901 8.943 23.75 8.094 23.75 8.094l102.65.346s15.124.024 22.604 11.122c6.26 9.29 8.872 19.741 9.344 22.594v.781l.062-.406.063.406v-.78c.471-2.854 2.3-13.075 9.344-22.595 8.967-12.119 23.296-11.469 23.296-11.469h101.95s13.662.824 23.75-8.094c10.9-9.635 10.469-23.094 10.469-23.094V192.28H298.376z" style="stroke-width:2.06544" transform="translate(111.51 60.506)scale(.48416)"/>
      <path fill="#ccc" d="M132.38 195.19v318.56h24.802c-.499-2.793-2.089-9.266-7.109-19.625-6.91-14.262-10.38-15.074-10.365-18.031s10.118-11.741 6.451-23.406c-2.57-8.175-9.99-5.768-11.117-7.312-1.054-1.446-2.044-16.565 2.349-39.281 4.393-22.717 10.041-41.602 17.881-61.439 10.276-26.002 32.413-70.194 37.954-74.812 1.268-1.056 7.328 6.25 7.328 6.25s12.32.349 15.03 1.25c2.762.92 7.14 5.875 7.14 5.875s5.476 1.334 8.08 2.344c3.068 1.19 4.746 1.957 6.263 4.813-3.732 9.292-4.81 4.64-10.585 12.5-3.592 1.617-8.004.24-11.086 2.5-4.983 3.655-6.45 18.219-6.45 18.219s7.888.91 15.03-2.875c6.44-3.413 10.635-8.343 19.353-14.625 10.343-7.454 20.415-8.808 20.415-8.808s2.56 5.14 4.45 8.62c-5.604.906-6.267.505-14.5 9.656-8.232 9.152-7.45 12.578-15.697 21.62s-13.265 9.312-19.214 13.166c6.733 1.03 24.05-2.787 28.373 1.47 3.747 3.69 3.04 7.022 1.987 10.145-.815 2.414-6.491 3.61-6.491 3.61s-3.674-.844-10.024-.755c-7.907.11-7.4 5.629-13.719 7.01-5.189 1.134-13.001-.203-13.001-.203s.712 2.985 9.488 2.687c-4.738 12.224-20.23 34.47-20.23 34.47s13.133 2.406 20.042 10.155c8.272 9.278 3.06 18.93 3.07 24.281.012 6.786-2.1 12.513 4.634 19.844s16.66 5.531 16.66 5.531l-.188 10.72h-21.482s-9.572-9.619-19.666-16.095c.275-3.148 2.824-10.972-.72-13.562-7.208-5.269-16.472-4.28-16.472-4.28l1.065 14.28s-3.582 3.254-7.516 8.75-5.355 9.125-5.355 9.125-1.524 10.955 2.13 21.406c1.817 5.198 5.386 5.375 5.386 5.375s10.448-1.045 14.656 2.125c2.583 1.946 2.96 5.139 2.85 7.313h205.3c-.172-2.166.043-5.62 2.786-7.688 4.208-3.17 14.687-2.125 14.687-2.125s3.538-.176 5.355-5.375c3.654-10.45 2.161-21.406 2.161-21.406s-1.452-3.629-5.386-9.125-7.516-8.75-7.516-8.75l1.096-14.28s-9.264-.989-16.472 4.28c-3.544 2.591-.995 10.414-.72 13.562-10.094 6.476-19.697 16.094-19.697 16.094h-21.451l-.188-10.719s9.895 1.8 16.628-5.53c6.734-7.332 4.654-13.059 4.666-19.845.01-5.352-5.234-15.003 3.038-24.28 6.909-7.75 20.042-10.157 20.042-10.157s-15.491-22.245-20.23-34.469c8.776.298 9.488-2.687 9.488-2.687s-10.72.603-15.908-.531c-6.32-1.382-10.006-7.39-17.912-7.5-6.35-.09-6.578-.003-6.578-.003s-3.479-.361-5.136-2.917c-1.495-2.304-1.13-8.6 1.455-10.68 5.221-4.203 24.765.695 31.5-.335-5.95-3.855-9.87-2.017-19.19-9.63s-8.683-11.524-15.72-21.622c-7.743-11.11-8.583-9.296-14.187-10.202-6.613-2.93-3.271-10.349-3.271-10.349s9.698-2.434 20.042 5.02c8.718 6.283 17.177 13.36 26.837 17.844 7.333 3.404 15.031 2.875 15.031 2.875s-1.467-14.564-6.451-18.219c-3.081-2.26-7.494-.882-11.086-2.5-5.775-7.859-6.821-3.207-10.553-12.5 1.517-2.855 3.196-3.623 6.263-4.812 2.604-1.01 8.048-2.344 8.048-2.344s4.41-4.957 7.171-5.875c2.71-.902 15.031-1.25 15.031-1.25s6.06-7.307 7.328-6.25c5.541 4.618 27.37 48.92 37.923 74.812 8.103 19.88 14.96 38.72 19.353 61.438 4.393 22.716 4.436 38.554 3.382 40-1.126 1.545-11.02-1.582-13.59 6.594-3.668 11.666 6.434 20.449 6.45 23.406s-3.486 3.77-10.397 18.03c-5.264 10.865-6.754 17.452-7.171 20h27.965v-318.56z" style="stroke-width:1.94152" transform="translate(111.51 60.506)scale(.48416)"/>
      <path fill="#ddb523" stroke="#8c5700" stroke-width="1" d="M228.83 239.645h-6.163s-.078-5.512.474-6.181c.772-2.897 6.18-6.46 9.839-9.957 3.657-3.498 8.179-9.365 8.179-9.365l-.238 6.756c-6.72 6.934-11.853 10.432-11.853 10.432zm50.881 0h6.164s.078-5.512-.474-6.181c-.772-2.897-6.181-6.46-9.839-9.957s-8.179-9.365-8.179-9.365l.237 6.756c6.72 6.934 11.854 10.432 11.854 10.432z"/>
      <g style="stroke-width:2.06544">
        <path fill="#fff" stroke="#767479" d="M323.61 214.94h5.238v26.735h-5.238z" style="stroke-width:1.94152" transform="translate(111.51 60.506)scale(.48416)"/>
        <path fill="#d23225" stroke="#4a0000" d="M325.55 200.03c-.082 0-.422 2.658-1.94 6.032-1.703 3.784 1.23 6.559 3.09 8.785.032-1.924.538-3.572 1.253-6.498.965-3.952-1.191-5.895-2.403-8.319z" style="stroke-width:1.94152" transform="translate(111.51 60.506)scale(.48416)"/>
        <path fill="#fff" stroke="#767479" d="M254.53 214.77h5.238v26.735h-5.238z" style="stroke-width:1.94152" transform="translate(111.51 60.506)scale(.48416)"/>
        <path fill="#d23225" stroke="#4a0000" d="M256.47 199.86c-.082 0-.422 2.658-1.94 6.032-1.703 3.785 1.23 6.559 3.09 8.785.032-1.924.538-3.572 1.253-6.498.965-3.952-1.191-5.895-2.403-8.319z" style="stroke-width:1.94152" transform="translate(111.51 60.506)scale(.48416)"/>
        <path fill="#fff" stroke="#767479" d="M289.28 213.29h5.238v26.735h-5.238z" style="stroke-width:1.94152" transform="translate(111.51 60.506)scale(.48416)"/>
      </g>
      <g fill="#ddb523" style="stroke-width:1.94152">
        <path stroke="#8c5700" d="M286.67 237.05c.346 6.663 3.004 10.658 3.004 10.658s-3.745 9.27-2.903 20.601h10.267c.045-13.935-2.557-20.774-2.557-20.774s2.484-4.286 2.657-10.485z" style="stroke-width:1.82505" transform="translate(111.51 60.506)scale(.48416)"/>
        <path stroke="#8c5700" d="M262.92 300.49s7.002-5.464 6.448-19.217c14.604-2.514 12.872-15.137 21.852-15.235 9.274-.101 10.175 11.471 22.927 15.235 1.077 13.702 8.956 19.217 8.956 19.217z" style="stroke-width:1.82505" transform="translate(111.51 60.506)scale(.48416)"/>
        <path d="M273.75 302.94h39.649v70.275H273.75z" style="stroke-width:2.06544" transform="translate(111.51 60.506)scale(.48416)"/>
        <g stroke="#8c5700" style="stroke-width:1.82505">
          <path d="M-373.09 267.55h66.531v6.114h-66.531zm-.01 44.94h66.547v6.114H-373.1z" style="stroke-width:2.06544" transform="rotate(-90 86.008 -25.501)scale(.48416)"/>
          <path d="M293.88 322.49c-10.865.017-20.164 1.84-27.346 5.308l.409 7.255c6.111-3.208 14.58-5.747 26.219-5.782 10.657-.031 19.177 2.59 25.875 6.156v-8.187c-6.805-2.822-15.115-4.765-25.156-4.75zm-.23 21.22c-10.865.017-19.818 1.147-27 4.615l.063 7.948c6.11-3.208 14.58-5.747 26.218-5.782 10.657-.031 19.177 2.59 25.875 6.156v-8.187c-6.805-2.822-15.115-4.765-25.156-4.75z" style="stroke-width:2.06544" transform="translate(111.51 60.506)scale(.48416)"/>
        </g>
      </g>
      <path fill="#d9251c" stroke="#8c5700" d="M236.02 402.77H353.3s-20.427-39.778-60.719-39.418-56.556 39.418-56.556 39.418z" style="stroke-width:1.94152" transform="translate(111.51 60.506)scale(.48416)"/>
      <g fill="#ddb523" style="stroke-width:1.94152">
        <path d="M235.92 405.03v71.844l58.781-67.562 58.812 67.562V405.03l-58.812.313z" style="stroke-width:2.06544" transform="translate(111.51 60.506)scale(.48416)"/>
        <g stroke="#8c5700" style="stroke-width:1.82505">
          <g style="stroke-width:2.06544">
            <g style="stroke-width:2.06544">
              <path d="M240.15 429.93s1.598 1.297 2.943 4.328-1.333 5.59 1.558 10.041 11.013 2.993 12.638-1.212.439-7.415-2.943-7.963c-3.382-.55-5.412 2.926-5.713 4.328-.882-.063-.044-4.503-2.424-6.666-2.38-2.162-6.059-2.856-6.059-2.856z" style="stroke-width:2.06544" transform="translate(111.51 60.506)scale(.48416)"/>
              <path d="M245.81 478.43h-10.283s5.26-15.117 9.793-21.545c5.533-7.846 16.16-12.242 16.16-12.242s-.632-7.928 2.693-12.976c4.534-6.886 12.836-8.72 18.362-15.669 2.122-2.668 1.958-10.038 1.958-10.038h10.283v5.386s-.872 5.218-3.917 8.57c-4.903 5.394-16.173 13.033-19.097 18.607-3.386 6.454-2.693 13.466-2.693 13.466s-7.539-.612-15.67 7.834c-4.645 4.826-7.59 18.607-7.59 18.607zm97.94 0h10.283s-5.26-15.117-9.793-21.545c-5.533-7.846-16.16-12.242-16.16-12.242s.632-7.928-2.692-12.976c-4.535-6.886-12.836-8.72-18.362-15.669-2.123-2.668-1.96-10.038-1.96-10.038h-10.282v5.386s.872 5.218 3.917 8.57c4.903 5.394 16.173 13.033 19.097 18.607 3.386 6.454 2.693 13.466 2.693 13.466s7.539-.612 15.67 7.834c4.645 4.826 7.59 18.607 7.59 18.607z" style="stroke-width:2.06544" transform="translate(111.51 60.506)scale(.48416)"/>
            </g>
            <path d="M237.42 402.75h115.4v5.161h-115.4z" style="stroke-width:2.06544" transform="translate(111.51 60.506)scale(.48416)"/>
            <path stroke-width="1.009" d="M224.071 239.62h3.29v52.401h-3.29z"/>
            <g style="stroke-width:2.06544">
              <path d="M350.7 429.7s-1.598 1.297-2.943 4.328 1.333 5.59-1.558 10.041-11.013 2.993-12.638-1.212-.439-7.415 2.943-7.964c3.382-.548 5.412 2.927 5.713 4.329.883-.063.044-4.503 2.424-6.666 2.38-2.162 6.059-2.856 6.059-2.856zm.35-59.63h6.621v108.11h-6.621zm-85.11 41.85s3.79.046 4.501 3.809c.712 3.762-3.507 5.117-5.816 2.646-2.643-2.829-5.135-9.394-14.613-8.36s-12.317 17.09-.692 18.698c8.342 1.153 7.964-6.406 7.964-6.406s-3.58 3.235-6.752 1.904c-3.173-1.33-3.069-8.528 3.462-8.136s7.769 7.666 14.542 7.79c6.774.124 8.102-6.151 6.06-10.04-2.043-3.89-8.657-1.905-8.657-1.905z" style="stroke-width:2.06544" transform="translate(111.51 60.506)scale(.48416)"/>
              <path d="M324.89 412.26s-3.79.046-4.501 3.809c-.712 3.762 3.507 5.117 5.816 2.646 2.643-2.829 5.135-9.394 14.613-8.36s12.317 17.09.692 18.698c-8.342 1.153-7.964-6.406-7.964-6.406s3.58 3.235 6.752 1.904c3.173-1.33 3.069-8.528-3.462-8.136-6.531.391-7.769 7.666-14.542 7.79-6.774.124-8.102-6.151-6.06-10.04 2.043-3.89 8.657-1.905 8.657-1.905zm-103.5 65.94h154.85v16.869H221.39z" style="stroke-width:2.06544" transform="translate(111.51 60.506)scale(.48416)"/>
            </g>
          </g>
          <path stroke-width="2.275" d="M304.08 485.28a4.774 4.285 0 1 1-9.548 0 4.774 4.285 0 1 1 9.548 0z" transform="matrix(.42908 0 0 .45045 128.01 76.863)"/>
        </g>
      </g>
      <path fill="#8c5700" d="M301.14 485.28a2.02 1.836 0 1 1-4.04 0 2.02 1.836 0 1 1 4.04 0" style="stroke-width:1.94152" transform="translate(111.584 60.506)scale(.48416)"/>
      <g fill="#ddb523" stroke="#8c5700" style="stroke-width:1.94152">
        <g style="stroke-width:2.06544">
          <g style="stroke-width:2.06544">
            <path d="M299.43 493.61c3.184-5.305 11.465-13.388 19.954-12.976 5.216-.064 7.338 3.466 6.978 6.978s-4.23 6.828-8.202 5.509c-3.973-1.32-3.918-5.142-3.918-5.142s2.463 2.434 5.142 1.591c2.679-.842 3.496-6.157-1.836-5.998-5.743.171-13.098 6.554-18.118 10.038zm46.5.74c3.184-5.305 11.465-13.388 19.954-12.976 5.216-.064 7.338 3.466 6.978 6.978s-4.23 6.828-8.202 5.509c-3.973-1.32-3.918-5.142-3.918-5.142s2.463 2.434 5.142 1.591c2.679-.842 3.496-6.157-1.836-5.998-5.743.171-13.098 6.554-18.118 10.038zm-46.6-.74c-3.184-5.305-11.465-13.388-19.954-12.976-5.216-.064-7.338 3.466-6.978 6.978s4.23 6.828 8.202 5.509c3.973-1.32 3.917-5.142 3.917-5.142s-2.462 2.434-5.141 1.591c-2.679-.842-3.496-6.157 1.836-5.998 5.743.171 13.098 6.554 18.118 10.038z" style="stroke-width:2.06544" transform="translate(111.51 60.506)scale(.48416)"/>
            <path d="M322.68 494.35c3.184-5.305 11.465-13.388 19.954-12.976 5.216-.064 7.338 3.466 6.978 6.978s-4.23 6.828-8.202 5.509c-3.973-1.32-3.918-5.142-3.918-5.142s2.463 2.434 5.142 1.591c2.679-.842 3.496-6.157-1.836-5.998-5.743.171-13.098 6.554-18.118 10.038zm-46.49 0c-3.184-5.305-11.465-13.388-19.954-12.976-5.216-.064-7.338 3.466-6.978 6.978s4.23 6.828 8.202 5.509c3.973-1.32 3.918-5.142 3.918-5.142s-2.463 2.434-5.142 1.591c-2.679-.842-3.496-6.157 1.836-5.998 5.743.171 13.098 6.554 18.118 10.038z" style="stroke-width:2.06544" transform="translate(111.51 60.506)scale(.48416)"/>
            <path d="M252.56 494.35c-3.184-5.305-11.465-13.388-19.954-12.976-5.216-.064-7.338 3.466-6.978 6.978s4.23 6.828 8.202 5.509c3.973-1.32 3.917-5.142 3.917-5.142s-2.462 2.434-5.141 1.591c-2.679-.842-3.496-6.157 1.836-5.998 5.743.171 13.098 6.554 18.118 10.038z" style="stroke-width:2.06544" transform="translate(111.51 60.506)scale(.48416)"/>
          </g>
          <path d="M203.15 495.21h191.12v16.398H203.15z" style="stroke-width:2.06544" transform="translate(111.51 60.506)scale(.48416)"/>
        </g>
        <path stroke-width="2.275" d="M304.08 485.28a4.774 4.285 0 1 1-9.548 0 4.774 4.285 0 1 1 9.548 0z" transform="matrix(.42908 0 0 .45045 128.01 84.864)"/>
      </g>
      <path fill="#8c5700" d="M301.14 485.28a2.02 1.836 0 1 1-4.04 0 2.02 1.836 0 1 1 4.04 0" style="stroke-width:1.94152" transform="translate(111.584 68.508)scale(.48416)"/>
      <g fill="#ddb523" stroke="#8c5700" style="stroke-width:1.94152">
        <g style="stroke-width:2.06544">
          <path d="M299.23 508.31c-3.036-4.555-10.934-11.496-19.031-11.142-4.974-.055-6.998 2.976-6.655 5.992.344 3.015 4.034 5.863 7.823 4.73 3.788-1.133 3.736-4.415 3.736-4.415s-2.35 2.09-4.904 1.366c-2.555-.723-3.334-5.287 1.751-5.15 5.477.147 12.492 5.627 17.28 8.62z" style="stroke-width:2.06544" transform="translate(111.51 60.506)scale(.48416)"/>
          <path d="M277.35 509.26c-3.037-4.717-10.939-11.905-19.038-11.539-4.976-.057-7 3.082-6.657 6.205.343 3.122 4.035 6.071 7.825 4.898s3.737-4.572 3.737-4.572-2.35 2.164-4.905 1.415-3.335-5.475 1.752-5.334c5.479.153 12.497 5.828 17.286 8.926z" style="stroke-width:2.06544" transform="translate(111.51 60.506)scale(.48416)"/>
          <path d="M254.94 509.71c-3.02-5.003-10.873-12.627-18.923-12.238-4.946-.06-6.959 3.269-6.617 6.58.341 3.313 4.01 6.44 7.778 5.196s3.715-4.849 3.715-4.849-2.336 2.295-4.876 1.501-3.315-5.807 1.741-5.657c5.446.161 12.422 6.181 17.182 9.467z" style="stroke-width:2.06544" transform="translate(111.51 60.506)scale(.48416)"/>
          <path d="M232.29 509.29c-2.973-4.741-10.705-11.966-18.632-11.598-4.87-.058-6.851 3.098-6.515 6.236s3.949 6.103 7.658 4.924c3.71-1.18 3.658-4.595 3.658-4.595s-2.3 2.175-4.8 1.422c-2.502-.753-3.265-5.503 1.714-5.361 5.362.153 12.23 5.857 16.917 8.972zm67.6-.98c3.036-4.555 10.934-11.496 19.031-11.142 4.974-.055 6.998 2.976 6.655 5.992-.344 3.015-4.034 5.863-7.823 4.73-3.788-1.133-3.736-4.415-3.736-4.415s2.35 2.09 4.904 1.366c2.555-.723 3.334-5.287-1.751-5.15-5.477.147-12.492 5.627-17.28 8.62z" style="stroke-width:2.06544" transform="translate(111.51 60.506)scale(.48416)"/>
          <path d="M321.77 509.26c3.037-4.717 10.939-11.905 19.038-11.539 4.976-.057 7 3.082 6.657 6.205-.343 3.122-4.035 6.071-7.825 4.898s-3.737-4.572-3.737-4.572 2.35 2.164 4.905 1.415 3.335-5.475-1.752-5.334c-5.479.153-12.497 5.828-17.286 8.926z" style="stroke-width:2.06544" transform="translate(111.51 60.506)scale(.48416)"/>
          <path d="M344.19 509.71c3.02-5.003 10.873-12.627 18.923-12.238 4.946-.06 6.959 3.269 6.617 6.58-.341 3.313-4.01 6.44-7.778 5.196s-3.715-4.849-3.715-4.849 2.336 2.295 4.876 1.501 3.315-5.807-1.741-5.657c-5.446.161-12.422 6.181-17.182 9.467z" style="stroke-width:2.06544" transform="translate(111.51 60.506)scale(.48416)"/>
          <path d="M366.83 509.29c2.973-4.741 10.705-11.966 18.632-11.598 4.87-.058 6.852 3.098 6.515 6.236-.336 3.139-3.949 6.103-7.658 4.924-3.71-1.18-3.658-4.595-3.658-4.595s2.3 2.175 4.8 1.422c2.502-.753 3.265-5.503-1.714-5.361-5.362.153-12.23 5.857-16.917 8.972z" style="stroke-width:2.06544" transform="translate(111.51 60.506)scale(.48416)"/>
        </g>
        <path d="M320.96 239.13c.52 4.753.947 8.792 2.81 9.28-.011 2.272-.596 6.817-6.594 7.022-7.398.252-10.516-5.153-15.928-5.202s-8.088 2.997-8.478 6.608 1.367 7.343 6.75 7.25 6.337-6.707 2.26-7.791c-1.36-.361 1.195 3.406-2.416 3.803-3.782.416-4.304-6.194 1.897-6.06s10.907 5.716 17.47 4.504c7.132-1.316 8.621-6.692 9.463-10.134 1.865-.488 2.668-4.527 3.014-9.28z" style="stroke-width:2.06544" transform="translate(111.51 60.506)scale(.48416)"/>
      </g>
      <path fill="#d23225" stroke="#4a0000" d="M291.21 198.38c-.082 0-.422 2.658-1.94 6.032-1.703 3.784 1.23 6.559 3.09 8.785.031-1.924.538-3.572 1.253-6.498.965-3.952-1.191-5.895-2.403-8.319z" style="stroke-width:1.94152" transform="translate(111.51 60.506)scale(.48416)"/>
      <g fill="#ddb523" stroke="#8c5700" style="stroke-width:1.94152">
        <g style="stroke-width:2.06544">
          <path d="M275.81 291.31s9.59 7.344 16.658 7.444c7.067.1 17.016-7.098 17.016-7.098s-4.877-7.022-7.523-10.387c-3.182-4.047-4.773-11.912-10.03-11.772-5.038.134-6.033 7.805-8.957 11.772-2.44 3.312-7.164 10.041-7.164 10.041z" style="stroke-width:2.06544" transform="translate(111.51 60.506)scale(.48416)"/>
          <path d="M270.26 300.91s5.018-5.832 5.015-16.1c3.136-.095 4.318-.215 6.986 0 .495 10.211-3.224 16.1-3.224 16.1zm44.17 0s-5.018-5.832-5.015-16.1c-3.136-.095-4.318-.215-6.986 0-.495 10.211 3.224 16.1 3.224 16.1zm-24.71-24.72v15.026c.507 2.816 4.994 2.754 5.31 0l.127-15.026c-.76-2.265-4.614-2.387-5.437 0z" style="stroke-width:2.06544" transform="translate(111.51 60.506)scale(.48416)"/>
        </g>
        <path stroke-width=".997" d="M241.835 196.647h21.925v2.304h-21.925z"/>
        <path stroke-width="1.054" d="M238.5 205.972h29.773v3.07h-29.774z"/>
        <path stroke-width="1.039" d="M238.514 241.141v-34.76h3.248v34.76z"/>
        <path stroke-width="1.041" d="M264.963 241.141v-34.904h3.249v34.904z"/>
        <g style="stroke-width:2.06544">
          <path d="M366.1 229.81a5.819 5.819 0 0 0-4.844 9.031l-9.094 12.938-5.687-4.094c.119-.462.156-.938.156-1.437 0-3.205-2.576-5.812-5.781-5.812a5.82 5.82 0 0 0-5.812 5.812 5.82 5.82 0 0 0 5.812 5.813c1.11 0 2.119-.335 3-.876l5.844 4.125-87.781 125.03 2.948 2.173 88.208-124.83 6.594 4.656a5.7 5.7 0 0 0-.157 1.406c0 3.205 2.576 5.812 5.782 5.812a5.82 5.82 0 0 0 5.812-5.812 5.82 5.82 0 0 0-5.812-5.813 5.7 5.7 0 0 0-3.188.97l-6.562-4.688 9.312-12.938c.407.09.816.156 1.25.156a5.82 5.82 0 0 0 5.813-5.813 5.82 5.82 0 0 0-5.813-5.812z" style="stroke-width:2.06544" transform="translate(111.51 60.506)scale(.48416)"/>
          <path d="M218.79 225.53a4.027 4.027 0 0 0-4.031 4.031 4.027 4.027 0 0 0 4.031 4.031c.096 0 .187-.024.281-.03l5.031 7.25-5.406 3.687a4 4 0 0 0-1.594-.313c-2.229 0-4.062 1.802-4.062 4.031 0 2.23 1.833 4.032 4.062 4.032a4.027 4.027 0 0 0 4.032-4.032c0-.107-.023-.207-.032-.312l5.375-3.688 7 10.094c-.403 1.14-.355 2.533.282 3.844.916 1.886 2.735 2.997 4.437 2.906l2.031 2.907c-.42 1.89.063 4.51 1.47 7 1.883 3.336 4.79 5.358 7 5.062l1.968 2.813v.03c-.284 1.212-.02 2.71.844 4.063.97 1.52 2.43 2.427 3.781 2.532l15.875 22.688c.358 2.34 2.006 5.948 4.594 9.625 2.566 3.646 5.373 6.449 7.469 7.625l1.78 2.53c-.054 1.05.09 2.809.97 4.063 1.087 1.552 2.592 2.791 4.093 3.156l16.125 23.031c.013.02.019.044.031.063 5.184 7.76 15.47 23.25 15.47 23.25l2.648-2.026s-20.619-31.374-31.18-46.255c.18-1.52-.094-3.176-1.156-4.563-1.009-1.317-2.432-2.787-4.156-3.03l-1.5-2.126v-.031c-.324-2.332-2.03-5.987-4.657-9.719-2.555-3.63-5.37-6.409-7.468-7.594l-15.97-22.78c.352-1.242.092-2.835-.812-4.25-1.018-1.595-2.561-2.536-3.969-2.563l-2.219-3.156c.45-1.892-.014-4.511-1.437-7.032-1.895-3.355-4.817-5.384-7.031-5.062l-1.625-2.344c.51-1.181.464-2.688-.219-4.094-.846-1.742-2.45-2.852-4.031-2.937l-7.031-10.062 5.125-3.5a4 4 0 0 0 1.53.312c2.23 0 4.063-1.801 4.063-4.03s-1.833-4.063-4.062-4.063-4.031 1.833-4.031 4.062c0 .139.017.271.03.406l-5 3.407-5.062-7.25a4 4 0 0 0 .344-1.657 4.027 4.027 0 0 0-4.031-4.03zm43.65 13.6c-.52 4.753-.946 8.792-2.81 9.28.011 2.272.596 6.817 6.594 7.022 7.398.252 10.516-5.153 15.928-5.202s8.088 2.997 8.478 6.608-1.367 7.343-6.75 7.25-6.337-6.707-2.26-7.791c1.36-.361-1.195 3.406 2.416 3.803 3.782.416 4.304-6.194-1.897-6.06s-10.907 5.716-17.47 4.504c-7.132-1.316-8.621-6.692-9.463-10.134-1.865-.488-2.668-4.527-3.014-9.28z" style="stroke-width:2.06544" transform="translate(111.51 60.506)scale(.48416)"/>
        </g>
      </g>
      <path fill="#056a9e" d="M132.25 515.44v31.844s-.689 12.968 9.344 21.906c10.032 8.939 25.906 8.219 25.906 8.219h98.688s14.077-.105 22.78 9.562c6.88 7.641 8.662 13.84 9.126 16.125v1s.045-.202.093-.5c.05.298.094.5.094.5v-1c.464-2.285 2.277-8.484 9.156-16.125 8.704-9.667 22.781-9.562 22.781-9.562h98.688s15.874.72 25.906-8.219 9.344-21.906 9.344-21.906V515.44H298.09zm106.22 4.844 8.002 9.651c6.461-.087 11.717.38 14.716.786 11.577 1.565 12.524 4.313 17.438 5.5 4.384 1.06 8.563 1.47 8.563 1.47s-5.334 4.059-8.313 5.374c-2.978 1.315-9.312 2.438-9.312 2.438s6.426.185 8.562 1c2.137.814 4.157 2.937 4.157 2.937s-5.083.522-7.594.969c-8.323 1.48-16.11 5.406-24.72 5.625-3.604.092-8.046.202-12.718.281-.969 1.051-2.316 2.494-2.5 3.969s1.75 4.687 1.75 4.687-9.283 1.442-14.22 1.375c-4.935-.067-15.218-1.906-15.218-1.906l4.344-8.125c-.852-.017-1.732-.009-2.563-.031-5.727-.154-12.677-.656-19.562-1.219l-3.937 7.344-15.188-2.219 2.875-6.437c-6.135-.456-10.426-.82-13.406-.407-2.98.415-6.002 2.49-8.813 4.407s-8.312 7.093-8.312 7.093-.571-6.737 1.218-10.03c1.79-3.294 6.125-5.876 6.125-5.876s-3.712-3.038-5.406-5.875c-1.693-2.836-4.406-11.25-4.406-11.25s14.708 8.246 22.531 8.313c4.506.038 9.108-.505 13.75-1.344l-5.406-5.75 18.594-8.812 6.721 10.517c6.475-.995 12.105-2.11 18.03-2.58l-5.407-9.906zm108.44 0 28.938 1.969-5.108 9.56c4.03.756 13.694 2.652 17.103 3.098l6.911-10.69 18.156 8.813-5.281 5.75c4.534.838 9.036 1.382 13.438 1.344 7.641-.067 22-8.313 22-8.313s-2.627 8.414-4.281 11.25-5.282 5.875-5.282 5.875 4.22 2.581 5.97 5.875c1.748 3.294 1.187 10.031 1.187 10.031s-5.155-5.08-8.125-7.094c-2.675-1.813-5.016-3.897-8.594-4.406-2.244-.32-7.102-.05-13.094.406l2.812 6.438-14.844 2.219-3.843-7.344c-6.726.563-13.531 1.065-19.125 1.219-.812.022-1.668.014-2.5.03l4.25 8.126s-10.054 1.84-14.875 1.906c-4.822.067-13.875-1.375-13.875-1.375s1.899-3.213 1.718-4.687c-.18-1.475-1.522-2.918-2.468-3.97-4.564-.078-8.885-.189-12.406-.28-8.41-.22-16.026-4.144-24.156-5.626-2.454-.446-7.407-.968-7.407-.968s1.976-2.123 4.063-2.938c2.087-.814 8.344-1 8.344-1s-6.185-1.122-9.094-2.437c-2.91-1.315-8.094-5.375-8.094-5.375s4.062-.41 8.344-1.47c4.8-1.186 5.754-3.934 17.062-5.5 2.93-.405 8.377-.872 14.688-.785z" style="stroke-width:1.94152" transform="translate(111.51 60.506)scale(.48416)"/>
      <path fill="#e6e6e6" d="M247.25 531.44c-10.019.127-22.054 1.074-31.531 2.031-14.16 1.43-42.561 7.883-51.25 7.938-5.122.032-9.962-1.472-13.344-2.75-3.066-1.16-8.812-4.344-8.812-4.344s1.59 5.396 3.625 8.5 4.763 4.55 5.937 6.219c-1.567 1.238-2.13.908-5.281 4.03s-2.906 9.095-2.906 9.095 3.245-3.376 6.406-5.563 6.455-4.18 9.875-4.594c3.42-.413 39.892 2.836 52.28 2.938 12.39.102 34.968.196 40.157-.531 6.87-.964 13.413-3.75 20.25-5.032 2.23-.417 6.75-.843 6.75-.843s-.87-.784-3.625-1.406c-2.755-.623-9.202.29-10.22-1.22 1.545-2.065 7.192-2.177 10.907-3.437s7.281-3.812 7.281-3.812-3.94-.703-5.875-1.22c-5.342-1.425-6.282-3.43-15.781-5.187-3.562-.658-8.832-.888-14.844-.812zm10.918.365c1.046.947-7.406 5.506-7.742 12.51-.247 5.151 6.16 9.136 5.112 9.827-1.047.69-7.241-4.378-6.892-9.726.478-7.325 8.476-13.557 9.522-12.61zm-7.98.791c.944 1.02-7.295 5.008-8.063 11.47-.763 6.419 5.2 9.208 4.187 10.155s-6.594-4.447-6.094-9.656c.678-7.046 9.025-12.989 9.97-11.969m14.093 3.813c1.482 0 2.688 1.053 2.688 2.344s-1.206 2.312-2.688 2.312-2.687-1.022-2.687-2.312c0-1.291 1.205-2.344 2.687-2.344m-31.188 2.5 4.313 7.531-8.625.25zm-8.656.75 3.781 7-7.562.219zm-8.125.594 3.469 6.593-6.938.032zm-8.156.843 3.594 5.97-7.157.187zm-7.906.657 3.25 5.53-6.75.094zm-8.22.687 2.907 4.969-6 .187zm-8.093.75 2.875 4.406-5.781.188zm-8.094.625 2.844 3.969-5.906.219zm-7.75.719 2.25 3.469-4.656.156zM338.51 531.38c9.777.127 21.52 1.074 30.767 2.031 13.817 1.43 41.53 7.883 50.008 7.938 4.998.032 9.72-1.472 13.02-2.75 2.992-1.16 8.599-4.344 8.599-4.344s-1.551 5.396-3.537 8.5-4.648 4.55-5.794 6.219c1.529 1.238 2.079.908 5.153 4.03 3.075 3.123 2.836 9.095 2.836 9.095s-3.166-3.376-6.25-5.563-6.3-4.18-9.636-4.594c-3.338-.413-38.925 2.836-51.014 2.938s-34.12.196-39.183-.531c-6.704-.964-13.088-3.75-19.76-5.032-2.176-.417-6.586-.843-6.586-.843s.85-.784 3.537-1.407c2.688-.622 8.98.29 9.971-1.218-1.506-2.066-7.016-2.178-10.642-3.438s-7.104-3.812-7.104-3.812 3.844-.703 5.732-1.22c5.213-1.425 6.13-3.43 15.4-5.187 3.475-.658 8.617-.888 14.483-.812m-10.654.365c-1.02.947 7.227 5.506 7.554 12.51.241 5.151-6.01 9.136-4.988 9.827 1.022.69 7.066-4.378 6.725-9.726-.466-7.325-8.27-13.557-9.291-12.61zm7.787.791c-.921 1.02 7.118 5.008 7.868 11.47.744 6.419-5.074 9.208-4.087 10.155.988.948 6.435-4.447 5.947-9.656-.661-7.046-8.806-12.989-9.728-11.969m-13.752 3.813c-1.446 0-2.622 1.053-2.622 2.344s1.176 2.312 2.622 2.312 2.623-1.022 2.623-2.312c0-1.291-1.177-2.344-2.623-2.344m30.432 2.5-4.208 7.53 8.416.25zm8.447.75-3.69 7 7.38.218zm7.928.593-3.385 6.594 6.77.032zm7.959.844-3.507 5.97 6.983.187zm7.714.657-3.171 5.53 6.586.094zm8.02.687-2.836 4.969 5.855.187zm7.897.75-2.805 4.406 5.641.188zm7.898.625-2.775 3.969 5.763.219zm7.562.719-2.195 3.469 4.543.156z" style="stroke-width:1.94152" transform="translate(111.51 60.506)scale(.48416)"/>
    </g>
    <path d="M604.37 404.19c-2.485-.156-4.041 4.857-12.119 5.142 0 0-.87-9.965-.866-15.662 7.348.193 20.177-4.828 25.795 1.705 2.684 3.121 2.903 11.247-1.038 12.304-8.257 2.214-9.288-3.333-11.772-3.489m118.74-.8c2.49.025 3.33 5.31 11.713 6.01 0 0 1.138-10.776 1.547-16.46-7.342-.341-19.5-5.77-25.396.727-2.703 2.98-3.713 11.006.141 12.347 8.074 2.808 9.506-2.65 11.995-2.624" style="stroke-width:2.06544" transform="translate(-67.13 39.867)scale(.48416)"/>
  </g>
</svg>
