<svg id="flag-icons-ru-per" class="fi fi-ru-per" viewBox="0 0 512 512" xmlns="http://www.w3.org/2000/svg" width="512" height="512" style="clip-rule:evenodd;fill-rule:evenodd;image-rendering:optimizeQuality;shape-rendering:geometricPrecision;text-rendering:geometricPrecision" version="1.1">
  <metadata id="flag-icons">
    <name>Perm Krai</name>
    <code>ru-per</code>
    <iso>true</iso>
    <type>Place</type>
    <capital>Perm</capital>
    <continent>Europe</continent>
  </metadata>
  <defs id="defs130023">
    <clipPath id="clipPath157070" clipPathUnits="userSpaceOnUse">
      <path id="rect157072" d="M346.789-301.51h1656.189v1656.189H346.789Z" class="fil0" style="clip-rule:evenodd;fill-rule:evenodd;stroke-width:.999989;image-rendering:optimizeQuality;shape-rendering:geometricPrecision;text-rendering:geometricPrecision"/>
    </clipPath>
    <clipPath id="clipPath157074" clipPathUnits="userSpaceOnUse">
      <path id="rect157076" d="M450 0h2700v2700H450Z" class="fil0" style="clip-rule:evenodd;fill-rule:evenodd;stroke-width:.999993;image-rendering:optimizeQuality;shape-rendering:geometricPrecision;text-rendering:geometricPrecision"/>
    </clipPath>
    <clipPath id="clipPath157078" clipPathUnits="userSpaceOnUse">
      <path id="rect157080" d="M450 0h2700v2700H450Z" class="fil0" style="clip-rule:evenodd;fill-rule:evenodd;stroke-width:.999993;image-rendering:optimizeQuality;shape-rendering:geometricPrecision;text-rendering:geometricPrecision"/>
    </clipPath>
    <clipPath id="clipPath157082" clipPathUnits="userSpaceOnUse">
      <path id="rect157084" d="M450 0h2700v2700H450Z" class="fil0" style="clip-rule:evenodd;fill-rule:evenodd;stroke-width:.999993;image-rendering:optimizeQuality;shape-rendering:geometricPrecision;text-rendering:geometricPrecision"/>
    </clipPath>
    <clipPath id="clipPath157086" clipPathUnits="userSpaceOnUse">
      <path id="rect157088" d="M450 0h2700v2700H450Z" class="fil0" style="clip-rule:evenodd;fill-rule:evenodd;stroke-width:.999993;image-rendering:optimizeQuality;shape-rendering:geometricPrecision;text-rendering:geometricPrecision"/>
    </clipPath>
    <clipPath id="clipPath157090" clipPathUnits="userSpaceOnUse">
      <path id="rect157092" d="M450 0h2700v2700H450Z" class="fil0" style="clip-rule:evenodd;fill-rule:evenodd;stroke-width:.999993;image-rendering:optimizeQuality;shape-rendering:geometricPrecision;text-rendering:geometricPrecision"/>
    </clipPath>
    <clipPath id="clipPath157094" clipPathUnits="userSpaceOnUse">
      <path id="rect157096" d="M450 0h2700v2700H450Z" class="fil0" style="clip-rule:evenodd;fill-rule:evenodd;stroke-width:.999993;image-rendering:optimizeQuality;shape-rendering:geometricPrecision;text-rendering:geometricPrecision"/>
    </clipPath>
    <style id="style130021" type="text/css">
      .fil3{fill:#1f1a17}.fil5{fill:#c0a062}.fil2{fill:#da251d}.fil0{fill:#fff}.fil11{fill:#0071b4}.fil10{fill:#92c6c7}.fil4{fill:#e1dfe2}.fil9{fill:#1f1a17;fill-rule:nonzero}.fil7,.fil8{fill:#92c6c7}
    </style>
  </defs>
  <path id="rect130027" d="M0 0h1350v1350H0Z" class="fil2" clip-path="url(#clipPath157094)" style="stroke-width:5.27335" transform="translate(-85.333)scale(.18963)"/>
  <path id="rect130029" d="M1350 1350h2700v1350H1350Z" class="fil2" clip-path="url(#clipPath157090)" style="stroke-width:5.27335" transform="translate(-85.333)scale(.18963)"/>
  <path id="rect130031" d="M1350 0h2700v1350H1350Z" class="fil11" clip-path="url(#clipPath157086)" style="stroke-width:5.27335" transform="translate(-85.333)scale(.18963)"/>
  <path id="rect130033" d="M0 1350h1350v1350H0Z" class="fil11" clip-path="url(#clipPath157082)" style="stroke-width:5.27335" transform="translate(-85.333)scale(.18963)"/>
  <path id="rect130025" d="M1080 0h540v2700h-540z" class="fil0" clip-path="url(#clipPath157078)" style="stroke-width:5.27335" transform="translate(-85.333)scale(.18963)"/>
  <path id="rect136503" d="M0 1080h4050v540H0Z" class="fil0" clip-path="url(#clipPath157074)" style="clip-rule:evenodd;fill-rule:evenodd;stroke-width:5.27335;image-rendering:optimizeQuality;shape-rendering:geometricPrecision;text-rendering:geometricPrecision" transform="translate(-85.333)scale(.18963)"/>
  <g id="g130714" clip-path="url(#clipPath157070)" style="stroke-width:3.23471" transform="translate(-107.208 93.211)scale(.30915)">
    <path id="path130035" d="M857.203 748.72c-6.347.145-12.687.745-18.994 1.437-10.748 1.18-21.656 2.735-32.478 2.771h-.073c-5.717-.283-11.418-1.503-16.642-3.869-16.078-7.28-22.408-22.647-22.659-39.497V453.33h264.872l.118 255.523c.021 9.03-1.79 18.205-6.33 26.099-3.827 6.654-9.422 12.033-16.51 15.117-4.997 2.174-10.471 3.054-15.917 2.7-17.391-1.477-34.76-4.11-52.245-4.112h-.036l-.035-.002c-6.534-.345-13.566 1.674-19.42 4.458-7.453 3.544-16.89 10.41-19.477 18.625l-1.287 4.085-1.276-4.089c-1.722-5.513-6.514-10.145-11.152-13.355-5.933-4.105-13.08-6.999-20.131-8.488-3.391-.716-6.861-1.13-10.328-1.17z" style="fill:#684833;stroke-width:3.23471"/>
    <path id="path130037" d="M767.7 454.668h262.186l.118 254.187c.063 27.413-16.948 43.905-37.307 42.579-17.478-1.484-34.876-4.114-52.353-4.115-15.635-.827-36.256 11.338-40.25 24.016-3.977-12.741-24.117-23.748-42.9-23.954-17.156.39-35.136 4.152-51.468 4.209-19.218-.951-37.589-12.718-38.026-42.033z" class="fil2" style="stroke-width:3.23471"/>
    <path id="path130039" d="M932.498 603.804c.754-.334 1.625-.304 2.173.506.535.787.25 1.639-.342 2.213q-.202.193-.408.381-.226.212-.445.433c1.134-.398 2.427-1.026 2.851-1.224 1.69-.791 3.993-1.933 5.883-1.864l1.116.042.353 1.055c.244.728-.07 1.315-.464 1.869 3.252-.612 7.44-1.102 9.742.045l.89.444v.993q0 .47-.158.897l6.392-.163-.174.522h1.879c-.32 1.098-.423 2.415-1.349 3.172l.117.004c2.376.058 4.762.203 6.18 2.416l.084.132.058.148c1.888 4.816 6.11 8.58 9.903 11.933l.146.13.111.161c2.73 3.95 3.715 11.718 4.844 16.478l.438 1.85-1.902.123a4.94 4.94 0 0 1-2.698-.573 5.4 5.4 0 0 1-.874-.588c1.673 2.263 2.882 4.596 1.204 7.47-.765 1.31-1.207 2.604-1.113 4.13.079 1.285.485 2.527.583 3.818.09 1.194-.08 2.293-.578 3.388a1.92 1.92 0 0 1-1.164 1.061c-.758.245-1.393-.008-1.958-.41.336 1.328.81 2.605 1.273 3.927 1.098 3.137 1.708 5.757 1.27 9.119l-.27 2.075-1.941-.796-.23-.093c.52 1.632 1.346 3.257 1.988 4.556 1.609 3.254 4.586 7.685 3.65 11.415l-.12.477-.364.328c-4.495 4.031-10.034 7.407-14.568 11.393-3.203 1.909-15.675 3.163-18.131-.886-.861-1.418.156-3.693 2.208-5.695.896-.872 1.947-1.6 2.996-2.257 1.193-.747 4.519-2.477 5.074-3.732.163-.369.462-1.335.471-1.745-.272-1.598-1.7-4.88-3.319-6.718l-.955 6.313-2.17-1.668c-2.59-1.992-4.823-9.327-5.608-12.87-1.224 4.27-2.889.727-3.715-1.066-.424-.92-.836-1.847-1.27-2.763a47 47 0 0 0-.69-1.402v.235c0 1.319.142 3.714-1.656 3.967.442.933.236 2.167.03 3.135-.115.535-.327 1.185-.425 1.731l.936 3.748c1.395 5.586 1.698 11.876-3.729 15.456-2.393 1.579-6.492 2.945-9.244 3.786-2.33.713-4.83 1.379-7.245 1.72-2.353.132-11.644.035-12.233-4.514l-.01-.082-.003-.082c-.11-4.216 6.343-6.181 9.462-7.725 1.492-.738 5.178-2.477 5.687-4.208a1.8 1.8 0 0 0 .045-.803 1.6 1.6 0 0 0-.079-.293c-.15-.406-.381-.814-.554-1.217a8.2 8.2 0 0 1-.612-2.309c-.045-.374-.095-1.23-.171-2.02-.146.11-.327.203-.56.265-.93.252-1.673-.319-2.101-1.065a11 11 0 0 1-.515-1.067c-.457-1.054-.862-2.148-1.257-3.228-.54-1.476-1.022-2.986-1.568-4.452a5.6 5.6 0 0 1-.33-2.315q-.077-.02-.152-.047c-1.308-.444-1.742-1.846-2.121-3.042-.255 1.043-.707 2.152-1.96 2.194a1.54 1.54 0 0 1-.965-.255c-.946-.582-1.475-1.184-2.204-1.813-.417 1.086-.965 2.19-2.4 2.044-.92-.095-1.737-.033-2.649.078-.921.112-2.134.542-3.003.11-.754-.376-1.438-2.508-1.974-1.822l-1.097 1.406h-.332c.016.35.045.719.018.99l-.215 2.148-1.26-.516c.119.659.19 1.349.203 2.091l.055 3.564-1.483-1.268-.25 7.772-2.219 2.216c-.286.72-.3 1.75-.301 2.477-.002 2.152.286 4.982-1.856 6.293-.406.248-.774.361-1.125.378v.88h-.457c-.015.162-.026.315-.037.428-.07.773-.131 1.543-.228 2.313-.277 2.197-1.014 5.468-3.87 5.357-7.128-.277-13.84.865-20.528 3.286-.756.274-1.64.013-2.036-.795a1.6 1.6 0 0 1-.122-.336c-.964.293-1.89.268-2.508-.47-.651-.779-.465-1.692-.02-2.471l-.071-.028-1.524-.583.606-1.512q.246-.61.642-1.134c1.576-2.08 4.656-2.72 7.041-3.408 2.594-.75 5.217-1.535 5.217-4.69v-1.607h.624c.083-.816.002-2.09-.298-2.54l-.617-.038-.445-.64c-1.293-1.851-.392-4.71-.795-5.497a1 1 0 0 0-.182-.034l-1.086-.114-.296-1.049c-.176-.623-.22-1.469-.271-2.12-.075-.942-.14-1.886-.234-2.827a33 33 0 0 0-.171-1.415 2 2 0 0 1-.224.133c-1.057.552-2.04-.035-2.783-.77l-.331-.325-.105-.45c-.327-1.394-.946-3.396-1.542-4.692q-.21-.457-.406-.904l-.477-.744c-.078 1.289-.884 3.277-1.629 4.245a16 16 0 0 1-1.816 1.987c-.821.756-2.019 1.689-3.13.635a1.7 1.7 0 0 1-.316-.4c-1.885 1.25-8.706 3.26-6.101-.74l-3.951 3.463c-.52.396-1.207.502-1.808.213-.349-.168-.577-.387-.723-.639l-.259.315c-.802 4.578-5.192 5.622-5.586 9.102l-.038.33-.166.286c-.466.815-.548 1.552-1.248 2.32-.637.7-1.744 1.36-2.68 1.407-5.31.924-6.07.616-8.478-4.138-.626-1.334-.658-2.945-.372-4.422l.116-.592.431-.336c.144-.279.328-1.473.482-2.014.253-.999.648-1.94 1.12-2.853.911-1.768 2.172-3.487 2.756-5.393l.027-.09.038-.085c.397-.905.949-1.371 1.439-2.141.18-.284.242-.492.196-.83l-.091-.664.41-.532c.713-.925 1.262-1.998 1.78-3.04 1.45-2.91 2.756-5.635 5.832-7.072 1.23-1.138 2.804-1.91 4.313-2.6 1.284-.59 2.95-1.256 4.042-2.144l.065-.052.07-.046c1.451-.947 3.212-1.448 4.464-2.634l1.022-.967-.692-2.208c-.344-1.096-.25-2.253-.098-3.373.05-.368.276-1.68.214-2.296-1.076.763-2.384 1.414-3.583.744-1.063-.594-1.266-1.884-1.703-3.085q-.33.28-.662.527c-.775.575-1.73.97-2.635.358a1.7 1.7 0 0 1-.671-.84c-.356.726-.893 1.292-1.807 1.611l-1.064.372-.716-.87c-.51-.622-.715-1.356-.892-2.11-.531.646-1.205 1.047-2.2 1.047h-1.184l-.353-1.127a2 2 0 0 0-.246-.51c-1.01-1.504-4.33-2.078-5.989-2.342-1.744-.28-3.532-.45-5.258-.806-3.704-.762-5.066-2.243-6.649-4.435l-1.103-1.387c-.973-2.53-.657-5.5-1.115-6.06a.3.3 0 0 0-.078-.04l-1.012-.404v-1.088c0-.308-.112-.685-.172-.99-.11-.56-.142-1.089-.04-1.656l.15-.823.762-.35c3.556-1.63 8.347-2.834 10.982-5.814l.683-.773.273.082c.544-.706 1.324-2.113 1.61-2.616.59-1.042 1.796-3.411 2.686-4.12l.046-.038.05-.033c1.836-1.252 3.991-2.878 6.274-3.908a3.3 3.3 0 0 1-.379-.364c-1.48-1.65-.954-4.308.069-6.048.954-1.622 2.81-3.756 4.763-3.756h.171l.167.035c.497.107 1.852 1.277 3.057 1.595.985.258 2.148.693 2.128 1.93 2.314-1.394 4.948-1.694 7.556.255l.029.022.028.023c2.113 1.735 2.028 5.731.956 8.371a5 5 0 0 1 1.19-1.182c1.858-1.317 3.672-1.133 5.664-1.743l2.086-.64v2.175c0 .253-.004.268-.063.504q-.037.15-.086.277a28 28 0 0 0 1.873-.109c1.28-.11 3.052-.446 3.894.807.483.72.373 1.493.053 2.203.739-.239 1.406-.49 1.727-.617 1.558-.619 3.373-1.422 4.84-2.278 3.245-2.988 6.973-3.507 11.303-3.162 2.68.214 5.778.988 8.4 1.613 3.925.937 7.833 1.97 11.736 3 4.442 1.174 8.885 2.378 13.349 3.464 1.22.298 5.775 1.456 7.048 1.373 1.236-.521 2.318-.839 3.668-.967 1.88-.18 3.003-.414 4.812-1.068zm-82.342-2.15-.15.114c-.218.167-.653.523-1.052.904.292-.057.562-.121.744-.167zm1.327 1.39.066.097q.145.219.236.442l.21-.279c.046-.061.114-.154.19-.26zm3 3.264-.013.044.03-.04z" class="fil3" style="stroke-width:3.23471"/>
    <path id="path130041" d="M843.615 598.368c.213 1.478.772 2.769 2.198 2.769.806 0 2.02-1.665 2.29-2.688.262-1 .384-2.368-.172-2.818-.427-.346-1.786.709-1.957-.101-.391-1.852-1.099-1.323-1.746-.568-1.18 1.377-.728 2.61-.613 3.406" class="fil3" style="stroke-width:3.23471"/>
    <path id="path130043" d="M921.728 675.18c.318-1.867-.337-4.342 1.247-4.561 2.434-.337 1.551 4.865 4.077 4.81 1.64-.035 1.067-4.176 2.495-3.815 5.981 1.516 1.734 4.765 6.42 5.726 1.127.23-.352 4.154-.25 4.56l1.002 4.011c1.239 4.962 1.678 10.607-3.056 13.73-4.179 2.757-21.8 7.976-19.368 3.933s-3.118-.474-4.077-.747c2.39-4.672-2.514 1.054-2.788-1.06-.077-2.946 5.459-4.706 8.566-6.245 3.963-1.96 7.06-3.762 6.61-6.693-.176-1.145-1.008-1.794-1.238-3.762-.327-2.785-.115-6.558-2.726-3.14-.398.521-3.365-8.349-3.539-8.808-1.029-2.719 1.19-5.127 2.814-2.128 1.93 3.56 3.8 4.25 3.811 4.189m-81.902-83.506c-.687 1.452-2.06 2.394-1.888 4.444-7.698 4.386-5.625-5.728-1.286-5.728 2.382.509 5.916 1.168 3.174 1.284m84.698 15.699c3.686-1.585 3.505-.232 8.589-2.082 1.205-.59-2.84 2.044-2.13 3.774 2.478 1.236 8.09-3.323 11.169-3.21.079.236-2.334 2.582-1.072 3.447 3.156-.708 8.79-1.784 11.157-.604 0 1.264-2.087 1.071-1.533 2.569l8.066-.178c-.195.582.69.472.946.472-.645.965-2.847 1.166-3.254 2.3 2.446 1.81 7.1-.283 8.914 2.549 1.972 5.032 6.153 8.854 10.333 12.55 2.446 3.538 3.576 11.613 4.603 15.938-3.63.235-4.497-4.64-6.705-7-4.192 5.85 6.093 8.886 3.048 14.103-3.166 5.427.48 7.828-1.182 11.48-.562 1.237-2.998-3.538-3.628-.471.63 5.269 3.707 8.571 2.918 14.626-1.34-.55-1.263-3.146-2.918-2.123-.629 6.01 7.405 13 5.977 18.693-3.944 3.539-10.358 8.25-14.381 11.787-3.56.33-7.404-.052-10.518 1.356 0-3.991-.486-1.258-2.84-1.258.818-.408 1.04-1.57 1.183-2.359-.68-.272-2.696.485-3.392 1.179.99-4.936 8.795-6.337 10.254-9.637.272-.614.684-2.038.596-2.595-.382-2.399-3.032-8.362-6.127-9.302l-.932 6.16c-2.604-2.001-4.7-7.064-5.063-10.485.595-2.97-2.919-5.303-2.919-1.18-1.066-1.375-5.898-15.148-5.898-4.929 0 9.8-3.53-13.88-5.995-13.368-2.209 2.673.956 7.64-.236 10.537-.753 1.824-1.63-1.882-3.426-2.695-1.021 8.32-.992.78-4.344 1.64-.89.23-1.964.73-2.801.584-2.019-.356-3.218-4.571-4.394-2.701-5.053 8.032-2.942-3.41-6.627-1.312-.21.12-.57 3.52-1.048 3.226-1.29-.794-1.18-1.056-2.516-2.085-2.08-1.602-1.83 2.18-2.77 2.085-4.493-.462-5.53 2.232-5.995-4.246 1.135.377-.224-10.718-3.864-9.358-.286 1.303 1.541 6.92.236 6.92l-.71 6.448c-.737 0-.415 1.864-.472 2.438-.673-.277-1.702-5.667-1.893-6.684-1.184-1.023-1.124-3.486-1.754-3.25-1.348 5.6 2.286 8.643 2.367 13.84-3.832-3.273-1.09.404-1.42 1.966l-.238 7.391-1.97 1.97c-1.333 2.578.391 7.079-1.658 8.332-1.135.695-1.893-1.83-1.893 1.023-.901 0-.001 8.212-2.919 8.099-7.73-.3-14.592 1.01-21.14 3.381-.452.163 3.313-1.572.947-2.909-2.888 2.16-6 3.149-1.893-.944-.71-1.022-1.658.158-2.683-.236 1.857-4.626 13.016-2.135 13.016-9.829.88 0 1.178-5.608-1.025-5.741-1.263-1.809.867-5.897-2.13-6.212-.402-1.422-.282-10.302-2.367-9.358-.947.394-.03 3.335-1.736 1.652-.867-3.696-3.392-6.447-3.392-10.615-.555-.553-1.736-.22-1.736.708-.398-1.387.081-9.258-1.629-9.472-2.083 3.636-1.12-.458-2.84-1.887.237-1.65-.263-3.19-.027-4.841-2.286.079-.157-5.111-3.313-2.674-.788-2.516 1.737-6.448-1.498-7.156-4.246 3.385-2.39-.173-4.812-2.91-5.25 4.918-1-.197-4.575-.707-1.262.707-.552 2.83-2.13 3.381-.71-.864-.552-2.752-1.42-3.616-1.814-.315-1.34 1.965-2.918 1.965-1.796-5.728-16.569-3.021-15.62-6.998 3.314.157 5.917-.787 7.73-3.302-1.024-1.574-2.628.006-4.127.006-2.052 1.808-5.081-.597-7.526.268-1.602-1.922.533-5.622-1.834-6.566 0-.865-.395-1.494-.238-2.359 3.945-1.808 8.599-2.91 11.517-6.212 1.06.317 4.028-6.42 5.05-7.235 2.722-1.856 6.838-5.14 10.333-4.56.262 3.913 2.679 1.938 4.576 1.493-.159-1.886-2.841-3.066-1.184-5.347 2.443-2.638 5.322-4.04 8.204-1.887 1.77 1.454 1.154 5.744 0 7.472-3.407 2.61-3.645 4.82 1.182 3.537.715 1.069-1.174 3.497 2.367 2.91-.117.349-1.324 1.784-.473 2.123 2.095.835.672.042.947 1.965 1.656 1.652 2.288-.943 3.39-1.493-3.544-1.302 2.064-3.697.238-4.247l-3.392-1.022c1.733-2.304.915-2.831-1.183-2.831 1.191-2.215 4.194-2.048 6.231-2.673 0 .725-1.656 1.011-1.656 2.2 6.345.96 10.22-2.246 5.522 3.54 2.263.79 9.372-2.715 10.958-3.66 1.012-.959 2.26-1.896 4.22-2.445v4.402c-.01.344.047.684.085 1.024.442 2.2 2.528 4.173 6.23 4.167l3.154-.006v.006h35.831v-.672c.94.137 1.583.165 1.847.052zm-95.646 6.084c.548 2.73 1.167 2.071-3.941.873-.983-.23 1.958-6.804 3.94-.873m9.014 18.5c1.304.227 2.809.219 3.543 1.516.195.344.663.279.66-.247-.014-2.685 4.086.973 4.123-2.794.016-1.698 1.217-1.33 2.591-1.33 1.358 0 2.119-.51 2.565-1.947-1.626.546-2.174.637-4.274.3-.948-.152-2.284-.688-2.284.921 0 .863.426 2.237-.028 2.503-.271.16-1.292-.038-1.704-1.105-.264-.688-1.31-1.648-1.566-.658-.317 1.23-.344 2.19-2.473 1.644-.205-.052-1.246-.72-1.573-.904-1.528-.86-2.22 1.639.42 2.1m15.513 24.759c-.418 1.749-2.409 2.997-1.155 4.996 3.627-.834 3.046-1.756 2.66 1.333-.018.137-1.528 3.581-.503 3.581 6.234 0-1.516 7.309-1.44 6.613.085-.75-.082-1.498-.5-2.082-1.588 1.916-4.094 2.666-6.35 3.332.147-.17 1.43-2.903.501-2.748l-1.503.249-4.595 3.498c-.885.672 1.962-6.108-3.343.5-.5 4.414-5.156 5.172-5.657 9.586-.67 1.167-.67 2.499-2.34 2.582.501-1.084-.904-2.53-1.239-3.28-1.17.25-.883 2.318-1.3 3.317-1.003-.5-.025-3.727-2.28-2.81-1.086.665.023 1.811-1.063 2.31.168-1.332-2.076-3.269-1.575-5.85.752-.584.668-1.916 1.003-2.833.75-2.997 2.942-5.193 3.86-8.192.585-1.332 2.006-1.998 1.754-3.831 2.507-3.248 3.158-7.992 7.251-9.74 2.172-2.167 6.202-3.017 8.458-4.85 2.423-1.582 4.093-2.261 6.349-3.844 2.39.986.767 3.93.975 5.672.115.947-1.12 2.938 2.032 2.49" class="fil4" style="stroke-width:3.23471"/>
    <path id="path130045" d="M918.97 556.355h3.706v51.638h-35.83v-.006l-3.154.006c-3.703.006-5.789-1.968-6.23-4.167-.038-.34-.096-.68-.087-1.024v-50.874h.013c.186-2.348 2.404-4.637 6.709-4.818l35.374.065-.808 1.192c-1.38 2.039-1.382 5.496 0 7.534z" class="fil3" style="stroke-width:3.23471"/>
    <path id="path130047" d="M887.65 557.158h34.22v50.032h-34.22zm19.502 14.844h3.133v3.043h-3.133v2.656h6.076v3.042h-6.076v6.221l3.46 1.992v3.291l-3.46-1.991v5.306H904.1V588.5l-3.46-1.992v-3.291l3.46 1.991v-4.465h-6.076v-3.042h6.076v-2.656h-3.133v-3.043h3.133v-2.856h3.052zm-2.246-2.053h1.44v2.856h3.133v1.436h-3.132v4.263h6.075v1.436h-6.075v7.488l3.46 1.992v1.436l-3.46-1.991v5.893h-1.441v-6.722l-3.46-1.992v-1.436l3.46 1.991v-6.659h-6.077v-1.436h6.077v-4.263h-3.132v-1.436h3.132zm-12.96-8.507h25.627v41.462h-25.626zm.806.803h3.752l-3.752 3.74zm4.891 0h14.234l4.89 4.876v30.106l-4.89 4.874h-14.235l-4.89-4.874v-30.108zm15.373 0h3.752v3.74zm3.752 36.117v3.74h-3.752zm-20.265 3.74h-3.75v-3.739z" class="fil5" style="stroke-width:3.23471"/>
    <path id="path130049" d="M884.235 547.913h33.585q.086 0 .176.005c-.48.706-.812 1.553-.998 2.454H889.31v.708h27.573a8.9 8.9 0 0 0 .072 2.591h-25.577v.706h25.735c.195.72.49 1.394.882 1.973q-.089.005-.176.005h-33.584c-7.657 0-7.688-8.495 0-8.441z" class="fil0" style="stroke-width:3.23471"/>
    <path id="path130051" d="m895.754 529.144-5.372-14.044 1.74.424c5.095 1.242 10.185 1.242 15.279 0l1.74-.424-5.37 14.044 13.215-5.205-.433 1.76c-1.247 5.08-1.247 10.153 0 15.231l.433 1.76-12.43-4.894 4.61 11.636-1.765-.431c-5.094-1.244-10.184-1.244-15.279 0l-1.764.43 4.61-11.635-12.43 4.894.433-1.76c1.247-5.079 1.247-10.151 0-15.23l-.432-1.761z" class="fil3" style="stroke-width:3.23471"/>
    <path id="path130053" d="m883.884 525.477 13.508 5.32-5.493-14.363c5.25 1.28 10.476 1.28 15.726 0l-5.493 14.363 13.508-5.32c-1.285 5.233-1.285 10.443 0 15.677l-12.756-5.025 4.741 11.961c-5.25-1.28-10.476-1.28-15.726 0l4.74-11.96-12.755 5.024c1.285-5.234 1.285-10.444 0-15.677" class="fil4" style="stroke-width:3.23471"/>
    <path id="path130055" d="M878.18 554.704c0 .635.03 1.082.107 1.685l.001.001.024.186c.232 1.075.862 1.855 1.69 2.387 1.029.661 2.361.947 3.623.946l3.22-.007v-2.748l-2.75.005c-2.92.005-4.897-1.039-5.915-2.455m6.226 32.987h.683v10.671h-.683zm-2.471-.68h.684v10.671h-.684zm-2.472-.74h.685v10.67h-.685zm4.943-19.227h.683v10.673h-.683zm-2.471-.68h.684v10.672h-.684zm-2.472-.74h.685v10.672h-.685zm-1.283-7.438c0 .63.03 1.069.107 1.668h.001l.024.186c.232 1.075.862 1.856 1.69 2.387 1.029.66 2.361.947 3.623.945l3.22-.006v-2.726l-3.22.006c-1.39.002-2.868-.319-4.023-1.062a4.6 4.6 0 0 1-1.422-1.398m0 3.464v14.623c.002.31.096.566.132.861.232 1.075.862 1.856 1.69 2.387 1.03.662 2.361.948 3.623.946l3.22-.007v-16.356l-3.22.006c-1.39.002-2.868-.318-4.023-1.061a4.6 4.6 0 0 1-1.422-1.399m0 17.094c0 .63.03 1.069.107 1.668h.001l.024.186c.232 1.075.862 1.856 1.69 2.387 1.029.662 2.361.948 3.623.946l3.22-.007v-2.726l-3.22.006c-1.39.002-2.868-.319-4.023-1.06a4.6 4.6 0 0 1-1.422-1.4m0 3.464v13.06c0 .557.061 1 .132 1.563.232 1.075.862 1.855 1.69 2.387 1.03.66 2.361.948 3.623.945l3.22-.006v-15.495l-3.22.006c-1.39.002-2.868-.318-4.023-1.06a4.7 4.7 0 0 1-1.422-1.4m0 16.233c0 .63.03 1.07.107 1.668l.001.001.024.186c.232 1.074.862 1.854 1.69 2.387 1.029.66 2.361.947 3.623.944l3.22-.006v-2.726l-3.22.006c-1.39.002-2.868-.318-4.023-1.061a4.6 4.6 0 0 1-1.422-1.399m0 3.463v.915c-.008.287.044.594.078.88.523 2.51 3.105 3.494 5.432 3.49l3.154-.005v-2.824l-3.22.006c-1.39.002-2.867-.32-4.022-1.062a4.6 4.6 0 0 1-1.422-1.4" class="fil5" style="stroke-width:3.23471"/>
    <path id="path130057" d="M972.548 389.583c.982.178 1.964.416 2.944.704.637.187 1.26.449 1.845.758 3.597 1.897 5.184 5.424.037 6.647-2.45.583-4.476 1.491-6.495 3.02-3.529 2.676-6.208 6.671-8.231 10.545-2.211 4.233-3.93 8.832-5.52 13.328-2.036 5.753-3.87 11.754-6.308 17.34-1.31 3.004-3.186 5.102-6.098 6.664-4.498 2.413-10.69 3.05-15.708 3.243-20.094.77-40.23.77-60.324 0-5.017-.193-11.21-.83-15.709-3.243-2.911-1.562-4.787-3.66-6.098-6.663-2.437-5.587-4.272-11.588-6.307-17.341-1.59-4.496-3.31-9.094-5.52-13.328-2.023-3.874-4.702-7.87-8.231-10.544-2.019-1.53-4.043-2.438-6.495-3.02-1.329-.317-3.095-.995-3.266-2.57-.253-2.325 3.232-4.273 5.147-4.836.98-.288 1.963-.526 2.945-.704-4.73-9.191-7.512-19.528-6.717-29.904.707-9.235 4.25-17.99 10.786-24.656 6.88-7.017 16.04-10.671 25.802-11.166 9.559-.483 19.005 2.027 27.634 6.077q-.02-.389-.02-.782c0-7.479 5.1-13.773 12.023-15.613v-7.454h-6.08l-5.196 8.023h-4.32v-24.397h4.32l5.195 8.024h6.08v-8.922l-10.038-6.461v-5.006h28.453v5.006l-10.038 6.46v8.923h6.08l5.196-8.024h4.32v24.397h-4.32l-5.197-8.023h-6.079v7.454c6.921 1.84 12.021 8.134 12.021 15.613q0 .393-.019.782c8.63-4.05 18.076-6.56 27.634-6.077 9.761.495 18.922 4.15 25.803 11.166 6.535 6.666 10.078 15.42 10.786 24.656.795 10.376-1.987 20.713-6.717 29.904" class="fil3" style="stroke-width:3.23471"/>
    <path id="path130059" d="M971.713 389.444c4.735-9.117 7.539-19.389 6.749-29.703-.692-9.047-4.155-17.625-10.56-24.155-6.739-6.873-15.707-10.441-25.267-10.925-9.318-.473-18.54 1.953-26.978 5.873l-10.291 39.245a17.4 17.4 0 0 1 2.928 1.915l10.145-39.474c42.221-18.363 71.654 17.576 50.366 56.976a23 23 0 0 1 2.908.248m-79.375-19.665-10.292-39.245c-8.438-3.92-17.659-6.346-26.978-5.874-9.56.485-18.528 4.053-25.267 10.926-6.404 6.53-9.866 15.108-10.559 24.154-.79 10.315 2.014 20.587 6.749 29.704a23 23 0 0 1 2.908-.248c-21.288-39.4 8.145-75.34 50.365-56.977l10.146 39.475a17.4 17.4 0 0 1 2.928-1.916z" style="fill:#7a6842;stroke-width:3.23471"/>
    <ellipse id="ellipse130061" cx="874.129" cy="321.286" class="fil3" rx="5.698" ry="5.68" style="stroke-width:3.23471"/>
    <ellipse id="ellipse130063" cx="874.129" cy="321.286" class="fil7" rx="4.892" ry="4.877" style="stroke-width:3.23471"/>
    <ellipse id="ellipse130065" cx="856.976" cy="318.856" class="fil3" rx="5.698" ry="5.68" style="stroke-width:3.23471"/>
    <ellipse id="ellipse130067" cx="856.976" cy="318.856" class="fil7" rx="4.892" ry="4.877" style="stroke-width:3.23471"/>
    <ellipse id="ellipse130069" cx="838.496" cy="322.277" class="fil3" rx="5.698" ry="5.68" style="stroke-width:3.23471"/>
    <ellipse id="ellipse130071" cx="838.496" cy="322.277" class="fil7" rx="4.892" ry="4.877" style="stroke-width:3.23471"/>
    <ellipse id="ellipse130073" cx="823.622" cy="333.378" class="fil3" rx="5.698" ry="5.68" style="stroke-width:3.23471"/>
    <ellipse id="ellipse130075" cx="823.622" cy="333.378" class="fil7" rx="4.892" ry="4.877" style="stroke-width:3.23471"/>
    <ellipse id="ellipse130077" cx="815.044" cy="349.696" class="fil3" rx="5.698" ry="5.68" style="stroke-width:3.23471"/>
    <ellipse id="ellipse130079" cx="815.044" cy="349.696" class="fil7" rx="4.892" ry="4.877" style="stroke-width:3.23471"/>
    <ellipse id="ellipse130081" cx="923.575" cy="321.286" class="fil3" rx="5.698" ry="5.68" style="stroke-width:3.23471"/>
    <ellipse id="ellipse130083" cx="923.575" cy="321.286" class="fil8" rx="4.892" ry="4.877" style="stroke-width:3.23471"/>
    <ellipse id="ellipse130085" cx="940.728" cy="318.856" class="fil3" rx="5.698" ry="5.68" style="stroke-width:3.23471"/>
    <ellipse id="ellipse130087" cx="940.728" cy="318.856" class="fil8" rx="4.892" ry="4.877" style="stroke-width:3.23471"/>
    <ellipse id="ellipse130089" cx="959.208" cy="322.277" class="fil3" rx="5.698" ry="5.68" style="stroke-width:3.23471"/>
    <ellipse id="ellipse130091" cx="959.208" cy="322.277" class="fil8" rx="4.892" ry="4.877" style="stroke-width:3.23471"/>
    <ellipse id="ellipse130093" cx="974.083" cy="333.378" class="fil3" rx="5.698" ry="5.68" style="stroke-width:3.23471"/>
    <ellipse id="ellipse130095" cx="974.083" cy="333.378" class="fil8" rx="4.892" ry="4.877" style="stroke-width:3.23471"/>
    <ellipse id="ellipse130097" cx="982.66" cy="349.696" class="fil3" rx="5.698" ry="5.68" style="stroke-width:3.23471"/>
    <ellipse id="ellipse130099" cx="982.66" cy="349.696" class="fil8" rx="4.892" ry="4.877" style="stroke-width:3.23471"/>
    <path id="path130101" d="m888.728 372.27-10.146-39.471c-8.352-3.577-17.606-5.588-26.697-4.35-7.453 1.015-14.305 4.184-19.588 9.571-5.827 5.944-8.943 13.76-9.573 21.987-.77 10.05 2.154 20.074 6.912 28.862q.157.165.307.334c3.336.11 6.566 1.065 9.505 3.186 2.754 1.989 4.835 4.672 6.508 7.59.101-6.4.9-13.445 3.363-19.124 1.735-4.001 4.719-8.093 9.34-8.806 4.577-.704 8.74 2.216 11.664 5.418 3.844 4.21 6.645 9.892 8.629 15.405 1.608-9.754 5.271-16.62 9.776-20.602" class="fil2" style="stroke-width:3.23471"/>
    <path id="path130103" d="m908.978 372.27 10.145-39.471c8.352-3.577 17.606-5.588 26.697-4.35 7.454 1.015 14.306 4.184 19.587 9.571 5.828 5.944 8.944 13.76 9.575 21.987.768 10.05-2.155 20.074-6.913 28.862q-.156.165-.308.334c-3.334.11-6.564 1.065-9.503 3.186-2.755 1.989-4.836 4.672-6.509 7.59-.101-6.4-.901-13.445-3.364-19.124-1.735-4.001-4.718-8.093-9.34-8.806-4.576-.704-8.739 2.216-11.663 5.418-3.845 4.21-6.645 9.892-8.63 15.405-1.606-9.754-5.27-16.62-9.774-20.602" class="fil2" style="stroke-width:3.23471"/>
    <path id="path130105" d="M899.206 313.8c8.342.188 15.05 6.99 15.05 15.352 0 2.031-.397 3.97-1.115 5.745a4.052 4.052 0 0 0-3.789-5.497 4.05 4.05 0 0 0-4.057 4.044 4.05 4.05 0 0 0 4.057 4.045 4.06 4.06 0 0 0 3.726-2.442 15.41 15.41 0 0 1-14.226 9.462 15.41 15.41 0 0 1-14.228-9.462 4.06 4.06 0 0 0 3.726 2.442 4.05 4.05 0 0 0 4.059-4.045 4.05 4.05 0 0 0-4.059-4.044 4.05 4.05 0 0 0-3.787 5.497 15.3 15.3 0 0 1-1.117-5.745c0-8.361 6.71-15.164 15.051-15.352a4.05 4.05 0 0 0-3.704 4.03 4.053 4.053 0 0 0 4.059 4.045 4.05 4.05 0 0 0 4.057-4.045 4.05 4.05 0 0 0-3.703-4.03m-.354 8.087c4.024 0 7.287 3.253 7.287 7.265s-3.263 7.265-7.287 7.265-7.288-3.254-7.288-7.265c0-4.012 3.264-7.265 7.288-7.265" class="fil5" style="stroke-width:3.23471"/>
    <path id="path130107" d="m884.478 336.632 3.26 12.426a4.144 4.144 0 0 1 4.088-4.852 4.144 4.144 0 0 1 4.149 4.137 4.144 4.144 0 0 1-4.15 4.136 4.15 4.15 0 0 1-3.916-2.765l5.169 19.708c3.759-1.694 7.789-1.694 11.548 0l5.17-19.715a4.15 4.15 0 0 1-3.918 2.772 4.143 4.143 0 0 1-4.149-4.136 4.143 4.143 0 0 1 4.15-4.137 4.143 4.143 0 0 1 4.086 4.86l3.262-12.438a16.24 16.24 0 0 1-14.375 8.684c-6.2 0-11.653-3.495-14.374-8.68m14.374 13.83c4.56 0 8.256 3.686 8.256 8.23s-3.697 8.23-8.256 8.23-8.257-3.686-8.257-8.23 3.698-8.23 8.257-8.23" class="fil5" style="stroke-width:3.23471"/>
    <path id="path130109" d="M820.517 396.911c3.553.844 9.487 2.932 15.254 13.976 4.818 9.226 8.067 22.045 11.852 30.718 2.07 4.742 6.206 8.854 21.098 9.424 20.03.768 40.232.768 60.263 0 14.892-.57 19.028-4.682 21.098-9.424 3.785-8.673 7.034-21.492 11.852-30.718 5.767-11.044 11.701-13.131 15.254-13.976 5.45-1.296 1.356-4.89-1.923-5.854-14.815-4.353-21.169 5.565-24.328 12.23.737-39.152-22.331-39.794-32.517-6.874-3.942-36.609-35.194-36.609-39.135 0-10.186-32.92-33.254-32.278-32.517 6.875-3.16-6.666-9.514-16.584-24.328-12.23-3.279.963-7.372 4.557-1.923 5.853" class="fil0" style="stroke-width:3.23471"/>
    <path id="path130111" d="M898.852 429.43c10.702 0 22.762 1.037 33.04 4.153 4.34 1.316 14.003 4.773 14.003 10.48 0 1.711-.681 2.134-2.063 2.876-4.215 2.26-10.158 2.839-14.89 3.02-20.05.767-40.13.767-60.18 0-4.732-.181-10.675-.76-14.89-3.02-1.382-.742-2.063-1.165-2.063-2.875 0-5.708 9.663-9.165 14.004-10.481 10.278-3.116 22.337-4.153 33.039-4.153" class="fil3" style="stroke-width:3.23471"/>
    <path id="path130113" d="M892.329 383.276c1.176 0 2.167.863 2.342 2.007h3.826v-2.926c-4.105-.616-1.008-7.037 2.03-4.004 1.382 1.38.575 3.72-1.32 4.004v2.926h3.826c.63-4.096 7.05-1 4.016 2.024-1.376 1.373-3.726.582-4.016-1.316h-3.101l8.782 15.11-.63.325-8.876-15.27v4.559l6.82 11.768-.637.327-6.183-10.64v12.284h-.711v-12.283l-6.196 10.66-.637-.327 6.833-11.792v-4.557l-8.888 15.293-.618-.346 8.782-15.11h-3.102c-.63 4.095-7.047 1.004-4.016-2.023a2.36 2.36 0 0 1 1.674-.692m7.696-4.424c-2.26-2.243-4.351 2.821-1.173 2.821 1.479 0 2.211-1.787 1.173-2.821m6.523 5.616c-2.26-2.243-4.35 2.821-1.173 2.821 1.48 0 2.211-1.787 1.173-2.821m-13.046 0c-2.26-2.242-4.353 2.821-1.173 2.821 1.482 0 2.207-1.79 1.173-2.821" class="fil9" style="stroke-width:3.23471"/>
    <path id="path130115" d="M909.702 407.381a2.366 2.366 0 0 1 2.196 2.164l3.817.267.205-2.921c-3.956-.88-.673-7.038 2.305-3.852 1.23 1.317.42 3.738-1.596 3.901l-.205 2.92 3.816.267c.879-3.94 7.058-.68 3.863 2.297-1.318 1.23-3.751.418-3.913-1.59l-3.094-.216 7.704 15.685-.652.28-7.785-15.851-.318 4.547 5.98 12.215-.658.282-5.425-11.043-.86 12.254-.71-.05.861-12.254-6.927 10.205-.613-.372 7.642-11.288.319-4.545-9.936 14.637-.593-.388 9.819-14.462-3.096-.215c-.882 3.944-7.057.67-3.863-2.299a2.37 2.37 0 0 1 1.717-.573zm7.988-3.879c-2.093-2.395-4.54 2.511-1.368 2.733 1.473.103 2.328-1.627 1.368-2.733m6.114 6.056c-2.103-2.394-4.533 2.514-1.367 2.734 1.472.102 2.328-1.629 1.367-2.734m-13.015-.907c-2.086-2.398-4.544 2.51-1.367 2.733 1.472.103 2.33-1.629 1.367-2.733" class="fil9" style="stroke-width:3.23471"/>
    <path id="path130117" d="M888.002 407.381a2.365 2.365 0 0 0-2.196 2.164l-3.817.267-.203-2.921c3.954-.881.67-7.037-2.306-3.852-1.233 1.318-.419 3.738 1.596 3.901l.206 2.92-3.818.267c-.879-3.94-7.057-.68-3.863 2.297 1.32 1.23 3.751.418 3.913-1.59l3.094-.216-7.703 15.685.652.28 7.785-15.851.319 4.547-5.98 12.215.658.282 5.424-11.043.86 12.254.709-.05-.86-12.254 6.927 10.205.613-.372-7.641-11.288-.32-4.545 9.936 14.637.593-.388-9.817-14.462 3.093-.215c.883 3.944 7.058.67 3.863-2.299a2.37 2.37 0 0 0-1.717-.573zm-7.988-3.879c2.093-2.395 4.54 2.511 1.368 2.733-1.473.103-2.328-1.627-1.368-2.733m-6.114 6.056c2.103-2.396 4.533 2.514 1.367 2.734-1.472.102-2.328-1.629-1.367-2.734m13.015-.907c2.086-2.398 4.545 2.51 1.367 2.733-1.472.103-2.33-1.629-1.367-2.733" class="fil9" style="stroke-width:3.23471"/>
    <path id="path130119" d="M939.384 411.344a2.36 2.36 0 0 1 1.56 2.657l3.617 1.242.956-2.767c-3.291-1.715.504-6.947 3.227-3.127.802 1.125-.284 3.775-2.553 3.357l-.958 2.768 3.618 1.242c1.342-2.553 5.283-.868 4.339 1.863-.946 2.737-5.093 1.635-4.571-1.194l-2.933-1.006 3.37 17.137-.703.102-3.405-17.32-1.488 4.31 2.605 13.342-.71.103-2.37-12.067-4.012 11.615-.672-.23 4.012-11.613-9.34 8.067-.496-.515 10.312-8.932 1.488-4.308-13.398 11.574-.471-.528 13.239-11.437-2.934-1.007c-1.909 3.654-7-1.31-3.135-3.216a2.37 2.37 0 0 1 1.807-.11zm8.722-1.685c-1.397-2.859-5.04 1.26-2.03 2.287 1.403.479 2.672-.975 2.03-2.287m4.334 7.426c-1.396-2.854-5.039 1.256-2.03 2.288 1.394.48 2.671-.97 2.03-2.288m-12.336-4.234c-1.403-2.852-5.035 1.254-2.03 2.288 1.395.48 2.672-.972 2.03-2.288" class="fil9" style="stroke-width:3.23471"/>
    <path id="path130121" d="M858.32 411.344a2.36 2.36 0 0 0-1.56 2.657l-3.617 1.242-.956-2.767c3.291-1.715-.504-6.947-3.227-3.127-.802 1.125.284 3.775 2.553 3.357l.958 2.768-3.618 1.242c-1.342-2.553-5.283-.868-4.339 1.863.946 2.737 5.093 1.635 4.571-1.194l2.933-1.006-3.369 17.137.702.102 3.405-17.32 1.488 4.31-2.605 13.342.71.103 2.37-12.067 4.012 11.615.672-.23-4.012-11.613 9.341 8.067.495-.515-10.312-8.932-1.488-4.308 13.398 11.574.471-.528-13.239-11.437 2.934-1.007c1.908 3.654 7-1.31 3.135-3.216a2.37 2.37 0 0 0-1.807-.11zm-8.722-1.685c1.397-2.859 5.04 1.26 2.03 2.287-1.403.479-2.672-.975-2.03-2.287m-4.334 7.426c1.396-2.854 5.039 1.256 2.03 2.288-1.394.48-2.671-.97-2.03-2.288m12.336-4.234c1.401-2.852 5.036 1.254 2.03 2.288-1.395.48-2.672-.972-2.03-2.288" class="fil9" style="stroke-width:3.23471"/>
    <path id="path130123" d="M930.938 386.223a2.37 2.37 0 0 1 1.83 2.48l3.727.859.662-2.852c-2.683-1.053-1.426-5.148 1.405-4.496s2.16 4.88-.713 4.655l-.662 2.852 3.729.86c1.06-2.676 5.164-1.418 4.51 1.4-.655 2.82-4.89 2.159-4.67-.71l-3.022-.696 5.146 16.693-.688.175-5.2-16.871-1.03 4.44 3.989 12.999-.694.174-3.625-11.753-2.772 11.97-.694-.159 2.774-11.969-8.444 8.998-.547-.463 9.319-9.956 1.03-4.44-12.111 12.908-.525-.478 11.967-12.752-3.022-.696c-1.063 2.677-5.164 1.415-4.51-1.402a2.37 2.37 0 0 1 2.841-1.769zm8.498-2.584c-1.691-2.696-4.878 1.775-1.779 2.487 1.437.33 2.557-1.247 1.779-2.487m5.088 6.935c-1.691-2.695-4.877 1.775-1.779 2.486 1.436.331 2.559-1.244 1.78-2.486m-12.712-2.927c-1.69-2.694-4.878 1.776-1.779 2.488 1.436.33 2.559-1.245 1.779-2.488" class="fil9" style="stroke-width:3.23471"/>
    <path id="path130125" d="M866.766 386.223a2.366 2.366 0 0 0-1.83 2.48l-3.727.859-.662-2.852c2.682-1.053 1.426-5.146-1.405-4.496-2.831.651-2.161 4.88.713 4.655l.66 2.852-3.727.86c-1.418-3.58-7.03.034-3.456 2.873 1.19.945 3.788.017 3.615-2.183l3.023-.696-5.146 16.693.687.175 5.202-16.871 1.029 4.44-3.989 12.999.694.174 3.625-11.753 2.772 11.97.694-.159-2.774-11.969 8.444 8.998.547-.463-9.32-9.956-1.029-4.44 12.112 12.908.525-.478-11.968-12.752 3.023-.696c1.412 3.578 7.031-.03 3.455-2.872-.637-.507-1.77-.29-1.787-.3m-8.498-2.584c1.691-2.696 4.878 1.775 1.779 2.487-1.437.33-2.557-1.246-1.779-2.487m-5.088 6.935c1.691-2.695 4.877 1.775 1.779 2.486-1.437.331-2.559-1.244-1.78-2.486m12.712-2.927c1.69-2.694 4.878 1.776 1.779 2.488-1.437.33-2.559-1.245-1.779-2.488" class="fil9" style="stroke-width:3.23471"/>
    <path id="path130127" d="M963.516 397.172a2.364 2.364 0 0 1 1.123 2.868l3.378 1.79 1.377-2.584c-2.776-2.06 1.14-6.809 3.678-2.584.944 1.57-1.843 3.339-3.05 2.916-1.228 2.304-.485.963-2.417 3.026l.001-.002-15.05 9.341-.384-.595 14.87-9.23-2.738-1.45c-2.07 2.765-6.826-1.131-2.592-3.668a2.37 2.37 0 0 1 1.804.174zm-.574 11.876-8.661 5.376-.409-.587 9.89-6.156q-.41.656-.82 1.368zm9.454-12.18c-.935-3.04-5.173.455-2.365 1.942 1.303.69 2.792-.542 2.365-1.943m-8.405 1.904c-.934-3.037-5.172.456-2.365 1.943 1.304.691 2.789-.54 2.365-1.943" class="fil9" style="stroke-width:3.23471"/>
    <path id="path130129" d="M834.188 397.172a2.36 2.36 0 0 0-1.123 2.868l-3.378 1.79-1.377-2.584c2.776-2.059-1.139-6.809-3.678-2.584-.945 1.572 1.852 3.34 3.05 2.916 1.226 2.3.485.965 2.42 3.027l-.003-.005 15.051 9.343.383-.596-14.871-9.23 2.739-1.453c1.72 2.313 5.353.038 3.992-2.517-1.05-1.967-3.195-.975-3.205-.975m.574 11.876 8.661 5.376.409-.587-9.89-6.154q.41.656.82 1.365m-9.454-12.18c.935-3.04 5.174.455 2.365 1.942-1.303.691-2.79-.54-2.365-1.943m8.405 1.904c.937-3.035 5.172.453 2.365 1.943-1.296.689-2.791-.529-2.365-1.943" class="fil9" style="stroke-width:3.23471"/>
    <path id="path130131" d="M898.852 429.965c25.68 0 46.507 6.314 46.507 14.099 0 1.47-.554 1.744-1.782 2.402-4.123 2.212-10.066 2.782-14.655 2.958a786 786 0 0 1-60.14 0c-4.59-.176-10.532-.746-14.655-2.958-1.228-.658-1.78-.932-1.78-2.402 0-7.785 20.824-14.099 46.505-14.099" class="fil2" style="stroke-width:3.23471"/>
    <ellipse id="ellipse130133" cx="813.265" cy="368.613" class="fil3" rx="5.698" ry="5.68" style="stroke-width:3.23471"/>
    <ellipse id="ellipse130135" cx="813.265" cy="368.613" class="fil7" rx="4.892" ry="4.877" style="stroke-width:3.23471"/>
    <ellipse id="ellipse130137" cx="817.944" cy="386.552" class="fil3" rx="5.698" ry="5.68" style="stroke-width:3.23471"/>
    <ellipse id="ellipse130139" cx="817.944" cy="386.552" class="fil7" rx="4.892" ry="4.877" style="stroke-width:3.23471"/>
    <ellipse id="ellipse130141" cx="984.439" cy="368.613" class="fil3" rx="5.698" ry="5.68" style="stroke-width:3.23471"/>
    <ellipse id="ellipse130143" cx="984.439" cy="368.613" class="fil8" rx="4.892" ry="4.877" style="stroke-width:3.23471"/>
    <ellipse id="ellipse130145" cx="979.761" cy="386.552" class="fil3" rx="5.698" ry="5.68" style="stroke-width:3.23471"/>
    <ellipse id="ellipse130147" cx="979.761" cy="386.552" class="fil8" rx="4.892" ry="4.877" style="stroke-width:3.23471"/>
    <ellipse id="ellipse130149" cx="898.852" cy="329.152" class="fil2" rx="6.616" ry="6.596" style="stroke-width:3.23471"/>
    <ellipse id="ellipse130151" cx="898.852" cy="317.83" class="fil10" rx="3.386" ry="3.376" style="stroke-width:3.23471"/>
    <ellipse id="ellipse130153" cx="909.352" cy="333.445" class="fil10" rx="3.386" ry="3.376" style="stroke-width:3.23471"/>
    <ellipse id="ellipse130155" cx="888.351" cy="333.445" class="fil10" rx="3.386" ry="3.376" style="stroke-width:3.23471"/>
    <ellipse id="ellipse130157" cx="898.852" cy="358.692" class="fil2" rx="7.585" ry="7.561" style="stroke-width:3.23471"/>
    <ellipse id="ellipse130159" cx="905.878" cy="348.342" class="fil10" rx="3.478" ry="3.467" style="stroke-width:3.23471"/>
    <ellipse id="ellipse130161" cx="891.825" cy="348.342" class="fil10" rx="3.478" ry="3.467" style="stroke-width:3.23471"/>
    <path id="path130163" d="M917.83 290.515h-3.074l-5.197 8.023h-7.324v-10.162l10.038-6.46v-3.766H885.43v3.765l10.038 6.461v10.162h-7.324l-5.196-8.023h-3.075v22.79h3.075l5.196-8.023h7.324v8.065a16.3 16.3 0 0 1 6.766 0v-8.065h7.324l5.197 8.024h3.074z" class="fil5" style="stroke-width:3.23471"/>
  </g>
</svg>
