<svg id="flag-icons-ru-sak" class="fi fi-ru-sak" viewBox="0 0 512 512" xmlns="http://www.w3.org/2000/svg" xml:space="preserve" width="512" height="512">
  <metadata id="flag-icons">
    <name>Sakhalin Oblast</name>
    <code>ru-sak</code>
    <iso>true</iso>
    <type>Place</type>
    <capital>Yuzhno-Sakhalinsk</capital>
    <continent>Asia</continent>
  </metadata>
  <path fill="#47a5ae" d="M0 0h512v512H0z" style="stroke-width:.999996"/>
  <path fill="#fff" d="M249.432 447.146c-.513-1.197-1.88-1.368-1.88-.342 0 .683.513 1.196 1.026 1.196.683 0 1.025-.342.854-.854m-2.222-1.197c.513-.854-.341-2.563-1.367-2.563-1.196 0-1.709.854-1.196 2.221.513 1.026 1.88 1.368 2.563.342m4.956-.342c.684-.854.684-1.196 0-2.05-1.367-1.197-3.247-.513-3.247 1.025 0 1.025.684 1.88 2.051 2.05.171 0 .855-.512 1.196-1.025m2.051-4.443c0-1.538-1.025-2.392-2.563-2.05-.855.17-1.367.854-1.367 1.538 0 1.025.341 1.367 1.88 1.367 1.196 0 2.05-.342 2.05-.855m-23.412-5.127c0-4.443 0-4.614 3.076-8.032 2.734-2.905 3.076-3.76 3.076-6.152 0-1.709.512-3.247 1.025-3.76.684-.341 1.538-1.708 2.05-2.905.514-1.367 1.197-2.221 1.71-2.221.512-.171 1.88-1.026 3.076-2.051 1.367-1.026 2.734-2.05 3.247-2.05s.854-.172.854-.514c0-.341 1.026-.854 2.222-1.025 1.709-.342 2.393-.854 2.734-2.222.684-2.563-.512-3.076-3.76-1.88-3.246 1.197-5.468 1.368-7.006.513-.684-.341-1.538-.512-1.88-.17-.854.512-2.905 4.614-2.905 5.639 0 .342-.855 2.392-1.71 4.614-2.562 5.981-2.733 6.323-3.588 9.741-.512 2.05-1.709 4.102-3.247 5.64-1.367 1.367-2.734 3.247-3.076 4.272-.17.854-.684 1.88-1.025 2.392-.855 1.026 0 2.735 1.367 2.735.683 0 1.538.512 2.05 1.025 1.539 1.88 1.88 1.026 1.71-3.589m37.084-10.082c.854-.855 1.538-1.71 1.538-2.222 0-.513.17-.854.512-.854s.855-.855 1.197-1.71c.683-1.196.683-1.537-.171-1.88-1.71-.683-2.051-.512-5.127 2.222-1.709 1.368-3.247 2.564-3.76 2.735-1.025.341-.17 2.221 1.538 3.076 1.538.683 2.051.512 4.273-1.367m-85.79-1.71c0-.683.513-1.537 1.026-2.05.513-.342 1.196-2.222 1.709-3.93.683-3.077.854-4.957.683-15.552 0-3.247.171-7.349.684-9.228.684-3.076 1.025-3.59 3.589-4.785l2.734-1.368 4.102 2.222c4.614 2.222 5.98 2.393 11.45.513 3.76-1.197 4.443-.855 4.443 2.563 0 2.05 1.88 7.007 2.734 7.007.171 0 .855 1.025 1.367 2.221a96 96 0 0 0 2.051 4.444c1.196 1.88 1.538 2.05 2.222 1.025.341-.513.683-2.734.512-5.64-.17-2.563 0-5.297.342-5.81.513-.854.171-2.392-.854-5.127a691 691 0 0 0-2.735-7.006c-1.538-4.273-4.614-6.665-7.348-5.982-2.734.855-7.52-.683-10.083-3.247-1.88-1.709-5.981-9.228-5.981-10.937-.171-1.709-8.203-8.886-14.697-12.988-2.905-1.709-7.349-11.962-8.203-18.627-.171-1.026-.513-3.59-1.025-5.469-.342-1.88-.684-5.298-.855-7.52-.17-2.392-.513-4.955-.854-5.81-.342-1.025-.513-2.221-.171-2.734s.683-2.564 1.025-4.443c.171-2.051.855-4.615 1.367-5.81 1.197-2.735 1.197-5.47.171-12.305-.683-5.469-.683-5.64.684-7.007.683-.854 1.709-1.367 2.05-1.367.342 0 1.71-.854 2.906-1.709 1.196-.854 2.563-1.709 2.905-1.709s.854-.17.854-.513c.171-.17 2.393-1.025 4.956-1.88 7.178-2.05 12.134-1.367 16.748 2.906.854.683 3.93 2.734 6.836 4.272 3.247 1.88 7.177 4.785 9.57 7.178 2.221 2.392 4.272 3.93 4.443 3.76.342-.171-.17-1.71-.854-3.418-.855-1.71-1.538-3.247-1.538-3.76 0-1.88-2.222-4.443-4.786-5.127-5.297-1.538-8.886-4.443-11.108-8.887-2.905-5.98-6.494-11.791-8.373-14.013-1.026-1.025-2.222-2.905-2.735-3.93s-1.196-2.051-1.367-2.222c-1.538-1.538-7.178-9.057-8.203-11.28-.854-1.366-2.734-4.1-4.272-5.81-4.956-5.81-5.982-7.177-6.323-9.057a19.3 19.3 0 0 0-1.197-3.076c-.512-.513-1.538-2.734-2.392-4.956-.855-2.05-2.393-5.127-3.418-6.665-2.563-3.76-3.93-7.007-3.93-9.4 0-2.22-2.393-5.468-3.931-5.126-.684 0-1.88-.513-2.734-1.196l-1.71-1.196 1.197-1.88c1.538-1.88 1.538-1.538-1.71-7.178-1.195-2.05-3.075-3.93-4.1-3.93-.342 0-.855.854-1.026 1.709-.342 3.247-1.88 2.734-1.709-.513.171-3.93-1.538-7.52-4.614-9.57-1.709-1.196-2.734-2.735-3.418-4.443-1.367-4.102-1.88-7.69-1.196-7.862.342 0-.513-3.076-1.88-6.665-2.05-6.152-2.222-6.664-1.367-8.544.854-1.538 1.025-1.71 1.367-.855.17.684.17 1.538-.17 2.222-.514 1.025-.172 4.101.512 4.101.854 0 2.905-7.006 2.563-8.715-.683-3.76-2.221-7.69-4.101-10.767-1.197-1.88-2.393-4.101-2.564-5.126-.512-2.051-1.709-1.88-1.709.341 0 2.051-1.025 1.197-4.956-4.272-4.272-6.152-5.126-8.032-3.076-8.716 1.538-.341 2.222.513 2.906 3.59.512 1.879 5.297 5.81 5.639 4.613.17-.512-.684-2.221-1.88-4.101-1.025-1.71-2.05-3.76-2.05-4.443 0-1.538-3.248-4.615-4.786-4.615-.683 0-1.538-.854-1.88-2.05-.512-1.026-1.537-2.222-2.221-2.564-.855-.342-1.538-1.196-1.538-1.88 0-1.196-3.589-6.494-5.298-7.86-1.025-.855-1.538-8.033-.683-9.229 1.538-1.88-4.273-11.45-7.007-11.45-.513 0-1.367-.854-1.709-1.709-1.025-2.05-2.734-1.88-3.076.171-.171.854.342 2.05 1.367 3.076 1.025 1.025 1.367 1.709.854 1.709-.512 0-1.196.513-1.708 1.025-.513.513-1.197.684-1.538.513-.342-.342-2.735-.513-5.127-.513l-4.444-.17 3.76 3.588c4.272 4.102 9.228 7.52 10.083 7.007 1.025-.513 1.88 3.076 1.709 7.007-.171 4.956 1.025 6.494 2.392 3.247 1.71-4.273 3.59-3.76 2.735.683-.513 2.905-1.71 3.76-3.59 2.735-1.025-.513-1.366-.513-1.366.341 0 1.367.341 2.051.683 1.88.171-.17.684.513 1.026 1.538.512.855.512 1.538.17 1.538-.17 0-.341 1.026-.17 2.393.17 2.392 0 2.734-3.076 4.614-1.71 1.196-3.247 2.05-3.418 1.709-.171-.342-.513-1.88-.684-3.589-.342-1.709-.854-3.247-1.025-3.247-1.026 0-4.785 2.222-4.785 2.734 0 .171-1.026 1.71-2.222 3.077-2.734 3.247-2.734 4.955.342 10.424 3.247 5.981 5.298 11.963 5.298 15.38 0 2.735 1.025 7.862 2.905 14.527.512 1.538-.684 3.76-1.71 3.076-.341-.171-.512.342-.512 1.196s-.342 1.88-.683 2.222c-.855.854 1.196 5.64 2.221 5.297 1.538-.683 2.222.855 2.905 6.836 1.197 8.203 1.368 9.228 2.393 9.228 1.88 0 4.443 3.247 4.785 5.81.17 1.88.854 3.248 3.589 5.982 1.88 1.88 3.76 3.247 3.93 3.076.855-.512 3.247.342 3.247 1.367 0 .342.684 1.197 1.367 1.88.684.684 1.368 1.026 1.368.855 0-.342.512-.171 1.196.17.683.513 1.196 1.197.854 1.88-.17 1.368 3.76 7.862 5.982 9.4 1.709 1.196 1.538 2.734-.513 2.392-1.709-.512-1.88-.342-2.905 8.032-.855 5.298-.513 6.323 3.418 14.697 1.367 2.734 2.392 5.298 2.392 5.81 0 .513.855 2.564 2.05 4.444 1.026 2.05 2.052 5.127 2.393 7.348.171 2.222 1.026 5.64 1.88 7.861 3.076 8.032 4.444 14.526 4.614 21.191.342 7.007.513 9.4 1.538 16.064.855 4.785.513 6.153-2.392 9.229l-2.05 2.221 1.708 1.368c1.026.854 2.564 1.88 3.589 2.221.854.513 2.563 2.393 3.93 4.956 1.197 2.222 3.248 5.127 4.273 6.152 2.392 2.393 3.589 4.444 6.494 11.28.513 1.196.854 5.639.854 12.304 0 13.842 1.71 18.627 9.058 26.66 2.734 2.905 2.734 3.417 1.538 6.664-.513 1.196-.855 2.393-.684 2.564.171.17 0 .683-.512 1.367-.684.512-1.368 2.734-1.538 5.127-.342 2.221-.684 4.614-1.026 5.126-.513 1.197.513 4.615 2.05 6.324 1.539 1.88 3.077 6.152 4.615 11.791 1.196 4.956 2.222 6.665 3.418 5.81.342-.17 1.025.855 1.538 2.051 1.025 2.564 2.222 3.247 2.222 1.197m84.764-29.393c3.59-3.247 4.444-4.785 5.298-7.69.684-2.051 2.393-5.64 3.76-8.032 1.538-2.222 2.734-4.786 2.734-5.298 0-1.71 1.88-3.247 4.101-3.247 2.564 0 5.47-3.076 8.887-9.058 3.76-7.006 4.785-8.203 8.374-9.74 3.589-1.539 7.006-4.786 7.177-6.836 0-1.026 0-5.298-.17-6.153 0-.341-.855-.512-1.88-.512-2.735 0-7.862 3.588-9.058 6.152-.512 1.367-1.196 2.563-1.538 2.734-.512.171-.512.684-.342 1.026.855 1.367-3.076 5.81-6.494 7.348-1.709.684-2.221.513-3.93-.854-2.905-2.051-4.102-1.197-4.102 3.247 0 2.563-.341 3.76-1.538 4.956-.854.854-1.538 2.05-1.538 2.734 0 1.025-.342 1.367-3.418 2.05-1.196.171-1.709.684-1.367 1.368.513 1.367-.342 3.93-2.05 5.981-.855 1.025-1.88 2.905-2.051 3.93-.342 1.026-1.197 2.393-1.88 3.077-1.196.854-1.196 1.196-.513 2.734 1.026 2.393 1.026 2.734-.854 3.589-1.197.512-1.538 1.025-1.197 1.88.171 1.025-.17 1.538-1.196 1.709-.854.17-1.367.854-1.367 2.05 0 1.71 1.196 4.956 1.709 4.956.17 0 2.222-1.709 4.443-4.101m56.225-64.427c2.221-1.539 4.443-4.615 4.443-6.153 0-.683 1.709-2.905 3.93-5.126 2.564-2.564 3.931-4.615 3.931-5.64 0-2.563 1.538-5.81 3.418-8.032 1.025-1.025 2.05-2.734 2.221-3.93.342-1.026.855-2.222 1.197-2.735 1.538-1.88-1.026-2.392-5.127-.854-1.88.683-2.393 1.367-2.563 4.272-.171 1.367-.342 2.563-.513 2.563-2.564 1.88-4.273 3.418-5.64 5.469-1.367 2.05-1.538 3.076-1.367 5.469l.342 3.076-3.076 1.367c-3.076 1.367-3.247 1.367-3.589 4.956-.17 1.88-.513 4.272-.854 4.956-.513 1.88.683 2.05 3.247.342m24.95-45.287c0-1.368-.854-1.71-2.05-1.026-.684.342-.684.684 0 1.538.854 1.196 2.05.855 2.05-.512m1.196-3.247c1.026-1.026-.341-2.393-1.88-2.051-1.537.512-1.708 1.025-.512 2.05 1.025 1.026 1.367 1.026 2.392 0m-7.006-7.178c-.342-1.367-3.076-1.709-3.76-.513-.854 1.197.855 2.393 2.563 2.051 1.197-.17 1.368-.513 1.197-1.538m27.856-12.988c.512-.513 1.367-2.222 2.05-3.93.684-1.71 1.367-3.419 1.71-3.76.341-.342.512-1.367.512-2.393 0-.854.854-3.076 1.709-4.785 1.88-3.418 1.367-4.272-1.538-2.905-1.196.513-1.88 1.538-2.222 3.076-.513 2.734-2.05 7.007-2.734 7.69-.171.342-.513 1.197-.513 1.88 0 1.538-1.367 3.247-3.418 3.93-1.025.342-1.196.684-.512 1.368.854 1.025 3.417 1.025 4.956-.171m10.082-26.489c.513-.341.513-.854-.512-2.05-1.197-1.538-1.197-1.538-2.393-.513-.854.854-.854 1.367-.17 2.222.854 1.025 1.88 1.196 3.075.341m4.615-10.766c.341-.684-1.539-3.076-2.222-2.393-.513.513.342 3.247 1.196 3.247.171 0 .684-.341 1.026-.854m-1.368-.342c-.17-.17-.341-.683-.341-1.025 0-.513.17-.513.683 0 .513.512.684 1.025.513 1.196s-.513.171-.855-.17m3.59-9.057c0-2.393-.855-4.102-1.88-3.418-.855.513-1.026 5.81-.342 6.494.854.854 2.221-1.026 2.221-3.076m.854-14.526c.17-.513-.171-1.367-.855-2.051-2.221-2.05-4.101-.684-1.88 1.538 1.538 1.709 2.222 1.88 2.735.513m-3.931-9.741c-.513-.342-1.367-.513-2.222-.171l-1.538.513 1.538.854c1.88.854 3.418.17 2.222-1.196m26.147-3.076c0-.855-1.88-1.88-3.076-1.88-.513.17-.855.342-.855.683v1.71c0 .683.513 1.366 1.197 1.537 1.196.171 2.734-1.025 2.734-2.05m-13.5-11.45c.17-.171-.684-.513-2.052-.513-1.88 0-2.221.342-1.538.854.684.855 2.906.684 3.59-.341m0-9.912c.341-1.196 1.025-2.905 1.537-3.589 1.88-3.418.171-5.469-2.734-3.247-.855.684-1.196 1.709-1.196 5.298 0 4.785 1.196 5.64 2.392 1.538m-4.615-5.127c.342-1.538 0-2.734-1.025-2.734-.855 0-3.247 2.734-2.906 3.418.684 1.196 3.418.512 3.931-.684m23.07-4.101c.855-1.368-1.366-2.735-3.588-2.222-1.88.342-2.563 1.538-1.538 2.563.684.684 4.785.513 5.127-.341m-11.79-8.033c1.024-1.196.34-2.221-1.88-2.734-1.368-.342-1.71-.17-2.222 1.026-.684 2.221 2.221 3.417 4.101 1.708m-11.622-3.417c0-1.368-2.734-2.393-4.101-1.538-1.88.854-.684 2.563 1.88 2.563 1.538 0 2.221-.342 2.221-1.025m13.672-6.494c1.025-1.71 1.025-2.051 0-5.127-.855-2.222-1.196-4.102-.855-5.64.513-2.734-.17-3.589-3.076-3.589-2.05 0-2.05.171-1.196 2.051.513.684.513 1.538.342 2.05-.855 1.368-1.026 9.742-.342 11.11 1.025 1.879 3.76 1.537 5.127-.855m-16.406-12.647c0-.512-.513-1.538-1.025-2.392-1.026-1.196-1.368-1.367-2.051-.513-.684.684-.513 1.196.17 2.393 1.197 1.538 2.906 1.88 2.906.512m19.311-19.482c2.563.171 3.93-.341 3.76-1.538-.171-1.025 1.367-3.93 4.101-8.032 2.393-3.418 2.564-5.127 1.367-10.424-.854-3.589-.854-3.93.171-4.785 1.197-.684 1.197-1.026-.683-4.785-1.197-2.222-2.906-4.444-3.76-5.127-1.709-1.026-1.709-1.026-2.05 0-.343.683-.855 2.392-1.368 3.76-.683 1.88-.683 3.076-.17 4.272 1.195 3.076 1.025 8.886-.172 10.254-.683.683-1.538 1.025-1.88.854s-2.05 1.367-3.76 3.589c-1.708 2.221-3.417 3.93-3.759 3.93-.854 0 .342 1.88 1.538 2.222.684.17 1.367 1.196 1.71 2.563.683 3.247 1.537 4.785 2.22 3.931.343-.513 1.539-.854 2.735-.684m-11.279-4.101c0-1.538-.17-1.538-2.393-.513-1.196.684-1.367 1.026-.854 1.367 1.709 1.026 3.247.513 3.247-.854m4.443-26.83c.342-2.051-1.709-3.59-3.76-3.247-2.563.683-3.588 2.05-2.734 3.588.855 1.71 6.152 1.538 6.494-.341m20.679-1.88c1.538-1.88 1.708-2.735 1.367-5.469-.342-3.418-1.026-4.785-2.564-4.785-1.196.17-4.272 2.05-3.076 2.05.342 0-.17.513-1.025 1.026-1.196 1.025-1.367 1.538-1.196 3.76.341 2.05 1.025 3.247 2.221 4.272 1.026.855 2.05 1.538 2.222 1.538.17 0 1.196-1.196 2.05-2.392" style="stroke-width:.999999"/>
</svg>
