<svg id="flag-icons-abz" class="fi fi-abz" viewBox="0 0 640 480" xmlns="http://www.w3.org/2000/svg" width="640" height="480">
  <metadata id="flag-icons">
    <name>Abazins</name>
    <code>abz</code>
    <iso>false</iso>
    <type>People</type>
    <continent>Europe</continent>
  </metadata>
  <path d="M0 0h640v480H0Z" style="fill:#c8312a;stroke:none;stroke-width:1"/>
  <g style="stroke-width:.415625">
    <path d="M112.411 83.791s-2.293.96-.722 19.261c1.282 15.063 6.65 19.97 6.65 19.97l2.343 9.324 22.232.091s.403-5.774 1.264-7.6c2.115-4.486 10.499-9.613 14.092-17.355 3.864-4.719 1.928-14.35 9.685-23.646 3.851-4.616-4.512-2.662-4.512-2.662-4.586 3.042-6.827 6.612-7.984 9.106-.778 4.805-4.375 8.823-4.715 5.334 0 0-1.307-6.034-5.228-17.764-.388-3.477-2.07-15.5-2.429-24.677-.256-5.97-5.482-6.33-5.919-.269l-.631 24.028-1.249-27.75c-.531-7.854-6.473-6.69-6.731-.18l-.255 28.894-1.083-28.009c-1.61-5.35-5.84-2.179-5.918 3.617l-.721 27.253s-.91-14.925-1.117-21.227c-.194-3.79-4.633-3.51-5.052 1.91-.604 7.833-1.555 14.23-2 22.351m66.395-42.86L161.11 28.074h21.874l-17.697 12.857 6.76-20.803zm33.406 24.719-17.697-12.857h21.874L198.693 65.65l6.76-20.803zm19.353 34.914-17.697-12.857h21.874l-17.696 12.857 6.76-20.804zM126.24 32.632l17.697-12.858h-21.874l17.697 12.858L133 11.828Zm-39.046 8.299 17.696-12.857H83.016l17.697 12.857-6.76-20.803zM53.788 65.65l17.697-12.857H49.611L67.307 65.65l-6.76-20.804Zm-19.353 34.914 17.697-12.857H30.258l17.696 12.857-6.76-20.804z" style="fill:#fff;stroke:none;stroke-width:.415625" transform="translate(0 66.448)scale(2.406)"/>
  </g>
</svg>
