<svg id="flag-icons-au-eu" class="fi fi-au-eu" viewBox="0 0 640 480" xmlns="http://www.w3.org/2000/svg" xml:space="preserve" width="640" height="480" version="1.2">
  <metadata id="flag-icons">
    <name>Eureka Flag</name>
    <code>au-eu</code>
    <iso>false</iso>
    <type>Historic</type>
    <continent>Australia</continent>
  </metadata>
  <path fill="#225d87" d="M640 480V0H0v480z" style="stroke-width:.120193"/>
  <path fill="#fff" d="M548.991 269.998v-58.98H91.008v58.98z" style="stroke-width:.120192"/>
  <path fill="#fff" d="M349.993 388.999V91.009h-58.997V389z" style="stroke-width:.120192"/>
  <path fill="#5b667c" d="m294.499 229.438-13.52-28.446 28.454 13.536L320 184.826l10.55 29.702 28.462-13.536-13.536 28.446 29.702 10.566-29.702 10.566 13.536 28.446-28.462-13.536L320 295.182l-10.567-29.702-28.454 13.536 13.52-28.446-29.67-10.566zm-228.992 0-13.52-28.446 28.455 13.536 10.566-29.702 10.542 29.702 28.462-13.536-13.528 28.446 29.686 10.566-29.686 10.566 13.528 28.446-28.462-13.536-10.542 29.702-10.566-29.702-28.455 13.536 13.52-28.446-29.677-10.566Zm458 0-13.52-28.446 28.455 13.536 10.55-29.702 10.566 29.702 28.454-13.536-13.528 28.446 29.686 10.566-29.686 10.566 13.528 28.446-28.454-13.536-10.567 29.702-10.55-29.702-28.454 13.536 13.52-28.446-29.677-10.566zM294.5 80.443l-13.52-28.454 28.454 13.52L320 35.83l10.55 29.678 28.462-13.52-13.536 28.454 29.702 10.566-29.702 10.542 13.536 28.463-28.462-13.529L320 146.18l-10.567-29.694-28.454 13.529 13.52-28.463-29.67-10.542zm0 298.014-13.52-28.47 28.454 13.527L320 333.83l10.55 29.685 28.462-13.528-13.536 28.471L375.178 389l-29.702 10.558 13.536 28.462-28.462-13.52L320 444.17l-10.567-29.67-28.454 13.52 13.52-28.462L264.829 389z" style="stroke-width:.120192"/>
  <path fill="#fff" d="m297.835 230.819-11.764-24.736 24.744 11.757L320 192.014l9.177 25.826 24.752-11.757-11.765 24.736 25.826 9.185-25.826 9.185 11.765 24.744-24.752-11.765L320 287.994l-9.185-25.826-24.744 11.765 11.764-24.744-25.825-9.185zm-228.991 0L57.07 206.083l24.752 11.757 9.185-25.826 9.177 25.826 24.744-11.757-11.765 24.736 25.81 9.185-25.81 9.185 11.765 24.744-24.744-11.765-9.177 25.826-9.185-25.826-24.752 11.765 11.773-24.744-25.826-9.185zm457.983 0-11.765-24.736 24.76 11.757 9.17-25.826 9.193 25.826 24.735-11.757-11.764 24.736 25.817 9.185-25.817 9.185 11.764 24.744-24.735-11.765-9.194 25.826-9.168-25.826-24.76 11.765 11.764-24.744-25.809-9.185zM297.835 81.824 286.071 57.08l24.744 11.765L320 43.02l9.177 25.825 24.752-11.765-11.765 24.744 25.826 9.185-25.826 9.177 11.765 24.744-24.752-11.764L320 138.974l-9.185-25.808-24.744 11.764 11.764-24.744-25.825-9.177zm0 297.998-11.764-24.752 24.744 11.764 9.185-25.8 9.177 25.8 24.752-11.764-11.765 24.752 25.826 9.177-25.826 9.185 11.765 24.744-24.752-11.765L320 436.988l-9.185-25.825-24.744 11.765 11.764-24.744-25.825-9.185z" style="stroke-width:.120192"/>
</svg>
