<svg id="flag-icons-ru-cu" class="fi fi-ru-cu" viewBox="0 0 640 480" xmlns="http://www.w3.org/2000/svg" width="640" height="480" fill-rule="evenodd" clip-rule="evenodd">
  <metadata id="flag-icons">
    <name>Chuvashia</name>
    <code>ru-cu</code>
    <iso>true</iso>
    <type>Place</type>
    <capital>Cheboksary</capital>
    <continent>Europe</continent>
  </metadata>
  <defs>
    <clipPath id="a" clipPathUnits="userSpaceOnUse">
      <path d="M166.667 0h1666.667v1250H166.667z" style="fill:#00f;fill-rule:evenodd;stroke-width:.999995"/>
    </clipPath>
  </defs>
  <g clip-path="url(#a)" style="stroke-width:2.60417" transform="translate(-64)scale(.384)">
    <path fill="#ffdf00" d="M0 0h2000v1250H0z" style="stroke-width:6.78168"/>
    <path fill="#a2260b" d="m1289.9 235.83 56.57-56.57v56.57h56.57l-56.57 56.57 56.57 56.57h-56.57v56.56l-56.57-56.57-56.56 56.57v-56.57h-56.57l56.57-56.56-56.57-56.57h56.56v-56.57zm-36.57 20v-28.29l36.57 36.57 36.57-36.56v28.28h28.29l-36.57 36.57 36.56 36.56h-28.28v28.29l-36.57-36.57-36.57 36.57v-28.29h-28.28l36.57-36.56-36.57-36.57zm-543.27-20 56.57-56.57v56.57h56.57l-56.57 56.57 56.57 56.57-56.57-.01.01 56.57-56.57-56.57-56.57 56.57v-56.57h-56.57l56.57-56.57-56.57-56.57h56.57v-56.56zm-36.57 19.99v-28.28l36.57 36.57 36.57-36.57v28.28h28.29l-36.57 36.57 36.56 36.57h-28.28v28.28l-36.56-36.56-36.58 36.57v-28.29h-28.27l36.56-36.57-36.57-36.57zM1000 115.5l56.56-56.57.01 56.57h56.56l-56.56 56.57 56.57 56.57-56.57-.01v56.57L1000 228.63l-56.57 56.57v-56.57h-56.56l56.56-56.57-56.57-56.57 56.57.01V58.93Zm-36.57 19.99v-28.28l36.57 36.57 36.56-36.57v28.28h28.29l-36.57 36.57 36.57 36.57h-28.29v28.28L1000 200.35l-36.57 36.57v-28.29h-28.28l36.56-36.57-36.57-36.57zm248.67 517.56v-56.57l-70.7-70.71L1035 632.19V970h965v-30h-935V644.61l76.4-76.42 49.5 49.5-28.3 28.28-14.1-14.14 14.1-14.14-21.2-21.21-35.3 35.35 63.6 63.64zm-424.23 0v-56.58l70.71-70.71L965 632.19V970H0v-30h935V644.61l-76.42-76.42-49.5 49.5 28.29 28.28 14.14-14.14-14.14-14.14 21.21-21.21 35.35 35.35-63.64 63.64z" style="stroke-width:6.78168"/>
    <path fill="#a2260b" d="M752.52 405.56h56.57L965 561.47v42.43L787.87 426.77l-63.64 63.64 49.5 49.5 28.28-28.29-14.14-14.14-14.14 14.14-21.21-21.21 35.35-35.36 56.57 56.57-49.5 49.5h-56.56l-70.72-70.71zm494.98 0h-56.6L1035 561.47v42.43l177.1-177.13 63.7 63.64-49.5 49.5-28.3-28.29 14.1-14.14 14.2 14.14 21.2-21.21-35.4-35.36-56.5 56.57 49.5 49.5h56.5l70.7-70.71z" style="stroke-width:6.78168"/>
    <path fill="#a2260b" d="m957.57 356.06-49.49-49.5-63.64 63.64L1000 525.76l155.6-155.56-63.7-63.64-49.5 49.5 28.3 28.28 14.1-14.14-14.1-14.14 21.2-21.21 35.4 35.35-56.6 56.57-49.5-49.5v-56.56l70.7-70.71 84.9 84.85v56.57L1015 553.19V1000h985v250H0v-250h985V553.19L823.23 391.42v-56.57L908.08 250l70.71 70.71v56.56l-49.5 49.5-56.57-56.57 35.36-35.35 21.21 21.21-14.14 14.14 14.14 14.14z" style="stroke-width:6.78168"/>
  </g>
</svg>
