<svg id="flag-icons-ru-niz" class="fi fi-ru-niz" viewBox="0 0 640 480" xmlns="http://www.w3.org/2000/svg" width="640" height="480" fill-rule="evenodd" clip-rule="evenodd" image-rendering="optimizeQuality" shape-rendering="geometricPrecision" text-rendering="geometricPrecision" version="1.1">
  <metadata id="flag-icons">
    <name>Nizhny Novgorod Oblast</name>
    <code>ru-niz</code>
    <iso>true</iso>
    <type>Place</type>
    <capital>Nizhny Novgorod</capital>
    <continent>Europe</continent>
  </metadata>
  <defs id="defs112807">
    <style id="style112805" type="text/css">
      .str1{stroke:#70614e;stroke-linecap:round;stroke-linejoin:round}.str1,.str11{stroke-width:.5}.str11,.str2,.str3,.str4,.str8,.str9{stroke-linecap:round;stroke-linejoin:round}.str9{stroke-width:.5}.str11{stroke:#c2c1c1}.str9{stroke:#a92926}.str2{stroke-width:.6}.str3{stroke:#007cc3}.str3,.str4,.str8{stroke-width:.6}.str8{stroke:#0a0b0c}.str2{stroke:#70614e}.str4{stroke:#0f488e}.fil4{fill:none}.fil3{fill:#007cc3}.fil6{fill:#0a0b0c}.fil2{fill:#f8c300}.fil0{fill:#fff}.fil9{fill:#da2724}.fil11{fill:#eff0f2}
    </style>
  </defs>
  <path id="rect112809" d="M.038.038h639.924v479.925H.038Z" class="fil0" style="stroke:#fff;stroke-width:.0762004"/>
  <g id="g115413" style="stroke-width:.689691" transform="translate(-39.585)scale(1.44993)">
    <path id="path112811" d="M248 115.31c13.846 0 25.074 1.974 25.074 4.408s-11.228 4.409-25.074 4.409c-13.845 0-25.074-1.974-25.074-4.409s11.228-4.408 25.074-4.408" class="str1" style="fill:#a92926"/>
    <path id="path112813" d="M199.07 213c5.052.321.932-6.538 5.195-11.297-4.081-1.335-3.852 2.42-7.21 2.888z" class="fil2 str2"/>
    <path id="path112815" d="M307.88 143.39c1.66-2.471 5.102-3.474 2.273-6.748.998 1.108.593 2.7-.927 3.723z" class="fil3 str3"/>
    <path id="path112817" d="m297.2 156.24 9.36-.011c-.26-.836-.361-1.873-.36-3.289.003-1.253-.079-2.27-.221-3.11v0c-.419-2.49-1.376-3.408-2.32-4.217 1.35-2.443-.244-4.261 1.686-4.237 4.49.055 6.477-3.066 4.717-4.824-.83-.825-2.49-1.349-5.111-1.101l-.121.013.002-.004c-4.784.698-5.69 5.072-7.431 6.676-1.913 1.763-7.905 4.693-.455 13.732q.135.164.254.372" class="fil3 str3"/>
    <path id="path112819" d="M306.29 202.01a19.5 19.5 0 0 0 1.028-5.81c.127-5.645-.879-5.194-1.052-7.365-.142-1.773 2.958-2.407 5.079-5.513q.07-.104.138-.212l.032-.052q.064-.105.126-.214c2.257-4.022-.927-8.895-5.602-12.528v0c-.357 1.809-2.962 8.758-6.735 11.926-2.043 1.715-1.676 7.012-.79 10.415.591 2.265.395 3.036.295 5.206a12.6 12.6 0 0 1-.793 3.932z" class="fil3 str3"/>
    <path id="path112821" d="M306.04 170.31c-.351 1.798-2.958 8.761-6.736 11.933-2.043 1.715-1.676 7.012-.79 10.415.591 2.265.395 3.036.295 5.206a8 8 0 0 0 .427 3.061" class="fil4 str4"/>
    <path id="path112823" d="m257.5 235.2 7.6 9.557 3.355-11.828c.44-4.1-1.1-4.405-3.344-2.643-1.198.94-1.808-2.471-3.417-1.607-1.087.583-.061 3.26-.874 4.047-1.079 1.047-4.427-1.716-3.32 2.474" class="fil2 str2"/>
    <path id="path112825" d="M264.93 232.46c-1.67 1.18-3.003 3.176-4.093 5.76" class="fil4 str2"/>
    <path id="path112827" d="m272.38 251.84 9.984 1.342-.587 10.32c-.143 3.466-2.353 5.487-4.033 3.525-1.539-1.797-.43-4.01-2.96-3.73-3.625.4-.34-3.983-2.296-4.064-2.063-.086-2.432-.684-1.813-3.234.438-1.808 1.289-3.69 1.705-4.159" class="fil2 str2"/>
    <path id="path112829" d="m272.38 251.84 1.84-4.71c2.232.395 4.878.37 6.7 1.09 3.631 1.434 1.842 2.858 3.174 3.32 3.078 1.07 4.558 1.71 4.193 4.014-.47 2.96.826 4.647-.097 5.93-.84 1.167-2.198.222-3.836.074-.95-.086-2.755 1.253-3.8.808-1.103-.47-.364-2.816-1.006-3.378-.82-.717-2.076.795-2.9.123-.82-.669-.077-2.995-.717-4.37-.748-1.61-2.928 1.732-3.551-2.901" class="fil2 str2"/>
    <path id="path112831" d="M273.55 248.85c5.862 1.336 9.172 4.374 11.05 8.366" class="fil4 str2"/>
    <path id="polyline112833" d="m277.55 253.38.27-3.06 2.43-.01" class="fil4 str2"/>
    <path id="polyline112835" d="m280.33 256.41.21-4.4 1.95.38" class="fil4 str2"/>
    <path id="path112837" d="m315.07 196.22.829-1.93c-1.552-.623-2.758.405-.829 1.93" class="fil2 str2"/>
    <path id="path112839" d="m315.86 194.37-.76 1.753c2.219 1.034 2.925-.807.76-1.753" class="fil2 str2"/>
    <path id="path112841" d="m311.49 161.53.007-4.224c-2.951.126-4.228 3.358-.007 4.224" class="fil2 str2"/>
    <path id="path112843" d="m311.49 157.45-.006 3.914c4.596.662 5.206-4.028.006-3.914" class="fil2 str2"/>
    <path id="path112845" d="m312.3 123.25 1.872-2.221c-1.804-1.448-4.044-.085-1.872 2.221" class="fil2 str2"/>
    <path id="path112847" d="m314.08 121.13-1.709 2.016c2.52 2.259 4.195.105 1.709-2.016" class="fil2 str2"/>
    <path id="path112849" d="m322.86 234.61 18.572 5.186c.964.784.556 3.11 1.102 3.68 1.886 1.965 2.256 3.731 1.538 4.776-.491.714-2.864.325-4.71-.229-2.105-.631-3.965.12-4.706-.077-1.68-.444-1.739-2.017-3.67-3.762-1.083-.98-2.384-.009-3.297-1.56-1.547-2.628-1.518-4.334-4.83-8.014z" class="fil2 str2"/>
    <path id="path112851" d="M338.8 245.17c-3.876-3.238-9.908-7.022-15.948-10.56" class="fil4 str2"/>
    <path id="polyline112853" d="m338.35 242.27-3.41-.05.54 2.73" class="fil4 str2"/>
    <path id="polyline112855" d="m330.93 241.88.09-2.27 2.23.23" class="fil4 str2"/>
    <path id="path112857" d="m322.86 234.61.47-1.179c4.002-.157 4.93-1.648 6.846-2.893 2.757-1.79 1.756 2.145 2.91 2.193 1.323.055 2.494-2.178 3.44-2.644 2.587-1.275 1.967 2.234 3.126 2.274 1.247.043 2.055-1.346 3.631-1.406 1.134-.043.635 1.498 1.34 2.03.698.526 2.668.185 2.562 1.504-.125 1.553-2.741 1.531-3.077 2.648-.46 1.535-.15 3.512-2.556 2.005-3.439-2.154-2.797 3.618-6.188.006-2.696-2.873-4.364 1.276-5.979-.07-2.536-2.112-2.202-2.216-6.525-4.468" class="fil2 str2"/>
    <path id="path112859" d="M323.09 234.04c3.426 1.215 11.272 1.43 17.613 1.178" class="fil4 str2"/>
    <path id="polyline112861" d="m338.14 233.37-2.76 1.95 2.04 1.94" class="fil4 str2"/>
    <path id="polyline112863" d="m330.36 233.16-1.18 1.9 1.13 1.64" class="fil4 str2"/>
    <path id="path112865" d="m313.51 224.86 1.484 9.467c2.983-.02 2.846-4.925 5.398-7.229 1.103-.996 1.484-2.564.436-3.113-1.633-.856-2.969 1.978-4.933-.152-.684-.741-1.7-.872-2.385 1.027" class="fil2 str2"/>
    <path id="path112867" d="m309.73 212.08.947-1.42c3.364-.376 11.14-2.27 13.377-1.643 2.798.783.099 1.994 5.123 5.826 1.85 1.412 1.675 5.678 1.03 7.438-.805 2.199-2.643 2.097-3.049.985-1.313-3.602-3.135 1.817-3.8-2.826-.533-3.72-3.102 1.265-4.12-2.07-1.71-5.59-2.853.195-4.3-2.514-1.728-3.234-2.163-3.663-5.208-3.776" class="fil2 str2"/>
    <path id="path112869" d="M310.7 210.65c6.596-1.103 11.755 2.026 14.662 6.45" class="fil4 str2"/>
    <path id="polyline112871" d="m320.49 214.88-1.47-3.26 1.84-.08" class="fil4 str2"/>
    <path id="polyline112873" d="m316.55 213.16-.75-2.52 1.07-.45" class="fil4 str2"/>
    <path id="polyline112875" d="m324.71 214.87-2.14-.98.98 2.99" class="fil4 str2"/>
    <path id="path112877" d="M322.67 201.1c2.334-5.904.141-7.26-1.118-4.732-.726 1.455-2.888-.58-3.306 2.012-.58 3.595-2.276.308-2.168 4.925z" class="fil2 str2"/>
    <path id="path112879" d="m311.61 208.99-.9 1.689c1.366-.782 2.831-1.9 4.09-1.771 3.961.405 2.125-2.837 6.14-1.196 3.564 1.456 2.257-3.913 6.31-.045 2.142 2.046 2.889-.882 3.154-2.776.168-1.202 2.624-1.97 2.508-3.607-.163-2.28-3.91.263-4.254-2.101-.238-1.633-2.007-1.803-2.785-.546-3.322 5.369-2.883-3.492-5.733.945-2.014 3.135-4.84-1.263-4.78 3.906.034 2.958.139 2.51-3.75 5.502" class="fil2 str2"/>
    <path id="path112881" d="M311.28 209.6c7.18-3.043 8.209-7.13 15.655-6.356" class="fil4 str2"/>
    <path id="polyline112883" d="m321.46 206.4-2.36-1.47 2-2.37" class="fil4 str2"/>
    <path id="polyline112885" d="m324.88 204.15-1.06-.92.71-.31" class="fil4 str2"/>
    <path id="path112887" d="m319.92 176.35 1.817-2.305c-1.648-1.133-3.599-.133-1.817 2.305" class="fil2 str2"/>
    <path id="path112889" d="m317.6 175.87.702.51c15.442-23.11 8.627-22.136 7.88-20.656-1.745 3.453-2.631.239-3.629 2.79-1.075 2.752-2.068.31-2.298 2.73-.448 4.712-3.064.606-2.62 4.257.698 5.724.2 7.714-.035 10.369" class="fil2 str2"/>
    <path id="path112891" d="m317.6 175.87.729.473c1.438-3.436 2.462-2.96 5.032-2.689 3.747.395.714-2.8 2.727-2.664 1.317.088 1.266 1.171 3.339 1.252 2.493.098.777-3.778 1.553-4.235 1.19-.7 2.092 1.243 3.443.755 2.329-.842-1.478-2.945 1.108-3.412 2.243-.404 2.571-3.435-1.421-2.532-1.928.436-1.342-2.78-3.924-1.41-2.948 1.562-2.804-1.003-4.06.732-3.159 4.363-3.09.615-4.423 2.58-2.701 3.984-.692 5.152-4.103 11.15" class="fil2 str2"/>
    <path id="path112893" d="m321.66 174.16-1.654 2.083c2.304 1.817 3.926-.397 1.654-2.083" class="fil2 str2"/>
    <path id="path112895" d="m318.22 187.02 9.189-2.082c.208-1.192 1.02-1.776 1.336-2.46 1.938-4.201-3.365-.108-1.011-4.334 1.04-1.867-.876-2.949-1.662-1.882-3.163 4.3-3.107-1.774-4.942 1.936-1.967 3.975-3.935 4.222-2.91 8.822" class="fil2 str2"/>
    <path id="path112897" d="M325.28 179.3c-2.532 2.796-3.603 4.609-4.785 7.21" class="fil4 str2"/>
    <path id="path112899" d="m314.13 189.57.287 1.147c1.47-.126 2.28-.13 3.674.857 1.898 1.342 1.438-1.508 4.939.838 2.993 2.006 3.309-1.545 5.233-1.518 4.373.06 2.652-2.94.968-3.28-2.622-.528-.26-3.778-3.203-2.807-6.34 2.09-2.476-1.426-5.556-.354-2.513.876-2.493 4.247-6.342 5.117" class="fil2 str2"/>
    <path id="path112901" d="M314.3 190.13c5.103-1.27 7.284-2.387 13.011-1.11" class="fil4 str2"/>
    <path id="polyline112903" d="m320.8 189.28-1.64-.4 1.05-.78" class="fil4 str2"/>
    <path id="polyline112905" d="m325.27 189.34-1.25-.85 1.12-.26" class="fil4 str2"/>
    <path id="path112907" d="M296.93 213c-5.052.321-.932-6.538-5.195-11.297 4.082-1.335 3.852 2.42 7.21 2.888z" class="fil2 str2"/>
    <path id="path112909" d="m303.51 170.2.343 10.29c.906-.628 5.548-14.564-.343-10.29" class="fil2 str2"/>
    <path id="path112911" d="M330.13 164.99c-5.935 4.829-8.148 3.04-12.176 11.125" class="fil4 str2"/>
    <path id="polyline112913" d="m329.27 164.36-.79 1.88 1.53-.15" class="fil4 str2"/>
    <path id="polyline112915" d="m326.26 166.49-2.37 2.5 3.21.15" class="fil4 str2"/>
    <path id="path112917" d="m306.79 151.49 15.172-4.87c7.755 4.367 1 3.292 3.52 5.225.866.663 1.118 3.697-2.882 1.959-3.735-1.623-1.157 2.177-5.082 1.585-6.366-.96-1.975-5.53-10.728-3.899" class="fil2 str2"/>
    <path id="path112919" d="m306.17 151.78-.056-1.52c2.414-.99 4-3.614 5.375-6.501.809-1.696 1.746 1.586 4.514-3.052 1.262-2.113 1.784.198 5.49-1.653 2.533-1.265 2.538 1.679 5.823 1.225 5.294-.732 4.333 5.127.934 4.901-5.853-.39.112 5.91-5.826 4.336-8.498-2.252-.68 4.886-7.49 3.245-5.025-1.212-6.149-1.165-8.764-.981" class="fil2 str2"/>
    <path id="path112921" d="M323.94 143.2c-6.68-.394-10.87 6.32-17.791 7.815" class="fil4 str2"/>
    <path id="polyline112923" d="m321 145.06-4.26.32 1.5-2.68" class="fil4 str2"/>
    <path id="polyline112925" d="m315.31 150.22-2.84-2.06 1.18-1.5" class="fil4 str2"/>
    <path id="path112927" d="m310.91 135.26-.188-.634 9.787-4.68c.905-.198 1.984.363 2.84.276 3.069-.31 2.904-2.036 4.712-2.013 1.556.021.876 2.446 1.868 2.767 2.179.706 2.846 2.54-2.164 2.944-2.942.237-2.937 3.056-6.525 1.188-3.737-1.947-3.989-1.737-10.33.152" class="fil2 str2"/>
    <path id="path112929" d="M319.99 132.24c1.547-.066 2.214.496 5.216-.36" class="fil4 str2"/>
    <path id="path112931" d="m310.68 134.6.263.7c5.552-2.256 8.377-2.961 10.195-3.317 2.742-.537-.827-1.926 2.636-3.755 2.482-1.31-1-3.182.42-5.604.972-1.655-.708-3.619-2.157-1.738-1.894 2.458-5.12-1.301-5.265 2.283-.287 7.155-2.712 1.822-3.818 4.434-.786 1.855 1.524 4.495-2.274 6.997" class="fil2 str2"/>
    <path id="path112933" d="M310.83 134.93c9.794-5.9 6.86-7.224 10.55-11.043" class="fil4 str2"/>
    <path id="polyline112935" d="m319.46 130.79-2.37-.49.59-2.62" class="fil4 str2"/>
    <path id="polyline112937" d="m321.43 127.39-2.17-.4v-1.67" class="fil4 str2"/>
    <path id="path112939" d="m309.69 124.5.733-.282-7.715-14.327c-5.076-4.47-6.072-.71-5.075.26 1.847 1.797.107 3.46 1.87 4.109 4.18 1.54-.178 3.2 2.825 3.944 4.577 1.134 5.847-.095 7.362 6.296" class="fil2 str2"/>
    <path id="path112941" d="m309.69 124.48.732-.281c-1.763-8.637 3.445-10.396 3.769-12.58.543-3.663-3.197.027-2.577-4.572.641-4.76-3.686-.928-5.025-4.065-1.17-2.742-4.156-3.037-3.577.065.313 1.684-.982 2.393-.522 3.9 1.254 4.105-.117 6.353 1.305 8.126 3.38 4.213 4.331 4.664 5.895 9.407" class="fil2 str2"/>
    <path id="path112943" d="M310.03 124.37c-2.552-9.777-1.164-10.828-3.49-16.946" class="fil4 str2"/>
    <path id="polyline112945" d="m306.2 113.5 2.14 2.09.32-1.92" class="fil4 str2"/>
    <path id="path112947" d="M306.32 109.17c.169.056.225.169.338.225l.732.563.3-.957" class="fil4 str2"/>
    <path id="path112949" d="M304.83 135.46c-4.783.698-5.69 5.071-7.431 6.676" class="fil4 str4"/>
    <path id="path112951" d="M301.26 140.55c-.084-2.435 1.114-4.864 3.683-5.107 4.871-.461 6.426 1.743 5.502 3.592" class="fil4 str4"/>
    <path id="path112953" d="m308.31 135.92-.509.756c-2.705-1.27-3.51-1.895-8.382-1.638-2.221.117-1.026-1.885-3.445-1.833-2.69.058-1.053-1.95-2.666-3.785-1.78-2.023-.168-5.245 6.577-.429z" class="fil2 str2"/>
    <path id="path112955" d="m307.8 136.68.534-.735c-4.199-4.692-1.54-6.326-2.492-10.995-.531-2.607-1.995.698-3.283-3.254-.727-2.23-3.196-.775-4.589-1.83-1.033-.783-2.638-.177-2.132 1.811.901 3.537-1.607 4.8.948 6.27 3.519 2.027.025 3.976 2.415 4.885 4.434 1.687 5.744 1.225 8.599 3.848" class="fil2 str2"/>
    <path id="path112957" d="M298.44 122.85c2.897 5.528 4.967 9.035 9.62 13.494" class="fil4 str2"/>
    <path id="polyline112959" d="m298.58 126.32 2.8 1.87-.06-4.01" class="fil4 str2"/>
    <path id="polyline112961" d="m303.45 127.79.07 3.47-2.67-.93" class="fil4 str2"/>
    <path id="path112963" d="M310.1 141.01c1.174-1.195 1.844-2.369-.027-4.467" class="fil4 str4"/>
    <path id="path112965" d="M309.67 124.48c-.195 4.564.244 10.458-1.335 11.472l-.547.728c-.683 2.826-1.623 5.15-2.488 5.949l1.411 2.14c1.037-3.52 3.258-8.123 4.234-9.485l-.243-.667c-.654-.263.153-6.859-.304-10.44z" class="fil2 str2"/>
    <path id="polyline112967" d="m311.55 120.98-.67-.08-1.03 2.75" class="fil4 str2"/>
    <path id="line112969" d="m314.13 194.53-2.51-.62" class="fil4 str2"/>
    <path id="path112971" d="m322.68 229.14 2.71 1.496c-.877 1.527-3.53.439-2.71-1.496" class="fil2 str2"/>
    <path id="path112973" d="m325.27 230.57-2.469-1.353c1.29-3.017 3.924-1.54 2.469 1.353" class="fil2 str2"/>
    <path id="path112975" d="m308.5 233.03-4.941 1.207c-1.315 2.042-2.273 1.445-4.806 3.324-1.497 1.11-2.1 3.4-5.21 3.554-3.832.19-3.335-2.37-7.663-2.592-2.134-.11-4.277 1.259-5.128-.113-.864-1.392-1.86-1.278-3.454-1.627v3.28c1.149-.67 2.245-.709 2.554.059.963 2.391-.877 2.601-.732 4.279.264 3.038 2.4 4.004 3.656 4.134 4.516.469 6.169 1.76 7.755 3.4.504.521 4.651 3.166 7.657.894 2.214-1.672 6.494-5.197 7.638-7.527 2.643-5.39 7.098-4.707 8.801-8.913z" class="fil3 str3"/>
    <path id="path112977" d="M314.36 236.98c-1.978 3.782-12.362 12.978-16.169 15.855-3.006 2.272-7.153-.373-7.657-.894-1.586-1.639-3.24-2.931-7.755-3.4-1.256-.13-3.393-1.096-3.656-4.134-.146-1.678 1.695-1.888.732-4.28-.264-.654-1.1-.722-2.052-.313" class="fil4 str4"/>
    <path id="path112979" d="m321.79 237.77-3.084.039c.063-1.826 2.894-2.616 3.084-.039" class="fil2 str2"/>
    <path id="path112981" d="m318.83 237.81 2.829-.042c.474 3.544-3.093 3.894-2.829.042" class="fil2 str2"/>
    <path id="path112983" d="m323.3 233.43-7.894-1.193q-.053.664-.15 1.428l7.584.948z" class="fil2 str2"/>
    <path id="line112985" d="m323.36 231.18-1.7 1.99" class="fil4 str2"/>
    <path id="path112987" d="m286.77 246.04 3.986-.175c-.22-2.3-3.307-4.95-3.986.175" class="fil2 str2"/>
    <path id="path112989" d="M286.82 241.02c.74.5 1.23 1.134 1.58 2.086" class="fil4 str2"/>
    <path id="line112991" d="m320.42 236.12-.08-1.83" class="fil4 str2"/>
    <path id="path112993" d="m290.62 245.88-3.693.162c-.595 4.51 4.024 4.74 3.693-.162" class="fil2 str2"/>
    <path id="path112995" d="M298.01 201.8c-.662 1.782-1.533 3.066-1.81 4.72-.89 5.29-.265 10.044 2.749 12.955 1.38 1.416 3.474 2.374 4.004 2.917 2.658 2.727 1.657 10.218.606 11.85l4.941-1.207 6.127 3.36a9 9 0 0 0 .548-2.134c.16-1.126.25-2.09.284-2.926.23-5.85-2.402-5.417-4.71-10.12-.963-1.963.691-4.95-2.563-8.739-.928-1.081-1.943-1.525-2.877-2.026.572-3.593-2.27-3.394-1.339-4.337.904-.915 1.716-2.364 2.314-4.098z" class="fil3 str3"/>
    <path id="path112997" d="M309.85 185.04c-1.834 1.717-3.702 2.407-3.59 3.792.173 2.17 1.178 1.72 1.051 7.364-.092 4.114-1.534 8.079-3.341 9.908-.932.943 1.91.745 1.338 4.338" class="fil4 str4"/>
    <path id="path112999" d="M309.22 140.37c-.912.615-2.226 1.025-3.88 1.005-1.93-.024-.337 1.794-1.687 4.238.944.809 1.901 1.727 2.321 4.216 2.212-1.36.227-3.944 1.9-6.435z" class="fil3 str3"/>
    <path id="path113001" d="M299.18 219.68c-3.207-2.888-3.885-7.747-2.974-13.166.445-2.646 2.407-4.345 2.605-8.651" class="fil4 str4"/>
    <path id="line113003" d="m303.79 206.46-1.3.42" class="fil4 str4"/>
    <path id="path113005" d="M308.7 197.19c-6.041 6.421-10.327.693-19.399 4.768 8.015-2.877 3.127-11.943 19.07-7.892z" class="fil2 str2"/>
    <path id="path113007" d="M295.06 198.95a30.7 30.7 0 0 1 6.953-4.076" class="fil4 str2"/>
    <path id="path113009" d="M311.43 206.84c-.055.55-1.982 2.892-3.772 5.09q.267.242.526.542.424.497.745.975l.8-1.361.967-1.415.91-1.7 1.154-.85c4.022-3.348-5.966-13.547 1.644-17.417l-.263-1.139c-1.228.424-3.587 3.513-2.146-1.27.983-3.264 3.708-5.826 6.35-11.957l-.744-.482c-2.437 3.983-5.602 9.62-6.412 8.772l-.145-.898-1.245 1.361.102.647-.797-.684-.718 1.074c1.786 2.621 1.396 4.89 1.22 7.385l3.154 10.038-.039 3.193z" class="fil2 str2"/>
    <path id="path113011" d="M299.23 200.92c.642 1.889 1.768 3.296 1.79 6.215.039 5.002-3.78 5.683-3.306 10.026.298 2.728 4.46 4.422 5.239 5.221 2.657 2.727 1.657 10.218.606 11.85" class="fil4 str4"/>
    <path id="path113013" d="M301.59 205.58c.463-.066.661.267.809.927.983 4.39 3.621 3.447 5.786 5.968 3.254 3.789 1.6 6.776 2.562 8.738 2.639 5.375 5.7 4.041 4.427 13.046-.158 1.118-.441 1.998-.818 2.719" class="fil4 str4"/>
    <path id="path113015" d="M305.98 149.82c2.212-1.36.227-3.943 1.9-6.434.629-.937 1.515-1.662 2.22-2.379" class="fil4 str4"/>
    <path id="path113017" d="M310.45 139.04c-.632 1.265-2.424 2.365-5.108 2.332-1.93-.024-.342 1.79-1.691 4.234" class="fil4 str4"/>
    <path id="path113019" d="M311.43 206.85c.436.93 1.295.64 1.758-.14-.325-4.399-1.677-7.87-3.258-12.48-.997-2.908-3.231.161-3.957-6.685-.417-3.924-2.294.852-6.147-4.584-1.513-2.134-4.666-1.205-4.044.288 2.09 5.011-3.257 4.224.677 6.575 5.389 3.22-.715 5.745 4.855 6.283 10.81 1.044 9.947 7.43 10.116 10.743" class="fil2 str2"/>
    <path id="path113021" d="M305.98 183.3c-3.075-.983-8.25.449-25.11-6.513 18.67-4.446 17.695-3.093 25.11 6.513" class="fil2 str2"/>
    <path id="path113023" d="m308.41 186.1.7-1.051c-3.302-3.162-4.362-3.396-4.594-6.956-.169-2.602.92-6.17.18-7.915-2.657-6.278-2.885 3.868-4.806-2.133-1.425-4.452-2.522-5.47-4.332-4.16-.841.61-.935 2.793.317 5.535 2.176 4.765-2.93 2.531.41 6.55 3.14 3.78 8.926 5.943 12.125 10.13" class="fil2 str2"/>
    <path id="path113025" d="M300.18 173.53c1.427 5.953 4.891 8.51 8.575 12.047" class="fil4 str2"/>
    <path id="path113027" d="M311.49 198.86c-3.368-8.382-5.84-.446-13.007-14.428" class="fil4 str2"/>
    <path id="polyline113029" d="m297.55 187.56 2.89.39.05-1" class="fil4 str2"/>
    <path id="polyline113031" d="m300.88 192.06 3.06.17-1.28-2.72" class="fil4 str2"/>
    <path id="path113033" d="M188.12 143.39c-1.66-2.471-5.102-3.474-2.273-6.748-.998 1.108-.593 2.7.927 3.723z" class="fil3 str3"/>
    <path id="path113035" d="m198.8 156.24-9.36-.011c.26-.836.361-1.873.36-3.289-.003-1.253.079-2.27.221-3.11v0c.419-2.49 1.376-3.408 2.32-4.217-1.35-2.443.244-4.261-1.686-4.237-4.49.055-6.477-3.066-4.717-4.824.83-.825 2.49-1.349 5.111-1.101l.121.013-.002-.004c4.784.698 5.69 5.072 7.431 6.676 1.913 1.763 7.905 4.693.455 13.732q-.135.164-.254.372" class="fil3 str3"/>
    <path id="path113037" d="M189.71 202.01a19.5 19.5 0 0 1-1.028-5.81c-.127-5.645.879-5.194 1.052-7.365.142-1.773-2.958-2.407-5.079-5.513a7 7 0 0 1-.138-.212l-.032-.052a7 7 0 0 1-.126-.214c-2.257-4.022.927-8.895 5.602-12.528v0c.357 1.809 2.962 8.758 6.735 11.926 2.043 1.715 1.676 7.012.79 10.415-.591 2.265-.395 3.036-.296 5.206.075 1.615.397 2.863.794 3.932z" class="fil3 str3"/>
    <path id="path113039" d="M189.96 170.31c.352 1.798 2.958 8.761 6.736 11.933 2.043 1.715 1.676 7.012.79 10.415-.591 2.265-.395 3.036-.295 5.206a8 8 0 0 1-.427 3.061" class="fil4 str4"/>
    <path id="path113041" d="m238.5 235.2-7.6 9.557-3.355-11.828c-.44-4.1 1.1-4.405 3.344-2.643 1.198.94 1.808-2.471 3.417-1.607 1.087.583.061 3.26.874 4.047 1.079 1.047 4.427-1.716 3.32 2.474" class="fil2 str2"/>
    <path id="path113043" d="m223.63 251.84-9.984 1.342.587 10.32c.143 3.466 2.353 5.487 4.033 3.525 1.539-1.797.43-4.01 2.96-3.73 3.625.4.34-3.983 2.296-4.064 2.063-.086 2.431-.684 1.813-3.234-.438-1.808-1.289-3.69-1.705-4.159" class="fil2 str2"/>
    <path id="path113045" d="m223.62 251.84-1.84-4.71c-2.232.395-4.878.37-6.7 1.09-3.631 1.434-1.842 2.858-3.174 3.32-3.078 1.07-4.558 1.71-4.193 4.014.47 2.96-.826 4.647.097 5.93.84 1.167 2.197.222 3.836.074.95-.086 2.755 1.253 3.8.808 1.103-.47.364-2.816 1.006-3.378.82-.717 2.076.795 2.9.123.82-.669.077-2.995.717-4.37.748-1.61 2.928 1.732 3.551-2.901" class="fil2 str2"/>
    <path id="path113047" d="M222.45 248.85c-5.862 1.336-9.172 4.374-11.05 8.366" class="fil4 str2"/>
    <path id="polyline113049" d="m218.45 253.38-.27-3.06-2.43-.01" class="fil4 str2"/>
    <path id="polyline113051" d="m215.67 256.41-.21-4.4-1.95.38" class="fil4 str2"/>
    <path id="path113053" d="M231.07 232.46c1.67 1.18 3.003 3.176 4.093 5.76" class="fil4 str2"/>
    <path id="path113055" d="m180.93 196.22-.829-1.93c1.552-.623 2.758.405.829 1.93" class="fil2 str2"/>
    <path id="path113057" d="m180.14 194.37.76 1.753c-2.219 1.034-2.926-.807-.76-1.753" class="fil2 str2"/>
    <path id="path113059" d="m184.51 161.53-.007-4.224c2.951.126 4.228 3.358.007 4.224" class="fil2 str2"/>
    <path id="path113061" d="m184.51 157.45.006 3.914c-4.596.662-5.206-4.028-.006-3.914" class="fil2 str2"/>
    <path id="path113063" d="m183.71 123.25-1.872-2.221c1.804-1.448 4.044-.085 1.872 2.221" class="fil2 str2"/>
    <path id="path113065" d="m181.92 121.13 1.709 2.016c-2.52 2.259-4.195.105-1.709-2.016" class="fil2 str2"/>
    <path id="path113067" d="m173.14 234.61-18.572 5.186c-.964.784-.556 3.11-1.102 3.68-1.886 1.965-2.256 3.731-1.538 4.776.491.714 2.864.325 4.71-.229 2.105-.631 3.965.12 4.706-.077 1.68-.444 1.739-2.017 3.67-3.762 1.083-.98 2.384-.009 3.297-1.56 1.547-2.628 1.518-4.334 4.83-8.014z" class="fil2 str2"/>
    <path id="path113069" d="M157.2 245.17c3.877-3.238 9.908-7.022 15.948-10.56" class="fil4 str2"/>
    <path id="polyline113071" d="m157.65 242.27 3.41-.05-.54 2.73" class="fil4 str2"/>
    <path id="polyline113073" d="m165.07 241.88-.09-2.27-2.23.23" class="fil4 str2"/>
    <path id="path113075" d="m173.14 234.61-.47-1.179c-4.002-.157-4.93-1.648-6.846-2.893-2.757-1.79-1.756 2.145-2.91 2.193-1.323.055-2.494-2.178-3.44-2.644-2.587-1.275-1.967 2.234-3.126 2.274-1.247.043-2.055-1.346-3.631-1.406-1.134-.043-.635 1.498-1.34 2.03-.698.526-2.668.185-2.562 1.504.125 1.553 2.741 1.531 3.077 2.648.46 1.535.15 3.512 2.556 2.005 3.439-2.154 2.797 3.618 6.188.006 2.697-2.873 4.364 1.276 5.979-.07 2.536-2.112 2.202-2.216 6.525-4.468" class="fil2 str2"/>
    <path id="path113077" d="M172.91 234.04c-3.426 1.215-11.272 1.43-17.613 1.178" class="fil4 str2"/>
    <path id="polyline113079" d="m157.86 233.37 2.76 1.95-2.04 1.94" class="fil4 str2"/>
    <path id="polyline113081" d="m165.64 233.16 1.18 1.9-1.13 1.64" class="fil4 str2"/>
    <path id="path113083" d="m182.49 224.86-1.484 9.467c-2.983-.02-2.846-4.925-5.398-7.229-1.103-.996-1.484-2.564-.436-3.113 1.633-.856 2.969 1.978 4.933-.152.684-.741 1.7-.872 2.385 1.027" class="fil2 str2"/>
    <path id="path113085" d="m186.27 212.08-.947-1.42c-3.364-.376-11.14-2.27-13.377-1.643-2.798.783-.099 1.994-5.123 5.826-1.85 1.412-1.675 5.678-1.03 7.438.805 2.199 2.643 2.097 3.049.985 1.313-3.602 3.135 1.817 3.8-2.826.534-3.72 3.102 1.265 4.12-2.07 1.71-5.59 2.853.195 4.3-2.514 1.728-3.234 2.163-3.663 5.208-3.776" class="fil2 str2"/>
    <path id="path113087" d="M185.3 210.65c-6.596-1.103-11.755 2.026-14.662 6.45" class="fil4 str2"/>
    <path id="polyline113089" d="m175.51 214.88 1.47-3.26-1.84-.08" class="fil4 str2"/>
    <path id="polyline113091" d="m179.45 213.16.76-2.52-1.08-.45" class="fil4 str2"/>
    <path id="polyline113093" d="m171.29 214.87 2.14-.98-.98 2.99" class="fil4 str2"/>
    <path id="path113095" d="M173.33 201.1c-2.334-5.904-.141-7.26 1.119-4.732.725 1.455 2.887-.58 3.305 2.012.58 3.595 2.276.308 2.168 4.925z" class="fil2 str2"/>
    <path id="path113097" d="m184.39 208.99.9 1.689c-1.366-.782-2.831-1.9-4.09-1.771-3.961.405-2.125-2.837-6.14-1.196-3.564 1.456-2.257-3.913-6.31-.045-2.142 2.046-2.889-.882-3.154-2.776-.168-1.202-2.624-1.97-2.508-3.607.163-2.28 3.91.263 4.254-2.101.238-1.633 2.007-1.803 2.785-.546 3.322 5.369 2.883-3.492 5.733.945 2.014 3.135 4.84-1.263 4.78 3.906-.034 2.958-.139 2.51 3.75 5.502" class="fil2 str2"/>
    <path id="path113099" d="M184.72 209.6c-7.18-3.043-8.209-7.13-15.655-6.356" class="fil4 str2"/>
    <path id="polyline113101" d="m174.54 206.4 2.36-1.47-2-2.37" class="fil4 str2"/>
    <path id="polyline113103" d="m171.12 204.15 1.06-.92-.71-.31" class="fil4 str2"/>
    <path id="path113105" d="m176.08 176.35-1.817-2.305c1.648-1.133 3.599-.133 1.817 2.305" class="fil2 str2"/>
    <path id="path113107" d="m178.4 175.87-.702.51c-15.442-23.11-8.627-22.136-7.88-20.656 1.745 3.453 2.631.239 3.629 2.79 1.075 2.752 2.068.31 2.298 2.73.448 4.712 3.064.606 2.62 4.257-.698 5.724-.2 7.714.035 10.369" class="fil2 str2"/>
    <path id="path113109" d="m178.4 175.87-.729.473c-1.438-3.436-2.462-2.96-5.032-2.689-3.747.395-.714-2.8-2.727-2.664-1.317.088-1.266 1.171-3.339 1.252-2.493.098-.777-3.778-1.553-4.235-1.19-.7-2.092 1.243-3.443.755-2.329-.842 1.478-2.945-1.108-3.412-2.243-.404-2.571-3.435 1.421-2.532 1.928.436 1.342-2.78 3.924-1.41 2.948 1.562 2.804-1.003 4.06.732 3.159 4.363 3.09.615 4.423 2.58 2.701 3.984.692 5.152 4.103 11.15" class="fil2 str2"/>
    <path id="path113111" d="m174.34 174.16 1.654 2.083c-2.304 1.817-3.926-.397-1.654-2.083" class="fil2 str2"/>
    <path id="path113113" d="m177.78 187.02-9.189-2.082c-.208-1.192-1.02-1.776-1.335-2.46-1.94-4.201 3.364-.108 1.01-4.334-1.04-1.867.876-2.949 1.662-1.882 3.163 4.3 3.107-1.774 4.943 1.936 1.966 3.975 3.935 4.222 2.909 8.822" class="fil2 str2"/>
    <path id="path113115" d="M170.72 179.3c2.532 2.796 3.603 4.609 4.785 7.21" class="fil4 str2"/>
    <path id="path113117" d="m181.87 189.57-.287 1.147c-1.47-.126-2.28-.13-3.674.857-1.898 1.342-1.438-1.508-4.939.838-2.993 2.006-3.309-1.545-5.232-1.518-4.374.06-2.653-2.94-.968-3.28 2.62-.528.26-3.778 3.202-2.807 6.34 2.09 2.476-1.426 5.556-.354 2.514.876 2.493 4.247 6.342 5.117" class="fil2 str2"/>
    <path id="path113119" d="M181.7 190.13c-5.103-1.27-7.284-2.387-13.011-1.11" class="fil4 str2"/>
    <path id="polyline113121" d="m175.2 189.28 1.64-.4-1.05-.78" class="fil4 str2"/>
    <path id="polyline113123" d="m170.73 189.34 1.25-.85-1.12-.26" class="fil4 str2"/>
    <path id="path113125" d="M165.87 164.99c5.935 4.829 8.148 3.04 12.176 11.125" class="fil4 str2"/>
    <path id="polyline113127" d="m166.73 164.36.79 1.88-1.53-.15" class="fil4 str2"/>
    <path id="polyline113129" d="m169.74 166.49 2.37 2.5-3.21.15" class="fil4 str2"/>
    <path id="path113131" d="m189.21 151.49-15.172-4.87c-7.754 4.367-1 3.292-3.52 5.225-.866.663-1.118 3.697 2.883 1.959 3.734-1.623 1.156 2.177 5.081 1.585 6.366-.96 1.975-5.53 10.728-3.899" class="fil2 str2"/>
    <path id="path113133" d="m189.83 151.78.056-1.52c-2.414-.99-4-3.614-5.375-6.501-.809-1.696-1.746 1.586-4.514-3.052-1.262-2.113-1.784.198-5.49-1.653-2.533-1.265-2.538 1.679-5.823 1.225-5.294-.732-4.333 5.127-.934 4.901 5.853-.39-.112 5.91 5.826 4.336 8.498-2.252.68 4.886 7.49 3.245 5.025-1.212 6.149-1.165 8.764-.981" class="fil2 str2"/>
    <path id="path113135" d="M172.06 143.2c6.68-.394 10.87 6.32 17.791 7.815" class="fil4 str2"/>
    <path id="polyline113137" d="m175 145.06 4.26.32-1.5-2.68" class="fil4 str2"/>
    <path id="polyline113139" d="m180.69 150.22 2.84-2.06-1.18-1.5" class="fil4 str2"/>
    <path id="path113141" d="m185.09 135.26.188-.634-9.786-4.68c-.906-.198-1.985.363-2.84.276-3.07-.31-2.905-2.036-4.713-2.013-1.556.021-.876 2.446-1.868 2.767-2.179.706-2.846 2.54 2.164 2.944 2.942.237 2.937 3.056 6.525 1.188 3.737-1.947 3.989-1.737 10.33.152" class="fil2 str2"/>
    <path id="path113143" d="M176.01 132.24c-1.546-.066-2.213.496-5.215-.36" class="fil4 str2"/>
    <path id="path113145" d="m185.32 134.6-.263.7c-5.552-2.256-8.377-2.961-10.195-3.317-2.742-.537.827-1.926-2.636-3.755-2.482-1.31 1-3.182-.42-5.604-.972-1.655.708-3.619 2.157-1.738 1.894 2.458 5.12-1.301 5.265 2.283.287 7.155 2.712 1.822 3.818 4.434.786 1.855-1.524 4.495 2.274 6.997" class="fil2 str2"/>
    <path id="path113147" d="M185.17 134.93c-9.794-5.9-6.86-7.224-10.55-11.043" class="fil4 str2"/>
    <path id="polyline113149" d="m176.54 130.79 2.37-.49-.59-2.62" class="fil4 str2"/>
    <path id="polyline113151" d="m174.57 127.39 2.17-.4v-1.67" class="fil4 str2"/>
    <path id="path113153" d="m186.31 124.5-.733-.282 7.715-14.327c5.076-4.47 6.072-.71 5.074.26-1.846 1.797-.106 3.46-1.869 4.109-4.18 1.54.178 3.2-2.825 3.944-4.577 1.134-5.846-.095-7.362 6.296" class="fil2 str2"/>
    <path id="path113155" d="m186.31 124.48-.732-.281c1.763-8.637-3.445-10.396-3.769-12.58-.542-3.663 3.197.027 2.577-4.572-.641-4.76 3.686-.928 5.025-4.065 1.17-2.742 4.156-3.037 3.577.065-.313 1.684.982 2.393.522 3.9-1.254 4.105.117 6.353-1.305 8.126-3.38 4.213-4.331 4.664-5.895 9.407" class="fil2 str2"/>
    <path id="path113157" d="M185.97 124.37c2.552-9.777 1.164-10.828 3.49-16.946" class="fil4 str2"/>
    <path id="polyline113159" d="m189.8 113.5-2.14 2.09-.32-1.92" class="fil4 str2"/>
    <path id="path113161" d="M189.68 109.17c-.169.056-.225.169-.338.225l-.732.563-.3-.957" class="fil4 str2"/>
    <path id="path113163" d="M191.17 135.46c4.784.698 5.69 5.071 7.431 6.676" class="fil4 str4"/>
    <path id="path113165" d="M194.74 140.55c.084-2.435-1.114-4.864-3.683-5.107-4.871-.461-6.426 1.743-5.502 3.592" class="fil4 str4"/>
    <path id="path113167" d="m187.69 135.92.509.756c2.705-1.27 3.51-1.895 8.382-1.638 2.221.117 1.026-1.885 3.446-1.833 2.689.058 1.052-1.95 2.665-3.785 1.78-2.023.168-5.245-6.577-.429z" class="fil2 str2"/>
    <path id="path113169" d="m188.2 136.68-.534-.735c4.199-4.692 1.54-6.326 2.492-10.995.531-2.607 1.995.698 3.284-3.254.726-2.23 3.195-.775 4.588-1.83 1.033-.783 2.638-.177 2.132 1.811-.901 3.537 1.607 4.8-.948 6.27-3.519 2.027-.025 3.976-2.415 4.885-4.434 1.687-5.744 1.225-8.599 3.848" class="fil2 str2"/>
    <path id="path113171" d="M197.56 122.85c-2.897 5.528-4.967 9.035-9.62 13.494" class="fil4 str2"/>
    <path id="polyline113173" d="m197.42 126.32-2.8 1.87.06-4.01" class="fil4 str2"/>
    <path id="polyline113175" d="m192.55 127.79-.07 3.47 2.67-.93" class="fil4 str2"/>
    <path id="path113177" d="M185.9 141.01c-1.174-1.195-1.844-2.369.027-4.467" class="fil4 str4"/>
    <path id="path113179" d="M186.33 124.48c.195 4.564-.244 10.458 1.335 11.472l.547.728c.683 2.826 1.623 5.15 2.488 5.949l-1.411 2.14c-1.037-3.52-3.258-8.123-4.234-9.485l.243-.667c.654-.263-.153-6.859.304-10.44z" class="fil2 str2"/>
    <path id="polyline113181" d="m184.45 120.98.67-.08 1.03 2.75" class="fil4 str2"/>
    <path id="line113183" d="m181.87 194.53 2.51-.62" class="fil4 str2"/>
    <path id="path113185" d="m173.32 229.14-2.71 1.496c.877 1.527 3.53.439 2.71-1.496" class="fil2 str2"/>
    <path id="path113187" d="m170.73 230.57 2.469-1.353c-1.29-3.017-3.924-1.54-2.469 1.353" class="fil2 str2"/>
    <path id="path113189" d="M218.7 236.78c1.301-.285 3-.88 5.35-2.858 2.637-2.22 4.66-.09 5.565 1.33 1.668 2.618.386 4.703 1.654 6.978l.058.128q.045-.134.081-.268c.879-3.274.719-7.275 5.204-7.026 5.073.282 3.726 3.175 11.388 3.206 7.662-.031 6.315-2.924 11.389-3.206 4.485-.249 4.325 3.752 5.204 7.026q.037.135.081.268l.058-.128c1.268-2.275-.014-4.36 1.654-6.978.904-1.42 2.928-3.55 5.565-1.33 2.35 1.978 4.048 2.573 5.35 2.858v3.28c-1.463.855-3.01 2.734-3.128 5.283-.13 2.82.101 6.368-5.548 9.043-2.463 1.167-4.607 1.692-7.343.796-1.148-.376-2.066-1.565-2.103-2.59v0-.025l-.001-.058c-.017-1.41-.46-3.413-.905-3.984v0c-2.59.374-6.851.699-10.149.714v.001h-.248v0c-3.297-.016-7.558-.34-10.15-.716v0c-.444.572-.887 2.576-.904 3.985v.083c-.038 1.025-.956 2.214-2.104 2.59-2.736.896-4.88.37-7.343-.796-5.65-2.675-5.418-6.223-5.548-9.043-.117-2.549-1.665-4.428-3.128-5.282z" class="fil3 str3"/>
    <path id="path113191" d="M303.56 234.24c-7.173 8.702-10.505 4.653-17.678 4.285-2.134-.109-4.277 1.26-5.128-.112-1.57-2.53-3.577-.085-8.804-4.486" class="fil4 str4"/>
    <path id="path113193" d="m187.5 233.03 4.942 1.207c1.313 2.042 2.272 1.445 4.805 3.324 1.497 1.11 2.1 3.4 5.21 3.554 3.832.19 3.335-2.37 7.663-2.592 2.134-.11 4.277 1.259 5.128-.113.864-1.392 1.86-1.278 3.454-1.627v3.28c-1.149-.67-2.245-.709-2.554.059-.963 2.391.877 2.601.732 4.279-.263 3.038-2.4 4.004-3.656 4.134-4.516.469-6.169 1.76-7.755 3.4-.504.521-4.651 3.166-7.657.894-2.213-1.672-6.494-5.197-7.638-7.527-2.643-5.39-7.098-4.707-8.801-8.913z" class="fil3 str3"/>
    <path id="path113195" d="M181.64 236.98c1.978 3.782 12.362 12.978 16.169 15.855 3.006 2.272 7.153-.373 7.658-.894 1.585-1.639 3.238-2.931 7.754-3.4 1.256-.13 3.393-1.096 3.656-4.134.146-1.678-1.695-1.888-.732-4.28.264-.654 1.1-.722 2.052-.313" class="fil4 str4"/>
    <path id="path113197" d="M192.44 234.24c7.173 8.702 10.505 4.653 17.678 4.285 2.134-.109 4.277 1.26 5.128-.112 1.57-2.53 3.577-.085 8.804-4.486" class="fil4 str4"/>
    <path id="path113199" d="m205.38 240.42-1.927-1.927-14.28 4.03c-.844 1.403-.734 2.956-1.6 4.379-2.003 3.29 1.091.79.386 2.766-.742 2.081-.435 4.581 1.488 3.128 2.338-1.766 2.717.261 3.99-.067 1.483-.381.953-1.95 1.876-3.179.506-.673 3.718-.002 4.417-1.249 1.142-2.04.827-2.217 2.767-3.7 1.111-.85.319-2.738 2.883-4.181" class="fil2 str2"/>
    <path id="path113201" d="m174.21 237.77 3.084.039c-.063-1.826-2.894-2.616-3.084-.039" class="fil2 str2"/>
    <path id="path113203" d="m177.17 237.81-2.829-.042c-.474 3.544 3.093 3.894 2.829.042" class="fil2 str2"/>
    <path id="path113205" d="m172.7 233.43 7.894-1.193q.053.664.15 1.428l-7.584.948z" class="fil2 str2"/>
    <path id="line113207" d="m172.64 231.18 1.7 1.99" class="fil4 str2"/>
    <path id="path113209" d="m209.23 246.04-3.986-.175c.22-2.3 3.307-4.95 3.986.175" class="fil2 str2"/>
    <path id="path113211" d="M209.18 241.02c-.74.5-1.23 1.134-1.58 2.086" class="fil4 str2"/>
    <path id="path113213" d="M191.79 248.62c3.334-4.439 7.332-6.039 12.64-9.141" class="fil4 str2"/>
    <path id="line113215" d="m175.58 236.12.08-1.83" class="fil4 str2"/>
    <path id="line113217" d="m200.65 241.61-.39 2.46" class="fil4 str2"/>
    <path id="path113219" d="m205.38 245.88 3.693.162c.595 4.51-4.024 4.74-3.693-.162" class="fil2 str2"/>
    <path id="path113221" d="M218.87 240.77c-1.143-.173-2.073-.825-2.716-2.285l-1.138.175 1.056 1.877q-3.44-.033-4.035-2.402h-1.489c1.012 2.602-8.334-2.71-9.215-7.604l-.614-.684c-3.335-1.356-5.694-5.155-7.356-7.72a2.4 2.4 0 0 0-.314.257c-.418.429-.745.976-.996 1.599 3.321 5.428 8.159 6.9-.525 6.95a16 16 0 0 0 .304 1.635c5.951-.205 6.46-1.627 7.733.051 1.206 1.591 5.357 5.886 3.93 5.854l1.868 1.938c1.593-.681 2.419.176 3.814.607 5.675 1.754 9.202 2.075 12.2 2.213a6.66 6.66 0 0 0-1.681-2.434z" class="fil2 str2"/>
    <path id="path113223" d="M197.99 201.8c.662 1.782 1.533 3.066 1.81 4.72.89 5.29.265 10.044-2.749 12.955-1.38 1.416-3.474 2.374-4.004 2.917-2.657 2.727-1.657 10.218-.606 11.85l-4.941-1.207-6.127 3.36a9 9 0 0 1-.548-2.134 29 29 0 0 1-.284-2.926c-.23-5.85 2.402-5.417 4.71-10.12.963-1.963-.691-4.95 2.563-8.739.928-1.081 1.943-1.525 2.878-2.026-.573-3.593 2.27-3.394 1.338-4.337-.904-.915-1.716-2.364-2.314-4.098z" class="fil3 str3"/>
    <path id="path113225" d="M186.15 185.04c1.834 1.717 3.702 2.407 3.59 3.792-.173 2.17-1.178 1.72-1.051 7.364.093 4.114 1.534 8.079 3.341 9.908.932.943-1.91.745-1.338 4.338" class="fil4 str4"/>
    <path id="path113227" d="M216.18 238.46c.942-3.323 3.903-3.092 4.167-4.928.36-2.499-1.742-1.44-1.815-3.175-.088-2.082 2.687-2.137 1.825-6.032l-12.844-2.314 7.459 16.67z" class="fil2 str2"/>
    <path id="path113229" d="M212.03 238.14c.313-2.71 4.728-2.431 4.605-4.412-.139-2.223-3.873-1.249-4.049-3.527-.149-1.927 2.24-2.709.983-5.492l-5.831-2.25c-4.497 1.159-5.129 3.323-1.1 7.716.938 1.024-2.223 1.59-1.576 3.047.645 1.456 2.876-.75 5.479 4.918z" class="fil2 str2"/>
    <path id="path113231" d="M211.28 238.12a77 77 0 0 0-2.683-12.387" class="fil4 str2"/>
    <path id="path113233" d="m203.45 238.49 1.278 1.278c-4.034.668-4.168 1.484-6.698 4.175-3.52 3.744-2.977-3.564-5.112-1.176-1.437 1.608-1.314 4.971-3.561 4.95-2.222-.022-.186-5.197-2.39-3.75-1.92 1.26-3.195 3.794-4.886 3.481-1.38-.255-1.722-3.97-.421-5.376 1.772-1.914-1.807-1.362-.376-3.84.503-.872 3.466-.397 4.634-1.015 1.126-.596-.747-3.166 1.88-3.376 2.64-.211 2.25 2.273 3.859 2.356 1.472.076 2.215-2.42 4.918-.103 3.39 2.907 4.333 1.99 6.875 2.396" class="fil2 str2"/>
    <path id="path113235" d="M203.46 238.46q-13.902-1.676-19.523 4.141" class="fil4 str2"/>
    <path id="path113237" d="M187.88 236.88c1.38.394 2.76 1.183 4.043 1.676l-2.071 3.747" class="fil4 str2"/>
    <path id="polyline113239" d="m194.68 237.08 1.48 1.08-.59 2.55" class="fil4 str2"/>
    <path id="path113241" d="M186.78 140.37c.912.615 2.227 1.025 3.88 1.005 1.93-.024.337 1.794 1.687 4.238-.944.809-1.902 1.727-2.321 4.216-2.212-1.36-.227-3.944-1.9-6.435z" class="fil3 str3"/>
    <path id="path113243" d="M218.2 239.81c1.587.682 3.5 2.694 3.63 5.537.13 2.82-.1 6.368 5.548 9.044 2.463 1.166 4.607 1.692 7.343.795 1.868-.612 3.13-3.377.97-4.087-.91-.3-2.243-.117-3.7-.838-1.58-.781-1.716-2.827-1.15-3.313 1.203-1.03 2.687.585 5.123 1.25" class="fil4 str4"/>
    <path id="path113245" d="M224.05 233.92c2.637-2.22 4.66-.09 5.565 1.33 1.668 2.619.386 4.703 1.654 6.978" class="fil4 str4"/>
    <path id="path113247" d="M196.82 219.68c3.207-2.888 3.885-7.747 2.974-13.166-.445-2.646-2.407-4.345-2.605-8.651" class="fil4 str4"/>
    <path id="path113249" d="M233.98 250.83c-9.652-1.203-3.554-5.087-2.575-8.735.878-3.275.718-7.275 5.203-7.026 5.101.283 3.586 3.205 11.388 3.205 7.803 0 6.288-2.922 11.39-3.205 4.484-.25 4.325 3.751 5.203 7.026.979 3.648 7.077 7.532-2.575 8.735" class="fil4 str4"/>
    <path id="path113251" d="M236.82 252.6c0-1.412.451-3.485.905-4.067" class="fil4 str4"/>
    <path id="line113253" d="m192.21 206.46 1.3.42" class="fil4 str4"/>
    <path id="path113255" d="M187.3 197.19c6.041 6.421 10.327.693 19.399 4.768-8.015-2.877-3.127-11.943-19.07-7.892z" class="fil2 str2"/>
    <path id="path113257" d="M200.94 198.95a30.7 30.7 0 0 0-6.953-4.076" class="fil4 str2"/>
    <path id="path113259" d="M184.57 206.84c.055.55 1.982 2.892 3.772 5.09q-.267.242-.526.542c-.285.332-.53.656-.745.975l-.8-1.361-.967-1.415-.91-1.7-1.154-.85c-4.022-3.348 5.966-13.547-1.644-17.417l.263-1.139c1.227.424 3.587 3.513 2.146-1.27-.983-3.264-3.708-5.826-6.35-11.957l.744-.482c2.437 3.983 5.602 9.62 6.412 8.772l.145-.898 1.245 1.361-.102.647.797-.684.718 1.074c-1.786 2.621-1.396 4.89-1.22 7.385l-3.154 10.038.039 3.193z" class="fil2 str2"/>
    <path id="path113261" d="M196.77 200.92c-.642 1.889-1.768 3.296-1.79 6.215-.038 5.002 3.78 5.683 3.306 10.026-.298 2.728-4.46 4.422-5.239 5.221-2.657 2.727-1.657 10.218-.606 11.85" class="fil4 str4"/>
    <path id="path113263" d="M194.41 205.58c-.463-.066-.661.267-.809.927-.983 4.39-3.621 3.447-5.786 5.968-3.254 3.789-1.6 6.776-2.562 8.738-2.639 5.375-5.7 4.041-4.427 13.046.158 1.118.441 1.998.818 2.719" class="fil4 str4"/>
    <path id="path113265" d="M190.02 149.82c-2.212-1.36-.227-3.943-1.9-6.434-.629-.937-1.515-1.662-2.22-2.379" class="fil4 str4"/>
    <path id="path113267" d="M185.55 139.04c.632 1.265 2.424 2.365 5.108 2.332 1.93-.024.342 1.79 1.691 4.234" class="fil4 str4"/>
    <path id="path113269" d="M184.57 206.85c-.435.93-1.295.64-1.757-.14.324-4.399 1.676-7.87 3.257-12.48.997-2.908 3.231.161 3.957-6.685.417-3.924 2.294.852 6.147-4.584 1.513-2.134 4.666-1.205 4.044.288-2.09 5.011 3.258 4.224-.677 6.575-5.388 3.22.715 5.745-4.855 6.283-10.81 1.044-9.947 7.43-10.116 10.743" class="fil2 str2"/>
    <path id="path113271" d="M184.51 198.86c3.368-8.382 5.84-.446 13.007-14.428" class="fil4 str2"/>
    <path id="polyline113273" d="m198.45 187.56-2.89.39-.05-1" class="fil4 str2"/>
    <path id="polyline113275" d="m195.12 192.06-3.06.17 1.28-2.72" class="fil4 str2"/>
    <path id="path113277" d="M230.66 240.33c-.414.364-.2.972-.697 1.118" class="fil4 str4"/>
    <path id="path113279" d="M222.72 243.97c-.507.254-.493.38-.94.846" class="fil4 str4"/>
    <path id="path113281" d="M247.4 249.24c-7.599 5.85-15.445 10.213-17.193 15.405l-4.86-.853c8.334-10.027 10.164-9.016 18.375-14.692q1.923.128 3.677.14z" class="fil2 str2"/>
    <ellipse id="ellipse113283" cx="-266.325" cy="229.537" class="fil2 str2" rx="2.48" ry=".712" transform="matrix(-.99003 -.14088 -.15644 .98769 0 0)"/>
    <path id="path113285" d="M277.8 239.81c-1.587.682-3.5 2.694-3.63 5.537-.13 2.82.1 6.368-5.548 9.044-2.463 1.166-4.607 1.692-7.343.795-1.868-.612-3.13-3.377-.97-4.087.91-.3 2.243-.117 3.7-.838 1.58-.781 1.716-2.827 1.15-3.313-1.203-1.03-2.687.585-5.123 1.25" class="fil4 str4"/>
    <path id="path113287" d="M273.28 243.97c.507.254.493.38.94.846" class="fil4 str4"/>
    <path id="path113289" d="M259.18 252.6c0-1.412-.451-3.485-.905-4.067" class="fil4 str4"/>
    <path id="path113291" d="M248.6 249.24c7.599 5.85 15.445 10.213 17.193 15.405l4.86-.853c-8.334-10.027-10.164-9.016-18.375-14.692a62 62 0 0 1-3.677.14z" class="fil2 str2"/>
    <ellipse id="ellipse113293" cx="223.628" cy="299.421" class="fil2 str2" rx="2.48" ry=".712" transform="matrix(.99003 -.14088 .15644 .98769 0 0)"/>
    <path id="path113295" d="M235.96 248.2c1.846.503 7.77 1.047 12.038 1.047 4.267 0 10.192-.544 12.039-1.047" class="fil4 str4"/>
    <path id="path113297" d="M271.95 233.92c-2.637-2.22-4.66-.09-5.565 1.33-1.668 2.619-.386 4.703-1.654 6.978" class="fil4 str4"/>
    <path id="path113299" d="M265.34 240.33c.414.364.2.972.697 1.118" class="fil4 str4"/>
    <path id="path113301" d="m290.62 240.42 1.927-1.927 14.28 4.03c.844 1.403.734 2.956 1.6 4.379 2.003 3.29-1.091.79-.386 2.766.742 2.081.435 4.581-1.488 3.128-2.338-1.766-2.718.261-3.99-.067-1.483-.381-.953-1.95-1.876-3.179-.506-.673-3.718-.002-4.417-1.249-1.142-2.04-.827-2.217-2.767-3.7-1.111-.85-.319-2.738-2.883-4.181" class="fil2 str2"/>
    <path id="path113303" d="M304.21 248.62c-3.334-4.439-7.332-6.039-12.64-9.141" class="fil4 str2"/>
    <path id="line113305" d="m295.35 241.61.39 2.46" class="fil4 str2"/>
    <path id="path113307" d="M277.13 240.77c1.143-.173 2.073-.825 2.716-2.285l1.138.175-1.056 1.877q3.44-.033 4.035-2.402h1.489c-1.012 2.602 8.334-2.71 9.215-7.604l.614-.684c3.335-1.356 5.694-5.155 7.356-7.72q.2.141.314.257c.418.429.745.976.996 1.599-3.321 5.428-8.159 6.9.525 6.95a16 16 0 0 1-.304 1.635c-5.951-.205-6.46-1.627-7.733.051-1.206 1.591-5.358 5.886-3.93 5.854l-1.868 1.938c-1.593-.681-2.419.176-3.814.607-5.675 1.754-9.202 2.075-12.2 2.213a6.66 6.66 0 0 1 1.681-2.434z" class="fil2 str2"/>
    <path id="path113309" d="M279.82 238.46c-.942-3.323-3.903-3.092-4.167-4.928-.36-2.499 1.742-1.44 1.815-3.175.089-2.082-2.686-2.137-1.825-6.032l12.844-2.314-7.459 16.67z" class="fil2 str2"/>
    <path id="path113311" d="M283.97 238.14c-.313-2.71-4.728-2.431-4.605-4.412.139-2.223 3.873-1.249 4.049-3.527.149-1.927-2.24-2.709-.983-5.492l5.831-2.25c4.498 1.159 5.129 3.323 1.1 7.716-.938 1.024 2.223 1.59 1.577 3.047-.646 1.456-2.876-.75-5.48 4.918z" class="fil2 str2"/>
    <path id="path113313" d="M284.72 238.12a77 77 0 0 1 2.683-12.387" class="fil4 str2"/>
    <path id="path113315" d="m292.55 238.49-1.278 1.278c4.034.668 4.168 1.484 6.698 4.175 3.52 3.744 2.977-3.564 5.111-1.176 1.438 1.608 1.315 4.971 3.562 4.95 2.222-.022.186-5.197 2.39-3.75 1.92 1.26 3.195 3.794 4.886 3.481 1.38-.255 1.722-3.97.421-5.376-1.772-1.914 1.807-1.362.376-3.84-.503-.872-3.466-.397-4.634-1.015-1.126-.596.747-3.166-1.88-3.376-2.64-.211-2.25 2.273-3.859 2.356-1.472.076-2.216-2.42-4.918-.103-3.39 2.907-4.333 1.99-6.875 2.396" class="fil2 str2"/>
    <path id="path113317" d="M292.54 238.46q13.902-1.676 19.523 4.141" class="fil4 str2"/>
    <path id="path113319" d="M308.12 236.88c-1.38.394-2.76 1.183-4.043 1.676l2.071 3.747" class="fil4 str2"/>
    <path id="polyline113321" d="m301.32 237.08-1.48 1.08.59 2.55" class="fil4 str2"/>
    <path id="path113323" d="M298.66 163.58c.148 1.399.29 2.666.503 3.497.137.533 1.647 3.606 3.024 3.09.61-.228.12-1.09.532-2.075l-.002-.001.005.003q.147.084.292.171l.012.007.27.162.05.031.273.168.006.004.005.003v0l.26.165.076.05.193.125.113.074.198.133.1.068.184.125.129.09.102.072.051.036.157.113.097.07.05.036.097.071.004.003.05.037.108.08.13.097.012.01.05.038.09.069.134.103.022.017v0c4.676 3.634 7.861 8.508 5.602 12.531 2.108-3.686 1.046-9.214 1.99-11.5 1.439-3.49 4.488-5.865.262-8.811-4.578-3.193-6.595-3.946-7.333-6.312h-9.366c.876 1.503 1.184 4.67 1.468 7.352z" class="fil3 str3"/>
    <path id="path113325" d="M302.72 168.09c6.502 3.756 12.036 10.243 8.626 15.236a10.3 10.3 0 0 1-1.488 1.721" class="fil4 str4"/>
    <path id="path113327" d="M296.94 155.86c1.582 1.919 1.562 8.645 2.22 11.209.136.534 1.647 3.606 3.024 3.09.61-.228.118-1.09.531-2.075.817-1.947 1.91-3.168 3.058-4.353" class="fil4 str4"/>
    <path id="path113329" d="M311.34 183.32c2.502-3.668 1.3-9.59 2.285-11.976 1.44-3.489 4.488-5.864.263-8.81-6.194-4.32-7.7-4.174-7.692-9.6.014-9.471-4.696-5.548-4.933-12.382" class="fil4 str4"/>
    <path id="path113331" d="M190.02 183.3c3.076-.983 8.25.449 25.11-6.513-18.67-4.446-17.695-3.093-25.11 6.513" class="fil2 str2"/>
    <path id="path113333" d="m192.49 170.2-.343 10.29c-.906-.628-5.548-14.564.343-10.29" class="fil2 str2"/>
    <path id="path113335" d="m187.59 186.1-.7-1.051c3.302-3.162 4.362-3.396 4.594-6.956.169-2.602-.92-6.17-.18-7.915 2.657-6.278 2.885 3.868 4.806-2.133 1.425-4.452 2.522-5.47 4.333-4.16.84.61.934 2.793-.318 5.535-2.176 4.765 2.93 2.531-.41 6.55-3.14 3.78-8.926 5.943-12.125 10.13" class="fil2 str2"/>
    <path id="path113337" d="M195.82 173.53c-1.427 5.953-4.891 8.51-8.575 12.047" class="fil4 str2"/>
    <path id="path113339" d="M197.34 163.58c-.148 1.399-.29 2.666-.503 3.497-.137.533-1.647 3.606-3.024 3.09-.61-.228-.12-1.09-.532-2.075l.002-.001-.005.003q-.146.084-.292.171l-.012.007-.27.162-.05.031-.273.168-.006.004-.005.003v0l-.26.165-.076.05-.192.125-.113.074-.2.133-.099.068-.183.125-.13.09-.102.072-.051.036-.157.113-.097.07-.05.036-.097.071-.004.003-.05.037-.108.08-.13.097-.012.01-.05.038-.09.069-.134.103-.022.017v0c-4.676 3.634-7.861 8.508-5.601 12.531-2.11-3.686-1.047-9.214-1.99-11.5-1.44-3.49-4.489-5.865-.263-8.811 4.578-3.193 6.595-3.946 7.333-6.312h9.367c-.877 1.503-1.185 4.67-1.47 7.352z" class="fil3 str3"/>
    <path id="path113341" d="M193.28 168.09c-6.502 3.756-12.036 10.243-8.626 15.236.464.68.975 1.24 1.488 1.721" class="fil4 str4"/>
    <path id="path113343" d="M199.06 155.86c-1.582 1.919-1.562 8.645-2.22 11.209-.136.534-1.647 3.606-3.024 3.09-.61-.228-.118-1.09-.531-2.075-.817-1.947-1.91-3.168-3.058-4.353" class="fil4 str4"/>
    <path id="path113345" d="M184.66 183.32c-2.502-3.668-1.3-9.59-2.285-11.976-1.44-3.489-4.488-5.864-.263-8.81 6.194-4.32 7.7-4.174 7.692-9.6-.014-9.471 4.696-5.548 4.933-12.382" class="fil4 str4"/>
    <path id="path113347" d="M202.92 123.26h90v91.342c0 6.074-4.876 10.977-10.95 10.977l-23.021.584c-5.613 0-10.171 4.207-10.83 9.64h-.166c-.67-5.433-5.303-9.64-10.916-9.64l-23.022-.584c-6.074 0-11.095-4.902-11.095-10.977z" style="fill:#dededd;stroke:#707477;stroke-width:.211585;stroke-linecap:round;stroke-linejoin:round"/>
    <path id="path113349" d="M250.42 149.33c-6.23-1.06-6.106-6.568-4.771-10.992.622-2.06 2.938-6.282 8.039-8.038-5.91-.358-6.938 4.237-7.936 3.83-.653-.266.21-4.391.979-6.153-3.242 1.985-2.365 7.67-2.574 9.541-.499 4.468-1.369 5.08-4.165 1.551-.924-1.167-1.17-2.232-1.587-4.996-1.685 6.037 3.92 8.942 5.184 11.244.552 1.006-.477 1.655-2.324.875-1.041-.44-1.224-.618-2.21-2.193 1.063 5.576 4.588 2.044 7 6.167q1.404-.348 2.705.055z" class="fil6" style="stroke-width:.689691"/>
    <path id="path113351" d="m274.95 177.57.89 1.2c.494-.232 1.332-.59 1.358-1.636.046-1.917-.29.34-2.243.436-2.872-2.412-3.929-4.046-8.897-3.971-4.288.064-3.922 1.474-7.263 1.595-2.172.079-2.357-1.053-5.525-1.211-2.027-.102-4.006 1.498-5.054.56-1.11-.994-1.124-3.872-.23-4.886 4.99-5.66 4.892-12.708 4.04-16.171a18 18 0 0 1-.75-.15c1.886.414 3.245.533 4.036-1.603.434-1.173-.053-.998-.495-.518-.853.923-2.39 1.136-3.316.838-.94-1.2-2.4-1.984-3.895-2.036-2.976-.104-2.46 1.4-6.205 1.931l.117.477-.117-.477c-.734.104-1.657.178-2.843.203l-.595 2.223c3.7.05 4.909 1.358 1.278 1.34-.566-.002-1.853-.192-1.418.586.353.632.655.265 1.389.245.647-.017 1.497.047 2.389.159.905.113 1.142 1.432 2.723 1.678 1.848.286 3.445-.951 5.051-3.098-1.606 2.147-3.203 3.384-5.051 3.098-.049 2.03-.539 4.426-3.223 4.926-1.096.205-9.949 1.802-9.983 10.104-.014 3.36-.055 3.303.058 5.173.119 1.966.737 3.292 1.159 4.649-3.417.766-3.72 1.289-5.501 1.757-2.861.751-5.832 1.01-9.042.832l-.611.4c-1.485 3.576-5.797 6.158-9.256 9.127l-.054.264c.327 1.42.027 2.97-.216 4.277l1.683-.585c-.085-1.179.087-2.283.658-3.184l.9-.418c2.804-3.122 5.481-5.148 8.609-7.46 2.33-.845 5.467-.779 7.343-.49 2.497.386 4.565 2.183 7.773 2.866-.266-1.204-.29-2.527-.236-3.505-.054.978-.03 2.301.236 3.505.285 1.292.584 2.658 1.012 3.474 1.4 2.672 1.773 4.704 1.424 8.217l.155.424c2.03 2.864 3.835 5.943 4.756 10.452l.016.202c-.058 1.21-1.227 3.294-2.88 5.179l1.71.496c.841-1.555 2.256-3.218 3.797-4.449l.027-.631c-1.96-3.789-3.434-8.166-4.225-12.545l-.099-.397c-1.253-2.454-1.279-7.548.848-9.232.684-.541.093-5.105.14-7.658-.047 2.553.544 7.117-.14 7.658 3.966 3.525 10.01.35 17.343-1.486 1.833-.46 3.34-1.047 4.494-1.661-1.154.614-2.66 1.202-4.494 1.66-1.653 1.432-1.469 6.13.932 14.768.038 1.956-2.821 6.275-5.236 8.522-.69 2.112-1.594 3.428-3.14 4.955l1.712.496c.794-1.676 1.923-2.787 2.943-3.307l.673-.607c.545-2.838 3.89-6.953 6.172-9.663v-1.056c-1.864-2.37-1.999-3.41-2.01-4.31-.033-2.878 4.703-2.866 6.478-6.997-1.967-1.163-4.144-3.885-5.578-7.788 1.434 3.903 3.61 6.625 5.578 7.788 7.914 4.676 10.661 5.994 14.154 11.01 1.68 2.414 2.863 6.037 4.235 10.124-.871 1.787-1.761 3.118-2.866 4.31l1.711.496c.72-1.09 1.987-3.122 3.276-3.22l-.28-1.477c-1.857-3.573-2.547-7.223-2.992-11.363l-.603-1.098c-5.034-3.094-8.737-8.105-8.041-12.688.466-3.069 3.713-4.664.217-10.447z" style="fill:#d52e26;stroke:#a92926;stroke-width:.158689;stroke-linecap:round;stroke-linejoin:round"/>
    <ellipse id="ellipse113353" cx="245.7" cy="152.74" class="fil6" rx=".799" ry=".514" style="stroke-width:.689691"/>
    <path id="path113355" d="M297.4 142.13c-1.913 1.763-7.905 4.693-.455 13.732" class="fil4 str4"/>
    <path id="path113357" d="M198.6 142.13c1.913 1.763 7.905 4.693.455 13.732" class="fil4 str4"/>
    <path id="path113359" d="m238.57 152.14-.603 2.234c-.618 0-.857-.807-.827-1.599.025-.637.468-.65 1.43-.635" style="fill:#1f1a17;stroke:#1f1a17;stroke-width:.158689;stroke-linecap:round;stroke-linejoin:round"/>
    <path id="path113361" d="m252.73 220.71.05-1.639-1.711-.497c-1.009.498-1.671 1.204-2.29 2.136z" class="fil6 str8"/>
    <path id="path113363" d="m240.77 220.71.05-1.639-1.711-.497c-1.009.498-1.671 1.204-2.29 2.136z" class="fil6 str8"/>
    <path id="path113365" d="m284.22 220.71.05-1.639-1.711-.497c-1.009.498-1.671 1.204-2.29 2.136z" class="fil6 str8"/>
    <path id="path113367" d="m210.25 200.68-.908-1.365-1.683.585c-.534.99-.666 1.948-.631 3.067z" class="fil6 str8"/>
    <path id="path113369" d="M248.76 150.22q1.302.403 2.501 1.557c3.99-3.478 9.302-4.236 11.654-8.996 1.548-3.13 2.014-11.086-.65-15.638 1.539 11.343-.495 14.642-3.056 3.944-1.137 6.184 4.213 10.224.606 13.473-1.91 1.721-3.214-.394-4.55-5.486-1.777 4.675 1.739 6.22-.01 8.049-1.956 2.046-4.439 1.87-4.821-2.922-1.19 1.635-.597 3.6-.014 5.129l-1.302-.154-2.143.006z" class="fil6" style="stroke-width:.689691"/>
    <path id="path113371" d="M251.4 93.1c1.388-8.69 2.42-11.388 5.656-16.344 19.035-2.608 29.863 16.247 13.324 32.653l-17.805-3.088-3.175-7.205z" class="fil9 str9"/>
    <path id="path113373" d="M244.6 93.1c-1.388-8.69-2.42-11.388-5.655-16.344-19.035-2.608-29.863 16.247-13.324 32.653l17.804-3.088 3.175-7.205z" class="fil9 str9"/>
    <path id="polygon113375" d="m252.56 106.33 17.84 3.07 2.54-2.8.13 6.07H222.9l.14-6.07 2.54 2.8 17.83-3.07 3.14-7.217-1.95-6.013-.66-3.321h8.03l-.57 3.321-1.98 6.013z" class="fil2 str1"/>
    <path id="path113377" d="M235.38 107.95c-.244-13.45-1.458-20.99-3.535-31.341 2.451-.321 4.295-.303 6.424-.16 2.446 8.496 4.087 20.584 4.073 30.856z" class="fil2 str1"/>
    <path id="path113379" d="M231.63 101.87c1.62-.206 2.32.181 2.866 1.513l.274-.049c.316-2.042.545-2.42 2.058-3.192l-.062-.443c-1.653-.21-1.976-.49-2.842-2.322l-.274.048c-.15 1.456-.712 2.063-2.309 2.428-.262-2.485.157-3.556 1.65-4.369l-.06-.42c-2.31-.52-2.742-.879-3.64-3.21l-.498.086c-.206 2.528-.517 3.018-2.568 4.312l.06.42c1.644.257 2.34 1.13 2.78 3.583-1.619.206-2.322-.177-2.868-1.509l-.274.05c-.315 2.041-.545 2.42-2.057 3.191l.064.442c1.652.21 1.975.49 2.842 2.323l.274-.048c.15-1.456.712-2.063 2.309-2.428.088 3.26.02 6.465-1.796 7.234 2.581-.746 5.253-1.252 8-1.557-1.94-.102-3.178-2.941-3.929-6.083" class="fil2 str1"/>
    <path id="path113381" d="M220.32 105c2.05 3.086 2.232 4.818 4.873 5.3-.932.418-2.032 1.137-2.206 2.06-1.07-2.098-1.973-4.115-3.52-6.99l.161 1.365c-1.195-1.306-1.797-3.113-2.089-4.771l.997 1.21c-.64-2.157-.4-2.066-1.294-4.117-.117-.38-.306-1.39-.355-1.861.076-.826-.002-1.974-.136-3.228l.29-.02c.903 2.702.673 3.049 2.077 3.624l.137.483c-.619.968-.747 2.198.059 4.89.666-.53.757-1.214.69-2.754l.183-.07c.654 1.826.983 2.1 1.905 2.15l.106.427c-.479.941-.443 1.35.438 3.452l-.104.077c-1.026-1.285-1.524-1.607-2.212-1.227" class="fil2 str1"/>
    <path id="path113383" d="M260.62 107.95c.245-13.45 1.458-20.99 3.535-31.341-2.451-.321-4.295-.303-6.424-.16-2.446 8.496-4.087 20.584-4.073 30.856z" class="fil2 str1"/>
    <path id="path113385" d="M264.37 101.87c-1.62-.206-2.32.181-2.866 1.513l-.274-.049c-.316-2.042-.545-2.42-2.058-3.192l.062-.443c1.653-.21 1.976-.49 2.842-2.322l.274.048c.15 1.456.712 2.063 2.309 2.428.262-2.485-.157-3.556-1.65-4.369l.06-.42c2.31-.52 2.742-.879 3.64-3.21l.498.086c.206 2.528.517 3.018 2.568 4.312l-.06.42c-1.644.257-2.34 1.13-2.78 3.583 1.619.206 2.322-.177 2.868-1.509l.274.05c.315 2.041.545 2.42 2.057 3.191l-.064.442c-1.652.21-1.975.49-2.842 2.323l-.274-.048c-.15-1.456-.712-2.063-2.309-2.428-.088 3.26-.02 6.465 1.796 7.234-2.581-.746-5.253-1.252-8-1.557 1.94-.102 3.178-2.941 3.929-6.083" class="fil2 str1"/>
    <path id="path113387" d="M275.68 105c-2.05 3.086-2.232 4.818-4.873 5.3.932.418 2.032 1.137 2.206 2.06 1.07-2.098 1.973-4.115 3.52-6.99l-.396 1.23c1.195-1.306 1.797-3.114 2.089-4.772l-.762 1.346c.64-2.157.4-2.066 1.294-4.117.117-.38.306-1.39.355-1.861-.076-.826.002-1.974.136-3.229l-.29-.02c-.903 2.703-.673 3.05-2.077 3.625l-.137.483c.619.968.747 2.198-.059 4.89-.666-.53-.757-1.214-.69-2.754l-.183-.07c-.654 1.826-.983 2.1-1.905 2.15l-.106.427c.479.941.443 1.35-.438 3.452l.104.077c1.026-1.285 1.524-1.607 2.212-1.227" class="fil2 str1"/>
    <path id="path113389" d="M250.45 94.424c.42-13.614.764-11.554 2.165-16.419h-9.2c1.4 4.864 1.71 2.804 2.13 16.419z" class="fil2 str1"/>
    <path id="path113391" d="M252.62 78.005a4.736 4.736 0 0 1-9.201 0z" class="fil0 str1"/>
    <path id="path113393" d="M246.9 75.768h-3.482a4.74 4.74 0 0 1 3.482-3.482z" class="fil0 str1"/>
    <path id="path113395" d="M249.14 72.286a4.74 4.74 0 0 1 3.482 3.482h-3.482z" class="fil0 str1"/>
    <path id="path113397" d="M249.14 72.286v3.482h3.482a4.75 4.75 0 0 1 0 2.237h-9.201a4.75 4.75 0 0 1 0-2.237h3.482v-3.482a4.74 4.74 0 0 1 2.237 0" class="str1" style="fill:#96aebe"/>
    <path id="path113399" d="M247.39 67.702c-2.055 0-2.731.291-3.239 1.053v-3.364c.508.762 1.184 1.053 3.239 1.053 0-2.055-.291-2.731-1.053-3.239h3.364c-.762.508-1.053 1.184-1.053 3.239 2.055 0 2.731-.291 3.239-1.053v3.364c-.508-.762-1.184-1.053-3.239-1.053 0 2.055.291 2.731 1.053 3.239v1.52a4.7 4.7 0 0 0-1.682-.308c-.593 0-1.16.109-1.682.308v-1.52c.762-.508 1.053-1.184 1.053-3.239z" class="fil2" style="stroke:#70614e;stroke-width:.132241;stroke-linejoin:bevel"/>
    <path id="path113401" d="M248.31 90.398c.692 2.454 1.156 2.883 3.888 3.799v.425c-1.965.54-2.663 1.521-2.775 4.015 2.014-.08 2.807-.58 3.242-1.988h.344c.74 1.957 1.085 2.29 3.067 2.785l-.002.447c-1.982.495-2.327.828-3.068 2.785h-.343c-.436-1.408-1.228-1.907-3.242-1.988.46 3.226.797 6.218 3.15 6.658h-9.132c2.352-.44 2.69-3.432 3.15-6.658-2.015.08-2.807.58-3.243 1.988h-.343c-.74-1.957-1.086-2.29-3.068-2.785l-.002-.447c1.982-.495 2.328-.828 3.068-2.785h.343c.435 1.408 1.228 1.907 3.242 1.988-.112-2.494-.81-3.476-2.775-4.015v-.425c2.732-.916 3.197-1.345 3.888-3.799z" class="fil2 str1"/>
    <rect id="rect113403" width="4.3" height="4.3" x="245.85" y="97.386" class="fil11 str11" rx=".758" ry=".758"/>
    <rect id="rect113405" width="4.1" height="4.3" x="274.88" y="62.054" class="fil11 str11" rx=".848" ry=".89" transform="rotate(7.774)"/>
    <rect id="rect113407" width="4.1" height="4.3" x="-216.561" y="129.148" class="fil11 str11" rx=".848" ry=".89" transform="matrix(-.9908 .13527 .13526 .99081 0 0)"/>
    <rect id="rect113409" width=".807" height="4.3" x="294.177" y="-27.753" class="fil11 str11" rx=".167" ry=".89" transform="rotate(25.6)skewX(.001)"/>
    <path id="path113411" d="M277.81 102.32c1.228.466-.669 4.332-1.858 3.878-.09-.035.092-.6.398-1.24l.743-1.55c.307-.64.626-1.123.717-1.088" class="fil11 str11"/>
    <rect id="rect113413" width="2.5" height="2.5" x="246.75" y="83.11" class="fil0 str11" rx=".623" ry=".624"/>
    <rect id="rect113415" width="2.5" height="2.5" x="246.75" y="86.792" class="fil0 str11" rx=".623" ry=".624"/>
    <rect id="rect113417" width="3" height="3" x="255.78" y="101.3" class="fil0 str11" rx=".623" ry=".624"/>
    <rect id="rect113419" width="2.8" height="2.8" x="256.14" y="97.297" class="fil0 str11" rx=".623" ry=".624"/>
    <rect id="rect113421" width="2.7" height="2.7" x="256.55" y="93.341" class="fil0 str11" rx=".623" ry=".624"/>
    <rect id="rect113423" width="2.6" height="2.6" x="257.04" y="89.451" class="fil0 str11" rx=".623" ry=".624"/>
    <rect id="rect113425" width="2.5" height="2.5" x="257.62" y="85.647" class="fil0 str11" rx=".623" ry=".624"/>
    <rect id="rect113427" width="2.4" height="2.4" x="258.34" y="81.658" class="fil0 str11" rx=".623" ry=".624"/>
    <rect id="rect113429" width="2.3" height="2.3" x="259.1" y="78.019" class="fil0 str11" rx=".623" ry=".624"/>
    <rect id="rect113431" width="3" height="3" x="237.22" y="101.3" class="fil0 str11" rx=".623" ry=".624"/>
    <rect id="rect113433" width="2.8" height="2.8" x="237.06" y="97.297" class="fil0 str11" rx=".623" ry=".624"/>
    <rect id="rect113435" width="2.7" height="2.7" x="236.75" y="93.341" class="fil0 str11" rx=".623" ry=".624"/>
    <rect id="rect113437" width="2.6" height="2.6" x="236.36" y="89.451" class="fil0 str11" rx=".623" ry=".624"/>
    <rect id="rect113439" width="2.5" height="2.5" x="235.88" y="85.647" class="fil0 str11" rx=".623" ry=".624"/>
    <rect id="rect113441" width="2.4" height="2.4" x="235.26" y="81.658" class="fil0 str11" rx=".623" ry=".624"/>
    <rect id="rect113443" width="2.3" height="2.3" x="234.6" y="78.019" class="fil0 str11" rx=".623" ry=".624"/>
    <rect id="rect113445" width=".807" height="4.3" x="-153.137" y="186.56" class="fil11 str11" rx=".167" ry=".89" transform="matrix(-.90183 .43208 .43207 .90184 0 0)"/>
    <path id="path113447" d="M218.19 102.32c-1.228.466.669 4.332 1.858 3.878.09-.035-.092-.6-.398-1.24l-.744-1.55c-.306-.64-.625-1.123-.716-1.088" class="fil11 str11"/>
    <path id="path113449" d="M284.73 112.99c-1.578.611-2.763.444-1.542 3.388 2.132 5.137-1.031 4.927-3.49 6.084-.672.316-1.321.69-1.945 1.043l.005.001c-4.415 2.637-5.898 1.394-7.33.076-1.935-1.782-5.424-.31-7.434-1.214-1.631-.733-3.206-4.53-3.464-7.81l9.26-.06c-.056.986.035 1.777.223 2.457 4.727 6.411 5.735 3.29 7.349 2.237 1.394-.91 4.672-.151 2.397-4.313-3.112-5.692 4.108-8.984 6.28-7.24 3.139 2.52 6.139-.433 5.49 5.308l.013.005 3.091-.71-.007.009-.003-.002-.034.008c.37-.167 2.29.65 2.87 1.997.75 1.736-.698 1.888-8.54 5.046a.5.5 0 0 1-.163.066l-.005.002.001-.001c-.656.12-1.751-1.195-3.016-6.342h.001z" class="fil3 str3"/>
    <path id="path113451" d="M268.79 114.49c-.23 4.058 2.013 4.811 3.377 8.145 1.67 4.084 4.356 1.313 7.531-.181 2.458-1.157 5.622-.948 3.49-6.085-1.582-3.81.87-2.407 2.986-4.229 3.86-3.319 4.26-1.978 4.355.799" class="fil4 str4"/>
    <path id="path113453" d="M259.53 114.55c.258 3.28 1.833 7.078 3.464 7.81 2.01.904 5.5-.567 7.434 1.214 1.432 1.32 2.915 2.562 7.33-.075" class="fil4 str4"/>
    <path id="path113455" d="M290.53 112.94c.649-5.74-2.351-2.788-5.49-5.308-2.172-1.743-9.392 1.549-6.28 7.24 2.275 4.162-1.003 3.404-2.397 4.314-1.614 1.052-2.622 4.174-7.35-2.238" class="fil4 str4"/>
    <path id="path113457" d="M284.74 113.02c2.366 9.63 4.141 5.85 3.55 4.338" class="fil4 str4"/>
    <path id="path113459" d="M295.45 113.85c-4.438-2.583.064-1.792 1.01.4.754 1.75-.72 1.891-8.71 5.115m7.7-5.515c-2.515.93-5.214 2.069-8.17 3.864-1.46-2.427-2.257-3.548 2.591-4.612l3.755-.86" class="fil4 str4"/>
    <path id="path113461" d="M211.27 112.99c1.578.611 2.763.444 1.542 3.388-2.132 5.137 1.031 4.927 3.49 6.084.672.316 1.321.69 1.945 1.043l-.005.001c4.415 2.637 5.898 1.394 7.33.076 1.935-1.782 5.425-.31 7.434-1.214 1.631-.733 3.206-4.53 3.464-7.81l-9.26-.06c.056.986-.035 1.777-.223 2.457-4.727 6.411-5.735 3.29-7.349 2.237-1.395-.91-4.672-.151-2.397-4.313 3.112-5.692-4.108-8.984-6.28-7.24-3.139 2.52-6.139-.433-5.49 5.308l-.013.005-3.091-.71.007.009.003-.002.034.008c-.37-.167-2.29.65-2.87 1.997-.75 1.736.698 1.888 8.54 5.046a.5.5 0 0 0 .163.066l.005.002-.001-.001c.656.12 1.751-1.195 3.016-6.342h-.001z" class="fil3 str3"/>
    <path id="path113463" d="M227.21 114.49c.23 4.058-2.013 4.811-3.377 8.145-1.67 4.084-4.356 1.313-7.531-.181-2.458-1.157-5.622-.948-3.49-6.085 1.582-3.81-.87-2.407-2.987-4.229-3.858-3.319-4.258-1.978-4.354.799" class="fil4 str4"/>
    <path id="path113465" d="M236.47 114.55c-.258 3.28-1.833 7.078-3.464 7.81-2.01.904-5.5-.567-7.434 1.214-1.432 1.32-2.915 2.562-7.33-.075" class="fil4 str4"/>
    <path id="path113467" d="M205.47 112.94c-.649-5.74 2.351-2.788 5.49-5.308 2.172-1.743 9.392 1.549 6.28 7.24-2.275 4.162 1.003 3.404 2.398 4.314 1.614 1.052 2.622 4.174 7.349-2.238" class="fil4 str4"/>
    <path id="path113469" d="M211.26 113.02c-2.366 9.63-4.141 5.85-3.55 4.338" class="fil4 str4"/>
    <path id="path113471" d="M200.55 113.85c4.438-2.583-.064-1.792-1.01.4-.754 1.75.72 1.891 8.71 5.115m-7.7-5.515c2.515.93 5.214 2.069 8.17 3.864 1.46-2.427 2.257-3.548-2.591-4.612l-3.755-.86" class="fil4 str4"/>
    <path id="path113473" d="M273.08 112.7c0-2.96-11.228-5.36-25.074-5.36s-25.074 2.375-25.074 5.335v7.048c0-2.434 11.228-4.409 25.074-4.409s25.074 1.975 25.074 4.409z" class="fil2 str1"/>
    <rect id="rect113475" width="3.6" height="3.6" x="246.2" y="109.5" class="fil11 str11" rx=".758" ry=".758"/>
    <rect id="rect113477" width="3.55" height="3.6" x="251" y="109.59" class="fil11 str11" rx=".758" ry=".758"/>
    <rect id="rect113479" width="3.45" height="3.6" x="255.74" y="109.88" class="fil11 str11" rx=".758" ry=".758"/>
    <rect id="rect113481" width="3.3" height="3.6" x="260.39" y="110.42" class="fil11 str11" rx=".758" ry=".758"/>
    <rect id="rect113483" width="3.1" height="3.6" x="264.88" y="111.06" class="fil11 str11" rx=".758" ry=".758"/>
    <rect id="rect113485" width="2.8" height="3.6" x="269.16" y="112.52" class="fil11 str11" rx=".758" ry=".758"/>
    <rect id="rect113487" width="3.55" height="3.6" x="241.46" y="109.59" class="fil11 str11" rx=".758" ry=".758"/>
    <rect id="rect113489" width="3.45" height="3.6" x="236.81" y="109.88" class="fil11 str11" rx=".758" ry=".758"/>
    <rect id="rect113491" width="3.3" height="3.6" x="232.31" y="110.42" class="fil11 str11" rx=".758" ry=".758"/>
    <rect id="rect113493" width="3.1" height="3.6" x="228.02" y="111.06" class="fil11 str11" rx=".758" ry=".758"/>
    <rect id="rect113495" width="2.8" height="3.6" x="224.04" y="112.52" class="fil11 str11" rx=".758" ry=".758"/>
  </g>
</svg>
