<svg id="flag-icons-ua-21" class="fi fi-ua-21" viewBox="0 0 640 480" xmlns="http://www.w3.org/2000/svg" width="640" height="480">
  <metadata id="flag-icons">
    <name>Zakarpattia Oblast</name>
    <code>ua-21</code>
    <iso>true</iso>
    <type>Place</type>
    <capital>Uzhhorod</capital>
    <continent>Europe</continent>
  </metadata>
  <path fill="#2475b1" d="M0 0h640v480H0Z" style="stroke-width:1"/>
  <path fill="#fdcc00" d="M0 240h640v240H0Z" style="stroke-width:1"/>
  <switch style="stroke-width:4.35248" transform="matrix(.13394 0 0 .1341 71.298 80.187)">
    <g style="stroke-width:4.35248">
      <path fill="#fff" d="m244.15 1.25-.1 2.3v-2.3H1.25v527.8c.8 28.5 20.2 42.6 58.4 42.4h147.8c16.6.6 28.8 7.6 36.6 21.1 7.9-13.5 20.1-20.5 36.7-21.1h147.8c38.1.2 57.6-13.9 58.3-42.4V1.25z" style="stroke-width:1.93444"/>
      <path d="M142.45 346.95c.4-1.2.7-2.1.9-2.5.3-.5.7-.7 1.1-.7q.6 0 .6.9c.1 1.2.7 1.8 1.7 1.8.6 0 1-.2 1.3-.5.4-.4.6-.8.6-1.3 0-.8-.3-1.4-.8-1.9-.6-.5-1.3-.7-2.1-.7-.9 0-1.7.2-2.2.6-.6.4-1.1.9-1.4 1.6-.4.7-.7 1.8-1 3.1-.3 1.2-.6 2-1 2.4-.3.5-.7.7-1.1.8-.3.1-1.2.1-2.4.1v-5.5c0-1 .1-1.6.4-1.9.3-.4.9-.5 1.8-.5h.4v-.5h-9.7v.5h.4c.9 0 1.6.2 1.8.6.3.3.4 1.1.4 2.1v12.4c0 1-.2 1.7-.5 2-.3.2-1.1.4-2.1.4v.5h9.7v-.5q-1.5 0-2.1-.3c-.3-.3-.5-.9-.5-1.8v-6.2q.9 0 1.2.3c.2.1.5.6 1 1.4l3.8 7.1h6.2v-.5q-.9 0-1.5-.3c-.4-.3-.7-.7-1-1.2l-1.9-3.3c-.9-1.6-1.4-2.5-1.7-2.9-.2-.4-.5-.7-.8-.9-.3-.3-.8-.4-1.4-.6.5-.4.8-.9 1.1-1.5.2-.6.5-1.5.8-2.6m-28.5-3.9c1.4 0 2.6.4 3.7 1.3s1.9 2.2 2.3 3.9h.5v-6.4h-.5c-.1.4-.2.8-.4 1-.3.2-.5.3-.8.3-.2 0-.7-.1-1.6-.5-1.4-.5-2.8-.8-4.1-.8-1.8 0-3.5.4-5 1.3-1.6.8-2.8 2.1-3.8 3.7-.9 1.5-1.4 3.2-1.4 5 0 1.7.4 3.3 1.3 4.7.8 1.5 2 2.7 3.5 3.5 1.6.7 3.3 1.1 5.3 1.1 1.5 0 2.8-.2 4-.7 1.1-.5 2.2-1.3 3.2-2.3v-1.6c-1.1 1.2-2.1 2.1-3.1 2.6-.9.5-2 .8-3.2.8-1.4 0-2.6-.4-3.4-1.1-.9-.7-1.6-1.7-2-3.1-.4-1.3-.6-2.9-.6-4.5 0-1.7.3-3.2.8-4.6.5-1.1 1.2-2 2.1-2.6 1-.7 2.1-1 3.2-1m-11.9 17.7v-.5q-.9 0-1.5-.3c-.4-.3-.7-.7-1-1.2l-1.9-3.3c-.9-1.6-1.4-2.5-1.7-2.9-.2-.4-.5-.7-.8-.9-.3-.3-.8-.4-1.4-.6.5-.4.8-.9 1.1-1.5.2-.6.5-1.5.8-2.6.4-1.2.7-2.1.9-2.5.3-.5.7-.7 1.1-.7q.6 0 .6.9c.1 1.2.7 1.8 1.7 1.8.6 0 1-.2 1.3-.5.4-.4.6-.8.6-1.3 0-.8-.3-1.4-.8-1.9-.6-.5-1.3-.7-2.1-.7-.9 0-1.7.2-2.2.6-.6.4-1.1.9-1.4 1.6-.4.7-.7 1.8-1 3.1-.3 1.2-.6 2-1 2.4-.3.5-.7.7-1.1.8-.3.1-1.2.1-2.4.1v-5.5c0-1 .1-1.6.4-1.9.3-.4.9-.5 1.8-.5h.4v-.5h-9.7v.5h.4c.9 0 1.6.2 1.8.6.3.3.4 1.1.4 2.1v12.4c0 1-.2 1.7-.5 2-.3.2-1.1.4-2.1.4v.5h9.7v-.5q-1.5 0-2.1-.3c-.3-.3-.5-.9-.5-1.8v-6.2q.9 0 1.2.3c.2.1.5.6 1 1.4l3.8 7.1zm-26.5-14.3h-.5c-.2 1.5-.5 2.5-1 3.3-.6.7-1.4 1.1-2.6 1.1h-.3v-7.5h1.9c1.4 0 2.3 0 2.8.2.9.3 1.6.7 2.1 1.3.4.6.8 1.5 1.1 2.9h.5v-5.5h-15.5v.5h.6c.6 0 1.1.1 1.4.4.3.1.4.4.5.7.1.2.1.7.1 1.6v12.2c0 .9-.1 1.4-.2 1.7s-.3.5-.5.6c-.3.2-.7.3-1.3.3h-.6v.5h16l.8-5.9h-.5c-.4 1.7-1.2 2.9-2.2 3.7-1.1.8-2.4 1.2-4.2 1.2h-1.1c-.5 0-.9-.1-1.1-.2-.3-.2-.4-.3-.5-.6-.1-.2-.1-.8-.1-1.9v-5.2c.8 0 1.5.1 2 .4.4.2.9.7 1.2 1.3.4.7.6 1.6.7 2.6h.5zm-12.9-3.7v-.5h-15v.5c.9 0 1.5.1 1.9.3.3.1.5.3.7.7.1.3.1 1 .1 2v3.5c0 2.5-.1 4.5-.3 5.8-.2 1.4-.6 2.4-1.3 3.2q-.9 1.2-1.8 1.2c-.4 0-.6-.3-.7-.9-.1-1.3-.7-2-1.7-2-.6 0-1 .2-1.3.6-.3.3-.5.8-.5 1.4 0 .7.3 1.3.8 1.7.5.5 1.2.7 2.1.7s1.8-.2 2.6-.8c.9-.5 1.5-1.3 2-2.4.6-1.1.9-2.3 1-3.5s.2-3 .2-5.3v-5.5h4.4v14.5c0 .8 0 1.3-.2 1.5-.1.3-.4.5-.7.6-.3.2-.8.2-1.5.2v.5h9.3v-.5c-1 0-1.7-.2-2-.4-.3-.3-.4-1-.4-2v-12.9c0-.8.1-1.4.4-1.7.3-.4.9-.5 1.9-.5m-29.9-.9h-.2l-6.7 14.8c-.6 1.4-1.1 2.3-1.6 2.8-.4.4-1 .7-1.6.8v.5h6.2v-.5c-1 0-1.6-.2-1.9-.3-.4-.3-.6-.6-.6-1.2 0-.3.1-.8.4-1.4l.8-1.9h6.5l-.4-1h-5.6l2.8-6.3 2.8 6.3.4 1 1 2.4c.3.6.4.9.4 1 .1.1.1.3.1.5s-.1.5-.3.6q-.45.3-1.5.3h-.4v.5h9v-.5c-.6 0-1-.2-1.3-.5-.4-.3-1-1.2-1.6-2.7zm41.5-32.1c-.9-.6-2-.9-3.1-.9l-.3.9q.45 0 .9.3.6.6.9 1.8c.4 1.4.6 3 .6 4.6 0 .8 0 1.7-.1 2.7-.6.3-1.1.4-1.4.4-.7 0-1.2-.3-1.6-.9-.6-.9-.9-2.7-.9-5.2 0-1.5.2-2.5.5-3.1.3-.4.6-.6 1.1-.6l.3-.9c-1 0-1.9.3-2.9.9-.9.5-1.7 1.3-2.2 2.3s-.7 2.1-.7 3.4c0 1.7.4 3.1 1.4 4.1.9 1 2.1 1.5 3.5 1.5.4 0 .8 0 1.2-.1q.6-.3 1.5-.6c-.3 1.3-.7 2.4-1.3 3.4s-1.5 1.8-2.5 2.5c-1.1.7-2.3 1.2-3.9 1.5v.4c2.6-.1 4.7-.7 6.6-1.7 1.8-1.1 3.2-2.6 4.2-4.3.9-1.8 1.4-3.7 1.4-5.7 0-1.5-.3-2.8-.9-4-.5-1.1-1.3-2-2.3-2.7m-13.6.3c-.8-.8-1.9-1.2-3.1-1.2-1.3 0-2.4.4-3.5 1.2-1 .7-1.8 1.9-2.5 3.4l.5.2q1.35-2.1 3.3-2.1c.8 0 1.5.3 2 .9.6.5.9 1.1.9 1.9 0 .5-.2 1.1-.5 1.6-.3.6-.6 1-1 1.2-.4.3-1.1.5-2.2.8v.5c1.7.4 3 1.2 3.9 2.2.8 1.1 1.3 2.2 1.3 3.5 0 .8-.3 1.4-.8 2-.4.5-1 .8-1.7.8-.8 0-1.6-.4-2.5-1.1q-1.35-1.05-1.5-1.2c-.3-.1-.6-.2-.9-.2-.4 0-.7.2-1 .5s-.5.6-.5 1c0 .6.3 1.1.8 1.4.7.6 1.9.8 3.4.8 2.4 0 4.3-.7 5.7-2 1.4-1.4 2.1-3 2.1-4.9 0-1.2-.3-2.1-.9-2.9-.5-.7-1.4-1.4-2.4-1.9.8-.5 1.4-1 1.8-1.7.4-.6.6-1.3.6-2 0-1-.4-1.9-1.3-2.7m-14.4-.3c-.9-.6-2-.9-3.1-.9l-.3.9q.45 0 .9.3.6.6.9 1.8c.4 1.4.6 3 .6 4.6 0 .8 0 1.7-.1 2.7-.6.3-1.1.4-1.4.4-.7 0-1.2-.3-1.6-.9-.6-.9-.9-2.7-.9-5.2 0-1.5.2-2.5.5-3.1.3-.4.6-.6 1.1-.6l.3-.9c-1 0-1.9.3-2.9.9-.9.5-1.7 1.3-2.2 2.3s-.7 2.1-.7 3.4c0 1.7.4 3.1 1.4 4.1.9 1 2.1 1.5 3.5 1.5.4 0 .8 0 1.2-.1q.6-.3 1.5-.6c-.3 1.3-.7 2.4-1.3 3.4s-1.5 1.8-2.5 2.5c-1.1.7-2.3 1.2-3.9 1.5v.4c2.6-.1 4.7-.7 6.6-1.7 1.8-1.1 3.2-2.6 4.2-4.3.9-1.8 1.4-3.7 1.4-5.7 0-1.5-.3-2.8-.9-4-.5-1.1-1.3-2-2.3-2.7m-14.7-.9h-.5l-6.8 3.1.3.5c.6-.3 1.2-.4 1.7-.4.2 0 .5.1.7.2.3.2.4.3.5.6.1.2.1.7.1 1.6v9.6c0 1.1 0 1.9-.2 2.2-.1.3-.3.6-.6.7-.4.2-1 .3-1.7.3h-.5v.5h9.7v-.5h-.4q-1.05 0-1.5-.3c-.4-.2-.6-.4-.7-.7-.1-.4-.1-1.1-.1-2.2zm116.7-29.5c0-1.1.2-1.8.5-2.1.2-.4.8-.5 1.7-.5h.6v-.5h-9.9v.5h.6c.9 0 1.5.2 1.7.5.3.4.4 1 .4 2l-6.5 10.3v-10.2c0-1 .1-1.7.4-2.1.3-.3.8-.5 1.7-.5h.6v-.5h-9.9v.5h.6c.9 0 1.5.1 1.8.5q.3.45.3 2.1v12.2c0 1.1-.2 1.9-.4 2.2-.3.4-.9.5-1.7.5h-.6v.5h9.9v-.5h-.6q-1.5 0-1.8-.6c-.2-.3-.3-1-.3-1.9l6.5-10.2v10c0 1.1-.2 1.9-.4 2.2-.3.4-.9.5-1.7.5h-.6v.5h9.9v-.5h-.6c-.9 0-1.5-.1-1.7-.5-.3-.3-.5-1-.5-2.2zm-37.3-1.7c.1.2.1.8.1 1.8v12.2c0 .9 0 1.4-.1 1.7-.2.3-.3.5-.6.6-.3.2-.7.3-1.3.3h-.6v.5h9.7v-.5h-.6c-.5 0-.9-.1-1.2-.2-.4-.2-.6-.4-.7-.7-.1-.2-.1-.8-.1-1.7v-5.8h6.5v5.8c0 .9 0 1.4-.1 1.7-.2.3-.3.5-.6.6-.3.2-.7.3-1.3.3h-.6v.5h9.7v-.5h-.6c-.5 0-.9-.1-1.2-.2-.4-.2-.6-.4-.7-.7-.1-.2-.1-.8-.1-1.7v-12.2c0-1 0-1.5.1-1.8.2-.3.3-.5.6-.6.3-.2.7-.3 1.3-.3h.6v-.5h-9.7v.5h.6c.5 0 .9.1 1.3.3q.45.15.6.6c.1.2.1.8.1 1.8v5.2h-6.5v-5.2c0-1 0-1.5.1-1.8.2-.3.3-.5.6-.6.3-.2.7-.3 1.3-.3h.6v-.5h-9.7v.5h.6c.6 0 1 .1 1.3.3q.45.15.6.6m-11.1-6.9c-.5 0-.9.2-1.3.6-.3.3-.5.8-.5 1.3s.2.9.5 1.2c.4.4.8.6 1.3.6s.9-.2 1.3-.6c.3-.3.5-.7.5-1.2s-.1-1-.5-1.3c-.3-.4-.8-.6-1.3-.6m-2.3 5.5v.5h.6q.75 0 1.2.3.45.15.6.6c.1.2.2.8.2 1.8v12.2c0 .9-.1 1.4-.2 1.7s-.3.5-.5.6c-.3.2-.7.3-1.3.3h-.6v.5h9.7v-.5h-.6c-.6 0-1-.1-1.3-.2-.3-.2-.5-.4-.6-.7-.1-.2-.1-.8-.1-1.7v-12.2c0-1 0-1.5.1-1.8.2-.3.3-.5.6-.6.3-.2.7-.3 1.3-.3h.6v-.5zm7.4-5.5c-.5 0-.9.2-1.3.6-.3.3-.5.8-.5 1.3s.2.9.5 1.2c.4.4.8.6 1.3.6s1-.2 1.3-.6c.4-.3.5-.7.5-1.2s-.1-1-.5-1.3c-.3-.4-.8-.6-1.3-.6m-17.8 5.1h-.3l-6.6 14.8c-.7 1.4-1.2 2.3-1.6 2.8-.5.4-1 .7-1.7.8v.5h6.2v-.5c-.9 0-1.6-.2-1.8-.3-.4-.3-.6-.6-.6-1.2 0-.3.1-.8.3-1.4l.8-1.9h6.6l-.5-1h-5.6l2.8-6.3 2.8 6.3.5 1 1 2.4c.2.6.3.9.4 1 0 .1.1.3.1.5s-.1.5-.4.6q-.3.3-1.5.3h-.3v.5h8.9v-.5c-.5 0-1-.2-1.3-.5-.4-.3-.9-1.2-1.6-2.7zm-20.8 1.8c.2.2.2.8.2 1.8v12.1c0 1 0 1.6-.2 1.9q-.15.3-.6.6c-.3.1-.9.2-1.8.2v.5h9.5v-.5c-.9 0-1.5-.1-1.8-.2q-.45-.3-.6-.6c-.2-.3-.2-.9-.2-1.9v-14.2h.5q1.8 0 2.7.9.9 1.05.9 3c0 1.4-.3 2.5-.9 3.1-.6.7-1.4 1-2.5 1h-.7v1q3.15 0 4.5-.3c1.3-.3 2.3-.9 3.1-1.7.7-.9 1.1-1.9 1.1-3.1 0-1.5-.6-2.6-1.8-3.6-1.1-.9-3-1.4-5.7-1.4h-8.1v.5c.9 0 1.5.1 1.8.2.3.2.5.4.6.7m-4.3 2.3c.4-.4.6-.8.6-1.3 0-.8-.3-1.4-.8-1.9-.6-.5-1.3-.7-2.1-.7-.9 0-1.7.2-2.2.6-.6.4-1.1.9-1.4 1.6-.4.7-.7 1.8-1 3.1-.3 1.2-.6 2-1 2.4-.3.5-.7.7-1.1.8-.3.1-1.2.1-2.4.1v-5.5c0-1 .1-1.6.4-1.9.3-.4.9-.5 1.8-.5h.4v-.5h-9.7v.5h.4c.9 0 1.6.2 1.8.6.3.3.4 1.1.4 2.1v12.4c0 1-.2 1.7-.5 2-.3.2-1.1.4-2.1.4v.5h9.7v-.5q-1.5 0-2.1-.3c-.3-.3-.5-.9-.5-1.8v-6.2q.9 0 1.2.3c.2.1.5.6 1 1.4l3.8 7.1h6.2v-.5q-.9 0-1.5-.3c-.4-.3-.7-.7-1-1.2l-1.9-3.3c-.9-1.6-1.4-2.5-1.7-2.9-.2-.4-.5-.7-.8-.9-.3-.3-.8-.4-1.4-.6.5-.4.8-.9 1.1-1.5.2-.6.5-1.5.8-2.6.4-1.2.7-2.1.9-2.5.3-.5.7-.7 1.1-.7q.6 0 .6.9c.1 1.2.7 1.8 1.7 1.8.6 0 1-.2 1.3-.5m-31.8-1.6c-.2-.4-.3-.7-.3-.8 0-.6.5-.8 1.6-.8h.4v-.5h-9.3v.5c.8 0 1.4.2 1.8.5.5.3 1 1 1.5 2l6.6 12-.2.6c-.6 1.2-1.2 1.8-1.9 1.8q-.75 0-.9-1.2c-.1-.6-.3-1.1-.5-1.3-.2-.3-.6-.4-1.1-.4s-1 .2-1.3.5c-.4.4-.5.8-.5 1.3 0 .7.2 1.3.7 1.8.5.6 1.3.8 2.3.8.9 0 1.7-.2 2.3-.6q1.05-.6 2.4-3.3l5.7-11.3c.7-1.2 1.2-2.1 1.6-2.5s.9-.7 1.6-.7v-.5h-6.2v.5c1.1 0 1.9.1 2.1.3.3.2.5.5.5.8 0 .4-.3 1.1-.8 2l-3.5 7zm196.1-40.6c-.5 0-1 .2-1.3.6-.4.3-.5.8-.5 1.3s.1.9.5 1.2c.3.4.8.6 1.3.6s.9-.2 1.3-.6c.3-.3.5-.7.5-1.2s-.2-1-.5-1.3c-.4-.4-.8-.6-1.3-.6m.3 6.3c.4-.2.8-.3 1.3-.3h.6v-.5h-9.7v.5h.7q.75 0 1.2.3.45.15.6.6c.1.2.1.8.1 1.8v12.2c0 .9 0 1.4-.1 1.7q-.15.45-.6.6-.45.3-1.2.3h-.7v.5h9.7v-.5h-.6c-.5 0-.9-.1-1.2-.2-.3-.2-.5-.4-.6-.7-.1-.2-.2-.8-.2-1.7v-12.2c0-1 .1-1.5.2-1.8s.3-.5.5-.6m-5.4-6.3c-.5 0-1 .2-1.3.6-.4.3-.6.8-.6 1.3q0 .75.6 1.2c.3.4.8.6 1.3.6q.75 0 1.2-.6.6-.45.6-1.2c0-.5-.2-1-.5-1.3-.4-.4-.8-.6-1.3-.6m-6 20.9c1.4-1.8 2.1-3.9 2.1-6.2 0-2.8-1-5-2.8-6.9-1.9-1.8-4.3-2.7-7.2-2.6l.2.9c.9 0 1.7.3 2.4.8s1.3 1.3 1.7 2.5c.5 1.3.7 3.1.7 5.5q0 3.15-.6 5.1c-.5 1.2-1.1 2.2-1.9 2.7-.7.5-1.4.7-2.4.7-1.4 0-2.5-.5-3.2-1.6-1.1-1.5-1.7-3.8-1.7-7 0-2.6.4-4.7 1.1-6.1.9-1.7 2.2-2.6 3.9-2.6l-.2-.9c-2.8-.1-5.1.8-6.9 2.6-1.9 1.9-2.8 4.2-2.8 6.9 0 2.5.7 4.6 2.1 6.4 1.9 2.2 4.4 3.3 7.8 3.3 3.3 0 5.9-1.2 7.7-3.5m-19.5-14.9c-.5-.5-1.2-.7-2.1-.7s-1.6.2-2.2.6-1 .9-1.4 1.6c-.3.7-.6 1.8-1 3.1q-.45 1.8-.9 2.4c-.4.5-.7.7-1.1.8s-1.2.1-2.5.1v-5.5c0-1 .2-1.6.5-1.9.3-.4.9-.5 1.8-.5h.3v-.5h-9.7v.5h.4c1 0 1.6.2 1.9.6.2.3.3 1.1.3 2.1v12.4c0 1-.1 1.7-.4 2-.4.2-1.1.4-2.2.4v.5h9.7v-.5c-1 0-1.7-.1-2-.3q-.6-.45-.6-1.8v-6.2c.6 0 1 .1 1.3.3.2.1.5.6.9 1.4l3.8 7.1h6.2v-.5c-.5 0-1-.1-1.4-.3-.4-.3-.8-.7-1.1-1.2l-1.9-3.3c-.8-1.6-1.4-2.5-1.6-2.9-.3-.4-.5-.7-.9-.9-.3-.3-.7-.4-1.3-.6.4-.4.8-.9 1-1.5.3-.6.5-1.5.9-2.6.3-1.2.6-2.1.9-2.5.3-.5.6-.7 1.1-.7q.45 0 .6.9c.1 1.2.6 1.8 1.7 1.8.5 0 .9-.2 1.3-.5.3-.4.5-.8.5-1.3 0-.8-.2-1.4-.8-1.9m-29.7 2.5c0-.9.1-1.4.2-1.7l.6-.6c.3-.1.9-.2 1.8-.2v-.5h-9.6v.5c1.2 0 1.9.2 2.2.5.2.2.4 1 .4 2.4v12.3c0 .9-.2 1.6-.5 1.9-.3.2-1.1.4-2.2.4v.5h9.9c1.8 0 3.1-.2 4-.5 1-.4 1.7-1 2.3-1.7.6-.8.9-1.7.9-2.8 0-1.5-.6-2.8-1.8-3.7-1.1-.9-3.1-1.4-5.7-1.4h-2.5v1.2c1.2 0 2 .1 2.6.3s1.2.6 1.7 1.3.7 1.6.7 2.6c0 1.1-.3 2-.8 2.7-.6.8-1.4 1.1-2.4 1.1-.7 0-1.1-.2-1.4-.5-.2-.4-.4-1-.4-1.9zm-10.8-2.1c-.2 0-.7-.1-1.6-.5-1.4-.5-2.8-.8-4.1-.8-1.8 0-3.5.4-5 1.3-1.6.8-2.8 2.1-3.8 3.7-.9 1.5-1.4 3.2-1.4 5 0 1.7.4 3.3 1.3 4.7.8 1.5 2 2.7 3.5 3.5 1.6.7 3.3 1.1 5.3 1.1 1.5 0 2.8-.2 4-.7 1.1-.5 2.2-1.3 3.2-2.3v-1.6c-1.1 1.2-2.1 2.1-3.1 2.6-.9.5-2 .8-3.2.8-1.4 0-2.6-.4-3.4-1.1-.9-.7-1.6-1.7-2-3.1-.4-1.3-.6-2.9-.6-4.5 0-1.7.3-3.2.8-4.6.5-1.1 1.2-2 2.1-2.6 1-.7 2.1-1 3.2-1 1.4 0 2.6.4 3.7 1.3s1.9 2.2 2.3 3.9h.5v-6.4h-.5c-.1.4-.2.8-.4 1-.3.2-.5.3-.8.3m-20.9.4c.6.3 1.1.7 1.4 1.2.4.5.7 1.4 1 2.5h.5v-5h-16.7v5h.6c.2-1.3.7-2.4 1.5-3.2.5-.5 1.4-.7 2.7-.7h1.3v14.3c0 .9 0 1.4-.1 1.7-.2.3-.3.5-.6.6-.3.2-.7.3-1.3.3h-.6v.5h9.7v-.5h-.6c-.6 0-1-.1-1.3-.2-.3-.2-.5-.4-.6-.7-.1-.2-.1-.8-.1-1.7v-14.3h1.3c.9 0 1.5 0 1.9.2m-22.2-1.7h-.2l-6.7 14.8c-.6 1.4-1.1 2.3-1.6 2.8-.4.4-1 .7-1.6.8v.5h6.2v-.5c-1 0-1.6-.2-1.9-.3-.4-.3-.6-.6-.6-1.2 0-.3.1-.8.4-1.4l.8-1.9h6.5l-.4-1h-5.6l2.8-6.3 2.8 6.3.4 1 1 2.4c.3.6.4.9.4 1 .1.1.1.3.1.5s-.1.5-.3.6q-.45.3-1.5.3h-.4v.5h9v-.5c-.6 0-1-.2-1.3-.5-.4-.3-1-1.2-1.6-2.7zm-13.5 3.6c0-1.1.1-1.8.4-2.2.3-.3.9-.5 1.7-.5h.5v-.5h-20.7v.5h.6c.9 0 1.4.1 1.7.5.2.3.3 1.1.3 2.2v12.1c0 1.2-.1 1.9-.4 2.3-.2.3-.8.4-1.6.4h-.6v.5h9.7v-.5h-.5c-.8 0-1.4-.1-1.7-.4s-.4-1.1-.4-2.3v-14.1h6.5v14.1q0 1.65-.3 2.1c-.2.4-.8.6-1.7.6h-.6v.5h9.7v-.5h-.4c-.9 0-1.4-.1-1.7-.4-.4-.3-.5-1.1-.5-2.3zm-21.2-1.8c-1.2-.9-3.1-1.4-5.7-1.4h-8.1v.5c.8 0 1.4.1 1.7.2.3.2.5.4.7.7.1.2.2.8.2 1.8v12.1c0 1-.1 1.6-.2 1.9-.2.2-.4.4-.7.6-.3.1-.9.2-1.7.2v.5h9.4v-.5c-.8 0-1.4-.1-1.7-.2-.3-.2-.5-.4-.7-.6-.1-.3-.2-.9-.2-1.9v-14.2h.6q1.8 0 2.7.9.9 1.05.9 3c0 1.4-.3 2.5-.9 3.1-.6.7-1.5 1-2.6 1h-.7v1q3.15 0 4.5-.3c1.3-.3 2.4-.9 3.1-1.7.8-.9 1.1-1.9 1.1-3.1 0-1.5-.6-2.6-1.7-3.6m-14.8 17.1v-.5c-.6 0-1-.2-1.3-.5-.4-.3-1-1.2-1.6-2.7l-6.7-15.2h-.2l-6.7 14.8c-.6 1.4-1.1 2.3-1.6 2.8-.4.4-1 .7-1.6.8v.5h6.2v-.5c-1 0-1.6-.2-1.9-.3-.4-.3-.6-.6-.6-1.2 0-.3.1-.8.4-1.4l.8-1.9h6.5l-.4-1h-5.6l2.8-6.3 2.8 6.3.4 1 1 2.4c.3.6.4.9.4 1 .1.1.1.3.1.5s-.1.5-.3.6q-.45.3-1.5.3h-.4v.5zm-20.6-16.1c0-.8-.2-1.4-.8-1.9-.5-.5-1.2-.7-2.1-.7s-1.6.2-2.2.6-1 .9-1.4 1.6c-.3.7-.6 1.8-1 3.1q-.45 1.8-.9 2.4c-.4.5-.7.7-1.1.8s-1.2.1-2.5.1v-5.5c0-1 .2-1.6.5-1.9.3-.4.9-.5 1.8-.5h.3v-.5h-9.7v.5h.4c1 0 1.6.2 1.9.6.2.3.3 1.1.3 2.1v12.4c0 1-.1 1.7-.4 2-.4.2-1.1.4-2.2.4v.5h9.7v-.5c-1 0-1.7-.1-2-.3q-.6-.45-.6-1.8v-6.2c.6 0 1 .1 1.3.3.2.1.5.6.9 1.4l3.8 7.1h6.2v-.5c-.5 0-1-.1-1.4-.3-.4-.3-.8-.7-1.1-1.2l-1.9-3.3c-.8-1.6-1.4-2.5-1.6-2.9-.3-.4-.5-.7-.9-.9-.3-.3-.7-.4-1.3-.6.4-.4.8-.9 1-1.5.3-.6.5-1.5.9-2.6.3-1.2.6-2.1.9-2.5.3-.5.6-.7 1.1-.7q.45 0 .6.9c.1 1.2.6 1.8 1.7 1.8.5 0 .9-.2 1.3-.5.3-.4.5-.8.5-1.3m34.4-35.4v.5c1.2 0 1.9.1 2.2.5.4.3.5.9.5 2v12.7c0 .9-.1 1.6-.4 1.9-.4.2-1.1.4-2.3.4v.5h10c1.7 0 3.1-.2 4-.5.9-.4 1.7-1 2.3-1.7.6-.8.9-1.7.9-2.8 0-1.5-.6-2.8-1.8-3.7s-3.1-1.4-5.8-1.4h-2.4v1.2c1.1 0 2 .1 2.6.3s1.1.6 1.6 1.3.8 1.6.8 2.6q0 1.65-.9 2.7c-.5.8-1.3 1.1-2.4 1.1-.6 0-1.1-.2-1.3-.5-.3-.4-.4-1-.4-1.9v-14h3.4c1.1 0 2 .1 2.6.3.5.3 1 .7 1.4 1.2.5.6.8 1.4.9 2.3h.5v-5zm-16.8 0v.5c.8 0 1.4.1 1.7.2.3.2.5.4.7.7.1.2.2.8.2 1.8v12.1c0 1-.1 1.6-.2 1.9-.2.2-.4.4-.7.6-.3.1-.9.2-1.7.2v.5h9.4v-.5c-.8 0-1.4-.1-1.7-.2-.3-.2-.5-.4-.7-.6-.1-.3-.2-.9-.2-1.9v-14.2h.6q1.8 0 2.7.9.9 1.05.9 3c0 1.4-.3 2.5-.9 3.1-.6.7-1.5 1-2.6 1h-.7v1q3.15 0 4.5-.3c1.3-.3 2.4-.9 3.1-1.7.8-.9 1.1-1.9 1.1-3.1 0-1.5-.6-2.6-1.7-3.6-1.2-.9-3.1-1.4-5.7-1.4zm-3.3 0h-15.6v.5h.7c.6 0 1 .1 1.4.4.2.1.4.4.5.7v13.8c0 .9 0 1.4-.1 1.7q-.15.45-.6.6-.45.3-1.2.3h-.7v.5h16.1l.8-5.9h-.5c-.5 1.7-1.2 2.9-2.3 3.7-1 .8-2.4 1.2-4.1 1.2h-1.1c-.6 0-.9-.1-1.2-.2-.2-.2-.4-.3-.5-.6 0-.2-.1-.8-.1-1.9v-5.2c.9 0 1.6.1 2 .4.5.2.9.7 1.3 1.3.3.7.5 1.6.6 2.6h.6v-9.7h-.6c-.1 1.5-.4 2.5-1 3.3-.5.7-1.4 1.1-2.5 1.1h-.4v-7.5h1.9c1.4 0 2.4 0 2.9.2.9.3 1.6.7 2 1.3.5.6.9 1.5 1.1 2.9h.6zm-17 0h-16.4v.5h.6c.9 0 1.4.2 1.7.5q.3.6.3 1.8v12.8c0 1-.1 1.7-.4 2s-.8.4-1.6.4h-.6v.5h9.7v-.5h-.5c-.8 0-1.3-.1-1.6-.4-.4-.3-.5-1-.5-2v-14.4h3.8c1.4 0 2.4.1 2.9.2.5.2.9.5 1.2 1 .4.5.7 1.4.9 2.6h.5z" style="stroke-width:4.35248"/>
      <path fill="#2475b1" d="M1.25 529.05c.8 28.5 20.2 42.6 58.4 42.4h147.8c16.6.6 28.8 7.6 36.6 21.1V1.25H1.25z" style="stroke-width:1.93444"/>
      <g style="stroke-width:1.93444">
        <path fill="#fdcc00" d="M244.05 327.25v-81.5H1.25v81.5zm0-163v-81.5H1.25v81.5zM1.25 408.65v81.2h242.8v-81.2z" style="stroke-width:4.35248"/>
      </g>
      <path fill="#d90000" d="M440.75 33.45c-4 0-7.9-.1-11.8-.3-2.5-.2-4.8-.1-7.1.4q.45-6.9-3.6-10.2c-5.2 1.2-9 3.4-11.5 6.8-1.5-.8-3-1.5-4.5-2-1.2-.5-2.5-.9-3.8-1.2-5.5-1.1-10.7-1.2-15.7-.1l-1.6 8.2c-2.1 4.1-1.7 7.4 1.3 10 .6.6 1.5.8 2.6.5 3.2-1.1 4.7-2.6 4.5-4.6q2.7 1.5 6.3 1.8c.8.4.2 2-1.7 4.8-1.5 2.1-3.2 3.3-5.2 3.6q-8.25 1.5-15-5.1c2.1-2.5 3.1-5.8 2.9-10 1.5-.2 2.9-.6 4.3-1l1.6-8.2c-5 1.1-10 1.4-15.2.9-.7 1.7-1.1 3.2-1.1 4.4-2.2-.3-4.5-.5-6.6-.6-3.6-.1-7.1 0-10.5.5-4.1.5-8.5.6-13.3.4.6 3.6 1.5 7 2.6 10.2-1 4.8-.9 9.1.4 12.9 1.1 3.3 3.5 6 7.3 8-.1 6.1 2.1 10.6 6.5 13.5.9.5 1.9.8 3.2.9-.9-3.9-.5-7.5 1.1-10.8.9.1 1.6.1 2.3 0 .9 1.9 2.1 3.7 3.8 5.2 1.6 1.5 3.6 2.8 5.9 3.8.2 0 .4.1.6.2 4.5 1.9 8.4 4.5 11.7 7.9.4.4.7.8 1.1 1.2q-3.75-.75-7.5-1.8c-2.2-.6-4.5-1-6.7-1.1-3.1-.3-6.2-.1-9.3.3-5 .7-9.8 1.5-14.5 2.3-5.6 1.1-10.9.8-15.9-.7-5.3-1.7-8.8-4.6-10.6-8.8.8 5.4 3.2 9.8 7.2 13.1 4.3 3.4 9 5.4 14.2 5.8 6 .5 10.9-.2 14.8-2.2l5.9-1.4c4.2-.6 8.3-.4 12.1.6s7.5 3 11.2 6.2q-1.35 1.95-4.5 1.5c-4.5-.6-8.8-1.3-13-2-2.8-1.6-4.7-3.7-5.8-6.3l-5.9 1.4c-.8 1.9-1.4 4.1-1.6 6.8.4 4.8 3.1 6.8 8 5.9 4.6.3 9.1 1.7 13.6 4.2 2.6 1.4 5.4 2.4 8.3 3-2.7 3.5-5 7.6-6.8 12.4-2 5.1-4 10.2-6.1 15.2-1.6 3.8-3.1 7.1-4.5 10-1.8 2.5-3.7 5.5-5.7 8.9-1.8 3-3.6 6.3-5.3 9.7s-3.4 6.7-5 10c-1.8 3.3-3.5 6.6-5.1 10.1-1.5 3.2-3.3 6.4-5.4 9.5-1.8 2.8-4 5.5-6.4 8-2.6 2.5-5.4 4.8-8.4 6.7-2.9 1.9-6.1 3.5-9.6 4.7-1.4.5-2.9.8-4.6.8h-24.7c-4.2-.2-8.2-.4-11.8-.5-4-.2-7 .9-8.9 3.3l-.3.3c-4.3-.1-7.2 1.4-8.8 4.6-.5.9-.9 1.8-1.1 2.7 1.3-1.3 3.4-1.5 6.4-.6-.5.4-1 .8-1.4 1.2-2.6 2.4-4.5 5.1-5.6 8.2q-4.05 3.15-3.6 9.9v2c2-2.4 4.4-4.5 7.3-6.1.3-.2.7-.4.9-.6-.2 2.3.9 3.6 3.2 3.9 1 1.1 1.4 2.3 1.4 3.9-1.5 1.1-3 3.4-4.3 7-.4 1-.6 2.1-.6 3.4v2.6c2.5-1.4 4.9-3.3 7.3-5.8 1.9.2 3.5.7 5 1.4.1.1.2.1.3.2.2.1.4.2.7.4-.4.3-.7.7-1 1.2-1.8 2.6-2.5 5.4-1.9 8.4 1.7-2.7 3.9-4.9 6.5-6.6.1 0 .2-.1.2-.1 3.6.6 7.1.6 10.7 0 1.9-.4 3.2-1.7 3.9-4q.45-2.4 3.9-1.5c2.1-1.8 4.5-3.2 7.1-4.1.7-.3 1.4-.5 2.1-.7l-.1 1c2.8.5 5.7.6 8.6.6 3.7-.1 7 .6 9.9 1.9 2.9 1.5 6.2 2.4 10 2.9 2 .3 4 .4 6 .5-.4 4.3-1.8 7.6-4.3 9.8-2.3 2.1-4.8 4-7.5 6s-5.3 4.5-7.7 7.3c-1.7 2-2.9 4.3-3.5 7-.2.9-.3 1.9-.4 3-.4 2.9-.4 6.7-.1 11.2 2-2.9 4.3-5.1 7-6.8l-.2-.3h.6c-.4 1.9-.5 3.5-.5 4.9-.5 3.3-.7 7-.5 11.2 0 .8.1 1.6.4 2.3 2-2.5 4.1-4.5 6.4-6.3.4 0 .8-.1 1.1-.3.1 3.4.5 6.3 1.2 8.6 2-3.5 4.2-6.3 6.6-8.5.3 0 .5-.1.8-.2.3-.2.6-.3 1-.5.1-.1.2-.1.3-.2 1.1-.6 1.8-1.5 2.2-2.7.5 1.5 1.2 2.5 2.3 3.3-1 3.5-.1 6.2 2.5 8 .5-2.5 1-4.8 1.2-6.8.7 0 1.5-.1 2.3-.2 3.7-.4 5.3-3.1 4.7-8-.5-4.5.5-7.6 3.2-9.5 1.5-1 2.7-1.9 3.7-2.6l-5.5-8.3h-.1v-.2c0 .1 0 .1.1.2l5.5 8.3c.9 1.6 1.8 3.3 2.5 5.1 1.3 3.3 1.8 7.1 1.6 11.3-.1 3.9-.3 7.7-.5 11.5-.2 4.1-.6 8-1 11.8-.6 3.9-.8 7.9-.7 11.9v11.8c0 .9 0 2.9.1 6.1h.3c-.1.2-.2.4-.3.7-1.4 3-3 6.1-4.8 9.1-1.9 3.1-3.8 6.2-5.6 9.2-1.9 3.2-3.6 6.5-5 9.8a81 81 0 0 0-3.9 10.5c-1.2 3.4-2.2 6.9-3.2 10.4-1.2 3.8-2.3 7.6-3.4 11.3-1.2 3.8-2 7.6-2.5 11.5s-1.1 7.8-1.5 11.5c-.6 3.7-1 7.7-1.1 11.7-.2 4-.4 8-.4 12-.1 4-.3 7.9-.6 11.8s-.4 7.9-.4 11.9v2.7c-.1 1-.1 1.9-.1 2.9-4.9 1.1-8.2 1.7-9.8 1.7-.5-.1-1 0-1.6 0-1.2-2.3-2.7-4.2-4.6-5.7-1.7-1.4-3.3-2.8-5-4.2-.8-.7-1.7-1.4-2.5-2.1-2.9-2.3-6.2-3.4-9.9-3-.8 0-1.7.1-2.5.1 2 1 3.7 2.5 4.9 4.6-1.6 2-2 4.7-1.3 8.2v.1-.1c-.2-.1-.4-.2-.7-.2-3.3-1.1-6.7-.8-10.3.7-2.6 1.1-4.6 2.4-6.1 3.8 3.3-.2 6.6 0 9.9.4.2 0 .5.1.8.1l-.8-.1c-.7 5.1.1 8.8 2.1 11-.1.2-.3.3-.5.4-.5.4-1.1.8-1.6 1.3-2.1 1.8-4 3.8-5.5 6.1-1.4 2.3-2.5 4.3-3.4 6.1 1.5-2.1 4.5-3 8.8-2.6-.4 3.8 1.2 5.6 4.9 5.3-.3.3-.6.7-.9 1-2.6 3-4.3 6-5.2 9 1.2-2.2 3.3-3.4 6.4-3.6 1.3 3.2 4 4.7 8.3 4.4 2.5-.1 4.7-.9 6.5-2.3.3-.2.5-.5.8-.7 3 .4 6 .9 9 1.4.5.1 1.1.2 1.6.4 1.9.4 3.6.8 5.2 1.4 1.5.4 3.1.6 4.7.7 3.4.1 6.8 0 10.5-.3 3.4-.3 6.6-.8 9.4-1.5 2.9-.6 5.4-2.1 7.7-4.2 2.2-2.2 4.5-5.4 6.6-9.5s3.5-8 4.2-11.6c.5-3.6.8-7.3.8-11-.1-3.7-.1-7.4-.1-11.1v-11.9c0-2.1 0-3.9.1-5.5 2.8-1.6 5.6-3.1 8.4-4.6 3.1-1.8 6.2-3.5 9-5.4 2.7-1.7 5.5-3.5 8.4-5.3q4.2-2.85 7.8-6.3c2.4-2.2 4.3-4.5 5.9-6.9.5 3.4 1.2 6.2 2.2 8.4 1.4 3.3 2.7 6.6 4 10 1.3 3.1 3 6.3 4.9 9.5 1.6 2.5 3.4 5.4 5.6 8.5 1.9 3.1 4.2 5.8 6.7 8.2 2 2 3.2 4.5 3.5 7.5s.3 5.9 0 8.6c-2-.6-3.9-1.4-5.6-2.2-1.5-.8-1.8-1.4-.9-2.1-1.2-2.3-2.8-4.2-4.6-5.7-1.7-1.4-3.4-2.8-5-4.1-.9-.8-1.7-1.5-2.5-2.2-2.9-2.3-6.2-3.4-9.9-3-.9.1-1.7.1-2.5.1 2 1 3.7 2.5 4.8 4.6-1.5 2-2 4.7-1.2 8.2v.1-.1c-.3-.1-.5-.2-.7-.2-3.4-1.1-6.8-.8-10.3.7-2.6 1.2-4.7 2.4-6.2 3.9 3.4-.2 6.7-.1 10 .3.2 0 .5.1.8.1h-.8c-.7 5.1 0 8.7 2.1 11-.1.1-.3.2-.5.4-.5.4-1.1.8-1.6 1.2-2.2 1.8-4 3.8-5.5 6.1-1.4 2.3-2.5 4.3-3.5 6.1 1.6-2.1 4.5-3 8.8-2.6-.4 3.8 1.3 5.6 5 5.3-.4.3-.7.7-.9 1-2.7 3-4.4 6-5.2 9 1.1-2.2 3.3-3.4 6.3-3.6 1.4 3.2 4.1 4.7 8.3 4.4 2.5-.1 4.7-.9 6.6-2.3l.7-.7c-.1.2-.3.4-.5.5 5.6-.4 9.6-.4 12 .1 3.3.8 6.8 1.1 10.6.9l10.8-.3c3.4-.1 6.6-.9 9.8-2.3q4.05-2.1 5.7-6.9c1.1-3.3 1.7-7.1 1.7-11.4 0-3.9-.3-7.8-.9-11.4-.6-3.8-1-7.7-1.2-11.5q-.3-6-1.8-11.7c-1.1-3.4-2.2-7-3.5-10.5-1.4-3.5-2.6-7.2-3.5-10.9-.8-3.7-1.3-7.5-1.3-11.3.1-3.7.2-7.4.3-11.2.1-3.9.3-7.6.7-11.3.2-.6.4-1.3.6-1.9 1-3.7 1.5-7.6 1.4-11.6-.1-4.1-.4-8.2-.7-12.5.4.1.9.1 1.4.1 2.2-.1 4-1.1 5.6-3 2.3-2.7 2.8-6.1 1.6-10-.3-1.2-.6-2.3-1.1-3.6-1.3-3.3-2.4-6.8-3.3-10.3-.8-3-1.1-6.2-1-9.4 2.4-12.8 3.9-25.7 4.7-38.6 1.8-34.8-2.5-70.2-13-106.3 0-.3 0-.5.1-.8q.9-11.1 1.5-21.6c.4-9.9.7-19.8.8-29.8 0-9.9-2.2-20.9-6.7-32.9-4.6-12-7.2-21.1-8.1-27.3-.8-6.2-2.6-13.5-5.6-22-2.9-8.4-4.4-18-4.4-28.6.5-.5 1-1 1.4-1.5 2-2.1 3.3-4.7 3.9-7.5 1.3-5.6 1.4-11.1.2-16.5" style="stroke-width:1.93444"/>
      <g style="stroke-width:1.93444">
        <path fill="none" stroke="#fff" stroke-linecap="round" stroke-linejoin="round" d="M437.35 369.85c1.3 2.8 2 6.1 2 10-.1 4.2-.7 8-1.8 11.6-1 3.3-2.1 6.7-3 10.3.2-1.4 0-2.2-.6-2.6-2.6-2.4-5.3-4.3-8.2-5.8.4.9.6 1.9.7 3 .3 4 .1 7.8-.7 11.6-.6 4-2 6.8-4.2 8.7-2.7 2.3-4.9 4.7-6.5 7.3s-3.1 5.6-4.6 8.7c0-.7-.2-1.4-.5-2-1.5-2.3-3-5.3-4.4-9 .1.9.2 1.8.3 2.6.2 2.1 0 3.9-.4 5.7-1.3 4-3 6.6-5.4 8.1-3.2 1.7-5.6 4.2-7.3 7.3 0-1.9-.2-3.8-.6-5.6-.6-3.4-1.9-6.6-4-9.6q0 2.25.3 4.5c.6 4.6-.6 7.9-3.7 10-2.7 1.8-5.6 3.7-8.4 5.6-2.9 1.9-4.5 4.6-4.9 8.2m63.1-409.4c-3.1 3.4-6.4 6.9-9.9 10.2m-44.2 181.9c-2.9 2-5.6 4.2-8.3 6.7-2.5 2.2-5.7 3.2-9.5 3-3.7-.3-7.2-.4-10.6-.4 1.9-2.3 2.8-5.4 2.9-9.5-1.4 2.8-3.3 5-5.8 6.4-1.4.7-2.7 1.1-4.1 1.4-3.5.6-7 1-10.6 1.4.7-1.1 1.5-1.9 2.4-2.5 3-2.4 4.2-5.8 3.5-10.2-.7 2.9-2.3 5-5 6.2-1.5.8-3.1 1.8-4.8 2.8q-3.6 2.25-9.3 2.4c.8-.2 1.5-.9 2-2 1.4-3 2.2-6.5 2.2-10.5m46-45.2c-1.6 1.2-3.9 1.6-6.7 1.4-3.4-.4-6.8-.6-10.3-.6 2.3-.1 4.1-1 5.6-2.6q3.6-4.65 7.2-8.1c-.7.6-1.6.9-2.8.9-3-.1-6.1-.2-9.1-.2.3-.1.7-.2 1-.4 1.6-.9 2.9-2 3.9-3.4 2.3-2.8 4.4-5.8 6.3-9.2 2-3.4 3.8-6.7 5.6-10.1 1.5-2.9 3.4-6.2 5.5-9.8.8-1.2 1.5-2.5 2.2-3.6m19.6-38.5c3.1 2.1 4.5 5.8 3.9 10.8 5-1.3 7.7-5.2 7.9-11.7.3-6.2-.8-11.3-3.2-15.3 4.8 2.4 7.8 6.4 9.1 12.2 1.7-2.4 2.8-5 3.5-7.8 1.1-5.2.3-9-2.5-11.3-4.1-3.5-7-7.7-8.5-12.5.8.7 1.6 1.4 2.5 1.9 4.3 2.4 8 5.8 10.8 10.2.9-1.4 1.5-3 1.6-4.7.3-6.7-1.8-11.3-6-13.9q-6.6-4.2-5.7-14.1m26.9 428.6c.1-2-.2-3.8-1.1-5.3-1.9-2.8-4-5.8-6.2-9.2-2.1-3.2-3.7-6.3-4.9-9.2-1.9 1.3-3 3.2-3.2 5.8-1.7-2.6-3.4-5.5-4.8-8.5-1.8-3.5-2.5-7.6-2.3-12.1m45.2 83.4c-2.5.3-4.8-.1-6.8-1.1-3.1-1.4-5.5-3.8-7-7.3-.1 2.9-.5 5.6-1.1 7.8-.7-1.8-1.8-3.3-3.1-4.6-2.6-2.9-3.7-6.6-3.3-10.9m-101.8-41.3c-.1-3.2-.1-6.3.2-9.2.2-3.2.7-6.2 1.5-9.1 1-3.5 2.7-6.3 5-8.5-3 0-5.2 1.2-6.7 3.8.5-1.2.7-2.7.7-4.3-.2-2.1 0-4.1.7-6.1 1.2-3.7 2.5-7.1 3.9-10.3m-20.9 87.8c0-2.4.2-4.8.4-7.4.4-3.7 2.1-6.4 5.1-8.3.2 3.1 1.2 5.9 3 8.3 1.3 1.7 2.5 3.2 3.6 4.6" style="stroke-width:4.35248"/>
      </g>
      <path d="M385.15 45.55c3.1-1 4.6-2.6 4.4-4.6-2.4-1.5-4.3-3.8-5.7-7-.9.4-1.7.7-2.6 1-2.2 4.2-1.8 7.5 1.2 10.1.7.6 1.5.8 2.7.5" style="stroke-width:4.35248"/>
      <g fill="none" stroke="#fff" stroke-linecap="round" stroke-linejoin="round" style="stroke-width:1.93444">
        <path d="M326.55 290.25c-.4 3.9-2.3 6-5.7 6.1m63-262.4c-.9.4-1.8.7-2.7 1.1-1.4.4-2.8.8-4.3 1m0 0c-.7.2-1.5.3-2.2.4-5.6.7-8.3-.7-8.2-4.3m40.3-2c-1.5-.8-3-1.5-4.5-2-1.2-.5-2.5-.9-3.8-1.2-5.5-1.1-10.7-1.2-15.7-.1s-10 1.4-15.2.9c-.7 1.7-1.1 3.2-1.1 4.4m0 0c-2.2-.3-4.5-.5-6.6-.6-3.6-.1-7.1 0-10.5.5-4.1.5-8.5.6-13.3.4.6 3.6 1.5 7 2.6 10.2m83.2-9.1c-2.8.5-5.5 1.6-7.9 3.3-.5-1.7-1.5-3.1-3.1-4.2-1.3-1-2.7-1.8-4.1-2.5" style="stroke-width:4.35248"/>
        <path d="M421.85 33.55q.45-6.9-3.6-10.2c-5.2 1.2-9 3.4-11.5 6.8m-17.9 1c-1.6 1.1-3.3 2-5 2.8m17.5 9-5.5-.2q-3.6-.3-6.3-1.8c-2.5-1.5-4.4-3.8-5.7-7m53 4.5c-1.1.1-2.1.3-3.1.5-4.7 1.3-7.5 5.1-8.5 11.5-.5 2.9-.6 5.9-.6 8.9.1 2.6.4 5.3.9 7.9 3.6-2.5 6.9-5.3 9.7-8.3m-63.4-10.8q1.2-1.05 2.1-2.1c2.1-2.5 3.1-5.8 2.9-10m-19.7 31.1c-2.3-.2-5.3-1.1-8.9-2.7-.6-.3-1.3-.6-1.9-.9" style="stroke-width:4.35248"/>
        <path d="M346.35 63.55c-.1 6.1 2.1 10.6 6.5 13.5.9.5 1.9.8 3.2.9-.9-3.9-.5-7.5 1.1-10.8" style="stroke-width:4.35248"/>
        <path d="M357.15 67.15c.9.1 1.6.1 2.3 0 .9 1.9 2.1 3.7 3.8 5.2 1.6 1.5 3.6 2.8 5.9 3.8.2 0 .4.1.6.2 4.5 1.9 8.4 4.5 11.7 7.9.4.4.7.8 1.1 1.2" style="stroke-width:4.35248"/>
        <path d="M382.55 85.45q-3.75-.75-7.5-1.8c-2.2-.6-4.5-1-6.7-1.1-3.1-.3-6.2-.1-9.3.3-5 .7-9.8 1.5-14.5 2.3-5.6 1.1-10.9.8-15.9-.7-5.3-1.7-8.8-4.6-10.6-8.8.8 5.4 3.2 9.8 7.2 13.1 4.3 3.4 9 5.4 14.2 5.8 6 .5 10.9-.2 14.8-2.2" style="stroke-width:4.35248"/>
        <path d="M383.45 97.75c-3.7-3.2-7.4-5.2-11.2-6.2s-7.9-1.2-12.1-.6m5.8 6.3c4.2.7 8.5 1.4 13 2q3.15.45 4.5-1.5m-30.8 1.4c.4 4.8 3.1 6.8 8 5.9 4.6.3 9.1 1.7 13.6 4.2 2.6 1.4 5.4 2.4 8.3 3m-28.3-19.9c-.8 1.9-1.4 4.1-1.6 6.8m0 0c2.3-2.7 5.9-3.5 10.8-2.5.8.2 1.7.4 2.5.6m-.8 52.6c1.2-1.6 2.8-4 4.7-7.2 1.9-3.1 3.8-5.4 5.8-6.7 1.9-1.3 4.6-2.2 7.9-2.7" style="stroke-width:4.35248"/>
        <path d="M382.55 112.25c-2.7 3.5-5 7.6-6.8 12.4-2 5.1-4 10.2-6.1 15.2-1.6 3.8-3.1 7.1-4.5 10m.8-52.6c-2.8-1.6-4.7-3.7-5.8-6.3m39.3 16c-1.8 3.6-5.1 5.6-9.9 5.8-2.5 0-4.8-.2-7-.5m-22.4-21.3c-.5-1.1-.9-2.3-1-3.6-2.1.9-3.7 2.6-4.9 5m29.2 5.4q2.4-8.4-.9-12.3m75.1 136.5c0-.3 0-.5.1-.8q.9-11.1 1.5-21.6c.4-9.9.7-19.8.8-29.8 0-9.9-2.2-20.9-6.7-32.9-4.6-12-7.2-21.1-8.1-27.3-.8-6.2-2.6-13.5-5.6-22-2.9-8.4-4.4-18-4.4-28.6m-96.6-16.3c-1 4.8-.9 9.1.4 12.9 1.1 3.3 3.5 6 7.3 8m18.8 86.3c-1.8 2.5-3.7 5.5-5.7 8.9-1.8 3-3.6 6.3-5.3 9.7s-3.4 6.7-5 10c-1.8 3.3-3.5 6.6-5.1 10.1-1.5 3.2-3.3 6.4-5.4 9.5-1.8 2.8-4 5.5-6.4 8-2.6 2.5-5.4 4.8-8.4 6.7-2.9 1.9-6.1 3.5-9.6 4.7-1.4.5-2.9.8-4.6.8h-24.7c-4.2-.2-8.2-.4-11.8-.5-4-.2-7 .9-8.9 3.3l-.3.3m-3.5 6.7.1-.1m3.4-6.6c-4.3-.1-7.2 1.4-8.8 4.6-.5.9-.9 1.8-1.1 2.7 1.3-1.3 3.4-1.5 6.4-.6m0 0c-.5.4-1 .8-1.4 1.2-2.6 2.4-4.5 5.1-5.6 8.2m7.8 9.1c.8-2.1 1.5-3.7 2.1-4.9 1.6-3 4.1-5.2 7.4-6.5m-17.3 2.3q-4.05 3.15-3.6 9.9v2c2-2.4 4.4-4.5 7.3-6.1.3-.2.7-.4.9-.6m0 0c-.2 2.3.9 3.6 3.2 3.9" style="stroke-width:4.35248"/>
        <path d="M253.45 237.45c1.5-.5 2.9 0 4.2 1.3 1.5 1.5 1.6 2.8.4 3.9m4.6 7.8c-1.5 1.1-3 3.4-4.3 7-.4 1-.6 2.1-.6 3.4v2.6c2.5-1.4 4.9-3.3 7.3-5.8m-3.8-11.1c1 1.1 1.4 2.3 1.4 3.9m37.8 2.5c.7.1 1.3.2 2 .3 2.8.5 5.7.6 8.6.6 3.7-.1 7 .6 9.9 1.9 2.9 1.5 6.2 2.4 10 2.9 2 .3 4 .4 6 .5m12.6 3.2h-1.7c1.2-2 2.3-4.1 3.2-6.2q-3.9 2.7-9.3 3-2.4.15-4.8 0m-11.5-22.8c-1.1 1.2-2.2 2.6-3.4 4.3-1.9 2.8-4.7 5-8.2 6.6-2.9 1.2-5.7 2.5-8.5 3.9-1 .5-1.9.9-2.8 1.1-.7.2-1.4.4-2.1.7m38.1 30c0-.7 0-1.4.1-2.2 1.3-.4 2.6-.1 4 .9s2.3 2.4 2.8 4.3" style="stroke-width:4.35248"/>
        <path d="M340.05 265.45c0 .8-.2 1.5-.4 2.1-.8 2.2-1.6 4.1-2.5 5.9-2.1 3.5-1.6 6.7 1.4 9.5m-1.6-23.8c-.4 4.3-1.8 7.6-4.3 9.8-2.3 2.1-4.8 4-7.5 6s-5.3 4.5-7.7 7.3c-1.7 2-2.9 4.3-3.5 7m-39.1-26.7c3.6.6 7.1.6 10.7 0 1.9-.4 3.2-1.7 3.9-4q.45-2.4 3.9-1.5c2.1-1.8 4.5-3.2 7.1-4.1m-30.1 6.3c.2.1.4.2.7.4-.4.3-.7.7-1 1.2" style="stroke-width:4.35248"/>
        <path d="M274.85 262.55c3.3-2.1 3.1-3.7-.7-4.8-2.1-.5-3.3-.1-3.8 1.5m0 0c-.1-.1-.2-.1-.3-.2m0 0c.2-3.4 1.1-6.3 2.7-8.5 1.2-1.7 1.7-2.7 1.5-2.7m-11.6 2.6c1.8.3 2.9 1.2 3.4 2.9.4 1.7.1 3.1-1 4.3m0 0c1.9.2 3.5.7 5 1.4" style="stroke-width:4.35248"/>
        <path d="M270.05 260.85c-1.8 2.6-2.5 5.4-1.9 8.4 1.7-2.7 3.9-4.9 6.5-6.6.1 0 .2-.1.2-.1m-4.8-1.7c0-.7.1-1.2.3-1.6m-.3-.2v1.8m59.6 45.9c-.4.4-.8.8-1.3 1.1l-.6.3m-1.1.3c.4 0 .8-.1 1.1-.3m1.9-1.4q.6-1.05.9-2.4c.7-3.1 1.4-6 2.4-8.7m8.5 1.2c-1.3.4-1.8 1.6-1.5 3.8.2 1.5.2 2.9-.1 4m-3.5 3.4c-.3.1-.5.2-.8.2-2.3.7-4.2.1-5.9-1.5" style="stroke-width:4.35248"/>
        <path d="M327.75 308.15c.1 3.4.5 6.3 1.2 8.6 2-3.5 4.2-6.3 6.6-8.5.3 0 .6-.1.8-.2m0 0c.3-.2.6-.3 1-.5.1-.1.2-.1.3-.2 1.1-.6 1.8-1.5 2.2-2.7m0 0c.5 1.5 1.2 2.5 2.3 3.3m-15.5.5c-1.2.2-2.4-.3-3.6-1.2-1.7-1.3-2.5-3.3-2.7-6m.5-4.9h-.6c-3.8-.1-5.9-2.5-6.3-7.1" style="stroke-width:4.35248"/>
        <path d="M313.95 289.25c-.2.9-.3 1.9-.4 3-.4 2.9-.4 6.7-.1 11.2 2-2.9 4.3-5.1 7-6.8.1-.1.2-.2.4-.3m0 0c-.4 1.9-.5 3.5-.5 4.9m0 0c-.5 3.3-.7 7-.5 11.2 0 .8.1 1.6.4 2.3 2-2.5 4.1-4.5 6.4-6.3m108.6-249.5c.5-.5 1-1 1.4-1.5 2-2.1 3.3-4.7 3.9-7.5 1.3-5.6 1.4-11.1.2-16.5-4 0-7.9-.1-11.8-.3-2.5-.2-4.8-.1-7.1.4m-83.3 249.4c.1 3.4 1.2 6.1 3.4 8.1.9.6 2 1.1 3.4 1.5.4-2.6.5-4.8.1-6.6m-84.9-58c.9-2.8 2-5.1 3.4-6.6m-3.4 6.6c2.1-1.7 4.3-2.9 6.7-3.6m190.4-2.4c-.2 2-.4 4.1-.6 6.1-.1.3-.1.6-.2 1-.5 4.5-1.4 8.4-2.5 11.9m-56.2-5.4c-.1.7-.3 1.3-.8 1.7-2.2 2.4-4.2 5.3-5.7 8.4-1.8 3.3-4.2 6.1-7 8.3-2.6 2.1-5.3 3.8-8.2 5.2-2.5 1.4-5.1 2.2-7.7 2.5-3.5.5-7 .7-10.6.7h-8.6m4.6 18c-.5-.9-1-1.9-1.3-3q-.6-1.35-.9-2.7-1.8-5.7-2.4-12.3m4.6 18c0 .1 0 .1.1.2q1.05 2.1 2.7 4.2c1 1.3 1.9 2.7 2.8 4.1" style="stroke-width:4.35248"/>
        <path d="M345.45 285.95q5.1-.45 8.7-5.4v-.2m5.6 8.5c.9 1.6 1.8 3.3 2.5 5.1 1.3 3.3 1.8 7.1 1.6 11.3-.1 3.9-.3 7.7-.5 11.5-.2 4.1-.6 8-1 11.8-.6 3.9-.8 7.9-.7 11.9v11.8c0 .9 0 2.9.1 6.1v.7m-15.9-49.9c.7 0 1.5-.1 2.3-.2 3.7-.4 5.3-3.1 4.7-8-.5-4.5.5-7.6 3.2-9.5 1.5-1 2.7-1.9 3.7-2.6m-17.6 19.1c-1 3.5-.1 6.2 2.5 8 .5-2.5 1-4.8 1.2-6.8m116.9 93.9c.4.1.9.1 1.4.1 2.2-.1 4-1.1 5.6-3 2.3-2.7 2.8-6.1 1.6-10-.3-1.2-.6-2.3-1.1-3.6-1.3-3.3-2.4-6.8-3.3-10.3-.8-3-1.1-6.2-1-9.4 2.4-12.8 3.9-25.7 4.7-38.6 1.8-34.8-2.5-70.2-13-106.3" style="stroke-width:4.35248"/>
        <path d="M345.85 309.15c-1.5-.1-2.7-.5-3.7-1.2m7.6-269.1c-4.4-1-8 .3-11.1 3.8m114 352.3c.8-2.4 1.2-4.8 1.2-7.5-.1-3.8-.2-7.8-.2-11.7m9.1 27.3c-.7 0-1.3-.2-2-.4-3.1-1-5.9-3.6-8.1-7.7m-43 48.9c.2-.5.5-1 .8-1.5 2.4-.1 4.7-.6 6.8-1.6q1.35-.6 2.7-1.5c2.8-1.9 5.5-4.1 8.1-6.4q4.05-3.75 7.5-7.8c2-2.6 3.8-5.4 5.6-8.4 1.5-2.8 3.2-5.8 4.8-8.9l5.4-9.9c.5-.9.9-1.9 1.3-2.9m8.8 34.1c.2-.6.4-1.3.6-1.9 1-3.7 1.5-7.6 1.4-11.6-.1-4.1-.4-8.2-.7-12.5m-101-44c.1-.3.2-.5.3-.7 1.7-3.5 10.3-12.7 25.9-27.4m-26.2 28.1c-1.4 3-3 6.1-4.8 9.1-1.9 3.1-3.8 6.2-5.6 9.2-1.9 3.2-3.6 6.5-5 9.8a81 81 0 0 0-3.9 10.5c-1.2 3.4-2.2 6.9-3.2 10.4-1.2 3.8-2.3 7.6-3.4 11.3-1.2 3.8-2 7.6-2.5 11.5s-1.1 7.8-1.5 11.5c-.6 3.7-1 7.7-1.1 11.7-.2 4-.4 8-.4 12-.1 4-.3 7.9-.6 11.8s-.4 7.9-.4 11.9v2.7c-.1 1-.1 1.9-.1 2.9-4.9 1.1-8.2 1.7-9.8 1.7-.5-.1-1 0-1.6 0m91.8-53.2c.5 3.4 1.2 6.2 2.2 8.4 1.4 3.3 2.7 6.6 4 10 1.3 3.1 3 6.3 4.9 9.5 1.6 2.5 3.4 5.4 5.6 8.5 1.9 3.1 4.2 5.8 6.7 8.2 2 2 3.2 4.5 3.5 7.5s.3 5.9 0 8.6m-66.4-32.2c2.8-1.6 5.6-3.1 8.4-4.6 3.1-1.8 6.2-3.5 9-5.4 2.7-1.7 5.5-3.5 8.4-5.3q4.2-2.85 7.8-6.3c2.4-2.2 4.3-4.5 5.9-6.9m-43.8 30.2c1-.2 2.1-.6 3.2-1.1.4-.2.7-.4 1.1-.6" style="stroke-width:4.35248"/>
        <path d="M310.45 535.05c3 .4 6 .9 9 1.4.5.1 1.1.2 1.6.4 1.9.4 3.6.8 5.2 1.4 1.5.4 3.1.6 4.7.7 3.4.1 6.8 0 10.5-.3 3.4-.3 6.6-.8 9.4-1.5 2.9-.6 5.4-2.1 7.7-4.2 2.2-2.2 4.5-5.4 6.6-9.5s3.5-8 4.2-11.6c.5-3.6.8-7.3.8-11-.1-3.7-.1-7.4-.1-11.1v-11.9c0-2.1 0-3.9.1-5.5m50.3 18.1c-.9-.8-1.7-1.5-2.5-2.2-2.9-2.3-6.2-3.4-9.9-3-.9.1-1.7.1-2.5.1 2 1 3.7 2.5 4.8 4.6m26.2 14.6c-2-.6-3.9-1.4-5.6-2.2-1.5-.8-1.8-1.4-.9-2.1-1.2-2.3-2.8-4.2-4.6-5.7-1.7-1.4-3.4-2.8-5-4.1m0 0c-1.9 2.2-4.9 2.8-8.9 1.8-.4-.8-.7-1.6-1.2-2.3m-8.4 12.9c.2 0 .5.1.8.1 3.6.6 5.8-1 6.4-4.7v-.1m0 0c2.9.9 5.5 2.1 7.9 3.6.5 2.4 2.4 3.4 5.6 2.8m-13.5-6.4c-.3-.1-.5-.2-.7-.2-3.4-1.1-6.8-.8-10.3.7-2.6 1.2-4.7 2.4-6.2 3.9 3.4-.2 6.7-.1 10 .3m8.4-12.9c-1.5 2-2 4.7-1.2 8.2m-7.2 4.7v.1c-.7 5.1 0 8.7 2.1 11m-2.3 11.2q1.35 0 2.4-1.5c2-3.2 1.3-5.9-2.2-8.1" style="stroke-width:4.35248"/>
        <path d="M401.95 515.55c-2.2 1.8-4 3.8-5.5 6.1-1.4 2.3-2.5 4.3-3.5 6.1 1.6-2.1 4.5-3 8.8-2.6m2.3-11.2c-.1.1-.3.2-.5.4-.5.4-1.1.8-1.6 1.2m2.1-1.6c2.4-1.5 5.3-2.3 8.9-2.3 1.8 1.4 4.2 1.9 7.2 1.6m-.3 12.2c-1.9.4-3.7.7-5.3.8-2.3.4-4.4 1.4-6.2 2.8m0 0c-.6.4-1.1.9-1.6 1.4m0 0c-.4.3-.7.7-.9 1-2.7 3-4.4 6-5.2 9 1.1-2.2 3.3-3.4 6.3-3.6m-5.2-11.7c-.4 3.8 1.3 5.6 5 5.3m50.1-91.6c.5-.8.9-1.4 1.1-2 1.3-2.4 2.5-5 3.5-7.8" style="stroke-width:4.35248"/>
        <path d="M422.05 538.75c5.6-.4 9.6-.4 12 .1 3.3.8 6.8 1.1 10.6.9l10.8-.3c3.4-.1 6.6-.9 9.8-2.3q4.05-2.1 5.7-6.9c1.1-3.3 1.7-7.1 1.7-11.4 0-3.9-.3-7.8-.9-11.4-.6-3.8-1-7.7-1.2-11.5q-.3-6-1.8-11.7c-1.1-3.4-2.2-7-3.5-10.5-1.4-3.5-2.6-7.2-3.5-10.9-.8-3.7-1.3-7.5-1.3-11.3.1-3.7.2-7.4.3-11.2.1-3.9.3-7.6.7-11.3" style="stroke-width:4.35248"/>
        <path d="M436.55 504.55c0 .8-.2 1.6-.3 2.4m-128-19.8c-.8-.7-1.7-1.4-2.5-2.1-2.9-2.3-6.2-3.4-9.9-3-.8 0-1.7.1-2.5.1 2 1 3.7 2.5 4.9 4.6m-1.3 8.2c-.2-.1-.4-.2-.7-.2-3.3-1.1-6.7-.8-10.3.7-2.6 1.1-4.6 2.4-6.1 3.8 3.3-.2 6.6 0 9.9.4m8.5-12.9c-1.6 2-2 4.7-1.3 8.2m0 0v.1c-.6 3.7-2.7 5.3-6.4 4.7-.3 0-.6-.1-.8-.1m20.7 1.7c-3.2.5-5.1-.4-5.5-2.8-2.4-1.6-5.1-2.8-8-3.6" style="stroke-width:4.35248"/>
        <path d="M308.25 487.15c-1.8 2.3-4.8 2.9-8.9 1.9-.3-.9-.7-1.6-1.1-2.3m-8.5 12.9c-.7 5.1.1 8.8 2.1 11m0 0c-.1.2-.3.3-.5.4-.5.4-1.1.8-1.6 1.3m0 0c-2.1 1.8-4 3.8-5.5 6.1-1.4 2.3-2.5 4.3-3.4 6.1 1.5-2.1 4.5-3 8.8-2.6" style="stroke-width:4.35248"/>
        <path d="M289.75 512.35c3.5 2.2 4.2 4.9 2.2 8.1-.6 1-1.4 1.5-2.3 1.5m6.5 3.8c1.8-1.3 3.9-2.3 6.3-2.7 1.5-.1 3.3-.4 5.3-.8m-11.6 3.5c2.6.1 3.8 1.7 3.6 4.6-.2 2.2-1.2 3.2-2.9 3.3-.7-.1-1.4-.1-2 0" style="stroke-width:4.35248"/>
        <path d="M294.55 527.25c.5-.5 1.1-1 1.6-1.5m11.9-15.7c-3 .3-5.5-.2-7.3-1.6-3.6 0-6.5.8-8.9 2.2m-2.2 11.3c-.4 3.8 1.2 5.6 4.9 5.3m0 0c-.3.3-.6.7-.9 1-2.6 3-4.3 6-5.2 9 1.2-2.2 3.3-3.4 6.4-3.6m23-36.6c-1.2-2.3-2.7-4.2-4.6-5.7-1.7-1.4-3.3-2.8-5-4.2m9.6 9.9c.4.6.7 1.3 1 2m-24 34.6c1.3 3.2 4 4.7 8.3 4.4 2.5-.1 4.7-.9 6.5-2.3.3-.2.5-.5.8-.7m115.3-1.4c-.8 1.8-1.8 3.4-3.2 4.6-.1.2-.3.4-.5.5m-13.7-9.7c2.6.1 3.7 1.6 3.6 4.6-.2 2.1-1.2 3.2-2.9 3.2-.8-.1-1.4-.1-2.1 0m0 0c1.4 3.2 4.1 4.7 8.3 4.4 2.5-.1 4.7-.9 6.6-2.3l.2-.2m-108.5-8.4c-.7 1.9-1.8 3.5-3.1 4.7" style="stroke-width:4.35248"/>
      </g>
      <path fill="none" stroke="#fff" stroke-linecap="round" stroke-linejoin="round" stroke-width="19.834" d="M244.15 1.25h242.7v527.8c-.7 28.5-20.2 42.6-58.3 42.4h-147.8c-16.6.6-28.8 7.6-36.7 21.1-7.8-13.5-20-20.5-36.6-21.1H59.65c-38.2.2-57.6-13.9-58.4-42.4V1.25h242.8v2.3z"/>
    </g>
  </switch>
</svg>
